<?xml version="1.0" encoding="UTF-8" standalone="no"?>
<!-- Created with Inkscape (http://www.inkscape.org/) -->

<svg
   xmlns:dc="http://purl.org/dc/elements/1.1/"
   xmlns:cc="http://creativecommons.org/ns#"
   xmlns:rdf="http://www.w3.org/1999/02/22-rdf-syntax-ns#"
   xmlns:svg="http://www.w3.org/2000/svg"
   xmlns="http://www.w3.org/2000/svg"
   xmlns:sodipodi="http://sodipodi.sourceforge.net/DTD/sodipodi-0.dtd"
   xmlns:inkscape="http://www.inkscape.org/namespaces/inkscape"
   id="svg4061"
   height="48"
   width="48"
   version="1.1"
   inkscape:version="0.92.2 (unknown)"
   sodipodi:docname="accessories-camera.svg">
  <sodipodi:namedview
     pagecolor="#ffffff"
     bordercolor="#666666"
     borderopacity="1"
     objecttolerance="10"
     gridtolerance="10"
     guidetolerance="10"
     inkscape:pageopacity="0"
     inkscape:pageshadow="2"
     inkscape:window-width="1378"
     inkscape:window-height="894"
     id="namedview40"
     showgrid="false"
     inkscape:zoom="4.9166667"
     inkscape:cx="43.433633"
     inkscape:cy="33.857384"
     inkscape:window-x="879"
     inkscape:window-y="117"
     inkscape:window-maximized="0"
     inkscape:current-layer="g4206" />
  <defs
     id="defs4063">
    <linearGradient
       id="linearGradient3026"
       y2="40.495998"
       gradientUnits="userSpaceOnUse"
       x2="71.204002"
       gradientTransform="matrix(1.617,0,0,1.617,-92.707,-21.06)"
       y1="15.369"
       x1="71.204002"
       spreadMethod="pad">
      <stop
         id="stop4808-4"
         stop-color="#fff"
         offset="0" />
      <stop
         id="stop4810-0"
         stop-color="#fff"
         stop-opacity=".23529"
         offset=".42448" />
      <stop
         id="stop4812-8"
         stop-color="#fff"
         stop-opacity=".15686"
         offset=".82090" />
      <stop
         id="stop4814-0"
         stop-color="#fff"
         stop-opacity=".39216"
         offset="1" />
    </linearGradient>
    <radialGradient
       id="radialGradient3029"
       fx="4.459"
       fy="8.5089"
       gradientUnits="userSpaceOnUse"
       cy="8.6258"
       cx="15.026"
       gradientTransform="matrix(-3.4973e-8 1.8855 -1.7764 -5.4723e-8 39.14 -7.9932)"
       r="20">
      <stop
         id="stop4170"
         stop-color="#c24251"
         offset="0" />
      <stop
         id="stop4172"
         stop-color="#c24251"
         offset=".26238" />
      <stop
         id="stop4174"
         stop-color="#a63643"
         offset=".66094" />
      <stop
         id="stop4176"
         stop-color="#a63643"
         offset="1" />
    </radialGradient>
    <radialGradient
       id="radialGradient3032"
       gradientUnits="userSpaceOnUse"
       cy="3.99"
       cx="23.896"
       gradientTransform="matrix(0,2.8885,-3.8128,0,39.11978,-65.65339)"
       r="20.397">
      <stop
         id="stop3244-9-33-7-0-9"
         stop-color="#fff"
         offset="0" />
      <stop
         id="stop3246-3-5-0-8-5"
         stop-color="#ddd"
         offset=".26238" />
      <stop
         id="stop3248-1-7-8-8-1"
         stop-color="#abacae"
         offset=".66094" />
      <stop
         id="stop3250-9-3-0-5-1"
         stop-color="#89898b"
         offset="1" />
    </radialGradient>
    <radialGradient
       id="radialGradient3035"
       gradientUnits="userSpaceOnUse"
       cy="186.17"
       cx="99.157"
       gradientTransform="matrix(0.27083,0,0,0.087623,-3.8635742,25.898864)"
       r="62.769">
      <stop
         id="stop3822-2-6-3"
         stop-color="#3d3d3d"
         offset="0" />
      <stop
         id="stop3864-8-7-7"
         stop-color="#686868"
         stop-opacity=".49804"
         offset=".5" />
      <stop
         id="stop3824-1-2-5"
         stop-color="#686868"
         stop-opacity="0"
         offset="1" />
    </radialGradient>
    <linearGradient
       id="linearGradient4433"
       y2="25.611"
       gradientUnits="userSpaceOnUse"
       x2="23.078"
       gradientTransform="matrix(1 0 0 1.0521 0 -.90547)"
       y1="13.035"
       x1="22.759">
      <stop
         id="stop6305-1-0-2"
         stop-color="#fff"
         offset="0" />
      <stop
         id="stop6307-5-0-6"
         stop-color="#fff"
         stop-opacity="0"
         offset="1" />
    </linearGradient>
    <linearGradient
       id="linearGradient4829">
      <stop
         style="stop-color:#f4fbfc;stop-opacity:1;"
         offset="0"
         id="stop4831" />
      <stop
         style="stop-color:#d6d6d6;stop-opacity:1;"
         offset="1"
         id="stop4833" />
    </linearGradient>
    <linearGradient
       id="linearGradient4213"
       y2="37.305"
       gradientUnits="userSpaceOnUse"
       x2="21.434999"
       y1="13.905"
       x1="21.511999">
      <stop
         id="stop2240"
         stop-color="#fff"
         offset="0" />
      <stop
         id="stop2242"
         stop-color="#fff"
         stop-opacity="0"
         offset="1" />
    </linearGradient>
    <filter
       style="color-interpolation-filters:sRGB;"
       inkscape:label="Drop Shadow"
       id="filter903">
      <feFlood
         flood-opacity="0.498039"
         flood-color="rgb(0,0,0)"
         result="flood"
         id="feFlood893" />
      <feComposite
         in="flood"
         in2="SourceGraphic"
         operator="in"
         result="composite1"
         id="feComposite895" />
      <feGaussianBlur
         in="composite1"
         stdDeviation="3"
         result="blur"
         id="feGaussianBlur897" />
      <feOffset
         dx="6"
         dy="6"
         result="offset"
         id="feOffset899" />
      <feComposite
         in="SourceGraphic"
         in2="offset"
         operator="over"
         result="composite2"
         id="feComposite901" />
    </filter>
    <filter
       style="color-interpolation-filters:sRGB;"
       inkscape:label="Drop Shadow"
       id="filter90">
      <feFlood
         flood-opacity="0.498039"
         flood-color="rgb(0,0,0)"
         result="flood"
         id="feFlood80" />
      <feComposite
         in="flood"
         in2="SourceGraphic"
         operator="in"
         result="composite1"
         id="feComposite82" />
      <feGaussianBlur
         in="composite1"
         stdDeviation="3"
         result="blur"
         id="feGaussianBlur84" />
      <feOffset
         dx="6"
         dy="6"
         result="offset"
         id="feOffset86" />
      <feComposite
         in="SourceGraphic"
         in2="offset"
         operator="over"
         result="composite2"
         id="feComposite88" />
    </filter>
  </defs>
  <metadata
     id="metadata4066">
    <rdf:RDF>
      <cc:Work
         rdf:about="">
        <dc:format>image/svg+xml</dc:format>
        <dc:type
           rdf:resource="http://purl.org/dc/dcmitype/StillImage" />
        <dc:title></dc:title>
      </cc:Work>
    </rdf:RDF>
  </metadata>
  <g
     id="g4206">
    <path
       id="path3818-0-5"
       d="m 39.991521,42.211864 a 17,5.5 0 0 1 -33.9999952,0 17,5.5 0 1 1 33.9999952,0 z"
       inkscape:connector-curvature="0"
       style="fill:url(#radialGradient3035)" />
    <path
       id="path2555-7-2"
       style="color:#000000;fill:url(#radialGradient3032)"
       d="m 23.90678,3.7966098 c -11.311,0 -20.5000003,9.1890002 -20.5000003,20.5000002 0,11.311 9.1890003,20.5 20.5000003,20.5 11.311,0 20.5,-9.189 20.5,-20.5 0,-11.311 -9.189,-20.5000002 -20.5,-20.5000002 z"
       inkscape:connector-curvature="0" />
    <path
       id="path2555-7-65"
       style="color:#000000;fill:#aa0000;fill-opacity:1"
       d="m 23.90678,3.7966098 c -11.311,0 -20.5000003,9.1890002 -20.5000003,20.5000002 0,11.311 9.1890003,20.5 20.5000003,20.5 11.311,0 20.5,-9.189 20.5,-20.5 0,-11.311 -9.189,-20.5000002 -20.5,-20.5000002 z"
       inkscape:connector-curvature="0" />
    <path
       id="path4176"
       style="color:#000000;opacity:1;fill:none;stroke:#ffffff;stroke-width:2.04878044;stroke-linecap:round;stroke-linejoin:round;stroke-miterlimit:4;stroke-dasharray:none;stroke-opacity:0.98156684"
       d="M 43.97561,24 C 43.97561,35.032683 35.032683,43.97561 24,43.97561 12.967317,43.97561 4.0243902,35.032683 4.0243902,24 4.0243902,12.967317 12.967317,4.0243898 24,4.0243898 35.032683,4.0243898 43.97561,12.967317 43.97561,24 Z"
       inkscape:connector-curvature="0" />
    <g
       id="g4317"
       transform="matrix(1.0002,0,0,1.0004,-1.0018,-0.0050486)"
       style="fill:none;stroke:#000000;stroke-linecap:round;stroke-linejoin:round" />
    <path
       d="M 33.6026,18.283065 C 33.04952,17.743447 32.381105,17.47429 31.599977,17.47429 h -2.479686 l -0.564875,-1.465986 c -0.140237,-0.352777 -0.397117,-0.655905 -0.769332,-0.910689 -0.372215,-0.254783 -0.754916,-0.38283 -1.14548,-0.38283 h -5.667106 c -0.390564,0 -0.773264,0.12805 -1.145479,0.38283 -0.372215,0.254784 -0.629096,0.559219 -0.769332,0.910689 l -0.564876,1.465986 h -2.479686 c -0.782438,0 -1.449542,0.269157 -2.003933,0.808775 -0.553081,0.539619 -0.829621,1.190297 -0.829621,1.952035 v 9.662186 c 0,0.761736 0.27654,1.412416 0.829621,1.952035 0.55308,0.539618 1.221495,0.808775 2.003933,0.808775 h 15.583232 c 0.782438,0 1.449542,-0.269157 2.002622,-0.808775 0.55308,-0.539619 0.82962,-1.190299 0.82962,-1.952035 V 20.2351 c 0,-0.761736 -0.27654,-1.412416 -0.82962,-1.952035 m -6.29227,10.196577 c -0.969857,0.945967 -2.137617,1.417644 -3.503279,1.417644 -1.365662,0 -2.532111,-0.472984 -3.503278,-1.417644 -0.969856,-0.945967 -1.456095,-2.082695 -1.456095,-3.412797 0,-1.330101 0.484928,-2.468135 1.456095,-3.412795 0.969856,-0.945966 2.137616,-1.417643 3.503278,-1.417643 1.365662,0 2.532111,0.472983 3.503279,1.417643 0.969855,0.945967 1.456095,2.082694 1.456095,3.412795 0,1.330102 -0.484928,2.468137 -1.456095,3.412797 M 23.80443,21.961097 c -0.878113,0 -1.629096,0.303128 -2.25295,0.910688 -0.623853,0.607562 -0.93578,1.339249 -0.93578,2.19506 0,0.855814 0.311927,1.5875 0.93578,2.19506 0.623854,0.607562 1.374837,0.91069 2.25295,0.91069 0.878113,0 1.629096,-0.303128 2.25295,-0.91069 0.623853,-0.60756 0.93578,-1.339246 0.93578,-2.19506 0,-0.855811 -0.311927,-1.587498 -0.93578,-2.19506 -0.623854,-0.60756 -1.374837,-0.910688 -2.25295,-0.910688"
       id="path2-1"
       inkscape:connector-curvature="0"
       style="fill:#ffffff;stroke-width:1.3085984" />
  </g>
</svg>
