<?xml version="1.0" encoding="UTF-8" standalone="no"?>
<!-- Generator: flash2svg, http://dissentgraphics.com/tools/flash2svg -->

<svg
   xmlns:dc="http://purl.org/dc/elements/1.1/"
   xmlns:cc="http://creativecommons.org/ns#"
   xmlns:rdf="http://www.w3.org/1999/02/22-rdf-syntax-ns#"
   xmlns:svg="http://www.w3.org/2000/svg"
   xmlns="http://www.w3.org/2000/svg"
   xmlns:xlink="http://www.w3.org/1999/xlink"
   xmlns:sodipodi="http://sodipodi.sourceforge.net/DTD/sodipodi-0.dtd"
   xmlns:inkscape="http://www.inkscape.org/namespaces/inkscape"
   id="Calculator"
   image-rendering="optimizeSpeed"
   version="1.1"
   style="background-color:#FFFFFF"
   x="0px"
   y="0px"
   width="1024px"
   height="1024px"
   viewBox="0 0 1024 1024"
   enable-background="new 0 0 1024 1024"
   sodipodi:docname="addressbook.svg"
   inkscape:export-filename="/home/unc/OSX/calculator-app.png"
   inkscape:export-xdpi="4.5"
   inkscape:export-ydpi="4.5"
   inkscape:version="0.92.2 (5c3e80d, 2017-08-06)">
  <metadata
     id="metadata33">
    <rdf:RDF>
      <cc:Work
         rdf:about="">
        <dc:format>image/svg+xml</dc:format>
        <dc:type
           rdf:resource="http://purl.org/dc/dcmitype/StillImage" />
        <dc:title />
      </cc:Work>
    </rdf:RDF>
  </metadata>
  <sodipodi:namedview
     pagecolor="#ffffff"
     bordercolor="#666666"
     borderopacity="1"
     objecttolerance="10"
     gridtolerance="10"
     guidetolerance="10"
     inkscape:pageopacity="0"
     inkscape:pageshadow="2"
     inkscape:window-width="1440"
     inkscape:window-height="849"
     id="namedview31"
     showgrid="true"
     inkscape:pagecheckerboard="true"
     inkscape:zoom="0.61914062"
     inkscape:cx="512"
     inkscape:cy="512"
     inkscape:window-x="0"
     inkscape:window-y="25"
     inkscape:window-maximized="1"
     inkscape:current-layer="Calculator">
    <inkscape:grid
       type="xygrid"
       id="grid845" />
  </sodipodi:namedview>
  <defs
     transform="matrix(1 0 0 1 0 0) "
     id="defs2">
    <linearGradient
       inkscape:collect="always"
       id="linearGradient1116">
      <stop
         id="stop1114"
         offset="0"
         style="stop-color:#ac7c3e;stop-opacity:1" />
      <stop
         id="stop1112"
         offset="1"
         style="stop-color:#bc8b3c;stop-opacity:1" />
    </linearGradient>
    <linearGradient
       id="linearGradient840"
       inkscape:collect="always">
      <stop
         id="stop835"
         offset="0"
         style="stop-color:#ffffff;stop-opacity:1" />
      <stop
         id="stop838"
         offset="1"
         style="stop-color:#d7d7d7;stop-opacity:1" />
    </linearGradient>
    <linearGradient
       inkscape:collect="always"
       xlink:href="#linearGradient840"
       id="linearGradient843"
       x1="520"
       y1="4"
       x2="520.03137"
       y2="1026.0078"
       gradientUnits="userSpaceOnUse" />
    <linearGradient
       inkscape:collect="always"
       xlink:href="#linearGradient1116"
       id="linearGradient899"
       gradientUnits="userSpaceOnUse"
       x1="520.31714"
       y1="-118.41902"
       x2="520"
       y2="1024"
       gradientTransform="matrix(0.99798494,0,0,0.99798494,0.73130767,2.180401)" />
    <linearGradient
       id="linearGradient4296"
       inkscape:collect="always">
      <stop
         id="stop4298"
         offset="0"
         style="stop-color:#000000;stop-opacity:1;" />
      <stop
         id="stop4300"
         offset="1"
         style="stop-color:#000000;stop-opacity:0;" />
    </linearGradient>
    <linearGradient
       id="linearGradient4243"
       inkscape:collect="always">
      <stop
         id="stop4245"
         offset="0"
         style="stop-color:#bc8b3c;stop-opacity:1" />
      <stop
         id="stop4247"
         offset="1"
         style="stop-color:#ac7c3e;stop-opacity:1" />
    </linearGradient>
    <linearGradient
       id="linearGradient5423-1">
      <stop
         style="stop-color:#51b9db;stop-opacity:1;"
         offset="0"
         id="stop4237" />
      <stop
         style="stop-color:#2fabd4;stop-opacity:1;"
         offset="1"
         id="stop4239" />
    </linearGradient>
    <inkscape:perspective
       id="perspective3135"
       inkscape:persp3d-origin="113.53447 : 77.71521 : 1"
       inkscape:vp_z="213.53447 : 111.04854 : 1"
       inkscape:vp_y="0 : 1000 : 0"
       inkscape:vp_x="13.534465 : 111.04854 : 1"
       sodipodi:type="inkscape:persp3d" />
    <linearGradient
       id="linearGradient4829">
      <stop
         id="stop4831"
         offset="0"
         style="stop-color:#f4fbfc;stop-opacity:1;" />
      <stop
         id="stop4833"
         offset="1"
         style="stop-color:#d6d6d6;stop-opacity:1;" />
    </linearGradient>
    <clipPath
       id="clipPath4282"
       clipPathUnits="userSpaceOnUse">
      <rect
         rx="17"
         ry="17"
         y="1646.1122"
         x="462.5"
         height="234.375"
         width="246.875"
         id="rect4284"
         style="color:#000000;fill:#4d4d4d;fill-opacity:1;fill-rule:nonzero;stroke:none;stroke-width:9.13434315;marker:none;visibility:visible;display:inline;overflow:visible;enable-background:accumulate" />
    </clipPath>
    <linearGradient
       gradientUnits="userSpaceOnUse"
       y2="562.04968"
       x2="408.66196"
       y1="44.604382"
       x1="408.66196"
       id="linearGradient5429"
       xlink:href="#linearGradient5423"
       inkscape:collect="always" />
    <linearGradient
       id="linearGradient5423">
      <stop
         id="stop5425"
         offset="0"
         style="stop-color:#db8451;stop-opacity:1;" />
      <stop
         id="stop5427"
         offset="1"
         style="stop-color:#c85c29;stop-opacity:1;" />
    </linearGradient>
    <linearGradient
       gradientUnits="userSpaceOnUse"
       y2="993.6615"
       x2="120.28125"
       y1="993.6615"
       x1="78.5625"
       id="linearGradient3992"
       xlink:href="#linearGradient4296"
       inkscape:collect="always" />
    <linearGradient
       gradientUnits="userSpaceOnUse"
       y2="199.83986"
       x2="99.036476"
       y1="-0.50471628"
       x1="99.036476"
       id="linearGradient5473-2"
       xlink:href="#linearGradient5423-1"
       inkscape:collect="always" />
    <clipPath
       id="clipPath3378"
       clipPathUnits="userSpaceOnUse">
      <rect
         y="1432.9845"
         x="-247.76358"
         height="148.32669"
         width="144.18349"
         id="rect3380"
         style="color:#000000;display:inline;overflow:visible;visibility:visible;opacity:0.41206031;fill:#ffffff;fill-opacity:1;fill-rule:nonzero;stroke:none;stroke-width:4.81500006;stroke-linecap:round;stroke-linejoin:miter;stroke-miterlimit:4;stroke-dasharray:none;stroke-dashoffset:0;stroke-opacity:1;marker:none;enable-background:accumulate" />
    </clipPath>
    <clipPath
       id="clipPath4277"
       clipPathUnits="userSpaceOnUse">
      <path
         id="path4279"
         d="m -229.07617,1455.911 0,105.7891 c 0,0.8891 0.71244,2.5644 1.45703,2.5644 0.0895,-0.8374 -0.48376,-1.5811 0.62695,-2.5644 l 46.27539,0 2.5586,0 23.04687,0 c 4.86914,0 8.78906,-3.92 8.78906,-8.7891 l 0,-88.2109 c 0,-4.8691 -3.91992,-8.7891 -8.78906,-8.7891 l -23.04687,0 -2.5586,0 -48.35937,0 z"
         style="color:#000000;display:inline;overflow:visible;visibility:visible;opacity:1;fill:url(#linearGradient4281);fill-opacity:1;fill-rule:nonzero;stroke:none;stroke-width:4.81500006;stroke-linecap:round;stroke-linejoin:miter;stroke-miterlimit:4;stroke-dasharray:none;stroke-dashoffset:0;stroke-opacity:1;marker:none;enable-background:accumulate"
         inkscape:connector-curvature="0" />
    </clipPath>
    <linearGradient
       y2="709.1676"
       x2="-187.35687"
       y1="603.80872"
       x1="-187.35687"
       gradientTransform="translate(0,852.36218)"
       gradientUnits="userSpaceOnUse"
       id="linearGradient4281"
       xlink:href="#linearGradient4243"
       inkscape:collect="always" />
    <clipPath
       id="clipPath4328"
       clipPathUnits="userSpaceOnUse">
      <path
         id="path4330"
         d="m -229.07617,1455.911 0,105.7891 c 0,0.8891 0.71244,2.5644 1.45703,2.5644 0.0895,-0.8374 -0.48376,-1.5811 0.62695,-2.5644 l 46.27539,0 2.5586,0 23.04687,0 c 4.86914,0 8.78906,-3.92 8.78906,-8.7891 l 0,-88.2109 c 0,-4.8691 -3.91992,-8.7891 -8.78906,-8.7891 l -23.04687,0 -2.5586,0 -48.35937,0 z"
         style="color:#000000;display:inline;overflow:visible;visibility:visible;opacity:1;fill:url(#linearGradient4281);fill-opacity:1;fill-rule:nonzero;stroke:none;stroke-width:4.81500006;stroke-linecap:round;stroke-linejoin:miter;stroke-miterlimit:4;stroke-dasharray:none;stroke-dashoffset:0;stroke-opacity:1;marker:none;enable-background:accumulate"
         inkscape:connector-curvature="0" />
    </clipPath>
    <clipPath
       id="clipPath4311-0"
       clipPathUnits="userSpaceOnUse">
      <path
         id="path4313-7"
         d="m -229.07617,1455.911 0,105.7891 c 0,0.8891 0.71244,2.5644 1.45703,2.5644 0.0895,-0.8374 -0.48376,-1.5811 0.62695,-2.5644 l 46.27539,0 2.5586,0 23.04687,0 c 4.86914,0 8.78906,-3.92 8.78906,-8.7891 l 0,-88.2109 c 0,-4.8691 -3.91992,-8.7891 -8.78906,-8.7891 l -23.04687,0 -2.5586,0 -48.35937,0 z"
         style="color:#000000;display:inline;overflow:visible;visibility:visible;opacity:1;fill:url(#linearGradient4281);fill-opacity:1;fill-rule:nonzero;stroke:none;stroke-width:4.81500006;stroke-linecap:round;stroke-linejoin:miter;stroke-miterlimit:4;stroke-dasharray:none;stroke-dashoffset:0;stroke-opacity:1;marker:none;enable-background:accumulate"
         inkscape:connector-curvature="0" />
    </clipPath>
    <clipPath
       id="clipPath4328-9"
       clipPathUnits="userSpaceOnUse">
      <path
         id="path4330-6"
         d="m -229.07617,1455.911 0,105.7891 c 0,0.8891 0.71244,2.5644 1.45703,2.5644 0.0895,-0.8374 -0.48376,-1.5811 0.62695,-2.5644 l 46.27539,0 2.5586,0 23.04687,0 c 4.86914,0 8.78906,-3.92 8.78906,-8.7891 l 0,-88.2109 c 0,-4.8691 -3.91992,-8.7891 -8.78906,-8.7891 l -23.04687,0 -2.5586,0 -48.35937,0 z"
         style="color:#000000;display:inline;overflow:visible;visibility:visible;opacity:1;fill:url(#linearGradient4281);fill-opacity:1;fill-rule:nonzero;stroke:none;stroke-width:4.81500006;stroke-linecap:round;stroke-linejoin:miter;stroke-miterlimit:4;stroke-dasharray:none;stroke-dashoffset:0;stroke-opacity:1;marker:none;enable-background:accumulate"
         inkscape:connector-curvature="0" />
    </clipPath>
    <clipPath
       id="clipPath4328-4"
       clipPathUnits="userSpaceOnUse">
      <path
         id="path4330-0"
         d="m -229.07617,1455.911 0,105.7891 c 0,0.8891 0.71244,2.5644 1.45703,2.5644 0.0895,-0.8374 -0.48376,-1.5811 0.62695,-2.5644 l 46.27539,0 2.5586,0 23.04687,0 c 4.86914,0 8.78906,-3.92 8.78906,-8.7891 l 0,-88.2109 c 0,-4.8691 -3.91992,-8.7891 -8.78906,-8.7891 l -23.04687,0 -2.5586,0 -48.35937,0 z"
         style="color:#000000;display:inline;overflow:visible;visibility:visible;opacity:1;fill:url(#linearGradient4281);fill-opacity:1;fill-rule:nonzero;stroke:none;stroke-width:4.81500006;stroke-linecap:round;stroke-linejoin:miter;stroke-miterlimit:4;stroke-dasharray:none;stroke-dashoffset:0;stroke-opacity:1;marker:none;enable-background:accumulate"
         inkscape:connector-curvature="0" />
    </clipPath>
    <clipPath
       id="clipPath4898"
       clipPathUnits="userSpaceOnUse">
      <path
         inkscape:connector-curvature="0"
         style="color:#000000;display:inline;overflow:visible;visibility:visible;opacity:1;fill:url(#linearGradient4281);fill-opacity:1;fill-rule:nonzero;stroke:none;stroke-width:4.81500006;stroke-linecap:round;stroke-linejoin:miter;stroke-miterlimit:4;stroke-dasharray:none;stroke-dashoffset:0;stroke-opacity:1;marker:none;enable-background:accumulate"
         d="m -229.07617,1455.911 0,105.7891 c 0,0.8891 0.71244,2.5644 1.45703,2.5644 0.0895,-0.8374 -0.48376,-1.5811 0.62695,-2.5644 l 46.27539,0 2.5586,0 23.04687,0 c 4.86914,0 8.78906,-3.92 8.78906,-8.7891 l 0,-88.2109 c 0,-4.8691 -3.91992,-8.7891 -8.78906,-8.7891 l -23.04687,0 -2.5586,0 -48.35937,0 z"
         id="path4900" />
    </clipPath>
    <clipPath
       id="clipPath4928"
       clipPathUnits="userSpaceOnUse">
      <path
         id="path4930"
         d="m -229.07617,1455.911 0,105.7891 c 0,0.8891 0.71244,2.5644 1.45703,2.5644 0.0895,-0.8374 -0.48376,-1.5811 0.62695,-2.5644 l 46.27539,0 2.5586,0 23.04687,0 c 4.86914,0 8.78906,-3.92 8.78906,-8.7891 l 0,-88.2109 c 0,-4.8691 -3.91992,-8.7891 -8.78906,-8.7891 l -23.04687,0 -2.5586,0 -48.35937,0 z"
         style="color:#000000;display:inline;overflow:visible;visibility:visible;opacity:1;fill:url(#linearGradient4281);fill-opacity:1;fill-rule:nonzero;stroke:none;stroke-width:4.81500006;stroke-linecap:round;stroke-linejoin:miter;stroke-miterlimit:4;stroke-dasharray:none;stroke-dashoffset:0;stroke-opacity:1;marker:none;enable-background:accumulate"
         inkscape:connector-curvature="0" />
    </clipPath>
    <clipPath
       id="clipPath5092"
       clipPathUnits="userSpaceOnUse">
      <path
         id="path5094"
         d="m -229.07617,1455.911 0,105.7891 c 0,0.8891 0.71244,2.5644 1.45703,2.5644 0.0895,-0.8374 -0.48376,-1.5811 0.62695,-2.5644 l 46.27539,0 2.5586,0 23.04687,0 c 4.86914,0 8.78906,-3.92 8.78906,-8.7891 l 0,-88.2109 c 0,-4.8691 -3.91992,-8.7891 -8.78906,-8.7891 l -23.04687,0 -2.5586,0 -48.35937,0 z"
         style="color:#000000;display:inline;overflow:visible;visibility:visible;opacity:1;fill:url(#linearGradient4281);fill-opacity:1;fill-rule:nonzero;stroke:none;stroke-width:4.81500006;stroke-linecap:round;stroke-linejoin:miter;stroke-miterlimit:4;stroke-dasharray:none;stroke-dashoffset:0;stroke-opacity:1;marker:none;enable-background:accumulate"
         inkscape:connector-curvature="0" />
    </clipPath>
    <clipPath
       id="clipPath5122"
       clipPathUnits="userSpaceOnUse">
      <path
         id="path5124"
         d="m -229.07617,1455.911 0,105.7891 c 0,0.8891 0.71244,2.5644 1.45703,2.5644 0.0895,-0.8374 -0.48376,-1.5811 0.62695,-2.5644 l 46.27539,0 2.5586,0 23.04687,0 c 4.86914,0 8.78906,-3.92 8.78906,-8.7891 l 0,-88.2109 c 0,-4.8691 -3.91992,-8.7891 -8.78906,-8.7891 l -23.04687,0 -2.5586,0 -48.35937,0 z"
         style="color:#000000;display:inline;overflow:visible;visibility:visible;opacity:1;fill:url(#linearGradient4281);fill-opacity:1;fill-rule:nonzero;stroke:none;stroke-width:4.81500006;stroke-linecap:round;stroke-linejoin:miter;stroke-miterlimit:4;stroke-dasharray:none;stroke-dashoffset:0;stroke-opacity:1;marker:none;enable-background:accumulate"
         inkscape:connector-curvature="0" />
    </clipPath>
    <clipPath
       id="clipPath5315"
       clipPathUnits="userSpaceOnUse">
      <rect
         style="color:#000000;display:inline;overflow:visible;visibility:visible;opacity:1;fill:#15bfe3;fill-opacity:1;fill-rule:nonzero;stroke:none;stroke-width:0.10575029;stroke-linecap:round;stroke-linejoin:miter;stroke-miterlimit:4;stroke-dasharray:none;stroke-dashoffset:0;stroke-opacity:1;marker:none;enable-background:accumulate"
         id="rect5317"
         width="8.7005014"
         height="24.124268"
         x="-149.37343"
         y="1487.7891"
         ry="2.783535"
         rx="2.8672121" />
    </clipPath>
    <clipPath
       id="clipPath5334"
       clipPathUnits="userSpaceOnUse">
      <rect
         style="color:#000000;display:inline;overflow:visible;visibility:visible;opacity:1;fill:#05d562;fill-opacity:1;fill-rule:nonzero;stroke:none;stroke-width:0.10575029;stroke-linecap:round;stroke-linejoin:miter;stroke-miterlimit:4;stroke-dasharray:none;stroke-dashoffset:0;stroke-opacity:1;marker:none;enable-background:accumulate"
         id="rect5336"
         width="8.7005014"
         height="24.124268"
         x="-149.37343"
         y="1509.0391"
         ry="2.783535"
         rx="2.8672121" />
    </clipPath>
    <clipPath
       id="clipPath5359"
       clipPathUnits="userSpaceOnUse">
      <rect
         style="color:#000000;display:inline;overflow:visible;visibility:visible;opacity:1;fill:#dd9201;fill-opacity:1;fill-rule:nonzero;stroke:none;stroke-width:0.10575029;stroke-linecap:round;stroke-linejoin:miter;stroke-miterlimit:4;stroke-dasharray:none;stroke-dashoffset:0;stroke-opacity:1;marker:none;enable-background:accumulate"
         id="rect5361"
         width="8.7005014"
         height="24.124268"
         x="-149.37343"
         y="1530.1641"
         ry="2.783535"
         rx="2.8672121" />
    </clipPath>
  </defs>
  <g
     id="shadow"
     transform="matrix(0.99609375,0,0,0.99609375,2,2)">
    <g
       id="shape">
      <path
         id="path"
         d="m 986.739,315.98644 q -9.3288,-22.61695 -21.0441,-44.31186 c -4.3932,-8.18983 -9.0576,-16.32543 -13.9932,-24.29831 C 930.49492,212.98983 904.62373,180.50169 874.08814,149.9661 774.12881,50.00678 653.39661,0 512,0 370.60339,0 249.92542,50.00678 149.9661,149.9661 50.00678,249.92542 0,370.60339 0,512 0,653.39661 50.00678,774.12881 149.9661,874.08814 249.92542,974.04746 370.60339,1024 512,1024 653.39661,1024 774.12881,974.04746 874.08814,874.08814 929.13898,818.98305 969.0576,757.58644 993.7898,689.95254 1013.9119,634.79322 1024,575.51186 1024,512 c 0,-48.70508 -5.9119,-94.96949 -17.7898,-138.79322 -1.356,-4.93559 -2.7661,-9.87119 -4.2305,-14.75254 -4.4475,-14.42712 -9.5458,-28.58305 -15.2407,-42.4678 z"
         style="fill:url(#linearGradient843);fill-opacity:1;stroke-width:1.08474576"
         inkscape:connector-curvature="0" />
    </g>
  </g>
  <path
     id="path1"
     d="m 982,512.5 c 0,-7.93398 -0.1996,-15.81806 -0.49899,-23.50255 Q 973.51713,309.21047 844.22818,179.77182 C 752.36367,87.957207 641.43764,42 511.5,42 381.61226,42 270.63633,87.957207 178.82172,179.77182 86.957206,271.58644 41,382.56236 41,512.5 c 0,129.88774 45.957206,240.86367 137.82172,332.67828 85.9764,86.1261 188.96845,131.88371 308.52704,137.32273 C 495.33264,982.8004 503.31652,983 511.5,983 641.43764,983 752.36367,936.99289 844.22818,845.17828 936.04279,753.36367 982,642.38774 982,512.5 Z"
     style="fill:url(#linearGradient899);fill-opacity:1.0;stroke-width:0.99798495"
     inkscape:connector-curvature="0" />
  <path
     style="opacity:0.07999998;fill:#ffffff;fill-opacity:1;fill-rule:evenodd;stroke:none;stroke-width:1px;stroke-linecap:butt;stroke-linejoin:miter;stroke-opacity:1"
     d="m -223.26897,1457.004 c 0,0 64.78866,0 67.26354,0 2.47487,0 9.63433,1.0607 9.63433,9.6344 0,8.5736 3.88908,-11.137 3.88908,-11.137 l -23.86485,-2.74 -57.09887,2.2981 z"
     id="path5068"
     inkscape:connector-curvature="0"
     clip-path="url(#clipPath5092)"
     transform="matrix(1.5804016,-0.23476905,0.23476905,1.5804016,-183.62279,-2168.2392)" />
  <path
     style="color:#000000;font-style:normal;font-variant:normal;font-weight:normal;font-stretch:normal;font-size:medium;line-height:normal;font-family:sans-serif;text-indent:0;text-align:start;text-decoration:none;text-decoration-line:none;text-decoration-style:solid;text-decoration-color:#000000;letter-spacing:normal;word-spacing:normal;text-transform:none;writing-mode:lr-tb;direction:ltr;baseline-shift:baseline;text-anchor:start;white-space:normal;clip-rule:nonzero;display:inline;overflow:visible;visibility:visible;opacity:0.75;isolation:auto;mix-blend-mode:normal;color-interpolation:sRGB;color-interpolation-filters:linearRGB;solid-color:#000000;solid-opacity:1;fill:#8a5411;fill-opacity:1;fill-rule:nonzero;stroke:none;stroke-width:27.65101624;stroke-linecap:round;stroke-linejoin:miter;stroke-miterlimit:4;stroke-dasharray:none;stroke-dashoffset:0;stroke-opacity:1;marker:none;color-rendering:auto;image-rendering:auto;shape-rendering:auto;text-rendering:auto;enable-background:accumulate"
     d="M 468.67082,248.54193 C 318.66366,270.82566 214.55603,409.69741 236.65369,558.4528 258.75126,707.20707 398.7342,809.83831 548.74137,787.55521 698.74851,765.27116 802.83454,626.38328 780.73698,477.62884 758.6393,328.87346 618.67797,226.25787 468.67082,248.54193 Z m 4.06208,27.34443 c 135.37042,-20.10921 260.77913,71.97708 280.65922,205.80443 8.49706,57.19971 -3.72468,112.66938 -31.01146,159.0562 C 719.48516,639.25518 634.7284,595.8702 580,604 c 0,0 -20.72904,-17.60538 -20.33799,-55.59893 10e-5,0 18.33073,-21.68011 17.34361,-68.95144 0,0 2.49912,-29.70269 -3.84432,-31.778 0,0 -1.15376,-10.58825 -0.59917,-30.06938 0.55479,-19.48098 -7.21575,-83.42109 -94.05416,-70.52122 -86.83853,12.90002 -75.6869,76.33732 -69.4933,94.81603 6.19361,18.47951 8.18582,28.94233 8.18582,28.94233 -5.46612,3.82947 5.5405,31.52605 5.5405,31.52605 12.79688,45.51732 36.63783,60.93268 36.63783,60.93268 11.41842,36.23842 -3.27902,59.10821 -3.27902,59.10821 C 406.94818,629.70722 349.36964,681.2645 335.90123,693.8151 298.443,657.74731 272.22489,609.6394 264.01727,554.38782 244.13719,420.56047 337.36248,295.99572 472.73298,275.88636 Z"
     id="path5128"
     inkscape:connector-curvature="0" />
</svg>
