<?xml version="1.0" encoding="UTF-8" standalone="no"?>
<!-- Created with Inkscape (http://www.inkscape.org/) -->

<svg
   xmlns:dc="http://purl.org/dc/elements/1.1/"
   xmlns:cc="http://creativecommons.org/ns#"
   xmlns:rdf="http://www.w3.org/1999/02/22-rdf-syntax-ns#"
   xmlns:svg="http://www.w3.org/2000/svg"
   xmlns="http://www.w3.org/2000/svg"
   xmlns:xlink="http://www.w3.org/1999/xlink"
   xmlns:sodipodi="http://sodipodi.sourceforge.net/DTD/sodipodi-0.dtd"
   xmlns:inkscape="http://www.inkscape.org/namespaces/inkscape"
   id="svg4061"
   height="48"
   width="48"
   version="1.1"
   inkscape:version="0.92.2 (unknown)"
   sodipodi:docname="bitwig-modular.svg">
  <sodipodi:namedview
     pagecolor="#ffffff"
     bordercolor="#666666"
     borderopacity="1"
     objecttolerance="10"
     gridtolerance="10"
     guidetolerance="10"
     inkscape:pageopacity="0"
     inkscape:pageshadow="2"
     inkscape:window-width="1860"
     inkscape:window-height="1178"
     id="namedview46"
     showgrid="false"
     inkscape:zoom="4.9166667"
     inkscape:cx="-71.186441"
     inkscape:cy="-13.423727"
     inkscape:window-x="391"
     inkscape:window-y="72"
     inkscape:window-maximized="0"
     inkscape:current-layer="svg4061" />
  <defs
     id="defs4063">
    <linearGradient
       id="linearGradient3026"
       y2="40.496"
       gradientUnits="userSpaceOnUse"
       x2="71.204"
       gradientTransform="matrix(1.617 0 0 1.617 -92.707 -21.06)"
       y1="15.369"
       x1="71.204">
      <stop
         id="stop4808-4"
         stop-color="#fff"
         offset="0" />
      <stop
         id="stop4810-0"
         stop-color="#fff"
         stop-opacity=".23529"
         offset=".42448" />
      <stop
         id="stop4812-8"
         stop-color="#fff"
         stop-opacity=".15686"
         offset=".82090" />
      <stop
         id="stop4814-0"
         stop-color="#fff"
         stop-opacity=".39216"
         offset="1" />
    </linearGradient>
    <radialGradient
       id="radialGradient3029"
       fx="4.459"
       fy="8.5089"
       gradientUnits="userSpaceOnUse"
       cy="8.6258"
       cx="15.026"
       gradientTransform="matrix(-3.4973e-8 1.8855 -1.7764 -5.4723e-8 39.14 -7.9932)"
       r="20">
      <stop
         id="stop4170"
         stop-color="#ff9696"
         offset="0" />
      <stop
         id="stop4172"
         stop-color="#fd7676"
         offset="0.1668274" />
      <stop
         id="stop4174"
         stop-color="#f94040"
         offset="0.48762146" />
      <stop
         id="stop4176"
         stop-color="#e42020"
         offset="1"
         style="stop-color:#e77f5b;stop-opacity:1" />
    </radialGradient>
    <radialGradient
       id="radialGradient3032"
       gradientUnits="userSpaceOnUse"
       cy="3.99"
       cx="23.896"
       gradientTransform="matrix(0,2.9374578,-3.8774239,0,39.470849,-67.474681)"
       r="20.397">
      <stop
         id="stop3244-9-33-7-0-9"
         stop-color="#fff"
         offset="0" />
      <stop
         id="stop3246-3-5-0-8-5"
         stop-color="#ddd"
         offset=".26238" />
      <stop
         id="stop3248-1-7-8-8-1"
         stop-color="#abacae"
         offset=".66094" />
      <stop
         id="stop3250-9-3-0-5-1"
         stop-color="#89898b"
         offset="1" />
    </radialGradient>
    <radialGradient
       id="radialGradient3035"
       gradientUnits="userSpaceOnUse"
       cy="186.17"
       cx="99.157"
       gradientTransform="matrix(0.27083,0,0,0.087623,-2.8550998,26.187597)"
       r="62.769">
      <stop
         id="stop3822-2-6-3"
         stop-color="#3d3d3d"
         offset="0" />
      <stop
         id="stop3864-8-7-7"
         stop-color="#686868"
         stop-opacity=".49804"
         offset=".5" />
      <stop
         id="stop3824-1-2-5"
         stop-color="#686868"
         stop-opacity="0"
         offset="1" />
    </radialGradient>
    <linearGradient
       id="ButtonShadow"
       y2="7.0165"
       gradientUnits="userSpaceOnUse"
       x2="45.448"
       gradientTransform="scale(1.0059 .99417)"
       y1="92.54"
       x1="45.448">
      <stop
         id="stop3750"
         offset="0" />
      <stop
         id="stop3752"
         stop-opacity=".58824"
         offset="1" />
    </linearGradient>
    <filter
       id="filter3174"
       style="color-interpolation-filters:sRGB">
      <feGaussianBlur
         id="feGaussianBlur3176"
         stdDeviation="1.71" />
    </filter>
    <linearGradient
       id="linearGradient3185"
       y2="-167.53"
       xlink:href="#SVGID_14_"
       gradientUnits="userSpaceOnUse"
       x2="206.69"
       gradientTransform="matrix(.72832 0 0 -.72832 -295.83 -108.58)"
       y1="-167.53"
       x1="206.69" />
    <linearGradient
       id="SVGID_14_"
       y2="-167.53"
       gradientUnits="userSpaceOnUse"
       x2="206.69"
       gradientTransform="matrix(1 0 0 -1 -270.96 -122.07)"
       y1="-167.53"
       x1="206.69">
      <stop
         id="stop3506"
         stop-color="#7e9ec4"
         offset="0" />
      <stop
         id="stop3508"
         stop-color="#151d89"
         offset="1" />
    </linearGradient>
    <linearGradient
       id="linearGradient3182"
       y2="-167.53"
       xlink:href="#SVGID_14_"
       gradientUnits="userSpaceOnUse"
       x2="206.69"
       gradientTransform="matrix(.72832 0 0 -.72832 -375.83 -107.58)"
       y1="-167.53"
       x1="206.69" />
    <linearGradient
       id="linearGradient4829">
      <stop
         style="stop-color:#f4fbfc;stop-opacity:1;"
         offset="0"
         id="stop4831" />
      <stop
         style="stop-color:#d6d6d6;stop-opacity:1;"
         offset="1"
         id="stop4833" />
    </linearGradient>
    <linearGradient
       gradientTransform="translate(-128,-162)"
       gradientUnits="userSpaceOnUse"
       xlink:href="#linearGradient10457"
       id="linearGradient10810"
       x1="150"
       x2="150"
       y1="202"
       y2="178" />
    <linearGradient
       id="linearGradient10457">
      <stop
         id="stop10453"
         offset="0"
         style="stop-color:#000000;stop-opacity:1;" />
      <stop
         id="stop10455"
         offset="1"
         style="stop-color:#000000;stop-opacity:0;" />
    </linearGradient>
    <linearGradient
       gradientTransform="matrix(1.0169492,0,0,1.0169492,-130.57628,-166.1695)"
       gradientUnits="userSpaceOnUse"
       xlink:href="#linearGradient10457"
       id="linearGradient10830"
       x1="150"
       x2="150"
       y1="202"
       y2="178" />
    <linearGradient
       gradientTransform="matrix(1.0169492,0,0,1.0169492,-130.57628,-167.18645)"
       gradientUnits="userSpaceOnUse"
       xlink:href="#linearGradient10457"
       id="linearGradient10828"
       x1="155"
       x2="155"
       y1="203"
       y2="179" />
    <clipPath
       id="_clipPath_7vf1tnSQDBc88NDRkTJ2l3DQjnKf4KsQ">
      <rect
         y="0"
         x="0"
         width="48"
         height="48"
         id="rect2" />
    </clipPath>
    <filter
       style="color-interpolation-filters:sRGB;"
       inkscape:label="Drop Shadow"
       id="filter87">
      <feFlood
         flood-opacity="0.498039"
         flood-color="rgb(0,0,0)"
         result="flood"
         id="feFlood77" />
      <feComposite
         in="flood"
         in2="SourceGraphic"
         operator="in"
         result="composite1"
         id="feComposite79" />
      <feGaussianBlur
         in="composite1"
         stdDeviation="3"
         result="blur"
         id="feGaussianBlur81" />
      <feOffset
         dx="6"
         dy="6"
         result="offset"
         id="feOffset83" />
      <feComposite
         in="SourceGraphic"
         in2="offset"
         operator="over"
         result="composite2"
         id="feComposite85" />
    </filter>
  </defs>
  <metadata
     id="metadata4066">
    <rdf:RDF>
      <cc:Work
         rdf:about="">
        <dc:format>image/svg+xml</dc:format>
        <dc:type
           rdf:resource="http://purl.org/dc/dcmitype/StillImage" />
        <dc:title />
      </cc:Work>
    </rdf:RDF>
  </metadata>
  <path
     id="path3818-0-5"
     d="m 41,42.500597 a 17,5.5 0 0 1 -33.9999998,0 17,5.5 0 1 1 33.9999998,0 z"
     style="fill:url(#radialGradient3035)"
     inkscape:connector-curvature="0" />
  <path
     id="path2555-7-2"
     style="color:#000000;fill:url(#radialGradient3032);stroke-width:1.01694918"
     d="m 24,3.1524407 c -11.502712,0 -20.8474576,9.3447453 -20.8474576,20.8474573 0,11.502712 9.3447456,20.847458 20.8474576,20.847458 11.502712,0 20.847458,-9.344746 20.847458,-20.847458 C 44.847458,12.497186 35.502712,3.1524407 24,3.1524407 Z"
     inkscape:connector-curvature="0" />
  <path
     id="path2555-7-65"
     style="color:#000000;fill:#e6b836;fill-opacity:1;stroke-width:1.01694918"
     d="m 24,3.1524407 c -11.502712,0 -20.8474576,9.3447453 -20.8474576,20.8474573 0,11.502712 9.3447456,20.847458 20.8474576,20.847458 11.502712,0 20.847458,-9.344746 20.847458,-20.847458 C 44.847458,12.497186 35.502712,3.1524407 24,3.1524407 Z"
     inkscape:connector-curvature="0" />
  <path
     id="path4176"
     style="color:#000000;opacity:1;fill:none;stroke:#ffffff;stroke-width:1.93220341;stroke-linecap:round;stroke-linejoin:round;stroke-miterlimit:4;stroke-dasharray:none;stroke-opacity:1"
     d="M 43.830508,23.999898 C 43.830508,34.952441 34.952542,43.830407 24,43.830407 13.047458,43.830407 4.1694915,34.952441 4.1694915,23.999898 4.1694915,13.047356 13.047458,4.1693898 24,4.1693898 c 10.952542,0 19.830508,8.8779662 19.830508,19.8305082 z"
     inkscape:connector-curvature="0" />
  <path
     id="path2555-7-1-7"
     style="color:#000000;opacity:1;fill:none;stroke:#ffffff;stroke-width:0.30508476;stroke-linecap:round;stroke-linejoin:round;stroke-miterlimit:4;stroke-dasharray:none;stroke-opacity:1"
     d="M 24,3.1525424 C 12.497288,3.1525424 3.1525424,12.497085 3.1525424,24 3.1525424,35.502915 12.497085,44.847458 24,44.847458 35.502915,44.847458 44.847458,35.502915 44.847458,24 44.847458,12.497085 35.502712,3.1525424 24,3.1525424 Z"
     inkscape:connector-curvature="0" />
  <g
     id="layer2"
     display="none"
     transform="translate(-226.12 -28.077)">
    <rect
       id="rect3745"
       opacity=".9"
       rx="6"
       ry="6"
       height="85"
       filter="url(#filter3174)"
       width="86"
       y="7"
       x="5"
       fill="url(#ButtonShadow)" />
  </g>
  <g
     transform="matrix(0.0924417,0,0,0.10389168,0.23492578,-2.8561168)"
     id="g49"
     style="fill:#000000">
    <path
       style="fill:#000000"
       inkscape:connector-curvature="0"
       d="m 384.287,288.351 c 10.348,0 18.76,8.42 18.76,18.767 0,10.344 -8.412,18.761 -18.76,18.761 -10.348,0 -18.768,-8.417 -18.768,-18.761 10e-4,-10.347 8.42,-18.767 18.768,-18.767"
       id="path21" />
    <path
       style="fill:#000000"
       inkscape:connector-curvature="0"
       d="m 333.174,288.351 c 10.342,0 18.758,8.42 18.758,18.767 0,10.344 -8.416,18.761 -18.758,18.761 -10.346,0 -18.762,-8.417 -18.762,-18.761 0,-10.347 8.416,-18.767 18.762,-18.767"
       id="path23" />
    <path
       style="fill:#000000"
       inkscape:connector-curvature="0"
       d="m 179.84,288.351 c 10.344,0 18.76,8.42 18.76,18.767 0,10.344 -8.417,18.761 -18.76,18.761 -10.346,0 -18.764,-8.417 -18.764,-18.761 0.001,-10.347 8.418,-18.767 18.764,-18.767"
       id="path25" />
    <path
       style="fill:#000000"
       inkscape:connector-curvature="0"
       d="m 128.732,288.351 c 10.34,0 18.757,8.42 18.757,18.767 0,10.344 -8.417,18.761 -18.757,18.761 -10.354,0 -18.77,-8.417 -18.77,-18.761 0,-10.347 8.416,-18.767 18.77,-18.767"
       id="path27" />
    <path
       style="fill:#000000"
       inkscape:connector-curvature="0"
       d="m 384.287,237.239 c 10.348,0 18.76,8.417 18.76,18.762 0,10.348 -8.412,18.759 -18.76,18.759 -10.348,0 -18.768,-8.411 -18.768,-18.759 10e-4,-10.345 8.42,-18.762 18.768,-18.762"
       id="path29" />
    <path
       style="fill:#000000"
       inkscape:connector-curvature="0"
       d="m 333.174,237.239 c 10.342,0 18.758,8.417 18.758,18.762 0,10.348 -8.416,18.759 -18.758,18.759 -10.346,0 -18.762,-8.411 -18.762,-18.759 0,-10.345 8.416,-18.762 18.762,-18.762"
       id="path31" />
    <path
       style="fill:#000000"
       inkscape:connector-curvature="0"
       d="m 282.068,237.239 c 10.334,0 18.748,8.417 18.748,18.762 0,10.348 -8.414,18.759 -18.748,18.759 -10.355,0 -18.767,-8.411 -18.767,-18.759 0.001,-10.345 8.412,-18.762 18.767,-18.762"
       id="path33" />
    <path
       style="fill:#000000"
       inkscape:connector-curvature="0"
       d="m 230.949,237.239 c 10.349,0 18.757,8.417 18.757,18.762 0,10.348 -8.408,18.759 -18.757,18.759 -10.343,0 -18.758,-8.411 -18.758,-18.759 -0.001,-10.345 8.415,-18.762 18.758,-18.762"
       id="path35" />
    <path
       style="fill:#000000"
       inkscape:connector-curvature="0"
       d="m 179.84,237.239 c 10.344,0 18.76,8.417 18.76,18.762 0,10.348 -8.417,18.759 -18.76,18.759 -10.346,0 -18.764,-8.411 -18.764,-18.759 0.001,-10.345 8.418,-18.762 18.764,-18.762"
       id="path37" />
    <path
       style="fill:#000000"
       inkscape:connector-curvature="0"
       d="m 333.174,186.122 c 10.342,0 18.758,8.415 18.758,18.761 0,10.346 -8.416,18.762 -18.758,18.762 -10.346,0 -18.762,-8.416 -18.762,-18.762 0,-10.346 8.416,-18.761 18.762,-18.761"
       id="path39" />
    <path
       style="fill:#000000"
       inkscape:connector-curvature="0"
       d="m 282.068,186.122 c 10.334,0 18.748,8.415 18.748,18.761 0,10.346 -8.414,18.762 -18.748,18.762 -10.355,0 -18.767,-8.416 -18.767,-18.762 0,-10.346 8.412,-18.761 18.767,-18.761"
       id="path41" />
    <path
       style="fill:#000000"
       inkscape:connector-curvature="0"
       d="m 230.949,186.122 c 10.349,0 18.757,8.415 18.757,18.761 0,10.346 -8.408,18.762 -18.757,18.762 -10.343,0 -18.758,-8.416 -18.758,-18.762 0,-10.346 8.415,-18.761 18.758,-18.761"
       id="path43" />
    <path
       style="fill:#000000"
       inkscape:connector-curvature="0"
       d="m 179.84,186.122 c 10.344,0 18.76,8.415 18.76,18.761 0,10.346 -8.417,18.762 -18.76,18.762 -10.346,0 -18.764,-8.416 -18.764,-18.762 0,-10.346 8.418,-18.761 18.764,-18.761"
       id="path45" />
    <path
       style="fill:#000000"
       inkscape:connector-curvature="0"
       d="m 128.732,237.239 c 10.34,0 18.757,8.417 18.757,18.762 0,10.348 -8.417,18.759 -18.757,18.759 -10.354,0 -18.77,-8.411 -18.77,-18.759 0,-10.345 8.416,-18.762 18.77,-18.762"
       id="path47" />
  </g>
</svg>
