<?xml version="1.0" encoding="UTF-8" standalone="no"?>
<!-- Generator: flash2svg, http://dissentgraphics.com/tools/flash2svg -->

<svg
   xmlns:dc="http://purl.org/dc/elements/1.1/"
   xmlns:cc="http://creativecommons.org/ns#"
   xmlns:rdf="http://www.w3.org/1999/02/22-rdf-syntax-ns#"
   xmlns:svg="http://www.w3.org/2000/svg"
   xmlns="http://www.w3.org/2000/svg"
   xmlns:xlink="http://www.w3.org/1999/xlink"
   xmlns:sodipodi="http://sodipodi.sourceforge.net/DTD/sodipodi-0.dtd"
   xmlns:inkscape="http://www.inkscape.org/namespaces/inkscape"
   id="Calculator"
   image-rendering="optimizeSpeed"
   version="1.1"
   style="background-color:#FFFFFF"
   x="0px"
   y="0px"
   width="1024px"
   height="1024px"
   viewBox="0 0 1024 1024"
   enable-background="new 0 0 1024 1024"
   sodipodi:docname="calc.svg"
   inkscape:export-filename="/home/unc/OSX/calculator-app.png"
   inkscape:export-xdpi="4.5"
   inkscape:export-ydpi="4.5"
   inkscape:version="0.92.2 2405546, 2018-03-11">
  <metadata
     id="metadata33">
    <rdf:RDF>
      <cc:Work
         rdf:about="">
        <dc:format>image/svg+xml</dc:format>
        <dc:type
           rdf:resource="http://purl.org/dc/dcmitype/StillImage" />
        <dc:title />
      </cc:Work>
    </rdf:RDF>
  </metadata>
  <sodipodi:namedview
     pagecolor="#ffffff"
     bordercolor="#666666"
     borderopacity="1"
     objecttolerance="10"
     gridtolerance="10"
     guidetolerance="10"
     inkscape:pageopacity="0"
     inkscape:pageshadow="2"
     inkscape:window-width="1366"
     inkscape:window-height="745"
     id="namedview31"
     showgrid="true"
     inkscape:pagecheckerboard="true"
     inkscape:zoom="0.60253906"
     inkscape:cx="262.22366"
     inkscape:cy="512"
     inkscape:window-x="0"
     inkscape:window-y="23"
     inkscape:window-maximized="1"
     inkscape:current-layer="Calculator"
     showguides="true"
     inkscape:guide-bbox="true">
    <inkscape:grid
       type="xygrid"
       id="grid845" />
  </sodipodi:namedview>
  <defs
     transform="matrix(1 0 0 1 0 0) "
     id="defs2">
    <linearGradient
       id="linearGradient882"
       inkscape:collect="always">
      <stop
         id="stop878"
         offset="0"
         style="stop-color:#2f5fdd;stop-opacity:1" />
      <stop
         id="stop880"
         offset="1"
         style="stop-color:#1a7fd4;stop-opacity:1" />
    </linearGradient>
    <linearGradient
       inkscape:collect="always"
       id="linearGradient854">
      <stop
         style="stop-color:#111111;stop-opacity:1"
         offset="0"
         id="stop850" />
      <stop
         style="stop-color:#3b3b3b;stop-opacity:1"
         offset="1"
         id="stop852" />
    </linearGradient>
    <linearGradient
       id="linearGradient840"
       inkscape:collect="always">
      <stop
         id="stop835"
         offset="0"
         style="stop-color:#ffffff;stop-opacity:1" />
      <stop
         id="stop838"
         offset="1"
         style="stop-color:#d7d7d7;stop-opacity:1" />
    </linearGradient>
    <linearGradient
       inkscape:collect="always"
       id="linearGradient851">
      <stop
         style="stop-color:#fec589;stop-opacity:1"
         offset="0"
         id="stop847" />
      <stop
         style="stop-color:#f34f17;stop-opacity:1"
         offset="1"
         id="stop849" />
    </linearGradient>
    <linearGradient
       inkscape:collect="always"
       xlink:href="#linearGradient840"
       id="linearGradient843"
       x1="520"
       y1="4"
       x2="520.03137"
       y2="1026.0078"
       gradientUnits="userSpaceOnUse" />
    <linearGradient
       inkscape:collect="always"
       xlink:href="#linearGradient851"
       id="linearGradient4661"
       gradientUnits="userSpaceOnUse"
       x1="520"
       y1="4"
       x2="520"
       y2="1024" />
    <linearGradient
       inkscape:collect="always"
       xlink:href="#linearGradient854"
       id="linearGradient856"
       x1="520"
       y1="4"
       x2="520"
       y2="1024"
       gradientUnits="userSpaceOnUse"
       gradientTransform="matrix(0.88235294,0,0,0.88235294,63.235294,57.235295)" />
    <linearGradient
       inkscape:collect="always"
       xlink:href="#linearGradient882"
       id="linearGradient876"
       gradientUnits="userSpaceOnUse"
       x1="520"
       y1="4"
       x2="520"
       y2="1024"
       gradientTransform="matrix(0.96113444,0,0,0.96113444,22.938568,16.85976)" />
    <linearGradient
       inkscape:collect="always"
       xlink:href="#linearGradient882"
       id="linearGradient890"
       x1="760"
       y1="4"
       x2="760"
       y2="1024"
       gradientUnits="userSpaceOnUse"
       gradientTransform="matrix(0.88235294,0,0,0.88235294,63.235294,57.235295)" />
  </defs>
  <g
     id="shadow"
     transform="matrix(0.87890625,0,0,0.87890625,65,59)">
    <g
       id="shape">
      <path
         id="path"
         d="m 986.739,315.98644 q -9.3288,-22.61695 -21.0441,-44.31186 c -4.3932,-8.18983 -9.0576,-16.32543 -13.9932,-24.29831 C 930.49492,212.98983 904.62373,180.50169 874.08814,149.9661 774.12881,50.00678 653.39661,0 512,0 370.60339,0 249.92542,50.00678 149.9661,149.9661 50.00678,249.92542 0,370.60339 0,512 0,653.39661 50.00678,774.12881 149.9661,874.08814 249.92542,974.04746 370.60339,1024 512,1024 653.39661,1024 774.12881,974.04746 874.08814,874.08814 929.13898,818.98305 969.0576,757.58644 993.7898,689.95254 1013.9119,634.79322 1024,575.51186 1024,512 c 0,-48.70508 -5.9119,-94.96949 -17.7898,-138.79322 -1.356,-4.93559 -2.7661,-9.87119 -4.2305,-14.75254 -4.4475,-14.42712 -9.5458,-28.58305 -15.2407,-42.4678 z"
         style="fill:url(#linearGradient843);fill-opacity:1;stroke-width:1.08474576"
         inkscape:connector-curvature="0" />
    </g>
  </g>
  <circle
     cy="509.44116"
     cx="514.55884"
     id="circle874"
     style="opacity:1;fill:url(#linearGradient876);fill-opacity:1;fill-rule:nonzero;stroke:none;stroke-width:74.13340759;stroke-linecap:square;stroke-linejoin:miter;stroke-miterlimit:4;stroke-dasharray:none;stroke-opacity:0.004717;paint-order:stroke markers fill"
     r="415.14706" />
  <circle
     style="opacity:1;fill:url(#linearGradient856);fill-opacity:1;fill-rule:nonzero;stroke:none;stroke-width:68.05690002;stroke-linecap:square;stroke-linejoin:miter;stroke-miterlimit:4;stroke-dasharray:none;stroke-opacity:0.004717;paint-order:stroke markers fill"
     id="path848"
     cx="514.55884"
     cy="509.44116"
     r="381.11859" />
  <path
     style="fill:url(#linearGradient890);fill-opacity:1;stroke-width:16.13445473"
     d="m 515,509 v 415.58651 c 114.46037,-0.10425 212.19011,-40.69743 293.14281,-121.60616 81.01289,-81.01289 121.56307,-178.93234 121.56307,-293.53917 0,-0.14734 0,-0.29389 0,-0.44118 z"
     id="rect8"
     inkscape:connector-curvature="0" />
  <path
     inkscape:connector-curvature="0"
     style="fill:#ffffff;stroke-width:9.07563114"
     d="M 716.17647,696.05882 H 607.2689 c -5.00974,0 -9.07563,-4.05681 -9.07563,-9.07563 0,-5.01883 4.06589,-9.07563 9.07563,-9.07563 h 108.90757 c 5.00974,0 9.07563,4.0568 9.07563,9.07563 0,5.01882 -4.06589,9.07563 -9.07563,9.07563 z"
     id="path10" />
  <path
     inkscape:connector-curvature="0"
     style="fill:#ffffff;stroke-width:9.07563114"
     d="M 716.17647,641.60504 H 607.2689 c -5.00974,0 -9.07563,-4.0568 -9.07563,-9.07563 0,-5.01882 4.06589,-9.07563 9.07563,-9.07563 h 108.90757 c 5.00974,0 9.07563,4.05681 9.07563,9.07563 0,5.01883 -4.06589,9.07563 -9.07563,9.07563 z"
     id="path12" />
  <path
     inkscape:connector-curvature="0"
     style="fill:#ffffff;stroke-width:8.74963665"
     d="m 363.23529,678.41176 c -2.2399,0 -4.47981,-0.85746 -6.18599,-2.56364 -3.4211,-3.4211 -3.4211,-8.95088 0,-12.37198 l 43.74817,-43.74818 c 3.42112,-3.42111 8.95088,-3.42111 12.37199,0 3.42111,3.4211 3.42111,8.95088 0,12.37198 l -43.74817,43.74818 c -1.70618,1.70618 -3.94609,2.56364 -6.186,2.56364 z"
     id="path14" />
  <path
     inkscape:connector-curvature="0"
     style="fill:#ffffff;stroke-width:8.74963665"
     d="m 319.48711,722.15994 c -2.23989,0 -4.47981,-0.85746 -6.18599,-2.56365 -3.4211,-3.4211 -3.4211,-8.95087 0,-12.37198 l 43.74818,-43.74817 c 3.42111,-3.42111 8.95088,-3.42111 12.37199,0 3.4211,3.4211 3.4211,8.95088 0,12.37198 l -43.74818,43.74817 c -1.70618,1.70619 -3.94609,2.56365 -6.186,2.56365 z"
     id="path16" />
  <path
     inkscape:connector-curvature="0"
     style="fill:#ffffff;stroke-width:8.74963665"
     d="m 406.98347,722.15994 c -2.2399,0 -4.47981,-0.85746 -6.186,-2.56365 L 357.0493,675.84812 c -3.4211,-3.4211 -3.4211,-8.95088 0,-12.37198 3.42111,-3.42111 8.95088,-3.42111 12.37199,0 l 43.74817,43.74817 c 3.42111,3.42111 3.42111,8.95088 0,12.37198 -1.70617,1.70619 -3.94609,2.56365 -6.18599,2.56365 z"
     id="path18" />
  <path
     inkscape:connector-curvature="0"
     style="fill:#ffffff;stroke-width:8.74963665"
     d="m 363.23529,678.41176 c -2.2399,0 -4.47981,-0.85746 -6.18599,-2.56364 l -43.74818,-43.74818 c -3.4211,-3.4211 -3.4211,-8.95088 0,-12.37198 3.42112,-3.42111 8.95088,-3.42111 12.37199,0 l 43.74818,43.74818 c 3.4211,3.4211 3.4211,8.95088 0,12.37198 -1.70618,1.70618 -3.94609,2.56364 -6.186,2.56364 z"
     id="path20" />
  <path
     inkscape:connector-curvature="0"
     style="fill:#f1f1f1;fill-opacity:1;stroke-width:9.07563114"
     d="M 416.17647,360.76471 H 307.2689 c -5.00974,0 -9.07563,-4.05681 -9.07563,-9.07563 0,-5.01882 4.06589,-9.07563 9.07563,-9.07563 h 108.90757 c 5.00974,0 9.07563,4.05681 9.07563,9.07563 0,5.01882 -4.06589,9.07563 -9.07563,9.07563 z"
     id="path22" />
  <path
     inkscape:connector-curvature="0"
     style="fill:#ffffff;fill-opacity:1;stroke-width:9.07563114"
     d="m 361.72269,415.21849 c -5.00975,0 -9.07563,-4.0568 -9.07563,-9.07563 V 297.23529 c 0,-5.01882 4.06588,-9.07562 9.07563,-9.07562 5.00974,0 9.07562,4.0568 9.07562,9.07562 v 108.90757 c 0,5.01883 -4.06588,9.07563 -9.07562,9.07563 z"
     id="path24" />
  <path
     inkscape:connector-curvature="0"
     style="fill:#ffffff;stroke-width:9.07563114"
     d="M 716.17647,360.76471 H 607.2689 c -5.00974,0 -9.07563,-4.05681 -9.07563,-9.07563 0,-5.01882 4.06589,-9.07563 9.07563,-9.07563 h 108.90757 c 5.00974,0 9.07563,4.05681 9.07563,9.07563 0,5.01882 -4.06589,9.07563 -9.07563,9.07563 z"
     id="path26" />
  <g
     id="g4655"
     style="fill:url(#linearGradient4661);fill-opacity:1"
     transform="matrix(0.88057495,0,0,0.88057495,63.880566,59.159177)" />
</svg>
