<?xml version="1.0" encoding="UTF-8" standalone="no"?>
<!-- Generator: flash2svg, http://dissentgraphics.com/tools/flash2svg -->

<svg
   xmlns:dc="http://purl.org/dc/elements/1.1/"
   xmlns:cc="http://creativecommons.org/ns#"
   xmlns:rdf="http://www.w3.org/1999/02/22-rdf-syntax-ns#"
   xmlns:svg="http://www.w3.org/2000/svg"
   xmlns="http://www.w3.org/2000/svg"
   xmlns:xlink="http://www.w3.org/1999/xlink"
   xmlns:sodipodi="http://sodipodi.sourceforge.net/DTD/sodipodi-0.dtd"
   xmlns:inkscape="http://www.inkscape.org/namespaces/inkscape"
   id="Calendar"
   image-rendering="optimizeSpeed"
   version="1.1"
   style="background-color:#ffffff"
   x="0px"
   y="0px"
   width="1024px"
   height="1024px"
   viewBox="0 0 1024 1024"
   enable-background="new 0 0 1024 1024"
   sodipodi:docname="calendar.svg"
   inkscape:version="0.92.2 (5c3e80d, 2017-08-06)">
  <metadata
     id="metadata24">
    <rdf:RDF>
      <cc:Work
         rdf:about="">
        <dc:format>image/svg+xml</dc:format>
        <dc:type
           rdf:resource="http://purl.org/dc/dcmitype/StillImage" />
        <dc:title />
      </cc:Work>
    </rdf:RDF>
  </metadata>
  <sodipodi:namedview
     pagecolor="#ffffff"
     bordercolor="#666666"
     borderopacity="1"
     objecttolerance="10"
     gridtolerance="10"
     guidetolerance="10"
     inkscape:pageopacity="0"
     inkscape:pageshadow="2"
     inkscape:window-width="1440"
     inkscape:window-height="779"
     id="namedview22"
     showgrid="true"
     inkscape:pagecheckerboard="true"
     inkscape:zoom="0.546875"
     inkscape:cx="512"
     inkscape:cy="512"
     inkscape:window-x="0"
     inkscape:window-y="25"
     inkscape:window-maximized="1"
     inkscape:current-layer="Calendar">
    <inkscape:grid
       type="xygrid"
       id="grid842" />
  </sodipodi:namedview>
  <defs
     transform="matrix(1 0 0 1 0 0) "
     id="defs2">
    <linearGradient
       id="linearGradient845"
       inkscape:collect="always">
      <stop
         style="stop-color:#d7d7d7;stop-opacity:1"
         offset="0"
         id="stop843" />
      <stop
         style="stop-color:#ffffff;stop-opacity:1"
         offset="1"
         id="stop841" />
    </linearGradient>
    <linearGradient
       inkscape:collect="always"
       id="linearGradient848">
      <stop
         style="stop-color:#e35e5e;stop-opacity:1;"
         offset="0"
         id="stop844" />
      <stop
         style="stop-color:#fa9381;stop-opacity:1"
         offset="1"
         id="stop846" />
    </linearGradient>
    <linearGradient
       inkscape:collect="always"
       id="linearGradient838">
      <stop
         style="stop-color:#ffffff;stop-opacity:1"
         offset="0"
         id="stop834" />
      <stop
         style="stop-color:#d7d7d7;stop-opacity:1"
         offset="1"
         id="stop836" />
    </linearGradient>
    <linearGradient
       inkscape:collect="always"
       xlink:href="#linearGradient838"
       id="linearGradient840"
       x1="520"
       y1="4"
       x2="520"
       y2="1024"
       gradientUnits="userSpaceOnUse" />
    <linearGradient
       inkscape:collect="always"
       xlink:href="#linearGradient848"
       id="linearGradient850"
       x1="280"
       y1="4"
       x2="280"
       y2="1024"
       gradientUnits="userSpaceOnUse"
       gradientTransform="translate(4.0156862)" />
    <linearGradient
       inkscape:collect="always"
       xlink:href="#linearGradient848"
       id="linearGradient874"
       x1="421.99899"
       y1="166.1198"
       x2="884.66901"
       y2="166.1198"
       gradientUnits="userSpaceOnUse"
       gradientTransform="translate(-4.0156862,2.0078431)" />
    <linearGradient
       inkscape:collect="always"
       xlink:href="#linearGradient845"
       id="linearGradient903"
       x1="520"
       y1="4"
       x2="520"
       y2="1024"
       gradientUnits="userSpaceOnUse"
       gradientTransform="matrix(0.99609375,0,0,0.99609375,2,4)" />
  </defs>
  <g
     id="shadow"
     transform="matrix(0.99609375,0,0,0.99609375,2,2)">
    <g
       id="shape">
      <path
         id="path"
         d="m 986.739,315.98644 q -9.3288,-22.61695 -21.0441,-44.31186 c -4.3932,-8.18983 -9.0576,-16.32543 -13.9932,-24.29831 C 930.49492,212.98983 904.62373,180.50169 874.08814,149.9661 774.12881,50.00678 653.39661,0 512,0 370.60339,0 249.92542,50.00678 149.9661,149.9661 50.00678,249.92542 0,370.60339 0,512 0,653.39661 50.00678,774.12881 149.9661,874.08814 249.92542,974.04746 370.60339,1024 512,1024 653.39661,1024 774.12881,974.04746 874.08814,874.08814 929.13898,818.98305 969.0576,757.58644 993.7898,689.95254 1013.9119,634.79322 1024,575.51186 1024,512 c 0,-48.70508 -5.9119,-94.96949 -17.7898,-138.79322 -1.356,-4.93559 -2.7661,-9.87119 -4.2305,-14.75254 -4.4475,-14.42712 -9.5458,-28.58305 -15.2407,-42.4678 z"
         style="fill:url(#linearGradient840);fill-opacity:1;stroke-width:1.08474576"
         inkscape:connector-curvature="0" />
    </g>
  </g>
  <circle
     style="opacity:1;fill:url(#linearGradient903);fill-opacity:1.0;stroke:none;stroke-width:43.3122139;stroke-linecap:square;stroke-linejoin:miter;stroke-miterlimit:10;stroke-dasharray:none;stroke-opacity:1;paint-order:stroke markers fill"
     id="path895"
     cx="512"
     cy="514"
     r="469.16016" />
  <g
     id="inner-circle"
     transform="matrix(0.99609375,0,0,0.99609375,0,2)">
    <g
       id="Symbole.__205_1"
       overflow="visible"
       style="overflow:visible">
      <g
         id="Calque.__202">
        <g
           id="shape19">
          <path
             id="path16"
             d="m 428.01468,45.14 c -27.952,5.568 -56.235,13.948 -84.628,25.03 -43.831,17.146 -83.195,38.923 -118.314,65.607 -61.969,46.973 -109.879,109.052 -143.454994,185.851 -7.553,17.091 -14.058,34.237 -19.461,51.383 L 475.34568,296.102 Z"
             style="fill:url(#linearGradient850);fill-opacity:1"
             inkscape:connector-curvature="0" />
          <path
             id="path17"
             d="m 775.46032,122.56884 c -24.148,-16.264 -50.556,-30.708997 -79.004,-43.168997 -17.532,-7.663 -35.064,-14.224 -52.927,-19.903 -74.594,-23.431 -149.629,-27.566 -224.995,-12.46 -0.165,0.056 -0.386,0.056 -0.551,0.111 l 47.331,250.961997 0.441,-0.083 414.898,-77.24 v 0.027 c -28.945,-37.82 -64.174,-70.789 -105.193,-98.245 z"
             inkscape:connector-curvature="0"
             style="fill:url(#linearGradient874);fill-opacity:1" />
        </g>
      </g>
    </g>
  </g>
  <g
     id="txt"
     transform="matrix(0.99609375,0,0,0.99609375,21.921875,63.757812)">
    <g
       id="drawingObject">
      <path
         id="path1"
         d="m 696.639,393.763 30.641,-53.41 -5.65,-29.046 -225.373,43.839 5.65,29.045 193.907,-37.718 c -19.085,32.462 -34.667,62.846 -46.962,91.475 -14.438,37.698 -23.722,66.02 -28.226,84.48 -6.699,27.261 -10.605,54.537 -11.611,82.366 0.286,37.346 1.693,66.1 4.219,86.263 l 33.887,-6.591 c -5.748,-41.029 -6.565,-79.667 -2.399,-115.646 2.92,-23.735 9.701,-56.315 20.344,-97.741 9.343,-29.45 19.958,-55.239 31.573,-77.316 z M 457.783,457.25 c -3.191,-16.405 -8.706,-30.405 -16.76,-41.678 -8.002,-11.003 -17.572,-20.027 -28.876,-26.481 -11.52,-6.133 -24.288,-10.069 -38.251,-11.54 -13.963,-1.471 -28.635,-0.85 -43.965,2.132 -18.825,3.662 -34.655,9.812 -47.706,18.77 -13.051,8.958 -23.21,19.866 -30.478,32.724 -7.268,12.857 -11.481,27.074 -13.071,43.293 -1.59,16.219 -0.551,33.043 3.492,50.958 l 31.466,-6.121 c -2.832,-13.126 -4.163,-25.707 -3.454,-37.846 0.44,-12.088 3.024,-23.197 7.7,-33.597 4.46,-10.078 11.384,-18.961 20.558,-26.328 9.226,-7.098 21.074,-12.193 35.328,-14.966 10.488,-2.04 21.022,-2.415 31.01,-1.287 10.041,1.396 19.268,4.347 27.732,9.12 8.465,4.773 15.578,11.205 21.338,19.295 6.029,8.038 10.116,17.57 12.366,29.135 2.668,13.716 2.602,26.289 -0.251,37.451 -3.122,11.213 -8.448,22.577 -15.978,34.089 -7.799,11.566 -17.047,22.854 -27.527,33.546 l -62.78,64.685 c -10.107,11.177 -18.66,23.168 -26.032,35.488 -7.321,12.589 -12.228,26.103 -15.313,40.38 -3.032,14.546 -3.277,30.503 -0.198,47.768 l 230.752,-44.885 -5.65,-29.046 -194.714,37.875 c -0.367,-11.931 2.651,-23.682 8.783,-35.202 6.185,-11.252 13.551,-22.174 22.418,-32.552 l 82.762,-83.924 c 8.867,-10.377 16.449,-21.621 22.581,-33.141 6.402,-11.573 10.712,-23.855 13.199,-36.899 2.487,-13.044 2.344,-26.693 -0.481,-41.216 z"
         inkscape:connector-curvature="0"
         style="fill:#333333;fill-opacity:1" />
    </g>
  </g>
  <g
     id="circle"
     transform="matrix(0.99609375,0,0,0.99609375,2,2)">
    <g
       id="drawingObject1">
      <path
         id="path4"
         d="m 548.662,114.584 38.388,-7.234 -1.684,-8.935 -86.952,16.386 1.684,8.935 38.14,-7.187 19.02,100.933 10.425,-1.964 z m -60.361,36.562 10.507,-1.98 c -1.836,-5.65 -4.54,-10.452 -8.097,-14.323 -3.556,-3.87 -7.65,-6.954 -12.265,-9.168 -4.631,-2.297 -9.535,-3.772 -14.779,-4.326 -5.343,-0.621 -10.53,-0.414 -15.742,0.568 -8.687,1.637 -15.92,4.628 -21.879,8.92 -2.93,2.18 -5.55,4.644 -7.875,7.31 -2.34,2.583 -4.287,5.434 -5.955,8.404 -3.304,6.106 -5.377,12.836 -6.234,20.108 -0.857,7.272 -0.576,14.673 0.858,22.284 1.419,7.529 3.866,14.607 7.327,21.151 3.445,6.461 7.794,11.81 13.079,16.211 2.665,2.325 5.501,4.189 8.621,5.743 3.12,1.554 6.441,2.813 9.964,3.777 7.128,1.912 14.953,2.065 23.64,0.428 4.302,-0.811 9.989,-2.91 16.962,-6.366 4.906,-3.066 8.993,-6.835 12.164,-11.373 3.171,-4.539 5.525,-9.78 6.911,-15.61 1.453,-5.928 1.871,-12.346 1.337,-19.271 l -10.507,1.98 c 0.423,4.975 0.138,9.826 -0.887,14.389 -1.092,4.661 -2.789,8.836 -5.077,12.608 -2.469,3.721 -5.558,6.873 -9.269,9.457 -3.778,2.682 -8.24,4.465 -13.287,5.416 -3.723,0.702 -7.177,1.01 -10.378,0.843 -3.269,-0.07 -6.352,-0.517 -9.264,-1.424 -2.83,-0.924 -5.525,-2.043 -8.035,-3.541 -2.494,-1.415 -4.787,-3.124 -6.862,-5.046 -4.167,-3.927 -7.631,-8.671 -10.294,-14.166 -2.664,-5.495 -4.598,-11.214 -5.72,-17.17 -1.139,-6.04 -1.434,-12.152 -0.938,-18.157 0.497,-6.005 2.012,-11.602 4.464,-16.776 1.218,-2.628 2.731,-5.055 4.523,-7.363 1.824,-2.143 3.911,-4.25 6.211,-6.14 2.382,-1.905 5.091,-3.443 8.11,-4.698 2.921,-1.321 6.251,-2.291 9.973,-2.993 3.972,-0.748 7.886,-0.886 11.745,-0.414 3.874,0.555 7.511,1.669 10.993,3.326 3.482,1.657 6.577,3.986 9.269,6.906 2.692,2.919 4.981,6.429 6.686,10.476 z m -99.858,18.818 c -3.445,-6.461 -7.826,-11.975 -13.125,-16.459 -5.285,-4.402 -11.457,-7.608 -18.519,-9.618 -7.112,-1.83 -14.937,-1.983 -23.541,-0.361 -8.605,1.621 -15.837,4.612 -21.796,8.904 -2.93,2.18 -5.55,4.645 -7.875,7.31 -2.34,2.583 -4.287,5.434 -5.955,8.404 -3.304,6.106 -5.377,12.836 -6.234,20.108 -0.857,7.272 -0.576,14.673 0.858,22.284 1.419,7.529 3.866,14.607 7.327,21.151 3.445,6.461 7.794,11.81 13.078,16.211 2.666,2.325 5.502,4.19 8.621,5.743 3.12,1.554 6.442,2.813 9.965,3.777 7.128,1.912 14.953,2.065 23.557,0.444 8.604,-1.622 15.837,-4.612 21.78,-8.988 5.876,-4.277 10.459,-9.51 13.763,-15.615 3.32,-6.023 5.424,-12.588 6.281,-19.86 0.841,-7.355 0.545,-14.838 -0.874,-22.367 -1.434,-7.611 -3.866,-14.606 -7.311,-21.068 z m -26.005,-13.432 c 2.427,1.513 4.719,3.222 6.893,5.211 4.167,3.927 7.615,8.589 10.263,14.001 2.648,5.412 4.598,11.213 5.736,17.253 1.122,5.956 1.402,11.986 0.921,18.074 -0.48,6.087 -1.98,11.767 -4.432,16.941 -2.534,5.19 -6.068,9.625 -10.75,13.42 -4.697,3.712 -10.637,6.288 -17.918,7.66 -3.64,0.686 -7.094,0.994 -10.296,0.827 -3.351,-0.054 -6.434,-0.501 -9.263,-1.424 -2.83,-0.924 -5.526,-2.043 -8.035,-3.541 -2.494,-1.415 -4.787,-3.124 -6.863,-5.046 -4.249,-3.911 -7.631,-8.671 -10.294,-14.166 -2.663,-5.495 -4.597,-11.213 -5.72,-17.17 -1.138,-6.04 -1.433,-12.152 -0.937,-18.157 0.496,-6.005 1.929,-11.586 4.463,-16.776 1.218,-2.628 2.731,-5.055 4.524,-7.363 1.824,-2.143 3.911,-4.25 6.211,-6.14 2.299,-1.889 5.008,-3.428 8.11,-4.698 2.921,-1.321 6.25,-2.291 9.89,-2.977 7.281,-1.372 13.751,-1.135 19.477,0.613 2.83,0.923 5.541,2.126 8.02,3.458 z"
         inkscape:connector-curvature="0"
         style="fill:#ffffff;fill-opacity:1" />
    </g>
  </g>
</svg>
