<?xml version="1.0" encoding="UTF-8" standalone="no"?>
<!-- Created with Inkscape (http://www.inkscape.org/) -->

<svg
   xmlns:dc="http://purl.org/dc/elements/1.1/"
   xmlns:cc="http://creativecommons.org/ns#"
   xmlns:rdf="http://www.w3.org/1999/02/22-rdf-syntax-ns#"
   xmlns:svg="http://www.w3.org/2000/svg"
   xmlns="http://www.w3.org/2000/svg"
   xmlns:xlink="http://www.w3.org/1999/xlink"
   xmlns:sodipodi="http://sodipodi.sourceforge.net/DTD/sodipodi-0.dtd"
   xmlns:inkscape="http://www.inkscape.org/namespaces/inkscape"
   id="svg4031"
   height="48"
   width="48"
   version="1.1"
   sodipodi:docname="chromium-browser.svg"
   inkscape:version="0.92.2 (unknown)">
  <sodipodi:namedview
     pagecolor="#ffffff"
     bordercolor="#666666"
     borderopacity="1"
     objecttolerance="10"
     gridtolerance="10"
     guidetolerance="10"
     inkscape:pageopacity="0"
     inkscape:pageshadow="2"
     inkscape:window-width="1372"
     inkscape:window-height="956"
     id="namedview31"
     showgrid="false"
     inkscape:zoom="9.8333333"
     inkscape:cx="18.923199"
     inkscape:cy="14.759664"
     inkscape:window-x="637"
     inkscape:window-y="178"
     inkscape:window-maximized="0"
     inkscape:current-layer="svg4031"
     showguides="false" />
  <defs
     id="defs4033">
    <linearGradient
       id="linearGradient3012"
       y2="44.341"
       gradientUnits="userSpaceOnUse"
       x2="71.204"
       gradientTransform="matrix(1.0541,0,0,1.0541,-51.611,-2.7279)"
       y1="6.2376"
       x1="71.204">
      <stop
         id="stop4013"
         stop-color="#fff"
         offset="0" />
      <stop
         id="stop4015"
         stop-color="#fff"
         stop-opacity=".23529"
         offset=".50776" />
      <stop
         id="stop4017"
         stop-color="#fff"
         stop-opacity=".15686"
         offset=".83457" />
      <stop
         id="stop4019"
         stop-color="#fff"
         stop-opacity=".39216"
         offset="1" />
    </linearGradient>
    <radialGradient
       id="radialGradient3018"
       gradientUnits="userSpaceOnUse"
       cy="186.17"
       cx="99.157"
       gradientTransform="matrix(0.27083,0,0,0.087623,-2.8550999,26.186403)"
       r="62.769">
      <stop
         id="stop3822-2-6-3"
         stop-color="#3d3d3d"
         offset="0" />
      <stop
         id="stop3864-8-7-7"
         stop-color="#686868"
         stop-opacity=".49804"
         offset=".5" />
      <stop
         id="stop3824-1-2-5"
         stop-color="#686868"
         stop-opacity="0"
         offset="1" />
    </radialGradient>
    <linearGradient
       id="linearGradient4450"
       y2="32.568"
       gradientUnits="userSpaceOnUse"
       y1="-18.801"
       gradientTransform="matrix(.76259 0 0 .76259 -81.477 23.436)"
       x2="15.124"
       x1="15.124">
      <stop
         id="stop4577"
         stop-color="#fff"
         offset="0" />
      <stop
         id="stop4579"
         stop-color="#fff"
         stop-opacity="0"
         offset="1" />
    </linearGradient>
    <linearGradient
       inkscape:collect="always"
       xlink:href="#linearGradient5805"
       id="linearGradient5473"
       x1="17.186701"
       y1="46.737434"
       x2="17.186701"
       y2="199.97781"
       gradientUnits="userSpaceOnUse" />
    <linearGradient
       id="linearGradient5805">
      <stop
         id="stop5807"
         offset="0"
         style="stop-color:#3db244;stop-opacity:1;" />
      <stop
         id="stop5809"
         offset="1"
         style="stop-color:#229629;stop-opacity:1;" />
    </linearGradient>
    <linearGradient
       inkscape:collect="always"
       xlink:href="#linearGradient5797"
       id="linearGradient5803"
       x1="114.75053"
       y1="56.680836"
       x2="114.75053"
       y2="188.93204"
       gradientUnits="userSpaceOnUse" />
    <linearGradient
       id="linearGradient5797">
      <stop
         style="stop-color:#ffcf00;stop-opacity:1;"
         offset="0"
         id="stop5799" />
      <stop
         style="stop-color:#d8af00;stop-opacity:1;"
         offset="1"
         id="stop5801" />
    </linearGradient>
    <linearGradient
       inkscape:collect="always"
       xlink:href="#linearGradient5789"
       id="linearGradient5795"
       x1="100.2517"
       y1="9.4762201"
       x2="100.2517"
       y2="106.3973"
       gradientUnits="userSpaceOnUse" />
    <linearGradient
       id="linearGradient5789">
      <stop
         style="stop-color:#d63e26;stop-opacity:1;"
         offset="0"
         id="stop5791" />
      <stop
         style="stop-color:#b41700;stop-opacity:1;"
         offset="1"
         id="stop5793" />
    </linearGradient>
    <linearGradient
       inkscape:collect="always"
       xlink:href="#linearGradient4829"
       id="linearGradient5852"
       x1="106.3629"
       y1="-135.03104"
       x2="106.3629"
       y2="335.03101"
       gradientUnits="userSpaceOnUse" />
    <linearGradient
       id="linearGradient4829">
      <stop
         style="stop-color:#f4fbfc;stop-opacity:1;"
         offset="0"
         id="stop4831" />
      <stop
         style="stop-color:#d6d6d6;stop-opacity:1;"
         offset="1"
         id="stop4833" />
    </linearGradient>
    <linearGradient
       inkscape:collect="always"
       xlink:href="#linearGradient5423"
       id="linearGradient5787"
       x1="95.969582"
       y1="2.2921817"
       x2="95.969582"
       y2="198.43794"
       gradientUnits="userSpaceOnUse" />
    <linearGradient
       id="linearGradient5423">
      <stop
         style="stop-color:#3c8fc8;stop-opacity:1;"
         offset="0"
         id="stop5425" />
      <stop
         style="stop-color:#3585bc;stop-opacity:1;"
         offset="1"
         id="stop5427" />
    </linearGradient>
    <linearGradient
       inkscape:collect="always"
       xlink:href="#linearGradient4829"
       id="linearGradient4835"
       x1="102.29776"
       y1="-0.42686829"
       x2="102.29776"
       y2="199.16539"
       gradientUnits="userSpaceOnUse"
       gradientTransform="translate(0,9.9999996e-6)" />
    <filter
       inkscape:collect="always"
       style="color-interpolation-filters:sRGB"
       id="filter3967"
       x="-0.048"
       width="1.096"
       y="-0.048"
       height="1.096">
      <feGaussianBlur
         inkscape:collect="always"
         stdDeviation="4"
         id="feGaussianBlur3969" />
    </filter>
  </defs>
  <metadata
     id="metadata4036">
    <rdf:RDF>
      <cc:Work
         rdf:about="">
        <dc:format>image/svg+xml</dc:format>
        <dc:type
           rdf:resource="http://purl.org/dc/dcmitype/StillImage" />
        <dc:title />
      </cc:Work>
    </rdf:RDF>
  </metadata>
  <path
     style="fill:url(#radialGradient3018)"
     inkscape:connector-curvature="0"
     d="m 41,42.499403 a 17,5.5 0 1 1 -33.9999998,0 17,5.5 0 1 1 33.9999998,0 z"
     id="path3818-0-5" />
  <ellipse
     cy="24.813564"
     cx="24.20339"
     style="color:#000000;fill:#ffffff;stroke-width:1.01941741"
     id="circle4564"
     rx="9.6844664"
     ry="9.6844645" />
  <g
     id="g3842"
     transform="matrix(0.21,0,0,0.21,3,-175.99606)">
    <circle
       r="100"
       cy="100"
       cx="100"
       transform="matrix(0.91020408,0,0,0.91020408,8.9795918,861.34178)"
       id="path4188-6"
       style="color:#000000;display:inline;overflow:visible;visibility:visible;fill:url(#linearGradient5473);fill-opacity:1;fill-rule:nonzero;stroke:none;stroke-width:9.13434315;marker:none;enable-background:accumulate" />
    <path
       transform="translate(0,852.36218)"
       inkscape:connector-curvature="0"
       id="path5763"
       d="m 93.5,192.875 41.125,-69.125 c 0,0 21.125,-56.25 -34.375,-62.25 -55.5,-6 62.5,-32.999999 62.5,-32.999999 0,0 23,24.749999 25.25,37.999999 2.25,13.25 6.25,27.75 6.25,27.75 l -2.5,33.25 -9.5,19.5 -10.75,18.75 -31.25,20.75 c 0,0 -23.75,7.5 -28.5,7.25 C 107,193.5 93.5,192.875 93.5,192.875 Z"
       style="fill:url(#linearGradient5803);fill-opacity:1;stroke:none;stroke-width:1px;stroke-linecap:butt;stroke-linejoin:miter;stroke-opacity:1" />
    <path
       sodipodi:nodetypes="ccscccccccccc"
       transform="translate(0,852.36218)"
       inkscape:connector-curvature="0"
       id="path5761"
       d="m 22.097087,49.187382 41.708251,70.158248 c 0,0 -1.104854,-33.421841 1.657282,-36.736404 2.762136,-3.314563 16.296602,-16.020388 16.296602,-16.020388 L 100.26553,61.064566 99.264259,57.473789 181.58696,56.932411 167.93786,32.89078 134.2398,10.51748 101.92281,6.0980623 70.158251,9.4126253 48.337378,21.842237 c 0,0 -20.163592,11.877184 -26.240291,27.345145 z"
       style="fill:url(#linearGradient5795);fill-opacity:1;stroke:none" />
    <circle
       r="100"
       cy="100"
       cx="100"
       transform="matrix(0.42547574,0,0,0.42547574,57.452426,909.81461)"
       id="path5757"
       style="color:#000000;display:inline;overflow:visible;visibility:visible;opacity:1;fill:url(#linearGradient5852);fill-opacity:1;fill-rule:nonzero;stroke:none;stroke-width:8.74185181;marker:none;enable-background:accumulate" />
    <circle
       r="100"
       cy="100"
       cx="100"
       transform="matrix(0.33708739,0,0,0.33708739,66.291261,918.65344)"
       id="path5759"
       style="color:#000000;display:inline;overflow:visible;visibility:visible;opacity:1;fill:url(#linearGradient5787);fill-opacity:1;fill-rule:nonzero;stroke:none;stroke-width:8.74185181;marker:none;filter:url(#filter3967);enable-background:accumulate" />
    <path
       inkscape:connector-curvature="0"
       id="path4188"
       transform="translate(0,852.36218)"
       d="M 100,0 C 44.771525,0 0,44.771525 0,100 0,155.22847 44.771525,200 100,200 155.22847,200 200,155.22847 200,100 200,44.771525 155.22847,0 100,0 Z m 0,9.46875 c 49.99304,0 90.53125,40.538209 90.53125,90.53125 0,49.99304 -40.53821,90.53125 -90.53125,90.53125 C 50.006959,190.53125 9.46875,149.99304 9.46875,100 9.46875,50.006959 50.006959,9.46875 100,9.46875 Z"
       style="color:#000000;display:inline;overflow:visible;visibility:visible;fill:url(#linearGradient4835);fill-opacity:1;fill-rule:nonzero;stroke:none;stroke-width:9.13434315;marker:none;enable-background:accumulate" />
  </g>
  <g
     transform="matrix(0.91049354,0,0,0.90677131,2.0844552,2.2488739)"
     id="g4840">
    <path
       style="fill:#668fb6"
       inkscape:connector-curvature="0"
       d="M 42.849,14.681 A 21.055,21.05 0 0 0 6.566,12.238 l 8.4597,14.66 a 9.3996,9.3972 0 0 1 8.8357,-12.216"
       id="path37-7" />
    <path
       style="fill:#89b7e1"
       inkscape:connector-curvature="0"
       d="M 6.5662,12.238 A 21.055,21.05 0 0 0 22.3572,44.94 L 31.1929,29.904 A 9.3996,9.3972 0 0 1 15.0259,26.897"
       id="path39-4" />
    <path
       style="fill:#c5daf5"
       inkscape:connector-curvature="0"
       d="M 22.358,44.94 A 21.055,21.05 0 0 0 42.849,14.681 H 23.862 a 9.3996,9.3972 0 0 1 7.3317,15.223"
       id="path41-4" />
  </g>
  <circle
     cx="23.841391"
     cy="24.020113"
     style="color:#000000;fill:#668fb6;stroke-width:1.15133095"
     id="path4266-2-7-3-5"
     r="7.5" />
</svg>
