<?xml version="1.0" encoding="UTF-8" standalone="no"?>
<!-- Created with Inkscape (http://www.inkscape.org/) -->

<svg
   xmlns:dc="http://purl.org/dc/elements/1.1/"
   xmlns:cc="http://creativecommons.org/ns#"
   xmlns:rdf="http://www.w3.org/1999/02/22-rdf-syntax-ns#"
   xmlns:svg="http://www.w3.org/2000/svg"
   xmlns="http://www.w3.org/2000/svg"
   xmlns:xlink="http://www.w3.org/1999/xlink"
   xmlns:sodipodi="http://sodipodi.sourceforge.net/DTD/sodipodi-0.dtd"
   xmlns:inkscape="http://www.inkscape.org/namespaces/inkscape"
   id="svg4061"
   height="48"
   width="48"
   version="1.1"
   inkscape:version="0.92.2 (unknown)"
   sodipodi:docname="com.github.rapidfingers.translator.svg">
  <sodipodi:namedview
     pagecolor="#ffffff"
     bordercolor="#666666"
     borderopacity="1"
     objecttolerance="10"
     gridtolerance="10"
     guidetolerance="10"
     inkscape:pageopacity="0"
     inkscape:pageshadow="2"
     inkscape:window-width="1378"
     inkscape:window-height="894"
     id="namedview40"
     showgrid="false"
     inkscape:zoom="9.8333333"
     inkscape:cx="15.864407"
     inkscape:cy="17.420478"
     inkscape:window-x="1017"
     inkscape:window-y="211"
     inkscape:window-maximized="0"
     inkscape:current-layer="g4206" />
  <defs
     id="defs4063">
    <linearGradient
       inkscape:collect="always"
       id="linearGradient3361">
      <stop
         style="stop-color:#0068e0;stop-opacity:1;"
         offset="0"
         id="stop3363" />
      <stop
         style="stop-color:#00acf4;stop-opacity:1"
         offset="1"
         id="stop3365" />
    </linearGradient>
    <linearGradient
       id="linearGradient3026"
       y2="40.495998"
       gradientUnits="userSpaceOnUse"
       x2="71.204002"
       gradientTransform="matrix(1.5867757,0,0,1.5867757,-90.525561,-20.217855)"
       y1="15.369"
       x1="71.204002"
       xlink:href="#linearGradient3361">
      <stop
         id="stop4808-4"
         stop-color="#fff"
         offset="0" />
      <stop
         id="stop4810-0"
         stop-color="#fff"
         stop-opacity=".23529"
         offset=".42448" />
      <stop
         id="stop4812-8"
         stop-color="#fff"
         stop-opacity=".15686"
         offset=".82090" />
      <stop
         id="stop4814-0"
         stop-color="#fff"
         stop-opacity=".39216"
         offset="1" />
    </linearGradient>
    <radialGradient
       id="radialGradient3029"
       fx="4.459"
       fy="8.5089"
       gradientUnits="userSpaceOnUse"
       cy="8.6258"
       cx="15.026"
       gradientTransform="matrix(-3.4973e-8 1.8855 -1.7764 -5.4723e-8 39.14 -7.9932)"
       r="20">
      <stop
         id="stop4170"
         stop-color="#c24251"
         offset="0" />
      <stop
         id="stop4172"
         stop-color="#c24251"
         offset=".26238" />
      <stop
         id="stop4174"
         stop-color="#a63643"
         offset=".66094" />
      <stop
         id="stop4176"
         stop-color="#a63643"
         offset="1" />
    </radialGradient>
    <radialGradient
       id="radialGradient3032"
       gradientUnits="userSpaceOnUse"
       cy="3.99"
       cx="23.896"
       gradientTransform="matrix(0,2.8345093,-3.7415327,0,38.928645,-64.26879)"
       r="20.397">
      <stop
         id="stop3244-9-33-7-0-9"
         stop-color="#fff"
         offset="0" />
      <stop
         id="stop3246-3-5-0-8-5"
         stop-color="#ddd"
         offset=".26238" />
      <stop
         id="stop3248-1-7-8-8-1"
         stop-color="#abacae"
         offset=".66094" />
      <stop
         id="stop3250-9-3-0-5-1"
         stop-color="#89898b"
         offset="1" />
    </radialGradient>
    <radialGradient
       id="radialGradient3035"
       gradientUnits="userSpaceOnUse"
       cy="186.17"
       cx="99.157"
       gradientTransform="matrix(0.27083,0,0,0.087623,-2.8550999,26.187422)"
       r="62.769">
      <stop
         id="stop3822-2-6-3"
         stop-color="#3d3d3d"
         offset="0" />
      <stop
         id="stop3864-8-7-7"
         stop-color="#686868"
         stop-opacity=".49804"
         offset=".5" />
      <stop
         id="stop3824-1-2-5"
         stop-color="#686868"
         stop-opacity="0"
         offset="1" />
    </radialGradient>
    <linearGradient
       id="linearGradient4433"
       y2="25.611"
       gradientUnits="userSpaceOnUse"
       x2="23.078"
       gradientTransform="matrix(1 0 0 1.0521 0 -.90547)"
       y1="13.035"
       x1="22.759">
      <stop
         id="stop6305-1-0-2"
         stop-color="#fff"
         offset="0" />
      <stop
         id="stop6307-5-0-6"
         stop-color="#fff"
         stop-opacity="0"
         offset="1" />
    </linearGradient>
    <linearGradient
       id="linearGradient4829">
      <stop
         style="stop-color:#f4fbfc;stop-opacity:1;"
         offset="0"
         id="stop4831" />
      <stop
         style="stop-color:#d6d6d6;stop-opacity:1;"
         offset="1"
         id="stop4833" />
    </linearGradient>
    <radialGradient
       id="SVGID_4_"
       cx="224.50391"
       cy="186.51421"
       r="127.0051"
       gradientUnits="userSpaceOnUse">
      <stop
         offset="0"
         style="stop-color:#FFFFFF"
         id="stop27" />
      <stop
         offset="0.3984"
         style="stop-color:#FDFEFF"
         id="stop29" />
      <stop
         offset="0.6131"
         style="stop-color:#F5FAFF"
         id="stop31" />
      <stop
         offset="0.7841"
         style="stop-color:#E7F3FF"
         id="stop33" />
      <stop
         offset="0.9311"
         style="stop-color:#D4EAFF"
         id="stop35" />
      <stop
         offset="1"
         style="stop-color:#C8E4FF"
         id="stop37" />
    </radialGradient>
    <radialGradient
       gradientUnits="userSpaceOnUse"
       r="26.769501"
       cy="286.66409"
       cx="324.69339"
       id="SVGID_5_">
      <stop
         id="stop50"
         style="stop-color:#FFFFFF"
         offset="0" />
      <stop
         id="stop52"
         style="stop-color:#FDFEFF"
         offset="0.3984" />
      <stop
         id="stop54"
         style="stop-color:#F5FAFF"
         offset="0.6131" />
      <stop
         id="stop56"
         style="stop-color:#E7F3FF"
         offset="0.7841" />
      <stop
         id="stop58"
         style="stop-color:#D4EAFF"
         offset="0.9311" />
      <stop
         id="stop60"
         style="stop-color:#C8E4FF"
         offset="1" />
    </radialGradient>
    <radialGradient
       gradientUnits="userSpaceOnUse"
       r="46.444901"
       cy="392.77249"
       cx="325"
       id="SVGID_6_">
      <stop
         id="stop73"
         style="stop-color:#FFFFFF"
         offset="0" />
      <stop
         id="stop75"
         style="stop-color:#FDFEFF"
         offset="0.3984" />
      <stop
         id="stop77"
         style="stop-color:#F5FAFF"
         offset="0.6131" />
      <stop
         id="stop79"
         style="stop-color:#E7F3FF"
         offset="0.7841" />
      <stop
         id="stop81"
         style="stop-color:#D4EAFF"
         offset="0.9311" />
      <stop
         id="stop83"
         style="stop-color:#C8E4FF"
         offset="1" />
    </radialGradient>
  </defs>
  <metadata
     id="metadata4066">
    <rdf:RDF>
      <cc:Work
         rdf:about="">
        <dc:format>image/svg+xml</dc:format>
        <dc:type
           rdf:resource="http://purl.org/dc/dcmitype/StillImage" />
        <dc:title />
      </cc:Work>
    </rdf:RDF>
  </metadata>
  <g
     id="g4206">
    <path
       id="path3818-0-5"
       d="m 41,42.500422 a 17,5.5 0 0 1 -33.9999999,0 17,5.5 0 1 1 33.9999999,0 z"
       inkscape:connector-curvature="0"
       style="fill:url(#radialGradient3035)" />
    <path
       id="path2555-7-2"
       style="color:#000000;fill:url(#radialGradient3032);stroke-width:0.9813084"
       d="m 24,3.8830799 c -11.099579,0 -20.1168225,9.0172421 -20.1168225,20.1168221 0,11.099579 9.0172435,20.116822 20.1168225,20.116822 11.099579,0 20.116822,-9.017243 20.116822,-20.116822 C 44.116822,12.900322 35.099579,3.8830799 24,3.8830799 Z"
       inkscape:connector-curvature="0" />
    <path
       id="path2555-7-65"
       style="color:#000000;fill:#55cdfb;fill-opacity:1;stroke-width:0.9813084"
       d="m 24,3.8830799 c -11.099579,0 -20.1168225,9.0172421 -20.1168225,20.1168221 0,11.099579 9.0172435,20.116822 20.1168225,20.116822 11.099579,0 20.116822,-9.017243 20.116822,-20.116822 C 44.116822,12.900322 35.099579,3.8830799 24,3.8830799 Z"
       inkscape:connector-curvature="0" />
    <path
       id="path4176"
       style="color:#000000;opacity:0.5;fill:none;stroke:url(#linearGradient3026);stroke-width:0.9813084;stroke-linecap:round;stroke-linejoin:round"
       d="M 43.135514,23.999902 C 43.135514,34.568593 34.568692,43.135416 24,43.135416 13.431308,43.135416 4.8644859,34.568593 4.8644859,23.999902 4.8644859,13.43121 13.431308,4.8643883 24,4.8643883 c 10.568692,0 19.135514,8.5668217 19.135514,19.1355137 z"
       inkscape:connector-curvature="0" />
    <path
       id="path2555-7-1-7"
       style="color:#000000;opacity:1;fill:none;fill-opacity:1;stroke:#fbfbfb;stroke-width:1.76635504;stroke-linecap:round;stroke-linejoin:round;stroke-miterlimit:4;stroke-dasharray:none;stroke-opacity:1"
       d="M 24,3.883178 C 12.900421,3.883178 3.8831775,12.900224 3.8831775,24 3.8831775,35.099776 12.900224,44.116822 24,44.116822 35.099776,44.116822 44.116822,35.099776 44.116822,24 44.116822,12.900224 35.099579,3.883178 24,3.883178 Z"
       inkscape:connector-curvature="0" />
    <g
       id="g4317"
       transform="matrix(1.0002,0,0,1.0004,-1.0018,-0.0050486)"
       style="fill:none;stroke:#000000;stroke-linecap:round;stroke-linejoin:round" />
    <g
       transform="matrix(0.38597012,0,0,0.33673562,-0.61222858,25.237122)"
       style="font-style:normal;font-weight:normal;font-size:43.17300415px;line-height:125%;font-family:Sans;letter-spacing:0px;word-spacing:0px;fill:#0f3255;fill-opacity:0.2;stroke:none;stroke-width:2.72197509"
       id="text3139">
      <path
         inkscape:connector-curvature="0"
         d="M 48.401793,-12.611737 V 1.4194896 c 0,0.4749031 -0.129519,0.6044221 -0.733941,0.6475951 -0.518076,0 -2.331342,0 -4.317301,-0.043173 0.431731,0.7771141 0.906634,1.9859582 1.036153,2.8062453 2.676726,0 4.446819,-0.043173 5.61249,-0.4749031 1.165671,-0.474903 1.467882,-1.3383631 1.467882,-2.9357643 V -12.611737 h 7.46893 c -0.561249,1.597401 -1.252017,3.1516296 -1.856439,4.3604737 l -0.604422,-0.8202871 -2.633553,1.1224981 c 1.985958,2.8494183 4.058262,6.7349887 4.964895,9.2390229 l 2.806245,-1.29519011 C 60.792445,-2.1206967 59.195044,-5.142807 57.424951,-7.6900143 l 2.201823,0.4317301 c 0.992979,-1.8996122 2.288169,-5.0080688 3.410667,-7.6847948 l -2.244996,-0.561249 -0.518076,0.08635 H 43.954974 c 0.561249,-1.122498 1.079325,-2.331342 1.511055,-3.497013 l -2.935765,-0.733941 c -1.467882,4.101435 -3.971916,7.987005 -6.90768,10.5773856 0.733941,0.4317301 1.899612,1.4247092 2.417688,1.9859582 1.511055,-1.4678821 3.02211,-3.4106678 4.360473,-5.5261448 h 6.001048 z M 48.704004,8.9747654 C 47.106603,7.2478452 43.868628,5.046022 41.105555,3.7508318 l -2.15865,1.8996122 c 2.806245,1.3815362 5.957875,3.6697054 7.46893,5.439799 z M 42.357572,-8.8556854 c -1.165671,2.9789373 -3.108456,6.0010476 -5.353452,8.03017881 0.777114,0.43173004 2.029131,1.20884411 2.633553,1.68374716 2.15865,-2.20182317 4.360474,-5.56931757 5.698837,-8.97998487 z M 26.772118,18.343307 c 3.367494,-2.244996 5.094414,-6.087393 6.130566,-9.9297907 L 30.096439,7.4637102 C 29.189806,11.04707 27.290194,14.544083 24.138565,16.530041 Z m 7.425757,-38.035416 c -2.460862,4.74903 -6.432778,9.411714 -10.49104,12.4338248 0.604422,0.604422 1.683747,1.8996122 2.072304,2.5040342 1.467882,-1.2088441 2.978937,-2.6335532 4.403646,-4.2309544 V 4.830157 h 3.108457 v -17.614586 c 1.381536,-1.899612 2.676726,-3.928743 3.712878,-5.957874 z m 6.90768,35.79042 c -2.288169,0 -2.633553,-0.215865 -2.633553,-1.338363 V 6.9456342 H 35.2772 v 7.8143138 c 0,3.324321 1.165671,4.230954 5.61249,4.230954 h 8.33239 c 3.669705,0 4.619512,-1.29519 5.051242,-6.47595 -0.906634,-0.215865 -2.201824,-0.690768 -2.892592,-1.252017 -0.172692,4.230954 -0.474903,4.835376 -2.374515,4.835376 z M 53.064477,8.2839973 c 3.194803,2.7198997 6.432778,6.7781617 7.641622,9.5844067 L 63.555517,16.22783 C 62.173981,13.335239 58.892833,9.4928414 55.654858,6.7297691 Z"
         id="path3868"
         style="stroke-width:2.72197509" />
      <path
         inkscape:connector-curvature="0"
         d="M 80.306643,-7.8627063 C 79.745394,-2.2070427 78.622896,2.5419877 76.982322,6.4275581 75.341748,5.261887 73.614827,4.1825619 71.974253,3.2327558 c 0.86346,-3.41066733 1.770093,-7.2530647 2.633554,-11.0954621 z m 1.338363,-3.0652837 -0.561249,0.129519 h -5.828355 c 0.647595,-2.978937 1.252017,-5.871528 1.770093,-8.505081 l -3.065284,-0.345384 c -0.474903,2.676726 -1.079325,5.742009 -1.770093,8.850465 h -4.705857 v 2.9357647 h 4.101435 C 70.376852,-2.4660807 69.081662,2.8441988 68.04551,6.5570771 l 2.676726,1.3815362 0.474903,-1.8132662 c 1.511055,0.9498061 3.02211,1.9859582 4.44682,3.0652833 -2.029132,3.7128786 -4.662685,6.3896046 -7.814314,8.0301786 0.690768,0.647595 1.554228,1.813266 1.985958,2.59038 3.367494,-2.029131 6.130567,-4.835376 8.289217,-8.677773 1.813266,1.511055 3.367494,3.02211 4.403646,4.3173 l 1.942785,-2.547207 C 83.28558,11.4788 81.55866,9.8813984 79.529529,8.3271703 81.645006,3.4917938 82.983369,-2.6819458 83.544618,-10.49626 Z m 25.256204,8.5482553 H 96.626039 v -3.8423974 c 3.281148,-2.5472073 6.950851,-6.4327779 9.368541,-9.8866179 l -2.11548,-1.554228 -0.64759,0.215865 H 84.753462 v 2.935764 h 16.146708 c -1.726924,2.201823 -4.015093,4.6626845 -6.173744,6.3896047 h -1.29519 v 5.7420096 H 83.328753 V 0.59920255 H 93.431236 V 15.666581 c 0,0.647595 -0.215865,0.86346 -0.949806,0.906633 -0.733941,0.04317 -3.151629,0.04317 -5.871528,-0.04317 0.474903,0.820287 1.036152,2.244996 1.208844,3.108456 3.410667,0 5.655663,-0.08635 6.994026,-0.561249 1.381537,-0.518076 1.813267,-1.467882 1.813267,-3.410667 V 0.59920555 H 106.90121 V -2.3797317 Z"
         id="path3870"
         style="stroke-width:2.72197509" />
    </g>
    <g
       transform="matrix(0.38597012,0,0,0.33673562,-0.61222858,25.237122)"
       style="font-style:normal;font-weight:normal;font-size:43.17300415px;line-height:125%;font-family:Sans;letter-spacing:0px;word-spacing:0px;fill:#ffffff;fill-opacity:1;stroke:#000000;stroke-width:2.10667276;stroke-miterlimit:4;stroke-dasharray:none;stroke-opacity:0.15934065"
       id="text3143">
      <path
         inkscape:connector-curvature="0"
         d="m 47.158694,-14.281223 v 14.03122658 c 0,0.47490304 -0.129519,0.60442206 -0.733941,0.64759506 -0.518076,0 -2.331343,0 -4.317301,-0.043173 0.43173,0.77711406 0.906633,1.98595816 1.036152,2.80624526 2.676727,0 4.44682,-0.043173 5.612491,-0.474903 1.165671,-0.4749031 1.467882,-1.3383632 1.467882,-2.93576432 V -14.281223 h 7.46893 c -0.561249,1.597401 -1.252017,3.15163 -1.856439,4.3604736 l -0.604422,-0.8202866 -2.633554,1.1224977 c 1.985958,2.8494183 4.058263,6.7349886 4.964896,9.23902287 l 2.806245,-1.29519017 c -0.820287,-2.1154772 -2.417688,-5.1375875 -4.187781,-7.6847947 l 2.201823,0.43173 c 0.992979,-1.8996117 2.288169,-5.0080687 3.410667,-7.6847947 l -2.244996,-0.561249 -0.518076,0.08635 H 42.711874 c 0.561249,-1.122498 1.079325,-2.331342 1.511055,-3.497013 l -2.935764,-0.733941 c -1.467882,4.101435 -3.971916,7.987005 -6.90768,10.577386 0.733941,0.43173 1.899612,1.4247087 2.417688,1.9859578 1.511055,-1.4678818 3.02211,-3.4106678 4.360473,-5.5261448 h 6.001048 z M 47.460905,7.3052793 C 45.863504,5.5783591 42.625528,3.3765359 39.862456,2.0813458 l -2.15865,1.8996122 c 2.806245,1.3815361 5.957874,3.6697053 7.46893,5.4397985 z M 41.114473,-10.525171 c -1.165671,2.9789369 -3.108456,6.0010472 -5.353452,8.0301784 0.777114,0.43173 2.029131,1.2088441 2.633553,1.68374712 2.15865,-2.20182322 4.360473,-5.56931752 5.698836,-8.97998482 z M 25.529019,16.673821 c 3.367494,-2.244996 5.094414,-6.087393 6.130566,-9.9297907 L 28.85334,5.7942242 c -0.906633,3.5833593 -2.806245,7.0803728 -5.957875,9.0663308 z m 7.425756,-38.035416 c -2.460861,4.74903 -6.432777,9.411714 -10.49104,12.4338247 0.604422,0.6044221 1.683748,1.8996122 2.072305,2.5040343 1.467882,-1.2088441 2.978937,-2.6335533 4.403646,-4.230954 V 3.1606709 h 3.108456 V -14.453915 c 1.381536,-1.899612 2.676727,-3.928743 3.712879,-5.957874 z m 6.907681,35.79042 c -2.288169,0 -2.633553,-0.215865 -2.633553,-1.338363 V 5.2761481 h -3.194802 v 7.8143139 c 0,3.324321 1.165671,4.230954 5.61249,4.230954 h 8.33239 c 3.669705,0 4.619511,-1.29519 5.051241,-6.47595 -0.906633,-0.215865 -2.201823,-0.690768 -2.892591,-1.2520175 -0.172692,4.2309545 -0.474903,4.8353765 -2.374515,4.8353765 z M 51.821378,6.6145112 c 3.194803,2.7198993 6.432778,6.7781618 7.641622,9.5844068 l 2.849418,-1.640574 C 60.930882,11.665753 57.649734,7.8233554 54.411758,5.0602831 Z"
         style="stroke-width:2.10667276"
         id="path3863" />
      <path
         inkscape:connector-curvature="0"
         d="M 79.063544,-9.5321923 C 78.502295,-3.8765288 77.379797,0.87250169 75.739223,4.7580721 74.098648,3.5924009 72.371728,2.5130758 70.731154,1.5632698 c 0.86346,-3.4106674 1.770093,-7.2530647 2.633553,-11.0954621 z m 1.338363,-3.0652837 -0.561249,0.129519 h -5.828356 c 0.647595,-2.978937 1.252017,-5.871528 1.770094,-8.505081 l -3.065284,-0.345384 c -0.474903,2.676726 -1.079325,5.742009 -1.770093,8.850465 h -4.705857 v 2.9357647 h 4.101435 C 69.133753,-4.1355668 67.838563,1.1747127 66.802411,4.8875911 L 69.479137,6.2691272 69.95404,4.455861 c 1.511055,0.9498061 3.02211,1.9859582 4.446819,3.0652833 -2.029131,3.7128787 -4.662684,6.3896047 -7.814313,8.0301787 0.690768,0.647595 1.554228,1.813266 1.985958,2.59038 3.367494,-2.029131 6.130566,-4.835376 8.289217,-8.6777735 1.813266,1.5110555 3.367494,3.0221105 4.403646,4.3173005 l 1.942785,-2.547207 C 82.042481,9.8093135 80.315561,8.2119124 78.28643,6.6576842 80.401907,1.8223078 81.74027,-4.3514318 82.301519,-12.165746 Z m 25.256203,8.5482552 H 95.382939 v -3.8423974 c 3.281149,-2.5472068 6.950851,-6.4327778 9.368541,-9.8866178 l -2.11548,-1.554228 -0.64759,0.215865 H 83.510363 v 2.935764 h 16.146704 c -1.72692,2.201823 -4.01509,4.662684 -6.17374,6.3896047 h -1.29519 v 5.7420095 H 82.085654 v 2.9789373 H 92.188137 V 13.997095 c 0,0.647595 -0.215865,0.86346 -0.949806,0.906633 -0.733941,0.04317 -3.151629,0.04317 -5.871529,-0.04317 0.474903,0.820287 1.036153,2.244996 1.208845,3.108456 3.410667,0 5.655663,-0.08635 6.994026,-0.561249 1.381536,-0.518076 1.813266,-1.467882 1.813266,-3.410667 V -1.0702805 h 10.275171 v -2.9789373 z"
         style="stroke-width:2.10667276"
         id="path3865" />
    </g>
  </g>
</svg>
