<?xml version="1.0" encoding="UTF-8" standalone="no"?>
<!-- Created with Inkscape (http://www.inkscape.org/) -->

<svg
   xmlns:dc="http://purl.org/dc/elements/1.1/"
   xmlns:cc="http://creativecommons.org/ns#"
   xmlns:rdf="http://www.w3.org/1999/02/22-rdf-syntax-ns#"
   xmlns:svg="http://www.w3.org/2000/svg"
   xmlns="http://www.w3.org/2000/svg"
   xmlns:xlink="http://www.w3.org/1999/xlink"
   xmlns:sodipodi="http://sodipodi.sourceforge.net/DTD/sodipodi-0.dtd"
   xmlns:inkscape="http://www.inkscape.org/namespaces/inkscape"
   id="svg4061"
   height="48"
   width="48"
   version="1.1"
   inkscape:version="0.92.2 (unknown)"
   sodipodi:docname="com.github.parnold-x.timer.svg">
  <sodipodi:namedview
     pagecolor="#ffffff"
     bordercolor="#666666"
     borderopacity="1"
     objecttolerance="10"
     gridtolerance="10"
     guidetolerance="10"
     inkscape:pageopacity="0"
     inkscape:pageshadow="2"
     inkscape:window-width="2274"
     inkscape:window-height="894"
     id="namedview40"
     showgrid="false"
     inkscape:zoom="9.8333333"
     inkscape:cx="21.299137"
     inkscape:cy="14.794629"
     inkscape:window-x="147"
     inkscape:window-y="191"
     inkscape:window-maximized="0"
     inkscape:current-layer="g4206" />
  <defs
     id="defs4063">
    <linearGradient
       id="linearGradient3026"
       y2="40.495998"
       gradientUnits="userSpaceOnUse"
       x2="71.204002"
       gradientTransform="matrix(1.617,0,0,1.617,-92.707,-21.06)"
       y1="15.369"
       x1="71.204002"
       spreadMethod="pad">
      <stop
         id="stop4808-4"
         stop-color="#fff"
         offset="0" />
      <stop
         id="stop4810-0"
         stop-color="#fff"
         stop-opacity=".23529"
         offset=".42448" />
      <stop
         id="stop4812-8"
         stop-color="#fff"
         stop-opacity=".15686"
         offset=".82090" />
      <stop
         id="stop4814-0"
         stop-color="#fff"
         stop-opacity=".39216"
         offset="1" />
    </linearGradient>
    <radialGradient
       id="radialGradient3029"
       fx="4.459"
       fy="8.5089"
       gradientUnits="userSpaceOnUse"
       cy="8.6258"
       cx="15.026"
       gradientTransform="matrix(-3.4973e-8 1.8855 -1.7764 -5.4723e-8 39.14 -7.9932)"
       r="20">
      <stop
         id="stop4170"
         stop-color="#c24251"
         offset="0" />
      <stop
         id="stop4172"
         stop-color="#c24251"
         offset=".26238" />
      <stop
         id="stop4174"
         stop-color="#a63643"
         offset=".66094" />
      <stop
         id="stop4176"
         stop-color="#a63643"
         offset="1" />
    </radialGradient>
    <radialGradient
       id="radialGradient3032"
       gradientUnits="userSpaceOnUse"
       cy="3.99"
       cx="23.896"
       gradientTransform="matrix(0,2.9445873,-3.8868351,0,39.5084,-67.696703)"
       r="20.397">
      <stop
         id="stop3244-9-33-7-0-9"
         stop-color="#fff"
         offset="0" />
      <stop
         id="stop3246-3-5-0-8-5"
         stop-color="#ddd"
         offset=".26238" />
      <stop
         id="stop3248-1-7-8-8-1"
         stop-color="#abacae"
         offset=".66094" />
      <stop
         id="stop3250-9-3-0-5-1"
         stop-color="#89898b"
         offset="1" />
    </radialGradient>
    <radialGradient
       id="radialGradient3035"
       gradientUnits="userSpaceOnUse"
       cy="186.17"
       cx="99.157"
       gradientTransform="matrix(0.27083,0,0,0.087623,-2.8550999,26.187422)"
       r="62.769">
      <stop
         id="stop3822-2-6-3"
         stop-color="#3d3d3d"
         offset="0" />
      <stop
         id="stop3864-8-7-7"
         stop-color="#686868"
         stop-opacity=".49804"
         offset=".5" />
      <stop
         id="stop3824-1-2-5"
         stop-color="#686868"
         stop-opacity="0"
         offset="1" />
    </radialGradient>
    <linearGradient
       id="linearGradient4433"
       y2="25.611"
       gradientUnits="userSpaceOnUse"
       x2="23.078"
       gradientTransform="matrix(1 0 0 1.0521 0 -.90547)"
       y1="13.035"
       x1="22.759">
      <stop
         id="stop6305-1-0-2"
         stop-color="#fff"
         offset="0" />
      <stop
         id="stop6307-5-0-6"
         stop-color="#fff"
         stop-opacity="0"
         offset="1" />
    </linearGradient>
    <linearGradient
       id="linearGradient4829">
      <stop
         style="stop-color:#f4fbfc;stop-opacity:1;"
         offset="0"
         id="stop4831" />
      <stop
         style="stop-color:#d6d6d6;stop-opacity:1;"
         offset="1"
         id="stop4833" />
    </linearGradient>
    <linearGradient
       id="linearGradient4213"
       y2="37.305"
       gradientUnits="userSpaceOnUse"
       x2="21.434999"
       y1="13.905"
       x1="21.511999">
      <stop
         id="stop2240"
         stop-color="#fff"
         offset="0" />
      <stop
         id="stop2242"
         stop-color="#fff"
         stop-opacity="0"
         offset="1" />
    </linearGradient>
    <linearGradient
       inkscape:collect="always"
       xlink:href="#a-36"
       id="linearGradient4517"
       x1="23.635593"
       y1="42.40678"
       x2="24.466101"
       y2="-6.4067798"
       gradientUnits="userSpaceOnUse"
       gradientTransform="matrix(1.0194175,0,0,1.0194175,-0.46601935,-0.46611965)" />
    <filter
       style="color-interpolation-filters:sRGB;"
       inkscape:label="Drop Shadow"
       id="filter881">
      <feFlood
         flood-opacity="0.498039"
         flood-color="rgb(0,0,0)"
         result="flood"
         id="feFlood871" />
      <feComposite
         in="flood"
         in2="SourceGraphic"
         operator="in"
         result="composite1"
         id="feComposite873" />
      <feGaussianBlur
         in="composite1"
         stdDeviation="3"
         result="blur"
         id="feGaussianBlur875" />
      <feOffset
         dx="6"
         dy="6"
         result="offset"
         id="feOffset877" />
      <feComposite
         in="SourceGraphic"
         in2="offset"
         operator="over"
         result="composite2"
         id="feComposite879" />
    </filter>
    <linearGradient
       id="a-36">
      <stop
         offset="0"
         stop-color="#f6fbff"
         id="stop2" />
      <stop
         offset="1"
         stop-color="#eaeff2"
         id="stop4" />
    </linearGradient>
    <linearGradient
       id="b-3"
       gradientTransform="matrix(1.0309825,0,0,1,-0.512598,0)"
       gradientUnits="userSpaceOnUse"
       x1="17"
       x2="17"
       y1="1036.3622"
       y2="1012.3622">
      <stop
         offset="0"
         stop-color="#3bd450"
         id="stop7-5" />
      <stop
         offset="1"
         stop-color="#53f086"
         id="stop9-6" />
    </linearGradient>
    <linearGradient
       inkscape:collect="always"
       xlink:href="#b-3"
       id="linearGradient3873"
       x1="3"
       y1="24.000002"
       x2="45"
       y2="24.000002"
       gradientUnits="userSpaceOnUse" />
    <linearGradient
       inkscape:collect="always"
       xlink:href="#b-3"
       id="linearGradient3881"
       x1="3.0002468"
       y1="23.999899"
       x2="44.796364"
       y2="23.999899"
       gradientUnits="userSpaceOnUse" />
    <linearGradient
       inkscape:collect="always"
       xlink:href="#b-3"
       id="linearGradient3889"
       x1="-37.768002"
       y1="329.43253"
       x2="696.63202"
       y2="329.43253"
       gradientUnits="userSpaceOnUse" />
  </defs>
  <metadata
     id="metadata4066">
    <rdf:RDF>
      <cc:Work
         rdf:about="">
        <dc:format>image/svg+xml</dc:format>
        <dc:type
           rdf:resource="http://purl.org/dc/dcmitype/StillImage" />
        <dc:title />
      </cc:Work>
    </rdf:RDF>
  </metadata>
  <g
     id="g4206">
    <path
       id="path3818-0-5"
       d="m 41,42.500422 a 17,5.5 0 0 1 -33.9999999,0 17,5.5 0 1 1 33.9999999,0 z"
       inkscape:connector-curvature="0"
       style="fill:url(#radialGradient3035)" />
    <path
       id="path2555-7-2"
       style="color:#000000;fill:url(#radialGradient3032);stroke-width:1.01941741"
       d="m 24,3.1018415 c -11.530631,0 -20.8980583,9.3674265 -20.8980583,20.8980575 0,11.530631 9.3674273,20.898057 20.8980583,20.898057 11.530631,0 20.898058,-9.367426 20.898058,-20.898057 C 44.898058,12.469268 35.530631,3.1018415 24,3.1018415 Z"
       inkscape:connector-curvature="0" />
    <path
       id="path2555-7-65"
       style="color:#000000;fill:url(#linearGradient4517);fill-opacity:1.0;stroke-width:1.01941741"
       d="m 24,3.1018415 c -11.530631,0 -20.8980583,9.3674265 -20.8980583,20.8980575 0,11.530631 9.3674273,20.898057 20.8980583,20.898057 11.530631,0 20.898058,-9.367426 20.898058,-20.898057 C 44.898058,12.469268 35.530631,3.1018415 24,3.1018415 Z"
       inkscape:connector-curvature="0" />
    <path
       id="path4176"
       style="color:#000000;opacity:1;fill:none;stroke:url(#linearGradient3881);stroke-width:2.03883481;stroke-linecap:round;stroke-linejoin:round;stroke-miterlimit:4;stroke-dasharray:none;stroke-opacity:0.98156684"
       d="m 43.776946,23.999899 c 0,10.979125 -8.899515,19.87864 -19.878641,19.87864 -10.979126,0 -19.8786408,-8.899515 -19.8786408,-19.87864 0,-10.979126 8.8995148,-19.87864 19.8786408,-19.87864 10.979126,0 19.878641,8.899514 19.878641,19.87864 z"
       inkscape:connector-curvature="0" />
    <path
       id="path2555-7-1-7"
       style="color:#000000;opacity:1;fill:none;fill-opacity:1;stroke:url(#linearGradient3873);stroke-width:0.2038835;stroke-linecap:round;stroke-linejoin:round;stroke-miterlimit:4;stroke-dasharray:none;stroke-opacity:1"
       d="m 24,3.1019435 c -11.530631,0 -20.8980583,9.3672225 -20.8980583,20.8980575 0,11.530835 9.3672233,20.898057 20.8980583,20.898057 11.530835,0 20.898058,-9.367222 20.898058,-20.898057 C 44.898058,12.469166 35.530631,3.1019435 24,3.1019435 Z"
       inkscape:connector-curvature="0" />
    <g
       id="g4317"
       transform="matrix(1.0002,0,0,1.0004,-1.0018,-0.0050486)"
       style="fill:none;stroke:#000000;stroke-linecap:round;stroke-linejoin:round" />
    <g
       transform="matrix(0.03183771,0,0,0.03035523,13.195535,14.281496)"
       id="g3"
       style="fill:url(#linearGradient3889);stroke-width:1.07899499;filter:url(#filter881);fill-opacity:1.0">
      <g
         id="g5"
         style="fill:url(#linearGradient3889);stroke-width:1.07899499;fill-opacity:1.0">
        <path
           inkscape:connector-curvature="0"
           d="m 372.494,379.645 h 70.977 c 16.312,0 29.534,-13.222 29.534,-29.534 0,-16.312 -13.222,-29.544 -29.534,-29.544 h -70.987 c -9.41,-13.687 -25.162,-22.706 -43.062,-22.706 -0.296,0 -0.54,0.074 -0.826,0.095 l -64.678,-91.037 c -9.453,-13.306 -27.894,-16.429 -41.189,-6.976 -13.295,9.463 -16.408,27.893 -6.965,41.189 l 64.742,91.122 c -2.043,5.589 -3.334,11.549 -3.334,17.848 0,28.866 23.383,52.24 52.24,52.24 17.909,0.009 33.661,-9.01 43.082,-22.697 z"
           id="path7"
           style="fill:url(#linearGradient3889);stroke-width:1.07899499;fill-opacity:1.0" />
        <path
           inkscape:connector-curvature="0"
           d="m 547.634,564.471 c 54.252,-55.204 87.798,-130.839 87.798,-214.36 0,-169 -137,-305.989 -306,-305.989 -169,0 -306,136.979 -306,305.989 0,83.532 33.557,159.156 87.808,214.371 l -27.682,27.671 c -15.264,15.265 -15.264,39.992 -0.01,55.257 7.622,7.633 17.636,11.454 27.628,11.454 9.992,0 19.997,-3.821 27.618,-11.443 l 34.499,-34.488 c 45.741,27.248 99.019,43.179 156.139,43.179 57.12,0 110.398,-15.931 156.16,-43.189 l 34.498,34.499 c 7.633,7.622 17.625,11.443 27.618,11.443 9.993,0 20.007,-3.821 27.629,-11.454 15.254,-15.265 15.254,-39.992 -0.011,-55.257 z M 329.421,530.109 c -10.871,0 -19.679,8.828 -19.679,19.7 v 26.527 C 200.149,566.862 112.669,479.382 103.205,369.799 h 26.528 c 10.872,0 19.7,-8.828 19.7,-19.689 0,-10.871 -8.829,-19.688 -19.7,-19.688 h -26.528 c 9.464,-109.583 96.944,-197.074 206.537,-206.527 v 26.538 c 0,10.872 8.808,19.679 19.679,19.679 10.872,0 19.689,-8.807 19.689,-19.679 v -26.538 c 109.594,9.453 197.062,96.943 206.537,206.527 h -26.538 c -10.872,0 -19.689,8.817 -19.689,19.688 0,10.861 8.817,19.689 19.689,19.689 h 26.538 C 546.183,479.382 458.714,566.862 349.121,576.336 V 549.82 c 0,-10.882 -8.818,-19.711 -19.7,-19.711 z"
           id="path9"
           style="fill:url(#linearGradient3889);stroke-width:1.07899499;fill-opacity:1.0" />
        <path
           inkscape:connector-curvature="0"
           d="M 250.939,27.819 C 227.333,10.417 198.222,0 166.645,0 88.004,0 24.247,63.758 24.247,142.398 c 0,19.33 3.885,37.749 10.872,54.548 C 78.837,113.277 157.118,50.685 250.939,27.819 Z"
           id="path11"
           style="fill:url(#linearGradient3889);stroke-width:1.07899499;fill-opacity:1.0" />
        <path
           inkscape:connector-curvature="0"
           d="m 623.734,196.947 c 6.986,-16.81 10.871,-35.229 10.871,-54.548 C 634.616,63.758 570.859,0 492.218,0 460.62,0 431.53,10.417 407.925,27.841 c 93.809,22.854 172.091,85.458 215.809,169.106 z"
           id="path13"
           style="fill:url(#linearGradient3889);stroke-width:1.07899499;fill-opacity:1.0" />
      </g>
    </g>
  </g>
</svg>
