<?xml version="1.0" encoding="UTF-8" standalone="no"?>
<!-- Created with Inkscape (http://www.inkscape.org/) -->

<svg
   xmlns:dc="http://purl.org/dc/elements/1.1/"
   xmlns:cc="http://creativecommons.org/ns#"
   xmlns:rdf="http://www.w3.org/1999/02/22-rdf-syntax-ns#"
   xmlns:svg="http://www.w3.org/2000/svg"
   xmlns="http://www.w3.org/2000/svg"
   xmlns:xlink="http://www.w3.org/1999/xlink"
   xmlns:sodipodi="http://sodipodi.sourceforge.net/DTD/sodipodi-0.dtd"
   xmlns:inkscape="http://www.inkscape.org/namespaces/inkscape"
   id="svg4061"
   height="48"
   width="48"
   version="1.1"
   inkscape:version="0.92.2 (unknown)"
   sodipodi:docname="com.github.bartzaalberg.lottery.svg">
  <sodipodi:namedview
     pagecolor="#ffffff"
     bordercolor="#666666"
     borderopacity="1"
     objecttolerance="10"
     gridtolerance="10"
     guidetolerance="10"
     inkscape:pageopacity="0"
     inkscape:pageshadow="2"
     inkscape:window-width="1378"
     inkscape:window-height="894"
     id="namedview40"
     showgrid="false"
     inkscape:zoom="9.8333333"
     inkscape:cx="12.779661"
     inkscape:cy="17.420478"
     inkscape:window-x="479"
     inkscape:window-y="584"
     inkscape:window-maximized="0"
     inkscape:current-layer="g4206" />
  <defs
     id="defs4063">
    <linearGradient
       inkscape:collect="always"
       id="linearGradient3361">
      <stop
         style="stop-color:#0068e0;stop-opacity:1;"
         offset="0"
         id="stop3363" />
      <stop
         style="stop-color:#00acf4;stop-opacity:1"
         offset="1"
         id="stop3365" />
    </linearGradient>
    <linearGradient
       id="linearGradient3026"
       y2="40.495998"
       gradientUnits="userSpaceOnUse"
       x2="71.204002"
       gradientTransform="matrix(1.5867756,0,0,1.5867757,-90.525557,-20.217856)"
       y1="15.369"
       x1="71.204002"
       xlink:href="#linearGradient3361">
      <stop
         id="stop4808-4"
         stop-color="#fff"
         offset="0" />
      <stop
         id="stop4810-0"
         stop-color="#fff"
         stop-opacity=".23529"
         offset=".42448" />
      <stop
         id="stop4812-8"
         stop-color="#fff"
         stop-opacity=".15686"
         offset=".82090" />
      <stop
         id="stop4814-0"
         stop-color="#fff"
         stop-opacity=".39216"
         offset="1" />
    </linearGradient>
    <radialGradient
       id="radialGradient3029"
       fx="4.459"
       fy="8.5089"
       gradientUnits="userSpaceOnUse"
       cy="8.6258"
       cx="15.026"
       gradientTransform="matrix(-3.4973e-8 1.8855 -1.7764 -5.4723e-8 39.14 -7.9932)"
       r="20">
      <stop
         id="stop4170"
         stop-color="#c24251"
         offset="0" />
      <stop
         id="stop4172"
         stop-color="#c24251"
         offset=".26238" />
      <stop
         id="stop4174"
         stop-color="#a63643"
         offset=".66094" />
      <stop
         id="stop4176"
         stop-color="#a63643"
         offset="1" />
    </radialGradient>
    <radialGradient
       id="radialGradient3032"
       gradientUnits="userSpaceOnUse"
       cy="3.99"
       cx="23.896"
       gradientTransform="matrix(0,2.8345094,-3.7415326,0,38.928644,-64.268791)"
       r="20.397">
      <stop
         id="stop3244-9-33-7-0-9"
         stop-color="#fff"
         offset="0" />
      <stop
         id="stop3246-3-5-0-8-5"
         stop-color="#ddd"
         offset=".26238" />
      <stop
         id="stop3248-1-7-8-8-1"
         stop-color="#abacae"
         offset=".66094" />
      <stop
         id="stop3250-9-3-0-5-1"
         stop-color="#89898b"
         offset="1" />
    </radialGradient>
    <radialGradient
       id="radialGradient3035"
       gradientUnits="userSpaceOnUse"
       cy="186.17"
       cx="99.157"
       gradientTransform="matrix(0.27083,0,0,0.087623,-2.8551,26.187)"
       r="62.769">
      <stop
         id="stop3822-2-6-3"
         stop-color="#3d3d3d"
         offset="0" />
      <stop
         id="stop3864-8-7-7"
         stop-color="#686868"
         stop-opacity=".49804"
         offset=".5" />
      <stop
         id="stop3824-1-2-5"
         stop-color="#686868"
         stop-opacity="0"
         offset="1" />
    </radialGradient>
    <linearGradient
       id="linearGradient4433"
       y2="25.611"
       gradientUnits="userSpaceOnUse"
       x2="23.078"
       gradientTransform="matrix(1 0 0 1.0521 0 -.90547)"
       y1="13.035"
       x1="22.759">
      <stop
         id="stop6305-1-0-2"
         stop-color="#fff"
         offset="0" />
      <stop
         id="stop6307-5-0-6"
         stop-color="#fff"
         stop-opacity="0"
         offset="1" />
    </linearGradient>
    <linearGradient
       inkscape:collect="always"
       xlink:href="#radialGradient3029"
       id="linearGradient3367"
       x1="25.016949"
       y1="36"
       x2="25.016951"
       y2="9.7627115"
       gradientUnits="userSpaceOnUse"
       gradientTransform="matrix(0.98130838,0,0,0.98130843,0.44859809,0.44849933)" />
    <linearGradient
       id="linearGradient4829">
      <stop
         style="stop-color:#f4fbfc;stop-opacity:1;"
         offset="0"
         id="stop4831" />
      <stop
         style="stop-color:#d6d6d6;stop-opacity:1;"
         offset="1"
         id="stop4833" />
    </linearGradient>
    <radialGradient
       id="SVGID_4_"
       cx="224.50391"
       cy="186.51421"
       r="127.0051"
       gradientUnits="userSpaceOnUse">
      <stop
         offset="0"
         style="stop-color:#FFFFFF"
         id="stop27" />
      <stop
         offset="0.3984"
         style="stop-color:#FDFEFF"
         id="stop29" />
      <stop
         offset="0.6131"
         style="stop-color:#F5FAFF"
         id="stop31" />
      <stop
         offset="0.7841"
         style="stop-color:#E7F3FF"
         id="stop33" />
      <stop
         offset="0.9311"
         style="stop-color:#D4EAFF"
         id="stop35" />
      <stop
         offset="1"
         style="stop-color:#C8E4FF"
         id="stop37" />
    </radialGradient>
    <radialGradient
       gradientUnits="userSpaceOnUse"
       r="26.769501"
       cy="286.66409"
       cx="324.69339"
       id="SVGID_5_">
      <stop
         id="stop50"
         style="stop-color:#FFFFFF"
         offset="0" />
      <stop
         id="stop52"
         style="stop-color:#FDFEFF"
         offset="0.3984" />
      <stop
         id="stop54"
         style="stop-color:#F5FAFF"
         offset="0.6131" />
      <stop
         id="stop56"
         style="stop-color:#E7F3FF"
         offset="0.7841" />
      <stop
         id="stop58"
         style="stop-color:#D4EAFF"
         offset="0.9311" />
      <stop
         id="stop60"
         style="stop-color:#C8E4FF"
         offset="1" />
    </radialGradient>
    <radialGradient
       gradientUnits="userSpaceOnUse"
       r="46.444901"
       cy="392.77249"
       cx="325"
       id="SVGID_6_">
      <stop
         id="stop73"
         style="stop-color:#FFFFFF"
         offset="0" />
      <stop
         id="stop75"
         style="stop-color:#FDFEFF"
         offset="0.3984" />
      <stop
         id="stop77"
         style="stop-color:#F5FAFF"
         offset="0.6131" />
      <stop
         id="stop79"
         style="stop-color:#E7F3FF"
         offset="0.7841" />
      <stop
         id="stop81"
         style="stop-color:#D4EAFF"
         offset="0.9311" />
      <stop
         id="stop83"
         style="stop-color:#C8E4FF"
         offset="1" />
    </radialGradient>
    <radialGradient
       id="SVGID_7_"
       cx="39.775101"
       cy="31.6131"
       r="28.881201"
       gradientUnits="userSpaceOnUse"
       gradientTransform="matrix(1.6049895,0,0,1.6049896,-19.446116,-35.572828)">
      <stop
         offset="0"
         style="stop-color:#FFFFFF"
         id="stop83-3" />
      <stop
         offset="1"
         style="stop-color:#FFCC66"
         id="stop85" />
    </radialGradient>
    <filter
       style="color-interpolation-filters:sRGB;"
       inkscape:label="Drop Shadow"
       id="filter4173">
      <feFlood
         flood-opacity="0.498039"
         flood-color="rgb(0,0,0)"
         result="flood"
         id="feFlood4163" />
      <feComposite
         in="flood"
         in2="SourceGraphic"
         operator="in"
         result="composite1"
         id="feComposite4165" />
      <feGaussianBlur
         in="composite1"
         stdDeviation="7.40741"
         result="blur"
         id="feGaussianBlur4167" />
      <feOffset
         dx="15.3"
         dy="16.1"
         result="offset"
         id="feOffset4169" />
      <feComposite
         in="SourceGraphic"
         in2="offset"
         operator="over"
         result="composite2"
         id="feComposite4171" />
    </filter>
  </defs>
  <metadata
     id="metadata4066">
    <rdf:RDF>
      <cc:Work
         rdf:about="">
        <dc:format>image/svg+xml</dc:format>
        <dc:type
           rdf:resource="http://purl.org/dc/dcmitype/StillImage" />
        <dc:title />
      </cc:Work>
    </rdf:RDF>
  </metadata>
  <g
     id="g4206">
    <path
       id="path3818-0-5"
       d="m 41,42.5 a 17,5.5 0 0 1 -34,0 17,5.5 0 1 1 34,0 z"
       inkscape:connector-curvature="0"
       style="fill:url(#radialGradient3035)" />
    <path
       id="path2555-7-2"
       style="color:#000000;fill:url(#radialGradient3032);stroke-width:0.9813084"
       d="m 24,3.8830788 c -11.099579,0 -20.1168224,9.0172432 -20.1168224,20.1168222 0,11.09958 9.0172434,20.116824 20.1168224,20.116824 11.099579,0 20.116823,-9.017244 20.116823,-20.116824 C 44.116823,12.900322 35.099579,3.8830788 24,3.8830788 Z"
       inkscape:connector-curvature="0" />
    <path
       id="path2555-7-65"
       style="color:#000000;fill:url(#linearGradient3367);fill-opacity:1;stroke:#000000;stroke-width:0.9813084;stroke-opacity:1"
       d="m 24,3.8830788 c -11.099579,0 -20.1168224,9.0172432 -20.1168224,20.1168222 0,11.09958 9.0172434,20.116824 20.1168224,20.116824 11.099579,0 20.116823,-9.017244 20.116823,-20.116824 C 44.116823,12.900322 35.099579,3.8830788 24,3.8830788 Z"
       inkscape:connector-curvature="0" />
    <path
       id="path4176"
       style="color:#000000;opacity:0.5;fill:none;stroke:url(#linearGradient3026);stroke-width:0.9813084;stroke-linecap:round;stroke-linejoin:round"
       d="M 43.135514,23.999901 C 43.135514,34.568593 34.568691,43.135416 24,43.135416 13.431309,43.135416 4.864486,34.568593 4.864486,23.999901 4.864486,13.43121 13.431309,4.8643872 24,4.8643872 c 10.568691,0 19.135514,8.5668228 19.135514,19.1355138 z"
       inkscape:connector-curvature="0" />
    <path
       id="path2555-7-1-7"
       style="color:#000000;opacity:1;fill:none;fill-opacity:1;stroke:#fbfbfb;stroke-width:1.76635504;stroke-linecap:round;stroke-linejoin:round;stroke-miterlimit:4;stroke-dasharray:none;stroke-opacity:1"
       d="m 24,3.8831769 c -11.099579,0 -20.1168224,9.0170471 -20.1168224,20.1168221 0,11.099776 9.0170464,20.116824 20.1168224,20.116824 11.099776,0 20.116823,-9.017048 20.116823,-20.116824 C 44.116823,12.900224 35.099579,3.8831769 24,3.8831769 Z"
       inkscape:connector-curvature="0" />
    <g
       id="g4317"
       transform="matrix(1.0002,0,0,1.0004,-1.0018,-0.0050486)"
       style="fill:none;stroke:#000000;stroke-linecap:round;stroke-linejoin:round" />
    <g
       id="g6"
       transform="matrix(0.05,0,0,0.05,11.2,12.115254)"
       style="fill:#ffffff">
      <g
         id="g4"
         style="fill:#ffffff">
        <path
           d="m 256,213.886 c -14.511,0 -26.316,11.806 -26.316,26.316 0,14.51 11.805,26.315 26.316,26.315 14.511,0 26.316,-11.804 26.316,-26.315 0,-14.511 -11.805,-26.316 -26.316,-26.316 z m 0,37.631 c -6.24,0 -11.316,-5.076 -11.316,-11.315 0,-6.24 5.076,-11.316 11.316,-11.316 6.24,0 11.316,5.076 11.316,11.316 0,6.239 -5.076,11.315 -11.316,11.315 z"
           id="path2"
           inkscape:connector-curvature="0"
           style="fill:#ffffff" />
      </g>
    </g>
    <g
       id="g12"
       transform="matrix(0.05,0,0,0.05,11.2,12.115254)"
       style="fill:#ffffff">
      <g
         id="g10"
         style="fill:#ffffff">
        <path
           d="m 256,171.902 c -37.66,0 -68.299,30.64 -68.299,68.3 0,37.66 30.639,68.299 68.299,68.299 37.66,0 68.299,-30.639 68.299,-68.299 0,-37.66 -30.639,-68.3 -68.299,-68.3 z m 0,121.599 c -29.389,0 -53.299,-23.91 -53.299,-53.299 0,-29.39 23.91,-53.3 53.299,-53.3 29.389,0 53.299,23.91 53.299,53.3 0,29.389 -23.91,53.299 -53.299,53.299 z"
           id="path8"
           inkscape:connector-curvature="0"
           style="fill:#ffffff" />
      </g>
    </g>
    <g
       id="g18"
       transform="matrix(0.05,0,0,0.05,11.2,12.115254)"
       style="fill:#ffffff;filter:url(#filter4173)">
      <g
         id="g16"
         style="fill:#ffffff">
        <path
           d="m 472.271,240.202 c 0,-106.905 -77.748,-197.15 -182.313,-213.595 L 298.786,0 h -84.684 l 8.784,26.473 C 173.839,34.02 128.826,58.286 95.32,95.45 59.471,135.212 39.729,186.619 39.729,240.202 c 0,89.402 55.236,169.591 138.149,201.701 L 163.871,497 h -44.386 v 15 h 40.573 191.884 40.572 v -15 h -44.386 l -14.007,-55.097 c 82.914,-32.11 138.15,-112.299 138.15,-201.701 z M 215.416,160.419 c -6.156,3.129 -11.899,6.946 -17.177,11.416 l -63.143,-63.143 c 13.878,-12.78 29.516,-23.174 46.635,-30.996 z m -19.79,-88.38 c 1.708,-0.615 3.427,-1.197 5.153,-1.757 0.569,-0.185 1.142,-0.354 1.713,-0.533 1.164,-0.365 2.328,-0.725 3.499,-1.066 0.681,-0.198 1.365,-0.384 2.048,-0.574 1.073,-0.298 2.147,-0.59 3.225,-0.868 0.72,-0.186 1.442,-0.364 2.164,-0.541 1.06,-0.259 2.122,-0.508 3.187,-0.747 0.726,-0.163 1.452,-0.325 2.18,-0.479 1.092,-0.231 2.187,-0.447 3.284,-0.658 0.696,-0.134 1.392,-0.272 2.09,-0.397 1.212,-0.218 2.428,-0.415 3.645,-0.608 0.583,-0.092 1.164,-0.195 1.749,-0.281 1.789,-0.265 3.582,-0.507 5.381,-0.719 l 13.557,40.858 v 47.348 c -0.374,0.031 -0.746,0.073 -1.12,0.108 -0.246,0.024 -0.491,0.046 -0.736,0.071 -0.243,0.025 -0.486,0.047 -0.729,0.074 -0.169,0.019 -0.338,0.043 -0.507,0.063 -0.145,0.017 -0.29,0.036 -0.434,0.054 -0.192,0.024 -0.384,0.047 -0.575,0.072 -0.501,0.065 -1.002,0.134 -1.501,0.207 -0.303,0.044 -0.604,0.091 -0.906,0.138 -0.579,0.091 -1.158,0.189 -1.735,0.291 -0.059,0.01 -0.118,0.021 -0.177,0.032 -0.161,0.029 -0.321,0.057 -0.482,0.087 -0.206,0.038 -0.412,0.072 -0.617,0.112 -0.977,0.188 -1.95,0.395 -2.92,0.616 -0.25,0.057 -0.499,0.119 -0.749,0.179 -0.758,0.18 -1.514,0.369 -2.267,0.569 -0.279,0.074 -0.558,0.147 -0.836,0.224 -0.971,0.268 -1.938,0.546 -2.901,0.847 z m -7.994,110.402 c -4.236,5.002 -7.888,10.424 -10.924,16.218 l -19.774,-8.33 -62.543,-26.349 c 7.715,-16.353 17.806,-31.334 30.099,-44.682 z m -39.076,20.635 22.324,9.405 c -1.502,4.606 -2.611,9.316 -3.341,14.103 -10e-4,0.004 -10e-4,0.007 -0.002,0.011 -0.103,0.678 -0.198,1.357 -0.286,2.038 -0.017,0.135 -0.034,0.27 -0.051,0.404 -0.075,0.604 -0.145,1.208 -0.208,1.814 -0.023,0.224 -0.044,0.45 -0.066,0.675 -0.038,0.392 -0.082,0.783 -0.114,1.175 H 77.516 c 0.774,-18.895 4.477,-37.302 11.046,-54.899 z m 18.257,44.627 v -0.001 c 0.031,0.375 0.073,0.748 0.109,1.123 0.023,0.244 0.045,0.488 0.071,0.731 0.058,0.56 0.124,1.119 0.192,1.677 0.023,0.19 0.046,0.38 0.071,0.569 0.078,0.602 0.163,1.203 0.253,1.802 0.02,0.132 0.04,0.263 0.06,0.395 0.1,0.647 0.207,1.292 0.322,1.936 0.012,0.068 0.025,0.136 0.037,0.205 0.654,3.635 1.527,7.225 2.631,10.755 L 87.835,300.579 C 81.722,283.58 78.264,265.854 77.518,247.703 Z m -24.438,46.863 33.843,-13.78 c 3.129,6.155 6.946,11.898 11.415,17.176 l -6.226,6.226 -56.917,56.916 C 111.709,347.225 101.316,331.588 93.495,314.469 Z m 55.864,14.003 c 5.002,4.236 10.425,7.889 16.218,10.924 l -34.678,82.317 c -16.354,-7.715 -31.334,-17.807 -44.683,-30.099 z m 21.413,37.232 8.627,-20.479 c 4.599,1.5 9.301,2.608 14.08,3.338 0.016,0.003 0.033,0.005 0.049,0.008 0.67,0.102 1.342,0.196 2.015,0.283 0.14,0.018 0.281,0.036 0.421,0.053 0.6,0.074 1.201,0.144 1.804,0.207 0.226,0.024 0.453,0.044 0.679,0.066 0.391,0.037 0.781,0.082 1.173,0.114 v 89.295 c -18.897,-0.773 -37.304,-4.478 -54.9,-11.046 z m -32.213,-76.479 c -0.03,-0.071 -0.063,-0.141 -0.093,-0.213 -0.423,-1 -0.82,-2.014 -1.199,-3.036 -0.049,-0.132 -0.101,-0.262 -0.149,-0.394 -0.359,-0.984 -0.693,-1.981 -1.012,-2.984 -0.052,-0.165 -0.109,-0.328 -0.16,-0.493 -0.306,-0.988 -0.586,-1.987 -0.852,-2.992 -0.048,-0.181 -0.101,-0.36 -0.147,-0.541 -0.254,-0.992 -0.481,-1.995 -0.695,-3.003 -0.042,-0.199 -0.091,-0.396 -0.131,-0.596 -0.2,-0.984 -0.372,-1.977 -0.533,-2.974 -0.037,-0.23 -0.082,-0.458 -0.117,-0.688 -0.146,-0.961 -0.262,-1.931 -0.37,-2.903 -0.03,-0.271 -0.071,-0.54 -0.098,-0.811 -0.096,-0.954 -0.161,-1.917 -0.22,-2.882 -0.018,-0.288 -0.048,-0.574 -0.062,-0.862 -0.062,-1.243 -0.095,-2.494 -0.095,-3.752 0,-1.28 0.033,-2.553 0.097,-3.817 0.004,-0.076 0.013,-0.151 0.017,-0.227 1.561,-29.022 19.806,-53.683 45.294,-64.534 0.055,-0.023 0.109,-0.048 0.164,-0.071 1.017,-0.43 2.048,-0.834 3.087,-1.219 0.114,-0.042 0.227,-0.088 0.342,-0.13 1.003,-0.367 2.019,-0.707 3.042,-1.031 0.145,-0.046 0.289,-0.096 0.435,-0.141 1.008,-0.312 2.027,-0.598 3.052,-0.869 0.161,-0.042 0.321,-0.09 0.482,-0.131 1.01,-0.259 2.031,-0.49 3.058,-0.707 0.182,-0.038 0.362,-0.083 0.544,-0.12 0.998,-0.203 2.006,-0.378 3.018,-0.54 0.217,-0.035 0.431,-0.078 0.648,-0.11 0.972,-0.147 1.954,-0.265 2.938,-0.375 0.26,-0.029 0.517,-0.068 0.777,-0.094 0.964,-0.097 1.936,-0.162 2.91,-0.222 0.279,-0.017 0.556,-0.046 0.836,-0.06 1.244,-0.062 2.495,-0.095 3.754,-0.095 1.28,0 2.552,0.033 3.817,0.097 0.079,0.004 0.158,0.013 0.237,0.018 29.004,1.563 53.65,19.791 64.508,45.258 0.03,0.071 0.063,0.141 0.093,0.213 0.424,1.002 0.821,2.017 1.201,3.041 0.048,0.129 0.1,0.257 0.147,0.386 0.361,0.99 0.697,1.991 1.017,3 0.05,0.158 0.105,0.315 0.154,0.474 0.308,0.995 0.59,2.001 0.857,3.012 0.046,0.174 0.097,0.347 0.142,0.521 0.256,0.998 0.484,2.008 0.699,3.022 0.041,0.193 0.088,0.384 0.127,0.577 0.201,0.989 0.374,1.988 0.536,2.991 0.036,0.224 0.08,0.447 0.114,0.672 0.147,0.967 0.263,1.943 0.372,2.922 0.029,0.264 0.069,0.527 0.095,0.792 0.097,0.962 0.162,1.932 0.222,2.904 0.017,0.281 0.047,0.559 0.06,0.841 0.062,1.244 0.095,2.495 0.095,3.754 0,1.28 -0.033,2.552 -0.097,3.817 -0.004,0.08 -0.013,0.159 -0.018,0.239 -1.564,28.993 -19.779,53.63 -45.232,64.494 -0.084,0.036 -0.166,0.074 -0.25,0.109 -0.987,0.417 -1.988,0.809 -2.997,1.184 -0.145,0.054 -0.288,0.112 -0.433,0.164 -0.972,0.355 -1.955,0.684 -2.945,0.999 -0.177,0.056 -0.353,0.118 -0.531,0.173 -0.975,0.304 -1.963,0.581 -2.957,0.844 -0.191,0.05 -0.38,0.107 -0.571,0.155 -0.983,0.252 -1.976,0.476 -2.974,0.688 -0.208,0.044 -0.415,0.095 -0.623,0.137 -0.975,0.198 -1.96,0.368 -2.948,0.528 -0.238,0.038 -0.474,0.085 -0.712,0.121 -0.955,0.145 -1.92,0.26 -2.886,0.368 -0.276,0.031 -0.549,0.072 -0.825,0.099 -0.953,0.096 -1.914,0.16 -2.877,0.219 -0.289,0.018 -0.576,0.048 -0.865,0.062 -1.243,0.062 -2.494,0.095 -3.752,0.095 -1.28,0 -2.552,-0.033 -3.816,-0.097 -0.085,-0.004 -0.169,-0.014 -0.254,-0.019 -28.997,-1.57 -53.636,-19.795 -64.492,-45.257 z m 76.059,60.067 h 0.002 c 0.373,-0.031 0.743,-0.072 1.115,-0.108 0.248,-0.024 0.497,-0.046 0.744,-0.072 0.553,-0.057 1.104,-0.122 1.655,-0.19 0.199,-0.024 0.397,-0.048 0.596,-0.074 0.592,-0.077 1.183,-0.16 1.773,-0.249 0.144,-0.022 0.287,-0.043 0.43,-0.066 0.635,-0.098 1.268,-0.204 1.9,-0.316 0.083,-0.015 0.165,-0.03 0.247,-0.045 3.627,-0.654 7.208,-1.525 10.731,-2.627 l 16.496,40.512 17.188,42.212 c -17,6.113 -34.725,9.571 -52.877,10.318 z m 33.086,-9.405 c 6.154,-3.129 11.899,-6.946 17.177,-11.415 l 63.143,63.143 c -13.879,12.78 -29.516,23.174 -46.636,30.995 z m 59.355,9.55 -31.571,-31.571 c 4.237,-5.003 7.889,-10.425 10.924,-16.218 l 41.616,17.532 40.701,17.146 c -7.715,16.354 -17.807,31.334 -30.099,44.682 z m 24.37,-45.102 -39.189,-16.51 c 1.501,-4.604 2.61,-9.311 3.34,-14.096 0.001,-0.007 0.002,-0.014 0.003,-0.021 0.103,-0.676 0.198,-1.353 0.285,-2.032 0.018,-0.136 0.035,-0.272 0.052,-0.409 0.075,-0.602 0.145,-1.205 0.207,-1.81 0.023,-0.226 0.044,-0.452 0.066,-0.678 0.037,-0.391 0.082,-0.781 0.114,-1.173 h 89.296 c -0.773,18.895 -4.476,37.302 -11.045,54.898 z m -35.123,-51.73 c -0.031,-0.377 -0.073,-0.752 -0.109,-1.128 -0.023,-0.241 -0.045,-0.483 -0.07,-0.723 -0.059,-0.564 -0.124,-1.127 -0.194,-1.689 -0.023,-0.185 -0.045,-0.369 -0.069,-0.554 -0.079,-0.607 -0.164,-1.214 -0.255,-1.819 -0.019,-0.125 -0.038,-0.25 -0.057,-0.375 -0.101,-0.654 -0.209,-1.306 -0.325,-1.957 -0.011,-0.06 -0.022,-0.119 -0.032,-0.179 -0.655,-3.64 -1.528,-7.234 -2.633,-10.77 l 60.84,-24.774 21.884,-8.911 c 6.113,17.001 9.571,34.728 10.317,52.879 z m -9.403,-33.084 c -3.129,-6.155 -6.946,-11.898 -11.416,-17.177 l 63.143,-63.143 c 12.781,13.879 23.174,29.516 30.996,46.635 z m -22.022,-27.783 c -5.002,-4.237 -10.425,-7.89 -16.218,-10.925 l 21.849,-51.863 12.83,-30.454 c 16.353,7.715 31.334,17.806 44.682,30.099 z m -30.039,-16.754 c -0.999,-0.326 -2.004,-0.627 -3.012,-0.916 -0.293,-0.084 -0.588,-0.164 -0.882,-0.245 -0.768,-0.212 -1.538,-0.413 -2.311,-0.604 -0.278,-0.069 -0.554,-0.14 -0.833,-0.206 -1.016,-0.241 -2.035,-0.467 -3.058,-0.671 -0.146,-0.029 -0.294,-0.053 -0.44,-0.082 -0.89,-0.173 -1.783,-0.332 -2.679,-0.478 -0.308,-0.05 -0.616,-0.097 -0.925,-0.144 -0.668,-0.102 -1.337,-0.195 -2.008,-0.281 -0.137,-0.018 -0.275,-0.035 -0.412,-0.052 -0.01,-10e-4 -0.021,-0.003 -0.031,-0.004 -0.245,-0.03 -0.489,-0.065 -0.734,-0.093 -0.347,-0.04 -0.695,-0.075 -1.043,-0.111 -0.225,-0.023 -0.452,-0.044 -0.678,-0.066 -0.391,-0.037 -0.781,-0.082 -1.174,-0.114 V 106.346 L 277.914,62.91 c 0.016,0.002 0.033,0.003 0.049,0.005 0.123,0.016 0.248,0.037 0.373,0.052 1.74,0.217 3.474,0.459 5.203,0.726 0.621,0.096 1.239,0.208 1.859,0.31 1.234,0.204 2.467,0.413 3.695,0.642 0.717,0.134 1.43,0.28 2.145,0.423 1.13,0.226 2.259,0.458 3.385,0.705 0.743,0.163 1.483,0.334 2.223,0.507 1.102,0.257 2.201,0.525 3.297,0.803 0.734,0.186 1.467,0.374 2.198,0.57 1.118,0.299 2.231,0.614 3.343,0.935 0.692,0.2 1.386,0.395 2.075,0.603 1.211,0.366 2.415,0.753 3.618,1.144 0.578,0.188 1.158,0.366 1.734,0.56 1.772,0.597 3.536,1.217 5.289,1.871 z M 278.005,15 274.797,24.667 267.446,46.822 256.444,79.979 234.884,15 Z m -98.657,482 2.617,-10.293 H 330.036 L 332.652,497 Z m 6.43,-25.293 6.317,-24.849 c 0.161,0.05 0.323,0.095 0.484,0.145 0.536,0.164 1.075,0.322 1.612,0.482 0.846,0.252 1.693,0.503 2.542,0.744 0.574,0.164 1.15,0.322 1.725,0.48 0.82,0.226 1.64,0.448 2.462,0.664 0.587,0.154 1.174,0.306 1.761,0.455 0.822,0.209 1.646,0.412 2.47,0.611 0.583,0.141 1.166,0.281 1.75,0.417 0.846,0.197 1.694,0.385 2.542,0.572 0.561,0.123 1.122,0.249 1.684,0.368 0.922,0.195 1.846,0.379 2.771,0.562 0.487,0.096 0.974,0.198 1.462,0.291 1.296,0.247 2.595,0.481 3.896,0.704 0.117,0.02 0.233,0.043 0.35,0.063 1.414,0.24 2.832,0.464 4.252,0.676 0.47,0.07 0.94,0.132 1.411,0.199 0.957,0.136 1.914,0.271 2.873,0.395 0.561,0.072 1.123,0.137 1.685,0.205 0.873,0.106 1.747,0.209 2.622,0.304 0.593,0.064 1.186,0.124 1.779,0.183 0.851,0.085 1.703,0.167 2.556,0.242 0.602,0.053 1.204,0.104 1.807,0.152 0.855,0.068 1.711,0.13 2.568,0.189 0.593,0.04 1.186,0.081 1.779,0.116 0.886,0.053 1.773,0.097 2.66,0.139 0.564,0.027 1.128,0.056 1.692,0.079 0.972,0.039 1.946,0.066 2.92,0.092 0.477,0.013 0.954,0.03 1.432,0.04 1.451,0.029 2.903,0.045 4.357,0.045 1.454,0 2.906,-0.017 4.357,-0.045 0.478,-0.009 0.955,-0.027 1.432,-0.04 0.974,-0.026 1.948,-0.053 2.92,-0.092 0.565,-0.022 1.128,-0.052 1.692,-0.079 0.887,-0.042 1.774,-0.086 2.66,-0.139 0.594,-0.035 1.186,-0.076 1.779,-0.116 0.857,-0.058 1.713,-0.12 2.568,-0.189 0.603,-0.048 1.205,-0.099 1.807,-0.152 0.853,-0.075 1.705,-0.157 2.556,-0.242 0.593,-0.059 1.187,-0.119 1.779,-0.183 0.875,-0.095 1.749,-0.199 2.622,-0.304 0.562,-0.068 1.124,-0.133 1.685,-0.205 0.959,-0.124 1.916,-0.258 2.873,-0.395 0.47,-0.067 0.941,-0.129 1.411,-0.199 1.42,-0.212 2.837,-0.436 4.252,-0.676 0.117,-0.02 0.233,-0.043 0.35,-0.063 1.301,-0.223 2.6,-0.457 3.896,-0.704 0.488,-0.093 0.974,-0.194 1.462,-0.291 0.925,-0.183 1.849,-0.367 2.771,-0.562 0.562,-0.119 1.123,-0.245 1.684,-0.368 0.848,-0.186 1.696,-0.375 2.542,-0.572 0.584,-0.136 1.167,-0.276 1.75,-0.417 0.824,-0.199 1.648,-0.402 2.47,-0.611 0.588,-0.149 1.175,-0.301 1.761,-0.455 0.822,-0.216 1.642,-0.439 2.462,-0.664 0.575,-0.159 1.151,-0.317 1.725,-0.48 0.849,-0.242 1.696,-0.492 2.542,-0.744 0.538,-0.16 1.076,-0.317 1.612,-0.482 0.163,-0.049 0.325,-0.095 0.486,-0.145 l 6.317,24.849 z m 136.925,-41.569 c -1.338,0.47 -2.68,0.925 -4.026,1.366 -20.191,6.615 -41.256,9.966 -62.681,9.966 -21.425,0 -42.489,-3.351 -62.681,-9.966 -1.346,-0.441 -2.688,-0.896 -4.026,-1.366 C 108.806,401.874 54.729,325.544 54.729,240.202 54.729,139.442 128.661,54.817 227.68,40.921 l 2.447,7.375 c -0.155,0.021 -0.308,0.048 -0.462,0.069 -1.771,0.241 -3.537,0.504 -5.298,0.794 -0.282,0.046 -0.562,0.096 -0.844,0.144 -1.766,0.298 -3.529,0.617 -5.284,0.964 -0.086,0.017 -0.173,0.032 -0.259,0.049 -1.797,0.358 -3.586,0.748 -5.371,1.156 -0.319,0.073 -0.639,0.145 -0.958,0.22 -1.737,0.407 -3.468,0.837 -5.193,1.292 -0.288,0.076 -0.576,0.156 -0.864,0.233 -1.756,0.472 -3.506,0.962 -5.248,1.484 -0.04,0.012 -0.08,0.023 -0.12,0.035 -1.756,0.527 -3.502,1.087 -5.243,1.664 -0.314,0.104 -0.629,0.207 -0.943,0.313 -1.364,0.46 -2.724,0.932 -4.078,1.423 l -0.056,-0.138 -6.948,2.832 c -0.005,0.002 -0.009,0.004 -0.014,0.006 l -6.928,2.824 0.059,0.146 C 157.1,72.401 139.802,83.897 124.49,98.087 l -0.111,-0.111 -5.303,5.303 -5.303,5.304 0.11,0.11 c -13.659,14.738 -24.831,31.324 -33.316,49.465 l -0.145,-0.061 -2.914,6.907 -2.916,6.914 0.147,0.062 c -7.333,19.452 -11.432,39.815 -12.222,60.722 h -0.156 v 7.5 7.5 h 0.156 c 0.762,20.1 4.593,39.726 11.425,58.532 l -0.147,0.06 2.832,6.948 2.83,6.942 0.146,-0.06 c 8.594,18.974 20.09,36.272 34.281,51.584 l -0.111,0.111 5.303,5.304 5.303,5.303 0.11,-0.11 c 14.738,13.659 31.324,24.831 49.465,33.316 l -0.061,0.145 6.893,2.907 c 0.005,0.002 0.01,0.004 0.014,0.006 l 6.914,2.916 0.062,-0.147 c 19.451,7.333 39.814,11.432 60.722,12.222 v 0.156 h 7.5 7.5 v -0.156 c 20.1,-0.762 39.727,-4.593 58.533,-11.425 l 0.06,0.147 6.934,-2.826 c 0.005,-0.002 0.009,-0.004 0.014,-0.006 l 6.942,-2.83 -0.06,-0.146 c 18.974,-8.594 36.272,-20.09 51.584,-34.281 l 0.111,0.111 5.303,-5.303 c 0.014,-0.014 0.027,-0.028 0.04,-0.041 l 5.263,-5.262 -0.11,-0.11 c 13.659,-14.738 24.83,-31.324 33.316,-49.465 l 0.145,0.061 2.899,-6.873 c 0.005,-0.011 0.01,-0.023 0.015,-0.034 l 2.916,-6.914 -0.147,-0.062 c 7.333,-19.451 11.432,-39.813 12.222,-60.721 h 0.156 v -7.5 -7.5 h -0.156 c -0.762,-20.101 -4.593,-39.727 -11.425,-58.533 l 0.147,-0.06 -2.832,-6.948 -2.83,-6.942 -0.146,0.059 c -8.594,-18.974 -20.09,-36.272 -34.281,-51.584 l 0.111,-0.111 -5.303,-5.304 -5.303,-5.303 -0.11,0.11 C 372.768,84.426 356.182,73.255 338.041,64.77 l 0.061,-0.145 -6.907,-2.913 c -0.006,-0.003 -0.012,-0.005 -0.018,-0.007 l -6.896,-2.909 -0.057,0.135 c -1.445,-0.544 -2.898,-1.064 -4.356,-1.573 -0.344,-0.12 -0.69,-0.237 -1.035,-0.356 -1.757,-0.602 -3.519,-1.186 -5.292,-1.736 -0.125,-0.039 -0.25,-0.074 -0.375,-0.113 -1.714,-0.528 -3.436,-1.028 -5.164,-1.509 -0.306,-0.085 -0.61,-0.173 -0.917,-0.256 -1.751,-0.477 -3.509,-0.927 -5.273,-1.354 -0.362,-0.088 -0.724,-0.173 -1.087,-0.259 -1.794,-0.424 -3.593,-0.828 -5.4,-1.2 -0.197,-0.041 -0.395,-0.077 -0.592,-0.117 -1.735,-0.352 -3.477,-0.679 -5.224,-0.983 -0.267,-0.047 -0.534,-0.097 -0.802,-0.142 -1.809,-0.307 -3.625,-0.585 -5.445,-0.842 -0.181,-0.026 -0.361,-0.059 -0.542,-0.084 l 2.444,-7.366 c 98.534,14.27 172.103,98.836 172.103,199.159 0,85.342 -54.077,161.672 -134.564,189.938 z"
           id="path14"
           inkscape:connector-curvature="0"
           style="fill:#ffffff" />
      </g>
    </g>
  </g>
</svg>
