<?xml version="1.0" encoding="UTF-8" standalone="no"?>
<!-- Created with Inkscape (http://www.inkscape.org/) -->

<svg
   xmlns:dc="http://purl.org/dc/elements/1.1/"
   xmlns:cc="http://creativecommons.org/ns#"
   xmlns:rdf="http://www.w3.org/1999/02/22-rdf-syntax-ns#"
   xmlns:svg="http://www.w3.org/2000/svg"
   xmlns="http://www.w3.org/2000/svg"
   xmlns:xlink="http://www.w3.org/1999/xlink"
   xmlns:sodipodi="http://sodipodi.sourceforge.net/DTD/sodipodi-0.dtd"
   xmlns:inkscape="http://www.inkscape.org/namespaces/inkscape"
   id="svg4061"
   height="48"
   width="48"
   version="1.1"
   inkscape:version="0.92.2 (unknown)"
   sodipodi:docname="com.github.jmoerman.go-for-it.svg">
  <sodipodi:namedview
     pagecolor="#ffffff"
     bordercolor="#666666"
     borderopacity="1"
     objecttolerance="10"
     gridtolerance="10"
     guidetolerance="10"
     inkscape:pageopacity="0"
     inkscape:pageshadow="2"
     inkscape:window-width="2274"
     inkscape:window-height="894"
     id="namedview40"
     showgrid="false"
     inkscape:zoom="9.8333333"
     inkscape:cx="1.5194759"
     inkscape:cy="14.794629"
     inkscape:window-x="98"
     inkscape:window-y="255"
     inkscape:window-maximized="0"
     inkscape:current-layer="g4206" />
  <defs
     id="defs4063">
    <linearGradient
       id="linearGradient3026"
       y2="40.495998"
       gradientUnits="userSpaceOnUse"
       x2="71.204002"
       gradientTransform="matrix(1.617,0,0,1.617,-92.707,-21.06)"
       y1="15.369"
       x1="71.204002"
       spreadMethod="pad">
      <stop
         id="stop4808-4"
         stop-color="#fff"
         offset="0" />
      <stop
         id="stop4810-0"
         stop-color="#fff"
         stop-opacity=".23529"
         offset=".42448" />
      <stop
         id="stop4812-8"
         stop-color="#fff"
         stop-opacity=".15686"
         offset=".82090" />
      <stop
         id="stop4814-0"
         stop-color="#fff"
         stop-opacity=".39216"
         offset="1" />
    </linearGradient>
    <radialGradient
       id="radialGradient3029"
       fx="4.459"
       fy="8.5089"
       gradientUnits="userSpaceOnUse"
       cy="8.6258"
       cx="15.026"
       gradientTransform="matrix(-3.4973e-8 1.8855 -1.7764 -5.4723e-8 39.14 -7.9932)"
       r="20">
      <stop
         id="stop4170"
         stop-color="#c24251"
         offset="0" />
      <stop
         id="stop4172"
         stop-color="#c24251"
         offset=".26238" />
      <stop
         id="stop4174"
         stop-color="#a63643"
         offset=".66094" />
      <stop
         id="stop4176"
         stop-color="#a63643"
         offset="1" />
    </radialGradient>
    <radialGradient
       id="radialGradient3032"
       gradientUnits="userSpaceOnUse"
       cy="3.99"
       cx="23.896"
       gradientTransform="matrix(0,2.9445873,-3.8868351,0,39.5084,-67.696703)"
       r="20.397">
      <stop
         id="stop3244-9-33-7-0-9"
         stop-color="#fff"
         offset="0" />
      <stop
         id="stop3246-3-5-0-8-5"
         stop-color="#ddd"
         offset=".26238" />
      <stop
         id="stop3248-1-7-8-8-1"
         stop-color="#abacae"
         offset=".66094" />
      <stop
         id="stop3250-9-3-0-5-1"
         stop-color="#89898b"
         offset="1" />
    </radialGradient>
    <radialGradient
       id="radialGradient3035"
       gradientUnits="userSpaceOnUse"
       cy="186.17"
       cx="99.157"
       gradientTransform="matrix(0.27083,0,0,0.087623,-2.8550999,26.187422)"
       r="62.769">
      <stop
         id="stop3822-2-6-3"
         stop-color="#3d3d3d"
         offset="0" />
      <stop
         id="stop3864-8-7-7"
         stop-color="#686868"
         stop-opacity=".49804"
         offset=".5" />
      <stop
         id="stop3824-1-2-5"
         stop-color="#686868"
         stop-opacity="0"
         offset="1" />
    </radialGradient>
    <linearGradient
       id="linearGradient4433"
       y2="25.611"
       gradientUnits="userSpaceOnUse"
       x2="23.078"
       gradientTransform="matrix(1 0 0 1.0521 0 -.90547)"
       y1="13.035"
       x1="22.759">
      <stop
         id="stop6305-1-0-2"
         stop-color="#fff"
         offset="0" />
      <stop
         id="stop6307-5-0-6"
         stop-color="#fff"
         stop-opacity="0"
         offset="1" />
    </linearGradient>
    <linearGradient
       id="linearGradient4829">
      <stop
         style="stop-color:#f4fbfc;stop-opacity:1;"
         offset="0"
         id="stop4831" />
      <stop
         style="stop-color:#d6d6d6;stop-opacity:1;"
         offset="1"
         id="stop4833" />
    </linearGradient>
    <linearGradient
       id="linearGradient4213"
       y2="37.305"
       gradientUnits="userSpaceOnUse"
       x2="21.434999"
       y1="13.905"
       x1="21.511999">
      <stop
         id="stop2240"
         stop-color="#fff"
         offset="0" />
      <stop
         id="stop2242"
         stop-color="#fff"
         stop-opacity="0"
         offset="1" />
    </linearGradient>
    <linearGradient
       inkscape:collect="always"
       xlink:href="#a-36"
       id="linearGradient4517"
       x1="23.635593"
       y1="42.40678"
       x2="24.466101"
       y2="-6.4067798"
       gradientUnits="userSpaceOnUse"
       gradientTransform="matrix(1.0194175,0,0,1.0194175,-0.46601935,-0.46611965)" />
    <filter
       style="color-interpolation-filters:sRGB;"
       inkscape:label="Drop Shadow"
       id="filter881">
      <feFlood
         flood-opacity="0.498039"
         flood-color="rgb(0,0,0)"
         result="flood"
         id="feFlood871" />
      <feComposite
         in="flood"
         in2="SourceGraphic"
         operator="in"
         result="composite1"
         id="feComposite873" />
      <feGaussianBlur
         in="composite1"
         stdDeviation="3"
         result="blur"
         id="feGaussianBlur875" />
      <feOffset
         dx="6"
         dy="6"
         result="offset"
         id="feOffset877" />
      <feComposite
         in="SourceGraphic"
         in2="offset"
         operator="over"
         result="composite2"
         id="feComposite879" />
    </filter>
    <linearGradient
       id="a-36">
      <stop
         offset="0"
         stop-color="#f6fbff"
         id="stop2" />
      <stop
         offset="1"
         stop-color="#eaeff2"
         id="stop4" />
    </linearGradient>
    <linearGradient
       id="b-3"
       gradientTransform="matrix(1.0309825,0,0,1,-0.512598,0)"
       gradientUnits="userSpaceOnUse"
       x1="17"
       x2="17"
       y1="1036.3622"
       y2="1012.3622">
      <stop
         offset="0"
         stop-color="#3bd450"
         id="stop7-5" />
      <stop
         offset="1"
         stop-color="#53f086"
         id="stop9-6" />
    </linearGradient>
    <linearGradient
       inkscape:collect="always"
       xlink:href="#b-3"
       id="linearGradient3873"
       x1="3"
       y1="24.000002"
       x2="45"
       y2="24.000002"
       gradientUnits="userSpaceOnUse" />
    <linearGradient
       inkscape:collect="always"
       xlink:href="#b-3"
       id="linearGradient3881"
       x1="3.0002468"
       y1="23.999899"
       x2="44.796364"
       y2="23.999899"
       gradientUnits="userSpaceOnUse" />
    <filter
       style="color-interpolation-filters:sRGB"
       inkscape:label="Drop Shadow"
       id="filter90">
      <feFlood
         flood-opacity="0.498039"
         flood-color="rgb(0,0,0)"
         result="flood"
         id="feFlood80" />
      <feComposite
         in="flood"
         in2="SourceGraphic"
         operator="in"
         result="composite1"
         id="feComposite82" />
      <feGaussianBlur
         in="composite1"
         stdDeviation="3"
         result="blur"
         id="feGaussianBlur84" />
      <feOffset
         dx="6"
         dy="6"
         result="offset"
         id="feOffset86" />
      <feComposite
         in="SourceGraphic"
         in2="offset"
         operator="over"
         result="composite2"
         id="feComposite88" />
    </filter>
    <linearGradient
       inkscape:collect="always"
       xlink:href="#b-3"
       id="linearGradient4154"
       x1="23.916378"
       y1="256"
       x2="488.08386"
       y2="256"
       gradientUnits="userSpaceOnUse" />
  </defs>
  <metadata
     id="metadata4066">
    <rdf:RDF>
      <cc:Work
         rdf:about="">
        <dc:format>image/svg+xml</dc:format>
        <dc:type
           rdf:resource="http://purl.org/dc/dcmitype/StillImage" />
        <dc:title></dc:title>
      </cc:Work>
    </rdf:RDF>
  </metadata>
  <g
     id="g4206">
    <path
       id="path3818-0-5"
       d="m 41,42.500422 a 17,5.5 0 0 1 -33.9999999,0 17,5.5 0 1 1 33.9999999,0 z"
       inkscape:connector-curvature="0"
       style="fill:url(#radialGradient3035)" />
    <path
       id="path2555-7-2"
       style="color:#000000;fill:url(#radialGradient3032);stroke-width:1.01941741"
       d="m 24,3.1018415 c -11.530631,0 -20.8980583,9.3674265 -20.8980583,20.8980575 0,11.530631 9.3674273,20.898057 20.8980583,20.898057 11.530631,0 20.898058,-9.367426 20.898058,-20.898057 C 44.898058,12.469268 35.530631,3.1018415 24,3.1018415 Z"
       inkscape:connector-curvature="0" />
    <path
       id="path2555-7-65"
       style="color:#000000;fill:url(#linearGradient4517);fill-opacity:1.0;stroke-width:1.01941741"
       d="m 24,3.1018415 c -11.530631,0 -20.8980583,9.3674265 -20.8980583,20.8980575 0,11.530631 9.3674273,20.898057 20.8980583,20.898057 11.530631,0 20.898058,-9.367426 20.898058,-20.898057 C 44.898058,12.469268 35.530631,3.1018415 24,3.1018415 Z"
       inkscape:connector-curvature="0" />
    <path
       id="path4176"
       style="color:#000000;opacity:1;fill:none;stroke:url(#linearGradient3881);stroke-width:2.03883481;stroke-linecap:round;stroke-linejoin:round;stroke-miterlimit:4;stroke-dasharray:none;stroke-opacity:0.98156684"
       d="m 43.776946,23.999899 c 0,10.979125 -8.899515,19.87864 -19.878641,19.87864 -10.979126,0 -19.8786408,-8.899515 -19.8786408,-19.87864 0,-10.979126 8.8995148,-19.87864 19.8786408,-19.87864 10.979126,0 19.878641,8.899514 19.878641,19.87864 z"
       inkscape:connector-curvature="0" />
    <path
       id="path2555-7-1-7"
       style="color:#000000;opacity:1;fill:none;fill-opacity:1;stroke:url(#linearGradient3873);stroke-width:0.2038835;stroke-linecap:round;stroke-linejoin:round;stroke-miterlimit:4;stroke-dasharray:none;stroke-opacity:1"
       d="m 24,3.1019435 c -11.530631,0 -20.8980583,9.3672225 -20.8980583,20.8980575 0,11.530835 9.3672233,20.898057 20.8980583,20.898057 11.530835,0 20.898058,-9.367222 20.898058,-20.898057 C 44.898058,12.469166 35.530631,3.1019435 24,3.1019435 Z"
       inkscape:connector-curvature="0" />
    <g
       id="g4317"
       transform="matrix(1.0002,0,0,1.0004,-1.0018,-0.0050486)"
       style="fill:none;stroke:#000000;stroke-linecap:round;stroke-linejoin:round" />
    <g
       id="g16"
       transform="matrix(0.04924722,0,0,0.04924722,11.291011,11.087627)"
       style="fill:url(#linearGradient4154);filter:url(#filter90);fill-opacity:1.0">
      <g
         id="g14"
         style="fill:url(#linearGradient4154);fill-opacity:1.0">
        <g
           id="g12"
           style="fill:url(#linearGradient4154);fill-opacity:1.0">
          <path
             d="m 248.916,139.362 c -102.736,0 -186.319,83.583 -186.319,186.319 0,102.736 83.581,186.319 186.319,186.319 102.735,0 186.318,-83.583 186.318,-186.319 0,-102.736 -83.583,-186.319 -186.318,-186.319 z m -13.887,37.061 c 0,-7.67 6.219,-13.887 13.887,-13.887 7.668,0 13.887,6.217 13.887,13.887 V 202.8 c 0,7.67 -6.219,13.887 -13.887,13.887 -7.668,0 -13.887,-6.217 -13.887,-13.887 z M 126.035,339.568 H 99.657 c -7.668,0 -13.887,-6.217 -13.887,-13.887 0,-7.67 6.219,-13.887 13.887,-13.887 h 26.377 c 7.668,0 13.887,6.217 13.887,13.887 0,7.67 -6.217,13.887 -13.886,13.887 z M 262.803,474.94 c 0,7.67 -6.219,13.887 -13.887,13.887 -7.668,0 -13.887,-6.217 -13.887,-13.887 v -26.378 c 0,-7.67 6.219,-13.887 13.887,-13.887 7.668,0 13.887,6.217 13.887,13.887 z M 248.916,371.712 c -25.381,0 -46.031,-20.65 -46.031,-46.031 0,-7.642 1.883,-14.849 5.192,-21.199 l -65.712,-65.713 c -5.423,-5.423 -5.423,-14.216 0,-19.639 5.426,-5.423 14.216,-5.423 19.64,0 l 65.712,65.713 c 6.351,-3.311 13.558,-5.194 21.2,-5.194 25.38,0 46.03,20.65 46.03,46.031 0,25.381 -20.651,46.032 -46.031,46.032 z m 163.145,-46.031 c 0,7.67 -6.217,13.887 -13.887,13.887 h -26.377 c -7.668,0 -13.887,-6.217 -13.887,-13.887 0,-7.67 6.219,-13.887 13.887,-13.887 h 26.377 c 7.668,0 13.887,6.217 13.887,13.887 z"
             id="path2"
             inkscape:connector-curvature="0"
             style="fill:url(#linearGradient4154);fill-opacity:1.0" />
          <path
             d="m 199.281,44.198 h 99.27 C 310.735,44.197 320.649,34.284 320.649,22.1 320.649,9.914 310.735,0 298.551,0 h -99.27 c -12.186,0 -22.1,9.914 -22.1,22.1 0,12.184 9.914,22.098 22.1,22.098 z"
             id="path4"
             inkscape:connector-curvature="0"
             style="fill:url(#linearGradient4154);fill-opacity:1.0" />
          <polygon
             points="287.995,117.634 287.995,115.175 287.995,71.971 287.995,58.084 209.837,58.084 209.837,71.971 209.837,115.173 209.837,117.634 "
             id="polygon6"
             style="fill:url(#linearGradient4154);fill-opacity:1.0" />
          <path
             d="m 443.877,125.075 -14.576,-14.887 c -7.48,-7.639 -19.735,-7.768 -27.374,-0.289 l -36.817,36.048 -5.199,5.09 41.662,42.55 8.672,-8.491 33.343,-32.647 c 7.639,-7.48 7.769,-19.735 0.289,-27.374 z"
             id="path8"
             inkscape:connector-curvature="0"
             style="fill:url(#linearGradient4154);fill-opacity:1.0" />
          <path
             d="m 248.916,307.424 c -10.068,0 -18.257,8.191 -18.257,18.257 0,10.067 8.189,18.257 18.257,18.257 10.065,0 18.256,-8.191 18.256,-18.257 0,-10.067 -8.191,-18.257 -18.256,-18.257 z"
             id="path10"
             inkscape:connector-curvature="0"
             style="fill:url(#linearGradient4154);fill-opacity:1.0" />
        </g>
      </g>
    </g>
  </g>
</svg>
