<?xml version="1.0" encoding="UTF-8" standalone="no"?>
<!-- Created with Inkscape (http://www.inkscape.org/) -->

<svg
   xmlns:dc="http://purl.org/dc/elements/1.1/"
   xmlns:cc="http://creativecommons.org/ns#"
   xmlns:rdf="http://www.w3.org/1999/02/22-rdf-syntax-ns#"
   xmlns:svg="http://www.w3.org/2000/svg"
   xmlns="http://www.w3.org/2000/svg"
   xmlns:xlink="http://www.w3.org/1999/xlink"
   xmlns:sodipodi="http://sodipodi.sourceforge.net/DTD/sodipodi-0.dtd"
   xmlns:inkscape="http://www.inkscape.org/namespaces/inkscape"
   id="svg4061"
   height="48"
   width="48"
   version="1.1"
   inkscape:version="0.92.2 (unknown)"
   sodipodi:docname="com.github.artemanufrij.imageburner.svg">
  <sodipodi:namedview
     pagecolor="#ffffff"
     bordercolor="#666666"
     borderopacity="1"
     objecttolerance="10"
     gridtolerance="10"
     guidetolerance="10"
     inkscape:pageopacity="0"
     inkscape:pageshadow="2"
     inkscape:window-width="1378"
     inkscape:window-height="894"
     id="namedview40"
     showgrid="false"
     inkscape:zoom="9.8333333"
     inkscape:cx="21.254237"
     inkscape:cy="12.160961"
     inkscape:window-x="751"
     inkscape:window-y="122"
     inkscape:window-maximized="0"
     inkscape:current-layer="g4206" />
  <defs
     id="defs4063">
    <linearGradient
       inkscape:collect="always"
       id="linearGradient4084">
      <stop
         style="stop-color:#ffffff;stop-opacity:1"
         offset="0"
         id="stop4080" />
      <stop
         style="stop-color:#e6e6e6;stop-opacity:0;"
         offset="1"
         id="stop4082" />
    </linearGradient>
    <linearGradient
       inkscape:collect="always"
       id="linearGradient3361">
      <stop
         style="stop-color:#0068e0;stop-opacity:1;"
         offset="0"
         id="stop3363" />
      <stop
         style="stop-color:#00acf4;stop-opacity:1"
         offset="1"
         id="stop3365" />
    </linearGradient>
    <linearGradient
       id="linearGradient3026"
       y2="40.495998"
       gradientUnits="userSpaceOnUse"
       x2="71.204002"
       gradientTransform="matrix(1.617,0,0,1.617,-92.707,-21.06)"
       y1="15.369"
       x1="71.204002"
       xlink:href="#linearGradient3361">
      <stop
         id="stop4808-4"
         stop-color="#fff"
         offset="0" />
      <stop
         id="stop4810-0"
         stop-color="#fff"
         stop-opacity=".23529"
         offset=".42448" />
      <stop
         id="stop4812-8"
         stop-color="#fff"
         stop-opacity=".15686"
         offset=".82090" />
      <stop
         id="stop4814-0"
         stop-color="#fff"
         stop-opacity=".39216"
         offset="1" />
    </linearGradient>
    <radialGradient
       id="radialGradient3029"
       fx="4.459"
       fy="8.5089"
       gradientUnits="userSpaceOnUse"
       cy="8.6258"
       cx="15.026"
       gradientTransform="matrix(-3.4973e-8 1.8855 -1.7764 -5.4723e-8 39.14 -7.9932)"
       r="20">
      <stop
         id="stop4170"
         stop-color="#c24251"
         offset="0" />
      <stop
         id="stop4172"
         stop-color="#c24251"
         offset=".26238" />
      <stop
         id="stop4174"
         stop-color="#a63643"
         offset=".66094" />
      <stop
         id="stop4176"
         stop-color="#a63643"
         offset="1" />
    </radialGradient>
    <radialGradient
       id="radialGradient3032"
       gradientUnits="userSpaceOnUse"
       cy="3.99"
       cx="23.896"
       gradientTransform="matrix(0 2.8885 -3.8128 0 39.213 -65.95)"
       r="20.397">
      <stop
         id="stop3244-9-33-7-0-9"
         stop-color="#fff"
         offset="0" />
      <stop
         id="stop3246-3-5-0-8-5"
         stop-color="#ddd"
         offset=".26238" />
      <stop
         id="stop3248-1-7-8-8-1"
         stop-color="#abacae"
         offset=".66094" />
      <stop
         id="stop3250-9-3-0-5-1"
         stop-color="#89898b"
         offset="1" />
    </radialGradient>
    <radialGradient
       id="radialGradient3035"
       gradientUnits="userSpaceOnUse"
       cy="186.17"
       cx="99.157"
       gradientTransform="matrix(.27083 0 0 .087623 -2.8551 25.187)"
       r="62.769">
      <stop
         id="stop3822-2-6-3"
         stop-color="#3d3d3d"
         offset="0" />
      <stop
         id="stop3864-8-7-7"
         stop-color="#686868"
         stop-opacity=".49804"
         offset=".5" />
      <stop
         id="stop3824-1-2-5"
         stop-color="#686868"
         stop-opacity="0"
         offset="1" />
    </radialGradient>
    <linearGradient
       id="linearGradient4433"
       y2="25.611"
       gradientUnits="userSpaceOnUse"
       x2="23.078"
       gradientTransform="matrix(1 0 0 1.0521 0 -.90547)"
       y1="13.035"
       x1="22.759">
      <stop
         id="stop6305-1-0-2"
         stop-color="#fff"
         offset="0" />
      <stop
         id="stop6307-5-0-6"
         stop-color="#fff"
         stop-opacity="0"
         offset="1" />
    </linearGradient>
    <linearGradient
       id="linearGradient4829">
      <stop
         style="stop-color:#f4fbfc;stop-opacity:1;"
         offset="0"
         id="stop4831" />
      <stop
         style="stop-color:#d6d6d6;stop-opacity:1;"
         offset="1"
         id="stop4833" />
    </linearGradient>
    <filter
       x="-0.5"
       y="-0.5"
       width="2"
       height="2"
       filterUnits="objectBoundingBox"
       id="a">
      <feOffset
         dy="2"
         in="SourceAlpha"
         result="shadowOffsetOuter1"
         id="feOffset5" />
      <feGaussianBlur
         stdDeviation="2"
         in="shadowOffsetOuter1"
         result="shadowBlurOuter1"
         id="feGaussianBlur7" />
      <feColorMatrix
         values="0 0 0 0 0 0 0 0 0 0 0 0 0 0 0 0 0 0 0.272503397 0"
         in="shadowBlurOuter1"
         id="feColorMatrix9" />
    </filter>
    <filter
       x="-0.5"
       y="-0.5"
       width="2"
       height="2"
       filterUnits="objectBoundingBox"
       id="a-3">
      <feOffset
         dy="2"
         in="SourceAlpha"
         result="shadowOffsetOuter1"
         id="feOffset5-6" />
      <feGaussianBlur
         stdDeviation="2"
         in="shadowOffsetOuter1"
         result="shadowBlurOuter1"
         id="feGaussianBlur7-7" />
      <feColorMatrix
         values="0 0 0 0 0 0 0 0 0 0 0 0 0 0 0 0 0 0 0.272503397 0"
         in="shadowBlurOuter1"
         id="feColorMatrix9-5" />
    </filter>
    <linearGradient
       inkscape:collect="always"
       xlink:href="#linearGradient4084"
       id="linearGradient4086"
       x1="25.016949"
       y1="-35.186443"
       x2="23.898306"
       y2="42.101696"
       gradientUnits="userSpaceOnUse" />
  </defs>
  <metadata
     id="metadata4066">
    <rdf:RDF>
      <cc:Work
         rdf:about="">
        <dc:format>image/svg+xml</dc:format>
        <dc:type
           rdf:resource="http://purl.org/dc/dcmitype/StillImage" />
        <dc:title />
      </cc:Work>
    </rdf:RDF>
  </metadata>
  <g
     id="g4206">
    <path
       id="path3818-0-5"
       d="m 41,41.5 a 17,5.5 0 0 1 -34,0 17,5.5 0 1 1 34,0 z"
       inkscape:connector-curvature="0"
       style="fill:url(#radialGradient3035)" />
    <path
       id="path2555-7-2"
       style="color:#000000;fill:url(#radialGradient3032)"
       d="M 24,3.5 C 12.689,3.5 3.5,12.689 3.5,24 3.5,35.311 12.689,44.5 24,44.5 35.311,44.5 44.5,35.311 44.5,24 44.5,12.689 35.311,3.5 24,3.5 Z"
       inkscape:connector-curvature="0" />
    <path
       id="path2555-7-65"
       style="color:#000000;fill:#aa0000;fill-opacity:1"
       d="M 24,3.5 C 12.689,3.5 3.5,12.689 3.5,24 3.5,35.311 12.689,44.5 24,44.5 35.311,44.5 44.5,35.311 44.5,24 44.5,12.689 35.311,3.5 24,3.5 Z"
       inkscape:connector-curvature="0" />
    <path
       id="path4176"
       style="color:#000000;opacity:1;fill:url(#linearGradient4086);stroke:#ffffff;stroke-width:2;stroke-linecap:round;stroke-linejoin:round;stroke-miterlimit:4;stroke-dasharray:none;stroke-opacity:0.98156684;fill-opacity:1"
       d="M 43.5,24 C 43.5,34.77 34.77,43.5 24,43.5 13.23,43.5 4.5,34.77 4.5,24 4.5,13.23 13.23,4.5 24,4.5 34.77,4.5 43.5,13.23 43.5,24 Z"
       inkscape:connector-curvature="0" />
    <path
       id="path2555-7-1-7"
       style="color:#000000;opacity:1;fill:none;fill-opacity:1;stroke:#ffffff;stroke-width:0.2;stroke-linecap:round;stroke-linejoin:round;stroke-miterlimit:4;stroke-dasharray:none;stroke-opacity:1"
       d="m 24,3.5001 c -11.311,0 -20.5,9.1888 -20.5,20.5 0,11.3112 9.1888,20.5 20.5,20.5 11.3112,0 20.5,-9.1888 20.5,-20.5 0,-11.3112 -9.189,-20.5 -20.5,-20.5 z"
       inkscape:connector-curvature="0" />
    <g
       id="g4317"
       transform="matrix(1.0002,0,0,1.0004,-1.0018,-0.0050486)"
       style="fill:none;stroke:#000000;stroke-linecap:round;stroke-linejoin:round" />
    <g
       id="g4"
       transform="matrix(0.03091782,-0.03088554,0.03088554,0.03091782,8.3754831,23.567474)"
       style="fill:#ffffff">
      <path
         d="M 501.085,119.97 383.577,2.462 C 380.32,-0.795 375.066,-0.82 371.784,2.386 l -90.221,87.98 -17.878,-17.878 c -1.57,-1.578 -3.702,-2.459 -5.934,-2.459 -2.233,0 -4.365,0.881 -5.934,2.459 L 21.568,302.729 c -24.123,24.123 -28.177,62.422 -9.644,91.069 l 12.045,18.617 c 17.181,26.565 39.382,48.758 65.972,65.972 l 23.158,14.982 c 10.92,7.067 23.401,10.517 35.815,10.517 17.148,0 34.178,-6.572 46.886,-19.288 L 429.868,250.547 c 3.273,-3.282 3.273,-8.595 0,-11.868 l -17.811,-17.811 89.029,-89.029 c 3.281,-3.283 3.281,-8.587 -0.001,-11.869 z m -189.918,201.786 -23.745,23.745 c -1.57,1.578 -3.702,2.459 -5.934,2.459 -2.224,0 -4.356,-0.881 -5.934,-2.459 l -5.934,-5.934 -17.635,17.635 c -1.612,1.603 -3.76,2.459 -5.943,2.459 -1.158,0 -2.342,-0.252 -3.45,-0.739 l -60.173,-27.128 -13.446,13.455 c -0.008,0 -0.008,0.008 -0.017,0.017 l -14.722,14.714 c 3.231,5.162 5.179,11.205 5.179,17.727 0,18.516 -15.058,33.574 -33.574,33.574 -18.516,0 -33.574,-15.058 -33.574,-33.574 0,-18.516 15.058,-33.574 33.574,-33.574 5.892,0 11.356,1.662 16.174,4.331 l 10.727,-10.727 -27.27,-59.98 c -1.452,-3.19 -0.772,-6.933 1.704,-9.409 l 19.59,-19.582 c -2.602,-3.953 -4.138,-8.67 -4.138,-13.748 0,-13.883 11.298,-25.18 25.18,-25.18 13.882,0 25.18,11.298 25.18,25.18 0,13.882 -11.298,25.18 -25.18,25.18 -2.619,0 -5.095,-0.512 -7.479,-1.259 l -17.165,17.156 22.259,48.967 89.869,-89.877 h -20.337 c -4.642,0 -8.393,-3.752 -8.393,-8.393 0,-4.633 3.752,-8.393 8.393,-8.393 h 41.967 c 4.642,0 8.393,3.76 8.393,8.393 v 33.406 c 0,4.642 -3.752,8.393 -8.393,8.393 -4.642,0 -8.393,-3.752 -8.393,-8.393 v -14.512 l -73.409,73.417 49.093,22.125 13.539,-13.539 -5.934,-5.934 c -3.282,-3.282 -3.282,-8.586 0,-11.868 l 23.737,-23.737 c 3.282,-3.282 8.595,-3.282 11.868,0 l 23.745,23.737 c 1.578,1.57 2.459,3.702 2.459,5.934 0,2.232 -0.88,4.357 -2.458,5.935 z m 65.284,-211.195 c -2.233,0 -4.365,-0.89 -5.934,-2.459 L 346.772,84.357 c -3.273,-3.282 -3.273,-8.595 0,-11.868 l 23.745,-23.737 c 3.273,-3.282 8.586,-3.282 11.868,0 l 23.745,23.737 c 1.57,1.57 2.459,3.702 2.459,5.934 0,2.224 -0.89,4.356 -2.459,5.934 l -23.745,23.745 c -1.578,1.569 -3.71,2.459 -5.934,2.459 z m 77.153,21.277 -23.737,23.737 c -1.637,1.637 -3.785,2.459 -5.934,2.459 -2.149,0 -4.297,-0.823 -5.934,-2.459 l -23.737,-23.737 c -3.282,-3.282 -3.282,-8.586 0,-11.868 l 23.737,-23.737 c 3.273,-3.282 8.586,-3.282 11.868,0 l 23.737,23.737 c 3.281,3.282 3.281,8.586 0,11.868 z"
         id="path2"
         inkscape:connector-curvature="0"
         style="fill:#ffffff" />
    </g>
  </g>
</svg>
