<?xml version="1.0" encoding="UTF-8" standalone="no"?>
<!-- Created with Inkscape (http://www.inkscape.org/) -->

<svg
   xmlns:dc="http://purl.org/dc/elements/1.1/"
   xmlns:cc="http://creativecommons.org/ns#"
   xmlns:rdf="http://www.w3.org/1999/02/22-rdf-syntax-ns#"
   xmlns:svg="http://www.w3.org/2000/svg"
   xmlns="http://www.w3.org/2000/svg"
   xmlns:xlink="http://www.w3.org/1999/xlink"
   xmlns:sodipodi="http://sodipodi.sourceforge.net/DTD/sodipodi-0.dtd"
   xmlns:inkscape="http://www.inkscape.org/namespaces/inkscape"
   id="svg4061"
   height="48"
   width="48"
   version="1.1"
   inkscape:version="0.92.2 (unknown)"
   sodipodi:docname="com.github.bcedu.shutdownscheduler.svg">
  <sodipodi:namedview
     pagecolor="#ffffff"
     bordercolor="#666666"
     borderopacity="1"
     objecttolerance="10"
     gridtolerance="10"
     guidetolerance="10"
     inkscape:pageopacity="0"
     inkscape:pageshadow="2"
     inkscape:window-width="1555"
     inkscape:window-height="1214"
     id="namedview46"
     showgrid="false"
     inkscape:zoom="4"
     inkscape:cx="61.875"
     inkscape:cy="-65.707765"
     inkscape:window-x="330"
     inkscape:window-y="153"
     inkscape:window-maximized="0"
     inkscape:current-layer="svg4061" />
  <defs
     id="defs4063">
    <linearGradient
       inkscape:collect="always"
       id="linearGradient4891">
      <stop
         style="stop-color:#cc0000;stop-opacity:1;"
         offset="0"
         id="stop4893" />
      <stop
         style="stop-color:#510404;stop-opacity:1"
         offset="1"
         id="stop4895" />
    </linearGradient>
    <linearGradient
       id="linearGradient3026"
       y2="40.496"
       gradientUnits="userSpaceOnUse"
       x2="71.204"
       gradientTransform="matrix(1.617 0 0 1.617 -92.707 -21.06)"
       y1="15.369"
       x1="71.204">
      <stop
         id="stop4808-4"
         stop-color="#fff"
         offset="0" />
      <stop
         id="stop4810-0"
         stop-color="#fff"
         stop-opacity=".23529"
         offset=".42448" />
      <stop
         id="stop4812-8"
         stop-color="#fff"
         stop-opacity=".15686"
         offset=".82090" />
      <stop
         id="stop4814-0"
         stop-color="#fff"
         stop-opacity=".39216"
         offset="1" />
    </linearGradient>
    <radialGradient
       id="radialGradient3029"
       fx="4.459"
       fy="8.5089"
       gradientUnits="userSpaceOnUse"
       cy="8.6258"
       cx="15.026"
       gradientTransform="matrix(-3.4973e-8 1.8855 -1.7764 -5.4723e-8 39.14 -7.9932)"
       r="20">
      <stop
         id="stop4170"
         stop-color="#ff9696"
         offset="0" />
      <stop
         id="stop4172"
         stop-color="#fd7676"
         offset="0.1668274" />
      <stop
         id="stop4174"
         stop-color="#f94040"
         offset="0.48762146" />
      <stop
         id="stop4176"
         stop-color="#e42020"
         offset="1"
         style="stop-color:#e77f5b;stop-opacity:1" />
    </radialGradient>
    <radialGradient
       id="radialGradient3032"
       gradientUnits="userSpaceOnUse"
       cy="3.99"
       cx="23.896"
       gradientTransform="matrix(0,2.9374578,-3.8774239,0,39.470849,-67.474681)"
       r="20.397">
      <stop
         id="stop3244-9-33-7-0-9"
         stop-color="#fff"
         offset="0" />
      <stop
         id="stop3246-3-5-0-8-5"
         stop-color="#ddd"
         offset=".26238" />
      <stop
         id="stop3248-1-7-8-8-1"
         stop-color="#abacae"
         offset=".66094" />
      <stop
         id="stop3250-9-3-0-5-1"
         stop-color="#89898b"
         offset="1" />
    </radialGradient>
    <radialGradient
       id="radialGradient3035"
       gradientUnits="userSpaceOnUse"
       cy="186.17"
       cx="99.157"
       gradientTransform="matrix(0.27083,0,0,0.087623,-2.8551,26.187)"
       r="62.769">
      <stop
         id="stop3822-2-6-3"
         stop-color="#3d3d3d"
         offset="0" />
      <stop
         id="stop3864-8-7-7"
         stop-color="#686868"
         stop-opacity=".49804"
         offset=".5" />
      <stop
         id="stop3824-1-2-5"
         stop-color="#686868"
         stop-opacity="0"
         offset="1" />
    </radialGradient>
    <linearGradient
       id="ButtonShadow"
       y2="7.0165"
       gradientUnits="userSpaceOnUse"
       x2="45.448"
       gradientTransform="scale(1.0059 .99417)"
       y1="92.54"
       x1="45.448">
      <stop
         id="stop3750"
         offset="0" />
      <stop
         id="stop3752"
         stop-opacity=".58824"
         offset="1" />
    </linearGradient>
    <filter
       id="filter3174"
       style="color-interpolation-filters:sRGB">
      <feGaussianBlur
         id="feGaussianBlur3176"
         stdDeviation="1.71" />
    </filter>
    <linearGradient
       id="linearGradient3185"
       y2="-167.53"
       xlink:href="#SVGID_14_"
       gradientUnits="userSpaceOnUse"
       x2="206.69"
       gradientTransform="matrix(.72832 0 0 -.72832 -295.83 -108.58)"
       y1="-167.53"
       x1="206.69" />
    <linearGradient
       id="SVGID_14_"
       y2="-167.53"
       gradientUnits="userSpaceOnUse"
       x2="206.69"
       gradientTransform="matrix(1 0 0 -1 -270.96 -122.07)"
       y1="-167.53"
       x1="206.69">
      <stop
         id="stop3506"
         stop-color="#7e9ec4"
         offset="0" />
      <stop
         id="stop3508"
         stop-color="#151d89"
         offset="1" />
    </linearGradient>
    <linearGradient
       id="linearGradient3182"
       y2="-167.53"
       xlink:href="#SVGID_14_"
       gradientUnits="userSpaceOnUse"
       x2="206.69"
       gradientTransform="matrix(.72832 0 0 -.72832 -375.83 -107.58)"
       y1="-167.53"
       x1="206.69" />
    <linearGradient
       id="linearGradient4829">
      <stop
         style="stop-color:#f4fbfc;stop-opacity:1;"
         offset="0"
         id="stop4831" />
      <stop
         style="stop-color:#d6d6d6;stop-opacity:1;"
         offset="1"
         id="stop4833" />
    </linearGradient>
    <linearGradient
       inkscape:collect="always"
       xlink:href="#linearGradient4891"
       id="linearGradient4897"
       x1="24.40678"
       y1="5.2881355"
       x2="24.20339"
       y2="42.305084"
       gradientUnits="userSpaceOnUse"
       gradientTransform="matrix(1.0169492,0,0,1.0169492,-0.40677968,-0.40688172)" />
    <linearGradient
       gradientTransform="translate(-128,-162)"
       gradientUnits="userSpaceOnUse"
       xlink:href="#linearGradient10457"
       id="linearGradient10810"
       x1="150"
       x2="150"
       y1="202"
       y2="178" />
    <linearGradient
       id="linearGradient10457">
      <stop
         id="stop10453"
         offset="0"
         style="stop-color:#000000;stop-opacity:1;" />
      <stop
         id="stop10455"
         offset="1"
         style="stop-color:#000000;stop-opacity:0;" />
    </linearGradient>
    <linearGradient
       gradientTransform="matrix(1.0169492,0,0,1.0169492,-130.57628,-166.1695)"
       gradientUnits="userSpaceOnUse"
       xlink:href="#linearGradient10457"
       id="linearGradient10830"
       x1="150"
       x2="150"
       y1="202"
       y2="178" />
    <linearGradient
       gradientTransform="matrix(1.0169492,0,0,1.0169492,-130.57628,-167.18645)"
       gradientUnits="userSpaceOnUse"
       xlink:href="#linearGradient10457"
       id="linearGradient10828"
       x1="155"
       x2="155"
       y1="203"
       y2="179" />
    <linearGradient
       id="linearGradient4215-4">
      <stop
         offset="0"
         style="stop-color:#dcdcdc;stop-opacity:1"
         id="stop4217-9" />
      <stop
         offset="1"
         style="stop-color:#f0f0f0;stop-opacity:1"
         id="stop4219-7" />
    </linearGradient>
    <linearGradient
       x1="71.204407"
       y1="6.2375584"
       x2="71.204407"
       y2="44.340794"
       id="linearGradient3089"
       xlink:href="#linearGradient4011-4"
       gradientUnits="userSpaceOnUse"
       gradientTransform="matrix(1.0777281,0,0,1.0976187,-72.92132,-24.077105)" />
    <linearGradient
       id="linearGradient4011-4">
      <stop
         id="stop4013-8"
         style="stop-color:#ffffff;stop-opacity:1"
         offset="0" />
      <stop
         id="stop4015-5"
         style="stop-color:#ffffff;stop-opacity:0.23529412"
         offset="0.507761" />
      <stop
         id="stop4017-6"
         style="stop-color:#ffffff;stop-opacity:0.15686275"
         offset="0.83456558" />
      <stop
         id="stop4019-1"
         style="stop-color:#ffffff;stop-opacity:0.39215687"
         offset="1" />
    </linearGradient>
  </defs>
  <metadata
     id="metadata4066">
    <rdf:RDF>
      <cc:Work
         rdf:about="">
        <dc:format>image/svg+xml</dc:format>
        <dc:type
           rdf:resource="http://purl.org/dc/dcmitype/StillImage" />
        <dc:title />
      </cc:Work>
    </rdf:RDF>
  </metadata>
  <path
     id="path3818-0-5"
     d="m 41,42.5 a 17,5.5000002 0 0 1 -34,0 17,5.5000002 0 1 1 34,0 z"
     style="fill:url(#radialGradient3035)"
     inkscape:connector-curvature="0" />
  <path
     id="path2555-7-2"
     style="color:#000000;fill:url(#radialGradient3032);stroke-width:1.01694918"
     d="m 24,3.1524403 c -11.502712,0 -20.8474576,9.3447457 -20.8474576,20.8474577 0,11.502712 9.3447456,20.847458 20.8474576,20.847458 11.502712,0 20.847458,-9.344746 20.847458,-20.847458 C 44.847458,12.497186 35.502712,3.1524403 24,3.1524403 Z"
     inkscape:connector-curvature="0" />
  <path
     id="path2555-7-65"
     style="color:#000000;fill:url(#linearGradient4897);fill-opacity:1;stroke-width:1.01694918"
     d="m 24,3.1524403 c -11.502712,0 -20.8474576,9.3447457 -20.8474576,20.8474577 0,11.502712 9.3447456,20.847458 20.8474576,20.847458 11.502712,0 20.847458,-9.344746 20.847458,-20.847458 C 44.847458,12.497186 35.502712,3.1524403 24,3.1524403 Z"
     inkscape:connector-curvature="0" />
  <path
     id="path4176"
     style="color:#000000;opacity:1;fill:#4d4d4d;fill-opacity:1;stroke:#ffffff;stroke-width:1.93220341;stroke-linecap:round;stroke-linejoin:round;stroke-miterlimit:4;stroke-dasharray:none;stroke-opacity:1"
     d="M 43.830508,23.999898 C 43.830508,34.952441 34.952542,43.830407 24,43.830407 13.047458,43.830407 4.1694915,34.952441 4.1694915,23.999898 4.1694915,13.047356 13.047458,4.1693894 24,4.1693894 c 10.952542,0 19.830508,8.8779666 19.830508,19.8305086 z"
     inkscape:connector-curvature="0" />
  <path
     id="path2555-7-1-7"
     style="color:#000000;opacity:1;fill:none;stroke:#ffffff;stroke-width:0.30508476;stroke-linecap:round;stroke-linejoin:round;stroke-miterlimit:4;stroke-dasharray:none;stroke-opacity:1"
     d="M 24,3.152542 C 12.497288,3.152542 3.1525424,12.497085 3.1525424,24 3.1525424,35.502915 12.497085,44.847458 24,44.847458 35.502915,44.847458 44.847458,35.502915 44.847458,24 44.847458,12.497085 35.502712,3.152542 24,3.152542 Z"
     inkscape:connector-curvature="0" />
  <g
     id="layer2"
     display="none"
     transform="translate(-226.12 -28.077)">
    <rect
       id="rect3745"
       opacity=".9"
       rx="6"
       ry="6"
       height="85"
       filter="url(#filter3174)"
       width="86"
       y="7"
       x="5"
       fill="url(#ButtonShadow)" />
  </g>
  <g
     transform="matrix(1.166691,0,0,1.166691,9.9513099,10.619539)"
     id="layer1"
     style="fill:#ffffff" />
  <path
     inkscape:connector-curvature="0"
     id="path2404"
     style="fill:#ffffff;fill-rule:evenodd;stroke-width:1.16669095"
     d="m 24.058872,12.457534 c -0.646347,0 -1.167858,0.520694 -1.167858,1.167391 v 8.754849 c 0,0.646347 0.521511,1.167858 1.167858,1.167858 0.646347,0 1.167858,-0.521511 1.167858,-1.167858 v -8.754849 c 0,-0.646696 -0.521511,-1.167391 -1.167858,-1.167391 z m -5.307628,3.100715 c -0.113169,0.04223 -0.211404,0.102552 -0.310106,0.164153 -1.17e-4,-1.16e-4 0,-0.0182 0,-0.0182 -0.632113,0.393525 -1.209975,0.862301 -1.732653,1.367945 -0.445326,0.430626 -0.844684,0.889135 -1.203792,1.386146 -0.147236,0.203587 -0.287589,0.407058 -0.419542,0.620096 -0.07829,0.124953 -0.145486,0.253989 -0.218871,0.383025 -0.08167,0.144903 -0.16252,0.289339 -0.237072,0.437742 -0.035,0.06919 -0.07595,0.130553 -0.109435,0.200671 -0.126353,0.265305 -0.242789,0.545778 -0.346624,0.820767 -0.0048,0.01272 -0.01342,0.02368 -0.0182,0.03652 -0.0021,0.0055 0.002,0.01272 0,0.0182 -0.07397,0.199037 -0.138837,0.398541 -0.200671,0.601896 -0.108386,0.356657 -0.204521,0.717048 -0.273589,1.075572 -0.01972,0.102669 -0.03803,0.207672 -0.05472,0.31034 -0.01563,0.09684 -0.02357,0.194837 -0.03652,0.291673 -0.02917,0.220504 -0.05763,0.434009 -0.07292,0.656847 -0.01773,0.257838 -0.01948,0.509844 -0.0182,0.766516 0.0012,0.245005 0.0182,0.48651 0.0364,0.729181 0.0091,0.12017 0.005,0.245006 0.01832,0.365175 0.02158,0.196004 0.05857,0.389675 0.09112,0.583345 0.0082,0.04784 0.0096,0.098 0.01832,0.145837 0.03955,0.217004 0.09299,0.424676 0.145837,0.63818 0.05017,0.203004 0.101502,0.401341 0.16427,0.602012 0.05145,0.16567 0.104535,0.330174 0.164153,0.492344 0.0067,0.01867 0.01143,0.03733 0.0182,0.05483 0.03897,0.105002 0.08563,0.207671 0.127636,0.31034 0.0623,0.15167 0.131369,0.30684 0.20067,0.456176 0.08622,0.185504 0.177687,0.368675 0.273589,0.547178 0.106403,0.198338 0.209305,0.392008 0.328307,0.583346 0.01598,0.02567 0.0385,0.04783 0.05472,0.0735 0.12717,0.199504 0.260522,0.392008 0.401225,0.583346 0.146537,0.199504 0.29704,0.396675 0.45606,0.583345 0.03033,0.03617 0.0602,0.07467 0.09112,0.109669 0.0224,0.02567 0.0504,0.04784 0.07304,0.07234 0.135336,0.152837 0.276156,0.295173 0.419425,0.438676 0.143153,0.143503 0.285723,0.283506 0.437743,0.418842 0.06125,0.05483 0.120052,0.112002 0.18247,0.164503 0.199038,0.169171 0.406942,0.337174 0.620096,0.492344 0.06697,0.049 0.132537,0.09917 0.200671,0.145836 0.201254,0.138837 0.407292,0.275339 0.620097,0.401342 0.0896,0.0525 0.18247,0.09567 0.273589,0.145836 0.213971,0.117836 0.432025,0.224005 0.656613,0.327841 0.149103,0.07 0.303807,0.138836 0.455943,0.200671 0.102786,0.042 0.205338,0.08867 0.310107,0.128335 0.0182,0.007 0.0364,0.01167 0.05472,0.01867 0.185853,0.06767 0.375791,0.123669 0.565378,0.182003 0.195187,0.0595 0.387575,0.11667 0.583695,0.164505 0.318974,0.077 0.628147,0.154003 0.948987,0.200671 0.07117,0.0093 0.145836,0.0082 0.218171,0.0175 0.278839,0.035 0.561179,0.06184 0.838851,0.0735 0.301007,0.01283 0.596179,0.01283 0.893686,0 0.278839,-0.01167 0.560011,-0.0385 0.83885,-0.0735 0.06067,-0.007 0.122503,-0.0093 0.183171,-0.0175 0.04783,-0.007 0.098,-0.01167 0.145836,-0.01867 0.284673,-0.04434 0.574012,-0.114336 0.857518,-0.182003 0.194838,-0.04783 0.388508,-0.10617 0.583346,-0.164505 0.185504,-0.056 0.365174,-0.116669 0.547178,-0.182003 0.17967,-0.0665 0.353507,-0.144669 0.528511,-0.219338 0.091,-0.0385 0.184337,-0.06883 0.274172,-0.109668 0.273006,-0.126003 0.544845,-0.25434 0.802684,-0.401342 0.02567,-0.014 0.04667,-0.03967 0.07233,-0.05483 0.227505,-0.13067 0.443343,-0.273006 0.656847,-0.418843 0.112003,-0.077 0.219338,-0.156336 0.327841,-0.238005 0.0525,-0.0385 0.113169,-0.06883 0.164503,-0.108502 0.200671,-0.156336 0.395508,-0.32434 0.583346,-0.492343 0.06767,-0.06067 0.135336,-0.121336 0.20067,-0.183171 0.05017,-0.04667 0.09684,-0.09683 0.145837,-0.145836 0.159836,-0.156337 0.32434,-0.30684 0.474843,-0.473677 0.09217,-0.103835 0.16567,-0.221671 0.255505,-0.329007 0.131836,-0.159836 0.259006,-0.323173 0.382675,-0.492343 0.02217,-0.03033 0.05017,-0.0595 0.0735,-0.091 0.03033,-0.04317 0.06067,-0.084 0.091,-0.127169 0.138837,-0.201838 0.27534,-0.408342 0.401342,-0.62068 0.0175,-0.03033 0.03617,-0.06067 0.05484,-0.091 0.113169,-0.197171 0.226338,-0.397842 0.32784,-0.602013 0.01167,-0.02333 0.0245,-0.049 0.03617,-0.0735 0.145837,-0.29984 0.267172,-0.61718 0.382675,-0.929853 0.098,-0.262505 0.178504,-0.532011 0.255505,-0.802683 0.0093,-0.0315 0.028,-0.0595 0.03733,-0.091 0.0035,-0.01283 0.014,-0.02333 0.0175,-0.03617 0.04783,-0.17617 0.08984,-0.350007 0.128336,-0.528511 0.04433,-0.207671 0.077,-0.413008 0.108502,-0.620679 0.0058,-0.03617 0.014,-0.0735 0.01867,-0.109669 0.0245,-0.168004 0.03967,-0.340674 0.05483,-0.511011 0.01517,-0.16917 0.02917,-0.34184 0.03617,-0.509844 0.0012,-0.03033 -0.0012,-0.06067 0,-0.091 0.0093,-0.250838 0.0093,-0.50051 0,-0.747849 -0.0023,-0.06183 0.0035,-0.122502 0,-0.18317 -0.0012,-0.03617 -0.01517,-0.07234 -0.0175,-0.109669 -0.01517,-0.234505 -0.042,-0.459676 -0.0735,-0.693014 -0.0105,-0.07934 -0.0058,-0.157504 -0.01867,-0.236839 -0.05017,-0.325507 -0.116669,-0.660347 -0.199504,-0.984687 -0.0058,-0.0189 -0.014,-0.03593 -0.01867,-0.05472 -0.06883,-0.263555 -0.147003,-0.522794 -0.236839,-0.784366 -0.0023,-0.0053 0.0012,-0.01295 0,-0.0182 -0.02567,-0.07362 -0.0455,-0.145486 -0.0735,-0.218871 -0.06766,-0.181664 -0.159832,-0.353518 -0.236833,-0.528988 -0.0105,-0.0224 -0.0082,-0.05052 -0.01867,-0.07292 -0.0058,-0.0126 -0.01283,-0.02392 -0.0175,-0.03652 -0.0735,-0.162288 -0.157501,-0.317458 -0.238003,-0.474261 -0.103835,-0.204054 -0.211171,-0.404725 -0.32784,-0.601896 -0.15517,-0.259822 -0.316173,-0.519761 -0.492344,-0.766049 -0.0047,-0.0069 -0.01283,-0.01132 -0.01867,-0.0182 -0.0082,-0.01073 -0.0105,-0.02567 -0.0175,-0.03652 -0.172667,-0.236722 -0.373338,-0.452444 -0.565842,-0.674815 -0.203004,-0.234505 -0.414175,-0.458043 -0.63818,-0.674814 -0.215838,-0.209071 -0.439843,-0.410909 -0.675514,-0.601896 -0.333674,-0.270905 -0.668514,-0.535278 -1.039522,-0.766049 0,0 -0.0175,0.01808 -0.0175,0.0182 -0.0945,-0.0588 -0.185504,-0.123086 -0.29284,-0.164154 -0.0035,-0.0026 -0.01283,0.0026 -0.0175,0 -0.05017,-0.0287 -0.09567,-0.06324 -0.145836,-0.09124 l -0.01867,0.05472 c -0.858685,-0.224121 -1.762871,0.227039 -2.079044,1.076156 -0.283506,0.759749 0.02333,1.577367 0.656847,2.024559 l -0.01867,0.03652 c 0.124836,0.07537 0.245005,0.154003 0.365174,0.237072 0.07584,0.05332 0.14467,0.108152 0.218172,0.164153 0.04783,0.0357 0.09917,0.07257 0.145836,0.109436 0.124836,0.09987 0.248505,0.202654 0.365174,0.310106 0.03267,0.02905 0.0595,0.06149 0.091,0.09112 0.110836,0.105936 0.225172,0.197755 0.329007,0.310107 0.0595,0.06405 0.106169,0.134169 0.163337,0.200671 0.03383,0.0385 0.07817,0.07024 0.109669,0.109435 0.102669,0.123553 0.198337,0.269739 0.291673,0.401225 0.0058,0.0069 0.014,0.01132 0.01867,0.0182 0.112002,0.159254 0.210004,0.322124 0.310339,0.492461 0.06534,0.112935 0.140003,0.228904 0.200671,0.346623 0.0525,0.103836 0.098,0.203705 0.145837,0.30999 0.021,0.04795 0.03383,0.0973 0.05483,0.145953 0.06534,0.155987 0.127169,0.313724 0.182004,0.47426 0.05483,0.161004 0.102669,0.32784 0.145836,0.492344 0.0595,0.228671 0.109669,0.445676 0.145837,0.675514 0.03617,0.229838 0.06067,0.463176 0.0735,0.693014 0.01167,0.228672 0.0093,0.46551 0,0.693015 -0.0058,0.117836 -0.007,0.227505 -0.01867,0.346507 -0.0105,0.109669 -0.021,0.219338 -0.03617,0.32784 -0.0023,0.01167 0.0012,0.0245 0,0.03617 -0.02917,0.199504 -0.08167,0.388508 -0.128336,0.584512 -0.01983,0.08284 -0.0315,0.171503 -0.05483,0.254339 -0.01633,0.06067 -0.03617,0.122502 -0.05367,0.18317 -0.03617,0.117836 -0.06767,0.229838 -0.109668,0.346507 -0.02683,0.07467 -0.06184,0.14467 -0.091,0.218171 -0.063,0.15517 -0.129503,0.309174 -0.200671,0.456177 -0.01633,0.0315 -0.03967,0.06067 -0.05484,0.091 -0.09333,0.184337 -0.185504,0.374507 -0.291672,0.547178 -0.08167,0.130669 -0.166837,0.257838 -0.255506,0.383841 -0.02333,0.0315 -0.05017,0.0595 -0.0735,0.091 -0.07467,0.100335 -0.157504,0.194837 -0.236839,0.291673 -0.06533,0.07817 -0.133002,0.16217 -0.20067,0.236838 -0.077,0.08634 -0.15517,0.173837 -0.236839,0.255505 -0.08167,0.08167 -0.170337,0.159837 -0.255505,0.236838 -0.084,0.077 -0.166837,0.147004 -0.255505,0.219338 -0.12017,0.09917 -0.238005,0.201838 -0.365175,0.291673 -0.04667,0.03383 -0.098,0.0595 -0.145836,0.091 -0.13767,0.0945 -0.274172,0.190171 -0.418842,0.274172 -0.03967,0.02217 -0.0875,0.03267 -0.128336,0.05484 -0.156337,0.08633 -0.311507,0.180837 -0.473677,0.255505 -0.07233,0.03267 -0.145836,0.06067 -0.219338,0.091 -0.120169,0.05017 -0.241505,0.084 -0.364007,0.127169 -0.01283,0.0047 -0.0245,0.014 -0.03733,0.01867 -0.175004,0.06067 -0.348841,0.11667 -0.528511,0.163337 -0.198338,0.0525 -0.385008,0.0945 -0.583346,0.128336 -0.042,0.007 -0.08634,0.01167 -0.128336,0.01867 -0.114336,0.01633 -0.231005,0.0245 -0.346507,0.03617 -0.33484,0.03383 -0.662681,0.05133 -1.003354,0.03617 -0.0245,-0.0012 -0.04784,0.0012 -0.07234,0 -0.07817,-0.0047 -0.15867,-0.01167 -0.236839,-0.01867 -0.154003,-0.01283 -0.304506,-0.03033 -0.456176,-0.05367 -0.18667,-0.02917 -0.379174,-0.06533 -0.565845,-0.109669 -0.042,-0.0105 -0.08517,-0.02567 -0.127169,-0.03733 -0.04317,-0.0105 -0.08517,-0.02333 -0.128336,-0.03617 -0.183171,-0.05133 -0.368675,-0.115503 -0.546945,-0.182004 -0.01295,-0.0047 -0.02357,-0.014 -0.0364,-0.01867 -0.199854,-0.07583 -0.395041,-0.14467 -0.583695,-0.236838 -0.03185,-0.01517 -0.05973,-0.0385 -0.09123,-0.05484 -0.183988,-0.09217 -0.374508,-0.184337 -0.547179,-0.291673 -0.01412,-0.0093 -0.0224,-0.028 -0.0364,-0.03617 -0.189454,-0.120164 -0.372274,-0.2485 -0.547161,-0.383836 -0.110019,-0.08517 -0.224355,-0.163337 -0.328307,-0.254339 -0.04188,-0.03733 -0.08668,-0.07233 -0.127753,-0.109669 -0.07572,-0.07 -0.146536,-0.147003 -0.218871,-0.219338 -0.07245,-0.07233 -0.149337,-0.143503 -0.218871,-0.218171 -0.13137,-0.14467 -0.246289,-0.30334 -0.364708,-0.456176 -0.135453,-0.175004 -0.263672,-0.358174 -0.383025,-0.547178 -0.0075,-0.01167 -0.01097,-0.0245 -0.01832,-0.03733 -0.120052,-0.192504 -0.226104,-0.394342 -0.328307,-0.600846 -0.02963,-0.06067 -0.06312,-0.121336 -0.09112,-0.183171 -0.04667,-0.101502 -0.0861,-0.205337 -0.127752,-0.31034 -0.0224,-0.05483 -0.0518,-0.107335 -0.07292,-0.163336 -0.0089,-0.0245 -0.0097,-0.049 -0.0182,-0.0735 -0.02392,-0.0665 -0.0511,-0.133003 -0.07304,-0.200671 -0.04667,-0.143503 -0.108503,-0.291672 -0.145837,-0.437509 -0.04002,-0.156336 -0.06207,-0.315006 -0.09124,-0.473676 -0.02765,-0.15167 -0.05553,-0.305673 -0.07292,-0.456177 -0.01353,-0.116669 -0.01073,-0.231004 -0.01832,-0.346507 -0.0082,-0.127169 -0.01692,-0.255505 -0.0182,-0.383841 -0.0016,-0.197171 0.0031,-0.404842 0.0182,-0.600846 0.01517,-0.197171 0.04153,-0.390841 0.07303,-0.584512 0.03535,-0.217005 0.0721,-0.425842 0.127636,-0.63818 0.0094,-0.03617 0.02637,-0.0735 0.03652,-0.109669 0.04608,-0.16567 0.106053,-0.330173 0.164154,-0.49211 0.01027,-0.02882 0.0075,-0.06242 0.0182,-0.09124 0.02835,-0.07618 0.06043,-0.144203 0.09123,-0.218871 0.028,-0.06802 0.06102,-0.133593 0.09112,-0.200678 0.06814,-0.150969 0.141403,-0.293889 0.218871,-0.437742 0.06907,-0.128336 0.141986,-0.259005 0.218871,-0.383025 0.06639,-0.106985 0.14677,-0.206504 0.218872,-0.309989 0.06778,-0.09625 0.128569,-0.199855 0.20067,-0.291907 0.05075,-0.06545 0.09275,-0.136852 0.145953,-0.200554 0.02765,-0.03278 0.06289,-0.05903 0.09112,-0.09124 0.09882,-0.112819 0.204754,-0.222721 0.310107,-0.328307 0.135452,-0.135686 0.274055,-0.259472 0.419542,-0.383024 0.09229,-0.07852 0.177453,-0.163571 0.273589,-0.237072 0.0238,-0.01843 0.04877,-0.03663 0.07292,-0.05472 0.108969,-0.0812 0.215021,-0.16252 0.328307,-0.237188 0.0294,-0.01948 0.06137,-0.03547 0.09123,-0.05472 0.04865,-0.03092 0.09649,-0.06125 0.145836,-0.09112 0.738399,-0.609362 0.728482,-1.188624 0.656614,-2.061076 -0.315357,-0.846201 -1.223509,-1.29491 -2.079277,-1.076156 -0.02415,-0.102552 -0.120986,0.02427 -0.182354,0.03652 z" />
</svg>
