<?xml version="1.0" encoding="UTF-8" standalone="no"?>
<!-- Created with Inkscape (http://www.inkscape.org/) -->

<svg
   xmlns:dc="http://purl.org/dc/elements/1.1/"
   xmlns:cc="http://creativecommons.org/ns#"
   xmlns:rdf="http://www.w3.org/1999/02/22-rdf-syntax-ns#"
   xmlns:svg="http://www.w3.org/2000/svg"
   xmlns="http://www.w3.org/2000/svg"
   xmlns:xlink="http://www.w3.org/1999/xlink"
   xmlns:sodipodi="http://sodipodi.sourceforge.net/DTD/sodipodi-0.dtd"
   xmlns:inkscape="http://www.inkscape.org/namespaces/inkscape"
   id="svg4061"
   height="48"
   width="48"
   version="1.1"
   inkscape:version="0.92.2 (unknown)"
   sodipodi:docname="com.github.artemanufrij.hashit.svg">
  <sodipodi:namedview
     pagecolor="#ffffff"
     bordercolor="#666666"
     borderopacity="1"
     objecttolerance="10"
     gridtolerance="10"
     guidetolerance="10"
     inkscape:pageopacity="0"
     inkscape:pageshadow="2"
     inkscape:window-width="1378"
     inkscape:window-height="894"
     id="namedview40"
     showgrid="false"
     inkscape:zoom="9.8333333"
     inkscape:cx="3.2542372"
     inkscape:cy="14.166241"
     inkscape:window-x="416"
     inkscape:window-y="120"
     inkscape:window-maximized="0"
     inkscape:current-layer="g4206" />
  <defs
     id="defs4063">
    <linearGradient
       inkscape:collect="always"
       id="linearGradient3361">
      <stop
         style="stop-color:#0068e0;stop-opacity:1;"
         offset="0"
         id="stop3363" />
      <stop
         style="stop-color:#00acf4;stop-opacity:1"
         offset="1"
         id="stop3365" />
    </linearGradient>
    <linearGradient
       id="linearGradient3026"
       y2="40.495998"
       gradientUnits="userSpaceOnUse"
       x2="71.204002"
       gradientTransform="matrix(1.617,0,0,1.617,-92.707,-21.06)"
       y1="15.369"
       x1="71.204002"
       xlink:href="#linearGradient3361">
      <stop
         id="stop4808-4"
         stop-color="#fff"
         offset="0" />
      <stop
         id="stop4810-0"
         stop-color="#fff"
         stop-opacity=".23529"
         offset=".42448" />
      <stop
         id="stop4812-8"
         stop-color="#fff"
         stop-opacity=".15686"
         offset=".82090" />
      <stop
         id="stop4814-0"
         stop-color="#fff"
         stop-opacity=".39216"
         offset="1" />
    </linearGradient>
    <radialGradient
       id="radialGradient3029"
       fx="4.459"
       fy="8.5089"
       gradientUnits="userSpaceOnUse"
       cy="8.6258"
       cx="15.026"
       gradientTransform="matrix(-3.4973e-8 1.8855 -1.7764 -5.4723e-8 39.14 -7.9932)"
       r="20">
      <stop
         id="stop4170"
         stop-color="#c24251"
         offset="0" />
      <stop
         id="stop4172"
         stop-color="#c24251"
         offset=".26238" />
      <stop
         id="stop4174"
         stop-color="#a63643"
         offset=".66094" />
      <stop
         id="stop4176"
         stop-color="#a63643"
         offset="1" />
    </radialGradient>
    <radialGradient
       id="radialGradient3032"
       gradientUnits="userSpaceOnUse"
       cy="3.99"
       cx="23.896"
       gradientTransform="matrix(0,2.9445873,-3.8868351,0,39.508399,-67.696702)"
       r="20.397">
      <stop
         id="stop3244-9-33-7-0-9"
         stop-color="#fff"
         offset="0" />
      <stop
         id="stop3246-3-5-0-8-5"
         stop-color="#ddd"
         offset=".26238" />
      <stop
         id="stop3248-1-7-8-8-1"
         stop-color="#abacae"
         offset=".66094" />
      <stop
         id="stop3250-9-3-0-5-1"
         stop-color="#89898b"
         offset="1" />
    </radialGradient>
    <radialGradient
       id="radialGradient3035"
       gradientUnits="userSpaceOnUse"
       cy="186.17"
       cx="99.157"
       gradientTransform="matrix(0.27083,0,0,0.087623,-2.8550999,26.187597)"
       r="62.769">
      <stop
         id="stop3822-2-6-3"
         stop-color="#3d3d3d"
         offset="0" />
      <stop
         id="stop3864-8-7-7"
         stop-color="#686868"
         stop-opacity=".49804"
         offset=".5" />
      <stop
         id="stop3824-1-2-5"
         stop-color="#686868"
         stop-opacity="0"
         offset="1" />
    </radialGradient>
    <linearGradient
       id="linearGradient4433"
       y2="25.611"
       gradientUnits="userSpaceOnUse"
       x2="23.078"
       gradientTransform="matrix(1 0 0 1.0521 0 -.90547)"
       y1="13.035"
       x1="22.759">
      <stop
         id="stop6305-1-0-2"
         stop-color="#fff"
         offset="0" />
      <stop
         id="stop6307-5-0-6"
         stop-color="#fff"
         stop-opacity="0"
         offset="1" />
    </linearGradient>
    <linearGradient
       id="linearGradient4829">
      <stop
         style="stop-color:#f4fbfc;stop-opacity:1;"
         offset="0"
         id="stop4831" />
      <stop
         style="stop-color:#d6d6d6;stop-opacity:1;"
         offset="1"
         id="stop4833" />
    </linearGradient>
  </defs>
  <metadata
     id="metadata4066">
    <rdf:RDF>
      <cc:Work
         rdf:about="">
        <dc:format>image/svg+xml</dc:format>
        <dc:type
           rdf:resource="http://purl.org/dc/dcmitype/StillImage" />
        <dc:title />
      </cc:Work>
    </rdf:RDF>
  </metadata>
  <g
     id="g4206">
    <path
       id="path3818-0-5"
       d="m 41,42.500597 a 17,5.5 0 0 1 -33.9999998,0 17,5.5 0 1 1 33.9999998,0 z"
       style="fill:url(#radialGradient3035)"
       inkscape:connector-curvature="0" />
    <path
       id="path2555-7-2"
       style="color:#000000;fill:url(#radialGradient3032);stroke-width:1.01941741"
       d="m 24,3.101841 c -11.530631,0 -20.8980582,9.367427 -20.8980582,20.898058 0,11.530631 9.3674272,20.898057 20.8980582,20.898057 11.530631,0 20.898058,-9.367426 20.898058,-20.898057 C 44.898058,12.469268 35.530631,3.101841 24,3.101841 Z"
       inkscape:connector-curvature="0" />
    <path
       id="path2555-7-65"
       style="color:#000000;fill:#aa0000;fill-opacity:1;stroke-width:1.01941741"
       d="m 24,3.101841 c -11.530631,0 -20.8980582,9.367427 -20.8980582,20.898058 0,11.530631 9.3674272,20.898057 20.8980582,20.898057 11.530631,0 20.898058,-9.367426 20.898058,-20.898057 C 44.898058,12.469268 35.530631,3.101841 24,3.101841 Z"
       inkscape:connector-curvature="0" />
    <path
       id="path4176"
       style="color:#000000;opacity:1;fill:none;stroke:#ffffff;stroke-width:2.03883481;stroke-linecap:round;stroke-linejoin:round;stroke-miterlimit:4;stroke-dasharray:none;stroke-opacity:0.98156684"
       d="m 43.878641,23.999899 c 0,10.979125 -8.899515,19.87864 -19.878641,19.87864 -10.979126,0 -19.8786408,-8.899515 -19.8786408,-19.87864 C 4.1213592,13.020773 13.020874,4.1212584 24,4.1212584 c 10.979126,0 19.878641,8.8995146 19.878641,19.8786406 z"
       inkscape:connector-curvature="0" />
    <path
       id="path2555-7-1-7"
       style="color:#000000;opacity:1;fill:none;fill-opacity:1;stroke:#ffffff;stroke-width:0.2038835;stroke-linecap:round;stroke-linejoin:round;stroke-miterlimit:4;stroke-dasharray:none;stroke-opacity:1"
       d="m 24,3.1019429 c -11.530631,0 -20.8980582,9.3672231 -20.8980582,20.8980581 0,11.530835 9.3672232,20.898057 20.8980582,20.898057 11.530835,0 20.898058,-9.367222 20.898058,-20.898057 C 44.898058,12.469166 35.530631,3.1019429 24,3.1019429 Z"
       inkscape:connector-curvature="0" />
    <g
       id="g4317"
       stroke-linejoin="round"
       transform="matrix(1.0002 0 0 1.0004 -1.0018 -.0050486)"
       stroke="#000"
       stroke-linecap="round"
       fill="none" />
    <g
       transform="matrix(0.64788723,0,0,0.70096581,2.8529307,1.9357089)"
       id="g4207"
       style="font-style:normal;font-weight:normal;font-size:40px;line-height:125%;font-family:sans-serif;letter-spacing:0px;word-spacing:0px;opacity:0.5;fill:#000000;fill-opacity:1;stroke:none;stroke-width:1.44636846px;stroke-linecap:butt;stroke-linejoin:miter;stroke-opacity:1">
      <path
         inkscape:connector-curvature="0"
         id="path4209"
         d="m 28.416016,29.050781 -1.523438,7.207031 h 5.078125 v 2.109375 h -5.527344 l -1.71875,7.96875 h -2.148437 l 1.679687,-7.96875 h -7.089843 l -1.640625,7.96875 h -2.148438 l 1.640625,-7.96875 h -3.925781 v -2.109375 h 4.394531 l 1.523438,-7.207031 h -4.921875 v -2.109375 h 5.351562 l 1.738281,-7.96875 h 2.148438 l -1.71875,7.96875 h 7.089844 l 1.71875,-7.96875 h 2.148437 l -1.71875,7.96875 h 4.121094 v 2.109375 z m -9.199219,0 -1.5625,7.207031 h 7.070312 l 1.523438,-7.207031 z"
         style="fill:#000000;fill-opacity:1;stroke-width:1.44636846px" />
      <path
         inkscape:connector-curvature="0"
         id="path4211"
         d="m 35.857422,20.710937 v -3.359375 h 3.515625 v 3.359375 z m 0,25.625 V 25.203125 h 3.515625 v 21.132812 z"
         style="fill:#000000;fill-opacity:1;stroke-width:1.44636846px" />
      <path
         inkscape:connector-curvature="0"
         id="path4213"
         d="m 52.908203,46.179687 q -1.738281,0.46875 -3.554687,0.46875 -4.21875,0 -4.21875,-4.785156 V 27.761719 h -2.441407 v -2.558594 h 2.578125 l 1.035157,-4.726563 h 2.34375 v 4.726563 h 3.90625 v 2.558594 h -3.90625 v 13.339843 q 0,1.523438 0.488281,2.148438 0.507812,0.605469 1.738281,0.605469 0.703125,0 2.03125,-0.273438 z"
         style="fill:#000000;fill-opacity:1;stroke-width:1.44636846px" />
    </g>
    <g
       style="font-style:normal;font-weight:normal;font-size:40px;line-height:125%;font-family:sans-serif;letter-spacing:0px;word-spacing:0px;fill:#ffffff;fill-opacity:1;stroke:none;stroke-width:1.44636846px;stroke-linecap:butt;stroke-linejoin:miter;stroke-opacity:1"
       id="text4196"
       transform="matrix(0.64788723,0,0,0.70096581,2.8529307,1.2022765)">
      <path
         d="m 28.416016,29.050781 -1.523438,7.207031 h 5.078125 v 2.109375 h -5.527344 l -1.71875,7.96875 h -2.148437 l 1.679687,-7.96875 h -7.089843 l -1.640625,7.96875 h -2.148438 l 1.640625,-7.96875 h -3.925781 v -2.109375 h 4.394531 l 1.523438,-7.207031 h -4.921875 v -2.109375 h 5.351562 l 1.738281,-7.96875 h 2.148438 l -1.71875,7.96875 h 7.089844 l 1.71875,-7.96875 h 2.148437 l -1.71875,7.96875 h 4.121094 v 2.109375 z m -9.199219,0 -1.5625,7.207031 h 7.070312 l 1.523438,-7.207031 z"
         id="path4201"
         inkscape:connector-curvature="0"
         style="stroke-width:1.44636846px" />
      <path
         d="m 35.857422,20.710937 v -3.359375 h 3.515625 v 3.359375 z m 0,25.625 V 25.203125 h 3.515625 v 21.132812 z"
         id="path4203"
         inkscape:connector-curvature="0"
         style="stroke-width:1.44636846px" />
      <path
         d="m 52.908203,46.179687 q -1.738281,0.46875 -3.554687,0.46875 -4.21875,0 -4.21875,-4.785156 V 27.761719 h -2.441407 v -2.558594 h 2.578125 l 1.035157,-4.726563 h 2.34375 v 4.726563 h 3.90625 v 2.558594 h -3.90625 v 13.339843 q 0,1.523438 0.488281,2.148438 0.507812,0.605469 1.738281,0.605469 0.703125,0 2.03125,-0.273438 z"
         id="path4205"
         inkscape:connector-curvature="0"
         style="stroke-width:1.44636846px" />
    </g>
  </g>
</svg>
