<?xml version="1.0" encoding="UTF-8" standalone="no"?>
<!-- Created with Inkscape (http://www.inkscape.org/) -->

<svg
   xmlns:dc="http://purl.org/dc/elements/1.1/"
   xmlns:cc="http://creativecommons.org/ns#"
   xmlns:rdf="http://www.w3.org/1999/02/22-rdf-syntax-ns#"
   xmlns:svg="http://www.w3.org/2000/svg"
   xmlns="http://www.w3.org/2000/svg"
   xmlns:xlink="http://www.w3.org/1999/xlink"
   xmlns:sodipodi="http://sodipodi.sourceforge.net/DTD/sodipodi-0.dtd"
   xmlns:inkscape="http://www.inkscape.org/namespaces/inkscape"
   id="svg4061"
   height="48"
   width="48"
   version="1.1"
   inkscape:version="0.92.2 (unknown)"
   sodipodi:docname="com.github.geigi.cozy.svg">
  <sodipodi:namedview
     pagecolor="#ffffff"
     bordercolor="#666666"
     borderopacity="1"
     objecttolerance="10"
     gridtolerance="10"
     guidetolerance="10"
     inkscape:pageopacity="0"
     inkscape:pageshadow="2"
     inkscape:window-width="1555"
     inkscape:window-height="1214"
     id="namedview46"
     showgrid="false"
     inkscape:zoom="4.9166667"
     inkscape:cx="-6.1825254"
     inkscape:cy="27.254239"
     inkscape:window-x="397"
     inkscape:window-y="134"
     inkscape:window-maximized="0"
     inkscape:current-layer="svg4061" />
  <defs
     id="defs4063">
    <linearGradient
       inkscape:collect="always"
       id="linearGradient1337">
      <stop
         style="stop-color:#ff3c00;stop-opacity:1;"
         offset="0"
         id="stop1333" />
      <stop
         style="stop-color:#ff3c00;stop-opacity:0;"
         offset="1"
         id="stop1335" />
    </linearGradient>
    <linearGradient
       inkscape:collect="always"
       id="linearGradient4891">
      <stop
         style="stop-color:#cc0000;stop-opacity:1;"
         offset="0"
         id="stop4893" />
      <stop
         style="stop-color:#510404;stop-opacity:1"
         offset="1"
         id="stop4895" />
    </linearGradient>
    <linearGradient
       id="linearGradient3026"
       y2="40.496"
       gradientUnits="userSpaceOnUse"
       x2="71.204"
       gradientTransform="matrix(1.617 0 0 1.617 -92.707 -21.06)"
       y1="15.369"
       x1="71.204">
      <stop
         id="stop4808-4"
         stop-color="#fff"
         offset="0" />
      <stop
         id="stop4810-0"
         stop-color="#fff"
         stop-opacity=".23529"
         offset=".42448" />
      <stop
         id="stop4812-8"
         stop-color="#fff"
         stop-opacity=".15686"
         offset=".82090" />
      <stop
         id="stop4814-0"
         stop-color="#fff"
         stop-opacity=".39216"
         offset="1" />
    </linearGradient>
    <radialGradient
       id="radialGradient3029"
       fx="4.459"
       fy="8.5089"
       gradientUnits="userSpaceOnUse"
       cy="8.6258"
       cx="15.026"
       gradientTransform="matrix(-3.4973e-8 1.8855 -1.7764 -5.4723e-8 39.14 -7.9932)"
       r="20">
      <stop
         id="stop4170"
         stop-color="#ff9696"
         offset="0" />
      <stop
         id="stop4172"
         stop-color="#fd7676"
         offset="0.1668274" />
      <stop
         id="stop4174"
         stop-color="#f94040"
         offset="0.48762146" />
      <stop
         id="stop4176"
         stop-color="#e42020"
         offset="1"
         style="stop-color:#e77f5b;stop-opacity:1" />
    </radialGradient>
    <radialGradient
       id="radialGradient3032"
       gradientUnits="userSpaceOnUse"
       cy="3.99"
       cx="23.896"
       gradientTransform="matrix(0 2.8885 -3.8128 0 39.213 -65.95)"
       r="20.397">
      <stop
         id="stop3244-9-33-7-0-9"
         stop-color="#fff"
         offset="0" />
      <stop
         id="stop3246-3-5-0-8-5"
         stop-color="#ddd"
         offset=".26238" />
      <stop
         id="stop3248-1-7-8-8-1"
         stop-color="#abacae"
         offset=".66094" />
      <stop
         id="stop3250-9-3-0-5-1"
         stop-color="#89898b"
         offset="1" />
    </radialGradient>
    <radialGradient
       id="radialGradient3035"
       gradientUnits="userSpaceOnUse"
       cy="186.17"
       cx="99.157"
       gradientTransform="matrix(.27083 0 0 .087623 -2.8551 25.187)"
       r="62.769">
      <stop
         id="stop3822-2-6-3"
         stop-color="#3d3d3d"
         offset="0" />
      <stop
         id="stop3864-8-7-7"
         stop-color="#686868"
         stop-opacity=".49804"
         offset=".5" />
      <stop
         id="stop3824-1-2-5"
         stop-color="#686868"
         stop-opacity="0"
         offset="1" />
    </radialGradient>
    <linearGradient
       id="ButtonShadow"
       y2="7.0165"
       gradientUnits="userSpaceOnUse"
       x2="45.448"
       gradientTransform="scale(1.0059 .99417)"
       y1="92.54"
       x1="45.448">
      <stop
         id="stop3750"
         offset="0" />
      <stop
         id="stop3752"
         stop-opacity=".58824"
         offset="1" />
    </linearGradient>
    <filter
       id="filter3174"
       style="color-interpolation-filters:sRGB">
      <feGaussianBlur
         id="feGaussianBlur3176"
         stdDeviation="1.71" />
    </filter>
    <linearGradient
       id="linearGradient3185"
       y2="-167.53"
       xlink:href="#SVGID_14_"
       gradientUnits="userSpaceOnUse"
       x2="206.69"
       gradientTransform="matrix(.72832 0 0 -.72832 -295.83 -108.58)"
       y1="-167.53"
       x1="206.69" />
    <linearGradient
       id="SVGID_14_"
       y2="-167.53"
       gradientUnits="userSpaceOnUse"
       x2="206.69"
       gradientTransform="matrix(1 0 0 -1 -270.96 -122.07)"
       y1="-167.53"
       x1="206.69">
      <stop
         id="stop3506"
         stop-color="#7e9ec4"
         offset="0" />
      <stop
         id="stop3508"
         stop-color="#151d89"
         offset="1" />
    </linearGradient>
    <linearGradient
       id="linearGradient3182"
       y2="-167.53"
       xlink:href="#SVGID_14_"
       gradientUnits="userSpaceOnUse"
       x2="206.69"
       gradientTransform="matrix(.72832 0 0 -.72832 -375.83 -107.58)"
       y1="-167.53"
       x1="206.69" />
    <linearGradient
       id="linearGradient4829">
      <stop
         style="stop-color:#f4fbfc;stop-opacity:1;"
         offset="0"
         id="stop4831" />
      <stop
         style="stop-color:#d6d6d6;stop-opacity:1;"
         offset="1"
         id="stop4833" />
    </linearGradient>
    <linearGradient
       inkscape:collect="always"
       xlink:href="#linearGradient4891"
       id="linearGradient4897"
       x1="24.40678"
       y1="5.2881355"
       x2="24.20339"
       y2="42.305084"
       gradientUnits="userSpaceOnUse" />
    <linearGradient
       gradientTransform="translate(-128,-162)"
       gradientUnits="userSpaceOnUse"
       xlink:href="#linearGradient10457"
       id="linearGradient10810"
       x1="150"
       x2="150"
       y1="202"
       y2="178" />
    <linearGradient
       id="linearGradient10457">
      <stop
         id="stop10453"
         offset="0"
         style="stop-color:#000000;stop-opacity:1;" />
      <stop
         id="stop10455"
         offset="1"
         style="stop-color:#000000;stop-opacity:0;" />
    </linearGradient>
    <linearGradient
       gradientTransform="translate(-128,-162.9999)"
       gradientUnits="userSpaceOnUse"
       xlink:href="#linearGradient10457"
       id="linearGradient10830"
       x1="150"
       x2="150"
       y1="202"
       y2="178" />
    <linearGradient
       gradientTransform="translate(-128,-163.9999)"
       gradientUnits="userSpaceOnUse"
       xlink:href="#linearGradient10457"
       id="linearGradient10828"
       x1="155"
       x2="155"
       y1="203"
       y2="179" />
    <radialGradient
       inkscape:collect="always"
       xlink:href="#linearGradient1337"
       id="radialGradient1341"
       cx="24"
       cy="24"
       fx="24"
       fy="24"
       r="20.450001"
       gradientUnits="userSpaceOnUse" />
  </defs>
  <metadata
     id="metadata4066">
    <rdf:RDF>
      <cc:Work
         rdf:about="">
        <dc:format>image/svg+xml</dc:format>
        <dc:type
           rdf:resource="http://purl.org/dc/dcmitype/StillImage" />
        <dc:title></dc:title>
      </cc:Work>
    </rdf:RDF>
  </metadata>
  <path
     id="path3818-0-5"
     d="m41 41.5a17 5.5 0 0 1 -34 0 17 5.5 0 1 1 34 0z"
     fill="url(#radialGradient3035)" />
  <path
     id="path2555-7-2"
     style="color:#000000"
     d="m24 3.5c-11.311 0-20.5 9.189-20.5 20.5s9.189 20.5 20.5 20.5 20.5-9.189 20.5-20.5-9.189-20.5-20.5-20.5z"
     fill="url(#radialGradient3032)" />
  <path
     id="path2555-7-65"
     style="color:#000000;fill-opacity:1;fill:url(#linearGradient4897)"
     d="m24 3.5c-11.311 0-20.5 9.189-20.5 20.5s9.189 20.5 20.5 20.5 20.5-9.189 20.5-20.5-9.189-20.5-20.5-20.5z"
     fill="url(#radialGradient3029)" />
  <path
     id="path4176"
     style="color:#000000;stroke:#ffffff;stroke-opacity:1;stroke-width:1.9;stroke-miterlimit:4;stroke-dasharray:none;opacity:1;fill-opacity:1;fill:url(#radialGradient1341)"
     d="m43.5 24c0 10.77-8.73 19.5-19.5 19.5s-19.5-8.73-19.5-19.5 8.73-19.5 19.5-19.5 19.5 8.73 19.5 19.5z"
     stroke-linejoin="round"
     stroke-linecap="round"
     stroke="url(#linearGradient3026)"
     fill="none"
     opacity=".5" />
  <path
     id="path2555-7-1-7"
     opacity=".5"
     stroke-linejoin="round"
     style="color:#000000;stroke-width:0.3;stroke-miterlimit:4;stroke-dasharray:none;opacity:1;stroke:#ffffff;stroke-opacity:1"
     d="m24 3.5001c-11.311 0-20.5 9.1888-20.5 20.5s9.1888 20.5 20.5 20.5 20.5-9.1888 20.5-20.5-9.189-20.5-20.5-20.5z"
     stroke="#980000"
     stroke-linecap="round"
     fill="none" />
  <g
     id="layer2"
     display="none"
     transform="translate(-226.12 -28.077)">
    <rect
       id="rect3745"
       opacity=".9"
       rx="6"
       ry="6"
       height="85"
       filter="url(#filter3174)"
       width="86"
       y="7"
       x="5"
       fill="url(#ButtonShadow)" />
  </g>
  <path
     id="rect3005-5"
     style="color:#000000"
     d="m-94.691 12.552v12h-8l10 10 10-10h-8v-12z"
     fill="#fff" />
  <path
     d="m 23.796608,10.605369 c 0,0 -1.33398,0.001 -1.33398,1.275392 0,1.27407 -1.33204,1.27343 -1.33204,1.27343 0,0 -1.33398,0.002 -1.33398,-1.27343 v 5.76172 8.72656 1.32617 h -0.28516 -5.71484 l 10,10.91992 10,-10.91992 h -2.28516 l -3.42773,0.002 v -0.002 h -0.28711 v -1.32617 -3.48828 -5.23828 -5.76172 c 0,1.27407 -1.33398,1.27343 -1.33398,1.27343 0,0 -1.33204,6.4e-4 -1.33204,-1.27343 0,-1.274132 -1.33398,-1.275392 -1.33398,-1.275392 z"
     id="path10812"
     style="color:#bebebe;display:inline;overflow:visible;visibility:visible;opacity:0.05;fill:url(#linearGradient10830);fill-opacity:1;fill-rule:nonzero;stroke:url(#linearGradient10828);stroke-width:2;stroke-linejoin:round;stroke-miterlimit:4;stroke-dasharray:none;stroke-opacity:1;marker:none;enable-background:accumulate"
     inkscape:connector-curvature="0" />
  <path
     inkscape:connector-curvature="0"
     style="opacity:0.2;stroke-width:1"
     id="Shadow_Book_2_"
     enable-background="new    "
     d="m 29.888034,35.312163 c 0,1.944753 -0.784284,1.701659 -1.829997,1.701659 h -8.104275 c -1.045713,0 -1.829998,0.324126 -1.829998,-1.701659 V 20.564447 c 0,-1.944753 0.784285,-1.377533 1.829998,-1.377533 h 8.104275 c 1.045713,0 1.829997,-0.56722 1.829997,1.377533 z" />
  <g
     transform="matrix(0.8714274,0,0,0.81031402,3.3966408,4.1961044)"
     style="opacity:0.2;stroke-width:1.1900295"
     id="Shadow_Headphones_2_">
    <path
       style="fill:none;stroke:#000000;stroke-width:2.380059;stroke-linecap:round;stroke-linejoin:round"
       inkscape:connector-curvature="0"
       id="rect5540_6_"
       d="m 12.5,25.5 v -2.1 c 0,-7.1 5.2,-12.8 11.6,-12.8 H 24 c 6.4,0 11.5,5.7 11.5,12.8 v 2.1" />
    <path
       inkscape:connector-curvature="0"
       id="rect5413-5_6_"
       d="m 11.8,24.7 h 1.9 v 9.5 h -2 c -0.7,0 -1.2,-1.5 -1.2,-2.4 v -4.5 c 0.1,-1.2 0.6,-2.6 1.3,-2.6 z"
       style="stroke-width:1.1900295" />
    <path
       inkscape:connector-curvature="0"
       id="rect5413_6_"
       d="m 14.5,23.1 h 1 v 12.7 h -1 c -0.6,0 -1.1,-0.6 -1.1,-0.9 V 24 c 0,-0.4 0.5,-0.9 1.1,-0.9 z"
       style="stroke-width:1.1900295" />
    <path
       inkscape:connector-curvature="0"
       id="rect5413-5-2_6_"
       d="M 36.9,24.7 H 35 v 9.5 h 2 c 0.7,0 1.2,-1.5 1.2,-2.4 v -4.5 c -0.1,-1.2 -0.6,-2.6 -1.3,-2.6 z"
       style="stroke-width:1.1900295" />
    <path
       inkscape:connector-curvature="0"
       id="rect5413-3_6_"
       d="m 34.2,23.1 h -1 v 12.7 h 1 c 0.6,0 1.1,-0.6 1.1,-0.9 V 24 c 0,-0.4 -0.5,-0.9 -1.1,-0.9 z"
       style="stroke-width:1.1900295" />
  </g>
  <g
     transform="matrix(0.8714274,0,0,0.81031402,3.3966408,4.1961044)"
     id="Headphones_2_"
     style="stroke-width:1.1900295">
    <path
       style="fill:none;stroke:#ffffff;stroke-width:2.380059;stroke-linecap:round;stroke-linejoin:round"
       inkscape:connector-curvature="0"
       id="rect5540_5_"
       d="m 12,24.4 v -2.1 c 0,-7 5.2,-12.6 11.5,-12.6 h -0.1 c 6.3,0 11.5,5.6 11.5,12.6 v 2.1" />
    <path
       style="fill:#ffffff;stroke-width:1.1900295"
       inkscape:connector-curvature="0"
       id="rect5413-5_5_"
       d="m 11.2,23.7 h 1.9 v 9.4 h -1.9 c -0.7,0 -1.1,-1.4 -1.1,-2.4 v -4.4 c -0.1,-1.2 0.4,-2.6 1.1,-2.6 z" />
    <path
       style="fill:#ffffff;stroke-width:1.1900295"
       inkscape:connector-curvature="0"
       id="rect5413_5_"
       d="m 13.8,22.1 h 1 v 12.5 h -1 c -0.6,0 -1.1,-0.6 -1.1,-0.9 V 23 c 0.1,-0.3 0.6,-0.9 1.1,-0.9 z" />
    <path
       style="fill:#ffffff;stroke-width:1.1900295"
       inkscape:connector-curvature="0"
       id="rect5413-5-2_5_"
       d="m 35.8,23.7 h -1.9 v 9.4 h 1.9 c 0.7,0 1.1,-1.4 1.1,-2.4 V 26.3 C 37,25.1 36.5,23.7 35.8,23.7 Z" />
    <path
       style="fill:#ffffff;stroke-width:1.1900295"
       inkscape:connector-curvature="0"
       id="rect5413-3_5_"
       d="m 33.2,22.1 h -1 v 12.5 h 1 c 0.6,0 1.1,-0.6 1.1,-0.9 V 23 c -0.1,-0.3 -0.6,-0.9 -1.1,-0.9 z" />
    <path
       style="display:none;fill-opacity:0.38800001;stroke-width:1.1900295"
       inkscape:connector-curvature="0"
       id="path5647_4_"
       display="none"
       d="m 10.9,29.7 0.6,1.1 0.5,0.8 c 0.6,0.5 0.7,0.4 1,0.5 v 0.6 0.1 H 11.6 11.5 C 10.8,32 10.9,30.2 10.9,29.7 Z" />
    <path
       style="display:none;fill-opacity:0.38999999;stroke-width:1.1900295"
       inkscape:connector-curvature="0"
       id="path5647-9_4_"
       display="none"
       d="m 36.8,30.1 -0.6,1 -0.5,0.8 c -0.6,0.4 -0.6,0.3 -1,0.5 v 0.5 0.1 h 1.3 0.1 c 0.8,-0.8 0.7,-2.5 0.7,-2.9 z" />
    <path
       style="display:none;fill-opacity:0.3;stroke-width:1.1900295"
       inkscape:connector-curvature="0"
       id="path5647-1_4_"
       display="none"
       d="m 13.6,31.2 0.3,1.2 0.3,0.9 c 0.3,0.5 0.4,0.4 0.6,0.6 v 0.6 0.1 h -0.7 l -0.2,-0.2 -0.1,-0.2 c 0,-0.1 -0.1,-0.2 -0.1,-0.4 -0.1,-0.9 -0.1,-2.3 -0.1,-2.6 z" />
    <path
       style="display:none;fill:#1d1d1b;fill-opacity:0.3;stroke-width:1.1900295"
       inkscape:connector-curvature="0"
       id="path5647-1-2_4_"
       display="none"
       d="m 34,30.4 -0.4,1.4 -0.3,1.1 c -0.4,0.6 -0.4,0.5 -0.6,0.7 v 0.7 0.2 h 0.9 l 0.2,-0.2 0.1,-0.2 c 0,-0.1 0.1,-0.3 0.1,-0.5 0,-1 0,-2.7 0,-3.2 z" />
  </g>
  <g
     transform="matrix(0.8714274,0,0,0.81031402,3.3966408,4.1961044)"
     id="Layer_3"
     style="stroke-width:1.1900295">
    <path
       style="fill:#ffffff;stroke-width:1.1900295"
       inkscape:connector-curvature="0"
       d="m 17,18 v 1 2 18 h 2 9 2 V 21 19 18 Z m 2,11 v -2 h 9 v 2 z m 1,4 h 8 v 2 h -9 v -2 z m 8,-10 h -7 -1 -1 v -2 h 9 z"
       id="path82" />
  </g>
</svg>
