<?xml version="1.0" encoding="UTF-8" standalone="no"?>
<!-- Created with Inkscape (http://www.inkscape.org/) -->

<svg
   xmlns:dc="http://purl.org/dc/elements/1.1/"
   xmlns:cc="http://creativecommons.org/ns#"
   xmlns:rdf="http://www.w3.org/1999/02/22-rdf-syntax-ns#"
   xmlns:svg="http://www.w3.org/2000/svg"
   xmlns="http://www.w3.org/2000/svg"
   xmlns:xlink="http://www.w3.org/1999/xlink"
   xmlns:sodipodi="http://sodipodi.sourceforge.net/DTD/sodipodi-0.dtd"
   xmlns:inkscape="http://www.inkscape.org/namespaces/inkscape"
   id="svg4061"
   height="48"
   width="48"
   version="1.1"
   inkscape:version="0.92.2 (unknown)"
   sodipodi:docname="com.github.bartzaalberg.snaptastic.svg">
  <sodipodi:namedview
     pagecolor="#ffffff"
     bordercolor="#666666"
     borderopacity="1"
     objecttolerance="10"
     gridtolerance="10"
     guidetolerance="10"
     inkscape:pageopacity="0"
     inkscape:pageshadow="2"
     inkscape:window-width="1378"
     inkscape:window-height="894"
     id="namedview40"
     showgrid="false"
     inkscape:zoom="6.9532167"
     inkscape:cx="-9.9520706"
     inkscape:cy="35.129629"
     inkscape:window-x="575"
     inkscape:window-y="122"
     inkscape:window-maximized="0"
     inkscape:current-layer="svg4061" />
  <defs
     id="defs4063">
    <linearGradient
       inkscape:collect="always"
       id="linearGradient3361">
      <stop
         style="stop-color:#0068e0;stop-opacity:1;"
         offset="0"
         id="stop3363" />
      <stop
         style="stop-color:#00acf4;stop-opacity:1"
         offset="1"
         id="stop3365" />
    </linearGradient>
    <linearGradient
       id="linearGradient3026"
       y2="40.495998"
       gradientUnits="userSpaceOnUse"
       x2="71.204002"
       gradientTransform="matrix(1.617,0,0,1.617,-92.707,-21.06)"
       y1="15.369"
       x1="71.204002"
       xlink:href="#linearGradient3361">
      <stop
         id="stop4808-4"
         stop-color="#fff"
         offset="0" />
      <stop
         id="stop4810-0"
         stop-color="#fff"
         stop-opacity=".23529"
         offset=".42448" />
      <stop
         id="stop4812-8"
         stop-color="#fff"
         stop-opacity=".15686"
         offset=".82090" />
      <stop
         id="stop4814-0"
         stop-color="#fff"
         stop-opacity=".39216"
         offset="1" />
    </linearGradient>
    <radialGradient
       id="radialGradient3029"
       fx="4.459"
       fy="8.5089"
       gradientUnits="userSpaceOnUse"
       cy="8.6258"
       cx="15.026"
       gradientTransform="matrix(-3.4973e-8 1.8855 -1.7764 -5.4723e-8 39.14 -7.9932)"
       r="20">
      <stop
         id="stop4170"
         stop-color="#c24251"
         offset="0" />
      <stop
         id="stop4172"
         stop-color="#c24251"
         offset=".26238" />
      <stop
         id="stop4174"
         stop-color="#a63643"
         offset=".66094" />
      <stop
         id="stop4176"
         stop-color="#a63643"
         offset="1" />
    </radialGradient>
    <radialGradient
       id="radialGradient3032"
       gradientUnits="userSpaceOnUse"
       cy="3.99"
       cx="23.896"
       gradientTransform="matrix(0,2.9445874,-3.886835,0,39.508399,-67.696706)"
       r="20.397">
      <stop
         id="stop3244-9-33-7-0-9"
         stop-color="#fff"
         offset="0" />
      <stop
         id="stop3246-3-5-0-8-5"
         stop-color="#ddd"
         offset=".26238" />
      <stop
         id="stop3248-1-7-8-8-1"
         stop-color="#abacae"
         offset=".66094" />
      <stop
         id="stop3250-9-3-0-5-1"
         stop-color="#89898b"
         offset="1" />
    </radialGradient>
    <radialGradient
       id="radialGradient3035"
       gradientUnits="userSpaceOnUse"
       cy="186.17"
       cx="99.157"
       gradientTransform="matrix(0.27083,0,0,0.087623,-2.8551,26.187)"
       r="62.769">
      <stop
         id="stop3822-2-6-3"
         stop-color="#3d3d3d"
         offset="0" />
      <stop
         id="stop3864-8-7-7"
         stop-color="#686868"
         stop-opacity=".49804"
         offset=".5" />
      <stop
         id="stop3824-1-2-5"
         stop-color="#686868"
         stop-opacity="0"
         offset="1" />
    </radialGradient>
    <linearGradient
       id="linearGradient4433"
       y2="25.611"
       gradientUnits="userSpaceOnUse"
       x2="23.078"
       gradientTransform="matrix(1 0 0 1.0521 0 -.90547)"
       y1="13.035"
       x1="22.759">
      <stop
         id="stop6305-1-0-2"
         stop-color="#fff"
         offset="0" />
      <stop
         id="stop6307-5-0-6"
         stop-color="#fff"
         stop-opacity="0"
         offset="1" />
    </linearGradient>
    <linearGradient
       id="linearGradient4829">
      <stop
         style="stop-color:#f4fbfc;stop-opacity:1;"
         offset="0"
         id="stop4831" />
      <stop
         style="stop-color:#d6d6d6;stop-opacity:1;"
         offset="1"
         id="stop4833" />
    </linearGradient>
    <linearGradient
       gradientTransform="matrix(0.39423077,0,0,0.39423077,-61.814065,-30.224566)"
       gradientUnits="userSpaceOnUse"
       y2="118.04783"
       x2="64.5"
       y1="13.998179"
       x1="64.5"
       id="linearGradient1227"
       xlink:href="#linearGradient1225" />
    <linearGradient
       id="linearGradient1225">
      <stop
         id="stop1221"
         offset="0"
         style="stop-color:#f37329;stop-opacity:1" />
      <stop
         id="stop1223"
         offset="1"
         style="stop-color:#e95420;stop-opacity:1" />
    </linearGradient>
    <linearGradient
       inkscape:collect="always"
       xlink:href="#linearGradient1225"
       id="linearGradient4316"
       x1="24"
       y1="3.1019418"
       x2="24.332039"
       y2="42.983917"
       gradientUnits="userSpaceOnUse" />
  </defs>
  <metadata
     id="metadata4066">
    <rdf:RDF>
      <cc:Work
         rdf:about="">
        <dc:format>image/svg+xml</dc:format>
        <dc:type
           rdf:resource="http://purl.org/dc/dcmitype/StillImage" />
        <dc:title></dc:title>
      </cc:Work>
    </rdf:RDF>
  </metadata>
  <g
     id="g4206">
    <path
       id="path3818-0-5"
       d="m 41,42.5 a 17,5.5000002 0 0 1 -34,0 17,5.5000002 0 1 1 34,0 z"
       style="fill:url(#radialGradient3035)"
       inkscape:connector-curvature="0" />
    <path
       id="path2555-7-2"
       style="color:#000000;fill:url(#radialGradient3032);stroke-width:1.01941752"
       d="m 24,3.1018398 c -11.530631,0 -20.8980583,9.3674272 -20.8980583,20.8980582 0,11.530631 9.3674273,20.898058 20.8980583,20.898058 11.530631,0 20.898058,-9.367427 20.898058,-20.898058 C 44.898058,12.469267 35.530631,3.1018398 24,3.1018398 Z"
       inkscape:connector-curvature="0" />
    <path
       id="path2555-7-65"
       style="color:#000000;fill:url(#linearGradient4316);fill-opacity:1;stroke-width:1.01941752"
       d="m 24,3.1018398 c -11.530631,0 -20.8980583,9.3674272 -20.8980583,20.8980582 0,11.530631 9.3674273,20.898058 20.8980583,20.898058 11.530631,0 20.898058,-9.367427 20.898058,-20.898058 C 44.898058,12.469267 35.530631,3.1018398 24,3.1018398 Z"
       inkscape:connector-curvature="0" />
    <path
       id="path4176"
       style="color:#000000;opacity:1;fill:none;stroke:#ffffff;stroke-width:2.03883505;stroke-linecap:round;stroke-linejoin:round;stroke-miterlimit:4;stroke-dasharray:none;stroke-opacity:0.98156684"
       d="M 43.878641,23.999898 C 43.878641,34.979024 34.979126,43.878539 24,43.878539 13.020874,43.878539 4.1213592,34.979024 4.1213592,23.999898 4.1213592,13.020772 13.020874,4.1212573 24,4.1212573 c 10.979126,0 19.878641,8.8995147 19.878641,19.8786407 z"
       inkscape:connector-curvature="0" />
    <path
       id="path2555-7-1-7"
       style="color:#000000;opacity:1;fill:none;fill-opacity:1;stroke:#ffffff;stroke-width:0.2038835;stroke-linecap:round;stroke-linejoin:round;stroke-miterlimit:4;stroke-dasharray:none;stroke-opacity:1"
       d="M 24,3.1019418 C 12.469369,3.1019418 3.1019417,12.469165 3.1019417,24 3.1019417,35.530835 12.469165,44.898058 24,44.898058 35.530835,44.898058 44.898058,35.530835 44.898058,24 44.898058,12.469165 35.530631,3.1019418 24,3.1019418 Z"
       inkscape:connector-curvature="0" />
    <g
       id="g4317"
       stroke-linejoin="round"
       transform="matrix(1.0002 0 0 1.0004 -1.0018 -.0050486)"
       stroke="#000"
       stroke-linecap="round"
       fill="none" />
    <path
       d="m 23.359117,13.987683 a 0.85722789,0.85722789 0 0 0 -0.353236,0.0904 l -4.645648,2.325334 a 0.85722789,0.85722789 0 0 0 -0.170759,0.11384 0.85722789,0.85722789 0 0 0 -0.226004,0.06864 l -0.180803,0.08538 a 0.85722789,0.85722789 0 0 0 -0.01674,0.0084 L 13.289363,18.9196 a 0.85722789,0.85722789 0 0 0 -0.396764,0.413507 0.85722789,0.85722789 0 0 0 -0.299665,0.649554 v 4.650669 a 0.85722789,0.85722789 0 0 0 0.02511,0.200893 0.85722789,0.85722789 0 0 0 -0.02511,0.202567 v 4.648996 a 0.85722789,0.85722789 0 0 0 0.473772,0.76674 l 4.699219,2.347099 a 0.85722789,0.85722789 0 0 0 0.190848,0.06697 0.85722789,0.85722789 0 0 0 0.170759,0.113839 l 0.0134,0.0067 0.197545,0.10212 a 0.85722789,0.85722789 0 0 0 0.01172,0.0067 l 4.466518,2.22991 a 0.85722789,0.85722789 0 0 0 0.564174,0.07031 0.85722789,0.85722789 0 0 0 0.5625,-0.07031 l 4.466518,-2.22991 a 0.85722789,0.85722789 0 0 0 0.01507,-0.0084 l 0.180804,-0.09542 h 0.0033 a 0.85722789,0.85722789 0 0 0 0.190848,-0.123884 0.85722789,0.85722789 0 0 0 0.192522,-0.06864 l 4.689175,-2.347098 a 0.85722789,0.85722789 0 0 0 0.473808,-0.766726 V 25.03679 A 0.85722789,0.85722789 0 0 0 33.880881,24.409 0.85722789,0.85722789 0 0 0 33.700077,24.132773 l 2.419085,-1.208706 a 0.85722789,0.85722789 0 0 0 0.473772,-0.766741 v -4.6423 A 0.85722789,0.85722789 0 0 0 36.288246,16.86045 0.85722789,0.85722789 0 0 0 35.898179,16.462014 l -4.628906,-2.313617 a 0.85722789,0.85722789 0 0 0 -0.765067,0 l -3.311384,1.648996 a 0.85722789,0.85722789 0 0 0 -0.03348,-0.02009 l -3.385046,-1.699216 a 0.85722789,0.85722789 0 0 0 -0.415179,-0.0904 z"
       id="path9-3-6"
       style="opacity:0.05;vector-effect:none;fill:#8f1c00;fill-opacity:1;stroke-width:0.85714287;stroke-linecap:butt;stroke-linejoin:miter;stroke-miterlimit:4;stroke-dasharray:none;stroke-dashoffset:0;stroke-opacity:1"
       inkscape:connector-curvature="0" />
    <path
       style="opacity:0.15;vector-effect:none;fill:#8d1c00;fill-opacity:1;stroke-width:0.85714287;stroke-linecap:butt;stroke-linejoin:miter;stroke-miterlimit:4;stroke-dasharray:none;stroke-dashoffset:0;stroke-opacity:1"
       d="m 23.389827,14.844828 -4.646485,2.325126 4.646485,2.324453 2.334127,-1.188909 v -1.157159 c 0,-0.02122 2.73e-4,-0.03195 0.01086,-0.04256 0,0 -3.53e-4,-0.01013 0.01016,-0.01013 0,-0.01063 0.01086,-0.02113 0.01086,-0.03175 0,-0.01062 0.01016,-0.01081 0.01016,-0.01081 l 0.02173,-0.02162 0.01016,-0.01013 0.01087,-0.01081 h 0.02111 l 0.943987,-0.466781 z m 7.495449,0.06958 -3.370605,1.680686 -0.200637,0.106055 -0.200627,0.09525 -0.856256,0.433007 0.856256,0.422873 0.200627,0.106055 0.200637,0.09525 0.676023,0.338435 0.180224,0.09525 0.179552,0.08444 2.334806,1.173373 4.628804,-2.31567 z m -12.555439,2.446722 -0.180228,0.08444 -4.476459,2.240012 4.423412,2.219071 0.05305,0.02094 0.180229,0.08512 0.180229,-0.08512 4.466256,-2.240012 -2.206265,-1.103793 -0.83857,-0.414092 z m 7.705603,0.143208 v 3.372854 l 2.155254,1.0788 0.180224,0.09525 0.08435,0.04189 h 0.02103 c 0.01051,0 0.01016,0.01082 0.01016,0.01082 0.01051,0 0.01087,0.01081 0.01087,0.01081 l 0.02111,0.02094 0.01086,0.01081 c 0.01051,0.01058 0.01024,0.02118 0.01024,0.03175 0,0 3.36e-4,0.01013 0.01086,0.01013 0,0.01059 0.01016,0.03154 0.01016,0.05269 l -0.01016,0.116864 v 1.057184 l 2.155254,1.078123 v -4.630668 l -2.155254,-1.078799 -0.179552,-0.09525 -0.180223,-0.09525 -1.077287,-0.539061 -0.201317,-0.105381 -0.200635,-0.106056 z m 9.700351,0.01081 -4.670282,2.347419 v 4.630665 l 0.676023,-0.338433 0.200627,-0.105381 0.200636,-0.09525 3.592996,-1.797549 z m -10.011837,1.204446 -1.941028,0.965988 1.941028,0.976797 z m -2.383097,1.227412 -0.179546,0.09525 -4.448573,2.220421 2.113089,1.057184 2.335484,1.173372 0.179546,0.08444 0.17955,-0.08444 3.191058,-1.596246 0.200627,-0.106055 0.201315,-0.09525 0.855576,-0.433007 -1.933543,-0.96261 -0.179551,-0.09457 -0.179544,-0.08512 -2.155938,-1.078124 z m -9.89078,0.03581 v 4.650254 l 0.02107,0.01081 0.20199,0.09525 4.476458,2.240013 v -4.649579 l -0.0211,-0.01081 -0.212191,-0.106058 z m 5.040263,2.575743 V 27.1899 l 0.02107,0.01013 0.201312,0.09525 2.113091,1.057184 2.335483,1.174046 v -4.631341 l -0.0211,-0.01081 -0.20131,-0.105381 -2.197424,-1.09974 z m 9.700354,0 -0.676023,0.338434 -0.200637,0.09525 -0.200627,0.10538 -3.371285,1.681361 -0.200634,0.10538 -0.0211,0.01081 v 4.63134 l 4.44857,-2.23123 0.200636,-0.09525 0.02111,-0.01013 z m 0.429149,1.203771 v 3.206001 l 4.466255,-2.240012 -0.858977,-0.435034 -1.177944,0.594455 c -0.0106,0 -0.01042,1.79e-4 -0.02111,0.01081 h -0.01087 c -0.0318,0.02124 -0.05265,0.02094 -0.06324,0.02094 -0.0106,0 -0.03224,-1.82e-4 -0.04284,-0.01081 h -0.01024 c -0.0106,0 -0.01042,4.85e-4 -0.02111,-0.01013 z m -15.169766,1.274026 v 4.64958 l 4.699532,2.346743 v -4.650254 z m 19.848218,0 -4.688654,2.346069 v 4.650254 l 4.688654,-2.346743 z m -14.788229,2.526432 v 4.650255 l 0.02107,0.01081 0.201988,0.106055 4.466256,2.229204 v -4.649578 l -0.02176,-0.01081 -0.201309,-0.106056 z m 9.738438,0 -4.465578,2.22988 -0.201988,0.106056 -0.0211,0.01081 v 4.64958 l 4.46626,-2.229204 0.201307,-0.106056 0.02111,-0.01081 z"
       id="path9-3"
       inkscape:connector-curvature="0" />
    <path
       style="opacity:1;fill:#ffffff;stroke-width:0.85714287"
       d="m 23.389827,13.987684 -4.646485,2.325127 4.646485,2.324452 2.334127,-1.188909 v -1.157159 c 0,-0.02122 2.73e-4,-0.03195 0.01086,-0.04256 0,0 -3.53e-4,-0.01013 0.01016,-0.01013 0,-0.01063 0.01086,-0.02113 0.01086,-0.03175 0,-0.01062 0.01016,-0.01081 0.01016,-0.01081 l 0.02173,-0.02162 0.01016,-0.01013 0.01087,-0.01081 h 0.02111 l 0.943987,-0.466781 z m 7.495449,0.06958 -3.370605,1.680685 -0.200637,0.106056 -0.200627,0.09525 -0.856256,0.433007 0.856256,0.422873 0.200627,0.106055 0.200637,0.09525 0.676023,0.338434 0.180224,0.09525 0.179552,0.08444 2.334806,1.173372 4.628804,-2.31567 z m -12.555439,2.446721 -0.180228,0.08444 -4.476459,2.240013 4.423412,2.21907 0.05305,0.02094 0.180229,0.08512 0.180229,-0.08512 4.466256,-2.240011 -2.206265,-1.103794 -0.83857,-0.414091 z m 7.705603,0.143209 v 3.372853 l 2.155254,1.0788 0.180224,0.09525 0.08435,0.04189 h 0.02103 c 0.01051,0 0.01016,0.01082 0.01016,0.01082 0.01051,0 0.01087,0.01081 0.01087,0.01081 l 0.02111,0.02094 0.01086,0.01081 c 0.01051,0.01059 0.01024,0.02118 0.01024,0.03175 0,0 3.36e-4,0.01013 0.01086,0.01013 0,0.01059 0.01016,0.03154 0.01016,0.05269 l -0.01016,0.116864 v 1.057184 l 2.155254,1.078124 v -4.630668 l -2.155254,-1.0788 -0.179552,-0.09525 -0.180223,-0.09525 -1.077287,-0.539062 -0.201317,-0.105381 -0.200635,-0.106056 z m 9.700351,0.01081 -4.670282,2.347419 v 4.630665 l 0.676023,-0.338433 0.200627,-0.105381 0.200636,-0.09525 3.592996,-1.797549 z m -10.011837,1.204446 -1.941028,0.965988 1.941028,0.976797 z m -2.383097,1.227413 -0.179546,0.09525 -4.448573,2.220422 2.113089,1.057183 2.335484,1.173372 0.179546,0.08444 0.17955,-0.08444 3.191058,-1.596246 0.200627,-0.106055 0.201315,-0.09525 0.855576,-0.433007 -1.933543,-0.96261 -0.179551,-0.09457 -0.179544,-0.08512 -2.155938,-1.078125 z m -9.89078,0.03581 v 4.650255 l 0.02107,0.01081 0.20199,0.09525 4.476458,2.240012 v -4.649579 l -0.0211,-0.01081 -0.212191,-0.106057 z m 5.040263,2.575743 v 4.631341 l 0.02107,0.01013 0.201312,0.09525 2.113091,1.057184 2.335483,1.174046 v -4.63134 l -0.0211,-0.01081 -0.20131,-0.105381 -2.197424,-1.09974 z m 9.700354,0 -0.676023,0.338434 -0.200637,0.09525 -0.200627,0.105381 -3.371285,1.68136 -0.200634,0.105381 -0.0211,0.01081 v 4.63134 l 4.44857,-2.23123 0.200636,-0.09525 0.02111,-0.01013 z m 0.429149,1.203771 v 3.206001 l 4.466255,-2.240012 -0.858977,-0.435034 -1.177944,0.594456 c -0.0106,0 -0.01042,1.79e-4 -0.02111,0.01081 h -0.01087 c -0.0318,0.02124 -0.05265,0.02094 -0.06324,0.02094 -0.0106,0 -0.03224,-1.82e-4 -0.04284,-0.01081 h -0.01024 c -0.0106,0 -0.01042,4.84e-4 -0.02111,-0.01013 z m -15.169766,1.274024 v 4.649579 l 4.699532,2.346743 v -4.650254 z m 19.848218,0 -4.688654,2.346068 v 4.650254 l 4.688654,-2.346743 z m -14.788229,2.526431 v 4.650255 l 0.02107,0.01081 0.201988,0.106055 4.466256,2.229204 v -4.649577 l -0.02176,-0.01081 -0.201309,-0.106056 z m 9.738438,0 -4.465578,2.22988 -0.201988,0.106056 -0.0211,0.01081 v 4.649579 l 4.46626,-2.229204 0.201307,-0.106055 0.02111,-0.01081 z"
       id="path9"
       inkscape:connector-curvature="0" />
  </g>
</svg>
