<?xml version="1.0" encoding="UTF-8" standalone="no"?>
<!-- Created with Inkscape (http://www.inkscape.org/) -->

<svg
   xmlns:dc="http://purl.org/dc/elements/1.1/"
   xmlns:cc="http://creativecommons.org/ns#"
   xmlns:rdf="http://www.w3.org/1999/02/22-rdf-syntax-ns#"
   xmlns:svg="http://www.w3.org/2000/svg"
   xmlns="http://www.w3.org/2000/svg"
   xmlns:xlink="http://www.w3.org/1999/xlink"
   xmlns:sodipodi="http://sodipodi.sourceforge.net/DTD/sodipodi-0.dtd"
   xmlns:inkscape="http://www.inkscape.org/namespaces/inkscape"
   id="svg4061"
   height="48"
   width="48"
   version="1.1"
   inkscape:version="0.92.2 (unknown)"
   sodipodi:docname="com.github.bitseater.weather.svg">
  <sodipodi:namedview
     pagecolor="#ffffff"
     bordercolor="#666666"
     borderopacity="1"
     objecttolerance="10"
     gridtolerance="10"
     guidetolerance="10"
     inkscape:pageopacity="0"
     inkscape:pageshadow="2"
     inkscape:window-width="1378"
     inkscape:window-height="894"
     id="namedview40"
     showgrid="false"
     inkscape:zoom="9.8333333"
     inkscape:cx="0.91525385"
     inkscape:cy="9.2848847"
     inkscape:window-x="1182"
     inkscape:window-y="353"
     inkscape:window-maximized="0"
     inkscape:current-layer="g4206" />
  <defs
     id="defs4063">
    <linearGradient
       inkscape:collect="always"
       id="linearGradient3361">
      <stop
         style="stop-color:#0068e0;stop-opacity:1;"
         offset="0"
         id="stop3363" />
      <stop
         style="stop-color:#00acf4;stop-opacity:1"
         offset="1"
         id="stop3365" />
    </linearGradient>
    <linearGradient
       id="linearGradient3026"
       y2="40.495998"
       gradientUnits="userSpaceOnUse"
       x2="71.204002"
       gradientTransform="matrix(1.617,0,0,1.617,-92.707,-21.06)"
       y1="15.369"
       x1="71.204002"
       xlink:href="#linearGradient3361">
      <stop
         id="stop4808-4"
         stop-color="#fff"
         offset="0" />
      <stop
         id="stop4810-0"
         stop-color="#fff"
         stop-opacity=".23529"
         offset=".42448" />
      <stop
         id="stop4812-8"
         stop-color="#fff"
         stop-opacity=".15686"
         offset=".82090" />
      <stop
         id="stop4814-0"
         stop-color="#fff"
         stop-opacity=".39216"
         offset="1" />
    </linearGradient>
    <radialGradient
       id="radialGradient3029"
       fx="4.459"
       fy="8.5089"
       gradientUnits="userSpaceOnUse"
       cy="8.6258"
       cx="15.026"
       gradientTransform="matrix(-3.4973e-8 1.8855 -1.7764 -5.4723e-8 39.14 -7.9932)"
       r="20">
      <stop
         id="stop4170"
         stop-color="#c24251"
         offset="0" />
      <stop
         id="stop4172"
         stop-color="#c24251"
         offset=".26238" />
      <stop
         id="stop4174"
         stop-color="#a63643"
         offset=".66094" />
      <stop
         id="stop4176"
         stop-color="#a63643"
         offset="1" />
    </radialGradient>
    <radialGradient
       id="radialGradient3032"
       gradientUnits="userSpaceOnUse"
       cy="3.99"
       cx="23.896"
       gradientTransform="matrix(0 2.8885 -3.8128 0 39.213 -65.95)"
       r="20.397">
      <stop
         id="stop3244-9-33-7-0-9"
         stop-color="#fff"
         offset="0" />
      <stop
         id="stop3246-3-5-0-8-5"
         stop-color="#ddd"
         offset=".26238" />
      <stop
         id="stop3248-1-7-8-8-1"
         stop-color="#abacae"
         offset=".66094" />
      <stop
         id="stop3250-9-3-0-5-1"
         stop-color="#89898b"
         offset="1" />
    </radialGradient>
    <radialGradient
       id="radialGradient3035"
       gradientUnits="userSpaceOnUse"
       cy="186.17"
       cx="99.157"
       gradientTransform="matrix(.27083 0 0 .087623 -2.8551 25.187)"
       r="62.769">
      <stop
         id="stop3822-2-6-3"
         stop-color="#3d3d3d"
         offset="0" />
      <stop
         id="stop3864-8-7-7"
         stop-color="#686868"
         stop-opacity=".49804"
         offset=".5" />
      <stop
         id="stop3824-1-2-5"
         stop-color="#686868"
         stop-opacity="0"
         offset="1" />
    </radialGradient>
    <linearGradient
       id="linearGradient4433"
       y2="25.611"
       gradientUnits="userSpaceOnUse"
       x2="23.078"
       gradientTransform="matrix(1 0 0 1.0521 0 -.90547)"
       y1="13.035"
       x1="22.759">
      <stop
         id="stop6305-1-0-2"
         stop-color="#fff"
         offset="0" />
      <stop
         id="stop6307-5-0-6"
         stop-color="#fff"
         stop-opacity="0"
         offset="1" />
    </linearGradient>
    <linearGradient
       inkscape:collect="always"
       xlink:href="#linearGradient3361"
       id="linearGradient3367"
       x1="25.016949"
       y1="36"
       x2="25.016951"
       y2="9.7627115"
       gradientUnits="userSpaceOnUse" />
    <linearGradient
       id="linearGradient4829">
      <stop
         style="stop-color:#f4fbfc;stop-opacity:1;"
         offset="0"
         id="stop4831" />
      <stop
         style="stop-color:#d6d6d6;stop-opacity:1;"
         offset="1"
         id="stop4833" />
    </linearGradient>
    <clipPath
       id="clipPath-851446753">
      <g
         id="g17"
         transform="translate(0,-1004.4)">
        <path
           style="fill:#1890d0"
           inkscape:connector-curvature="0"
           id="path19"
           d="m -24,13 c 0,1.105 -0.672,2 -1.5,2 -0.828,0 -1.5,-0.895 -1.5,-2 0,-1.105 0.672,-2 1.5,-2 0.828,0 1.5,0.895 1.5,2 z"
           transform="matrix(15.333,0,0,11.5,415,878.86)" />
      </g>
    </clipPath>
    <clipPath
       id="clipPath3878">
      <g
         id="g3876"
         transform="translate(0,-1004.4)">
        <path
           style="fill:#1890d0"
           inkscape:connector-curvature="0"
           id="path3874"
           d="m -24,13 c 0,1.105 -0.672,2 -1.5,2 -0.828,0 -1.5,-0.895 -1.5,-2 0,-1.105 0.672,-2 1.5,-2 0.828,0 1.5,0.895 1.5,2 z"
           transform="matrix(15.333,0,0,11.5,415,878.86)" />
      </g>
    </clipPath>
    <clipPath
       id="clipPath3884">
      <g
         id="g3882"
         transform="translate(0,-1004.4)">
        <path
           style="fill:#1890d0"
           inkscape:connector-curvature="0"
           id="path3880"
           d="m -24,13 c 0,1.105 -0.672,2 -1.5,2 -0.828,0 -1.5,-0.895 -1.5,-2 0,-1.105 0.672,-2 1.5,-2 0.828,0 1.5,0.895 1.5,2 z"
           transform="matrix(15.333,0,0,11.5,415,878.86)" />
      </g>
    </clipPath>
    <radialGradient
       id="radialGradient3021"
       gradientUnits="userSpaceOnUse"
       cy="3.99"
       cx="23.896"
       gradientTransform="matrix(0,4.4245,-5.8403,0,39.028,-121.57)"
       r="20.396999">
      <stop
         id="stop3244-9-33-7-0-9-0"
         stop-color="#fff"
         offset="0" />
      <stop
         id="stop3246-3-5-0-8-5-5"
         stop-color="#ddd"
         offset=".26238" />
      <stop
         id="stop3248-1-7-8-8-1-5"
         stop-color="#abacae"
         offset=".66094" />
      <stop
         id="stop3250-9-3-0-5-1-2"
         stop-color="#89898b"
         offset="1" />
    </radialGradient>
    <radialGradient
       id="radialGradient3018-9"
       fx="4.4590001"
       fy="8.5088997"
       gradientUnits="userSpaceOnUse"
       cy="8.6258001"
       cx="15.026"
       gradientTransform="matrix(-5.3571e-8,2.8881,-2.721,-8.3822e-8,38.916,-32.792)"
       r="20">
      <stop
         id="stop3848"
         stop-color="#fff3cb"
         offset="0" />
      <stop
         id="stop3850"
         stop-color="#fdde76"
         offset=".26238" />
      <stop
         id="stop3852"
         stop-color="#f9c440"
         offset=".66094" />
      <stop
         id="stop3854"
         stop-color="#e48b20"
         offset="1" />
    </radialGradient>
    <linearGradient
       id="linearGradient3015"
       y2="40.495998"
       gradientUnits="userSpaceOnUse"
       x2="71.204002"
       gradientTransform="matrix(2.4768,0,0,2.4768,-163.04,-52.808)"
       y1="15.369"
       x1="71.204002">
      <stop
         id="stop4808-4-9"
         stop-color="#fff"
         offset="0" />
      <stop
         id="stop4810-0-0"
         stop-color="#fff"
         stop-opacity=".23529"
         offset=".42448" />
      <stop
         id="stop4812-8-2"
         stop-color="#fff"
         stop-opacity=".15686"
         offset=".82090" />
      <stop
         id="stop4814-0-8"
         stop-color="#fff"
         stop-opacity=".39216"
         offset="1" />
    </linearGradient>
    <radialGradient
       id="radialGradient3037"
       fx="680.40997"
       fy="-249.59"
       gradientUnits="userSpaceOnUse"
       cy="-233.5"
       cx="676"
       gradientTransform="matrix(1.2135,2.7175e-8,-2.3222e-8,0.93992,-797.5,244.73)"
       r="29.5">
      <stop
         id="stop4749-7"
         stop-color="#fff"
         offset="0" />
      <stop
         id="stop9072-8"
         stop-color="#f7f7f7"
         offset=".5" />
      <stop
         id="stop4751-3"
         stop-color="#dbe0e1"
         offset="1" />
    </radialGradient>
    <radialGradient
       id="radialGradient3033"
       fx="680.59998"
       fy="355.26001"
       gradientUnits="userSpaceOnUse"
       cy="365.66"
       cx="680.57001"
       gradientTransform="matrix(0.89893,0,0,0.85804,-584.9,-296.29)"
       r="12.053">
      <stop
         id="stop9167-6"
         stop-color="#b6c5cc"
         offset="0" />
      <stop
         id="stop9169-9"
         stop-color="#e5f0f6"
         stop-opacity="0"
         offset="1" />
    </radialGradient>
    <radialGradient
       id="radialGradient3030"
       fx="681.33002"
       fy="354.22"
       gradientUnits="userSpaceOnUse"
       cy="365.66"
       cx="680.57001"
       gradientTransform="matrix(0.67019,0,0,0.63971,-443.61,-214)"
       r="12.053">
      <stop
         id="stop9167-7-12"
         stop-color="#acb9bf"
         offset="0" />
      <stop
         id="stop9169-0-4"
         stop-color="#acb9bf"
         stop-opacity="0"
         offset="1" />
    </radialGradient>
    <linearGradient
       id="linearGradient3027-6"
       y2="26.667"
       gradientUnits="userSpaceOnUse"
       x2="20.153999"
       gradientTransform="matrix(1.5,0,0,1.4444,-1.1509,3.5963)"
       y1="3.0216999"
       x1="20.153999">
      <stop
         id="stop4019-8"
         stop-color="#fff"
         offset="0" />
      <stop
         id="stop4021-4"
         stop-color="#fff"
         stop-opacity=".23529"
         offset=".49550" />
      <stop
         id="stop4023-7"
         stop-color="#fff"
         stop-opacity=".15686"
         offset=".88039" />
      <stop
         id="stop4025-5"
         stop-color="#fff"
         stop-opacity=".39216"
         offset="1" />
    </linearGradient>
  </defs>
  <metadata
     id="metadata4066">
    <rdf:RDF>
      <cc:Work
         rdf:about="">
        <dc:format>image/svg+xml</dc:format>
        <dc:type
           rdf:resource="http://purl.org/dc/dcmitype/StillImage" />
        <dc:title></dc:title>
      </cc:Work>
    </rdf:RDF>
  </metadata>
  <g
     id="g4206">
    <path
       id="path3818-0-5"
       d="m 41,41.5 a 17,5.5 0 0 1 -34,0 17,5.5 0 1 1 34,0 z"
       inkscape:connector-curvature="0"
       style="fill:url(#radialGradient3035)" />
    <path
       id="path2555-7-2"
       style="color:#000000;fill:url(#radialGradient3032)"
       d="M 24,3.5 C 12.689,3.5 3.5,12.689 3.5,24 3.5,35.311 12.689,44.5 24,44.5 35.311,44.5 44.5,35.311 44.5,24 44.5,12.689 35.311,3.5 24,3.5 Z"
       inkscape:connector-curvature="0" />
    <path
       id="path2555-7-65"
       style="color:#000000;fill:url(#linearGradient3367);fill-opacity:1"
       d="M 24,3.5 C 12.689,3.5 3.5,12.689 3.5,24 3.5,35.311 12.689,44.5 24,44.5 35.311,44.5 44.5,35.311 44.5,24 44.5,12.689 35.311,3.5 24,3.5 Z"
       inkscape:connector-curvature="0" />
    <path
       id="path4176"
       style="color:#000000;opacity:0.5;fill:none;stroke:url(#linearGradient3026);stroke-linecap:round;stroke-linejoin:round"
       d="M 43.5,24 C 43.5,34.77 34.77,43.5 24,43.5 13.23,43.5 4.5,34.77 4.5,24 4.5,13.23 13.23,4.5 24,4.5 34.77,4.5 43.5,13.23 43.5,24 Z"
       inkscape:connector-curvature="0" />
    <path
       id="path2555-7-1-7"
       style="color:#000000;opacity:1;fill:none;fill-opacity:1;stroke:#fbfbfb;stroke-width:1.79999995;stroke-linecap:round;stroke-linejoin:round;stroke-miterlimit:4;stroke-dasharray:none;stroke-opacity:1"
       d="m 24,3.5001 c -11.311,0 -20.5,9.1888 -20.5,20.5 0,11.3112 9.1888,20.5 20.5,20.5 11.3112,0 20.5,-9.1888 20.5,-20.5 0,-11.3112 -9.189,-20.5 -20.5,-20.5 z"
       inkscape:connector-curvature="0" />
    <g
       id="g4317"
       transform="matrix(1.0002,0,0,1.0004,-1.0018,-0.0050486)"
       style="fill:none;stroke:#000000;stroke-linecap:round;stroke-linejoin:round" />
    <g
       transform="matrix(0.78983015,0,0,0.7893487,4.2545099,6.0480479)"
       id="g4480">
      <g
         transform="matrix(0.38095,0,0,0.38095,8.8571,7.8571)"
         id="g3026">
        <path
           inkscape:connector-curvature="0"
           d="M 24,3.5 C 12.689,3.5 3.5,12.689 3.5,24 3.5,35.311 12.689,44.5 24,44.5 35.311,44.5 44.5,35.311 44.5,24 44.5,12.689 35.311,3.5 24,3.5 Z"
           style="color:#000000;fill:url(#radialGradient3021)"
           id="path2555-7-2-3" />
        <path
           inkscape:connector-curvature="0"
           d="M 24,3.5 C 12.689,3.5 3.5,12.689 3.5,24 3.5,35.311 12.689,44.5 24,44.5 35.311,44.5 44.5,35.311 44.5,24 44.5,12.689 35.311,3.5 24,3.5 Z"
           style="color:#000000;fill:url(#radialGradient3018-9)"
           id="path2555-7-65-8" />
        <path
           inkscape:connector-curvature="0"
           d="M 43.5,24 C 43.5,34.77 34.77,43.5 24,43.5 13.23,43.5 4.5,34.77 4.5,24 4.5,13.23 13.23,4.5 24,4.5 34.77,4.5 43.5,13.23 43.5,24 Z"
           style="color:#000000;opacity:0.8;fill:none;stroke:url(#linearGradient3015);stroke-linecap:round;stroke-linejoin:round"
           id="path4176-0" />
        <path
           inkscape:connector-curvature="0"
           d="m 24,3.5001 c -11.311,0 -20.5,9.1888 -20.5,20.5 0,11.3112 9.1888,20.5 20.5,20.5 11.3112,0 20.5,-9.1888 20.5,-20.5 0,-11.3112 -9.189,-20.5 -20.5,-20.5 z"
           style="color:#000000;opacity:0.5;fill:none;stroke:#985800;stroke-linecap:round;stroke-linejoin:round"
           id="path2555-7-1-7-4" />
      </g>
      <g
         transform="matrix(0.99998,0,0,1.0385,1.1508,-0.73468)"
         id="g4360">
        <path
           inkscape:connector-curvature="0"
           d="m 27.97,15.695 c -2.3602,0 -4.4042,1.385 -5.4174,3.3951 -0.65667,-0.42756 -1.434,-0.67901 -2.2697,-0.67901 -2.3423,0 -4.2411,1.9456 -4.2411,4.3458 0,0.38159 0.0589,0.75076 0.1491,1.1034 -1.6917,1.1692 -2.7998,3.1582 -2.7998,5.4152 0,3.6113 2.8373,6.5187 6.3617,6.5187 h 12.193 c 3.5244,0 6.3617,-2.9073 6.3617,-6.5187 0,-2.8838 -1.8169,-5.3151 -4.3405,-6.1791 0.06847,-0.37479 0.0994,-0.75914 0.0994,-1.1543 0,-3.4502 -2.7295,-6.247 -6.0966,-6.247 z"
           style="color:#000000;fill:url(#radialGradient3037)"
           id="rect4519" />
        <path
           inkscape:connector-curvature="0"
           d="m 28.016,15.423 c -2.4115,0 -4.5,1.4224 -5.5352,3.4869 -0.67095,-0.43912 -1.4652,-0.69737 -2.319,-0.69737 -2.3932,0 -4.3333,1.9982 -4.3333,4.4632 0,0.3919 0.06019,0.77105 0.15234,1.1332 -1.7285,1.2007 -2.8607,3.2435 -2.8607,5.5616 0,3.7089 2.899,6.6948 6.5,6.6948 h 12.458 c 3.601,0 6.5,-2.9859 6.5,-6.6948 0,-2.9617 -1.8564,-5.4587 -4.4349,-6.3461 0.06996,-0.38493 0.10156,-0.77966 0.10156,-1.1855 0,-3.5434 -2.7889,-6.4159 -6.2292,-6.4159 z"
           style="color:#000000;opacity:0.4;fill:none;stroke:#000000;stroke-width:0.54244;stroke-linecap:round;stroke-linejoin:round"
           id="rect4519-6" />
        <path
           inkscape:connector-curvature="0"
           d="m 28.028,15.991 c -2.2559,0 -4.1759,1.3833 -4.9759,3.3404 1.1039,0.85082 1.8159,2.1855 1.8159,3.6815 0,0.79608 -0.18876,1.5481 -0.54335,2.2032 0.96554,0.91422 2.2647,1.4783 3.7034,1.4783 2.9722,0 5.3906,-2.4042 5.3906,-5.3588 0,-2.9547 -2.4184,-5.3446 -5.3906,-5.3446 z"
           style="color:#000000;opacity:0.15;fill:url(#radialGradient3033)"
           id="path9151" />
        <path
           inkscape:connector-curvature="0"
           d="m 24.252,22.726 a 4.01225,3.9886497 0 0 1 -8.0245,0 4.01225,3.9886497 0 1 1 8.0245,0 z"
           style="color:#000000;opacity:0.15;fill:url(#radialGradient3030)"
           id="path9151-6" />
        <path
           inkscape:connector-curvature="0"
           d="m 28.016,15.966 c -2.2016,0 -4.1121,1.2817 -5.0612,3.1744 a 0.53792,0.53946 0 0 1 -0.76172,0.22068 c -0.58865,-0.38526 -1.285,-0.61112 -2.0313,-0.61112 -2.0945,0 -3.7917,1.7402 -3.7917,3.9214 0,0.33651 0.05187,0.67322 0.13542,1.0016 a 0.53792,0.53946 0 0 1 -0.22005,0.57717 c -1.5834,1.0999 -2.6237,2.9847 -2.6237,5.1266 0,3.427 2.6532,6.1452 5.9583,6.1452 h 12.458 c 3.3052,0 5.9583,-2.7181 5.9583,-6.1452 0,-2.7357 -1.7023,-5.0274 -4.0625,-5.8396 a 0.53792,0.53946 0 0 1 -0.35547,-0.61112 c 0.06337,-0.34866 0.08463,-0.70868 0.08463,-1.0864 0,-3.2596 -2.5459,-5.8736 -5.6875,-5.8736 z"
           style="color:#000000;fill:none;stroke:url(#linearGradient3027-6);stroke-width:0.54244;stroke-linecap:round;stroke-linejoin:round"
           id="path3068" />
      </g>
    </g>
  </g>
</svg>
