<?xml version="1.0" encoding="UTF-8" standalone="no"?>
<!-- Created with Inkscape (http://www.inkscape.org/) -->

<svg
   xmlns:dc="http://purl.org/dc/elements/1.1/"
   xmlns:cc="http://creativecommons.org/ns#"
   xmlns:rdf="http://www.w3.org/1999/02/22-rdf-syntax-ns#"
   xmlns:svg="http://www.w3.org/2000/svg"
   xmlns="http://www.w3.org/2000/svg"
   xmlns:xlink="http://www.w3.org/1999/xlink"
   xmlns:sodipodi="http://sodipodi.sourceforge.net/DTD/sodipodi-0.dtd"
   xmlns:inkscape="http://www.inkscape.org/namespaces/inkscape"
   id="svg4061"
   height="48"
   width="48"
   version="1.1"
   inkscape:version="0.92.2 (unknown)"
   sodipodi:docname="com.github.keyilan.swatches.svg">
  <sodipodi:namedview
     pagecolor="#ffffff"
     bordercolor="#666666"
     borderopacity="1"
     objecttolerance="10"
     gridtolerance="10"
     guidetolerance="10"
     inkscape:pageopacity="0"
     inkscape:pageshadow="2"
     inkscape:window-width="1571"
     inkscape:window-height="1068"
     id="namedview46"
     showgrid="false"
     inkscape:zoom="9.8333332"
     inkscape:cx="27.867237"
     inkscape:cy="15.411582"
     inkscape:window-x="1067"
     inkscape:window-y="158"
     inkscape:window-maximized="0"
     inkscape:current-layer="svg4061"
     inkscape:lockguides="true" />
  <defs
     id="defs4063">
    <linearGradient
       id="linearGradient3026"
       y2="40.496"
       gradientUnits="userSpaceOnUse"
       x2="71.204"
       gradientTransform="matrix(1.5765768,0,0,1.5907751,-89.969463,-20.329304)"
       y1="15.369"
       x1="71.204">
      <stop
         id="stop4808-4"
         stop-color="#fff"
         offset="0" />
      <stop
         id="stop4810-0"
         stop-color="#fff"
         stop-opacity=".23529"
         offset=".42448" />
      <stop
         id="stop4812-8"
         stop-color="#fff"
         stop-opacity=".15686"
         offset=".82090" />
      <stop
         id="stop4814-0"
         stop-color="#fff"
         stop-opacity=".39216"
         offset="1" />
    </linearGradient>
    <radialGradient
       id="radialGradient3029"
       fx="4.459"
       fy="8.5089"
       gradientUnits="userSpaceOnUse"
       cy="8.6258"
       cx="15.026"
       gradientTransform="matrix(-3.4973e-8 1.8855 -1.7764 -5.4723e-8 39.14 -7.9932)"
       r="20">
      <stop
         id="stop4170"
         stop-color="#ff9696"
         offset="0" />
      <stop
         id="stop4172"
         stop-color="#fd7676"
         offset="0.1668274" />
      <stop
         id="stop4174"
         stop-color="#f94040"
         offset="0.48762146" />
      <stop
         id="stop4176"
         stop-color="#e42020"
         offset="1"
         style="stop-color:#e77f5b;stop-opacity:1" />
    </radialGradient>
    <radialGradient
       id="radialGradient3032"
       gradientUnits="userSpaceOnUse"
       cy="3.99"
       cx="23.896"
       gradientTransform="matrix(0,2.8416537,-3.7174845,0,38.652691,-64.491267)"
       r="20.397">
      <stop
         id="stop3244-9-33-7-0-9"
         stop-color="#fff"
         offset="0" />
      <stop
         id="stop3246-3-5-0-8-5"
         stop-color="#ddd"
         offset=".26238" />
      <stop
         id="stop3248-1-7-8-8-1"
         stop-color="#abacae"
         offset=".66094" />
      <stop
         id="stop3250-9-3-0-5-1"
         stop-color="#89898b"
         offset="1" />
    </radialGradient>
    <radialGradient
       id="radialGradient3035"
       gradientUnits="userSpaceOnUse"
       cy="186.17"
       cx="99.157"
       gradientTransform="matrix(0.26869328,0,0,0.0869317,-2.7773479,26.359093)"
       r="62.769">
      <stop
         id="stop3822-2-6-3"
         stop-color="#3d3d3d"
         offset="0" />
      <stop
         id="stop3864-8-7-7"
         stop-color="#686868"
         stop-opacity=".49804"
         offset=".5" />
      <stop
         id="stop3824-1-2-5"
         stop-color="#686868"
         stop-opacity="0"
         offset="1" />
    </radialGradient>
    <linearGradient
       id="ButtonShadow"
       y2="7.0165"
       gradientUnits="userSpaceOnUse"
       x2="45.448"
       gradientTransform="scale(1.0059 .99417)"
       y1="92.54"
       x1="45.448">
      <stop
         id="stop3750"
         offset="0" />
      <stop
         id="stop3752"
         stop-opacity=".58824"
         offset="1" />
    </linearGradient>
    <filter
       id="filter3174"
       style="color-interpolation-filters:sRGB">
      <feGaussianBlur
         id="feGaussianBlur3176"
         stdDeviation="1.71" />
    </filter>
    <linearGradient
       id="linearGradient3185"
       y2="-167.53"
       xlink:href="#SVGID_14_"
       gradientUnits="userSpaceOnUse"
       x2="206.69"
       gradientTransform="matrix(.72832 0 0 -.72832 -295.83 -108.58)"
       y1="-167.53"
       x1="206.69" />
    <linearGradient
       id="SVGID_14_"
       y2="-167.53"
       gradientUnits="userSpaceOnUse"
       x2="206.69"
       gradientTransform="matrix(1 0 0 -1 -270.96 -122.07)"
       y1="-167.53"
       x1="206.69">
      <stop
         id="stop3506"
         stop-color="#7e9ec4"
         offset="0" />
      <stop
         id="stop3508"
         stop-color="#151d89"
         offset="1" />
    </linearGradient>
    <linearGradient
       id="linearGradient3182"
       y2="-167.53"
       xlink:href="#SVGID_14_"
       gradientUnits="userSpaceOnUse"
       x2="206.69"
       gradientTransform="matrix(.72832 0 0 -.72832 -375.83 -107.58)"
       y1="-167.53"
       x1="206.69" />
    <linearGradient
       id="linearGradient4829">
      <stop
         style="stop-color:#f4fbfc;stop-opacity:1;"
         offset="0"
         id="stop4831" />
      <stop
         style="stop-color:#d6d6d6;stop-opacity:1;"
         offset="1"
         id="stop4833" />
    </linearGradient>
    <linearGradient
       x1="12.452989"
       y1="77.089928"
       x2="12.452989"
       y2="90.580666"
       id="a"
       gradientTransform="scale(1.9272482,0.51887452)"
       gradientUnits="userSpaceOnUse">
      <stop
         stop-opacity="0"
         offset="0%"
         id="stop2" />
      <stop
         offset="49.8447963%"
         id="stop4" />
      <stop
         stop-opacity="0"
         offset="100%"
         id="stop6" />
    </linearGradient>
    <radialGradient
       cx="0"
       fx="0"
       fy="0.5"
       r="0.63682973"
       id="b">
      <stop
         offset="0%"
         id="stop9" />
      <stop
         stop-opacity="0"
         offset="100%"
         id="stop11" />
    </radialGradient>
    <radialGradient
       cx="0"
       fx="0"
       fy="0.5"
       r="0.63682973"
       id="radialGradient3848">
      <stop
         offset="0%"
         id="stop3844" />
      <stop
         stop-opacity="0"
         offset="100%"
         id="stop3846" />
    </radialGradient>
    <linearGradient
       x1="13.651115"
       y1="58.017239"
       x2="13.651115"
       y2="74.462585"
       id="c"
       gradientTransform="scale(1.7580981,0.56879646)"
       gradientUnits="userSpaceOnUse">
      <stop
         stop-color="#FFF"
         offset="0%"
         id="stop14" />
      <stop
         stop-color="#F9F9F9"
         offset="100%"
         id="stop16" />
    </linearGradient>
    <linearGradient
       x1="21.387186"
       y1="6.7330031"
       x2="21.387186"
       y2="33.157253"
       id="d"
       gradientTransform="scale(1.1221672,0.89113279)"
       gradientUnits="userSpaceOnUse">
      <stop
         stop-color="#FFD787"
         offset="0%"
         id="stop19" />
      <stop
         stop-color="#FFBF3F"
         offset="100%"
         id="stop21" />
    </linearGradient>
    <linearGradient
       x1="20.122334"
       y1="5.1458402"
       x2="20.122334"
       y2="26.373381"
       id="e"
       gradientTransform="scale(0.77028836,1.2982151)"
       gradientUnits="userSpaceOnUse">
      <stop
         stop-color="#FFF"
         stop-opacity=".4"
         offset="0%"
         id="stop24" />
      <stop
         stop-color="#FFF"
         stop-opacity="0"
         offset="100%"
         id="stop26" />
    </linearGradient>
    <linearGradient
       inkscape:collect="always"
       xlink:href="#d"
       id="linearGradient3941"
       x1="24.110859"
       y1="25.438084"
       x2="23.82"
       y2="3.832474"
       gradientUnits="userSpaceOnUse" />
    <linearGradient
       inkscape:collect="always"
       xlink:href="#linearGradient4829"
       id="linearGradient4101"
       x1="24.397802"
       y1="28.836065"
       x2="24.324036"
       y2="43.175049"
       gradientUnits="userSpaceOnUse" />
  </defs>
  <metadata
     id="metadata4066">
    <rdf:RDF>
      <cc:Work
         rdf:about="">
        <dc:format>image/svg+xml</dc:format>
        <dc:type
           rdf:resource="http://purl.org/dc/dcmitype/StillImage" />
        <dc:title></dc:title>
      </cc:Work>
    </rdf:RDF>
  </metadata>
  <g
     id="layer2"
     display="none"
     transform="translate(-226.12 -28.077)">
    <rect
       id="rect3745"
       opacity=".9"
       rx="6"
       ry="6"
       height="85"
       filter="url(#filter3174)"
       width="86"
       y="7"
       x="5"
       fill="url(#ButtonShadow)" />
  </g>
  <path
     style="fill:url(#radialGradient3035);stroke-width:0.99211049"
     inkscape:connector-curvature="0"
     id="path3818-0-5"
     d="m 40.731757,42.543392 a 16.865878,5.4566081 0 0 1 -33.731757,0 16.865878,5.4566081 0 1 1 33.731757,0 z" />
  <path
     inkscape:connector-curvature="0"
     id="path2555-7-2"
     style="color:#000000;fill:url(#radialGradient3032);stroke-width:0.97938162"
     d="m 23.819999,3.8323756 c -11.028239,0 -19.9875247,9.0399704 -19.9875247,20.1675254 0,11.127556 8.9592857,20.167526 19.9875247,20.167526 11.028237,0 19.987523,-9.03997 19.987523,-20.167526 0,-11.127555 -8.959286,-20.1675254 -19.987523,-20.1675254 z" />
  <path
     inkscape:connector-curvature="0"
     id="path2555-7-65"
     style="color:#000000;fill:url(#linearGradient3941);fill-opacity:1.0;stroke-width:0.97938162"
     d="m 23.819999,3.8323756 c -11.028239,0 -19.9875247,9.0399704 -19.9875247,20.1675254 0,11.127556 8.9592857,20.167526 19.9875247,20.167526 11.028237,0 19.987523,-9.03997 19.987523,-20.167526 0,-11.127555 -8.959286,-20.1675254 -19.987523,-20.1675254 z" />
  <path
     inkscape:connector-curvature="0"
     id="path4176"
     style="color:#000000;opacity:0.5;fill:none;stroke:url(#linearGradient3026);stroke-width:0.97938162;stroke-linecap:round;stroke-linejoin:round"
     d="m 42.832521,23.999901 c 0,10.59533 -8.51176,19.183745 -19.012522,19.183745 -10.500763,0 -19.0125234,-8.588415 -19.0125234,-19.183745 0,-10.595329 8.5117604,-19.1837437 19.0125234,-19.1837437 10.500762,0 19.012522,8.5884147 19.012522,19.1837437 z" />
  <path
     style="opacity:1;fill:url(#linearGradient4101);fill-opacity:1;stroke:#ffffff;stroke-width:0;stroke-miterlimit:4;stroke-dasharray:none;stroke-opacity:1"
     id="path3943"
     sodipodi:type="arc"
     sodipodi:cx="23.751043"
     sodipodi:cy="33.497711"
     sodipodi:rx="16.743071"
     sodipodi:ry="10.205183"
     sodipodi:start="0.0083771703"
     sodipodi:end="3.1418914"
     d="M 40.493526,33.583201 A 16.743071,10.205183 0 0 1 23.678413,43.702798 16.743071,10.205183 0 0 1 7.0079735,33.494662 l 16.7430695,0.003 z" />
  <path
     inkscape:connector-curvature="0"
     id="path2555-7-1-7"
     style="color:#000000;opacity:1;fill:none;stroke:#ffffff;stroke-width:1.6649487;stroke-linecap:round;stroke-linejoin:round;stroke-miterlimit:4;stroke-dasharray:none;stroke-opacity:1"
     d="M 23.819999,3.832474 C 12.79176,3.832474 3.8324743,12.872248 3.8324743,24 c 0,11.127753 8.9590917,20.167525 19.9875247,20.167525 11.028433,0 19.987523,-9.039772 19.987523,-20.167525 0,-11.127752 -8.959286,-20.167526 -19.987523,-20.167526 z" />
  <path
     style="fill:#333333;fill-rule:evenodd;stroke-width:0.89233255"
     inkscape:connector-curvature="0"
     id="path53-3"
     d="m 17.487693,36.404965 c 4.2e-4,0.180973 -0.03577,0.341733 -0.10855,0.482288 -0.07278,0.140557 -0.177958,0.249913 -0.31552,0.328076 -0.137562,0.07816 -0.299053,0.117459 -0.484476,0.117889 -0.154696,3.59e-4 -0.284522,-0.01298 -0.38948,-0.04002 -0.104949,-0.02707 -0.214203,-0.07436 -0.327733,-0.141959 l -0.0016,-0.702592 c 0.11991,0.0769 0.244545,0.136824 0.373911,0.179774 0.12936,0.04297 0.24809,0.06428 0.35616,0.06405 0.09324,-2.15e-4 0.161535,-0.02067 0.204883,-0.06135 0.04335,-0.04069 0.06495,-0.09296 0.06481,-0.156835 -8.9e-5,-0.03992 -0.0089,-0.07483 -0.02647,-0.104732 -0.01756,-0.0299 -0.0457,-0.06011 -0.08444,-0.09062 -0.03875,-0.03052 -0.14193,-0.09283 -0.309559,-0.186914 -0.151717,-0.08614 -0.265548,-0.169708 -0.341494,-0.250708 -0.07595,-0.081 -0.132317,-0.174012 -0.169115,-0.27905 -0.0368,-0.105036 -0.05536,-0.229412 -0.0557,-0.373127 -6.18e-4,-0.268794 0.07677,-0.478553 0.232179,-0.62928 0.155401,-0.150723 0.369254,-0.2264 0.641562,-0.22703 0.24052,-5.58e-4 0.485964,0.06874 0.736333,0.207915 l -0.190903,0.609224 c -0.217499,-0.124584 -0.405184,-0.186687 -0.563059,-0.18632 -0.08159,1.88e-4 -0.140877,0.01828 -0.17788,0.0543 -0.037,0.03602 -0.05544,0.08063 -0.05532,0.13386 1.31e-4,0.05722 0.02383,0.108399 0.07108,0.153529 0.04725,0.04513 0.175388,0.127335 0.384397,0.246616 0.200519,0.112643 0.339866,0.233744 0.418043,0.363304 0.07817,0.129561 0.117494,0.29281 0.11795,0.489749 z m 2.870794,0.879589 -0.742218,0.0017 -0.225449,-1.270939 c -0.01073,-0.0532 -0.02764,-0.15895 -0.0508,-0.31725 -0.02314,-0.158296 -0.04014,-0.290658 -0.05099,-0.397088 -0.0083,0.08651 -0.0218,0.193995 -0.04058,0.32245 -0.01877,0.128455 -0.03731,0.246591 -0.0556,0.354422 -0.0183,0.107827 -0.09436,0.544461 -0.228217,1.309912 l -0.742218,0.0017 -0.582092,-2.916825 0.605536,-0.0014 0.256089,1.462485 c 0.05797,0.323222 0.09776,0.580612 0.119398,0.772181 0.01346,-0.135762 0.03767,-0.320114 0.07262,-0.553062 0.03496,-0.232952 0.06762,-0.425972 0.09799,-0.579071 l 0.20247,-1.104265 0.581695,-0.0013 0.201221,1.10333 c 0.03432,0.176902 0.06922,0.381077 0.104724,0.612534 0.0355,0.231456 0.05921,0.404387 0.07114,0.518798 0.01343,-0.147738 0.05045,-0.403976 0.111064,-0.768722 l 0.254077,-1.467658 0.605536,-0.0014 z m 2.167848,-0.005 -0.115697,-0.54664 -0.754933,0.0017 -0.116342,0.547178 -0.68977,0.0016 0.751331,-2.931887 0.837577,-0.0019 0.774428,2.928356 z M 22.278815,36.08651 22.17758,35.607702 c -0.02355,-0.1064 -0.05222,-0.244057 -0.08599,-0.412976 -0.03377,-0.168919 -0.05603,-0.289958 -0.06679,-0.36312 -0.0094,0.06788 -0.02793,0.179704 -0.05564,0.335459 -0.02772,0.155754 -0.08926,0.462615 -0.184616,0.920591 z m 1.98307,1.189028 -0.627785,0.0015 -0.0053,-2.273447 -0.567391,0.0013 -0.0015,-0.644709 1.76098,-0.0041 0.0015,0.64471 -0.565803,0.0013 z m 1.862112,-2.317689 c -0.149398,3.46e-4 -0.26577,0.07746 -0.34912,0.231347 -0.08334,0.153888 -0.124713,0.36589 -0.124089,0.636017 0.0013,0.561544 0.172006,0.841918 0.512124,0.841132 0.102776,-2.39e-4 0.202333,-0.01843 0.29867,-0.05458 0.09633,-0.03615 0.193185,-0.07962 0.290548,-0.130412 l 0.0015,0.666664 c -0.193651,0.108231 -0.412852,0.16263 -0.657611,0.163197 -0.350714,8.14e-4 -0.619867,-0.126312 -0.807472,-0.381366 -0.187603,-0.255057 -0.281963,-0.624098 -0.283081,-1.107132 -6.96e-4,-0.302063 0.04399,-0.567633 0.134043,-0.79672 0.09006,-0.229088 0.219979,-0.405367 0.389755,-0.528848 0.169773,-0.123481 0.36962,-0.185487 0.599546,-0.186018 0.251115,-5.83e-4 0.49126,0.06739 0.720451,0.203891 l -0.190886,0.621197 c -0.08594,-0.05037 -0.171863,-0.09275 -0.257767,-0.127148 -0.0859,-0.03442 -0.178125,-0.05149 -0.276663,-0.05126 z m 3.074353,2.306264 -0.630964,0.0015 -0.0028,-1.189618 -0.729504,0.0017 0.0028,1.189618 -0.630965,0.0015 -0.0068,-2.918156 0.630965,-0.0015 0.0025,1.081833 0.729504,-0.0017 -0.0025,-1.081834 0.630964,-0.0015 z m 1.881769,-0.0044 -1.37954,0.0032 -0.0068,-2.918156 1.37954,-0.0032 0.0015,0.632733 -0.751753,0.0017 0.0011,0.45908 0.696127,-0.0016 0.0015,0.632734 -0.696128,0.0016 0.0013,0.550898 0.751753,-0.0017 z m 1.924219,-0.890683 c 4.2e-4,0.180973 -0.03577,0.341733 -0.10855,0.482288 -0.07278,0.140557 -0.177956,0.249913 -0.315519,0.328076 -0.137563,0.07816 -0.299054,0.117458 -0.484477,0.117888 -0.154695,3.59e-4 -0.284522,-0.01298 -0.389479,-0.04002 -0.104951,-0.02707 -0.214203,-0.07436 -0.327733,-0.141959 l -0.0016,-0.702592 c 0.11991,0.0769 0.244546,0.136824 0.373912,0.179774 0.12936,0.04297 0.248089,0.06428 0.356159,0.06405 0.09325,-2.15e-4 0.161536,-0.02067 0.204883,-0.06135 0.04335,-0.04069 0.06495,-0.09296 0.06481,-0.156836 -8.9e-5,-0.03992 -0.0089,-0.07483 -0.02647,-0.104731 -0.01756,-0.0299 -0.0457,-0.06011 -0.08445,-0.09062 -0.03875,-0.03052 -0.141929,-0.09283 -0.309558,-0.186914 -0.151718,-0.08614 -0.265548,-0.169708 -0.341493,-0.250706 -0.07595,-0.081 -0.132318,-0.174012 -0.169117,-0.279052 -0.0368,-0.105035 -0.05536,-0.229412 -0.05569,-0.373126 -6.18e-4,-0.268795 0.07677,-0.478552 0.232179,-0.62928 0.155399,-0.150721 0.369253,-0.226398 0.64156,-0.227028 0.24052,-5.59e-4 0.485966,0.06874 0.736335,0.207915 l -0.190903,0.609225 c -0.217498,-0.124584 -0.405184,-0.186687 -0.563059,-0.186321 -0.08159,1.89e-4 -0.140877,0.01828 -0.17788,0.0543 -0.037,0.03602 -0.05544,0.08063 -0.05532,0.13386 1.31e-4,0.05722 0.02383,0.108398 0.07108,0.153529 0.04725,0.04513 0.175388,0.127335 0.384396,0.246615 0.20052,0.112644 0.339865,0.233744 0.418043,0.363305 0.07818,0.129561 0.117495,0.292809 0.11795,0.489748 z" />
  <path
     style="fill:#666666;fill-rule:evenodd;stroke-width:0.89233255"
     inkscape:connector-curvature="0"
     id="path55-6"
     d="m 16.866446,41.292644 -0.373492,8.64e-4 -0.0044,-1.884227 c -5.19e-4,-0.224883 0.0033,-0.403202 0.01148,-0.534958 -0.0243,0.03199 -0.05414,0.06732 -0.08955,0.105997 -0.03541,0.03867 -0.154057,0.161367 -0.355955,0.368089 l -0.188229,-0.29697 0.681851,-0.67623 0.31151,-7.24e-4 z m 2.243703,-2.252703 c 4.3e-4,0.184963 -0.04213,0.339085 -0.127627,0.462383 -0.08554,0.123286 -0.206135,0.206399 -0.361792,0.249341 l 1.6e-5,0.01597 c 0.18655,0.02885 0.326565,0.101418 0.42009,0.217588 0.09351,0.116218 0.140489,0.270799 0.140935,0.463747 6.55e-4,0.280774 -0.07778,0.497519 -0.235304,0.650247 -0.157522,0.152726 -0.381968,0.229425 -0.673348,0.2301 -0.257474,5.98e-4 -0.474802,-0.05146 -0.65199,-0.156178 l -9.88e-4,-0.417169 c 0.09868,0.06099 0.203156,0.107976 0.313426,0.140991 0.110272,0.03301 0.216264,0.0494 0.317982,0.04916 0.180126,-4.18e-4 0.314591,-0.04265 0.4034,-0.126684 0.08881,-0.08403 0.133007,-0.213881 0.132602,-0.389529 -3.6e-4,-0.155689 -0.0499,-0.270012 -0.148602,-0.342971 -0.09871,-0.07297 -0.253487,-0.109193 -0.464339,-0.108704 l -0.201846,4.68e-4 -8.82e-4,-0.381235 0.205024,-4.76e-4 c 0.370845,-8.58e-4 0.555893,-0.162297 0.555147,-0.48432 -2.85e-4,-0.125082 -0.03283,-0.221481 -0.09762,-0.289196 -0.06479,-0.06771 -0.160229,-0.101424 -0.286317,-0.101131 -0.08794,2.05e-4 -0.172671,0.01603 -0.254183,0.0475 -0.08152,0.03146 -0.177792,0.09256 -0.288836,0.183304 l -0.183531,-0.326926 c 0.212516,-0.197432 0.459691,-0.296474 0.741535,-0.297126 0.234162,-5.44e-4 0.417079,0.06225 0.548756,0.188355 0.13168,0.126107 0.197773,0.300274 0.198288,0.522496 z m 0.378996,1.003117 c -0.0026,-1.141719 0.366346,-1.713427 1.10698,-1.715141 0.116551,-2.71e-4 0.215115,0.01081 0.295694,0.03324 l 9.06e-4,0.391217 c -0.08059,-0.02911 -0.173872,-0.04349 -0.279826,-0.04326 -0.248997,5.78e-4 -0.435812,0.08484 -0.560451,0.252796 -0.124639,0.167954 -0.191834,0.436901 -0.201569,0.806855 l 0.01907,-4.5e-5 c 0.04955,-0.107901 0.119284,-0.191561 0.209212,-0.250984 0.08993,-0.05943 0.195812,-0.08927 0.317661,-0.08956 0.210853,-4.89e-4 0.37527,0.0803 0.493257,0.24237 0.117987,0.162071 0.177301,0.382157 0.177945,0.660268 7.05e-4,0.306055 -0.0668,0.548059 -0.202503,0.726034 -0.135736,0.177957 -0.321221,0.267207 -0.556443,0.267752 -0.166351,3.86e-4 -0.311094,-0.04951 -0.434235,-0.149698 -0.123143,-0.100176 -0.218045,-0.246334 -0.284712,-0.438463 -0.06667,-0.19213 -0.100313,-0.423254 -0.100938,-0.693381 z m 0.812633,0.894329 c 0.128207,-2.98e-4 0.226888,-0.05242 0.29605,-0.156373 0.06916,-0.103956 0.10352,-0.252402 0.103073,-0.44535 -3.86e-4,-0.167665 -0.03328,-0.299325 -0.09866,-0.394983 -0.06539,-0.09566 -0.163238,-0.143337 -0.293565,-0.143034 -0.08052,1.87e-4 -0.154642,0.02197 -0.222355,0.06538 -0.06771,0.04341 -0.121077,0.102743 -0.160112,0.178016 -0.03902,0.07527 -0.05845,0.152166 -0.05825,0.230682 4.32e-4,0.187624 0.04133,0.345546 0.122681,0.47377 0.08135,0.128221 0.185073,0.192185 0.311159,0.191894 z m 3.033703,-2.210619 c -0.218269,5.07e-4 -0.38969,0.09804 -0.514269,0.292609 -0.124582,0.194566 -0.186474,0.462838 -0.185679,0.804823 8.29e-4,0.357952 0.06158,0.628601 0.182269,0.811955 0.120685,0.183355 0.294928,0.274767 0.522733,0.27424 0.09854,-2.28e-4 0.193869,-0.01275 0.285994,-0.03759 0.09212,-0.02483 0.187941,-0.05665 0.287449,-0.09548 l 9.47e-4,0.40918 c -0.182043,0.08692 -0.388554,0.130644 -0.619538,0.131179 -0.34012,7.89e-4 -0.601595,-0.128019 -0.784439,-0.38641 -0.182843,-0.258395 -0.274821,-0.628438 -0.275936,-1.110143 -7.02e-4,-0.303394 0.04292,-0.568962 0.130863,-0.796712 0.08795,-0.22775 0.215484,-0.402363 0.382614,-0.523841 0.16713,-0.121479 0.363535,-0.18248 0.589221,-0.183001 0.237343,-5.51e-4 0.456814,0.06148 0.658405,0.186147 l -0.135764,0.39752 c -0.07851,-0.04638 -0.161518,-0.08712 -0.249013,-0.12218 -0.08749,-0.03509 -0.179452,-0.05248 -0.275873,-0.05225 z" />
</svg>
