<?xml version="1.0" encoding="UTF-8" standalone="no"?>
<!-- Created with Inkscape (http://www.inkscape.org/) -->

<svg
   xmlns:dc="http://purl.org/dc/elements/1.1/"
   xmlns:cc="http://creativecommons.org/ns#"
   xmlns:rdf="http://www.w3.org/1999/02/22-rdf-syntax-ns#"
   xmlns:svg="http://www.w3.org/2000/svg"
   xmlns="http://www.w3.org/2000/svg"
   xmlns:xlink="http://www.w3.org/1999/xlink"
   xmlns:sodipodi="http://sodipodi.sourceforge.net/DTD/sodipodi-0.dtd"
   xmlns:inkscape="http://www.inkscape.org/namespaces/inkscape"
   id="svg4061"
   height="48"
   width="48"
   version="1.1"
   inkscape:version="0.92.2 (unknown)"
   sodipodi:docname="com.github.bleakgrey.transporter.svg">
  <sodipodi:namedview
     pagecolor="#ffffff"
     bordercolor="#666666"
     borderopacity="1"
     objecttolerance="10"
     gridtolerance="10"
     guidetolerance="10"
     inkscape:pageopacity="0"
     inkscape:pageshadow="2"
     inkscape:window-width="2264"
     inkscape:window-height="1241"
     id="namedview40"
     showgrid="false"
     inkscape:zoom="9.8333333"
     inkscape:cx="-4.4920908"
     inkscape:cy="12.831249"
     inkscape:window-x="105"
     inkscape:window-y="158"
     inkscape:window-maximized="0"
     inkscape:current-layer="svg4061" />
  <defs
     id="defs4063">
    <linearGradient
       id="linearGradient3026"
       y2="40.495998"
       gradientUnits="userSpaceOnUse"
       x2="71.204002"
       gradientTransform="matrix(1.617,0,0,1.617,-174.78158,17.082273)"
       y1="15.369"
       x1="71.204002"
       spreadMethod="pad">
      <stop
         id="stop4808-4"
         stop-color="#fff"
         offset="0" />
      <stop
         id="stop4810-0"
         stop-color="#fff"
         stop-opacity=".23529"
         offset=".42448" />
      <stop
         id="stop4812-8"
         stop-color="#fff"
         stop-opacity=".15686"
         offset=".82090" />
      <stop
         id="stop4814-0"
         stop-color="#fff"
         stop-opacity=".39216"
         offset="1" />
    </linearGradient>
    <radialGradient
       id="radialGradient3029"
       fx="4.459"
       fy="8.5089"
       gradientUnits="userSpaceOnUse"
       cy="8.6258"
       cx="15.026"
       gradientTransform="matrix(-3.4973e-8 1.8855 -1.7764 -5.4723e-8 39.14 -7.9932)"
       r="20">
      <stop
         id="stop4170"
         stop-color="#c24251"
         offset="0" />
      <stop
         id="stop4172"
         stop-color="#c24251"
         offset=".26238" />
      <stop
         id="stop4174"
         stop-color="#a63643"
         offset=".66094" />
      <stop
         id="stop4176"
         stop-color="#a63643"
         offset="1" />
    </radialGradient>
    <radialGradient
       id="radialGradient3032"
       gradientUnits="userSpaceOnUse"
       cy="3.99"
       cx="23.896"
       gradientTransform="matrix(0,2.8885,-3.8128,0,39.613,-66.3501)"
       r="20.397">
      <stop
         id="stop3244-9-33-7-0-9"
         stop-color="#fff"
         offset="0" />
      <stop
         id="stop3246-3-5-0-8-5"
         stop-color="#ddd"
         offset=".26238" />
      <stop
         id="stop3248-1-7-8-8-1"
         stop-color="#abacae"
         offset=".66094" />
      <stop
         id="stop3250-9-3-0-5-1"
         stop-color="#89898b"
         offset="1" />
    </radialGradient>
    <radialGradient
       id="radialGradient3035"
       gradientUnits="userSpaceOnUse"
       cy="186.17"
       cx="99.157"
       gradientTransform="matrix(0.27083,0,0,0.087623,-3.4652693,26.289292)"
       r="62.769">
      <stop
         id="stop3822-2-6-3"
         stop-color="#3d3d3d"
         offset="0" />
      <stop
         id="stop3864-8-7-7"
         stop-color="#686868"
         stop-opacity=".49804"
         offset=".5" />
      <stop
         id="stop3824-1-2-5"
         stop-color="#686868"
         stop-opacity="0"
         offset="1" />
    </radialGradient>
    <linearGradient
       id="linearGradient4433"
       y2="25.611"
       gradientUnits="userSpaceOnUse"
       x2="23.078"
       gradientTransform="matrix(1 0 0 1.0521 0 -.90547)"
       y1="13.035"
       x1="22.759">
      <stop
         id="stop6305-1-0-2"
         stop-color="#fff"
         offset="0" />
      <stop
         id="stop6307-5-0-6"
         stop-color="#fff"
         stop-opacity="0"
         offset="1" />
    </linearGradient>
    <linearGradient
       id="linearGradient4829">
      <stop
         style="stop-color:#f4fbfc;stop-opacity:1;"
         offset="0"
         id="stop4831" />
      <stop
         style="stop-color:#d6d6d6;stop-opacity:1;"
         offset="1"
         id="stop4833" />
    </linearGradient>
    <linearGradient
       inkscape:collect="always"
       xlink:href="#linearGradient3707-319-631-6"
       id="linearGradient3867"
       x1="13.779661"
       y1="70.888138"
       x2="13.766101"
       y2="35.39661"
       gradientUnits="userSpaceOnUse"
       gradientTransform="matrix(0.98130842,0,0,0.98130842,10.434658,-27.699985)" />
    <radialGradient
       inkscape:collect="always"
       xlink:href="#linearGradient1140"
       id="radialGradient1142-1"
       cx="233.66495"
       cy="38.36161"
       fx="233.66495"
       fy="38.36161"
       r="46.319775"
       gradientTransform="matrix(0,1.0228452,-1.0410118,0,277.35823,-202.26238)"
       gradientUnits="userSpaceOnUse" />
    <linearGradient
       inkscape:collect="always"
       id="linearGradient1140">
      <stop
         style="stop-color:#ffffff;stop-opacity:1;"
         offset="0"
         id="stop1136" />
      <stop
         style="stop-color:#ffffff;stop-opacity:0;"
         offset="1"
         id="stop1138" />
    </linearGradient>
    <clipPath
       id="clipPath1093-6-9-2-9"
       clipPathUnits="userSpaceOnUse">
      <path
         inkscape:connector-curvature="0"
         style="opacity:1;fill:#000000;fill-opacity:1;stroke:none;stroke-width:1.00000095;stroke-miterlimit:4;stroke-dasharray:none;stroke-opacity:1"
         id="path1095-2-2-6-2"
         d="m 284.57939,38.359911 c 0,27.240157 -21.76826,49.322717 -48.61652,49.322717 -26.85073,0 -48.6177,-22.082814 -48.6177,-49.322717 0,-27.238891 21.76697,-49.319315 48.6177,-49.319315 26.84826,0 48.61652,22.080424 48.61652,49.319315 z" />
    </clipPath>
    <radialGradient
       r="46.319775"
       fy="38.36161"
       fx="233.66495"
       cy="38.36161"
       cx="233.66495"
       gradientTransform="matrix(0,1.0228452,-1.0410118,0,288.7039,-333.95235)"
       gradientUnits="userSpaceOnUse"
       id="radialGradient1168"
       xlink:href="#linearGradient1140"
       inkscape:collect="always" />
    <clipPath
       id="clipPath1093-6-9-2"
       clipPathUnits="userSpaceOnUse">
      <path
         inkscape:connector-curvature="0"
         style="opacity:1;fill:#000000;fill-opacity:1;stroke:none;stroke-width:1.00000095;stroke-miterlimit:4;stroke-dasharray:none;stroke-opacity:1"
         id="path1095-2-2-6"
         d="m 284.57939,38.359911 c 0,27.240157 -21.76826,49.322717 -48.61652,49.322717 -26.85073,0 -48.6177,-22.082814 -48.6177,-49.322717 0,-27.238891 21.76697,-49.319315 48.6177,-49.319315 26.84826,0 48.61652,22.080424 48.61652,49.319315 z" />
    </clipPath>
    <radialGradient
       inkscape:collect="always"
       xlink:href="#linearGradient1140"
       id="radialGradient880"
       cx="233.66495"
       cy="38.36161"
       fx="233.66495"
       fy="38.36161"
       r="46.319775"
       gradientTransform="matrix(1,0,0,1.0647939,0,-2.4856002)"
       gradientUnits="userSpaceOnUse" />
    <linearGradient
       id="linearGradient8838">
      <stop
         id="stop8840"
         style="stop-color:#000000;stop-opacity:1"
         offset="0" />
      <stop
         id="stop8842"
         style="stop-color:#000000;stop-opacity:0"
         offset="1" />
    </linearGradient>
    <linearGradient
       id="linearGradient2867-449-88-871-390-598-476-591-434-148-6">
      <stop
         offset="0"
         style="stop-color:#e29ffc;stop-opacity:1"
         id="stop4627-7" />
      <stop
         offset="0.26238"
         style="stop-color:#ad65d6;stop-opacity:1"
         id="stop4629-5" />
      <stop
         offset="0.704952"
         style="stop-color:#4c158a;stop-opacity:0.94618833"
         id="stop4631-3" />
      <stop
         offset="1"
         style="stop-color:#273567;stop-opacity:1"
         id="stop4633-5" />
    </linearGradient>
    <linearGradient
       id="linearGradient3707-319-631-6">
      <stop
         offset="0"
         style="stop-color:#6d255f;stop-opacity:1"
         id="stop4637-2" />
      <stop
         offset="0.5"
         style="stop-color:#73416c;stop-opacity:1"
         id="stop4639-9" />
      <stop
         offset="1"
         style="stop-color:#b361b5;stop-opacity:1"
         id="stop4641-1" />
    </linearGradient>
    <linearGradient
       inkscape:collect="always"
       xlink:href="#linearGradient1140"
       id="linearGradient2405"
       gradientUnits="userSpaceOnUse"
       gradientTransform="matrix(2.2297179,0,0,2.2296673,-173.54116,15.562585)"
       x1="62.200409"
       y1="-12.489107"
       x2="62.200409"
       y2="-1.4615115" />
    <linearGradient
       inkscape:collect="always"
       xlink:href="#linearGradient3026"
       id="linearGradient958"
       x1="4.7613187"
       y1="23.250429"
       x2="43.129333"
       y2="23.250429"
       gradientUnits="userSpaceOnUse"
       gradientTransform="translate(-0.0844284,-0.07878758)" />
    <linearGradient
       inkscape:collect="always"
       xlink:href="#linearGradient4433"
       id="linearGradient1035"
       x1="187.34517"
       y1="38.36161"
       x2="279.98471"
       y2="38.36161"
       gradientUnits="userSpaceOnUse" />
  </defs>
  <metadata
     id="metadata4066">
    <rdf:RDF>
      <cc:Work
         rdf:about="">
        <dc:format>image/svg+xml</dc:format>
        <dc:type
           rdf:resource="http://purl.org/dc/dcmitype/StillImage" />
        <dc:title></dc:title>
      </cc:Work>
    </rdf:RDF>
  </metadata>
  <path
     style="fill:url(#radialGradient3035)"
     inkscape:connector-curvature="0"
     d="m 40.38983,42.602292 a 17,5.5 0 0 1 -33.9999993,0 17,5.5 0 1 1 33.9999993,0 z"
     id="path3818-0-5" />
  <path
     inkscape:connector-curvature="0"
     d="M 24,3.883177 C 12.900421,3.883177 3.8831781,12.900224 3.8831781,24 3.8831781,35.099776 12.900224,44.116822 24,44.116822 35.099776,44.116822 44.116823,35.099776 44.116823,24 44.116823,12.900224 35.09958,3.883177 24,3.883177 Z"
     style="color:#000000;opacity:1;fill:url(#linearGradient3867);fill-opacity:1.0;stroke:#ffffff;stroke-width:1.76635516;stroke-linecap:round;stroke-linejoin:round;stroke-miterlimit:4;stroke-dasharray:none;stroke-opacity:0.9665072"
     id="path2555-7-1-7" />
  <g
     style="fill:none;stroke:#000000;stroke-linecap:round;stroke-linejoin:round"
     transform="matrix(1.0002,0,0,1.0004,-1.0018,-0.0050486)"
     id="g4317" />
  <path
     style="opacity:0.4;fill:url(#linearGradient958);fill-opacity:1.0;fill-rule:nonzero;stroke:none;stroke-width:0.95702571"
     id="path6534"
     d="M 24.288438,5.3706157 21.892377,5.640532 19.256703,6.3490673 c 0.224515,-0.077462 0.451955,-0.1620141 0.684592,-0.2361788 L 19.645561,5.5973164 C 19.185405,5.7061188 18.798268,5.8149202 18.413193,5.9237223 L 18.0929,6.214108 17.305623,6.3153268 16.586814,6.6527241 16.244517,6.8214223 16.141831,6.9563809 15.628386,7.0576002 15.320325,7.6986547 15.069838,7.2568871 14.801416,7.3932442 14.841166,8.137271 14.190808,8.677108 13.81428,9.655556 h 0.787276 l 0.308063,-0.641053 0.102686,-0.23618 c 0.346166,-0.241291 0.674328,-0.510012 1.026891,-0.7422712 l 0.821507,0.2699172 c 0.534858,0.358183 1.073475,0.72203 1.608782,1.079667 L 19.256746,8.677108 18.366787,8.305969 17.956015,7.4962165 16.449928,7.3275181 16.415698,7.1588193 17.066056,7.2937782 17.442574,6.9226414 18.26408,6.7539431 c 0.194418,-0.093192 0.385651,-0.1603227 0.58191,-0.2361783 l -0.513446,0.4723564 1.848385,1.2483698 v 0.742274 l -0.718809,0.708532 0.958421,1.889421 0.650361,-0.371135 0.821511,-1.2483697 C 23.047363,9.607239 24.088301,9.197664 25.178415,8.710846 l -0.06845,0.472355 0.547663,0.371141 0.958424,-0.641059 -0.479213,-0.539833 -0.650361,0.371134 -0.205374,-0.06747 c 0.04721,-0.02124 0.08959,-0.04588 0.136923,-0.06747 l 0.95844,-2.4292589 z M 14.909563,9.014503 15.696838,9.554342 H 16.3472 V 8.913283 L 15.559926,8.575887 Z M 33.0854,8.575887 31.681997,8.913283 30.792027,9.486857 v 0.5060993 l -1.403405,0.8772297 0.273832,1.315852 0.821508,-0.573575 0.513444,0.573575 0.581896,0.337396 0.376527,-0.978458 -0.205379,-0.573574 0.205379,-0.404874 0.82151,-0.7422777 h 0.376515 l -0.376515,0.8097577 v 0.742272 c 0.338595,-0.09085 0.680365,-0.126229 1.026875,-0.168697 l -0.958422,0.674794 -0.06845,0.404873 -1.095341,0.910977 -1.129574,-0.269916 V 12.28725 l -0.513443,0.337402 0.2396,0.573575 h -0.821507 l -0.444981,0.742273 -0.547663,0.607317 -0.992655,0.202432 0.581895,0.573577 0.136914,0.573577 h -0.718809 l -0.958426,0.50609 v 1.484549 h 0.44498 l 0.41075,0.438618 0.924201,-0.438618 0.342297,-0.910975 0.68458,-0.404872 0.136917,-0.337402 1.09535,-0.269918 0.616131,0.6748 0.650361,0.337392 -0.376531,0.742273 0.581898,-0.168699 0.308074,-0.742272 -0.753055,-0.843494 h 0.308065 l 0.753057,0.60732 0.136915,0.809754 0.650359,0.742271 0.17115,-1.079668 0.342288,-0.168699 c 0.364352,0.372825 0.651548,0.828774 0.958431,1.248367 l 1.12956,0.06748 0.65036,0.404874 -0.308064,0.438612 -0.650362,0.573577 h -0.958427 l -1.266487,-0.404873 -0.65036,0.06749 -0.479214,0.539833 -1.369172,-1.349592 -0.958424,-0.269913 -1.403404,0.168697 -1.232266,0.337397 c -0.702959,0.785531 -1.422655,1.579714 -2.087997,2.39552 l -0.787278,1.889417 0.376528,0.404879 -0.68459,0.978459 0.753042,1.72072 c 0.626618,0.698693 1.256919,1.392666 1.882629,2.091862 l 0.924193,-0.776015 0.376528,0.472358 0.992644,-0.641058 0.342297,0.371139 h 0.992655 l 0.581896,0.641051 -0.342284,1.147153 0.684578,0.776014 -0.03421,1.349584 0.513445,0.978452 -0.376515,0.843494 c -0.03674,0.604963 -0.06845,1.183147 -0.06845,1.788205 0.302007,0.819705 0.604793,1.637396 0.889965,2.462998 l 0.205373,1.315846 v 0.674794 h 0.547677 l 0.787279,-0.506094 h 0.958424 l 1.437635,-1.585766 -0.171151,-0.539836 0.958429,-0.843492 -0.718818,-0.776009 0.85573,-0.674794 0.821511,-0.506099 0.376524,-0.404876 -0.239614,-0.910971 v -2.2943 l 0.650362,-1.417073 0.821506,-0.87723 0.889961,-2.159338 v -0.573569 c -0.442867,0.05507 -0.867371,0.104573 -1.300704,0.134961 l 0.889957,-0.877232 1.232254,-0.809752 0.650362,-0.742276 v -0.809761 c -0.147497,-0.274199 -0.29646,-0.569297 -0.44498,-0.843492 l -0.581895,0.674791 -0.444993,-0.50609 -0.65035,-0.506101 v -1.045927 l 0.753049,0.843491 0.85573,-0.101221 c 0.386048,0.345452 0.756741,0.652615 1.095348,1.045932 l 0.477915,-0.573016 C 42.986781,20.537848 42.261532,17.131845 40.728147,14.766433 39.259655,11.933577 36.352487,9.514314 36.30299,9.520585 L 36.097604,9.8917283 35.344562,10.701479 34.38614,9.7230313 h 0.958422 L 35.789537,9.250682 34.009604,8.913282 Z M 12.5135,9.014503 12.171204,9.8917343 c 0,0 -0.86662,-0.02828 -1.020393,0.0096 -2.0519131,1.8167987 -6.0546611,6.1043327 -6.4739211,13.1853717 0.0365,0.16854 0.545743,1.009895 0.545743,1.009895 l 1.506096,0.877235 1.506095,0.404877 0.650361,0.776011 0.992655,0.742273 0.5818981,-0.101215 0.410751,0.202437 v 0.134957 l -0.547665,1.518286 -0.4449841,0.641058 0.1369201,0.303658 -0.3422991,1.214625 1.2664901,2.2943 1.30072,1.113408 0.581894,0.809758 -0.06845,1.686974 0.410748,0.94472 -0.410748,1.821941 c 0,0 -0.05486,-0.01501 0,0.168701 0.05535,0.183765 2.288122,1.420002 2.430285,1.315845 0.141669,-0.106096 0.273836,-0.202434 0.273836,-0.202434 l -0.136913,-0.404876 0.581894,-0.539831 0.205379,-0.573577 0.924194,-0.303661 0.718814,-1.754463 -0.205368,-0.472365 0.47921,-0.742267 1.095341,-0.236172 0.547676,-1.28211 -0.136929,-1.58577 0.855741,-1.180886 0.136912,-1.214629 c -1.17411,-0.574165 -2.326035,-1.163844 -3.491395,-1.754724 l -0.581896,-1.113404 -1.06112,-0.236181 -0.581894,-1.518288 -1.403404,0.1687 -1.232274,-0.877234 -1.300715,1.113409 v 0.168701 c -0.389591,-0.111068 -0.85112,-0.127382 -1.1980261,-0.33762 l -0.273835,-0.809732 v -0.877233 l -0.889966,0.101222 c 0.07162,-0.558782 0.167489,-1.128305 0.239604,-1.686988 h -0.513442 l -0.513441,0.641056 -0.479213,0.236176 -0.718817,-0.404876 -0.06846,-0.877232 0.136918,-0.944711 1.061113,-0.809755 h 0.855735 l 0.171148,-0.47235 1.061113,0.236176 0.7872841,0.978449 0.136916,-1.619505 1.369172,-1.113409 0.479212,-1.180888 1.026889,-0.40488 0.547664,-0.809755 1.300719,-0.236174 0.650359,-0.944714 h -1.951077 l 1.232269,-0.573573 h 0.855724 l 1.095344,-0.371135 0.205378,1.045931 0.479212,-0.742275 -0.547664,-0.371138 0.136916,-0.438617 -0.444979,-0.404871 -0.479214,-0.134955 0.136917,-0.506107 -0.376529,-0.708528 -0.855742,0.337403 0.136923,-0.641062 -0.992649,-0.573574 -0.787276,1.349591 0.06845,0.472354 -0.787274,0.337395 -0.479211,1.04593 -0.239602,-0.978447 -1.334951,-0.539838 -0.239612,-0.742274 1.814165,-1.012188 0.787273,-0.742276 0.06845,-0.877231 -0.444986,-0.23618 -0.581903,-0.06747 -1.2e-5,-10e-7 z m 14.684443,1.619505 v 0.539834 l 0.308063,0.337398 v 0.809751 l -0.17115,1.079674 0.889962,-0.168698 0.650356,-0.641062 -0.581895,-0.539827 c -0.188701,-0.49532 -0.379948,-0.94199 -0.616124,-1.41707 z m -0.75306,1.079668 -0.54766,0.168701 0.136913,0.978449 0.718811,-0.371135 z m 10.029234,8.873543 0.821508,0.944708 0.992645,2.091866 0.616136,0.674788 -0.308072,0.708536 0.547677,0.641058 c -0.25133,0.01634 -0.49473,0.03374 -0.753044,0.03374 -0.469279,-0.972001 -0.840674,-1.952246 -1.198038,-2.969103 l -0.616125,-0.674803 -0.342298,-1.214631 0.239611,-0.236179 v -4e-6 z"
     inkscape:connector-curvature="0"
     sodipodi:nodetypes="cccccccccccccccccccccccccccccccccccccccccccccccccccccccccccccccccccccccccccccccccccccccccccccccccccccccccccccccccccccccccccccccccccccccccccccccccccccccccccccccccccccccccccccccccccccccccccccccccccccccccccccccccccccccccccccccccccccccccccccccccccccccccccccccccccccccccccccccccccccccccccccccccccccccccccccccccc" />
  <g
     clip-path="url(#clipPath1093-6-9-2)"
     style="opacity:0.295;fill:url(#linearGradient1035);fill-opacity:1;stroke:none;stroke-width:2.45288992;stroke-opacity:1"
     transform="matrix(-0.39761632,0,0,-0.38666453,117.82242,38.955491)"
     id="g1048-9-0">
    <path
       style="fill:url(#linearGradient1035);fill-opacity:1;stroke:none;stroke-width:2.45288992;stroke-linecap:round;stroke-linejoin:round;stroke-opacity:1;paint-order:stroke fill markers"
       d="m 182.90279,25.861483 c 2.27001,11.278071 10.09164,15.346789 17.72959,24.080289 7.86423,8.992223 16.48386,11.773579 28.25427,9.116983 -10.76219,-2.470231 -18.13711,-10.937621 -21.24079,-18.098687 -2.70205,-6.234374 -10.4533,-38.8810968 3.03439,-60.710079 h 37.48727 25.99999 c -10.87784,0.8175 -15.69358,8.066406 -24.87646,14.5362769 -2.35518,1.866961 -4.68966,1.7573965 1.61031,2.5828165 4.45176,0.58326 9.07543,1.65396996 8.49468,1.96713996 -0.23125,0.12476 -1.49703,0.32251 -2.81284,0.43956 -5.3141,0.47276 -13.12774,2.21326004 -17.98295,4.00573004 -12.39345,4.575491 -17.47247,7.5945506 -21.12895,18.3450506 -0.38813,1.14114 -0.65143,2.0748 -0.58512,2.0748 2.71331,-4.1155 6.54206,-6.98351 9.75968,-8.2413 8,-4 31.53553,-8.5303296 41.53553,7.46967 5.29999,8.479988 11.75635,31.37208 11.80333,64.963692 0,0 -0.93263,3.29845 -3.46984,4.51202 -1.5429,0.73798 -4.26532,0.73798 -4.26532,0.73798 -10.80051,0 -31.82148,-0.0576 -31.75112,-0.12798 9.22902,-6.30758 20.17142,-17.772264 21.93476,-26.653204 0.73237,-3.928904 1.16192,-14.145 0.53829,-12.80204 -2.60645,5.612738 -3.7134,7.749209 -5.01277,9.674781 -0.84879,1.257845 -1.59837,2.287009 -1.66575,2.287009 -0.0674,0 0.40099,-1.467491 1.04081,-3.261086 1.57154,-4.405546 2.1865,-7.800489 2.17187,-11.990197 -0.0153,-4.29473 -0.69951,-7.07789 -2.75815,-11.214192 -5.00731,-10.060863 -13.15103,-14.630463 -21.0967,-11.837783 -4.27047,1.50095 -8.23416,4.852714 -9.40166,7.950205 -1.33626,3.545206 -0.79778,7.540175 1.41079,10.466564 3.14995,4.173746 8.66097,5.481985 13.35613,3.170574 5.45832,-2.687128 7.58739,-9.211441 4.79175,-14.683793 -0.67824,-1.327625 -2.71316,-3.848291 -3.87779,-4.487741 -0.34014,-0.18674 -0.4235,-0.33229 -0.19326,-0.33746 0.37522,-0.121207 1.33838,0.830081 2.47938,1.429661 4.14615,2.178747 7.39904,6.831153 8.96033,12.815449 1.26493,5.620362 1.07211,12.496266 -2.22819,15.942601 -13.27839,14.951258 -23.20978,19.505727 -44.17933,17.546737 -3.0012,-0.29505 -10.51899,-1.59818 -10.79137,-1.870561 -0.0641,-0.0641 2.07385,-0.1912 4.75081,-0.28264 4.92424,-0.1682 8.16982,-0.61529 12.79189,-1.76207 3.52095,-0.87358 3.68711,-1.03548 1.31299,-1.27934 -8.38807,-0.861598 -39.21729,-3.600413 -35.8943,-10.991975 l 0.0268,-1.161261 v -33 l -0.1327,-27.10914071 c 2.1327,18.10914071 3.32056,21.35189071 4.06971,25.78694071 z"
       id="path927-3-1-2"
       inkscape:connector-curvature="0"
       sodipodi:nodetypes="cscsccccsccscccscssccscsscssssssccscccsssssccccc" />
  </g>
  <g
     clip-path="url(#clipPath1093-6-9-2-9)"
     style="opacity:0.69199997;fill:url(#radialGradient1142-1);fill-opacity:1;stroke:none;stroke-width:2.45288992;stroke-opacity:1"
     transform="matrix(0,0.41231293,-0.40310394,0,-53.678651,-80.226689)"
     id="g1048-9-0-0">
    <path
       style="fill:url(#radialGradient1168);fill-opacity:1;stroke:none;stroke-width:2.45288992;stroke-linecap:round;stroke-linejoin:round;stroke-opacity:1;paint-order:stroke fill markers"
       d="m 194.24846,-105.82849 c 2.27001,11.278074 10.09164,15.346792 17.72959,24.080292 7.86423,8.992223 16.48386,11.773579 28.25427,9.116983 -10.76219,-2.470231 -18.13711,-10.937621 -21.24079,-18.098687 -2.70205,-6.234374 -10.4533,-38.881098 3.03439,-60.710078 h 37.48727 25.99999 c -10.87784,0.8175 -15.69358,8.0664 -24.87646,14.53628 -2.35518,1.86696 -4.68966,1.75739 1.61031,2.58281 4.45176,0.58326 9.07543,1.65397 8.49468,1.96714 -0.23125,0.12476 -1.49703,0.32251 -2.81284,0.43956 -5.3141,0.47276 -13.12774,2.21326 -17.98295,4.00573 -12.39345,4.57549 -17.47247,7.59455 -21.12895,18.34505 -0.38813,1.14114 -0.65143,2.0748 -0.58512,2.0748 2.71331,-4.1155 6.54206,-6.98351 9.75968,-8.2413 8,-4 31.53553,-8.53033 41.53553,7.46967 5.29999,8.479991 11.75635,31.372083 11.80333,64.963695 0,0 -0.93263,3.29845 -3.46984,4.51202 -1.5429,0.73798 -4.26532,0.73798 -4.26532,0.73798 -10.80051,0 -31.82148,-0.0576 -31.75112,-0.12798 9.22902,-6.30758 20.17142,-17.772264 21.93476,-26.653204 0.73237,-3.928904 1.16192,-14.145 0.53829,-12.80204 -2.60645,5.612738 -3.7134,7.749209 -5.01277,9.674781 -0.84879,1.257845 -1.59837,2.287009 -1.66575,2.287009 -0.0674,0 0.40099,-1.467491 1.04081,-3.261086 1.57154,-4.405546 2.1865,-7.800489 2.17187,-11.990197 -0.0153,-4.29473 -0.69951,-7.07789 -2.75815,-11.214192 -5.00731,-10.060866 -13.15103,-14.630466 -21.0967,-11.837786 -4.27047,1.50095 -8.23416,4.852717 -9.40166,7.950208 -1.33626,3.545206 -0.79778,7.540175 1.41079,10.466564 3.14995,4.173746 8.66097,5.481985 13.35613,3.170574 5.45832,-2.687128 7.58739,-9.211441 4.79175,-14.683793 -0.67824,-1.327625 -2.71316,-3.848293 -3.87779,-4.487743 -0.34014,-0.18674 -0.4235,-0.33229 -0.19326,-0.33746 0.37522,-0.12121 1.33838,0.83008 2.47938,1.42966 4.14615,2.17875 7.39904,6.831156 8.96033,12.815452 1.26493,5.620362 1.07211,12.496266 -2.22819,15.942601 -13.27839,14.951258 -23.20978,19.505727 -44.17933,17.546737 -3.0012,-0.29505 -10.51899,-1.59818 -10.79137,-1.870561 -0.0641,-0.0641 2.07385,-0.1912 4.75081,-0.28264 4.92424,-0.1682 8.16982,-0.61529 12.79189,-1.76207 3.52095,-0.87358 3.68711,-1.03548 1.31299,-1.27934 -8.38807,-0.861598 -39.21729,-3.600413 -35.8943,-10.991975 l 0.0268,-1.161261 v -33.000003 l -0.1327,-27.10914 c 2.1327,18.10914 3.32056,21.35189 4.06971,25.78694 z"
       id="path927-3-1-2-2"
       inkscape:connector-curvature="0"
       sodipodi:nodetypes="cscsccccsccscccscssccscsscssssssccscccsssssccccc" />
  </g>
</svg>
