<?xml version="1.0" encoding="UTF-8" standalone="no"?>
<!-- Created with Inkscape (http://www.inkscape.org/) -->

<svg
   xmlns:dc="http://purl.org/dc/elements/1.1/"
   xmlns:cc="http://creativecommons.org/ns#"
   xmlns:rdf="http://www.w3.org/1999/02/22-rdf-syntax-ns#"
   xmlns:svg="http://www.w3.org/2000/svg"
   xmlns="http://www.w3.org/2000/svg"
   xmlns:xlink="http://www.w3.org/1999/xlink"
   xmlns:sodipodi="http://sodipodi.sourceforge.net/DTD/sodipodi-0.dtd"
   xmlns:inkscape="http://www.inkscape.org/namespaces/inkscape"
   id="svg4061"
   height="48"
   width="48"
   version="1.1"
   inkscape:version="0.92.2 (unknown)"
   sodipodi:docname="com.github.thejambi.dayjournal.svg">
  <sodipodi:namedview
     pagecolor="#ffffff"
     bordercolor="#666666"
     borderopacity="1"
     objecttolerance="10"
     gridtolerance="10"
     guidetolerance="10"
     inkscape:pageopacity="0"
     inkscape:pageshadow="2"
     inkscape:window-width="1571"
     inkscape:window-height="1068"
     id="namedview46"
     showgrid="false"
     inkscape:zoom="10.716777"
     inkscape:cx="-4.208645"
     inkscape:cy="18.711865"
     inkscape:window-x="759"
     inkscape:window-y="216"
     inkscape:window-maximized="0"
     inkscape:current-layer="svg4061"
     inkscape:lockguides="true" />
  <defs
     id="defs4063">
    <linearGradient
       id="linearGradient3026"
       y2="40.496"
       gradientUnits="userSpaceOnUse"
       x2="71.204"
       gradientTransform="matrix(1.5765768,0,0,1.5907751,-89.969463,-20.329304)"
       y1="15.369"
       x1="71.204">
      <stop
         id="stop4808-4"
         stop-color="#fff"
         offset="0" />
      <stop
         id="stop4810-0"
         stop-color="#fff"
         stop-opacity=".23529"
         offset=".42448" />
      <stop
         id="stop4812-8"
         stop-color="#fff"
         stop-opacity=".15686"
         offset=".82090" />
      <stop
         id="stop4814-0"
         stop-color="#fff"
         stop-opacity=".39216"
         offset="1" />
    </linearGradient>
    <radialGradient
       id="radialGradient3029"
       fx="4.459"
       fy="8.5089"
       gradientUnits="userSpaceOnUse"
       cy="8.6258"
       cx="15.026"
       gradientTransform="matrix(-3.4973e-8 1.8855 -1.7764 -5.4723e-8 39.14 -7.9932)"
       r="20">
      <stop
         id="stop4170"
         stop-color="#ff9696"
         offset="0" />
      <stop
         id="stop4172"
         stop-color="#fd7676"
         offset="0.1668274" />
      <stop
         id="stop4174"
         stop-color="#f94040"
         offset="0.48762146" />
      <stop
         id="stop4176"
         stop-color="#e42020"
         offset="1"
         style="stop-color:#e77f5b;stop-opacity:1" />
    </radialGradient>
    <radialGradient
       id="radialGradient3032"
       gradientUnits="userSpaceOnUse"
       cy="3.99"
       cx="23.896"
       gradientTransform="matrix(0,2.8416537,-3.7174845,0,38.652691,-64.491267)"
       r="20.397">
      <stop
         id="stop3244-9-33-7-0-9"
         stop-color="#fff"
         offset="0" />
      <stop
         id="stop3246-3-5-0-8-5"
         stop-color="#ddd"
         offset=".26238" />
      <stop
         id="stop3248-1-7-8-8-1"
         stop-color="#abacae"
         offset=".66094" />
      <stop
         id="stop3250-9-3-0-5-1"
         stop-color="#89898b"
         offset="1" />
    </radialGradient>
    <radialGradient
       id="radialGradient3035"
       gradientUnits="userSpaceOnUse"
       cy="186.17"
       cx="99.157"
       gradientTransform="matrix(0.26869328,0,0,0.0869317,-2.7773479,26.359093)"
       r="62.769">
      <stop
         id="stop3822-2-6-3"
         stop-color="#3d3d3d"
         offset="0" />
      <stop
         id="stop3864-8-7-7"
         stop-color="#686868"
         stop-opacity=".49804"
         offset=".5" />
      <stop
         id="stop3824-1-2-5"
         stop-color="#686868"
         stop-opacity="0"
         offset="1" />
    </radialGradient>
    <linearGradient
       id="ButtonShadow"
       y2="7.0165"
       gradientUnits="userSpaceOnUse"
       x2="45.448"
       gradientTransform="scale(1.0059 .99417)"
       y1="92.54"
       x1="45.448">
      <stop
         id="stop3750"
         offset="0" />
      <stop
         id="stop3752"
         stop-opacity=".58824"
         offset="1" />
    </linearGradient>
    <filter
       id="filter3174"
       style="color-interpolation-filters:sRGB">
      <feGaussianBlur
         id="feGaussianBlur3176"
         stdDeviation="1.71" />
    </filter>
    <linearGradient
       id="linearGradient3185"
       y2="-167.53"
       xlink:href="#SVGID_14_"
       gradientUnits="userSpaceOnUse"
       x2="206.69"
       gradientTransform="matrix(.72832 0 0 -.72832 -295.83 -108.58)"
       y1="-167.53"
       x1="206.69" />
    <linearGradient
       id="SVGID_14_"
       y2="-167.53"
       gradientUnits="userSpaceOnUse"
       x2="206.69"
       gradientTransform="matrix(1 0 0 -1 -270.96 -122.07)"
       y1="-167.53"
       x1="206.69">
      <stop
         id="stop3506"
         stop-color="#7e9ec4"
         offset="0" />
      <stop
         id="stop3508"
         stop-color="#151d89"
         offset="1" />
    </linearGradient>
    <linearGradient
       id="linearGradient3182"
       y2="-167.53"
       xlink:href="#SVGID_14_"
       gradientUnits="userSpaceOnUse"
       x2="206.69"
       gradientTransform="matrix(.72832 0 0 -.72832 -375.83 -107.58)"
       y1="-167.53"
       x1="206.69" />
    <linearGradient
       id="linearGradient4829">
      <stop
         style="stop-color:#f4fbfc;stop-opacity:1;"
         offset="0"
         id="stop4831" />
      <stop
         style="stop-color:#d6d6d6;stop-opacity:1;"
         offset="1"
         id="stop4833" />
    </linearGradient>
    <linearGradient
       x1="12.452989"
       y1="77.089928"
       x2="12.452989"
       y2="90.580666"
       id="a"
       gradientTransform="scale(1.9272482,0.51887452)"
       gradientUnits="userSpaceOnUse">
      <stop
         stop-opacity="0"
         offset="0%"
         id="stop2" />
      <stop
         offset="49.8447963%"
         id="stop4" />
      <stop
         stop-opacity="0"
         offset="100%"
         id="stop6" />
    </linearGradient>
    <radialGradient
       cx="0"
       fx="0"
       fy="0.5"
       r="0.63682973"
       id="b">
      <stop
         offset="0%"
         id="stop9" />
      <stop
         stop-opacity="0"
         offset="100%"
         id="stop11" />
    </radialGradient>
    <radialGradient
       cx="0"
       fx="0"
       fy="0.5"
       r="0.63682973"
       id="radialGradient3848">
      <stop
         offset="0%"
         id="stop3844" />
      <stop
         stop-opacity="0"
         offset="100%"
         id="stop3846" />
    </radialGradient>
    <linearGradient
       x1="13.651115"
       y1="58.017239"
       x2="13.651115"
       y2="74.462585"
       id="c"
       gradientTransform="scale(1.7580981,0.56879646)"
       gradientUnits="userSpaceOnUse">
      <stop
         stop-color="#FFF"
         offset="0%"
         id="stop14" />
      <stop
         stop-color="#F9F9F9"
         offset="100%"
         id="stop16" />
    </linearGradient>
    <linearGradient
       x1="21.387186"
       y1="6.7330031"
       x2="21.387186"
       y2="33.157253"
       id="d"
       gradientTransform="scale(1.1221672,0.89113279)"
       gradientUnits="userSpaceOnUse">
      <stop
         stop-color="#FFD787"
         offset="0%"
         id="stop19" />
      <stop
         stop-color="#FFBF3F"
         offset="100%"
         id="stop21" />
    </linearGradient>
    <linearGradient
       x1="20.122334"
       y1="5.1458402"
       x2="20.122334"
       y2="26.373381"
       id="e"
       gradientTransform="scale(0.77028836,1.2982151)"
       gradientUnits="userSpaceOnUse">
      <stop
         stop-color="#FFF"
         stop-opacity=".4"
         offset="0%"
         id="stop24" />
      <stop
         stop-color="#FFF"
         stop-opacity="0"
         offset="100%"
         id="stop26" />
    </linearGradient>
    <linearGradient
       inkscape:collect="always"
       xlink:href="#linearGradient8967-8"
       id="linearGradient3941"
       x1="24.110859"
       y1="25.438084"
       x2="24.22678"
       y2="42.985016"
       gradientUnits="userSpaceOnUse" />
    <radialGradient
       gradientTransform="matrix(2.003784,0,0,1.4,27.98813,-17.4)"
       gradientUnits="userSpaceOnUse"
       xlink:href="#linearGradient3688-166-749"
       id="radialGradient2455-3"
       fy="43.5"
       fx="4.9929786"
       r="2.5"
       cy="43.5"
       cx="4.9929786" />
    <linearGradient
       id="linearGradient3688-166-749">
      <stop
         offset="0"
         style="stop-color:#181818;stop-opacity:1"
         id="stop2883" />
      <stop
         offset="1"
         style="stop-color:#181818;stop-opacity:0"
         id="stop2885" />
    </linearGradient>
    <radialGradient
       gradientTransform="matrix(2.003784,0,0,1.4,-20.01187,-104.4)"
       gradientUnits="userSpaceOnUse"
       xlink:href="#linearGradient3688-166-749"
       id="radialGradient2457-5"
       fy="43.5"
       fx="4.9929786"
       r="2.5"
       cy="43.5"
       cx="4.9929786" />
    <linearGradient
       id="linearGradient3702-501-757">
      <stop
         offset="0"
         style="stop-color:#181818;stop-opacity:0"
         id="stop2895" />
      <stop
         offset="0.5"
         style="stop-color:#181818;stop-opacity:1"
         id="stop2897" />
      <stop
         offset="1"
         style="stop-color:#181818;stop-opacity:0"
         id="stop2899" />
    </linearGradient>
    <linearGradient
       id="linearGradient4652">
      <stop
         offset="0"
         style="stop-color:#ed5353;stop-opacity:1"
         id="stop4654" />
      <stop
         offset="0.95970964"
         style="stop-color:#ed5353;stop-opacity:1"
         id="stop4656" />
      <stop
         offset="0.96326458"
         style="stop-color:#cec7b6;stop-opacity:1"
         id="stop4658" />
      <stop
         offset="1"
         style="stop-color:#cec7b6;stop-opacity:1"
         id="stop4660" />
    </linearGradient>
    <linearGradient
       id="linearGradient4247">
      <stop
         id="stop4249"
         style="stop-color:#333333;stop-opacity:1"
         offset="0" />
      <stop
         id="stop4251"
         style="stop-color:#4d4d4d;stop-opacity:1"
         offset="1" />
    </linearGradient>
    <radialGradient
       gradientTransform="matrix(0,1.0401752,-1.2185647,0,-75.356968,-68.698764)"
       gradientUnits="userSpaceOnUse"
       xlink:href="#linearGradient8967"
       id="radialGradient3831-7"
       fy="-44.956593"
       fx="65.341156"
       r="45.658844"
       cy="-44.956593"
       cx="65.341156" />
    <linearGradient
       id="linearGradient8967">
      <stop
         offset="0"
         style="stop-color:#ff8c82;stop-opacity:1"
         id="stop8969" />
      <stop
         offset="1"
         style="stop-color:#c6262e;stop-opacity:1"
         id="stop8971" />
    </linearGradient>
    <linearGradient
       id="linearGradient3319">
      <stop
         offset="0"
         style="stop-color:#ed5353;stop-opacity:1"
         id="stop3321" />
      <stop
         offset="1"
         style="stop-color:#a10705;stop-opacity:1"
         id="stop3323" />
    </linearGradient>
    <radialGradient
       gradientTransform="matrix(-0.01249975,1.573813,-2.5494402,-0.0545276,46.110009,0.43720711)"
       gradientUnits="userSpaceOnUse"
       xlink:href="#linearGradient4231"
       id="radialGradient3145-6"
       fy="8.4497671"
       fx="7.4956832"
       r="19.99999"
       cy="8.4497671"
       cx="7.4956832" />
    <linearGradient
       id="linearGradient4231">
      <stop
         id="stop4233"
         style="stop-color:#666666;stop-opacity:1"
         offset="0" />
      <stop
         id="stop4235"
         style="stop-color:#4d4d4d;stop-opacity:1"
         offset="0.26238" />
      <stop
         id="stop4237"
         style="stop-color:#333333;stop-opacity:1"
         offset="0.704952" />
      <stop
         id="stop4239"
         style="stop-color:#333333;stop-opacity:1"
         offset="1" />
    </linearGradient>
    <linearGradient
       inkscape:collect="always"
       xlink:href="#linearGradient4247"
       id="linearGradient4064"
       gradientUnits="userSpaceOnUse"
       gradientTransform="matrix(1.0312199,0.02205579,-0.00534866,0.6734359,-0.24805979,7.821161)"
       x1="24"
       y1="44"
       x2="24"
       y2="3.8990016" />
    <linearGradient
       id="linearGradient3731">
      <stop
         offset="0"
         style="stop-color:#ffffff;stop-opacity:1"
         id="stop3733" />
      <stop
         offset="0.02706478"
         style="stop-color:#ffffff;stop-opacity:0.23529412"
         id="stop3735" />
      <stop
         offset="0.97377032"
         style="stop-color:#ffffff;stop-opacity:0.15686275"
         id="stop3737" />
      <stop
         offset="1"
         style="stop-color:#ffffff;stop-opacity:0.39215687"
         id="stop3739" />
    </linearGradient>
    <radialGradient
       gradientTransform="matrix(0.4509955,-0.06837636,0.00550781,0.02995443,-50.956498,1.8169898)"
       gradientUnits="userSpaceOnUse"
       xlink:href="#linearGradient4225"
       id="radialGradient3231-6"
       fy="114.8309"
       fx="64.388718"
       r="52.5"
       cy="114.8309"
       cx="64.388718" />
    <linearGradient
       id="linearGradient4225">
      <stop
         offset="0"
         style="stop-color:#000000;stop-opacity:1"
         id="stop4227" />
      <stop
         offset="1"
         style="stop-color:#000000;stop-opacity:0.29605263"
         id="stop4229" />
    </linearGradient>
    <linearGradient
       id="linearGradient3707-319-631-407-324-616-674-812-821-107-178-392-400-6-7-4">
      <stop
         offset="0"
         style="stop-color:#272727;stop-opacity:1"
         id="stop5440-4-4-7" />
      <stop
         offset="1"
         style="stop-color:#454545;stop-opacity:1"
         id="stop5442-3-5-4" />
    </linearGradient>
    <linearGradient
       inkscape:collect="always"
       xlink:href="#linearGradient3707-319-631-407-324-616-674-812-821-107-178-392-400-6-7-4"
       id="linearGradient4070"
       gradientUnits="userSpaceOnUse"
       x1="-41.022976"
       y1="37.635956"
       x2="-41.981403"
       y2="89.235077" />
    <linearGradient
       inkscape:collect="always"
       xlink:href="#linearGradient3707-319-631-407-324-616-674-812-821-107-178-392-400-6-7-4"
       id="linearGradient4080"
       gradientUnits="userSpaceOnUse"
       x1="-41.022976"
       y1="37.635956"
       x2="-41.981403"
       y2="89.235077" />
    <linearGradient
       id="linearGradient2346">
      <stop
         id="stop2348"
         style="stop-color:#eeeeee;stop-opacity:1"
         offset="0" />
      <stop
         id="stop2350"
         style="stop-color:#d9d9da;stop-opacity:1"
         offset="1" />
    </linearGradient>
    <linearGradient
       id="linearGradient3319-8">
      <stop
         id="stop3321-8"
         style="stop-color:#7189a7;stop-opacity:1;"
         offset="0" />
      <stop
         id="stop3323-6"
         style="stop-color:#45556f;stop-opacity:1;"
         offset="1" />
    </linearGradient>
    <linearGradient
       id="linearGradient8967-8">
      <stop
         id="stop8969-3"
         style="stop-color:#5e9af3;stop-opacity:1;"
         offset="0" />
      <stop
         id="stop8971-8"
         style="stop-color:#2d3c59;stop-opacity:1;"
         offset="1" />
    </linearGradient>
    <linearGradient
       id="linearGradient2867-449-88-871-390-598-476-591-434-148-57-177-641-289-620-227-114-444-680-744-8">
      <stop
         id="stop5430-8"
         style="stop-color:#5f5f5f;stop-opacity:1"
         offset="0" />
      <stop
         id="stop5432-3"
         style="stop-color:#4f4f4f;stop-opacity:1"
         offset="0.26238" />
      <stop
         id="stop5434-1"
         style="stop-color:#3b3b3b;stop-opacity:1"
         offset="0.704952" />
      <stop
         id="stop5436-8"
         style="stop-color:#2b2b2b;stop-opacity:1"
         offset="1" />
    </linearGradient>
    <linearGradient
       id="linearGradient3026-3"
       y2="40.495998"
       gradientUnits="userSpaceOnUse"
       x2="71.204002"
       gradientTransform="matrix(0.90090103,0,0,0.90901435,-41.280262,-1.1782182)"
       y1="15.369"
       x1="71.204002">
      <stop
         id="stop4808-4-6"
         stop-color="#fff"
         offset="0" />
      <stop
         id="stop4810-0-0"
         stop-color="#fff"
         stop-opacity=".23529"
         offset=".42448" />
      <stop
         id="stop4812-8-5"
         stop-color="#fff"
         stop-opacity=".15686"
         offset=".82090" />
      <stop
         id="stop4814-0-0"
         stop-color="#fff"
         stop-opacity=".39216"
         offset="1" />
    </linearGradient>
    <radialGradient
       id="radialGradient3032-2"
       gradientUnits="userSpaceOnUse"
       cy="3.99"
       cx="23.896"
       gradientTransform="matrix(0,1.6238022,-2.124277,0,32.218108,-26.413627)"
       r="20.396999">
      <stop
         id="stop3244-9-33-7-0-9-9"
         stop-color="#fff"
         offset="0" />
      <stop
         id="stop3246-3-5-0-8-5-4"
         stop-color="#ddd"
         offset=".26238" />
      <stop
         id="stop3248-1-7-8-8-1-3"
         stop-color="#abacae"
         offset=".66094" />
      <stop
         id="stop3250-9-3-0-5-1-5"
         stop-color="#89898b"
         offset="1" />
    </radialGradient>
  </defs>
  <metadata
     id="metadata4066">
    <rdf:RDF>
      <cc:Work
         rdf:about="">
        <dc:format>image/svg+xml</dc:format>
        <dc:type
           rdf:resource="http://purl.org/dc/dcmitype/StillImage" />
        <dc:title></dc:title>
      </cc:Work>
    </rdf:RDF>
  </metadata>
  <g
     id="layer2"
     display="none"
     transform="translate(-226.12 -28.077)">
    <rect
       id="rect3745"
       opacity=".9"
       rx="6"
       ry="6"
       height="85"
       filter="url(#filter3174)"
       width="86"
       y="7"
       x="5"
       fill="url(#ButtonShadow)" />
  </g>
  <path
     style="fill:url(#radialGradient3035);stroke-width:0.99211049"
     inkscape:connector-curvature="0"
     id="path3818-0-5"
     d="m 40.731757,42.543392 a 16.865878,5.4566081 0 0 1 -33.731757,0 16.865878,5.4566081 0 1 1 33.731757,0 z" />
  <path
     inkscape:connector-curvature="0"
     id="path2555-7-2"
     style="color:#000000;fill:url(#radialGradient3032);stroke-width:0.97938162"
     d="m 23.819999,3.8323756 c -11.028239,0 -19.9875247,9.0399704 -19.9875247,20.1675254 0,11.127556 8.9592857,20.167526 19.9875247,20.167526 11.028237,0 19.987523,-9.03997 19.987523,-20.167526 0,-11.127555 -8.959286,-20.1675254 -19.987523,-20.1675254 z" />
  <path
     inkscape:connector-curvature="0"
     id="path2555-7-65"
     style="color:#000000;fill:url(#linearGradient3941);fill-opacity:1.0;stroke-width:0.97938162"
     d="m 23.819999,3.8323756 c -11.028239,0 -19.9875247,9.0399704 -19.9875247,20.1675254 0,11.127556 8.9592857,20.167526 19.9875247,20.167526 11.028237,0 19.987523,-9.03997 19.987523,-20.167526 0,-11.127555 -8.959286,-20.1675254 -19.987523,-20.1675254 z" />
  <path
     inkscape:connector-curvature="0"
     id="path4176"
     style="color:#000000;opacity:0.5;fill:none;stroke:url(#linearGradient3026);stroke-width:0.97938162;stroke-linecap:round;stroke-linejoin:round"
     d="m 42.832521,23.999901 c 0,10.59533 -8.51176,19.183745 -19.012522,19.183745 -10.500763,0 -19.0125234,-8.588415 -19.0125234,-19.183745 0,-10.595329 8.5117604,-19.1837437 19.0125234,-19.1837437 10.500762,0 19.012522,8.5884147 19.012522,19.1837437 z" />
  <path
     inkscape:connector-curvature="0"
     d="m 9.5244586,11.061152 -0.2085985,26.264 -3.6451399,-3.95542 C 5.0820505,33.357143 3.6529622,27.139529 3.6558412,26.77693 L 7.0124273,12.069518 Z"
     id="rect5505-21-3-5"
     style="color:#000000;display:inline;overflow:visible;visibility:visible;fill:url(#radialGradient3145-6);fill-opacity:1;fill-rule:nonzero;stroke:url(#linearGradient4064);stroke-width:0.3165116;stroke-linecap:round;stroke-linejoin:round;stroke-miterlimit:4;stroke-dasharray:none;stroke-dashoffset:0;stroke-opacity:1;marker:none;enable-background:accumulate;opacity:0.956"
     sodipodi:nodetypes="cccccc" />
  <path
     inkscape:connector-curvature="0"
     id="path2555-7-1-7"
     style="color:#000000;opacity:1;fill:none;stroke:#ffffff;stroke-width:1.6649487;stroke-linecap:round;stroke-linejoin:round;stroke-miterlimit:4;stroke-dasharray:none;stroke-opacity:1"
     d="M 23.819999,3.832474 C 12.79176,3.832474 3.8324743,12.872248 3.8324743,24 c 0,11.127753 8.9590917,20.167525 19.9875247,20.167525 11.028433,0 19.987523,-9.039772 19.987523,-20.167525 0,-11.127752 -8.959286,-20.167526 -19.987523,-20.167526 z" />
  <g
     style="font-style:normal;font-weight:normal;font-size:35px;line-height:125%;font-family:sans-serif;letter-spacing:0px;word-spacing:0px;fill:#ffffff;fill-opacity:0.25657899;stroke:none;stroke-width:1px;stroke-linecap:butt;stroke-linejoin:miter;stroke-opacity:1"
     id="text4702-3-2"
     transform="matrix(0.36081277,0.00651966,0.00478985,0.35989435,38.285564,3.77005)">
    <path
       d="m -29.45071,78.915253 -3.66211,-10.546875 h -15.732422 l -3.662109,10.546875 h -8.642578 l 15.058594,-41.279297 h 10.195312 l 15,41.279297 z m -11.542969,-34.921875 -0.175781,0.644531 q -0.292969,1.054687 -0.703125,2.402344 -0.410157,1.347656 -5.039063,14.824218 h 11.865235 l -4.072266,-11.865234 -1.259766,-3.984375 z"
       style="font-style:normal;font-variant:normal;font-weight:bold;font-stretch:normal;font-size:60px;font-family:sans-serif;-inkscape-font-specification:'sans-serif Bold';fill:#ffffff;fill-opacity:0.25657899"
       id="path4707-6-8"
       inkscape:connector-curvature="0" />
  </g>
  <g
     style="font-style:normal;font-weight:normal;font-size:35px;line-height:125%;font-family:sans-serif;letter-spacing:0px;word-spacing:0px;fill:url(#linearGradient4070);fill-opacity:1;stroke:none;stroke-width:1px;stroke-linecap:butt;stroke-linejoin:miter;stroke-opacity:1"
     id="text4702-9"
     transform="matrix(0.36081277,0.00651966,0.00478985,0.35989435,38.280621,3.3986457)">
    <path
       d="m -29.45071,78.915253 -3.66211,-10.546875 h -15.732422 l -3.662109,10.546875 h -8.642578 l 15.058594,-41.279297 h 10.195312 l 15,41.279297 z m -11.542969,-34.921875 -0.175781,0.644531 q -0.292969,1.054687 -0.703125,2.402344 -0.410157,1.347656 -5.039063,14.824218 h 11.865235 l -4.072266,-11.865234 -1.259766,-3.984375 z"
       style="font-style:normal;font-variant:normal;font-weight:bold;font-stretch:normal;font-size:60px;font-family:sans-serif;-inkscape-font-specification:'sans-serif Bold';fill:url(#linearGradient4080);fill-opacity:1"
       id="path4707-7"
       inkscape:connector-curvature="0" />
  </g>
  <path
     inkscape:connector-curvature="0"
     id="path2555-7-2-1"
     style="color:#000000;fill:url(#radialGradient3032-2);stroke-width:0.55964667"
     d="m 23.742284,12.628456 c -6.301851,0 -11.421443,5.165698 -11.421443,11.524301 0,6.358603 5.119592,11.5243 11.421443,11.5243 6.30185,0 11.421442,-5.165697 11.421442,-11.5243 0,-6.358603 -5.119592,-11.524301 -11.421442,-11.524301 z" />
  <path
     inkscape:connector-curvature="0"
     id="path2555-7-65-7"
     style="color:#000000;fill:#f2f2f2;fill-opacity:1;stroke-width:0.55964667"
     d="m 23.742284,12.628456 c -6.301851,0 -11.421443,5.165698 -11.421443,11.524301 0,6.358603 5.119592,11.5243 11.421443,11.5243 6.30185,0 11.421442,-5.165697 11.421442,-11.5243 0,-6.358603 -5.119592,-11.524301 -11.421442,-11.524301 z" />
  <path
     inkscape:connector-curvature="0"
     id="path4176-4"
     style="color:#000000;opacity:0.5;fill:none;stroke:url(#linearGradient3026-3);stroke-width:0.55964667;stroke-linecap:round;stroke-linejoin:round"
     d="m 34.606583,24.152757 c 0,6.054474 -4.863863,10.96214 -10.864299,10.96214 -6.000436,0 -10.864299,-4.907666 -10.864299,-10.96214 0,-6.054474 4.863863,-10.962139 10.864299,-10.962139 6.000436,0 10.864299,4.907665 10.864299,10.962139 z" />
  <path
     style="opacity:1;fill:#e8574f;fill-opacity:1;stroke:#ffffff;stroke-width:0;stroke-miterlimit:4;stroke-dasharray:none;stroke-opacity:1"
     id="path3943"
     sodipodi:type="arc"
     sodipodi:cx="-23.714903"
     sodipodi:cy="-18.946085"
     sodipodi:rx="9.5674696"
     sodipodi:ry="5.8315334"
     sodipodi:start="0.0083771703"
     sodipodi:end="3.1418914"
     d="m -14.147769,-18.897234 a 9.5674696,5.8315334 0 0 1 -9.608637,5.782628 9.5674696,5.8315334 0 0 1 -9.525966,-5.833221 l 9.567469,0.0017 z"
     transform="rotate(-179.95586)" />
  <path
     inkscape:connector-curvature="0"
     id="path2555-7-1-7-3"
     style="color:#000000;opacity:1;fill:none;stroke:#ffffff;stroke-width:0.95139927;stroke-linecap:round;stroke-linejoin:round;stroke-miterlimit:4;stroke-dasharray:none;stroke-opacity:1"
     d="m 23.742284,12.628513 c -6.301851,0 -11.421443,5.165585 -11.421443,11.5243 0,6.358716 5.119481,11.524301 11.421443,11.524301 6.301962,0 11.421442,-5.165585 11.421442,-11.524301 0,-6.358715 -5.119592,-11.5243 -11.421442,-11.5243 z" />
  <g
     transform="matrix(0.41229808,7.2469692e-4,-7.2469692e-4,0.41229808,172.11966,-432.44922)"
     style="font-style:normal;font-weight:normal;font-size:11.1793623px;line-height:125%;font-family:Sans;letter-spacing:0px;word-spacing:0px;fill:#ffffff;fill-opacity:1;stroke:none"
     id="text9362">
    <path
       d="m -363.23938,1094.1941 v -6.5176 l -2.89546,5.0419 h -0.45835 l -2.90664,-5.0419 v 6.5176 h -0.77137 v -7.9374 h 0.79373 l 3.10787,5.4332 3.10786,-5.4332 h 0.79373 v 7.9374 h -0.77137"
       style="font-variant:normal;font-stretch:normal;line-height:125%;font-family:Raleway;-inkscape-font-specification:Raleway;text-align:start;writing-mode:lr-tb;text-anchor:start;fill:#ffffff"
       id="path9374"
       inkscape:connector-curvature="0" />
    <path
       d="m -361.28404,1094.1941 3.32027,-7.9374 h 0.63722 l 3.32027,7.9374 h -0.83845 l -1.0285,-2.4818 h -3.56622 l -1.01732,2.4818 h -0.82727 m 3.64447,-7.0206 -1.63219,3.9239 h 3.21966 l -1.58747,-3.9239"
       style="font-variant:normal;font-stretch:normal;line-height:125%;font-family:Raleway;-inkscape-font-specification:Raleway;text-align:start;writing-mode:lr-tb;text-anchor:start;fill:#ffffff"
       id="path9376"
       inkscape:connector-curvature="0" />
    <path
       d="m -352.84712,1094.1941 v -7.9374 h 3.34263 c 0.34283,1e-4 0.65958,0.075 0.95025,0.2236 0.29066,0.1416 0.54033,0.3317 0.74901,0.5702 0.20868,0.231 0.36892,0.4956 0.48072,0.7937 0.11924,0.2981 0.17886,0.6 0.17887,0.9055 -10e-6,0.2907 -0.0447,0.5702 -0.13416,0.8385 -0.082,0.2609 -0.20123,0.4993 -0.35773,0.7155 -0.15652,0.2087 -0.34284,0.3875 -0.55897,0.5366 -0.21614,0.1416 -0.45836,0.2385 -0.72666,0.2906 l 1.95639,3.0632 h -0.88317 l -1.87814,-2.929 h -2.34766 v 2.929 h -0.77138 m 0.77138,-3.6221 h 2.60479 c 0.23104,0 0.43972,-0.048 0.62604,-0.1454 0.19377,-0.1043 0.35774,-0.2422 0.4919,-0.4136 0.13414,-0.1714 0.23848,-0.3652 0.31302,-0.5813 0.0745,-0.2161 0.11179,-0.4435 0.11179,-0.682 0,-0.2384 -0.0447,-0.4658 -0.13415,-0.6819 -0.082,-0.2236 -0.19751,-0.4174 -0.34656,-0.5813 -0.14161,-0.164 -0.31303,-0.2944 -0.51425,-0.3913 -0.19378,-0.097 -0.39874,-0.1453 -0.61487,-0.1453 h -2.53771 v 3.6221"
       style="font-variant:normal;font-stretch:normal;line-height:125%;font-family:Raleway;-inkscape-font-specification:Raleway;text-align:start;writing-mode:lr-tb;text-anchor:start;fill:#ffffff"
       id="path9378"
       inkscape:connector-curvature="0" />
  </g>
  <g
     transform="matrix(0.41176836,-0.02090575,0.02090575,0.41176836,148.24071,-440.06222)"
     style="font-style:normal;font-weight:normal;font-size:35.24000549px;line-height:125%;font-family:Sans;letter-spacing:0px;word-spacing:0px;fill:#000000;fill-opacity:1;stroke:none"
     id="text9366">
    <path
       inkscape:connector-curvature="0"
       d="m -350.0286,1118.4169 c -2e-5,1.1982 -0.23495,2.3141 -0.7048,3.3478 -0.44639,1.0337 -1.06896,1.9382 -1.86772,2.7135 -0.77529,0.7752 -1.70328,1.3861 -2.78396,1.8324 -1.08071,0.4464 -2.23188,0.6696 -3.45352,0.6696 -1.29214,0 -2.4903,-0.2349 -3.59448,-0.7048 -1.0807,-0.4699 -2.02043,-1.1394 -2.8192,-2.0087 -0.77528,-0.8692 -1.38611,-1.9264 -1.83248,-3.1716 -0.44638,-1.2686 -0.66956,-2.7017 -0.66956,-4.2993 0,-2.6312 0.22318,-4.91 0.66956,-6.8365 0.44637,-1.9265 1.06894,-3.524 1.86772,-4.7927 0.79877,-1.2686 1.75025,-2.2083 2.85444,-2.8192 1.12767,-0.6108 2.36107,-0.9162 3.7002,-0.9162 1.69151,0 3.19508,0.4347 4.51072,1.3039 1.31561,0.8693 2.27884,2.0557 2.88968,3.5592 l -1.2334,0.9515 c -0.46988,-1.2686 -1.26865,-2.2906 -2.39632,-3.0659 -1.1042,-0.7752 -2.36109,-1.1629 -3.77068,-1.1629 -1.1042,0 -2.11441,0.2702 -3.03064,0.8105 -0.89275,0.5169 -1.65629,1.2922 -2.2906,2.3259 -0.63432,1.0102 -1.13943,2.2553 -1.51532,3.7354 -0.3524,1.4801 -0.5286,3.1716 -0.5286,5.0746 0.25842,-0.7518 0.63432,-1.4331 1.12768,-2.044 0.49335,-0.6343 1.05719,-1.1746 1.69152,-1.621 0.65781,-0.4464 1.37435,-0.787 2.14964,-1.022 0.77527,-0.2584 1.58579,-0.3876 2.43156,-0.3876 1.19815,0 2.31408,0.2232 3.3478,0.6696 1.05719,0.4464 1.97343,1.0572 2.74872,1.8324 0.77526,0.7753 1.38609,1.6798 1.83248,2.7135 0.44636,1.0337 0.66954,2.1379 0.66956,3.3126 m -8.73952,6.9775 c 0.96322,0 1.86771,-0.1762 2.71348,-0.5286 0.84575,-0.3759 1.58579,-0.881 2.22012,-1.5153 0.63431,-0.6343 1.13941,-1.3744 1.51532,-2.2201 0.37588,-0.8458 0.56382,-1.7503 0.56384,-2.7135 -2e-5,-0.9632 -0.18796,-1.8677 -0.56384,-2.7135 -0.37591,-0.8457 -0.88101,-1.5858 -1.51532,-2.2201 -0.63433,-0.6343 -1.38612,-1.1394 -2.25536,-1.5153 -0.84577,-0.3759 -1.75026,-0.5639 -2.71348,-0.5639 -0.96324,0 -1.87947,0.188 -2.74872,0.5639 -0.84577,0.3759 -1.58581,0.881 -2.22012,1.5153 -0.63433,0.6343 -1.13943,1.3744 -1.51532,2.2201 -0.3759,0.8458 -0.56384,1.7503 -0.56384,2.7135 0,0.9632 0.18794,1.8677 0.56384,2.7135 0.37589,0.8457 0.88099,1.5858 1.51532,2.2201 0.65781,0.6343 1.40959,1.1394 2.25536,1.5153 0.86925,0.3524 1.78548,0.5286 2.74872,0.5286"
       style="font-variant:normal;font-weight:300;font-stretch:normal;line-height:125%;font-family:Raleway;-inkscape-font-specification:'Raleway Light';text-align:start;writing-mode:lr-tb;text-anchor:start"
       id="path9371" />
  </g>
</svg>
