<?xml version="1.0" encoding="UTF-8" standalone="no"?>
<!-- Created with Inkscape (http://www.inkscape.org/) -->

<svg
   xmlns:dc="http://purl.org/dc/elements/1.1/"
   xmlns:cc="http://creativecommons.org/ns#"
   xmlns:rdf="http://www.w3.org/1999/02/22-rdf-syntax-ns#"
   xmlns:svg="http://www.w3.org/2000/svg"
   xmlns="http://www.w3.org/2000/svg"
   xmlns:xlink="http://www.w3.org/1999/xlink"
   xmlns:sodipodi="http://sodipodi.sourceforge.net/DTD/sodipodi-0.dtd"
   xmlns:inkscape="http://www.inkscape.org/namespaces/inkscape"
   id="svg4061"
   height="48"
   width="48"
   version="1.1"
   inkscape:version="0.92.2 (unknown)"
   sodipodi:docname="com.github.robertsanseries.ciano.svg">
  <sodipodi:namedview
     pagecolor="#ffffff"
     bordercolor="#666666"
     borderopacity="1"
     objecttolerance="10"
     gridtolerance="10"
     guidetolerance="10"
     inkscape:pageopacity="0"
     inkscape:pageshadow="2"
     inkscape:window-width="1378"
     inkscape:window-height="894"
     id="namedview40"
     showgrid="false"
     inkscape:zoom="9.8333333"
     inkscape:cx="13.745763"
     inkscape:cy="13.352681"
     inkscape:window-x="433"
     inkscape:window-y="214"
     inkscape:window-maximized="0"
     inkscape:current-layer="g4206" />
  <defs
     id="defs4063">
    <linearGradient
       inkscape:collect="always"
       id="linearGradient3361">
      <stop
         style="stop-color:#0068e0;stop-opacity:1;"
         offset="0"
         id="stop3363" />
      <stop
         style="stop-color:#00acf4;stop-opacity:1"
         offset="1"
         id="stop3365" />
    </linearGradient>
    <linearGradient
       id="linearGradient3026"
       y2="40.495998"
       gradientUnits="userSpaceOnUse"
       x2="71.204002"
       gradientTransform="matrix(1.5867756,0,0,1.5867757,-90.525557,-20.217856)"
       y1="15.369"
       x1="71.204002"
       xlink:href="#linearGradient3361">
      <stop
         id="stop4808-4"
         stop-color="#fff"
         offset="0" />
      <stop
         id="stop4810-0"
         stop-color="#fff"
         stop-opacity=".23529"
         offset=".42448" />
      <stop
         id="stop4812-8"
         stop-color="#fff"
         stop-opacity=".15686"
         offset=".82090" />
      <stop
         id="stop4814-0"
         stop-color="#fff"
         stop-opacity=".39216"
         offset="1" />
    </linearGradient>
    <radialGradient
       id="radialGradient3029"
       fx="4.459"
       fy="8.5089"
       gradientUnits="userSpaceOnUse"
       cy="8.6258"
       cx="15.026"
       gradientTransform="matrix(-3.4973e-8 1.8855 -1.7764 -5.4723e-8 39.14 -7.9932)"
       r="20">
      <stop
         id="stop4170"
         stop-color="#c24251"
         offset="0" />
      <stop
         id="stop4172"
         stop-color="#c24251"
         offset=".26238" />
      <stop
         id="stop4174"
         stop-color="#a63643"
         offset=".66094" />
      <stop
         id="stop4176"
         stop-color="#a63643"
         offset="1" />
    </radialGradient>
    <radialGradient
       id="radialGradient3032"
       gradientUnits="userSpaceOnUse"
       cy="3.99"
       cx="23.896"
       gradientTransform="matrix(0,2.8345094,-3.7415326,0,38.928644,-64.268791)"
       r="20.397">
      <stop
         id="stop3244-9-33-7-0-9"
         stop-color="#fff"
         offset="0" />
      <stop
         id="stop3246-3-5-0-8-5"
         stop-color="#ddd"
         offset=".26238" />
      <stop
         id="stop3248-1-7-8-8-1"
         stop-color="#abacae"
         offset=".66094" />
      <stop
         id="stop3250-9-3-0-5-1"
         stop-color="#89898b"
         offset="1" />
    </radialGradient>
    <radialGradient
       id="radialGradient3035"
       gradientUnits="userSpaceOnUse"
       cy="186.17"
       cx="99.157"
       gradientTransform="matrix(0.27083,0,0,0.087623,-2.8551,26.187)"
       r="62.769">
      <stop
         id="stop3822-2-6-3"
         stop-color="#3d3d3d"
         offset="0" />
      <stop
         id="stop3864-8-7-7"
         stop-color="#686868"
         stop-opacity=".49804"
         offset=".5" />
      <stop
         id="stop3824-1-2-5"
         stop-color="#686868"
         stop-opacity="0"
         offset="1" />
    </radialGradient>
    <linearGradient
       id="linearGradient4433"
       y2="25.611"
       gradientUnits="userSpaceOnUse"
       x2="23.078"
       gradientTransform="matrix(1 0 0 1.0521 0 -.90547)"
       y1="13.035"
       x1="22.759">
      <stop
         id="stop6305-1-0-2"
         stop-color="#fff"
         offset="0" />
      <stop
         id="stop6307-5-0-6"
         stop-color="#fff"
         stop-opacity="0"
         offset="1" />
    </linearGradient>
    <linearGradient
       inkscape:collect="always"
       xlink:href="#linearGradient3361"
       id="linearGradient3367"
       x1="25.016949"
       y1="36"
       x2="25.016951"
       y2="9.7627115"
       gradientUnits="userSpaceOnUse"
       gradientTransform="matrix(0.98130838,0,0,0.98130843,0.44859809,0.44849933)" />
    <linearGradient
       id="linearGradient4829">
      <stop
         style="stop-color:#f4fbfc;stop-opacity:1;"
         offset="0"
         id="stop4831" />
      <stop
         style="stop-color:#d6d6d6;stop-opacity:1;"
         offset="1"
         id="stop4833" />
    </linearGradient>
    <radialGradient
       id="SVGID_4_"
       cx="224.50391"
       cy="186.51421"
       r="127.0051"
       gradientUnits="userSpaceOnUse">
      <stop
         offset="0"
         style="stop-color:#FFFFFF"
         id="stop27" />
      <stop
         offset="0.3984"
         style="stop-color:#FDFEFF"
         id="stop29" />
      <stop
         offset="0.6131"
         style="stop-color:#F5FAFF"
         id="stop31" />
      <stop
         offset="0.7841"
         style="stop-color:#E7F3FF"
         id="stop33" />
      <stop
         offset="0.9311"
         style="stop-color:#D4EAFF"
         id="stop35" />
      <stop
         offset="1"
         style="stop-color:#C8E4FF"
         id="stop37" />
    </radialGradient>
    <radialGradient
       gradientUnits="userSpaceOnUse"
       r="26.769501"
       cy="286.66409"
       cx="324.69339"
       id="SVGID_5_">
      <stop
         id="stop50"
         style="stop-color:#FFFFFF"
         offset="0" />
      <stop
         id="stop52"
         style="stop-color:#FDFEFF"
         offset="0.3984" />
      <stop
         id="stop54"
         style="stop-color:#F5FAFF"
         offset="0.6131" />
      <stop
         id="stop56"
         style="stop-color:#E7F3FF"
         offset="0.7841" />
      <stop
         id="stop58"
         style="stop-color:#D4EAFF"
         offset="0.9311" />
      <stop
         id="stop60"
         style="stop-color:#C8E4FF"
         offset="1" />
    </radialGradient>
    <radialGradient
       gradientUnits="userSpaceOnUse"
       r="46.444901"
       cy="392.77249"
       cx="325"
       id="SVGID_6_">
      <stop
         id="stop73"
         style="stop-color:#FFFFFF"
         offset="0" />
      <stop
         id="stop75"
         style="stop-color:#FDFEFF"
         offset="0.3984" />
      <stop
         id="stop77"
         style="stop-color:#F5FAFF"
         offset="0.6131" />
      <stop
         id="stop79"
         style="stop-color:#E7F3FF"
         offset="0.7841" />
      <stop
         id="stop81"
         style="stop-color:#D4EAFF"
         offset="0.9311" />
      <stop
         id="stop83"
         style="stop-color:#C8E4FF"
         offset="1" />
    </radialGradient>
    <clipPath
       id="clipPath-349538100">
      <g
         id="g17"
         transform="translate(0,-1004.4)">
        <path
           style="fill:#1890d0"
           inkscape:connector-curvature="0"
           id="path19"
           d="m -24,13 c 0,1.105 -0.672,2 -1.5,2 -0.828,0 -1.5,-0.895 -1.5,-2 0,-1.105 0.672,-2 1.5,-2 0.828,0 1.5,0.895 1.5,2 z"
           transform="matrix(15.333,0,0,11.5,415,878.86)" />
      </g>
    </clipPath>
    <clipPath
       id="clipPath3914">
      <g
         id="g3912"
         transform="translate(0,-1004.4)">
        <path
           style="fill:#1890d0"
           inkscape:connector-curvature="0"
           id="path3910"
           d="m -24,13 c 0,1.105 -0.672,2 -1.5,2 -0.828,0 -1.5,-0.895 -1.5,-2 0,-1.105 0.672,-2 1.5,-2 0.828,0 1.5,0.895 1.5,2 z"
           transform="matrix(15.333,0,0,11.5,415,878.86)" />
      </g>
    </clipPath>
    <clipPath
       id="clipPath3920">
      <g
         id="g3918"
         transform="translate(0,-1004.4)">
        <path
           style="fill:#1890d0"
           inkscape:connector-curvature="0"
           id="path3916"
           d="m -24,13 c 0,1.105 -0.672,2 -1.5,2 -0.828,0 -1.5,-0.895 -1.5,-2 0,-1.105 0.672,-2 1.5,-2 0.828,0 1.5,0.895 1.5,2 z"
           transform="matrix(15.333,0,0,11.5,415,878.86)" />
      </g>
    </clipPath>
    <filter
       style="color-interpolation-filters:sRGB;"
       inkscape:label="Drop Shadow"
       id="filter129">
      <feFlood
         flood-opacity="0.498039"
         flood-color="rgb(0,0,0)"
         result="flood"
         id="feFlood119" />
      <feComposite
         in="flood"
         in2="SourceGraphic"
         operator="in"
         result="composite1"
         id="feComposite121" />
      <feGaussianBlur
         in="composite1"
         stdDeviation="3"
         result="blur"
         id="feGaussianBlur123" />
      <feOffset
         dx="6"
         dy="6"
         result="offset"
         id="feOffset125" />
      <feComposite
         in="SourceGraphic"
         in2="offset"
         operator="over"
         result="composite2"
         id="feComposite127" />
    </filter>
  </defs>
  <metadata
     id="metadata4066">
    <rdf:RDF>
      <cc:Work
         rdf:about="">
        <dc:format>image/svg+xml</dc:format>
        <dc:type
           rdf:resource="http://purl.org/dc/dcmitype/StillImage" />
        <dc:title />
      </cc:Work>
    </rdf:RDF>
  </metadata>
  <g
     id="g4206">
    <path
       id="path3818-0-5"
       d="m 41,42.5 a 17,5.5 0 0 1 -34,0 17,5.5 0 1 1 34,0 z"
       inkscape:connector-curvature="0"
       style="fill:url(#radialGradient3035)" />
    <path
       id="path2555-7-2"
       style="color:#000000;fill:url(#radialGradient3032);stroke-width:0.9813084"
       d="m 24,3.8830788 c -11.099579,0 -20.1168224,9.0172432 -20.1168224,20.1168222 0,11.09958 9.0172434,20.116824 20.1168224,20.116824 11.099579,0 20.116823,-9.017244 20.116823,-20.116824 C 44.116823,12.900322 35.099579,3.8830788 24,3.8830788 Z"
       inkscape:connector-curvature="0" />
    <path
       id="path2555-7-65"
       style="color:#000000;fill:url(#linearGradient3367);fill-opacity:1;stroke-width:0.9813084"
       d="m 24,3.8830788 c -11.099579,0 -20.1168224,9.0172432 -20.1168224,20.1168222 0,11.09958 9.0172434,20.116824 20.1168224,20.116824 11.099579,0 20.116823,-9.017244 20.116823,-20.116824 C 44.116823,12.900322 35.099579,3.8830788 24,3.8830788 Z"
       inkscape:connector-curvature="0" />
    <path
       id="path4176"
       style="color:#000000;opacity:0.5;fill:none;stroke:url(#linearGradient3026);stroke-width:0.9813084;stroke-linecap:round;stroke-linejoin:round"
       d="M 43.135514,23.999901 C 43.135514,34.568593 34.568691,43.135416 24,43.135416 13.431309,43.135416 4.864486,34.568593 4.864486,23.999901 4.864486,13.43121 13.431309,4.8643872 24,4.8643872 c 10.568691,0 19.135514,8.5668228 19.135514,19.1355138 z"
       inkscape:connector-curvature="0" />
    <path
       id="path2555-7-1-7"
       style="color:#000000;opacity:1;fill:none;fill-opacity:1;stroke:#fbfbfb;stroke-width:1.76635504;stroke-linecap:round;stroke-linejoin:round;stroke-miterlimit:4;stroke-dasharray:none;stroke-opacity:1"
       d="m 24,3.8831769 c -11.099579,0 -20.1168224,9.0170471 -20.1168224,20.1168221 0,11.099776 9.0170464,20.116824 20.1168224,20.116824 11.099776,0 20.116823,-9.017048 20.116823,-20.116824 C 44.116823,12.900224 35.099579,3.8831769 24,3.8831769 Z"
       inkscape:connector-curvature="0" />
    <g
       id="g4317"
       transform="matrix(1.0002,0,0,1.0004,-1.0018,-0.0050486)"
       style="fill:none;stroke:#000000;stroke-linecap:round;stroke-linejoin:round" />
    <g
       id="g42"
       transform="matrix(0.04906542,0,0,0.04906543,11.668319,11.668215)"
       style="fill:#ffffff;filter:url(#filter129)">
      <g
         id="g10"
         style="fill:#ffffff">
        <g
           id="g8"
           style="fill:#ffffff">
          <path
             style="fill:#ffffff"
             d="M 363.888,260.359 V 229.491 H 333.56 c -2.071,-11.001 -6.299,-21.183 -12.339,-30.113 l 21.355,-21.398 -21.808,-21.808 -21.398,21.355 c -8.887,-6.04 -19.133,-10.268 -30.113,-12.36 V 134.86 H 238.39 v 30.307 c -10.98,2.136 -21.183,6.32 -30.048,12.382 l -21.463,-21.377 -21.83,21.808 21.398,21.398 c -6.061,8.909 -10.311,19.112 -12.403,30.113 h -30.285 v 30.868 h 30.285 c 2.114,10.958 6.342,21.161 12.403,30.113 l -21.398,21.398 21.83,21.83 21.42,-21.398 c 8.909,6.061 19.112,10.311 30.113,12.403 v 30.329 h 30.868 v -30.307 c 10.98,-2.114 21.204,-6.363 30.113,-12.403 l 21.397,21.376 21.83,-21.83 -21.355,-21.398 c 6.061,-8.93 10.289,-19.155 12.36,-30.113 0,0 30.263,0 30.263,0 z m -110.075,18.228 c -18.572,0 -33.694,-15.078 -33.694,-33.672 0,-18.594 15.1,-33.65 33.694,-33.65 18.551,0 33.629,15.056 33.629,33.65 0.021,18.594 -15.035,33.672 -33.629,33.672 z"
             id="path2"
             inkscape:connector-curvature="0" />
          <path
             style="fill:#ffffff"
             d="m 82.692,244.073 c 0.022,-93.337 75.67,-169.007 169.007,-169.007 24.397,0 47.369,5.544 68.293,14.862 l -29.25,29.077 119.394,0.41 L 410.481,0 371.675,38.547 C 336.429,17.861 295.552,5.738 251.699,5.738 120.074,5.738 13.363,112.449 13.363,244.074 c 0,55.006 18.81,105.503 50.087,145.84 l 49.483,-49.483 C 93.93,313.057 82.692,279.881 82.692,244.073 Z"
             id="path4"
             inkscape:connector-curvature="0" />
          <path
             style="fill:#ffffff"
             d="m 450.97,116.676 -53.517,45.061 c 16.609,28.883 24.957,62.857 21.916,98.535 -7.938,93.013 -89.778,161.932 -182.791,153.972 -12.856,-1.1 -25.13,-3.904 -36.908,-7.679 l 28.495,-35.355 -118.704,12.727 12.748,118.726 31.946,-39.626 c 23.62,10.634 49.16,17.99 76.468,20.32 131.15,11.238 246.576,-86.003 257.792,-217.132 4.726,-54.788 -9.727,-106.709 -37.445,-149.549 z"
             id="path6"
             inkscape:connector-curvature="0" />
        </g>
      </g>
      <g
         id="g12"
         style="fill:#ffffff" />
      <g
         id="g14"
         style="fill:#ffffff" />
      <g
         id="g16"
         style="fill:#ffffff" />
      <g
         id="g18"
         style="fill:#ffffff" />
      <g
         id="g20"
         style="fill:#ffffff" />
      <g
         id="g22"
         style="fill:#ffffff" />
      <g
         id="g24"
         style="fill:#ffffff" />
      <g
         id="g26"
         style="fill:#ffffff" />
      <g
         id="g28"
         style="fill:#ffffff" />
      <g
         id="g30"
         style="fill:#ffffff" />
      <g
         id="g32"
         style="fill:#ffffff" />
      <g
         id="g34"
         style="fill:#ffffff" />
      <g
         id="g36"
         style="fill:#ffffff" />
      <g
         id="g38"
         style="fill:#ffffff" />
      <g
         id="g40"
         style="fill:#ffffff" />
    </g>
  </g>
</svg>
