<?xml version="1.0" encoding="UTF-8" standalone="no"?>
<!-- Created with Inkscape (http://www.inkscape.org/) -->

<svg
   xmlns:dc="http://purl.org/dc/elements/1.1/"
   xmlns:cc="http://creativecommons.org/ns#"
   xmlns:rdf="http://www.w3.org/1999/02/22-rdf-syntax-ns#"
   xmlns:svg="http://www.w3.org/2000/svg"
   xmlns="http://www.w3.org/2000/svg"
   xmlns:xlink="http://www.w3.org/1999/xlink"
   xmlns:sodipodi="http://sodipodi.sourceforge.net/DTD/sodipodi-0.dtd"
   xmlns:inkscape="http://www.inkscape.org/namespaces/inkscape"
   id="svg4061"
   height="48"
   width="48"
   version="1.1"
   inkscape:version="0.92.2 (unknown)"
   sodipodi:docname="corebird.svg">
  <sodipodi:namedview
     pagecolor="#ffffff"
     bordercolor="#666666"
     borderopacity="1"
     objecttolerance="10"
     gridtolerance="10"
     guidetolerance="10"
     inkscape:pageopacity="0"
     inkscape:pageshadow="2"
     inkscape:window-width="1378"
     inkscape:window-height="894"
     id="namedview40"
     showgrid="false"
     inkscape:zoom="9.8333333"
     inkscape:cx="24.73545"
     inkscape:cy="16.606919"
     inkscape:window-x="416"
     inkscape:window-y="120"
     inkscape:window-maximized="0"
     inkscape:current-layer="g4206" />
  <defs
     id="defs4063">
    <linearGradient
       inkscape:collect="always"
       id="linearGradient3361">
      <stop
         style="stop-color:#0068e0;stop-opacity:1;"
         offset="0"
         id="stop3363" />
      <stop
         style="stop-color:#00acf4;stop-opacity:1"
         offset="1"
         id="stop3365" />
    </linearGradient>
    <linearGradient
       id="linearGradient3026"
       y2="40.495998"
       gradientUnits="userSpaceOnUse"
       x2="71.204002"
       gradientTransform="matrix(1.617,0,0,1.617,-92.707,-21.06)"
       y1="15.369"
       x1="71.204002"
       xlink:href="#radialGradient3032">
      <stop
         id="stop4808-4"
         stop-color="#fff"
         offset="0" />
      <stop
         id="stop4810-0"
         stop-color="#fff"
         stop-opacity=".23529"
         offset=".42448" />
      <stop
         id="stop4812-8"
         stop-color="#fff"
         stop-opacity=".15686"
         offset=".82090" />
      <stop
         id="stop4814-0"
         stop-color="#fff"
         stop-opacity=".39216"
         offset="1" />
    </linearGradient>
    <radialGradient
       id="radialGradient3029"
       fx="4.459"
       fy="8.5089"
       gradientUnits="userSpaceOnUse"
       cy="8.6258"
       cx="15.026"
       gradientTransform="matrix(-3.4973e-8 1.8855 -1.7764 -5.4723e-8 39.14 -7.9932)"
       r="20">
      <stop
         id="stop4170"
         stop-color="#c24251"
         offset="0" />
      <stop
         id="stop4172"
         stop-color="#c24251"
         offset=".26238" />
      <stop
         id="stop4174"
         stop-color="#a63643"
         offset=".66094" />
      <stop
         id="stop4176"
         stop-color="#a63643"
         offset="1" />
    </radialGradient>
    <radialGradient
       id="radialGradient3032"
       gradientUnits="userSpaceOnUse"
       cy="3.99"
       cx="23.896"
       gradientTransform="matrix(0 2.8885 -3.8128 0 39.213 -65.95)"
       r="20.397">
      <stop
         id="stop3244-9-33-7-0-9"
         stop-color="#fff"
         offset="0" />
      <stop
         id="stop3246-3-5-0-8-5"
         stop-color="#ddd"
         offset=".26238" />
      <stop
         id="stop3248-1-7-8-8-1"
         stop-color="#abacae"
         offset=".66094" />
      <stop
         id="stop3250-9-3-0-5-1"
         stop-color="#89898b"
         offset="1" />
    </radialGradient>
    <radialGradient
       id="radialGradient3035"
       gradientUnits="userSpaceOnUse"
       cy="186.17"
       cx="99.157"
       gradientTransform="matrix(0.27083,0,0,0.087623,-2.8551,26.187)"
       r="62.769">
      <stop
         id="stop3822-2-6-3"
         stop-color="#3d3d3d"
         offset="0" />
      <stop
         id="stop3864-8-7-7"
         stop-color="#686868"
         stop-opacity=".49804"
         offset=".5" />
      <stop
         id="stop3824-1-2-5"
         stop-color="#686868"
         stop-opacity="0"
         offset="1" />
    </radialGradient>
    <linearGradient
       id="linearGradient4433"
       y2="25.611"
       gradientUnits="userSpaceOnUse"
       x2="23.078"
       gradientTransform="matrix(1 0 0 1.0521 0 -.90547)"
       y1="13.035"
       x1="22.759">
      <stop
         id="stop6305-1-0-2"
         stop-color="#fff"
         offset="0" />
      <stop
         id="stop6307-5-0-6"
         stop-color="#fff"
         stop-opacity="0"
         offset="1" />
    </linearGradient>
    <linearGradient
       inkscape:collect="always"
       xlink:href="#linearGradient3361"
       id="linearGradient3367"
       x1="25.016949"
       y1="36"
       x2="25.016951"
       y2="9.7627115"
       gradientUnits="userSpaceOnUse"
       gradientTransform="matrix(1.0194175,0,0,1.0194175,-0.46601943,-0.46612007)" />
    <linearGradient
       id="linearGradient4829">
      <stop
         style="stop-color:#f4fbfc;stop-opacity:1;"
         offset="0"
         id="stop4831" />
      <stop
         style="stop-color:#d6d6d6;stop-opacity:1;"
         offset="1"
         id="stop4833" />
    </linearGradient>
    <radialGradient
       inkscape:collect="always"
       xlink:href="#radialGradient3032"
       id="radialGradient3834"
       gradientUnits="userSpaceOnUse"
       gradientTransform="matrix(0,2.9445873,-3.8868351,0,39.508399,-67.696702)"
       cx="23.896"
       cy="3.99"
       r="20.397" />
  </defs>
  <metadata
     id="metadata4066">
    <rdf:RDF>
      <cc:Work
         rdf:about="">
        <dc:format>image/svg+xml</dc:format>
        <dc:type
           rdf:resource="http://purl.org/dc/dcmitype/StillImage" />
        <dc:title />
      </cc:Work>
    </rdf:RDF>
  </metadata>
  <g
     id="g4206">
    <path
       id="path3818-0-5"
       d="m 41,42.5 a 17,5.5 0 0 1 -34,0 17,5.5 0 1 1 34,0 z"
       style="fill:url(#radialGradient3035)"
       inkscape:connector-curvature="0" />
    <path
       id="path2555-7-2"
       style="color:#000000;fill:url(#radialGradient3834);stroke-width:1.01941741"
       d="m 24,3.101841 c -11.530631,0 -20.8980582,9.367427 -20.8980582,20.898058 0,11.530631 9.3674272,20.898057 20.8980582,20.898057 11.530631,0 20.898058,-9.367426 20.898058,-20.898057 C 44.898058,12.469268 35.530631,3.101841 24,3.101841 Z"
       inkscape:connector-curvature="0" />
    <path
       id="path2555-7-65"
       style="color:#000000;fill:url(#linearGradient3367);fill-opacity:1;stroke-width:1.01941741"
       d="m 24,3.101841 c -11.530631,0 -20.8980582,9.367427 -20.8980582,20.898058 0,11.530631 9.3674272,20.898057 20.8980582,20.898057 11.530631,0 20.898058,-9.367426 20.898058,-20.898057 C 44.898058,12.469268 35.530631,3.101841 24,3.101841 Z"
       inkscape:connector-curvature="0" />
    <path
       id="path4176"
       style="color:#000000;opacity:1;fill:none;stroke:#ffffff;stroke-width:1.93689311;stroke-linecap:round;stroke-linejoin:round;stroke-miterlimit:4;stroke-dasharray:none;stroke-opacity:1"
       d="m 43.878641,23.999899 c 0,10.979125 -8.899515,19.87864 -19.878641,19.87864 -10.979126,0 -19.8786408,-8.899515 -19.8786408,-19.87864 C 4.1213592,13.020773 13.020874,4.1212584 24,4.1212584 c 10.979126,0 19.878641,8.8995146 19.878641,19.8786406 z"
       inkscape:connector-curvature="0" />
    <path
       id="path2555-7-1-7"
       style="color:#000000;opacity:1;fill:none;fill-opacity:1;stroke:#fbfbfb;stroke-width:0.2038835;stroke-linecap:round;stroke-linejoin:round;stroke-miterlimit:4;stroke-dasharray:none;stroke-opacity:1"
       d="m 24,3.1019429 c -11.530631,0 -20.8980582,9.3672231 -20.8980582,20.8980581 0,11.530835 9.3672232,20.898057 20.8980582,20.898057 11.530835,0 20.898058,-9.367222 20.898058,-20.898057 C 44.898058,12.469166 35.530631,3.1019429 24,3.1019429 Z"
       inkscape:connector-curvature="0" />
    <g
       id="g4317"
       transform="matrix(1.0002 0 0 1.0004 -1.0018 -.0050486)"
       stroke-linejoin="round"
       stroke-linecap="round"
       stroke="#000"
       fill="none" />
    <g
       transform="matrix(0.97687101,0,0,0.97687099,4.3585815,-5.6188933)"
       id="g3951"
       style="fill:#ffffff">
      <path
         style="opacity:0.15;fill:#ffffff;fill-opacity:1;fill-rule:nonzero;stroke:#00222b;stroke-width:2;stroke-linecap:round;stroke-linejoin:round;stroke-miterlimit:4;stroke-dasharray:none"
         id="path4250"
         inkscape:connector-curvature="0"
         d="m 15.28618,41.814667 c -3.21732,0 -6.21194,-0.94314 -8.73322,-2.55958 0.44569,0.0526 0.8992,0.0795 1.35906,0.0795 2.66915,0 5.12567,-0.91085 7.07548,-2.43885 -2.49303,-0.046 -4.59699,-1.69312 -5.32195,-3.95663 0.34784,0.0665 0.70473,0.10218 1.07187,0.10218 0.51952,0 1.02287,-0.0696 1.50093,-0.19978 -2.60625,-0.52336 -4.57007,-2.82605 -4.57007,-5.58646 0,-0.0241 7e-5,-0.0478 4.8e-4,-0.0716 0.76818,0.42672 1.64663,0.68299 2.58051,0.71255 -1.52868,-1.02164 -2.53445,-2.76549 -2.53445,-4.74204 0,-1.0442 0.28087,-2.02277 0.77128,-2.86422 2.80997,3.44685 7.00787,5.71503 11.74276,5.95261 -0.0971,-0.41696 -0.14758,-0.85181 -0.14758,-1.29833 0,-3.1463 2.5509,-5.69716 5.69733,-5.69716 1.63858,0 3.11921,0.69193 4.15851,1.79921 1.2977,-0.25557 2.51698,-0.72972 3.61773,-1.38265 -0.42539,1.33044 -1.32868,2.44695 -2.505,3.15209 1.15245,-0.13774 2.25046,-0.44399 3.27218,-0.89712 -0.76383,1.14252 -1.72979,2.14599 -2.84283,2.94924 0.011,0.24429 0.0165,0.49 0.0165,0.73703 0,7.52864 -5.73035,16.21 -16.20948,16.21" />
      <path
         d="m 15.28618,41.814767 c -3.21732,0 -6.21194,-0.94314 -8.73322,-2.55958 0.44569,0.0526 0.8992,0.0795 1.35906,0.0795 2.66915,0 5.12567,-0.91085 7.07548,-2.43885 -2.49303,-0.046 -4.59699,-1.69312 -5.32195,-3.95663 0.34784,0.0665 0.70473,0.10218 1.07187,0.10218 0.51952,0 1.02287,-0.0696 1.50093,-0.19978 -2.60625,-0.52336 -4.57007,-2.82605 -4.57007,-5.58646 0,-0.0241 7e-5,-0.0478 4.8e-4,-0.0716 0.76818,0.42672 1.64663,0.68299 2.58051,0.71255 -1.52868,-1.02164 -2.53445,-2.76549 -2.53445,-4.74204 0,-1.0442 0.28087,-2.02277 0.77128,-2.86422 2.80997,3.44685 7.00787,5.71503 11.74276,5.95261 -0.0971,-0.41696 -0.14758,-0.85181 -0.14758,-1.29833 0,-3.1463 2.5509,-5.69716 5.69733,-5.69716 1.63858,0 3.11921,0.69193 4.15851,1.79921 1.2977,-0.25557 2.51698,-0.72972 3.61773,-1.38265 -0.42539,1.33044 -1.32868,2.44695 -2.505,3.15209 1.15245,-0.13774 2.25046,-0.44399 3.27218,-0.89712 -0.76383,1.14252 -1.72979,2.14599 -2.84283,2.94924 0.011,0.24429 0.0165,0.49 0.0165,0.73703 0,7.52864 -5.73035,16.21 -16.20948,16.21"
         inkscape:connector-curvature="0"
         id="path4248"
         style="opacity:0.3;fill:#ffffff;fill-opacity:1;fill-rule:nonzero;stroke:none" />
      <path
         style="fill:#ffffff;fill-opacity:1;fill-rule:nonzero;stroke:none"
         id="path4382-2"
         inkscape:connector-curvature="0"
         d="m 15.28618,40.814338 c -3.21732,0 -6.21194,-0.94314 -8.73322,-2.55958 0.44569,0.0526 0.8992,0.0795 1.35906,0.0795 2.66915,0 5.12567,-0.91085 7.07548,-2.43885 -2.49303,-0.046 -4.59699,-1.69312 -5.32195,-3.95663 0.34784,0.0665 0.70473,0.10218 1.07187,0.10218 0.51952,0 1.02287,-0.0696 1.50093,-0.19978 -2.60625,-0.52336 -4.57007,-2.82605 -4.57007,-5.58646 0,-0.0241 7e-5,-0.0478 4.8e-4,-0.0716 0.76818,0.42672 1.64663,0.68299 2.58051,0.71255 -1.52868,-1.02164 -2.53445,-2.76549 -2.53445,-4.74204 0,-1.0442 0.28087,-2.02277 0.77128,-2.86422 2.80997,3.44685 7.00787,5.71503 11.74276,5.95261 -0.0971,-0.41696 -0.14758,-0.85181 -0.14758,-1.29833 0,-3.1463 2.5509,-5.69716 5.69733,-5.69716 1.63858,0 3.11921,0.69193 4.15851,1.79921 1.2977,-0.25557 2.51698,-0.72972 3.61773,-1.38265 -0.42539,1.33044 -1.32868,2.44695 -2.505,3.15209 1.15245,-0.13774 2.25046,-0.44399 3.27218,-0.89712 -0.76383,1.14252 -1.72979,2.14599 -2.84283,2.94924 0.011,0.24429 0.0165,0.49 0.0165,0.73703 0,7.52864 -5.73035,16.21 -16.20948,16.21" />
    </g>
  </g>
</svg>
