<?xml version="1.0" encoding="UTF-8" standalone="no"?>
<!-- Generator: flash2svg, http://dissentgraphics.com/tools/flash2svg -->

<svg
   xmlns:dc="http://purl.org/dc/elements/1.1/"
   xmlns:cc="http://creativecommons.org/ns#"
   xmlns:rdf="http://www.w3.org/1999/02/22-rdf-syntax-ns#"
   xmlns:svg="http://www.w3.org/2000/svg"
   xmlns="http://www.w3.org/2000/svg"
   xmlns:xlink="http://www.w3.org/1999/xlink"
   xmlns:sodipodi="http://sodipodi.sourceforge.net/DTD/sodipodi-0.dtd"
   xmlns:inkscape="http://www.inkscape.org/namespaces/inkscape"
   id="Flamingo"
   image-rendering="optimizeSpeed"
   version="1.1"
   style="background-color:#ffffff"
   x="0px"
   y="0px"
   width="1024px"
   height="1024px"
   viewBox="0 0 1024 1024"
   enable-background="new 0 0 1024 1024"
   sodipodi:docname="empathy.svg"
   inkscape:version="0.92.2 (5c3e80d, 2017-08-06)">
  <metadata
     id="metadata21">
    <rdf:RDF>
      <cc:Work
         rdf:about="">
        <dc:format>image/svg+xml</dc:format>
        <dc:type
           rdf:resource="http://purl.org/dc/dcmitype/StillImage" />
        <dc:title />
      </cc:Work>
    </rdf:RDF>
  </metadata>
  <sodipodi:namedview
     pagecolor="#ffffff"
     bordercolor="#666666"
     borderopacity="1"
     objecttolerance="10"
     gridtolerance="10"
     guidetolerance="10"
     inkscape:pageopacity="0"
     inkscape:pageshadow="2"
     inkscape:window-width="1440"
     inkscape:window-height="779"
     id="namedview19"
     showgrid="true"
     inkscape:pagecheckerboard="true"
     inkscape:zoom="0.546875"
     inkscape:cx="512"
     inkscape:cy="512"
     inkscape:window-x="0"
     inkscape:window-y="25"
     inkscape:window-maximized="1"
     inkscape:current-layer="shape2">
    <inkscape:grid
       type="xygrid"
       id="grid839" />
  </sodipodi:namedview>
  <defs
     transform="matrix(1 0 0 1 0 0) "
     id="defs2">
    <linearGradient
       inkscape:collect="always"
       id="linearGradient854">
      <stop
         id="stop852"
         offset="0"
         style="stop-color:#d7d7d7;stop-opacity:1" />
      <stop
         id="stop850"
         offset="1"
         style="stop-color:#ffffff;stop-opacity:1" />
    </linearGradient>
    <linearGradient
       id="linearGradient848"
       inkscape:collect="always">
      <stop
         id="stop843"
         offset="0"
         style="stop-color:#ffffff;stop-opacity:1" />
      <stop
         id="stop845"
         offset="1"
         style="stop-color:#d7d7d7;stop-opacity:1" />
    </linearGradient>
    <linearGradient
       inkscape:collect="always"
       id="linearGradient835">
      <stop
         style="stop-color:#ffffff;stop-opacity:1"
         offset="0"
         id="stop831" />
      <stop
         style="stop-color:#d7d7d7;stop-opacity:1"
         offset="1"
         id="stop833" />
    </linearGradient>
    <linearGradient
       inkscape:collect="always"
       xlink:href="#linearGradient835"
       id="linearGradient837"
       x1="515.65717"
       y1="-5.4857144"
       x2="513.82855"
       y2="1025.8286"
       gradientUnits="userSpaceOnUse" />
    <linearGradient
       inkscape:collect="always"
       xlink:href="#linearGradient854"
       id="linearGradient847"
       x1="540"
       y1="4"
       x2="540"
       y2="1024"
       gradientUnits="userSpaceOnUse" />
    <filter
       inkscape:collect="always"
       style="color-interpolation-filters:sRGB"
       id="filter875"
       x="-0.033220953"
       width="1.0664419"
       y="-0.039286447"
       height="1.0785729">
      <feGaussianBlur
         inkscape:collect="always"
         stdDeviation="9.3018667"
         id="feGaussianBlur877" />
    </filter>
    <linearGradient
       inkscape:collect="always"
       xlink:href="#linearGradient848"
       id="linearGradient999"
       gradientUnits="userSpaceOnUse"
       x1="515.65717"
       y1="-5.4857144"
       x2="513.82855"
       y2="1025.8286" />
    <linearGradient
       inkscape:collect="always"
       xlink:href="#linearGradient835"
       id="linearGradient1001"
       gradientUnits="userSpaceOnUse"
       x1="515.65717"
       y1="-5.4857144"
       x2="513.82855"
       y2="1025.8286" />
  </defs>
  <g
     id="bgshadow"
     style="fill:url(#linearGradient837);fill-opacity:1"
     transform="matrix(0.99609375,0,0,0.99609375,2,2)">
    <g
       id="shape"
       style="fill:url(#linearGradient1001);fill-opacity:1">
      <path
         id="path"
         d="m 986.739,315.98644 q -9.3288,-22.61695 -21.0441,-44.31186 c -4.3932,-8.18983 -9.0576,-16.32543 -13.9932,-24.29831 C 930.49492,212.98983 904.62373,180.50169 874.08814,149.9661 774.12881,50.00678 653.39661,0 512,0 370.60339,0 249.92542,50.00678 149.9661,149.9661 50.00678,249.92542 0,370.60339 0,512 0,653.39661 50.00678,774.12881 149.9661,874.08814 249.92542,974.04746 370.60339,1024 512,1024 653.39661,1024 774.12881,974.04746 874.08814,874.08814 929.13898,818.98305 969.0576,757.58644 993.7898,689.95254 1013.9119,634.79322 1024,575.51186 1024,512 c 0,-48.70508 -5.9119,-94.96949 -17.7898,-138.79322 -1.356,-4.93559 -2.7661,-9.87119 -4.2305,-14.75254 -4.4475,-14.42712 -9.5458,-28.58305 -15.2407,-42.4678 z"
         style="fill:url(#linearGradient999);fill-opacity:1;stroke-width:1.08474576"
         inkscape:connector-curvature="0" />
    </g>
  </g>
  <g
     id="bgcircle"
     transform="matrix(0.99609375,0,0,0.99609375,2,2)">
    <g
       id="shape2">
      <path
         id="path1"
         d="m 966.1,378.45 c -2.5,-8.75 -5.35,-17.6 -8.45,-26.35 -6.45,-18.25 -14.15,-36.05 -23.15,-53.65 -3.8,-7.4 -7.95,-14.95 -12.3,-22.4 -20.3,-34.5 -45.8,-67.2 -76.35,-97.75 C 773.25,105.7 688.7,61.65 592.2,46.25 c -16.25,-2.6 -32.8,-4.4 -50.05,-5.35 -9.7,-0.55 -19.85,-0.85 -30.1,-0.85 -9.35,0 -18.6,0.25 -27.9,0.75 C 365.8,46.9 263.85,92.75 178.3,178.3 Q 40.05,316.55 40.05,512.05 c 0,130.35 46.1,241.65 138.25,333.8 85.55,85.5 187.5,131.35 305.85,137.5 0.15,0 0.25,0 0.4,0 8.5,0.45 16.6,0.7 24.5,0.7 1.2,0 2.1,0 3,0 1.9,0 3.8,0 5.45,0 8.55,-0.1 16.8,-0.4 24.65,-0.8 2.5,-0.15 4.75,-0.3 6.95,-0.45 20.2,-1.45 39.9,-4.05 58.7,-7.7 7.95,-1.55 15.8,-3.3 23.4,-5.15 80.8,-20.3 152.15,-61.6 214.65,-124.1 48.6,-48.6 84.4,-102.5 107.35,-161.8 16.6,-42.9 26.55,-88.65 29.75,-137.45 0.35,-5.2 0.6,-10.6 0.8,-16.05 0.2,-6.05 0.3,-12.25 0.3,-18.5 0,-0.65 0,-1.35 0,-2 0,-0.35 0,-0.65 0,-1 -0.2,-40.65 -4.95,-79.5 -14.3,-117 -1.1,-4.35 -2.35,-9 -3.65,-13.6 z"
         style="fill:url(#linearGradient847);fill-opacity:1.0"
         inkscape:connector-curvature="0" />
    </g>
  </g>
  <g
     id="g865"
     style="opacity:0.2;fill:#262626;fill-opacity:1;filter:url(#filter875)"
     transform="matrix(0.99609375,0,0,0.99609375,5.2236328,-5.8154297)">
    <g
       id="g863"
       style="fill:#262626;fill-opacity:1">
      <path
         d="m 845.8,482.7 c -1.2,-7.35 -2.85,-14.7 -4.95,-22 -0.95,-3.25 -2,-6.5 -3.3,-10 -14.2,-39.65 -43.55,-75.5 -87.9,-106.95 -65.6,-46.45 -144.8,-69.7 -237.6,-69.7 -69.3,0 -131,12.95 -185.1,38.9 -18.4,8.75 -35.9,19.05 -52.5,30.8 -44.15,31.25 -73.45,66.9 -87.9,106.95 -1.2,3.3 -2.3,6.65 -3.25,10 -2.2,7.35 -3.9,14.85 -4.95,22 h -0.025 667.45"
         id="path857"
         style="fill:#262626;fill-opacity:1"
         inkscape:connector-curvature="0" />
      <path
         d="m 838.05,572.05 c 6.65,-18.9 10,-38.95 10,-60 0,-9.95 -0.75,-19.7 -2.25,-29.35 h -0.025 -667.45 0.025 c -1.6,9.9 -2.3,19.5 -2.3,29.35 0,21.1 3.4,41.25 10.05,60 9.2,26.05 24.55,50.15 45.65,72 h 560.6 c 21.3,-22.05 36.55,-46.1 45.7,-72 z"
         id="path859"
         style="fill:#262626;fill-opacity:1"
         inkscape:connector-curvature="0" />
      <path
         d="m 749.65,680.35 c 16.2,-11.45 30.4,-23.5 42.7,-36.3 h -560.6 c 12.5,12.9 26.6,24.9 42.7,36.3 32.1,22.7 67.4,39.9 105.55,51.4 3.1,25.25 3.7,56.1 1.85,92.45 -0.2,3.65 0.7,7.05 2.75,10.15 2,3.15 4.7,5.4 8.15,6.75 3.45,1.35 7,1.55 10.55,0.65 3.55,-0.95 6.55,-2.8 8.95,-5.6 l 72.8,-86.75 c 9,0.45 17.95,0.65 27,0.65 77.3,0 145.2,-16.1 203.65,-48.35 q 17.55,-9.7 33.95,-21.35 z"
         id="path861"
         style="fill:#262626;fill-opacity:1"
         inkscape:connector-curvature="0" />
    </g>
  </g>
  <g
     id="bubble"
     transform="matrix(0.99609375,0,0,0.99609375,5.2236328,-15.776368)">
    <g
       id="shape6">
      <path
         id="path3"
         d="m 845.8,482.7 c -1.2,-7.35 -2.85,-14.7 -4.95,-22 -0.95,-3.25 -2,-6.5 -3.3,-10 -14.2,-39.65 -43.55,-75.5 -87.9,-106.95 -65.6,-46.45 -144.8,-69.7 -237.6,-69.7 -69.3,0 -131,12.95 -185.1,38.9 -18.4,8.75 -35.9,19.05 -52.5,30.8 -44.15,31.25 -73.45,66.9 -87.9,106.95 -1.2,3.3 -2.3,6.65 -3.25,10 -2.2,7.35 -3.9,14.85 -4.95,22 h -0.025 667.45"
         inkscape:connector-curvature="0"
         style="fill:#ff0050;fill-opacity:1" />
      <path
         id="path4"
         d="m 838.05,572.05 c 6.65,-18.9 10,-38.95 10,-60 0,-9.95 -0.75,-19.7 -2.25,-29.35 h -0.025 -667.45 0.025 c -1.6,9.9 -2.3,19.5 -2.3,29.35 0,21.1 3.4,41.25 10.05,60 9.2,26.05 24.55,50.15 45.65,72 h 560.6 c 21.3,-22.05 36.55,-46.1 45.7,-72 z"
         inkscape:connector-curvature="0"
         style="fill:#ff3a58;fill-opacity:1" />
      <path
         id="path5"
         d="m 749.65,680.35 c 16.2,-11.45 30.4,-23.5 42.7,-36.3 h -560.6 c 12.5,12.9 26.6,24.9 42.7,36.3 32.1,22.7 67.4,39.9 105.55,51.4 3.1,25.25 3.7,56.1 1.85,92.45 -0.2,3.65 0.7,7.05 2.75,10.15 2,3.15 4.7,5.4 8.15,6.75 3.45,1.35 7,1.55 10.55,0.65 3.55,-0.95 6.55,-2.8 8.95,-5.6 l 72.8,-86.75 c 9,0.45 17.95,0.65 27,0.65 77.3,0 145.2,-16.1 203.65,-48.35 q 17.55,-9.7 33.95,-21.35 z"
         inkscape:connector-curvature="0"
         style="fill:#ff5059;fill-opacity:1" />
    </g>
  </g>
</svg>
