<?xml version="1.0" encoding="UTF-8" standalone="no"?>
<!-- Generator: flash2svg, http://dissentgraphics.com/tools/flash2svg -->

<svg
   xmlns:dc="http://purl.org/dc/elements/1.1/"
   xmlns:cc="http://creativecommons.org/ns#"
   xmlns:rdf="http://www.w3.org/1999/02/22-rdf-syntax-ns#"
   xmlns:svg="http://www.w3.org/2000/svg"
   xmlns="http://www.w3.org/2000/svg"
   xmlns:xlink="http://www.w3.org/1999/xlink"
   xmlns:sodipodi="http://sodipodi.sourceforge.net/DTD/sodipodi-0.dtd"
   xmlns:inkscape="http://www.inkscape.org/namespaces/inkscape"
   id="Preview"
   image-rendering="optimizeSpeed"
   version="1.1"
   style="background-color:#FFFFFF"
   x="0px"
   y="0px"
   width="1024px"
   height="1024px"
   viewBox="0 0 1024 1024"
   enable-background="new 0 0 1024 1024"
   sodipodi:docname="eog.svg"
   inkscape:version="0.92.2 (5c3e80d, 2017-08-06)">
  <metadata
     id="metadata61">
    <rdf:RDF>
      <cc:Work
         rdf:about="">
        <dc:format>image/svg+xml</dc:format>
        <dc:type
           rdf:resource="http://purl.org/dc/dcmitype/StillImage" />
        <dc:title />
      </cc:Work>
    </rdf:RDF>
  </metadata>
  <sodipodi:namedview
     pagecolor="#ffffff"
     bordercolor="#666666"
     borderopacity="1"
     objecttolerance="10"
     gridtolerance="10"
     guidetolerance="10"
     inkscape:pageopacity="0"
     inkscape:pageshadow="2"
     inkscape:window-width="1440"
     inkscape:window-height="838"
     id="namedview59"
     showgrid="true"
     inkscape:pagecheckerboard="true"
     inkscape:zoom="0.60253906"
     inkscape:cx="512"
     inkscape:cy="512"
     inkscape:window-x="0"
     inkscape:window-y="25"
     inkscape:window-maximized="1"
     inkscape:current-layer="Preview">
    <inkscape:grid
       type="xygrid"
       id="grid879" />
  </sodipodi:namedview>
  <defs
     transform="matrix(1 0 0 1 0 0) "
     id="defs2">
    <linearGradient
       id="linearGradient1135"
       inkscape:collect="always">
      <stop
         style="stop-color:#4d4d4d;stop-opacity:1"
         offset="0"
         id="stop1133" />
      <stop
         id="stop1137"
         offset="0.01955101"
         style="stop-color:#414141;stop-opacity:1" />
      <stop
         style="stop-color:#111111;stop-opacity:1"
         offset="1"
         id="stop1131" />
    </linearGradient>
    <linearGradient
       inkscape:collect="always"
       id="linearGradient875">
      <stop
         style="stop-color:#ffffff;stop-opacity:1;"
         offset="0"
         id="stop871" />
      <stop
         style="stop-color:#d7d7d7;stop-opacity:1"
         offset="1"
         id="stop873" />
    </linearGradient>
    <linearGradient
       inkscape:collect="always"
       xlink:href="#linearGradient875"
       id="linearGradient877"
       x1="520"
       y1="4"
       x2="520"
       y2="1024"
       gradientUnits="userSpaceOnUse" />
    <circle
       id="SVGID_1_"
       r="15.999"
       cy="-31.965"
       cx="73.957001" />
    <filter
       inkscape:collect="always"
       style="color-interpolation-filters:sRGB"
       id="filter1021"
       x="-0.031799901"
       width="1.0635998"
       y="-0.041478429"
       height="1.0829569">
      <feGaussianBlur
         inkscape:collect="always"
         stdDeviation="7.222155"
         id="feGaussianBlur1023" />
    </filter>
    <filter
       inkscape:collect="always"
       style="color-interpolation-filters:sRGB"
       id="filter1033"
       x="-0.031464526"
       width="1.0629291"
       y="-0.04206323"
       height="1.0841265">
      <feGaussianBlur
         inkscape:collect="always"
         stdDeviation="6.42621"
         id="feGaussianBlur1035" />
    </filter>
    <linearGradient
       inkscape:collect="always"
       xlink:href="#linearGradient1135"
       id="linearGradient1081"
       x1="519.20001"
       y1="1024.8"
       x2="519.20001"
       y2="4.8000002"
       gradientUnits="userSpaceOnUse"
       gradientTransform="matrix(0.9972446,0,0,0.99719176,0.91076708,1.9627512)" />
    <linearGradient
       inkscape:collect="always"
       xlink:href="#linearGradient875"
       id="linearGradient1095"
       x1="557.88586"
       y1="-21.129559"
       x2="557.88586"
       y2="964.37311"
       gradientUnits="userSpaceOnUse" />
    <linearGradient
       inkscape:collect="always"
       xlink:href="#linearGradient875"
       id="linearGradient1103"
       x1="538.56226"
       y1="-21.12956"
       x2="538.56226"
       y2="964.37317"
       gradientUnits="userSpaceOnUse" />
    <linearGradient
       inkscape:collect="always"
       xlink:href="#linearGradient875"
       id="linearGradient1111"
       x1="479.10489"
       y1="-28.840609"
       x2="480.59152"
       y2="964.37311"
       gradientUnits="userSpaceOnUse" />
  </defs>
  <g
     id="shadow"
     transform="matrix(0.99609375,0,0,0.99609375,2,2)">
    <g
       id="shape">
      <path
         id="path"
         d="m 986.739,315.98644 q -9.3288,-22.61695 -21.0441,-44.31186 c -4.3932,-8.18983 -9.0576,-16.32543 -13.9932,-24.29831 C 930.49492,212.98983 904.62373,180.50169 874.08814,149.9661 774.12881,50.00678 653.39661,0 512,0 370.60339,0 249.92542,50.00678 149.9661,149.9661 50.00678,249.92542 0,370.60339 0,512 0,653.39661 50.00678,774.12881 149.9661,874.08814 249.92542,974.04746 370.60339,1024 512,1024 653.39661,1024 774.12881,974.04746 874.08814,874.08814 929.13898,818.98305 969.0576,757.58644 993.7898,689.95254 1013.9119,634.79322 1024,575.51186 1024,512 c 0,-48.70508 -5.9119,-94.96949 -17.7898,-138.79322 -1.356,-4.93559 -2.7661,-9.87119 -4.2305,-14.75254 -4.4475,-14.42712 -9.5458,-28.58305 -15.2407,-42.4678 z"
         style="fill:url(#linearGradient877);fill-opacity:1;stroke-width:1.08474576"
         inkscape:connector-curvature="0" />
    </g>
  </g>
  <path
     id="path1"
     d="M 797.7092,139.12648 Q 737.17646,92.507762 665.27512,67.677688 590.9804,42 511.54986,42 C 251.66792,42 41,252.65675 41,512.52493 c 0,237.73051 176.36271,434.17729 405.33007,465.93785 11.16914,1.54565 22.48786,2.74228 33.85645,3.44031 C 490.55787,982.55126 500.97907,983 511.54986,983 771.38195,983 982,772.34324 982,512.52493 c 0,-20.54215 -1.29641,-40.835 -3.83939,-60.62925 -2.94187,-23.13486 -7.72864,-45.62153 -13.8617,-67.50989 Q 943.4565,310.8429 900.27581,247.52123 857.59374,185.14688 797.7092,139.12648 Z"
     style="fill:url(#linearGradient1081);fill-opacity:1;stroke-width:0.99721819"
     inkscape:connector-curvature="0" />
  <g
     style="overflow:visible;filter:url(#filter1033)"
     transform="matrix(0.93571418,0,0,0.93571418,44.115643,87.730658)"
     overflow="visible"
     id="FlashAICB.__2FCalque.__201.__2F.__3CGroup.__3E_6_1">
    <g
       id="Calque.__205">
      <g
         id="group10">
        <g
           id="drawingObject13">
          <path
             style="fill:#1d1d1b;fill-opacity:0.3"
             inkscape:connector-curvature="0"
             d="M 788.318,580.66 V 214.092 L 298.15,214 v 366.568 z"
             id="path28" />
        </g>
      </g>
    </g>
  </g>
  <path
     style="fill:#5884f4;fill-opacity:1;stroke-width:0.93571413"
     inkscape:connector-curvature="0"
     d="m 757.68002,602.39777 0.086,-323.68692 -439.35708,-0.0861 -0.0861,323.77301 z"
     id="path3" />
  <g
     id="group1"
     transform="matrix(0.93571414,0,0,0.93571414,44.115644,87.730659)">
    <g
       id="drawingObject1">
      <path
         id="path4"
         d="m 772.981,560.419 v -366.62 l -490.237,-0.092 v 366.62 z M 752.286,539.725 303.439,539.633 V 214.402 l 448.847,0.092 z"
         inkscape:connector-curvature="0"
         style="fill:url(#linearGradient1103);fill-opacity:1" />
    </g>
  </g>
  <g
     style="overflow:visible;filter:url(#filter1021)"
     transform="matrix(0.93571418,0,0,0.93571418,44.115643,87.730658)"
     overflow="visible"
     id="FlashAICB.__2FCalque.__201.__2F.__3CGroup.__3E_8_1">
    <g
       id="Calque.__206">
      <g
         id="group11">
        <g
           id="drawingObject14">
          <path
             style="fill:#1d1d1b;fill-opacity:0.3"
             inkscape:connector-curvature="0"
             d="M 761.27,697.787 723.013,333.15 216.2,386.397 254.549,751.034 Z"
             id="path29" />
        </g>
      </g>
    </g>
  </g>
  <path
     inkscape:connector-curvature="0"
     style="fill:#2f5fdd;fill-opacity:1;stroke-width:0.93571419"
     d="m 237.16377,443.86722 33.82326,321.96615 455.02096,-47.7654 -33.90934,-321.96615 z"
     id="path8" />
  <g
     id="group3"
     transform="matrix(0.93571418,0,0,0.93571418,44.115643,87.730658)">
    <g
       id="drawingObject3">
      <path
         id="path9"
         d="M 740.054,682.841 701.791,318.152 194.906,371.407 233.169,736.095 Z M 683.304,340.962 717.335,664.353 251.656,713.285 217.625,389.894 Z"
         inkscape:connector-curvature="0"
         style="fill:url(#linearGradient1111);fill-opacity:1" />
    </g>
  </g>
  <g
     transform="matrix(0.93571418,0,0,0.93571418,44.115643,87.730658)"
     id="drawingObject7">
    <path
       style="fill:url(#linearGradient1095);fill-opacity:1"
       inkscape:connector-curvature="0"
       d="m 615.449,423.494 c -34.211,-9.196 -67.226,2.851 -73.663,26.946 -6.53,24.002 16.002,51.04 50.12,60.236 q 25.658,6.898 47.27,-1.011 21.611,-7.817 26.485,-25.842 c 6.438,-24.095 -16.001,-51.04 -50.212,-60.329 z"
       id="path22" />
  </g>
</svg>
