<?xml version="1.0" encoding="UTF-8" standalone="no"?>
<!-- Generator: flash2svg, http://dissentgraphics.com/tools/flash2svg -->

<svg
   xmlns:dc="http://purl.org/dc/elements/1.1/"
   xmlns:cc="http://creativecommons.org/ns#"
   xmlns:rdf="http://www.w3.org/1999/02/22-rdf-syntax-ns#"
   xmlns:svg="http://www.w3.org/2000/svg"
   xmlns="http://www.w3.org/2000/svg"
   xmlns:xlink="http://www.w3.org/1999/xlink"
   xmlns:sodipodi="http://sodipodi.sourceforge.net/DTD/sodipodi-0.dtd"
   xmlns:inkscape="http://www.inkscape.org/namespaces/inkscape"
   id="Apps-Visual-Studio-Community"
   image-rendering="optimizeSpeed"
   version="1.1"
   style="background-color:#ffffff"
   x="0px"
   y="0px"
   width="1024px"
   height="1024px"
   viewBox="0 0 1024 1024"
   enable-background="new 0 0 1024 1024"
   sodipodi:docname="file-manager.svg"
   inkscape:export-filename="/home/unc/OSX/filemanager-app.png"
   inkscape:export-xdpi="4.5"
   inkscape:export-ydpi="4.5"
   inkscape:version="0.92.2 2405546, 2018-03-11">
  <metadata
     id="metadata24">
    <rdf:RDF>
      <cc:Work
         rdf:about="">
        <dc:format>image/svg+xml</dc:format>
        <dc:type
           rdf:resource="http://purl.org/dc/dcmitype/StillImage" />
        <dc:title />
      </cc:Work>
    </rdf:RDF>
  </metadata>
  <sodipodi:namedview
     pagecolor="#ffffff"
     bordercolor="#666666"
     borderopacity="1"
     objecttolerance="10"
     gridtolerance="10"
     guidetolerance="10"
     inkscape:pageopacity="0"
     inkscape:pageshadow="2"
     inkscape:window-width="1366"
     inkscape:window-height="745"
     id="namedview22"
     showgrid="true"
     inkscape:pagecheckerboard="true"
     inkscape:zoom="0.60253906"
     inkscape:cx="1042.6894"
     inkscape:cy="512"
     inkscape:window-x="0"
     inkscape:window-y="23"
     inkscape:window-maximized="1"
     inkscape:current-layer="g846">
    <inkscape:grid
       type="xygrid"
       id="grid848" />
  </sodipodi:namedview>
  <defs
     transform="matrix(1 0 0 1 0 0) "
     id="defs2">
    <linearGradient
       inkscape:collect="always"
       id="linearGradient862">
      <stop
         style="stop-color:#ffffff;stop-opacity:1"
         offset="0"
         id="stop858" />
      <stop
         style="stop-color:#d7d7d7;stop-opacity:1"
         offset="1"
         id="stop860" />
    </linearGradient>
    <linearGradient
       inkscape:collect="always"
       id="linearGradient854">
      <stop
         style="stop-color:#ffffff;stop-opacity:1"
         offset="0"
         id="stop850" />
      <stop
         style="stop-color:#d7d7d7;stop-opacity:1"
         offset="1"
         id="stop852" />
    </linearGradient>
    <linearGradient
       inkscape:collect="always"
       xlink:href="#linearGradient3912"
       id="linearGradient3918"
       x1="172.24121"
       y1="4.0527329"
       x2="172.24121"
       y2="193.3853"
       gradientUnits="userSpaceOnUse"
       gradientTransform="matrix(4.6451849,0,0,4.4094773,50.525268,69.974607)" />
    <linearGradient
       id="linearGradient3912">
      <stop
         style="stop-color:#ffffff;stop-opacity:1"
         offset="0"
         id="stop3914" />
      <stop
         style="stop-color:#d9d5d5;stop-opacity:1"
         offset="1"
         id="stop3916" />
    </linearGradient>
    <linearGradient
       gradientTransform="matrix(4.1647059,0,0,4.1647059,98.72175,92.237753)"
       inkscape:collect="always"
       xlink:href="#linearGradient5423"
       id="linearGradient6197"
       gradientUnits="userSpaceOnUse"
       x1="99.036476"
       y1="-0.50471628"
       x2="99.036476"
       y2="199.83986" />
    <linearGradient
       id="linearGradient5423">
      <stop
         style="stop-color:#15c4fc;stop-opacity:1;"
         offset="0"
         id="stop5425" />
      <stop
         style="stop-color:#1863ee;stop-opacity:1;"
         offset="1"
         id="stop5427" />
    </linearGradient>
    <linearGradient
       inkscape:collect="always"
       xlink:href="#linearGradient854"
       id="linearGradient856"
       x1="520.03137"
       y1="2.0078433"
       x2="520.03137"
       y2="1026.0078"
       gradientUnits="userSpaceOnUse" />
    <linearGradient
       inkscape:collect="always"
       xlink:href="#linearGradient862"
       id="linearGradient864"
       x1="702.49829"
       y1="-1.8622619"
       x2="703.46875"
       y2="1029.6499"
       gradientUnits="userSpaceOnUse"
       gradientTransform="matrix(0.88235294,0,0,0.88235294,72.298095,56.943511)" />
  </defs>
  <g
     id="background-circle-shadow"
     transform="matrix(0.87890625,0,0,0.87890625,65,59)">
    <g
       id="shape">
      <path
         id="path"
         d="m 986.739,315.98644 q -9.3288,-22.61695 -21.0441,-44.31186 c -4.3932,-8.18983 -9.0576,-16.32543 -13.9932,-24.29831 C 930.49492,212.98983 904.62373,180.50169 874.08814,149.9661 774.12881,50.00678 653.39661,0 512,0 370.60339,0 249.92542,50.00678 149.9661,149.9661 50.00678,249.92542 0,370.60339 0,512 0,653.39661 50.00678,774.12881 149.9661,874.08814 249.92542,974.04746 370.60339,1024 512,1024 653.39661,1024 774.12881,974.04746 874.08814,874.08814 929.13898,818.98305 969.0576,757.58644 993.7898,689.95254 1013.9119,634.79322 1024,575.51186 1024,512 c 0,-48.70508 -5.9119,-94.96949 -17.7898,-138.79322 -1.356,-4.93559 -2.7661,-9.87119 -4.2305,-14.75254 -4.4475,-14.42712 -9.5458,-28.58305 -15.2407,-42.4678 z"
         style="fill:url(#linearGradient856);fill-opacity:1;stroke-width:1.08474576"
         inkscape:connector-curvature="0" />
    </g>
  </g>
  <g
     id="g846"
     transform="matrix(0.99471953,0,0,0.99303933,1.2112188,5.849299)">
    <circle
       id="path4188-6"
       style="color:#000000;display:inline;overflow:visible;visibility:visible;fill:url(#linearGradient6197);fill-opacity:1;fill-rule:nonzero;stroke:none;stroke-width:38.04185486;marker:none;enable-background:accumulate"
       cx="515.19238"
       cy="508.70822"
       r="416.47058" />
    <path
       id="path3811"
       d="M 546.70023,90.611912 C 519.64012,141.04511 455.23909,283.60194 455.23909,498.7985 h 127.01678 c 0,0 -5.97242,282.65957 32.69773,417.74006 A 422.80666,422.80666 0 0 0 920.99146,510.35703 422.80666,422.80666 0 0 0 546.70023,90.611912 Z"
       style="fill:url(#linearGradient3918);fill-opacity:1;stroke:none;stroke-width:4.64518547"
       inkscape:connector-curvature="0" />
    <path
       sodipodi:nodetypes="cc"
       inkscape:connector-curvature="0"
       id="path3873"
       d="m 328.46441,345.69282 v 65.02261"
       style="fill:none;stroke:#000000;stroke-width:49.80572891;stroke-linecap:round;stroke-linejoin:miter;stroke-miterlimit:4;stroke-dasharray:none;stroke-opacity:1" />
    <path
       inkscape:connector-curvature="0"
       style="fill:url(#linearGradient864);fill-opacity:1;stroke:none;stroke-width:4.60160398"
       d="M 573.61176,89.064773 C 546.95717,139.30902 483.52123,281.33178 483.52123,495.72212 h 125.11334 c 0,0 -5.88291,281.6006 32.20774,416.17502 A 416.47059,421.22264 0 0 0 942.29402,507.23734 416.47059,421.22264 0 0 0 573.61176,89.064773 Z"
       id="path834" />
    <path
       sodipodi:nodetypes="cc"
       inkscape:connector-curvature="0"
       id="path3873-4"
       d="m 736.50139,345.69282 v 65.02261"
       style="fill:none;stroke:#000000;stroke-width:49.80572891;stroke-linecap:round;stroke-linejoin:miter;stroke-miterlimit:4;stroke-dasharray:none;stroke-opacity:1" />
    <path
       sodipodi:nodetypes="ccc"
       inkscape:connector-curvature="0"
       id="path3893"
       d="m 288.41773,747.29407 c 0,0 103.40798,82.07187 288.13619,32.5741 C 750.0651,733.37599 807.46434,606.19374 807.46434,606.19374"
       style="color:#000000;display:inline;overflow:visible;visibility:visible;fill:none;stroke:#000000;stroke-width:41.79486084;stroke-linecap:round;stroke-linejoin:miter;stroke-miterlimit:4;stroke-dasharray:none;stroke-dashoffset:0;stroke-opacity:1;marker:none;enable-background:accumulate" />
  </g>
</svg>
