<?xml version="1.0" encoding="UTF-8" standalone="no"?>
<!-- Created with Inkscape (http://www.inkscape.org/) -->

<svg
   xmlns:dc="http://purl.org/dc/elements/1.1/"
   xmlns:cc="http://creativecommons.org/ns#"
   xmlns:rdf="http://www.w3.org/1999/02/22-rdf-syntax-ns#"
   xmlns:svg="http://www.w3.org/2000/svg"
   xmlns="http://www.w3.org/2000/svg"
   xmlns:xlink="http://www.w3.org/1999/xlink"
   xmlns:sodipodi="http://sodipodi.sourceforge.net/DTD/sodipodi-0.dtd"
   xmlns:inkscape="http://www.inkscape.org/namespaces/inkscape"
   id="svg4061"
   height="48"
   width="48"
   version="1.1"
   inkscape:version="0.92.2 (unknown)"
   sodipodi:docname="flightgear.svg">
  <sodipodi:namedview
     pagecolor="#ffffff"
     bordercolor="#666666"
     borderopacity="1"
     objecttolerance="10"
     gridtolerance="10"
     guidetolerance="10"
     inkscape:pageopacity="0"
     inkscape:pageshadow="2"
     inkscape:window-width="1378"
     inkscape:window-height="894"
     id="namedview40"
     showgrid="false"
     inkscape:zoom="9.8333333"
     inkscape:cx="6.0869242"
     inkscape:cy="13.352681"
     inkscape:window-x="1017"
     inkscape:window-y="212"
     inkscape:window-maximized="0"
     inkscape:current-layer="g4206" />
  <defs
     id="defs4063">
    <linearGradient
       inkscape:collect="always"
       id="linearGradient3361">
      <stop
         style="stop-color:#0068e0;stop-opacity:1;"
         offset="0"
         id="stop3363" />
      <stop
         style="stop-color:#00acf4;stop-opacity:1"
         offset="1"
         id="stop3365" />
    </linearGradient>
    <linearGradient
       id="linearGradient3026"
       y2="40.495998"
       gradientUnits="userSpaceOnUse"
       x2="71.204002"
       gradientTransform="matrix(1.5867757,0,0,1.5867757,-90.525561,-20.217856)"
       y1="15.369"
       x1="71.204002"
       xlink:href="#linearGradient3361">
      <stop
         id="stop4808-4"
         stop-color="#fff"
         offset="0" />
      <stop
         id="stop4810-0"
         stop-color="#fff"
         stop-opacity=".23529"
         offset=".42448" />
      <stop
         id="stop4812-8"
         stop-color="#fff"
         stop-opacity=".15686"
         offset=".82090" />
      <stop
         id="stop4814-0"
         stop-color="#fff"
         stop-opacity=".39216"
         offset="1" />
    </linearGradient>
    <radialGradient
       id="radialGradient3029"
       fx="4.459"
       fy="8.5089"
       gradientUnits="userSpaceOnUse"
       cy="8.6258"
       cx="15.026"
       gradientTransform="matrix(-3.4973e-8 1.8855 -1.7764 -5.4723e-8 39.14 -7.9932)"
       r="20">
      <stop
         id="stop4170"
         stop-color="#c24251"
         offset="0" />
      <stop
         id="stop4172"
         stop-color="#c24251"
         offset=".26238" />
      <stop
         id="stop4174"
         stop-color="#a63643"
         offset=".66094" />
      <stop
         id="stop4176"
         stop-color="#a63643"
         offset="1" />
    </radialGradient>
    <radialGradient
       id="radialGradient3032"
       gradientUnits="userSpaceOnUse"
       cy="3.99"
       cx="23.896"
       gradientTransform="matrix(0,2.8345093,-3.7415327,0,38.928645,-64.268791)"
       r="20.397">
      <stop
         id="stop3244-9-33-7-0-9"
         stop-color="#fff"
         offset="0" />
      <stop
         id="stop3246-3-5-0-8-5"
         stop-color="#ddd"
         offset=".26238" />
      <stop
         id="stop3248-1-7-8-8-1"
         stop-color="#abacae"
         offset=".66094" />
      <stop
         id="stop3250-9-3-0-5-1"
         stop-color="#89898b"
         offset="1" />
    </radialGradient>
    <radialGradient
       id="radialGradient3035"
       gradientUnits="userSpaceOnUse"
       cy="186.17"
       cx="99.157"
       gradientTransform="matrix(0.27083,0,0,0.087623,-2.8551,26.187)"
       r="62.769">
      <stop
         id="stop3822-2-6-3"
         stop-color="#3d3d3d"
         offset="0" />
      <stop
         id="stop3864-8-7-7"
         stop-color="#686868"
         stop-opacity=".49804"
         offset=".5" />
      <stop
         id="stop3824-1-2-5"
         stop-color="#686868"
         stop-opacity="0"
         offset="1" />
    </radialGradient>
    <linearGradient
       id="linearGradient4433"
       y2="25.611"
       gradientUnits="userSpaceOnUse"
       x2="23.078"
       gradientTransform="matrix(1 0 0 1.0521 0 -.90547)"
       y1="13.035"
       x1="22.759">
      <stop
         id="stop6305-1-0-2"
         stop-color="#fff"
         offset="0" />
      <stop
         id="stop6307-5-0-6"
         stop-color="#fff"
         stop-opacity="0"
         offset="1" />
    </linearGradient>
    <linearGradient
       inkscape:collect="always"
       xlink:href="#linearGradient3361"
       id="linearGradient3367"
       x1="25.016949"
       y1="36"
       x2="25.016951"
       y2="9.7627115"
       gradientUnits="userSpaceOnUse"
       gradientTransform="matrix(0.98130841,0,0,0.98130842,0.44859805,0.44849993)" />
    <linearGradient
       id="linearGradient4829">
      <stop
         style="stop-color:#f4fbfc;stop-opacity:1;"
         offset="0"
         id="stop4831" />
      <stop
         style="stop-color:#d6d6d6;stop-opacity:1;"
         offset="1"
         id="stop4833" />
    </linearGradient>
    <radialGradient
       id="SVGID_4_"
       cx="224.50391"
       cy="186.51421"
       r="127.0051"
       gradientUnits="userSpaceOnUse">
      <stop
         offset="0"
         style="stop-color:#FFFFFF"
         id="stop27" />
      <stop
         offset="0.3984"
         style="stop-color:#FDFEFF"
         id="stop29" />
      <stop
         offset="0.6131"
         style="stop-color:#F5FAFF"
         id="stop31" />
      <stop
         offset="0.7841"
         style="stop-color:#E7F3FF"
         id="stop33" />
      <stop
         offset="0.9311"
         style="stop-color:#D4EAFF"
         id="stop35" />
      <stop
         offset="1"
         style="stop-color:#C8E4FF"
         id="stop37" />
    </radialGradient>
    <radialGradient
       gradientUnits="userSpaceOnUse"
       r="26.769501"
       cy="286.66409"
       cx="324.69339"
       id="SVGID_5_">
      <stop
         id="stop50"
         style="stop-color:#FFFFFF"
         offset="0" />
      <stop
         id="stop52"
         style="stop-color:#FDFEFF"
         offset="0.3984" />
      <stop
         id="stop54"
         style="stop-color:#F5FAFF"
         offset="0.6131" />
      <stop
         id="stop56"
         style="stop-color:#E7F3FF"
         offset="0.7841" />
      <stop
         id="stop58"
         style="stop-color:#D4EAFF"
         offset="0.9311" />
      <stop
         id="stop60"
         style="stop-color:#C8E4FF"
         offset="1" />
    </radialGradient>
    <radialGradient
       gradientUnits="userSpaceOnUse"
       r="46.444901"
       cy="392.77249"
       cx="325"
       id="SVGID_6_">
      <stop
         id="stop73"
         style="stop-color:#FFFFFF"
         offset="0" />
      <stop
         id="stop75"
         style="stop-color:#FDFEFF"
         offset="0.3984" />
      <stop
         id="stop77"
         style="stop-color:#F5FAFF"
         offset="0.6131" />
      <stop
         id="stop79"
         style="stop-color:#E7F3FF"
         offset="0.7841" />
      <stop
         id="stop81"
         style="stop-color:#D4EAFF"
         offset="0.9311" />
      <stop
         id="stop83"
         style="stop-color:#C8E4FF"
         offset="1" />
    </radialGradient>
  </defs>
  <metadata
     id="metadata4066">
    <rdf:RDF>
      <cc:Work
         rdf:about="">
        <dc:format>image/svg+xml</dc:format>
        <dc:type
           rdf:resource="http://purl.org/dc/dcmitype/StillImage" />
        <dc:title />
      </cc:Work>
    </rdf:RDF>
  </metadata>
  <g
     id="g4206">
    <path
       id="path3818-0-5"
       d="m 41,42.5 a 17,5.5 0 0 1 -34,0 17,5.5 0 1 1 34,0 z"
       inkscape:connector-curvature="0"
       style="fill:url(#radialGradient3035)" />
    <path
       id="path2555-7-2"
       style="color:#000000;fill:url(#radialGradient3032);stroke-width:0.9813084"
       d="m 24,3.8830794 c -11.099579,0 -20.1168225,9.0172426 -20.1168225,20.1168226 0,11.099579 9.0172435,20.116822 20.1168225,20.116822 11.099579,0 20.116822,-9.017243 20.116822,-20.116822 C 44.116822,12.900322 35.099579,3.8830794 24,3.8830794 Z"
       inkscape:connector-curvature="0" />
    <path
       id="path2555-7-65"
       style="color:#000000;fill:url(#linearGradient3367);fill-opacity:1;stroke-width:0.9813084"
       d="m 24,3.8830794 c -11.099579,0 -20.1168225,9.0172426 -20.1168225,20.1168226 0,11.099579 9.0172435,20.116822 20.1168225,20.116822 11.099579,0 20.116822,-9.017243 20.116822,-20.116822 C 44.116822,12.900322 35.099579,3.8830794 24,3.8830794 Z"
       inkscape:connector-curvature="0" />
    <path
       id="path4176"
       style="color:#000000;opacity:0.5;fill:none;stroke:url(#linearGradient3026);stroke-width:0.9813084;stroke-linecap:round;stroke-linejoin:round"
       d="M 43.135514,23.999902 C 43.135514,34.568593 34.568692,43.135416 24,43.135416 13.431308,43.135416 4.8644859,34.568593 4.8644859,23.999902 4.8644859,13.43121 13.431308,4.8643879 24,4.8643879 c 10.568692,0 19.135514,8.5668221 19.135514,19.1355141 z"
       inkscape:connector-curvature="0" />
    <path
       id="path2555-7-1-7"
       style="color:#000000;opacity:1;fill:none;fill-opacity:1;stroke:#fbfbfb;stroke-width:1.76635504;stroke-linecap:round;stroke-linejoin:round;stroke-miterlimit:4;stroke-dasharray:none;stroke-opacity:1"
       d="M 24,3.8831775 C 12.900421,3.8831775 3.8831775,12.900224 3.8831775,24 3.8831775,35.099776 12.900224,44.116822 24,44.116822 35.099776,44.116822 44.116822,35.099776 44.116822,24 44.116822,12.900224 35.099579,3.8831775 24,3.8831775 Z"
       inkscape:connector-curvature="0" />
    <g
       id="g4317"
       transform="matrix(1.0002,0,0,1.0004,-1.0018,-0.0050486)"
       style="fill:none;stroke:#000000;stroke-linecap:round;stroke-linejoin:round" />
    <g
       id="g4377"
       transform="matrix(0.92303901,0,0,0.92303902,1.7463569,3.4390931)"
       style="fill:none;stroke:#000000;stroke-linecap:round;stroke-linejoin:round">
      <g
         id="g3964">
        <g
           style="opacity:0.15;stroke-width:10.60900021"
           transform="matrix(0.094319,0,0,0.094206,11.164,11.319)"
           id="g4339">
          <g
             style="fill:none;stroke:#000000;stroke-width:10.60900021;stroke-linecap:round;stroke-linejoin:round"
             id="g4341">
            <g
               style="fill:none;stroke:#000000;stroke-width:10.60900021;stroke-linecap:round;stroke-linejoin:round"
               id="g4343">
              <path
                 style="fill:none;stroke:#000000;stroke-width:10.60900021;stroke-linecap:round;stroke-linejoin:round"
                 inkscape:connector-curvature="0"
                 d="M 239.56,0.278 C 231.924,-1.505 216.761,5.482 205.7,15.896 L 149.72,68.59 c -2.207,2.088 -6.305,2.882 -9.138,1.783 L 38.462,30.807 c -2.835,-1.094 -7.08,-0.483 -9.479,1.386 L 8.846,47.805 c -2.399,1.864 -2.226,4.627 0.392,6.174 l 94.086,55.592 c 2.614,1.542 2.48,3.785 -0.177,5.262 -10.216,5.666 -29.951,24.101 -53.434,57.093 -1.764,2.474 -4.987,4.563 -8.002,4.182 l -23.513,-3.024 c -3.015,-0.383 -7.054,1.176 -9.019,3.49 l -7.875,9.27 c -1.967,2.314 -1.347,5.269 1.386,6.6 l 20.995,10.192 c 2.735,1.325 3.853,4.616 2.9,7.505 -1.008,3.057 -2.011,7.168 -2.035,11.495 -0.019,3.038 2.963,6.081 5.998,6.221 4.219,0.196 10.3,-0.354 16.092,-3.878 2.595,-1.587 5.4,-1.106 6.69,1.643 l 12.396,26.514 c 1.291,2.754 4.264,3.453 6.648,1.563 l 5.491,-4.345 c 2.385,-1.886 4.125,-5.871 3.89,-8.905 l -2.098,-27.274 c -0.233,-3.024 1.706,-6.721 4.292,-8.321 11.892,-7.351 43.17,-27.857 57.132,-48.36 1.713,-2.516 4.191,-2.604 5.806,-0.032 l 54.75,87.171 c 1.615,2.576 4.644,2.89 6.758,0.71 l 11.164,-11.519 c 2.118,-2.184 3.057,-6.281 2.096,-9.166 l -35.93,-107.85 c -0.961,-2.877 -0.079,-7.036 1.975,-9.273 l 49.467,-53.93 c 10.25,-11.197 18.05,-26.72 17.4,-34.682 -0.65,-7.969 -7.37,-15.873 -15.01,-17.66 z"
                 id="path4345" />
            </g>
          </g>
        </g>
        <g
           style="opacity:0.15;stroke-width:21.21699905"
           transform="matrix(0.094319,0,0,0.094206,11.164,11.319)"
           id="g4301">
          <g
             style="fill:none;stroke:#000000;stroke-width:21.21699905;stroke-linecap:round;stroke-linejoin:round"
             id="g4303">
            <g
               style="fill:none;stroke:#000000;stroke-width:21.21699905;stroke-linecap:round;stroke-linejoin:round"
               id="g4305">
              <path
                 style="fill:none;stroke:#000000;stroke-width:21.21699905;stroke-linecap:round;stroke-linejoin:round"
                 inkscape:connector-curvature="0"
                 d="M 239.56,0.278 C 231.924,-1.505 216.761,5.482 205.7,15.896 L 149.72,68.59 c -2.207,2.088 -6.305,2.882 -9.138,1.783 L 38.462,30.807 c -2.835,-1.094 -7.08,-0.483 -9.479,1.386 L 8.846,47.805 c -2.399,1.864 -2.226,4.627 0.392,6.174 l 94.086,55.592 c 2.614,1.542 2.48,3.785 -0.177,5.262 -10.216,5.666 -29.951,24.101 -53.434,57.093 -1.764,2.474 -4.987,4.563 -8.002,4.182 l -23.513,-3.024 c -3.015,-0.383 -7.054,1.176 -9.019,3.49 l -7.875,9.27 c -1.967,2.314 -1.347,5.269 1.386,6.6 l 20.995,10.192 c 2.735,1.325 3.853,4.616 2.9,7.505 -1.008,3.057 -2.011,7.168 -2.035,11.495 -0.019,3.038 2.963,6.081 5.998,6.221 4.219,0.196 10.3,-0.354 16.092,-3.878 2.595,-1.587 5.4,-1.106 6.69,1.643 l 12.396,26.514 c 1.291,2.754 4.264,3.453 6.648,1.563 l 5.491,-4.345 c 2.385,-1.886 4.125,-5.871 3.89,-8.905 l -2.098,-27.274 c -0.233,-3.024 1.706,-6.721 4.292,-8.321 11.892,-7.351 43.17,-27.857 57.132,-48.36 1.713,-2.516 4.191,-2.604 5.806,-0.032 l 54.75,87.171 c 1.615,2.576 4.644,2.89 6.758,0.71 l 11.164,-11.519 c 2.118,-2.184 3.057,-6.281 2.096,-9.166 l -35.93,-107.85 c -0.961,-2.877 -0.079,-7.036 1.975,-9.273 l 49.467,-53.93 c 10.25,-11.197 18.05,-26.72 17.4,-34.682 -0.65,-7.969 -7.37,-15.873 -15.01,-17.66 z"
                 id="path4307" />
            </g>
          </g>
        </g>
      </g>
    </g>
    <g
       id="g4281"
       transform="matrix(0.08706012,0,0,0.08695581,12.050903,13.885668)"
       style="fill:#ffffff">
      <g
         id="g4239"
         style="fill:#ffffff">
        <g
           id="g4241"
           style="fill:#ffffff">
          <path
             id="path4243"
             d="M 239.56,0.278 C 231.924,-1.505 216.761,5.482 205.7,15.896 L 149.72,68.59 c -2.207,2.088 -6.305,2.882 -9.138,1.783 L 38.462,30.807 c -2.835,-1.094 -7.08,-0.483 -9.479,1.386 L 8.846,47.805 c -2.399,1.864 -2.226,4.627 0.392,6.174 l 94.086,55.592 c 2.614,1.542 2.48,3.785 -0.177,5.262 -10.216,5.666 -29.951,24.101 -53.434,57.093 -1.764,2.474 -4.987,4.563 -8.002,4.182 l -23.513,-3.024 c -3.015,-0.383 -7.054,1.176 -9.019,3.49 l -7.875,9.27 c -1.967,2.314 -1.347,5.269 1.386,6.6 l 20.995,10.192 c 2.735,1.325 3.853,4.616 2.9,7.505 -1.008,3.057 -2.011,7.168 -2.035,11.495 -0.019,3.038 2.963,6.081 5.998,6.221 4.219,0.196 10.3,-0.354 16.092,-3.878 2.595,-1.587 5.4,-1.106 6.69,1.643 l 12.396,26.514 c 1.291,2.754 4.264,3.453 6.648,1.563 l 5.491,-4.345 c 2.385,-1.886 4.125,-5.871 3.89,-8.905 l -2.098,-27.274 c -0.233,-3.024 1.706,-6.721 4.292,-8.321 11.892,-7.351 43.17,-27.857 57.132,-48.36 1.713,-2.516 4.191,-2.604 5.806,-0.032 l 54.75,87.171 c 1.615,2.576 4.644,2.89 6.758,0.71 l 11.164,-11.519 c 2.118,-2.184 3.057,-6.281 2.096,-9.166 l -35.93,-107.85 c -0.961,-2.877 -0.079,-7.036 1.975,-9.273 l 49.467,-53.93 c 10.25,-11.197 18.05,-26.72 17.4,-34.682 -0.65,-7.969 -7.37,-15.873 -15.01,-17.66 z"
             inkscape:connector-curvature="0"
             style="fill:#ffffff" />
        </g>
      </g>
    </g>
  </g>
</svg>
