<?xml version="1.0" encoding="UTF-8" standalone="no"?>
<!-- Generator: flash2svg, http://dissentgraphics.com/tools/flash2svg -->

<svg
   xmlns:dc="http://purl.org/dc/elements/1.1/"
   xmlns:cc="http://creativecommons.org/ns#"
   xmlns:rdf="http://www.w3.org/1999/02/22-rdf-syntax-ns#"
   xmlns:svg="http://www.w3.org/2000/svg"
   xmlns="http://www.w3.org/2000/svg"
   xmlns:xlink="http://www.w3.org/1999/xlink"
   xmlns:sodipodi="http://sodipodi.sourceforge.net/DTD/sodipodi-0.dtd"
   xmlns:inkscape="http://www.inkscape.org/namespaces/inkscape"
   id="Gimp"
   image-rendering="optimizeSpeed"
   version="1.1"
   style="background-color:#ffffff"
   x="0px"
   y="0px"
   width="1024px"
   height="1024px"
   viewBox="0 0 1024 1024"
   enable-background="new 0 0 1024 1024"
   sodipodi:docname="gimp.svg"
   inkscape:version="0.92.2 2405546, 2018-03-11">
  <metadata
     id="metadata58">
    <rdf:RDF>
      <cc:Work
         rdf:about="">
        <dc:format>image/svg+xml</dc:format>
        <dc:type
           rdf:resource="http://purl.org/dc/dcmitype/StillImage" />
        <dc:title />
      </cc:Work>
    </rdf:RDF>
  </metadata>
  <sodipodi:namedview
     pagecolor="#ffffff"
     bordercolor="#666666"
     borderopacity="1"
     objecttolerance="10"
     gridtolerance="10"
     guidetolerance="10"
     inkscape:pageopacity="0"
     inkscape:pageshadow="2"
     inkscape:window-width="1366"
     inkscape:window-height="745"
     id="namedview56"
     showgrid="true"
     inkscape:zoom="0.55175781"
     inkscape:cx="239.2354"
     inkscape:cy="512"
     inkscape:window-x="0"
     inkscape:window-y="23"
     inkscape:window-maximized="1"
     inkscape:current-layer="shape2"
     inkscape:pagecheckerboard="true">
    <inkscape:grid
       type="xygrid"
       id="grid868" />
  </sodipodi:namedview>
  <defs
     transform="matrix(1 0 0 1 0 0) "
     id="defs2">
    <linearGradient
       id="linearGradient876"
       inkscape:collect="always">
      <stop
         style="stop-color:#d7d7d7;stop-opacity:1"
         offset="0"
         id="stop874" />
      <stop
         style="stop-color:#ffffff;stop-opacity:1"
         offset="1"
         id="stop872" />
    </linearGradient>
    <linearGradient
       inkscape:collect="always"
       id="linearGradient871">
      <stop
         style="stop-color:#ffffff;stop-opacity:1"
         offset="0"
         id="stop867" />
      <stop
         style="stop-color:#d7d7d7;stop-opacity:1"
         offset="1"
         id="stop869" />
    </linearGradient>
    <linearGradient
       inkscape:collect="always"
       id="linearGradient870">
      <stop
         style="stop-color:#6b4f35;stop-opacity:1"
         offset="0"
         id="stop866" />
      <stop
         style="stop-color:#323232;stop-opacity:1"
         offset="1"
         id="stop868" />
    </linearGradient>
    <linearGradient
       inkscape:collect="always"
       xlink:href="#linearGradient870"
       id="linearGradient872"
       x1="520"
       y1="44"
       x2="520"
       y2="984"
       gradientUnits="userSpaceOnUse" />
    <linearGradient
       inkscape:collect="always"
       xlink:href="#linearGradient876"
       id="linearGradient878"
       gradientUnits="userSpaceOnUse"
       x1="520.03137"
       y1="2.0078433"
       x2="520.03137"
       y2="1026.0078"
       gradientTransform="matrix(0.88023039,0,0,0.8802744,63.843559,58.692317)" />
    <linearGradient
       inkscape:collect="always"
       xlink:href="#linearGradient870"
       id="linearGradient880"
       gradientUnits="userSpaceOnUse"
       x1="520"
       y1="44"
       x2="520"
       y2="984" />
    <linearGradient
       inkscape:collect="always"
       xlink:href="#linearGradient871"
       id="linearGradient873"
       x1="540.1098"
       y1="2.0078433"
       x2="520.03137"
       y2="1026.0078"
       gradientUnits="userSpaceOnUse" />
    <linearGradient
       inkscape:collect="always"
       xlink:href="#linearGradient870"
       id="linearGradient888"
       x1="522.53101"
       y1="275.02899"
       x2="522.53101"
       y2="755.02899"
       gradientUnits="userSpaceOnUse" />
    <filter
       inkscape:collect="always"
       style="color-interpolation-filters:sRGB"
       id="filter910"
       x="-0.031303153"
       width="1.0626063"
       y="-0.042355129"
       height="1.0847103">
      <feGaussianBlur
         inkscape:collect="always"
         stdDeviation="8.3474809"
         id="feGaussianBlur912" />
    </filter>
  </defs>
  <g
     id="shadow"
     transform="matrix(0.87890625,0,0,0.87890625,65,59)">
    <g
       id="shape">
      <path
         id="path"
         d="m 986.739,315.98644 q -9.3288,-22.61695 -21.0441,-44.31186 c -4.3932,-8.18983 -9.0576,-16.32543 -13.9932,-24.29831 C 930.49492,212.98983 904.62373,180.50169 874.08814,149.9661 774.12881,50.00678 653.39661,0 512,0 370.60339,0 249.92542,50.00678 149.9661,149.9661 50.00678,249.92542 0,370.60339 0,512 0,653.39661 50.00678,774.12881 149.9661,874.08814 249.92542,974.04746 370.60339,1024 512,1024 653.39661,1024 774.12881,974.04746 874.08814,874.08814 929.13898,818.98305 969.0576,757.58644 993.7898,689.95254 1013.9119,634.79322 1024,575.51186 1024,512 c 0,-48.70508 -5.9119,-94.96949 -17.7898,-138.79322 -1.356,-4.93559 -2.7661,-9.87119 -4.2305,-14.75254 -4.4475,-14.42712 -9.5458,-28.58305 -15.2407,-42.4678 z"
         style="fill:url(#linearGradient873);fill-opacity:1;stroke-width:1.08474576"
         inkscape:connector-curvature="0" />
    </g>
  </g>
  <g
     id="ico-shadow"
     style="fill:url(#linearGradient872);fill-opacity:1"
     transform="matrix(0.99609375,0,0,0.99609375,2,2)">
    <g
       id="shape2"
       style="fill:url(#linearGradient880);fill-opacity:1">
      <path
         id="path1"
         d="m 703.9471,139.45749 c -7.658,-3.8292 -15.71211,-7.61437 -23.98628,-11.17949 -7.56998,-3.30102 -15.09596,-6.33797 -22.79797,-9.15485 -37.0577,-13.86432 -74.15941,-22.314955 -111.30513,-25.21986 -61.08799,-4.929537 -122.30801,4.753481 -183.88013,29.04905 -20.6414,8.18656 -40.18252,17.51746 -58.62334,28.08076 -36.35352,20.86251 -68.30588,46.34644 -95.505,76.31978 q -45.41989,49.82354 -74.42348,116.68038 c -17.82466,41.06479 -28.91556,82.26164 -33.31672,122.93031 -0.396099,3.91723 -0.748193,7.57036 -1.056275,11.2235 -3.256853,40.14052 -0.176047,79.88491 9.022355,119.71732 5.01732,21.61074 11.66306,42.91337 20.02525,64.12799 24.38238,61.57518 59.19549,113.02722 104.35131,154.13604 27.68324,25.21987 59.15148,46.5225 94.44872,64.08398 0.13204,0.044 0.22006,0.0881 0.30808,0.13203 2.72871,1.36443 5.3694,2.64082 7.61399,3.65315 4.31313,2.06864 8.14214,3.82919 11.97113,5.5017 0.96826,0.39614 1.67244,0.74825 2.42064,1.05633 8.31818,3.60913 16.63635,6.91016 24.55842,9.85908 2.06855,0.74823 3.96105,1.45245 5.80953,2.11266 16.76839,5.89784 33.6248,10.69533 50.08511,14.34847 6.95382,1.49647 13.90764,2.8609 20.68541,4.00525 0.83622,0.17605 1.71645,0.26408 2.37662,0.39612 10.25469,1.62851 20.42135,2.8609 30.58801,3.69716 61.44008,4.79749 122.52807,-4.88552 183.83612,-29.09308 21.4336,-8.45063 41.6349,-18.17765 60.55985,-29.18109 30.89608,-17.91358 58.49131,-39.17221 82.82967,-63.81989 3.65296,-3.69715 7.2179,-7.48233 10.78283,-11.35554 7.39393,-8.14254 14.5238,-16.6812 21.34558,-25.61599 17.64862,-23.01917 33.05265,-48.50311 46.30012,-76.31979 2.28863,-4.8415 4.53316,-9.77103 6.73375,-14.83262 0.22006,-0.52816 0.48415,-1.10034 0.70421,-1.6285 0.132,-0.26409 0.22006,-0.52817 0.35206,-0.79226 2.46467,-5.80981 4.79726,-11.66363 7.12985,-17.60548 10.25471,-26.98041 17.73671,-54.26891 22.31391,-81.90953 0.61615,-3.8732 1.2323,-8.05451 1.84844,-12.23582 0.79218,-6.47001 1.54041,-13.07207 2.06859,-19.8942 0.0882,-1.2764 0.22006,-2.77286 0.35206,-4.35736 1.14432,-16.98929 1.14432,-34.06661 0.0882,-51.40801 -0.39608,-5.63376 -0.88023,-11.35554 -1.49638,-17.25338 -0.17603,-1.62851 -0.39609,-3.38906 -0.61614,-5.14961 -1.76048,-14.4365 -4.35715,-28.91702 -7.87809,-43.74963 -4.79727,-20.37836 -11.31097,-41.15283 -19.54112,-61.97132 C 876.78037,295.4421 842.05527,244.12212 796.63539,202.7052 780.13107,187.65252 761.99832,173.83221 742.45721,161.37632 730.26602,153.54188 717.54669,146.32364 703.94713,139.45749 Z"
         style="fill:url(#linearGradient878);fill-opacity:1;stroke-width:0.88025236"
         inkscape:connector-curvature="0" />
    </g>
  </g>
  <g
     id="g896"
     transform="matrix(0.88235294,0,0,0.88235294,52.581765,75.610294)"
     style="opacity:0.2;fill:#000000;fill-opacity:1;filter:url(#filter910)">
    <path
       id="path890"
       d="m 823,299.873 c -4.348,-19.453 -8.607,-24.373 -8.607,-24.373 0,0 -8.647,17.992 -21.868,39.594 -13.222,21.643 -34.357,44.625 -52.613,59.074 -23.75,18.838 -47.846,30.945 -69.174,37.941 -21.291,7.033 -38.664,11.066 -38.664,11.066 9.377,7.613 19.408,17.068 24.864,27.91 5.416,10.801 8.533,22.982 8.533,36.244 0,25.945 -9.994,48.277 -26.285,64.152 -16.299,15.836 -38.934,25.215 -64.26,25.215 -30.746,0 -55.069,-9.148 -71.711,-24.793 -16.641,-15.685 -25.598,-37.9 -25.598,-64.039 0,-9.951 1.502,-19.099 4.227,-27.402 2.732,-8.264 6.689,-15.723 11.648,-22.258 0,0 -7.381,1 -20.521,-1.764 -13.108,-2.773 -32.053,-9.345 -55.149,-24.447 -19.642,-12.838 -36.779,-30.787 -49.039,-45.508 -12.224,-14.723 -19.558,-26.258 -19.558,-26.258 0,0 0.729,59.387 0.457,92.254 -0.688,91.02 -9.914,91.598 -9.914,91.598 -11.223,-15.879 -23.327,-29.563 -37.78,-39.285 -14.484,-9.727 -31.32,-15.449 -52.033,-15.412 -25.057,0.037 -39.084,9.336 -47.076,22.254 -7.996,12.953 -9.955,29.48 -10.762,43.972 -1.461,24.983 11.145,56.271 31.936,81.256 20.826,24.983 49.881,43.705 81.436,43.668 2.229,0 4.612,-0.154 7.033,-0.463 2.418,-0.347 4.881,-0.808 7.418,-1.461 0,0 7.108,6.84 23.44,17.336 16.334,10.528 41.89,24.676 78.785,39.358 19.139,7.607 39.545,15.642 65.063,21.904 25.518,6.268 56.106,10.768 95.614,11.268 54.035,0.652 92.584,-11.268 121.326,-28.563 28.787,-17.297 47.812,-40.01 62.838,-60.994 27.131,-37.979 43.465,-83.527 52.957,-127.766 9.494,-44.203 12.187,-87.103 12.031,-119.734 C 831.723,353.301 827.301,319.322 823,299.873 Z M 244.457,542.756 c -16.986,0 -30.744,-13.76 -30.744,-30.75 0,-16.988 13.758,-30.75 30.744,-30.75 16.951,0 30.744,13.762 30.744,30.75 0,16.99 -13.793,30.75 -30.744,30.75 z m 165.908,15.914 c -42.004,-0.041 -58.918,-27.406 -58.57,-51.736 0.387,-26.6 11.529,-59.616 59.07,-59.271 28.975,0.195 56.535,25.484 56.377,55.924 -0.15,27.563 -23.867,55.083 -56.877,55.083 z m 272.166,96.359 c -2.076,5.655 -4.992,9.608 -4.992,9.608 0,0 1.113,-6.184 1.189,-10.684 0.036,-4.648 -1.189,-10.338 -1.189,-10.338 0,0 -3.266,6.955 -14.799,13.951 -11.527,6.957 -31.666,15.682 -64.793,15.682 -28.363,0 -43.963,-4.303 -52.767,-6.801 -8.84,-2.539 -10.565,-5.035 -10.565,-5.035 0,0 22.326,2.109 45.311,0.84 30.818,-1.648 47.92,-7.994 66.597,-15.023 10.803,-4.112 23.563,-14.646 23.563,-14.646 0,0 -4.078,-4.342 -9.727,-8.803 -5.302,-4.111 -12.373,-8.494 -12.373,-8.494 0,0 6.188,0.729 13.524,3.615 7.342,2.918 15.875,7.955 20.56,16.526 3.651,6.69 2.498,13.954 0.461,19.602 z"
       inkscape:connector-curvature="0"
       style="fill:#000000;fill-opacity:1" />
    <path
       id="path892"
       d="m 588.301,463.961 c -22.252,0 -40.276,17.834 -40.276,39.82 0,21.946 18.024,39.78 40.276,39.78 22.252,0 40.273,-17.834 40.273,-39.78 0,-21.986 -18.021,-39.82 -40.273,-39.82 z m 0.998,56.078 c -8.494,0 -15.371,-6.875 -15.371,-15.371 0,-8.457 6.877,-15.375 15.371,-15.375 8.457,0 15.371,6.918 15.371,15.375 0,8.496 -6.914,15.371 -15.371,15.371 z"
       inkscape:connector-curvature="0"
       style="fill:#000000;fill-opacity:1" />
    <path
       id="path894"
       d="m 420.434,485.756 c -14.371,0 -26.018,11.875 -26.018,26.521 0,14.686 11.646,26.563 26.018,26.563 14.334,0 25.982,-11.877 25.982,-26.563 0,-14.646 -11.648,-26.521 -25.982,-26.521 z m 0.382,36.051 c -4.228,0 -7.687,-3.42 -7.687,-7.686 0,-4.228 3.459,-7.688 7.687,-7.688 4.268,0 7.688,3.461 7.688,7.688 0,4.266 -3.42,7.686 -7.688,7.686 z"
       inkscape:connector-curvature="0"
       style="fill:#000000;fill-opacity:1" />
  </g>
  <g
     transform="matrix(0.88235294,0,0,0.88235294,45.915588,51.297941)"
     id="g21">
    <path
       style="fill:url(#linearGradient888);fill-opacity:1"
       inkscape:connector-curvature="0"
       d="m 823,299.873 c -4.348,-19.453 -8.607,-24.373 -8.607,-24.373 0,0 -8.647,17.992 -21.868,39.594 -13.222,21.643 -34.357,44.625 -52.613,59.074 -23.75,18.838 -47.846,30.945 -69.174,37.941 -21.291,7.033 -38.664,11.066 -38.664,11.066 9.377,7.613 19.408,17.068 24.864,27.91 5.416,10.801 8.533,22.982 8.533,36.244 0,25.945 -9.994,48.277 -26.285,64.152 -16.299,15.836 -38.934,25.215 -64.26,25.215 -30.746,0 -55.069,-9.148 -71.711,-24.793 -16.641,-15.685 -25.598,-37.9 -25.598,-64.039 0,-9.951 1.502,-19.099 4.227,-27.402 2.732,-8.264 6.689,-15.723 11.648,-22.258 0,0 -7.381,1 -20.521,-1.764 -13.108,-2.773 -32.053,-9.345 -55.149,-24.447 -19.642,-12.838 -36.779,-30.787 -49.039,-45.508 -12.224,-14.723 -19.558,-26.258 -19.558,-26.258 0,0 0.729,59.387 0.457,92.254 -0.688,91.02 -9.914,91.598 -9.914,91.598 -11.223,-15.879 -23.327,-29.563 -37.78,-39.285 -14.484,-9.727 -31.32,-15.449 -52.033,-15.412 -25.057,0.037 -39.084,9.336 -47.076,22.254 -7.996,12.953 -9.955,29.48 -10.762,43.972 -1.461,24.983 11.145,56.271 31.936,81.256 20.826,24.983 49.881,43.705 81.436,43.668 2.229,0 4.612,-0.154 7.033,-0.463 2.418,-0.347 4.881,-0.808 7.418,-1.461 0,0 7.108,6.84 23.44,17.336 16.334,10.528 41.89,24.676 78.785,39.358 19.139,7.607 39.545,15.642 65.063,21.904 25.518,6.268 56.106,10.768 95.614,11.268 54.035,0.652 92.584,-11.268 121.326,-28.563 28.787,-17.297 47.812,-40.01 62.838,-60.994 27.131,-37.979 43.465,-83.527 52.957,-127.766 9.494,-44.203 12.187,-87.103 12.031,-119.734 C 831.723,353.301 827.301,319.322 823,299.873 Z M 244.457,542.756 c -16.986,0 -30.744,-13.76 -30.744,-30.75 0,-16.988 13.758,-30.75 30.744,-30.75 16.951,0 30.744,13.762 30.744,30.75 0,16.99 -13.793,30.75 -30.744,30.75 z m 165.908,15.914 c -42.004,-0.041 -58.918,-27.406 -58.57,-51.736 0.387,-26.6 11.529,-59.616 59.07,-59.271 28.975,0.195 56.535,25.484 56.377,55.924 -0.15,27.563 -23.867,55.083 -56.877,55.083 z m 272.166,96.359 c -2.076,5.655 -4.992,9.608 -4.992,9.608 0,0 1.113,-6.184 1.189,-10.684 0.036,-4.648 -1.189,-10.338 -1.189,-10.338 0,0 -3.266,6.955 -14.799,13.951 -11.527,6.957 -31.666,15.682 -64.793,15.682 -28.363,0 -43.963,-4.303 -52.767,-6.801 -8.84,-2.539 -10.565,-5.035 -10.565,-5.035 0,0 22.326,2.109 45.311,0.84 30.818,-1.648 47.92,-7.994 66.597,-15.023 10.803,-4.112 23.563,-14.646 23.563,-14.646 0,0 -4.078,-4.342 -9.727,-8.803 -5.302,-4.111 -12.373,-8.494 -12.373,-8.494 0,0 6.188,0.729 13.524,3.615 7.342,2.918 15.875,7.955 20.56,16.526 3.651,6.69 2.498,13.954 0.461,19.602 z"
       id="path15" />
    <path
       style="fill:#634b35;fill-opacity:1"
       inkscape:connector-curvature="0"
       d="m 588.301,463.961 c -22.252,0 -40.276,17.834 -40.276,39.82 0,21.946 18.024,39.78 40.276,39.78 22.252,0 40.273,-17.834 40.273,-39.78 0,-21.986 -18.021,-39.82 -40.273,-39.82 z m 0.998,56.078 c -8.494,0 -15.371,-6.875 -15.371,-15.371 0,-8.457 6.877,-15.375 15.371,-15.375 8.457,0 15.371,6.918 15.371,15.375 0,8.496 -6.914,15.371 -15.371,15.371 z"
       id="path17" />
    <path
       style="fill:#634b35;fill-opacity:1"
       inkscape:connector-curvature="0"
       d="m 420.434,485.756 c -14.371,0 -26.018,11.875 -26.018,26.521 0,14.686 11.646,26.563 26.018,26.563 14.334,0 25.982,-11.877 25.982,-26.563 0,-14.646 -11.648,-26.521 -25.982,-26.521 z m 0.382,36.051 c -4.228,0 -7.687,-3.42 -7.687,-7.686 0,-4.228 3.459,-7.688 7.687,-7.688 4.268,0 7.688,3.461 7.688,7.688 0,4.266 -3.42,7.686 -7.688,7.686 z"
       id="path19" />
  </g>
</svg>
