<?xml version="1.0" encoding="UTF-8" standalone="no"?>
<!-- Created with Inkscape (http://www.inkscape.org/) -->

<svg
   xmlns:dc="http://purl.org/dc/elements/1.1/"
   xmlns:cc="http://creativecommons.org/ns#"
   xmlns:rdf="http://www.w3.org/1999/02/22-rdf-syntax-ns#"
   xmlns:svg="http://www.w3.org/2000/svg"
   xmlns="http://www.w3.org/2000/svg"
   xmlns:xlink="http://www.w3.org/1999/xlink"
   xmlns:sodipodi="http://sodipodi.sourceforge.net/DTD/sodipodi-0.dtd"
   xmlns:inkscape="http://www.inkscape.org/namespaces/inkscape"
   id="svg4061"
   height="48"
   width="48"
   version="1.1"
   inkscape:version="0.92.2 (unknown)"
   sodipodi:docname="gnome-twitch.svg">
  <sodipodi:namedview
     pagecolor="#ffffff"
     bordercolor="#666666"
     borderopacity="1"
     objecttolerance="10"
     gridtolerance="10"
     guidetolerance="10"
     inkscape:pageopacity="0"
     inkscape:pageshadow="2"
     inkscape:window-width="1378"
     inkscape:window-height="894"
     id="namedview40"
     showgrid="false"
     inkscape:zoom="6.9532167"
     inkscape:cx="26.029429"
     inkscape:cy="8.4616639"
     inkscape:window-x="416"
     inkscape:window-y="120"
     inkscape:window-maximized="0"
     inkscape:current-layer="g4206" />
  <defs
     id="defs4063">
    <linearGradient
       inkscape:collect="always"
       id="linearGradient3361">
      <stop
         style="stop-color:#0068e0;stop-opacity:1;"
         offset="0"
         id="stop3363" />
      <stop
         style="stop-color:#00acf4;stop-opacity:1"
         offset="1"
         id="stop3365" />
    </linearGradient>
    <linearGradient
       id="linearGradient3026"
       y2="40.495998"
       gradientUnits="userSpaceOnUse"
       x2="71.204002"
       gradientTransform="matrix(1.617,0,0,1.617,-92.707,-21.06)"
       y1="15.369"
       x1="71.204002"
       xlink:href="#linearGradient3361">
      <stop
         id="stop4808-4"
         stop-color="#fff"
         offset="0" />
      <stop
         id="stop4810-0"
         stop-color="#fff"
         stop-opacity=".23529"
         offset=".42448" />
      <stop
         id="stop4812-8"
         stop-color="#fff"
         stop-opacity=".15686"
         offset=".82090" />
      <stop
         id="stop4814-0"
         stop-color="#fff"
         stop-opacity=".39216"
         offset="1" />
    </linearGradient>
    <radialGradient
       id="radialGradient3029"
       fx="4.459"
       fy="8.5089"
       gradientUnits="userSpaceOnUse"
       cy="8.6258"
       cx="15.026"
       gradientTransform="matrix(-3.4973e-8 1.8855 -1.7764 -5.4723e-8 39.14 -7.9932)"
       r="20">
      <stop
         id="stop4170"
         stop-color="#c24251"
         offset="0" />
      <stop
         id="stop4172"
         stop-color="#c24251"
         offset=".26238" />
      <stop
         id="stop4174"
         stop-color="#a63643"
         offset=".66094" />
      <stop
         id="stop4176"
         stop-color="#a63643"
         offset="1" />
    </radialGradient>
    <radialGradient
       id="radialGradient3032"
       gradientUnits="userSpaceOnUse"
       cy="3.99"
       cx="23.896"
       gradientTransform="matrix(0,2.9445874,-3.886835,0,39.508399,-67.696706)"
       r="20.397">
      <stop
         id="stop3244-9-33-7-0-9"
         stop-color="#fff"
         offset="0" />
      <stop
         id="stop3246-3-5-0-8-5"
         stop-color="#ddd"
         offset=".26238" />
      <stop
         id="stop3248-1-7-8-8-1"
         stop-color="#abacae"
         offset=".66094" />
      <stop
         id="stop3250-9-3-0-5-1"
         stop-color="#89898b"
         offset="1" />
    </radialGradient>
    <radialGradient
       id="radialGradient3035"
       gradientUnits="userSpaceOnUse"
       cy="186.17"
       cx="99.157"
       gradientTransform="matrix(0.27083,0,0,0.087623,-2.8551,26.187)"
       r="62.769">
      <stop
         id="stop3822-2-6-3"
         stop-color="#3d3d3d"
         offset="0" />
      <stop
         id="stop3864-8-7-7"
         stop-color="#686868"
         stop-opacity=".49804"
         offset=".5" />
      <stop
         id="stop3824-1-2-5"
         stop-color="#686868"
         stop-opacity="0"
         offset="1" />
    </radialGradient>
    <linearGradient
       id="linearGradient4433"
       y2="25.611"
       gradientUnits="userSpaceOnUse"
       x2="23.078"
       gradientTransform="matrix(1 0 0 1.0521 0 -.90547)"
       y1="13.035"
       x1="22.759">
      <stop
         id="stop6305-1-0-2"
         stop-color="#fff"
         offset="0" />
      <stop
         id="stop6307-5-0-6"
         stop-color="#fff"
         stop-opacity="0"
         offset="1" />
    </linearGradient>
    <linearGradient
       id="linearGradient4829">
      <stop
         style="stop-color:#f4fbfc;stop-opacity:1;"
         offset="0"
         id="stop4831" />
      <stop
         style="stop-color:#d6d6d6;stop-opacity:1;"
         offset="1"
         id="stop4833" />
    </linearGradient>
  </defs>
  <metadata
     id="metadata4066">
    <rdf:RDF>
      <cc:Work
         rdf:about="">
        <dc:format>image/svg+xml</dc:format>
        <dc:type
           rdf:resource="http://purl.org/dc/dcmitype/StillImage" />
        <dc:title></dc:title>
      </cc:Work>
    </rdf:RDF>
  </metadata>
  <g
     id="g4206">
    <path
       id="path3818-0-5"
       d="m 41,42.5 a 17,5.5000002 0 0 1 -34,0 17,5.5000002 0 1 1 34,0 z"
       style="fill:url(#radialGradient3035)"
       inkscape:connector-curvature="0" />
    <path
       id="path2555-7-2"
       style="color:#000000;fill:url(#radialGradient3032);stroke-width:1.01941752"
       d="m 24,3.1018398 c -11.530631,0 -20.8980583,9.3674272 -20.8980583,20.8980582 0,11.530631 9.3674273,20.898058 20.8980583,20.898058 11.530631,0 20.898058,-9.367427 20.898058,-20.898058 C 44.898058,12.469267 35.530631,3.1018398 24,3.1018398 Z"
       inkscape:connector-curvature="0" />
    <path
       id="path2555-7-65"
       style="color:#000000;fill:#1a1a1a;fill-opacity:1;stroke-width:1.01941752"
       d="m 24,3.1018398 c -11.530631,0 -20.8980583,9.3674272 -20.8980583,20.8980582 0,11.530631 9.3674273,20.898058 20.8980583,20.898058 11.530631,0 20.898058,-9.367427 20.898058,-20.898058 C 44.898058,12.469267 35.530631,3.1018398 24,3.1018398 Z"
       inkscape:connector-curvature="0" />
    <path
       id="path4176"
       style="color:#000000;opacity:1;fill:#5a2ca0;stroke:#ffffff;stroke-width:2.03883505;stroke-linecap:round;stroke-linejoin:round;stroke-miterlimit:4;stroke-dasharray:none;stroke-opacity:0.98156684"
       d="M 43.878641,23.999898 C 43.878641,34.979024 34.979126,43.878539 24,43.878539 13.020874,43.878539 4.1213592,34.979024 4.1213592,23.999898 4.1213592,13.020772 13.020874,4.1212573 24,4.1212573 c 10.979126,0 19.878641,8.8995147 19.878641,19.8786407 z"
       inkscape:connector-curvature="0" />
    <path
       id="path2555-7-1-7"
       style="color:#000000;opacity:1;fill:none;fill-opacity:1;stroke:#ffffff;stroke-width:0.2038835;stroke-linecap:round;stroke-linejoin:round;stroke-miterlimit:4;stroke-dasharray:none;stroke-opacity:1"
       d="M 24,3.1019418 C 12.469369,3.1019418 3.1019417,12.469165 3.1019417,24 3.1019417,35.530835 12.469165,44.898058 24,44.898058 35.530835,44.898058 44.898058,35.530835 44.898058,24 44.898058,12.469165 35.530631,3.1019418 24,3.1019418 Z"
       inkscape:connector-curvature="0" />
    <g
       id="g4317"
       stroke-linejoin="round"
       transform="matrix(1.0002 0 0 1.0004 -1.0018 -.0050486)"
       stroke="#000"
       stroke-linecap="round"
       fill="none" />
    <path
       d="m 21.310537,37.231491 c -1.038447,0 -2.050479,0 -3.059781,0 -0.06877,-0.07984 -0.04361,-0.169484 -0.04375,-0.251607 -0.0019,-0.794661 -8.99e-4,-1.589176 -8.06e-4,-2.383838 0,-0.109054 0.0012,-0.218108 -0.0015,-0.327162 -0.0011,-0.04516 -0.0107,-0.09024 -0.01461,-0.121154 -0.07415,-0.06441 -0.147495,-0.04744 -0.21523,-0.04759 -0.350551,-4.33e-4 -0.701103,0.0041 -1.051581,0.0039 -1.394384,-10e-4 -2.788843,-0.0029 -4.183227,-0.0056 -0.08389,-1.47e-4 -0.170738,0.01439 -0.264371,-0.02922 -0.0052,-0.04279 -0.01357,-0.08714 -0.01556,-0.131629 -0.0028,-0.0622 -9.61e-4,-0.124623 -9.61e-4,-0.186971 0,-5.351757 7.44e-4,-10.703662 -0.0017,-16.055493 -7.4e-5,-0.181658 0.02656,-0.351216 0.09149,-0.522544 0.466393,-1.230214 0.92622,-2.462936 1.388629,-3.694699 0.02966,-0.07895 0.06353,-0.15635 0.09186,-0.225634 0.213829,-0.02642 21.114178,-0.02804 21.34055,-0.0024 0.0077,0.03918 0.02095,0.08242 0.02369,0.12632 0.0044,0.06987 0.0018,0.140117 0.0018,0.210287 7.4e-5,4.650728 7.44e-4,9.301456 -8.05e-4,13.952184 0,0.357119 0.04612,0.255369 -0.204827,0.506754 -1.953968,1.95692 -3.909191,3.912733 -5.864414,5.868398 -0.229397,0.229471 -0.158785,0.184462 -0.445069,0.184757 -1.371069,0.0014 -2.742138,5.89e-4 -4.113206,5.27e-4 -0.01557,0 -0.03114,-1.47e-4 -0.04671,1.48e-4 -0.323325,0.0052 -0.248729,-0.02737 -0.467279,0.191176 -0.914489,0.914267 -1.827428,1.830157 -2.741105,2.745236 -0.06596,0.06596 -0.133772,0.130009 -0.201506,0.195825 z m -5.207361,-6.772779 c 0.06346,0.0076 0.115916,0.01904 0.168378,0.01926 0.358372,0.0016 0.716819,-0.0021 1.075191,0.0027 0.11385,0.0016 0.196636,-0.02981 0.244449,-0.137239 0.01579,-0.03534 0.03874,-0.06751 0.0577,-0.101528 0.325465,-0.585409 0.655651,-1.168087 0.974771,-1.756963 0.278463,-0.513763 0.52033,-1.045383 0.735117,-1.589103 0.271676,-0.687821 0.430387,-1.399107 0.421237,-2.140865 -0.0067,-0.545122 -0.0273,-1.090096 -0.04774,-1.634997 -0.0228,-0.607101 -0.05652,-1.213759 -0.07777,-1.820934 -0.01527,-0.436511 0.0025,-0.872431 0.06965,-1.304958 0.145283,-0.936033 0.528078,-1.770318 1.085817,-2.529416 0.285326,-0.388329 0.638312,-0.701546 1.049293,-0.951528 0.321259,-0.195382 0.662514,-0.344354 1.022141,-0.453186 0.359701,-0.108907 0.723238,-0.187045 1.102492,-0.163507 0.272045,0.01682 0.545122,0.02147 0.815986,0.04862 0.513689,0.05157 1.014393,0.162621 1.489198,0.372096 1.081316,0.477093 1.872215,1.243347 2.325475,2.343479 0.279718,0.679041 0.394896,1.392318 0.410686,2.120943 0.01225,0.560617 -0.0013,1.121898 -0.0057,1.682809 -0.0045,0.576481 -0.0044,1.152002 0.0532,1.727228 0.06663,0.667457 0.250425,1.29721 0.557887,1.89199 0.465951,0.901502 1.003842,1.758069 1.611238,2.57103 0.03136,0.04191 0.0715,0.0774 0.119162,0.128238 0.0701,-0.06626 0.132886,-0.122778 0.192578,-0.18247 0.523503,-0.523355 1.047523,-1.046047 1.569034,-1.57132 0.262231,-0.26415 0.223715,-0.166754 0.223863,-0.547557 0.0011,-3.607412 7.44e-4,-7.214823 7.44e-4,-10.822235 0,-0.07009 0.0021,-0.140412 -0.002,-0.210286 -0.0026,-0.04412 -0.01527,-0.08766 -0.02376,-0.133477 -0.125065,-0.04154 -0.242456,-0.02819 -0.357856,-0.02819 -5.500728,-5.89e-4 -11.001457,-5.27e-4 -16.502186,-4.34e-4 -0.0701,0 -0.14056,-0.0032 -0.210213,0.0027 -0.05143,0.0044 -0.101749,0.02154 -0.147348,0.0318 -0.03003,0.203646 -0.0321,14.899802 -7.44e-4,15.137241 z m 4.714774,3.099699 c 0.09983,-0.04117 0.156129,-0.117982 0.22069,-0.18247 0.893017,-0.891984 1.78419,-1.785739 2.678092,-2.67669 0.265478,-0.264592 0.15148,-0.218477 0.523725,-0.219215 1.223204,-0.0023 2.446334,-5.27e-4 3.669538,-0.0015 0.09134,-7.4e-5 0.185421,0.01549 0.289384,-0.02811 -0.01623,-0.05335 -0.02479,-0.10566 -0.04722,-0.151259 -0.08227,-0.167713 -0.169409,-0.333212 -0.254262,-0.499597 -0.347157,-0.680221 -0.666129,-1.372839 -0.921572,-2.093347 -0.174722,-0.492883 -0.30355,-0.996537 -0.363832,-1.517827 -0.02258,-0.194866 0.0054,-0.363907 0.108832,-0.534128 0.15421,-0.25382 0.193242,-0.539809 0.169631,-0.833547 -0.01801,-0.224158 -0.11444,-0.402643 -0.318381,-0.511844 -0.0822,-0.04405 -0.163728,-0.09149 -0.250425,-0.124992 -0.312036,-0.120564 -0.626064,-0.235816 -0.939355,-0.352986 -0.03394,-0.01269 -0.07932,-0.01063 -0.08109,-0.06773 0.01402,-0.01535 0.02797,-0.03431 0.04538,-0.04914 0.346419,-0.294623 0.513985,-0.678525 0.548294,-1.123226 0.01896,-0.245187 -0.02435,-0.480634 -0.163876,-0.691659 -0.148381,-0.224379 -0.438945,-0.313142 -0.654249,-0.239431 -0.183503,0.06279 -0.337639,0.162769 -0.459015,0.30842 -0.32635,0.391724 -0.468976,0.836867 -0.371064,1.347015 0.0055,0.02885 0.0058,0.05873 0.01026,0.107652 -0.06567,-0.01564 -0.115989,-0.02582 -0.165351,-0.0397 -0.217149,-0.06117 -0.433412,-0.12536 -0.651003,-0.184831 -0.460196,-0.125803 -0.908955,-0.09467 -1.345244,0.102266 -0.06987,0.03151 -0.142774,0.05644 -0.212574,0.08375 -0.0093,-0.01586 -0.01719,-0.02309 -0.01653,-0.02929 0.0041,-0.03785 0.0093,-0.07556 0.01542,-0.113186 0.06559,-0.405742 -0.02774,-0.773412 -0.269683,-1.102934 -0.09341,-0.127205 -0.210361,-0.229545 -0.363169,-0.283113 -0.192357,-0.06751 -0.378737,-0.02081 -0.500998,0.14115 -0.05504,0.07297 -0.103963,0.159376 -0.125951,0.247106 -0.125729,0.50181 0.0078,0.938247 0.358446,1.310639 0.05224,0.05541 0.12477,0.09179 0.188742,0.135838 0.03062,0.0211 0.06301,0.03947 0.106619,0.06648 -0.06146,0.04774 -0.109792,0.08581 -0.158711,0.123147 -0.198039,0.151259 -0.398216,0.299862 -0.593451,0.454662 -0.08507,0.06751 -0.164909,0.143143 -0.238842,0.22283 -0.124548,0.134288 -0.205121,0.293073 -0.228732,0.476502 -0.03704,0.287539 0.0085,0.559953 0.168303,0.805287 0.0805,0.123664 0.172582,0.239948 0.260829,0.358447 0.04132,0.05556 0.08603,0.108611 0.126172,0.159006 -0.02789,0.219141 -0.05563,0.427288 -0.08079,0.635803 -0.06928,0.57412 -0.196784,1.134441 -0.39652,1.677718 -0.0563,0.15303 -0.10079,0.311372 -0.168377,0.459237 -0.177968,0.389141 -0.366267,0.773633 -0.548811,1.160782 -0.02199,0.04678 -0.03342,0.0985 -0.04877,0.145135 0.07268,0.05991 0.144913,0.0422 0.211983,0.04265 0.327236,0.002 0.654471,2.22e-4 0.981633,0.0018 0.06028,2.95e-4 0.120564,0.0097 0.180699,0.01498 0.04759,0.09946 0.03364,0.193906 0.03379,0.285399 0.0011,0.818126 7.44e-4,1.636178 8.99e-4,2.45423 0,0.07784 0,0.155833 0.006,0.233454 0.002,0.02797 0.02022,0.0546 0.03453,0.09046 z"
       id="path9"
       inkscape:connector-curvature="0"
       style="clip-rule:evenodd;fill:#ffffff;fill-opacity:1;fill-rule:evenodd;stroke-width:0.07378478" />
  </g>
</svg>
