<?xml version="1.0" encoding="UTF-8" standalone="no"?>
<!-- Generator: flash2svg, http://dissentgraphics.com/tools/flash2svg -->

<svg
   xmlns:dc="http://purl.org/dc/elements/1.1/"
   xmlns:cc="http://creativecommons.org/ns#"
   xmlns:rdf="http://www.w3.org/1999/02/22-rdf-syntax-ns#"
   xmlns:svg="http://www.w3.org/2000/svg"
   xmlns="http://www.w3.org/2000/svg"
   xmlns:xlink="http://www.w3.org/1999/xlink"
   xmlns:sodipodi="http://sodipodi.sourceforge.net/DTD/sodipodi-0.dtd"
   xmlns:inkscape="http://www.inkscape.org/namespaces/inkscape"
   id="System-Preferences"
   image-rendering="optimizeSpeed"
   version="1.1"
   style="background-color:#ffffff"
   x="0px"
   y="0px"
   width="1024px"
   height="1024px"
   viewBox="0 0 1024 1024"
   enable-background="new 0 0 1024 1024"
   sodipodi:docname="gnome-tweak-tool.svg"
   inkscape:version="0.92.2 (5c3e80d, 2017-08-06)">
  <metadata
     id="metadata22">
    <rdf:RDF>
      <cc:Work
         rdf:about="">
        <dc:format>image/svg+xml</dc:format>
        <dc:type
           rdf:resource="http://purl.org/dc/dcmitype/StillImage" />
        <dc:title />
      </cc:Work>
    </rdf:RDF>
  </metadata>
  <sodipodi:namedview
     pagecolor="#ffffff"
     bordercolor="#666666"
     borderopacity="1"
     objecttolerance="10"
     gridtolerance="10"
     guidetolerance="10"
     inkscape:pageopacity="0"
     inkscape:pageshadow="2"
     inkscape:window-width="1440"
     inkscape:window-height="838"
     id="namedview20"
     showgrid="true"
     inkscape:zoom="0.60253906"
     inkscape:cx="512"
     inkscape:cy="512"
     inkscape:window-x="0"
     inkscape:window-y="25"
     inkscape:window-maximized="1"
     inkscape:current-layer="System-Preferences"
     inkscape:pagecheckerboard="true">
    <inkscape:grid
       type="xygrid"
       id="grid829" />
  </sodipodi:namedview>
  <defs
     transform="matrix(1 0 0 1 0 0) "
     id="defs2">
    <linearGradient
       id="linearGradient849"
       inkscape:collect="always">
      <stop
         id="stop845"
         offset="0"
         style="stop-color:#ffffff;stop-opacity:1" />
      <stop
         id="stop847"
         offset="1"
         style="stop-color:#d7d7d7;stop-opacity:1" />
    </linearGradient>
    <linearGradient
       id="linearGradient889"
       inkscape:collect="always">
      <stop
         style="stop-color:#888888;stop-opacity:1"
         offset="0"
         id="stop887" />
      <stop
         style="stop-color:#c8c4b7;stop-opacity:1"
         offset="1"
         id="stop885" />
    </linearGradient>
    <linearGradient
       inkscape:collect="always"
       id="linearGradient861">
      <stop
         id="stop859"
         offset="0"
         style="stop-color:#f22c42;stop-opacity:1" />
      <stop
         id="stop857"
         offset="1"
         style="stop-color:#ed7161;stop-opacity:1;" />
    </linearGradient>
    <linearGradient
       inkscape:collect="always"
       id="linearGradient853">
      <stop
         style="stop-color:#000000;stop-opacity:1"
         offset="0"
         id="stop849" />
      <stop
         style="stop-color:#666666;stop-opacity:1"
         offset="1"
         id="stop851" />
    </linearGradient>
    <linearGradient
       inkscape:collect="always"
       id="linearGradient835">
      <stop
         style="stop-color:#ffffff;stop-opacity:1;"
         offset="0"
         id="stop831" />
      <stop
         style="stop-color:#e6e6e6;stop-opacity:1"
         offset="1"
         id="stop833" />
    </linearGradient>
    <linearGradient
       inkscape:collect="always"
       id="linearGradient827">
      <stop
         style="stop-color:#c8c4b7;stop-opacity:1"
         offset="0"
         id="stop823" />
      <stop
         style="stop-color:#888888;stop-opacity:1"
         offset="1"
         id="stop825" />
    </linearGradient>
    <linearGradient
       inkscape:collect="always"
       xlink:href="#linearGradient827"
       id="linearGradient829"
       x1="540"
       y1="4"
       x2="540"
       y2="1024"
       gradientUnits="userSpaceOnUse"
       gradientTransform="matrix(0.99609375,0,0,0.99609375,2,2)" />
    <linearGradient
       inkscape:collect="always"
       xlink:href="#linearGradient849"
       id="linearGradient837"
       x1="499.95294"
       y1="2.0078433"
       x2="499.95294"
       y2="1026.0078"
       gradientUnits="userSpaceOnUse" />
    <linearGradient
       inkscape:collect="always"
       xlink:href="#linearGradient835"
       id="linearGradient847"
       gradientUnits="userSpaceOnUse"
       x1="500"
       y1="4"
       x2="500"
       y2="1024"
       gradientTransform="translate(-0.51562,9.742)" />
    <linearGradient
       inkscape:collect="always"
       xlink:href="#linearGradient853"
       id="linearGradient855"
       x1="540"
       y1="4"
       x2="560"
       y2="1024"
       gradientUnits="userSpaceOnUse"
       gradientTransform="translate(-0.51562,9.742)" />
    <linearGradient
       inkscape:collect="always"
       xlink:href="#linearGradient861"
       id="linearGradient863"
       x1="361.13498"
       y1="519.98434"
       x2="382.51669"
       y2="519.98434"
       gradientUnits="userSpaceOnUse" />
    <linearGradient
       inkscape:collect="always"
       xlink:href="#linearGradient889"
       id="linearGradient875"
       x1="660"
       y1="424"
       x2="660"
       y2="624"
       gradientUnits="userSpaceOnUse"
       gradientTransform="translate(-2.51562,5.742)" />
  </defs>
  <g
     id="shadow"
     transform="matrix(0.99609375,0,0,0.99609375,2,2)">
    <path
       inkscape:connector-curvature="0"
       style="fill:url(#linearGradient837);fill-opacity:1;stroke-width:1.08474576"
       d="m 986.739,315.98644 q -9.3288,-22.61695 -21.0441,-44.31186 c -4.3932,-8.18983 -9.0576,-16.32543 -13.9932,-24.29831 C 930.49492,212.98983 904.62373,180.50169 874.08814,149.9661 774.12881,50.00678 653.39661,0 512,0 370.60339,0 249.92542,50.00678 149.9661,149.9661 50.00678,249.92542 0,370.60339 0,512 0,653.39661 50.00678,774.12881 149.9661,874.08814 249.92542,974.04746 370.60339,1024 512,1024 653.39661,1024 774.12881,974.04746 874.08814,874.08814 929.13898,818.98305 969.0576,757.58644 993.7898,689.95254 1013.9119,634.79322 1024,575.51186 1024,512 c 0,-48.70508 -5.9119,-94.96949 -17.7898,-138.79322 -1.356,-4.93559 -2.7661,-9.87119 -4.2305,-14.75254 -4.4475,-14.42712 -9.5458,-28.58305 -15.2407,-42.4678 z"
       id="path" />
  </g>
  <g
     id="circle"
     transform="matrix(1.0007311,0,0,1.0007311,-0.92418338,0.07585916)">
    <g
       id="shape2">
      <path
         id="path1"
         d="m 967.96191,392.51855 c -1.0957,-4.333 -2.34082,-8.96484 -3.63574,-13.54687 -2.49023,-8.71582 -5.3291,-17.53125 -8.41699,-26.24707 -6.42481,-18.17871 -14.09473,-35.90918 -23.05957,-53.44043 -3.78516,-7.37109 -7.91895,-14.8916 -12.25195,-22.3125 h -0.0249 Q 890.09129,225.16484 844.5459,179.60352 C 752.75586,87.813477 641.89062,41.893555 512.0498,41.893555 382.20898,41.893555 271.39355,87.813477 179.60352,179.60352 87.813477,271.39355 41.893555,382.20898 41.893555,512.0498 c 0,129.84082 45.919922,240.70606 137.709965,332.4961 67.78418,67.78418 145.92773,110.5166 233.98242,128.14746 31.82519,6.375 64.49707,9.51269 98.46386,9.51269 129.84082,0 240.70606,-45.87011 332.4961,-137.66015 48.41015,-48.41016 84.07031,-102.09961 106.93066,-161.16797 16.9336,-43.77832 26.89453,-90.44531 29.83301,-140.2002 0.59766,-10.16015 0.89648,-20.56933 0.89648,-31.12793 0,-41.58691 -4.68164,-81.28125 -14.24414,-119.53125 z"
         style="fill:url(#linearGradient829);fill-opacity:1;stroke-width:0.99609375"
         inkscape:connector-curvature="0" />
    </g>
  </g>
  <g
     id="ico-shadow">
    <g
       id="element4"
       transform="matrix(1 0 0 1 0 0) " />
  </g>
  <path
     inkscape:connector-curvature="0"
     style="fill:url(#linearGradient855);fill-opacity:1;stroke:none;stroke-width:3.38671875;stroke-miterlimit:10;stroke-dasharray:none;stroke-opacity:0.29411765"
     d="m 380,344 h 256.55488 c 99.94951,0 181.72637,81.77686 181.72637,181.72637 v 0 c 0,99.94951 -81.77686,181.72638 -181.72637,181.72638 H 380 c -99.94951,0 -181.72637,-81.77687 -181.72637,-181.72638 v 0 C 198.27363,425.77686 280.05049,344 380,344 Z"
     id="path2" />
  <circle
     style="fill:url(#linearGradient847);fill-opacity:1;stroke-width:10.68978691"
     cx="636.55487"
     cy="525.72638"
     r="128.27744"
     id="circle4" />
  <line
     style="fill:none;stroke:url(#linearGradient863);stroke-width:21.37957382;stroke-linecap:round;stroke-miterlimit:10"
     x1="369.31021"
     y1="440.20807"
     x2="369.31021"
     y2="611.24463"
     id="line6" />
  <circle
     style="opacity:0.66000001;fill:url(#linearGradient875);fill-opacity:1;stroke:none;stroke-width:4.66285706;stroke-linecap:square;stroke-linejoin:miter;stroke-miterlimit:10;stroke-dasharray:none;stroke-opacity:1;paint-order:stroke markers fill"
     id="path867"
     cx="636.91296"
     cy="526.65631"
     r="96" />
</svg>
