<?xml version="1.0" encoding="UTF-8" standalone="no"?>
<!-- Created with Inkscape (http://www.inkscape.org/) -->

<svg
   xmlns:dc="http://purl.org/dc/elements/1.1/"
   xmlns:cc="http://creativecommons.org/ns#"
   xmlns:rdf="http://www.w3.org/1999/02/22-rdf-syntax-ns#"
   xmlns:svg="http://www.w3.org/2000/svg"
   xmlns="http://www.w3.org/2000/svg"
   xmlns:xlink="http://www.w3.org/1999/xlink"
   xmlns:sodipodi="http://sodipodi.sourceforge.net/DTD/sodipodi-0.dtd"
   xmlns:inkscape="http://www.inkscape.org/namespaces/inkscape"
   id="svg4061"
   height="48"
   width="48"
   version="1.1"
   inkscape:version="0.92.2 (unknown)"
   sodipodi:docname="gnome-disks.svg">
  <sodipodi:namedview
     pagecolor="#ffffff"
     bordercolor="#666666"
     borderopacity="1"
     objecttolerance="10"
     gridtolerance="10"
     guidetolerance="10"
     inkscape:pageopacity="0"
     inkscape:pageshadow="2"
     inkscape:window-width="1378"
     inkscape:window-height="894"
     id="namedview40"
     showgrid="false"
     inkscape:zoom="5.152989"
     inkscape:cx="0.57945946"
     inkscape:cy="29.910573"
     inkscape:window-x="1599"
     inkscape:window-y="244"
     inkscape:window-maximized="0"
     inkscape:current-layer="g4206" />
  <defs
     id="defs4063">
    <linearGradient
       id="linearGradient3026"
       y2="40.495998"
       gradientUnits="userSpaceOnUse"
       x2="71.204002"
       gradientTransform="matrix(1.617,0,0,1.617,-92.707,-21.06)"
       y1="15.369"
       x1="71.204002"
       spreadMethod="pad">
      <stop
         id="stop4808-4"
         stop-color="#fff"
         offset="0" />
      <stop
         id="stop4810-0"
         stop-color="#fff"
         stop-opacity=".23529"
         offset=".42448" />
      <stop
         id="stop4812-8"
         stop-color="#fff"
         stop-opacity=".15686"
         offset=".82090" />
      <stop
         id="stop4814-0"
         stop-color="#fff"
         stop-opacity=".39216"
         offset="1" />
    </linearGradient>
    <radialGradient
       id="radialGradient3029"
       fx="4.459"
       fy="8.5089"
       gradientUnits="userSpaceOnUse"
       cy="8.6258"
       cx="15.026"
       gradientTransform="matrix(-3.4973e-8 1.8855 -1.7764 -5.4723e-8 39.14 -7.9932)"
       r="20">
      <stop
         id="stop4170"
         stop-color="#c24251"
         offset="0" />
      <stop
         id="stop4172"
         stop-color="#c24251"
         offset=".26238" />
      <stop
         id="stop4174"
         stop-color="#a63643"
         offset=".66094" />
      <stop
         id="stop4176"
         stop-color="#a63643"
         offset="1" />
    </radialGradient>
    <radialGradient
       id="radialGradient3032"
       gradientUnits="userSpaceOnUse"
       cy="3.99"
       cx="23.896"
       gradientTransform="matrix(0,2.8868329,-3.8128264,0,39.201058,-65.874211)"
       r="20.396999"
       fx="23.896"
       fy="3.99"
       fr="0"
       spreadMethod="pad">
      <stop
         id="stop3244-9-33-7-0-9"
         stop-color="#fff"
         offset="0" />
      <stop
         id="stop3246-3-5-0-8-5"
         stop-color="#ddd"
         offset=".26238" />
      <stop
         id="stop3248-1-7-8-8-1"
         stop-color="#abacae"
         offset=".66094" />
      <stop
         id="stop3250-9-3-0-5-1"
         stop-color="#89898b"
         offset="1" />
    </radialGradient>
    <radialGradient
       id="radialGradient3035"
       gradientUnits="userSpaceOnUse"
       cy="186.17"
       cx="99.157"
       gradientTransform="matrix(0.27083,0,0,0.087623,-2.8550998,26.187597)"
       r="62.769">
      <stop
         id="stop3822-2-6-3"
         stop-color="#3d3d3d"
         offset="0" />
      <stop
         id="stop3864-8-7-7"
         stop-color="#686868"
         stop-opacity=".49804"
         offset=".5" />
      <stop
         id="stop3824-1-2-5"
         stop-color="#686868"
         stop-opacity="0"
         offset="1" />
    </radialGradient>
    <linearGradient
       id="linearGradient4433"
       y2="25.611"
       gradientUnits="userSpaceOnUse"
       x2="23.078"
       gradientTransform="matrix(1 0 0 1.0521 0 -.90547)"
       y1="13.035"
       x1="22.759">
      <stop
         id="stop6305-1-0-2"
         stop-color="#fff"
         offset="0" />
      <stop
         id="stop6307-5-0-6"
         stop-color="#fff"
         stop-opacity="0"
         offset="1" />
    </linearGradient>
    <linearGradient
       id="linearGradient4829">
      <stop
         style="stop-color:#f4fbfc;stop-opacity:1;"
         offset="0"
         id="stop4831" />
      <stop
         style="stop-color:#d6d6d6;stop-opacity:1;"
         offset="1"
         id="stop4833" />
    </linearGradient>
    <filter
       x="-0.5"
       y="-0.5"
       width="2"
       height="2"
       filterUnits="objectBoundingBox"
       id="a">
      <feOffset
         dy="2"
         in="SourceAlpha"
         result="shadowOffsetOuter1"
         id="feOffset5" />
      <feGaussianBlur
         stdDeviation="2"
         in="shadowOffsetOuter1"
         result="shadowBlurOuter1"
         id="feGaussianBlur7" />
      <feColorMatrix
         values="0 0 0 0 0 0 0 0 0 0 0 0 0 0 0 0 0 0 0.272503397 0"
         in="shadowBlurOuter1"
         id="feColorMatrix9" />
    </filter>
    <filter
       x="-0.5"
       y="-0.5"
       width="2"
       height="2"
       filterUnits="objectBoundingBox"
       id="a-3">
      <feOffset
         dy="2"
         in="SourceAlpha"
         result="shadowOffsetOuter1"
         id="feOffset5-6" />
      <feGaussianBlur
         stdDeviation="2"
         in="shadowOffsetOuter1"
         result="shadowBlurOuter1"
         id="feGaussianBlur7-7" />
      <feColorMatrix
         values="0 0 0 0 0 0 0 0 0 0 0 0 0 0 0 0 0 0 0.272503397 0"
         in="shadowBlurOuter1"
         id="feColorMatrix9-5" />
    </filter>
    <linearGradient
       id="linearGradient3104-5-6">
      <stop
         id="stop3106-9-1"
         stop-color="#aaa"
         offset="0" />
      <stop
         id="stop3108-9"
         stop-color="#c8c8c8"
         offset="1" />
    </linearGradient>
    <linearGradient
       id="linearGradient3116"
       y2="65.786003"
       xlink:href="#linearGradient3104-5-6"
       gradientUnits="userSpaceOnUse"
       x2="26.007"
       gradientTransform="matrix(0.89752,0,0,0.89752,2.7772,1.2337)"
       y1="-7.7158999"
       x1="26.007" />
    <linearGradient
       id="c"
       gradientTransform="matrix(0.75298225,0,0,1,8.617543,0)"
       gradientUnits="userSpaceOnUse"
       x1="33.461716"
       x2="34.116894"
       xlink:href="#a-36"
       y1="1013.622"
       y2="1037.2084" />
    <linearGradient
       id="a-36">
      <stop
         offset="0"
         stop-color="#f6fbff"
         id="stop2" />
      <stop
         offset="1"
         stop-color="#eaeff2"
         id="stop4" />
    </linearGradient>
    <linearGradient
       id="b"
       gradientTransform="matrix(1.0309825,0,0,1,-0.512598,0)"
       gradientUnits="userSpaceOnUse"
       x1="17"
       x2="17"
       y1="1036.3622"
       y2="1012.3622">
      <stop
         offset="0"
         stop-color="#8e44ad"
         id="stop7" />
      <stop
         offset="1"
         stop-color="#c370e5"
         id="stop9" />
    </linearGradient>
    <linearGradient
       id="d"
       gradientUnits="userSpaceOnUse"
       x1="27.800341"
       x2="27.800341"
       y1="1037.3622"
       y2="1011.3622">
      <stop
         offset="0"
         stop-color="#84499f"
         id="stop13" />
      <stop
         offset="1"
         stop-color="#a85ccb"
         id="stop15" />
    </linearGradient>
    <linearGradient
       id="e"
       gradientUnits="userSpaceOnUse"
       x1="15.23138"
       x2="25.822527"
       xlink:href="#b"
       y1="1032.542"
       y2="1019.6814"
       gradientTransform="matrix(1.7592729,0,0,1.7592729,-14.62458,-1779.1547)" />
    <linearGradient
       inkscape:collect="always"
       xlink:href="#b-3"
       id="linearGradient3917"
       x1="3"
       y1="24.012121"
       x2="45"
       y2="24.012121"
       gradientUnits="userSpaceOnUse"
       gradientTransform="matrix(0.97619726,0,0,0.97619726,0.55922012,0.58330787)" />
    <linearGradient
       inkscape:collect="always"
       xlink:href="#a-92"
       id="linearGradient3925"
       x1="3.0002992"
       y1="24.012121"
       x2="44.999702"
       y2="24.012121"
       gradientUnits="userSpaceOnUse" />
    <linearGradient
       inkscape:collect="always"
       xlink:href="#a-36"
       id="linearGradient3933"
       x1="2.9879544"
       y1="24.023874"
       x2="44.987953"
       y2="24.023874"
       gradientUnits="userSpaceOnUse" />
    <linearGradient
       id="c-3"
       gradientTransform="matrix(0.670643,0,0,1,11.490058,0)"
       gradientUnits="userSpaceOnUse"
       x1="33.461716"
       x2="34.116894"
       xlink:href="#a-36"
       y1="1013.622"
       y2="1037.2084" />
    <linearGradient
       id="b-3"
       gradientTransform="matrix(1.0309825,0,0,1,-0.512598,0)"
       gradientUnits="userSpaceOnUse"
       x1="17"
       x2="17"
       y1="1036.3622"
       y2="1012.3622">
      <stop
         offset="0"
         stop-color="#3bd450"
         id="stop7-5" />
      <stop
         offset="1"
         stop-color="#53f086"
         id="stop9-6" />
    </linearGradient>
    <linearGradient
       id="d-2"
       gradientUnits="userSpaceOnUse"
       x1="27.800341"
       x2="27.800341"
       y1="1037.3622"
       y2="1011.3622">
      <stop
         offset="0"
         stop-color="#2ec641"
         id="stop13-9" />
      <stop
         offset="1"
         stop-color="#47e47a"
         id="stop15-1" />
    </linearGradient>
    <linearGradient
       id="e-2"
       gradientTransform="matrix(0.77098932,0,0,2.4170799,-26.066287,-2455.6397)"
       gradientUnits="userSpaceOnUse"
       x1="-7.872529"
       x2="4.0257549"
       xlink:href="#b-3"
       y1="1022.0267"
       y2="1022.0267" />
    <linearGradient
       id="f"
       gradientTransform="matrix(1.1872908,0,0,2.4170799,-22.757608,-2448.0225)"
       gradientUnits="userSpaceOnUse"
       x1="-7.872529"
       x2="4.0257549"
       xlink:href="#b-3"
       y1="1022.0267"
       y2="1022.0267" />
    <linearGradient
       id="g"
       gradientTransform="matrix(1.6035924,0,0,2.4170799,-19.524304,-2440.1301)"
       gradientUnits="userSpaceOnUse"
       x1="-7.872529"
       x2="4.0257549"
       xlink:href="#b-3"
       y1="1022.0267"
       y2="1022.0267" />
    <linearGradient
       id="b-7"
       gradientTransform="matrix(0.71497952,0,0,1,9.943319,0)"
       gradientUnits="userSpaceOnUse"
       x1="33.461716"
       x2="34.116894"
       y1="1013.622"
       y2="1037.2084">
      <stop
         offset="0"
         stop-color="#f6fbff"
         id="stop7-0" />
      <stop
         offset="1"
         stop-color="#eaeff2"
         id="stop9-9" />
    </linearGradient>
    <linearGradient
       id="a-360"
       gradientTransform="matrix(1.0309825,0,0,1,-0.512598,0)"
       gradientUnits="userSpaceOnUse"
       x1="17"
       x2="17"
       y1="1036.3622"
       y2="1012.3622">
      <stop
         offset="0"
         stop-color="#f39e18"
         id="stop2-6" />
      <stop
         offset="1"
         stop-color="#f0c953"
         id="stop4-2" />
    </linearGradient>
    <linearGradient
       id="c-6"
       gradientUnits="userSpaceOnUse"
       x1="27.800341"
       x2="27.800341"
       y1="1037.3622"
       y2="1011.3622">
      <stop
         offset="0"
         stop-color="#e59414"
         id="stop12" />
      <stop
         offset="1"
         stop-color="#feaf32"
         id="stop14" />
    </linearGradient>
    <linearGradient
       id="b-1"
       gradientTransform="matrix(0.63264027,0,0,1,12.815834,0)"
       gradientUnits="userSpaceOnUse"
       x1="33.461716"
       x2="34.116894"
       y1="1013.622"
       y2="1037.2084">
      <stop
         offset="0"
         stop-color="#f6fbff"
         id="stop7-8" />
      <stop
         offset="1"
         stop-color="#eaeff2"
         id="stop9-7" />
    </linearGradient>
    <linearGradient
       id="a-9"
       gradientTransform="matrix(1.0309825,0,0,1,-0.512598,0)"
       gradientUnits="userSpaceOnUse"
       x1="17"
       x2="17"
       y1="1036.3622"
       y2="1012.3622">
      <stop
         offset="0"
         stop-color="#c23b16"
         id="stop2-2" />
      <stop
         offset="1"
         stop-color="#ff6a44"
         id="stop4-0" />
    </linearGradient>
    <linearGradient
       id="c-2"
       gradientUnits="userSpaceOnUse"
       x1="27.800341"
       x2="27.800341"
       y1="1037.3622"
       y2="1011.3622">
      <stop
         offset="0"
         stop-color="#a53313"
         id="stop12-3" />
      <stop
         offset="1"
         stop-color="#d95330"
         id="stop14-7" />
    </linearGradient>
    <linearGradient
       id="a-92"
       gradientTransform="matrix(1.0309825,0,0,1,-0.512598,0)"
       gradientUnits="userSpaceOnUse"
       x1="17"
       x2="17"
       y1="1036.3622"
       y2="1012.3622">
      <stop
         offset="0"
         stop-color="#0c7eed"
         id="stop2-28" />
      <stop
         offset="1"
         stop-color="#0bb6ff"
         id="stop4-9" />
    </linearGradient>
    <linearGradient
       id="b-73"
       gradientTransform="matrix(0.68964436,0,0,1,10.82717,0)"
       gradientUnits="userSpaceOnUse"
       x1="33.461716"
       x2="34.116894"
       xlink:href="#a-36"
       y1="1013.622"
       y2="1037.2084" />
    <linearGradient
       id="c-29"
       gradientUnits="userSpaceOnUse"
       x1="27.800341"
       x2="27.800341"
       y1="1037.3622"
       y2="1011.3622">
      <stop
         offset="0"
         stop-color="#0068cd"
         id="stop8" />
      <stop
         offset="1"
         stop-color="#00abf2"
         id="stop10" />
    </linearGradient>
    <linearGradient
       id="d-3"
       gradientUnits="userSpaceOnUse"
       x1="-8.0180893"
       x2="3.8801949"
       xlink:href="#a-36"
       y1="1019.7733"
       y2="1019.7733" />
    <linearGradient
       id="f-1"
       gradientUnits="userSpaceOnUse"
       x1="-8.0059242"
       x2="3.89236"
       xlink:href="#a-36"
       y1="1023.0814"
       y2="1023.0814" />
    <linearGradient
       id="g-9"
       gradientUnits="userSpaceOnUse"
       x1="-7.9879999"
       x2="3.910284"
       xlink:href="#a-36"
       y1="1026.224"
       y2="1026.224" />
    <linearGradient
       id="h"
       gradientUnits="userSpaceOnUse"
       x1="-8.0120068"
       x2="3.886277"
       xlink:href="#a-36"
       y1="1029.4851"
       y2="1029.4851" />
    <linearGradient
       inkscape:collect="always"
       xlink:href="#a-92"
       id="linearGradient3971"
       x1="21.700001"
       y1="48.049999"
       x2="74.300003"
       y2="48.049999"
       gradientUnits="userSpaceOnUse" />
    <filter
       inkscape:collect="always"
       style="color-interpolation-filters:sRGB"
       id="filter5370"
       x="-0.071047924"
       width="1.1420958"
       y="-0.051925592"
       height="1.1038512">
      <feGaussianBlur
         inkscape:collect="always"
         stdDeviation="1.8946195"
         id="feGaussianBlur5372" />
    </filter>
    <linearGradient
       inkscape:collect="always"
       xlink:href="#linearGradient5181"
       id="linearGradient5179"
       x1="255.44232"
       y1="1039.9878"
       x2="254.91199"
       y2="1000.7434"
       gradientUnits="userSpaceOnUse" />
    <linearGradient
       id="linearGradient5181"
       inkscape:collect="always">
      <stop
         id="stop5183"
         offset="0"
         style="stop-color:#cfd1d5;stop-opacity:1" />
      <stop
         id="stop5185"
         offset="1"
         style="stop-color:#f5f7f7;stop-opacity:1" />
    </linearGradient>
    <linearGradient
       inkscape:collect="always"
       xlink:href="#linearGradient5171"
       id="linearGradient5177"
       x1="257.03333"
       y1="1035.3916"
       x2="258.44754"
       y2="1004.8093"
       gradientUnits="userSpaceOnUse" />
    <linearGradient
       inkscape:collect="always"
       id="linearGradient5171">
      <stop
         style="stop-color:#ebe9ea;stop-opacity:1"
         offset="0"
         id="stop5173" />
      <stop
         style="stop-color:#ebe9ea;stop-opacity:1"
         offset="1"
         id="stop5175" />
    </linearGradient>
    <linearGradient
       inkscape:collect="always"
       xlink:href="#linearGradient5141"
       id="linearGradient5263"
       gradientUnits="userSpaceOnUse"
       x1="324.6875"
       y1="970.17468"
       x2="324.6875"
       y2="965.79968"
       gradientTransform="matrix(-1,0,0,1,621.89645,0)" />
    <linearGradient
       inkscape:collect="always"
       id="linearGradient5141">
      <stop
         style="stop-color:#272c41;stop-opacity:1"
         offset="0"
         id="stop5143" />
      <stop
         id="stop5149"
         offset="0.44285771"
         style="stop-color:#596379;stop-opacity:1" />
      <stop
         id="stop5147"
         offset="0.60000056"
         style="stop-color:#586278;stop-opacity:1" />
      <stop
         style="stop-color:#4b647b;stop-opacity:1"
         offset="1"
         id="stop5145" />
    </linearGradient>
    <linearGradient
       inkscape:collect="always"
       xlink:href="#linearGradient5229"
       id="linearGradient5265"
       gradientUnits="userSpaceOnUse"
       x1="313"
       y1="1034.3622"
       x2="313.5"
       y2="964.36218"
       gradientTransform="matrix(-1,0,0,1,621.89645,0)" />
    <linearGradient
       inkscape:collect="always"
       id="linearGradient5229">
      <stop
         style="stop-color:#d9e5ee;stop-opacity:1"
         offset="0"
         id="stop5231" />
      <stop
         style="stop-color:#f0f3f6;stop-opacity:1"
         offset="1"
         id="stop5233" />
    </linearGradient>
    <linearGradient
       inkscape:collect="always"
       xlink:href="#linearGradient5249"
       id="linearGradient5267"
       gradientUnits="userSpaceOnUse"
       x1="314.18091"
       y1="24.922836"
       x2="302.66379"
       y2="15.010517"
       gradientTransform="matrix(-1,0,0,1,621.89645,956.36218)" />
    <linearGradient
       inkscape:collect="always"
       id="linearGradient5249">
      <stop
         style="stop-color:#a8bdca;stop-opacity:1;"
         offset="0"
         id="stop5251" />
      <stop
         style="stop-color:#a8bdca;stop-opacity:0;"
         offset="1"
         id="stop5253" />
    </linearGradient>
    <linearGradient
       inkscape:collect="always"
       xlink:href="#linearGradient5221"
       id="linearGradient5227"
       x1="352.31595"
       y1="1045.1144"
       x2="292.38864"
       y2="1053.4229"
       gradientUnits="userSpaceOnUse" />
    <linearGradient
       inkscape:collect="always"
       id="linearGradient5221">
      <stop
         style="stop-color:#38404d;stop-opacity:1"
         offset="0"
         id="stop5223" />
      <stop
         style="stop-color:#374154;stop-opacity:1"
         offset="1"
         id="stop5225" />
    </linearGradient>
    <linearGradient
       inkscape:collect="always"
       xlink:href="#linearGradient5187"
       id="linearGradient5193"
       x1="249.78548"
       y1="1029.0277"
       x2="251.19968"
       y2="1008.5215"
       gradientUnits="userSpaceOnUse" />
    <linearGradient
       inkscape:collect="always"
       id="linearGradient5187">
      <stop
         style="stop-color:#222424;stop-opacity:1"
         offset="0"
         id="stop5189" />
      <stop
         style="stop-color:#8f959d;stop-opacity:1"
         offset="1"
         id="stop5191" />
    </linearGradient>
    <linearGradient
       inkscape:collect="always"
       xlink:href="#linearGradient5195"
       id="linearGradient5201"
       x1="253.321"
       y1="1028.1438"
       x2="253.321"
       y2="1011.7036"
       gradientUnits="userSpaceOnUse" />
    <linearGradient
       inkscape:collect="always"
       id="linearGradient5195">
      <stop
         style="stop-color:#747474;stop-opacity:1"
         offset="0"
         id="stop5197" />
      <stop
         style="stop-color:#fafafa;stop-opacity:1"
         offset="1"
         id="stop5199" />
    </linearGradient>
    <linearGradient
       inkscape:collect="always"
       xlink:href="#linearGradient5205"
       id="linearGradient5211"
       x1="256.625"
       y1="1024.9872"
       x2="256.625"
       y2="1015.8622"
       gradientUnits="userSpaceOnUse" />
    <linearGradient
       inkscape:collect="always"
       id="linearGradient5205">
      <stop
         style="stop-color:#2e2e2e;stop-opacity:1"
         offset="0"
         id="stop5207" />
      <stop
         style="stop-color:#9d9d9d;stop-opacity:1"
         offset="1"
         id="stop5209" />
    </linearGradient>
    <linearGradient
       inkscape:collect="always"
       xlink:href="#linearGradient5141"
       id="linearGradient5139"
       x1="324.6875"
       y1="970.17468"
       x2="324.6875"
       y2="965.79968"
       gradientUnits="userSpaceOnUse" />
    <linearGradient
       inkscape:collect="always"
       xlink:href="#linearGradient5229"
       id="linearGradient5235"
       x1="313"
       y1="1034.3622"
       x2="313.5"
       y2="964.36218"
       gradientUnits="userSpaceOnUse" />
    <linearGradient
       inkscape:collect="always"
       xlink:href="#linearGradient5249"
       id="linearGradient5255"
       x1="314.18091"
       y1="24.922836"
       x2="302.66379"
       y2="15.010517"
       gradientUnits="userSpaceOnUse" />
  </defs>
  <metadata
     id="metadata4066">
    <rdf:RDF>
      <cc:Work
         rdf:about="">
        <dc:format>image/svg+xml</dc:format>
        <dc:type
           rdf:resource="http://purl.org/dc/dcmitype/StillImage" />
        <dc:title></dc:title>
      </cc:Work>
    </rdf:RDF>
  </metadata>
  <g
     id="g4206">
    <path
       id="path3818-0-5"
       d="m 41,42.500597 a 17,5.5 0 0 1 -33.9999998,0 17,5.5 0 1 1 33.9999998,0 z"
       inkscape:connector-curvature="0"
       style="fill:url(#radialGradient3035)" />
    <path
       id="path2555-7-2"
       style="color:#000000;fill:url(#linearGradient3933);fill-opacity:1;stroke:url(#linearGradient3917);stroke-width:0.99971497"
       d="m 23.987954,3.5357059 c -11.311078,0 -20.5001421,9.1836971 -20.5001421,20.4881701 0,11.304471 9.1890641,20.488169 20.5001421,20.488169 11.311079,0 20.500143,-9.183698 20.500143,-20.488169 0,-11.304473 -9.189064,-20.4881701 -20.500143,-20.4881701 z"
       inkscape:connector-curvature="0" />
    <path
       id="path4176"
       style="color:#000000;opacity:1;fill:none;stroke:url(#linearGradient3925);stroke-width:2.04818225;stroke-linecap:round;stroke-linejoin:round;stroke-miterlimit:4;stroke-dasharray:none;stroke-opacity:0.98156684"
       d="m 43.97561,24.012122 c 0,11.026239 -8.942927,19.963943 -19.97561,19.963943 -11.032683,0 -19.9756098,-8.937704 -19.9756098,-19.963943 0,-11.02624 8.9429268,-19.9639433 19.9756098,-19.9639433 11.032683,0 19.97561,8.9377033 19.97561,19.9639433 z"
       inkscape:connector-curvature="0" />
    <path
       id="path2555-7-1-7"
       style="color:#000000;opacity:1;fill:none;fill-opacity:1;stroke:#ffffff;stroke-width:0.2;stroke-linecap:round;stroke-linejoin:round;stroke-miterlimit:4;stroke-dasharray:none;stroke-opacity:1"
       d="m 22.881356,-42.771087 c -11.311,0 -20.5000001,9.1888 -20.5000001,20.5 0,11.3112 9.1888001,20.5000004 20.5000001,20.5000004 11.3112,0 20.5,-9.1888004 20.5,-20.5000004 0,-11.3112 -9.189,-20.5 -20.5,-20.5 z"
       inkscape:connector-curvature="0" />
    <g
       id="g4317"
       transform="matrix(1.0002,0,0,1.0004,-1.0018,-0.0050486)"
       style="fill:none;stroke:#000000;stroke-linecap:round;stroke-linejoin:round" />
    <g
       id="XMLID_1_"
       transform="matrix(0.37037037,0,0,0.37037037,5.7037393,6.7221867)"
       style="fill:url(#linearGradient3971);fill-opacity:1">
      <path
         id="XMLID_17_"
         class="st0"
         d="m 70.5,18 h -45 c -2.1,0 -3.8,1.7 -3.8,3.8 v 52.5 c 0,2.1 1.7,3.8 3.8,3.8 h 45 c 2.1,0 3.8,-1.7 3.8,-3.8 V 21.8 C 74.3,19.7 72.6,18 70.5,18 Z m -43.1,3.8 c 1,0 1.9,0.8 1.9,1.9 0,1 -0.8,1.9 -1.9,1.9 -1,0 -1.9,-0.8 -1.9,-1.9 0,-1.1 0.8,-1.9 1.9,-1.9 z M 48,63 47.4,62.9 c -3.7,6.9 -4.9,8.2 -5.4,8.6 -2,2 -4.8,3.2 -7.5,3.2 -2.4,0 -4.7,-0.9 -6.4,-2.6 -1.7,-1.7 -2.6,-3.9 -2.6,-6.4 0,-2.7 1.2,-5.5 3.2,-7.5 0.7,-0.7 2.2,-1.7 4.3,-3 -2.3,-3.1 -3.7,-6.9 -3.7,-11.1 0,-10.4 8.4,-18.8 18.8,-18.8 10.4,0 18.8,8.4 18.8,18.8 C 66.8,54.6 58.4,63 48,63 Z m 22.5,9.4 c 0,1 -0.8,1.9 -1.9,1.9 -1,0 -1.9,-0.8 -1.9,-1.9 v -3.8 c 0,-1 0.8,-1.9 1.9,-1.9 1,0 1.9,0.8 1.9,1.9 z M 68.6,25.5 c -1,0 -1.9,-0.8 -1.9,-1.9 0,-1 0.8,-1.9 1.9,-1.9 1,0 1.9,0.8 1.9,1.9 0,1.1 -0.8,1.9 -1.9,1.9 z"
         inkscape:connector-curvature="0"
         style="fill:url(#linearGradient3971);fill-opacity:1" />
      <circle
         id="XMLID_18_"
         class="st0"
         cx="48"
         cy="44.299999"
         r="3.8"
         style="fill:url(#linearGradient3971);fill-opacity:1" />
      <path
         id="XMLID_19_"
         class="st0"
         d="m 44.7,54.6 c -5.7,2.9 -11.2,5.9 -12.6,7.2 -1.1,1.1 -1.8,2.6 -1.8,4.1 0,1.1 0.4,2.2 1.1,2.9 0.7,0.7 1.8,1.1 2.9,1.1 1.5,0 2.9,-0.6 4.1,-1.8 1.1,-1.1 3.8,-5.7 7.2,-12.6 l -0.1,-0.9 z"
         inkscape:connector-curvature="0"
         style="fill:url(#linearGradient3971);fill-opacity:1" />
    </g>
    <g
       id="g4625"
       transform="matrix(0.363168,0,0,0.3659226,14.687032,-336.53012)">
      <path
         inkscape:connector-curvature="0"
         id="circle5292"
         d="m 56.662109,960.2585 c -0.973648,-0.11868 -3.111404,0.75482 -3.142578,0.76758 0,0 -0.002,0 -0.002,0 -2.595449,5.2e-4 -5.82206,1.07766 -8.304687,2.84179 0.0041,-0.003 0.0076,-0.008 0.01172,-0.0117 -0.05261,0.0373 -0.106273,0.0715 -0.158203,0.10938 -0.156314,0.11408 -0.309774,0.2378 -0.458984,0.36914 -0.149564,0.13166 -0.293711,0.27155 -0.435547,0.41992 -1.98131,2.07154 -3.180693,5.73942 -2.798828,10.13086 5.8e-5,6.7e-4 -5.8e-5,10e-4 0,0.002 0.301658,3.46237 2.295038,7.87254 3.273437,9.86133 0.326176,0.66302 0.539063,1.05664 0.539063,1.05664 l 4.71875,7.70899 0.494141,-0.38672 1.152343,-0.89844 c 0,0 -3.942416,-5.02648 -6.886719,-11.28125 -2.256112,-4.79277 -2.72251,-10.30089 0.119141,-14.38086 0.551447,-0.79175 1.237719,-1.43001 1.976563,-1.95508 0.0025,-0.002 0.0053,-0.004 0.0078,-0.006 0.682958,-0.48428 1.41367,-0.86044 2.132813,-1.16211 0.259561,-0.10846 0.513776,-0.19871 0.767578,-0.2871 0.294525,-0.10302 0.576767,-0.1965 0.855469,-0.2754 0.241652,-0.0679 0.485367,-0.1394 0.708984,-0.1914 0.185759,-0.0435 0.353683,-0.0756 0.523437,-0.10938 0.177414,-0.0349 0.355616,-0.0702 0.511719,-0.0957 0.108678,-0.018 0.209821,-0.0329 0.306641,-0.0469 0.489227,-0.0676 0.878994,-0.10258 0.933593,-0.10352 L 55.75,963.10225 c 0,0 1.079769,0.45388 1.619141,-0.68164 0.539373,-1.13552 0.283784,-1.53199 -0.369141,-2.04297 -0.08162,-0.0639 -0.19778,-0.10206 -0.337891,-0.11914 z m -5.111328,31.9707 -1.96875,1.54688 c 7.001855,9.00702 9.687859,11.67602 10.587891,19.68942 0.797731,7.1025 0.365819,19.7458 -2.25586,24.8125 -6.062182,11.7157 -17.210343,7.3622 -21.882812,0.3223 -3.793963,-5.7163 -0.88125,-16.0415 0.945312,-21.6875 1.826563,-5.6459 5.84155,-11.9574 4.476563,-18.3809 -1.030428,-4.84901 -4.666846,-8.31902 -7.701172,-10.24996 A 9.1133089,9.1133089 0 0 0 34.226562,985.40498 9.1133089,9.1133089 0 0 0 25.113281,976.2917 9.1133089,9.1133089 0 0 0 16,985.40498 a 9.1133089,9.1133089 0 0 0 9.113281,9.11328 9.1133089,9.1133089 0 0 0 7.484375,-3.91796 c 1.771499,1.12253 3.294838,2.51722 5.34375,5.64453 3.221478,5.73577 -0.710574,10.14697 -4.757812,23.24417 -1.544355,4.9976 -4.243974,17.746 3.705078,24.3301 7.949056,6.5841 17.813252,4.7365 22.630859,-3.3731 4.817607,-8.1097 3.385037,-26.1596 3.271485,-29.6797 -0.113552,-3.5201 1.703125,-6.3593 1.703125,-6.3593 l 6.990234,-10.83795 -0.08008,-0.0625 4.710937,-7.70118 c 0,0 3.412988,-6.30307 3.814454,-10.91992 0.40914,-4.70512 -0.998226,-8.5806 -3.236329,-10.55078 -0.149209,-0.13134 -0.300716,-0.25506 -0.457031,-0.36914 -0.05193,-0.0379 -0.105593,-0.074 -0.158203,-0.11133 0.0062,0.005 0.01141,0.0124 0.01758,0.0176 -2.483381,-1.76655 -5.713107,-2.84518 -8.310547,-2.8457 0,0 -0.002,0 -0.002,0 -0.03553,-0.0145 -2.831679,-1.15815 -3.480469,-0.65039 -0.652924,0.51098 -0.908513,0.9094 -0.36914,2.04492 0.539372,1.13552 1.617187,0.68164 1.617187,0.68164 l 2.244141,-0.76758 c 0.05591,10e-4 0.4441,0.035 0.9375,0.10352 0.09266,0.0134 0.189474,0.0279 0.292969,0.0449 0.158431,0.0258 0.340969,0.0622 0.521484,0.0977 0.173421,0.0345 0.343123,0.0686 0.533203,0.11328 0.157225,0.0367 0.331554,0.0884 0.498047,0.13282 0.37305,0.10028 0.760639,0.22436 1.164063,0.36914 0.217934,0.0779 0.43438,0.15347 0.65625,0.24609 0.723241,0.30311 1.458016,0.68204 2.144531,1.16992 0.738748,0.52503 1.425177,1.16341 1.976562,1.95508 2.84165,4.07997 2.373301,9.58809 0.117188,14.38086 -2.941435,6.24868 -6.875152,11.26757 -6.882813,11.27735 l -0.05078,-0.0391 c 0,0 -5.208422,7.50715 -7.082031,10.23245 -1.87361,2.7252 -3.292969,0 -3.292969,0 l -7.597656,-10.3301 -0.179688,0.14062 z"
         style="opacity:0.3;fill:#000000;fill-opacity:1;stroke:none;stroke-width:1;stroke-miterlimit:4;stroke-dasharray:none;stroke-opacity:1;filter:url(#filter5370)" />
      <g
         transform="matrix(0.45420844,0,0,0.45420844,-91.753824,518.10168)"
         id="g5274">
        <circle
           style="opacity:1;fill:url(#linearGradient5179);fill-opacity:1;stroke:none;stroke-width:1;stroke-miterlimit:4;stroke-dasharray:none;stroke-opacity:1"
           id="path5121"
           cx="257.29846"
           cy="1020.2772"
           r="20.064156" />
        <circle
           r="19.063999"
           cy="1020.2772"
           cx="257.29846"
           id="circle5169"
           style="opacity:1;fill:url(#linearGradient5177);fill-opacity:1;stroke:none;stroke-width:1;stroke-miterlimit:4;stroke-dasharray:none;stroke-opacity:1" />
        <g
           id="g5269"
           transform="translate(49.182474,-6.5047463e-4)">
          <path
             style="fill:url(#linearGradient5263);fill-opacity:1;fill-rule:evenodd;stroke:none;stroke-width:1px;stroke-linecap:butt;stroke-linejoin:miter;stroke-opacity:1"
             d="m 302.08395,966.61218 v 2.875 l -4.9375,1.6875 c 0,0 -2.375,1 -3.5625,-1.5 -1.1875,-2.5 -0.625,-3.375 0.8125,-4.5 1.4375,-1.125 7.6875,1.4375 7.6875,1.4375 z"
             id="path5257"
             inkscape:connector-curvature="0" />
          <path
             style="fill:url(#linearGradient5265);fill-opacity:1;fill-rule:evenodd;stroke:none;stroke-width:1px;stroke-linecap:butt;stroke-linejoin:miter;stroke-opacity:1"
             d="m 302.05217,969.48153 c 0.47684,0.004 13.30658,0.80295 19.23995,9.32194 6.25627,8.9826 5.22786,21.1107 0.26073,31.66263 -6.48227,13.7707 -15.15861,24.8371 -15.15861,24.8371 l 3.62392,2.8284 10.38564,-16.9705 c 0,0 7.51301,-13.877 8.39689,-24.04164 0.96083,-11.04954 -2.62537,-20.02313 -8.13173,-24.04163 -5.50637,-4.0185 -12.78678,-6.47444 -18.61126,-6.47444 z"
             id="path5259"
             inkscape:connector-curvature="0"
             sodipodi:nodetypes="csscccszcc" />
          <path
             style="fill:url(#linearGradient5267);fill-opacity:1;fill-rule:evenodd;stroke:none;stroke-width:1px;stroke-linecap:butt;stroke-linejoin:miter;stroke-opacity:1"
             d="m 302.05465,967.83093 c 2.62716,0.28298 9.63023,2.35712 14.88672,6.66797 -6.32301,-4.49355 -14.5094,-5.0144 -14.88867,-5.01758 z m 18.26563,5.00195 c 0.11583,0.0821 0.23528,0.16071 0.34961,0.24414 5.50636,4.0185 9.09169,12.99343 8.13086,24.04297 -0.88388,10.16461 -8.39649,24.04101 -8.39649,24.04101 l -10.38672,16.9707 -1.08984,-0.8496 10.38281,-16.9648 c 0,0 7.51261,-13.8765 8.39649,-24.04106 0.9165,-10.53973 -2.30876,-19.17997 -7.38672,-23.44336 z"
             id="path5261"
             inkscape:connector-curvature="0"
             sodipodi:nodetypes="cccccssccccsc" />
        </g>
        <path
           style="fill:url(#linearGradient5227);fill-opacity:1;fill-rule:evenodd;stroke:none;stroke-width:2;stroke-linecap:butt;stroke-linejoin:miter;stroke-miterlimit:4;stroke-dasharray:none;stroke-opacity:1"
           d="m 311.17118,1038.7062 4.72877,-3.7123 16.72505,22.7433 c 0,0 3.125,6 7.25,0 4.125,-6 15.59375,-22.5312 15.59375,-22.5312 l 3.92187,3.0468 L 344,1062.1122 c 0,0 -4,6.25 -3.75,14 0.25,7.75 3.40389,47.491 -7.20271,65.3454 -10.6066,17.8545 -32.3224,21.9204 -49.8233,7.4247 -17.50089,-14.4957 -11.55955,-42.5604 -8.15945,-53.5634 8.91053,-28.8351 17.57043,-38.5462 10.47792,-51.1742 -6.71752,-10.2531 -10.83884,-12.0815 -18.07932,-16.0009 -10.82661,-5.8606 -3.71231,-7.2479 3.0052,-4.5962 6.71752,2.6516 19.79899,11.4905 22.8042,25.6326 3.0052,14.1421 -5.83519,28.0338 -9.85661,40.4641 -4.02142,12.4303 -10.43133,35.166 -2.07842,47.7512 10.28706,15.4993 34.82755,25.083 48.17425,-0.7108 5.77197,-11.1549 6.72278,-38.9888 4.96647,-54.6259 -1.98154,-17.6425 -7.89154,-23.5226 -23.30705,-43.3526 z"
           id="path5153"
           inkscape:connector-curvature="0"
           sodipodi:nodetypes="cccscccsssscscszsssc" />
        <circle
           r="12.816311"
           cy="1020.2772"
           cx="257.29846"
           id="circle5123"
           style="opacity:1;fill:url(#linearGradient5193);fill-opacity:1;stroke:none;stroke-width:1;stroke-miterlimit:4;stroke-dasharray:none;stroke-opacity:1" />
        <circle
           style="opacity:1;fill:url(#linearGradient5201);fill-opacity:1;stroke:none;stroke-width:1;stroke-miterlimit:4;stroke-dasharray:none;stroke-opacity:1"
           id="circle5125"
           cx="257.29846"
           cy="1020.2772"
           r="9.6343307" />
        <circle
           style="opacity:0.3;fill:#3a3a3a;fill-opacity:1;stroke:none;stroke-width:1;stroke-miterlimit:4;stroke-dasharray:none;stroke-opacity:1"
           id="circle5203"
           cx="257.29846"
           cy="1020.2772"
           r="8.0433407" />
        <circle
           r="7.1594572"
           cy="1020.2772"
           cx="257.29846"
           id="circle5127"
           style="opacity:0.98999999;fill:url(#linearGradient5211);fill-opacity:1;stroke:none;stroke-width:1;stroke-miterlimit:4;stroke-dasharray:none;stroke-opacity:1" />
        <path
           style="fill:url(#linearGradient5139);fill-opacity:1;fill-rule:evenodd;stroke:none;stroke-width:1px;stroke-linecap:butt;stroke-linejoin:miter;stroke-opacity:1"
           d="m 319.8125,966.61218 v 2.875 l 4.9375,1.6875 c 0,0 2.375,1 3.5625,-1.5 1.1875,-2.5 0.625,-3.375 -0.8125,-4.5 -1.4375,-1.125 -7.6875,1.4375 -7.6875,1.4375 z"
           id="path5129"
           inkscape:connector-curvature="0" />
        <path
           style="fill:url(#linearGradient5235);fill-opacity:1;fill-rule:evenodd;stroke:none;stroke-width:1px;stroke-linecap:butt;stroke-linejoin:miter;stroke-opacity:1"
           d="m 319.84428,969.48153 c -0.47684,0.004 -13.30658,0.80295 -19.23995,9.32194 -6.25627,8.9826 -5.22786,21.1107 -0.26073,31.66263 6.48227,13.7707 15.15861,24.8371 15.15861,24.8371 l -3.62392,2.8284 -10.38564,-16.9705 c 0,0 -7.51301,-13.877 -8.39689,-24.04164 -0.96083,-11.04954 2.62537,-20.02313 8.13173,-24.04163 5.50637,-4.0185 12.78678,-6.47444 18.61126,-6.47444 z"
           id="path5151"
           inkscape:connector-curvature="0"
           sodipodi:nodetypes="csscccszcc" />
        <path
           style="fill:url(#linearGradient5255);fill-opacity:1;fill-rule:evenodd;stroke:none;stroke-width:1px;stroke-linecap:butt;stroke-linejoin:miter;stroke-opacity:1"
           d="m 319.8418,11.46875 c -2.62716,0.282983 -9.63023,2.357118 -14.88672,6.667969 6.32301,-4.493549 14.5094,-5.014397 14.88867,-5.017578 z m -18.26563,5.001953 c -0.11583,0.08208 -0.23528,0.160704 -0.34961,0.244141 -5.50636,4.0185 -9.09169,12.993429 -8.13086,24.042968 0.88388,10.164641 8.39649,24.041016 8.39649,24.041016 l 10.38672,16.970703 1.08984,-0.849609 -10.38281,-16.964844 c 0,0 -7.51261,-13.876425 -8.39649,-24.041016 -0.9165,-10.539729 2.30876,-19.179968 7.38672,-23.443359 z"
           transform="translate(0,956.36218)"
           id="path5237"
           inkscape:connector-curvature="0"
           sodipodi:nodetypes="cccccssccccsc" />
      </g>
    </g>
  </g>
</svg>
