<?xml version="1.0" encoding="UTF-8" standalone="no"?>
<!-- Created with Inkscape (http://www.inkscape.org/) -->

<svg
   xmlns:dc="http://purl.org/dc/elements/1.1/"
   xmlns:cc="http://creativecommons.org/ns#"
   xmlns:rdf="http://www.w3.org/1999/02/22-rdf-syntax-ns#"
   xmlns:svg="http://www.w3.org/2000/svg"
   xmlns="http://www.w3.org/2000/svg"
   xmlns:xlink="http://www.w3.org/1999/xlink"
   xmlns:sodipodi="http://sodipodi.sourceforge.net/DTD/sodipodi-0.dtd"
   xmlns:inkscape="http://www.inkscape.org/namespaces/inkscape"
   id="svg4951"
   height="48px"
   width="48px"
   version="1.1"
   sodipodi:docname="gtk-theme-config.svg"
   inkscape:version="0.92.2 (unknown)">
  <sodipodi:namedview
     pagecolor="#ffffff"
     bordercolor="#666666"
     borderopacity="1"
     objecttolerance="10"
     gridtolerance="10"
     guidetolerance="10"
     inkscape:pageopacity="0"
     inkscape:pageshadow="2"
     inkscape:window-width="1250"
     inkscape:window-height="867"
     id="namedview32"
     showgrid="false"
     inkscape:zoom="4.9166667"
     inkscape:cx="-9.111216"
     inkscape:cy="24.127307"
     inkscape:window-x="224"
     inkscape:window-y="71"
     inkscape:window-maximized="0"
     inkscape:current-layer="svg4951" />
  <defs
     id="defs4953">
    <linearGradient
       id="linearGradient3189"
       y2="40.496"
       gradientUnits="userSpaceOnUse"
       x2="71.204"
       gradientTransform="matrix(1.617,0,0,1.617,-92.707,-21.06)"
       y1="15.369"
       x1="71.204">
      <stop
         id="stop4808-4"
         stop-color="#fff"
         offset="0" />
      <stop
         id="stop4810-0"
         stop-color="#fff"
         stop-opacity=".23529"
         offset=".42448" />
      <stop
         id="stop4812-8"
         stop-color="#fff"
         stop-opacity=".15686"
         offset=".82090" />
      <stop
         id="stop4814-0"
         stop-color="#fff"
         stop-opacity=".39216"
         offset="1" />
    </linearGradient>
    <radialGradient
       id="radialGradient3195"
       gradientUnits="userSpaceOnUse"
       cy="186.17"
       cx="99.157"
       gradientTransform="matrix(0.27083,0,0,0.087623,-2.8551,25.187)"
       r="62.769">
      <stop
         id="stop3822-2-6-3"
         stop-color="#3d3d3d"
         offset="0" />
      <stop
         id="stop3864-8-7-7"
         stop-color="#686868"
         stop-opacity=".49804"
         offset=".5" />
      <stop
         id="stop3824-1-2-5"
         stop-color="#686868"
         stop-opacity="0"
         offset="1" />
    </radialGradient>
    <radialGradient
       id="radialGradient2864"
       gradientUnits="userSpaceOnUse"
       cy="10.834"
       cx="11.963"
       gradientTransform="matrix(4.1412,-0.035008,0.028363,3.3552,-25.849,-47.671)"
       r="4.6571">
      <stop
         id="stop6305-1-0-2"
         stop-color="#fff"
         offset="0" />
      <stop
         id="stop6307-5-0-6"
         stop-color="#fff"
         stop-opacity="0"
         offset="1" />
    </radialGradient>
    <linearGradient
       id="linearGradient10691-3">
      <stop
         offset="0"
         style="stop-color:#000000;stop-opacity:1"
         id="stop10693-2" />
      <stop
         offset="1"
         style="stop-color:#000000;stop-opacity:0"
         id="stop10695-6" />
    </linearGradient>
    <linearGradient
       gradientUnits="userSpaceOnUse"
       id="linearGradient3309-1"
       y2="122.8994"
       x2="63.9995"
       y1="3.1001"
       x1="63.9995">
      <stop
         offset="0"
         style="stop-color:#f6f6f6;stop-opacity:1"
         id="stop3311-5" />
      <stop
         offset="1"
         style="stop-color:#d2d2d2;stop-opacity:1"
         id="stop3313-0" />
    </linearGradient>
    <linearGradient
       id="linearGradient3397-0">
      <stop
         offset="0"
         style="stop-color:#aaaaaa;stop-opacity:1"
         id="stop3399-4" />
      <stop
         offset="1"
         style="stop-color:#8c8c8c;stop-opacity:1"
         id="stop3401-0" />
    </linearGradient>
    <linearGradient
       id="linearGradient5128-1">
      <stop
         offset="0"
         style="stop-color:#ffffff;stop-opacity:1"
         id="stop5130-8" />
      <stop
         offset="1"
         style="stop-color:#959595;stop-opacity:1"
         id="stop5132-0" />
    </linearGradient>
    <linearGradient
       x1="20.758585"
       y1="-19.425636"
       x2="20.758585"
       y2="45.017357"
       id="linearGradient3937"
       xlink:href="#linearGradient4281-6"
       gradientUnits="userSpaceOnUse"
       gradientTransform="matrix(2.2006919,0,0,2.1948014,22.254009,51.60382)" />
    <linearGradient
       id="linearGradient4281-6">
      <stop
         id="stop4283-9"
         style="stop-color:#1e1e1e;stop-opacity:1"
         offset="0" />
      <stop
         id="stop4285-8"
         style="stop-color:#505050;stop-opacity:1"
         offset="1" />
    </linearGradient>
    <clipPath
       id="clipPath3954">
      <path
         d="m 57.71875,18 c -0.09664,-0.01425 -0.212512,0.0045 -0.3125,0.03125 l -2.78125,0.75 c -0.399955,0.107167 -0.640249,0.53071 -0.53125,0.9375 l 0.375,1.4375 c -0.664087,0.382164 -1.284715,0.843857 -1.8125,1.375 l -1.28125,-0.75 c -0.18236,-0.105287 -0.375956,-0.142042 -0.5625,-0.09375 -0.186559,0.04823 -0.365236,0.164454 -0.46875,0.34375 l -1.4375,2.53125 c -0.207029,0.358586 -0.08344,0.820676 0.28125,1.03125 l 1.28125,0.75 c -0.196116,0.72264 -0.282329,1.4838 -0.28125,2.25 l -1.4375,0.375 c -0.406788,0.108999 -0.669667,0.506297 -0.5625,0.90625 l 0.75,2.8125 c 0.107167,0.399952 0.530712,0.640248 0.9375,0.53125 l 1.4375,-0.375 c 0.382168,0.664087 0.843857,1.253467 1.375,1.78125 l -0.71875,1.3125 c -0.210569,0.364715 -0.108607,0.792973 0.25,1 L 54.75,38.40625 c 0.358585,0.207031 0.789431,0.08346 1,-0.28125 l 0.75,-1.3125 c 0.722641,0.196115 1.483802,0.313584 2.25,0.3125 l 0.375,1.4375 c 0.108998,0.406788 0.537545,0.638418 0.9375,0.53125 l 2.8125,-0.75 c 0.399953,-0.107166 0.608999,-0.530713 0.5,-0.9375 L 63,36 c 0.664087,-0.382164 1.284717,-0.875105 1.8125,-1.40625 l 1.28125,0.75 c 0.364716,0.210569 0.824219,0.108591 1.03125,-0.25 l 1.46875,-2.53125 c 0.207028,-0.358587 0.05219,-0.820674 -0.3125,-1.03125 L 67,30.8125 c 0.196115,-0.722638 0.313576,-1.483801 0.3125,-2.25 l 1.40625,-0.40625 c 0.406784,-0.108999 0.669667,-0.506297 0.5625,-0.90625 l -0.75,-2.8125 c -0.107168,-0.399951 -0.530715,-0.640247 -0.9375,-0.53125 l -1.4375,0.375 C 65.774096,23.61716 65.312393,23.027781 64.78125,22.5 l 0.75,-1.28125 C 65.741818,20.85403 65.608612,20.394522 65.25,20.1875 l -2.53125,-1.46875 c -0.35859,-0.20703 -0.78943,-0.08346 -1,0.28125 l -0.75,1.3125 C 60.246106,20.116385 59.484949,19.998916 58.71875,20 l -0.375,-1.4375 C 58.262001,18.257408 58.008674,18.042765 57.71875,18 Z m 0.84375,7.375 c 1.476453,-0.08838 2.852364,0.891007 3.25,2.375 0.454438,1.695993 -0.554006,3.42056 -2.25,3.875 -1.69599,0.454438 -3.45181,-0.554007 -3.90625,-2.25 -0.45444,-1.695991 0.554011,-3.42056 2.25,-3.875 0.211999,-0.05681 0.445328,-0.112374 0.65625,-0.125 z M 43.25,35.46875 c -0.787101,0 -1.4375,0.636951 -1.4375,1.4375 V 39.75 c -1.40738,0.37498 -2.738343,0.940659 -3.96875,1.65625 L 35.8125,39.375 c -0.28304,-0.283037 -0.60247,-0.403146 -0.96875,-0.40625 -0.366278,-0.0032 -0.752972,0.127971 -1.03125,0.40625 l -3.90625,3.90625 c -0.556555,0.55656 -0.534772,1.433926 0.03125,2 l 2,2.03125 c -0.71559,1.230403 -1.281261,2.561367 -1.65625,3.96875 h -2.8125 C 26.668202,51.28125 26,51.931654 26,52.71875 v 5.5 c 0,0.787096 0.668202,1.4375 1.46875,1.4375 h 2.8125 c 0.374989,1.407384 0.94066,2.738347 1.65625,3.96875 l -2,2 c -0.566072,0.566073 -0.587856,1.474688 -0.03125,2.03125 l 3.90625,3.90625 c 0.556555,0.55656 1.433928,0.534821 2,-0.03125 l 2.03125,-2 c 1.230407,0.715594 2.56137,1.281269 3.96875,1.65625 V 74 c 0,0.800549 0.650399,1.46875 1.4375,1.46875 h 5.5 c 0.787093,0 1.4375,-0.668201 1.4375,-1.46875 v -2.8125 c 1.40738,-0.374981 2.738343,-0.940656 3.96875,-1.65625 l 2.03125,2 c 0.566072,0.566073 1.443438,0.58781 2,0.03125 l 3.90625,-3.90625 C 62.650305,67.099688 62.628521,66.191073 62.0625,65.625 l -2,-2 c 0.715588,-1.230403 1.281268,-2.561366 1.65625,-3.96875 h 2.8125 C 65.331792,59.65625 66,59.005847 66,58.21875 v -5.5 c 0,-0.787094 -0.668208,-1.4375 -1.46875,-1.4375 h -2.8125 C 61.343772,49.873867 60.778089,48.542903 60.0625,47.3125 l 2,-2.03125 c 0.566071,-0.566074 0.587863,-1.44344 0.03125,-2 L 58.1875,39.375 c -0.556564,-0.556561 -1.433929,-0.566074 -2,0 l -2.03125,2.03125 C 52.925838,40.690655 51.594881,40.12498 50.1875,39.75 v -2.84375 c 0,-0.800549 -0.650406,-1.4375 -1.4375,-1.4375 z M 46,49.40625 c 3.33767,0 6.03125,2.724835 6.03125,6.0625 0,3.337667 -2.69358,6.03125 -6.03125,6.03125 -3.337662,0 -6.03125,-2.693583 -6.03125,-6.03125 0,-3.337665 2.693588,-6.0625 6.03125,-6.0625 z"
         inkscape:connector-curvature="0"
         id="path3956"
         style="display:block;overflow:visible;visibility:visible;fill:#ff00ff;fill-opacity:1;fill-rule:nonzero;stroke:none;stroke-width:1;marker:none;enable-background:accumulate" />
    </clipPath>
    <filter
       style="color-interpolation-filters:sRGB"
       id="filter3958">
      <feGaussianBlur
         id="feGaussianBlur3960"
         stdDeviation="0.75584188" />
    </filter>
    <linearGradient
       x1="20.758585"
       y1="-19.425636"
       x2="20.758585"
       y2="45.017357"
       id="linearGradient3937-3"
       xlink:href="#linearGradient4281-6"
       gradientUnits="userSpaceOnUse"
       gradientTransform="matrix(6.6020753,0,0,6.4391335,45.715634,118.61802)" />
    <clipPath
       id="clipPath3954-5">
      <path
         d="m 57.71875,18 c -0.09664,-0.01425 -0.212512,0.0045 -0.3125,0.03125 l -2.78125,0.75 c -0.399955,0.107167 -0.640249,0.53071 -0.53125,0.9375 l 0.375,1.4375 c -0.664087,0.382164 -1.284715,0.843857 -1.8125,1.375 l -1.28125,-0.75 c -0.18236,-0.105287 -0.375956,-0.142042 -0.5625,-0.09375 -0.186559,0.04823 -0.365236,0.164454 -0.46875,0.34375 l -1.4375,2.53125 c -0.207029,0.358586 -0.08344,0.820676 0.28125,1.03125 l 1.28125,0.75 c -0.196116,0.72264 -0.282329,1.4838 -0.28125,2.25 l -1.4375,0.375 c -0.406788,0.108999 -0.669667,0.506297 -0.5625,0.90625 l 0.75,2.8125 c 0.107167,0.399952 0.530712,0.640248 0.9375,0.53125 l 1.4375,-0.375 c 0.382168,0.664087 0.843857,1.253467 1.375,1.78125 l -0.71875,1.3125 c -0.210569,0.364715 -0.108607,0.792973 0.25,1 L 54.75,38.40625 c 0.358585,0.207031 0.789431,0.08346 1,-0.28125 l 0.75,-1.3125 c 0.722641,0.196115 1.483802,0.313584 2.25,0.3125 l 0.375,1.4375 c 0.108998,0.406788 0.537545,0.638418 0.9375,0.53125 l 2.8125,-0.75 c 0.399953,-0.107166 0.608999,-0.530713 0.5,-0.9375 L 63,36 c 0.664087,-0.382164 1.284717,-0.875105 1.8125,-1.40625 l 1.28125,0.75 c 0.364716,0.210569 0.824219,0.108591 1.03125,-0.25 l 1.46875,-2.53125 c 0.207028,-0.358587 0.05219,-0.820674 -0.3125,-1.03125 L 67,30.8125 c 0.196115,-0.722638 0.313576,-1.483801 0.3125,-2.25 l 1.40625,-0.40625 c 0.406784,-0.108999 0.669667,-0.506297 0.5625,-0.90625 l -0.75,-2.8125 c -0.107168,-0.399951 -0.530715,-0.640247 -0.9375,-0.53125 l -1.4375,0.375 C 65.774096,23.61716 65.312393,23.027781 64.78125,22.5 l 0.75,-1.28125 C 65.741818,20.85403 65.608612,20.394522 65.25,20.1875 l -2.53125,-1.46875 c -0.35859,-0.20703 -0.78943,-0.08346 -1,0.28125 l -0.75,1.3125 C 60.246106,20.116385 59.484949,19.998916 58.71875,20 l -0.375,-1.4375 C 58.262001,18.257408 58.008674,18.042765 57.71875,18 Z m 0.84375,7.375 c 1.476453,-0.08838 2.852364,0.891007 3.25,2.375 0.454438,1.695993 -0.554006,3.42056 -2.25,3.875 -1.69599,0.454438 -3.45181,-0.554007 -3.90625,-2.25 -0.45444,-1.695991 0.554011,-3.42056 2.25,-3.875 0.211999,-0.05681 0.445328,-0.112374 0.65625,-0.125 z M 43.25,35.46875 c -0.787101,0 -1.4375,0.636951 -1.4375,1.4375 V 39.75 c -1.40738,0.37498 -2.738343,0.940659 -3.96875,1.65625 L 35.8125,39.375 c -0.28304,-0.283037 -0.60247,-0.403146 -0.96875,-0.40625 -0.366278,-0.0032 -0.752972,0.127971 -1.03125,0.40625 l -3.90625,3.90625 c -0.556555,0.55656 -0.534772,1.433926 0.03125,2 l 2,2.03125 c -0.71559,1.230403 -1.281261,2.561367 -1.65625,3.96875 h -2.8125 C 26.668202,51.28125 26,51.931654 26,52.71875 v 5.5 c 0,0.787096 0.668202,1.4375 1.46875,1.4375 h 2.8125 c 0.374989,1.407384 0.94066,2.738347 1.65625,3.96875 l -2,2 c -0.566072,0.566073 -0.587856,1.474688 -0.03125,2.03125 l 3.90625,3.90625 c 0.556555,0.55656 1.433928,0.534821 2,-0.03125 l 2.03125,-2 c 1.230407,0.715594 2.56137,1.281269 3.96875,1.65625 V 74 c 0,0.800549 0.650399,1.46875 1.4375,1.46875 h 5.5 c 0.787093,0 1.4375,-0.668201 1.4375,-1.46875 v -2.8125 c 1.40738,-0.374981 2.738343,-0.940656 3.96875,-1.65625 l 2.03125,2 c 0.566072,0.566073 1.443438,0.58781 2,0.03125 l 3.90625,-3.90625 C 62.650305,67.099688 62.628521,66.191073 62.0625,65.625 l -2,-2 c 0.715588,-1.230403 1.281268,-2.561366 1.65625,-3.96875 h 2.8125 C 65.331792,59.65625 66,59.005847 66,58.21875 v -5.5 c 0,-0.787094 -0.668208,-1.4375 -1.46875,-1.4375 h -2.8125 C 61.343772,49.873867 60.778089,48.542903 60.0625,47.3125 l 2,-2.03125 c 0.566071,-0.566074 0.587863,-1.44344 0.03125,-2 L 58.1875,39.375 c -0.556564,-0.556561 -1.433929,-0.566074 -2,0 l -2.03125,2.03125 C 52.925838,40.690655 51.594881,40.12498 50.1875,39.75 v -2.84375 c 0,-0.800549 -0.650406,-1.4375 -1.4375,-1.4375 z M 46,49.40625 c 3.33767,0 6.03125,2.724835 6.03125,6.0625 0,3.337667 -2.69358,6.03125 -6.03125,6.03125 -3.337662,0 -6.03125,-2.693583 -6.03125,-6.03125 0,-3.337665 2.693588,-6.0625 6.03125,-6.0625 z"
         inkscape:connector-curvature="0"
         id="path3956-3"
         style="display:block;overflow:visible;visibility:visible;fill:#ff00ff;fill-opacity:1;fill-rule:nonzero;stroke:none;stroke-width:1;marker:none;enable-background:accumulate" />
    </clipPath>
    <filter
       style="color-interpolation-filters:sRGB"
       id="filter3958-5">
      <feGaussianBlur
         id="feGaussianBlur3960-6"
         stdDeviation="0.75584188" />
    </filter>
    <linearGradient
       x1="71.204407"
       y1="6.2375584"
       x2="71.204407"
       y2="44.340794"
       id="linearGradient3089"
       xlink:href="#linearGradient4011-4"
       gradientUnits="userSpaceOnUse"
       gradientTransform="matrix(1.1323391,0,0,1.1189188,-57.226665,-4.9067304)" />
    <linearGradient
       id="linearGradient4011-4">
      <stop
         id="stop4013-8"
         style="stop-color:#ffffff;stop-opacity:1"
         offset="0" />
      <stop
         id="stop4015-5"
         style="stop-color:#ffffff;stop-opacity:0.23529412"
         offset="0.507761" />
      <stop
         id="stop4017-6"
         style="stop-color:#ffffff;stop-opacity:0.15686275"
         offset="0.83456558" />
      <stop
         id="stop4019-1"
         style="stop-color:#ffffff;stop-opacity:0.39215687"
         offset="1" />
    </linearGradient>
    <linearGradient
       inkscape:collect="always"
       xlink:href="#linearGradient4215-4"
       id="linearGradient3163-1"
       gradientUnits="userSpaceOnUse"
       gradientTransform="matrix(0.89104604,0,0,0.88048551,-4.513473,-6.4705454)"
       x1="38.976662"
       y1="59.967686"
       x2="38.976662"
       y2="8.0928917" />
    <linearGradient
       id="linearGradient4215-4">
      <stop
         offset="0"
         style="stop-color:#dcdcdc;stop-opacity:1"
         id="stop4217-9" />
      <stop
         offset="1"
         style="stop-color:#f0f0f0;stop-opacity:1"
         id="stop4219-7" />
    </linearGradient>
    <radialGradient
       cx="99.157013"
       cy="186.17059"
       r="62.769119"
       fx="99.157013"
       fy="186.17059"
       id="radialGradient3315"
       xlink:href="#linearGradient3820-7-2-2"
       gradientUnits="userSpaceOnUse"
       gradientTransform="matrix(0.27193254,0,0,0.08549854,-2.964015,26.714434)" />
    <linearGradient
       id="linearGradient3820-7-2-2">
      <stop
         id="stop3822-2-6-36"
         style="stop-color:#3d3d3d;stop-opacity:1"
         offset="0" />
      <stop
         id="stop3864-8-7-6"
         style="stop-color:#686868;stop-opacity:0.49803922"
         offset="0.5" />
      <stop
         id="stop3824-1-2-4"
         style="stop-color:#686868;stop-opacity:0"
         offset="1" />
    </linearGradient>
  </defs>
  <metadata
     id="metadata4956">
    <rdf:RDF>
      <cc:Work
         rdf:about="">
        <dc:format>image/svg+xml</dc:format>
        <dc:type
           rdf:resource="http://purl.org/dc/dcmitype/StillImage" />
        <dc:title />
      </cc:Work>
    </rdf:RDF>
  </metadata>
  <path
     style="fill:url(#radialGradient3195)"
     inkscape:connector-curvature="0"
     d="m 41,41.5 a 17,5.5 0 0 1 -34,0 17,5.5 0 1 1 34,0 z"
     id="path3818-0-5" />
  <path
     style="fill:#ff942b;fill-rule:evenodd"
     inkscape:connector-curvature="0"
     d="m 5.8618,13.917 18.149,9.9776 V 3.4996 C 16.0288,3.4688 9.5538,7.5274 5.8618,13.9166 Z"
     id="path5983" />
  <path
     style="fill:#ff4b4b;fill-rule:evenodd"
     inkscape:connector-curvature="0"
     d="M 24.011,23.755 6.241,13.533 c 0,0 -2.741,3.7912 -2.7409,10.055 4.3e-5,6.3297 2.611,10.388 2.611,10.388 l 17.9,-10.221 z"
     id="path5979" />
  <path
     style="fill:#ad7fa8;fill-rule:evenodd"
     inkscape:connector-curvature="0"
     d="M 6.0449,33.904 24.0109,23.755 V 44.5 C 16.1099,44.531 9.6999,40.403 6.0449,33.904 Z"
     id="path5981" />
  <path
     style="fill:#55891f;fill-rule:evenodd"
     inkscape:connector-curvature="0"
     d="M 42.019,13.917 24.011,23.8946 V 3.4996 c 7.9197,-0.03102 14.344,4.0276 18.008,10.417 z"
     id="path5973" />
  <path
     style="fill:#729fcf;fill-rule:evenodd"
     inkscape:connector-curvature="0"
     d="M 24.011,23.895 41.762,13.674 c 0,0 2.7381,3.7912 2.7381,10.055 -4.3e-5,6.3297 -2.6083,10.388 -2.6083,10.388 L 24.0108,23.895 Z"
     id="path4952" />
  <path
     style="fill:#417bd2;fill-rule:evenodd"
     inkscape:connector-curvature="0"
     d="M 41.958,33.904 24.011,23.755 V 44.5 c 7.893,0.03155 14.296,-4.0968 17.947,-10.596 z"
     id="path5977" />
  <circle
     style="opacity:0.3;fill:url(#radialGradient2864)"
     r="20.5"
     cy="-24"
     transform="scale(1,-1)"
     cx="24"
     id="path5989" />
  <path
     inkscape:connector-curvature="0"
     d="M 43.5,24 C 43.5,34.77 34.77,43.5 24,43.5 13.23,43.5 4.5,34.77 4.5,24 4.5,13.23 13.23,4.5 24,4.5 34.77,4.5 43.5,13.23 43.5,24 Z"
     style="color:#000000;opacity:1;fill:none;stroke:#ffffff;stroke-linecap:round;stroke-linejoin:round;stroke-width:2;stroke-miterlimit:4;stroke-dasharray:none;stroke-opacity:1"
     id="path4176" />
  <path
     inkscape:connector-curvature="0"
     d="M 24,3.5 C 12.689,3.5 3.5,12.689 3.5,24 3.5,35.311 12.689,44.5 24,44.5 35.311,44.5 44.5,35.311 44.5,24 44.5,12.689 35.311,3.5 24,3.5 Z"
     style="color:#000000;opacity:0.7;fill:none;stroke:#ffffff;stroke-opacity:1"
     id="path3871" />
  <path
     d="m 29.727812,30.821315 a 5.6896561,1.8292473 0 1 1 -11.379312,0 5.6896561,1.8292473 0 1 1 11.379312,0 z"
     id="path3818-0-2"
     style="fill:url(#radialGradient3315);fill-opacity:1;stroke:none;stroke-width:1"
     inkscape:connector-curvature="0" />
  <path
     d="m 24.038156,16.71028 c -4.138242,0 -7.500002,3.396859 -7.500002,7.578309 0,4.181452 3.36176,7.578313 7.500002,7.578312 4.138241,0 7.500004,-3.39686 7.5,-7.578312 0,-4.18145 -3.361759,-7.578309 -7.5,-7.578309 z"
     id="path2555"
     style="color:#000000;display:inline;overflow:visible;visibility:visible;fill:url(#linearGradient3163-1);fill-opacity:1;fill-rule:nonzero;stroke:none;stroke-width:0.71428573;stroke-linecap:round;stroke-linejoin:round;stroke-miterlimit:4;stroke-dasharray:none;stroke-dashoffset:0;stroke-opacity:1;marker:none;enable-background:accumulate"
     inkscape:connector-curvature="0" />
  <path
     d="m 24.038155,16.71028 c -4.138241,0 -7.500001,3.396859 -7.500001,7.57831 0,4.18145 3.36176,7.578312 7.500001,7.578311 4.13824,0 7.500005,-3.396861 7.500001,-7.578311 0,-4.181451 -3.361761,-7.57831 -7.500001,-7.57831 z"
     id="path2555-6"
     style="color:#000000;display:inline;overflow:visible;visibility:visible;opacity:0.5;fill:#000000;fill-opacity:0;fill-rule:nonzero;stroke:#000000;stroke-width:1;stroke-linecap:round;stroke-linejoin:round;stroke-miterlimit:4;stroke-dasharray:none;stroke-dashoffset:0;stroke-opacity:1;marker:none;enable-background:accumulate"
     inkscape:connector-curvature="0" />
  <path
     d="m 24.038155,16.971299 c -1.123747,0 -2.19134,0.259802 -3.140948,0.722553 l 2.715517,5.817006 -4.743104,-4.353609 c -1.284298,1.320769 -2.072845,3.13574 -2.072845,5.131039 0,0.527575 0.05765,1.040493 0.162931,1.536568 l 7.150863,-1.865833 -0.117673,-0.100608 4.61638,-5.240794 C 27.362308,17.59036 25.770283,16.971299 24.038155,16.971299 Z m 6.978881,5.359694 -7.114657,1.719493 0.02716,0.01829 -6.182329,3.841418 c 1.247774,2.206812 3.598501,3.695081 6.290949,3.69508 0.204063,0 0.406648,-0.01066 0.606466,-0.02744 C 24.384338,28.564655 24.00182,24.215372 23.9929,24.11451 l 5.747846,4.673727 c 0.962023,-1.242159 1.538794,-2.802516 1.538793,-4.499949 0,-0.677258 -0.0916,-1.334579 -0.2625,-1.957295 z"
     inkscape:connector-curvature="0"
     id="path4004"
     style="fill:#000000;fill-opacity:0.04255317;stroke:none;stroke-width:1" />
  <path
     d="m 24.038155,16.971299 c -0.871021,0 -1.706268,0.16257 -2.480173,0.448166 l 2.054742,6.091393 -5.277156,-3.731665 c -0.96463,1.243055 -1.538793,2.809117 -1.538793,4.509095 0,0.350154 0.02521,0.696412 0.07241,1.033525 l 7.24138,-1.36279 -0.117673,-0.100608 4.028018,-5.670666 c -1.143712,-0.764247 -2.510681,-1.21645 -3.982759,-1.21645 z m 7.105605,5.917614 -7.241381,1.161573 0.02716,0.01829 -5.693537,4.59141 c 1.321262,1.784518 3.429802,2.945088 5.802156,2.945087 0.05783,0 0.114476,0.0014 0.171983,0 -0.08626,-3.038385 -0.20836,-7.390329 -0.217242,-7.490767 l 6.010346,4.307877 c 0.801413,-1.177443 1.276294,-2.598908 1.276293,-4.134099 0,-0.479023 -0.04856,-0.945893 -0.135776,-1.399374 z"
     inkscape:connector-curvature="0"
     id="path4004-0"
     style="fill:#000000;fill-opacity:0.04787233;stroke:none;stroke-width:1" />
  <path
     d="m 24.038155,16.971299 c -0.657254,0 -1.295292,0.08983 -1.900863,0.256095 l 1.828449,6.713337 3.412501,-6.137124 c -1.000197,-0.527485 -2.135013,-0.832308 -3.340087,-0.832308 z m -6.164225,3.47557 c -0.682801,1.116236 -1.077155,2.434405 -1.077155,3.841419 0,0.169239 0.0069,0.336651 0.0181,0.503043 l 7.187071,-0.804869 -6.128019,-3.539594 z m 13.360347,3.009111 -7.223277,0.439019 6.236638,4.161538 c 0.655406,-1.100238 1.031899,-2.392083 1.031898,-3.768249 0,-0.280667 -0.01472,-0.55981 -0.04526,-0.832308 z m -7.18707,0.493897 -5.123277,5.524327 c 1.26211,1.270803 2.990538,2.064649 4.896984,2.121927 z"
     inkscape:connector-curvature="0"
     id="path3893-7"
     style="fill:#000000;fill-opacity:0.05851063;stroke:none;stroke-width:1" />
  <path
     d="m 24.038155,16.971299 c -0.39685,0 -0.78806,0.02923 -1.167673,0.09146 l 1.095259,6.877969 2.697414,-6.466388 c -0.814569,-0.321083 -1.698755,-0.503041 -2.625,-0.503041 z m -6.499139,4.088368 c -0.458365,0.939879 -0.724515,1.996447 -0.742241,3.10972 l 7.205173,-0.182925 z M 24.011,23.895 l 6.481035,3.713372 c 0.503328,-0.996322 0.787501,-2.125955 0.787501,-3.320084 0,-0.101562 -0.005,-0.201264 -0.0091,-0.301826 l -7.259483,-0.09146 z m 0.03621,0.05488 -4.190949,6.301757 c 1.018677,0.731502 2.225713,1.209375 3.539224,1.326205 z"
     inkscape:connector-curvature="0"
     id="path3893-7-5"
     style="fill:#000000;fill-opacity:0.06382979;stroke:none;stroke-width:1" />
  <path
     d="m 24.038155,16.971299 c -0.182636,0 -0.363838,0.0048 -0.543104,0.01829 l 0.47069,6.951139 1.828449,-6.749922 C 25.231927,17.049009 24.643519,16.9713 24.038155,16.9713 Z m -6.779742,4.756043 c -0.213661,0.576668 -0.36229,1.185275 -0.425431,1.820101 l 7.168966,0.439019 z M 24.011,23.895 l 6.707328,3.219475 c 0.320635,-0.771272 0.512315,-1.609437 0.552155,-2.487776 z m 0.03621,0.05488 -3.159053,6.923701 c 0.625234,0.306015 1.300204,0.526708 2.009484,0.640237 z"
     inkscape:connector-curvature="0"
     id="path3893"
     style="fill:#000000;fill-opacity:0.10106381;stroke:none;stroke-width:1" />
  <path
     d="M 24.083414,16.971299 23.965741,23.940731 25.061,17.044469 c -0.318978,-0.0456 -0.646744,-0.0711 -0.977586,-0.07317 z m -6.996984,5.268232 c -0.08167,0.283122 -0.151588,0.57278 -0.199138,0.868892 l 7.114656,0.878039 z M 24.011,23.895 l 6.897414,2.688993 c 0.131371,-0.401241 0.237636,-0.8154 0.298708,-1.243888 z m 0.03621,0.05488 -2.679311,7.134065 c 0.162285,0.0655 0.330066,0.129116 0.497845,0.182924 0.14843,0.04717 0.300223,0.09046 0.452586,0.128048 0.0393,0.0098 0.07812,0.01833 0.117672,0.02744 z"
     inkscape:connector-curvature="0"
     id="path3893-9"
     style="fill:#000000;fill-opacity:0.0851064;stroke:none;stroke-width:1" />
  <path
     d="m 31.020914,24.28834 c 0,3.896864 -3.126518,7.055918 -6.982671,7.055918 -3.856506,0 -6.982848,-3.15909 -6.982848,-7.055918 0,-3.896684 3.126342,-7.055417 6.982848,-7.055417 3.856153,0 6.982671,3.158733 6.982671,7.055417 z"
     id="path8655"
     style="color:#000000;display:inline;overflow:visible;visibility:visible;opacity:0.8;fill:none;stroke:url(#linearGradient3089);stroke-width:1;stroke-linecap:round;stroke-linejoin:round;stroke-miterlimit:4;stroke-dasharray:none;stroke-dashoffset:0;stroke-opacity:1;marker:none;enable-background:accumulate"
     inkscape:connector-curvature="0" />
  <g
     id="layer6"
     transform="matrix(0.14089963,0,0,0.14446509,17.233161,16.934147)"
     style="opacity:0.8;stroke-width:2.96672106">
    <path
       d="m 57.71875,18 c -0.09664,-0.01425 -0.212512,0.0045 -0.3125,0.03125 l -2.78125,0.75 c -0.399955,0.107167 -0.640249,0.53071 -0.53125,0.9375 l 0.375,1.4375 c -0.664087,0.382164 -1.284715,0.843857 -1.8125,1.375 l -1.28125,-0.75 c -0.18236,-0.105287 -0.375956,-0.142042 -0.5625,-0.09375 -0.186559,0.04823 -0.365236,0.164454 -0.46875,0.34375 l -1.4375,2.53125 c -0.207029,0.358586 -0.08344,0.820676 0.28125,1.03125 l 1.28125,0.75 c -0.196116,0.72264 -0.282329,1.4838 -0.28125,2.25 l -1.4375,0.375 c -0.406788,0.108999 -0.669667,0.506297 -0.5625,0.90625 l 0.75,2.8125 c 0.107167,0.399952 0.530712,0.640248 0.9375,0.53125 l 1.4375,-0.375 c 0.382168,0.664087 0.843857,1.253467 1.375,1.78125 l -0.71875,1.3125 c -0.210569,0.364715 -0.108607,0.792973 0.25,1 L 54.75,38.40625 c 0.358585,0.207031 0.789431,0.08346 1,-0.28125 l 0.75,-1.3125 c 0.722641,0.196115 1.483802,0.313584 2.25,0.3125 l 0.375,1.4375 c 0.108998,0.406788 0.537545,0.638418 0.9375,0.53125 l 2.8125,-0.75 c 0.399953,-0.107166 0.608999,-0.530713 0.5,-0.9375 L 63,36 c 0.664087,-0.382164 1.284717,-0.875105 1.8125,-1.40625 l 1.28125,0.75 c 0.364716,0.210569 0.824219,0.108591 1.03125,-0.25 l 1.46875,-2.53125 c 0.207028,-0.358587 0.05219,-0.820674 -0.3125,-1.03125 L 67,30.8125 c 0.196115,-0.722638 0.313576,-1.483801 0.3125,-2.25 l 1.40625,-0.40625 c 0.406784,-0.108999 0.669667,-0.506297 0.5625,-0.90625 l -0.75,-2.8125 c -0.107168,-0.399951 -0.530715,-0.640247 -0.9375,-0.53125 l -1.4375,0.375 C 65.774096,23.61716 65.312393,23.027781 64.78125,22.5 l 0.75,-1.28125 C 65.741818,20.85403 65.608612,20.394522 65.25,20.1875 l -2.53125,-1.46875 c -0.35859,-0.20703 -0.78943,-0.08346 -1,0.28125 l -0.75,1.3125 C 60.246106,20.116385 59.484949,19.998916 58.71875,20 l -0.375,-1.4375 C 58.262001,18.257408 58.008674,18.042765 57.71875,18 Z m 0.84375,7.375 c 1.476453,-0.08838 2.852364,0.891007 3.25,2.375 0.454438,1.695993 -0.554006,3.42056 -2.25,3.875 -1.69599,0.454438 -3.45181,-0.554007 -3.90625,-2.25 -0.45444,-1.695991 0.554011,-3.42056 2.25,-3.875 0.211999,-0.05681 0.445328,-0.112374 0.65625,-0.125 z M 43.25,35.46875 c -0.787101,0 -1.4375,0.636951 -1.4375,1.4375 V 39.75 c -1.40738,0.37498 -2.738343,0.940659 -3.96875,1.65625 L 35.8125,39.375 c -0.28304,-0.283037 -0.60247,-0.403146 -0.96875,-0.40625 -0.366278,-0.0032 -0.752972,0.127971 -1.03125,0.40625 l -3.90625,3.90625 c -0.556555,0.55656 -0.534772,1.433926 0.03125,2 l 2,2.03125 c -0.71559,1.230403 -1.281261,2.561367 -1.65625,3.96875 h -2.8125 C 26.668202,51.28125 26,51.931654 26,52.71875 v 5.5 c 0,0.787096 0.668202,1.4375 1.46875,1.4375 h 2.8125 c 0.374989,1.407384 0.94066,2.738347 1.65625,3.96875 l -2,2 c -0.566072,0.566073 -0.587856,1.474688 -0.03125,2.03125 l 3.90625,3.90625 c 0.556555,0.55656 1.433928,0.534821 2,-0.03125 l 2.03125,-2 c 1.230407,0.715594 2.56137,1.281269 3.96875,1.65625 V 74 c 0,0.800549 0.650399,1.46875 1.4375,1.46875 h 5.5 c 0.787093,0 1.4375,-0.668201 1.4375,-1.46875 v -2.8125 c 1.40738,-0.374981 2.738343,-0.940656 3.96875,-1.65625 l 2.03125,2 c 0.566072,0.566073 1.443438,0.58781 2,0.03125 l 3.90625,-3.90625 C 62.650305,67.099688 62.628521,66.191073 62.0625,65.625 l -2,-2 c 0.715588,-1.230403 1.281268,-2.561366 1.65625,-3.96875 h 2.8125 C 65.331792,59.65625 66,59.005847 66,58.21875 v -5.5 c 0,-0.787094 -0.668208,-1.4375 -1.46875,-1.4375 h -2.8125 C 61.343772,49.873867 60.778089,48.542903 60.0625,47.3125 l 2,-2.03125 c 0.566071,-0.566074 0.587863,-1.44344 0.03125,-2 L 58.1875,39.375 c -0.556564,-0.556561 -1.433929,-0.566074 -2,0 l -2.03125,2.03125 C 52.925838,40.690655 51.594881,40.12498 50.1875,39.75 v -2.84375 c 0,-0.800549 -0.650406,-1.4375 -1.4375,-1.4375 z M 46,49.40625 c 3.33767,0 6.03125,2.724835 6.03125,6.0625 0,3.337667 -2.69358,6.03125 -6.03125,6.03125 -3.337662,0 -6.03125,-2.693583 -6.03125,-6.03125 0,-3.337665 2.693588,-6.0625 6.03125,-6.0625 z"
       inkscape:connector-curvature="0"
       id="rect3267"
       style="display:block;overflow:visible;visibility:visible;opacity:0.8;fill:url(#linearGradient3937-3);fill-opacity:1;fill-rule:nonzero;stroke:none;stroke-width:2.96672106;marker:none;enable-background:accumulate" />
    <path
       d="m 54.1875,20.09375 c -0.114143,0.176712 -0.152417,0.406051 -0.09375,0.625 L 54.25,21.3125 c 0.07608,-0.04665 0.141411,-0.111744 0.21875,-0.15625 z m 11.25,1.25 L 64.78125,22.5 c 0.125154,0.124362 0.226439,0.274876 0.34375,0.40625 l 0.40625,-0.6875 c 0.165977,-0.287485 0.109487,-0.639803 -0.09375,-0.875 z m -6.875,4.03125 c -0.210922,0.01263 -0.444251,0.06819 -0.65625,0.125 -1.568479,0.420274 -2.533395,1.934334 -2.3125,3.5 0.213214,-1.167211 1.084995,-2.17109 2.3125,-2.5 0.211999,-0.05681 0.445328,-0.112374 0.65625,-0.125 1.476453,-0.08838 2.852364,0.891007 3.25,2.375 0.03417,0.12751 0.04454,0.247718 0.0625,0.375 0.08137,-0.445473 0.06303,-0.906515 -0.0625,-1.375 -0.397636,-1.483993 -1.773547,-2.46338 -3.25,-2.375 z M 49,25.40625 48.90625,25.5625 c -0.207029,0.358586 -0.08344,0.820676 0.28125,1.03125 L 50.28125,27.25 c 0.04514,-0.310644 0.106144,-0.606474 0.1875,-0.90625 l -1.28125,-0.75 C 49.103836,25.545442 49.057205,25.476746 49,25.40625 Z m 20.15625,2.4375 c -0.104205,0.145153 -0.249662,0.262168 -0.4375,0.3125 L 67.3125,28.5625 c 0.0011,0.766199 -0.116385,1.527362 -0.3125,2.25 l 0.1875,0.09375 c 0.07256,-0.438194 0.12563,-0.895397 0.125,-1.34375 l 1.40625,-0.40625 c 0.406784,-0.108999 0.669667,-0.506297 0.5625,-0.90625 z m -20.84375,2.4375 c -0.121461,0.169191 -0.182681,0.378481 -0.125,0.59375 l 0.75,2.8125 c 0.107167,0.399952 0.530712,0.640248 0.9375,0.53125 l 1.4375,-0.375 c 0.29607,0.514477 0.644407,0.975353 1.03125,1.40625 l 0.34375,-0.625 c -0.531143,-0.527783 -0.992832,-1.117163 -1.375,-1.78125 l -1.4375,0.375 c -0.406788,0.108998 -0.830333,-0.131298 -0.9375,-0.53125 z m 20.1875,2.4375 -1.375,2.375 c -0.207031,0.358591 -0.666534,0.460569 -1.03125,0.25 l -1.28125,-0.75 C 64.284717,35.124895 63.664087,35.617836 63,36 l 0.21875,0.84375 c 0.578415,-0.359951 1.126575,-0.77985 1.59375,-1.25 l 1.28125,0.75 c 0.364716,0.210569 0.824219,0.108591 1.03125,-0.25 L 68.59375,33.5625 C 68.749021,33.29356 68.687697,32.954357 68.5,32.71875 Z m -16.4375,4.0625 -0.09375,0.15625 c -0.210569,0.364715 -0.108607,0.792973 0.25,1 L 54.75,39.40625 c 0.358585,0.207031 0.789431,0.08346 1,-0.28125 l 0.75,-1.3125 c 0.722641,0.196115 1.483802,0.313584 2.25,0.3125 l 0.375,1.4375 c 0.108998,0.406788 0.537545,0.638418 0.9375,0.53125 l 2.8125,-0.75 c 0.399953,-0.107166 0.608999,-0.530713 0.5,-0.9375 l -0.09375,-0.375 c -0.09075,0.151606 -0.221566,0.263015 -0.40625,0.3125 l -2.8125,0.75 C 59.662545,39.200918 59.233998,38.969288 59.125,38.5625 L 58.75,37.125 c -0.766198,0.0011 -1.527359,-0.116385 -2.25,-0.3125 l -0.75,1.3125 c -0.210569,0.36471 -0.641415,0.488281 -1,0.28125 L 52.21875,36.9375 C 52.15019,36.89792 52.111907,36.83501 52.0625,36.78125 Z M 29.59375,44.75 c -0.202138,0.508093 -0.08077,1.106695 0.34375,1.53125 l 1.65625,1.6875 c 0.115407,-0.220452 0.219017,-0.441781 0.34375,-0.65625 l -2,-2.03125 C 29.779486,45.123221 29.666193,44.942797 29.59375,44.75 Z m 32.8125,0 c -0.07245,0.192797 -0.185722,0.373221 -0.34375,0.53125 l -2,2.03125 c 0.124733,0.214469 0.228342,0.435798 0.34375,0.65625 l 1.65625,-1.6875 C 62.487053,45.856695 62.608408,45.258093 62.40625,44.75 Z M 46,49.40625 c -3.337662,0 -6.03125,2.724835 -6.03125,6.0625 0,0.125371 0.02376,0.251556 0.03125,0.375 0.308149,-3.049511 2.870942,-5.4375 6,-5.4375 3.129066,0 5.691852,2.387989 6,5.4375 0.0075,-0.123444 0.03125,-0.249629 0.03125,-0.375 0,-3.337665 -2.69358,-6.0625 -6.03125,-6.0625 z m -20,8.8125 v 1 c 0,0.787096 0.668202,1.4375 1.46875,1.4375 h 2.8125 c 0.309625,1.162066 0.76582,2.268225 1.3125,3.3125 L 31.9375,63.625 c -0.71559,-1.230403 -1.281261,-2.561366 -1.65625,-3.96875 h -2.8125 C 26.668202,59.65625 26,59.005846 26,58.21875 Z m 40,0 c 0,0.787097 -0.668208,1.4375 -1.46875,1.4375 h -2.8125 c -0.374982,1.407384 -0.940662,2.738347 -1.65625,3.96875 l 0.34375,0.34375 c 0.546681,-1.044275 1.00288,-2.150434 1.3125,-3.3125 h 2.8125 C 65.331792,60.65625 66,60.005847 66,59.21875 Z M 29.59375,67.1875 c -0.174016,0.50065 -0.08176,1.074519 0.3125,1.46875 l 3.90625,3.90625 c 0.556555,0.55656 1.433928,0.534821 2,-0.03125 l 2.03125,-2 c 1.230407,0.715594 2.56137,1.281269 3.96875,1.65625 v -1 c -1.40738,-0.374981 -2.738343,-0.940656 -3.96875,-1.65625 l -2.03125,2 c -0.566072,0.566071 -1.443445,0.58781 -2,0.03125 l -3.90625,-3.90625 c -0.139152,-0.13914 -0.245114,-0.296456 -0.3125,-0.46875 z m 32.8125,0 c -0.06738,0.172294 -0.173361,0.32961 -0.3125,0.46875 L 58.1875,71.5625 c -0.556562,0.55656 -1.433928,0.534823 -2,-0.03125 l -2.03125,-2 c -1.230407,0.715594 -2.56137,1.281269 -3.96875,1.65625 v 1 c 1.40738,-0.374981 2.738343,-0.940656 3.96875,-1.65625 l 2.03125,2 c 0.566072,0.566073 1.443438,0.58781 2,0.03125 l 3.90625,-3.90625 c 0.394226,-0.394231 0.486501,-0.9681 0.3125,-1.46875 z M 41.8125,74 v 1 c 0,0.800549 0.650399,1.46875 1.4375,1.46875 h 5.5 c 0.787093,0 1.4375,-0.668201 1.4375,-1.46875 v -1 c 0,0.800549 -0.650407,1.46875 -1.4375,1.46875 h -5.5 c -0.787101,0 -1.4375,-0.668201 -1.4375,-1.46875 z"
       inkscape:connector-curvature="0"
       id="path3939"
       style="display:block;overflow:visible;visibility:visible;opacity:0.6;fill:#ffffff;fill-opacity:1;fill-rule:nonzero;stroke:none;stroke-width:2.96672106;marker:none;enable-background:accumulate" />
    <path
       d="m 57.71875,19 c -0.09664,-0.01425 -0.212512,0.0045 -0.3125,0.03125 l -2.78125,0.75 c -0.399955,0.107167 -0.640249,0.53071 -0.53125,0.9375 l 0.375,1.4375 c -0.664087,0.382164 -1.284715,0.843857 -1.8125,1.375 l -1.28125,-0.75 c -0.18236,-0.105287 -0.375956,-0.142042 -0.5625,-0.09375 -0.186559,0.04823 -0.365236,0.164454 -0.46875,0.34375 l -1.4375,2.53125 c -0.207029,0.358586 -0.08344,0.820676 0.28125,1.03125 l 1.28125,0.75 c -0.196116,0.72264 -0.282329,1.4838 -0.28125,2.25 l -1.4375,0.375 c -0.406788,0.108999 -0.669667,0.506297 -0.5625,0.90625 l 0.75,2.8125 c 0.107167,0.399952 0.530712,0.640248 0.9375,0.53125 l 1.4375,-0.375 c 0.382168,0.664087 0.843857,1.253467 1.375,1.78125 l -0.71875,1.3125 c -0.210569,0.364715 -0.108607,0.792973 0.25,1 L 54.75,39.40625 c 0.358585,0.207031 0.789431,0.08346 1,-0.28125 l 0.75,-1.3125 c 0.722641,0.196115 1.483802,0.313584 2.25,0.3125 l 0.375,1.4375 c 0.108998,0.406788 0.537545,0.638418 0.9375,0.53125 l 2.8125,-0.75 c 0.399953,-0.107166 0.608999,-0.530713 0.5,-0.9375 L 63,37 c 0.664087,-0.382164 1.284717,-0.875105 1.8125,-1.40625 l 1.28125,0.75 c 0.364716,0.210569 0.824219,0.108591 1.03125,-0.25 l 1.46875,-2.53125 c 0.207028,-0.358587 0.05219,-0.820674 -0.3125,-1.03125 L 67,31.8125 c 0.196115,-0.722638 0.313576,-1.483801 0.3125,-2.25 l 1.40625,-0.40625 c 0.406784,-0.108999 0.669667,-0.506297 0.5625,-0.90625 l -0.75,-2.8125 c -0.107168,-0.399951 -0.530715,-0.640247 -0.9375,-0.53125 l -1.4375,0.375 C 65.774096,24.61716 65.312393,24.027781 64.78125,23.5 l 0.75,-1.28125 C 65.741818,21.85403 65.608612,21.394522 65.25,21.1875 l -2.53125,-1.46875 c -0.35859,-0.20703 -0.78943,-0.08346 -1,0.28125 l -0.75,1.3125 C 60.246106,21.116385 59.484949,20.998916 58.71875,21 l -0.375,-1.4375 C 58.262001,19.257408 58.008674,19.042765 57.71875,19 Z m 0.84375,7.375 c 1.476453,-0.08838 2.852364,0.891007 3.25,2.375 0.454438,1.695993 -0.554006,3.42056 -2.25,3.875 -1.69599,0.454438 -3.45181,-0.554007 -3.90625,-2.25 -0.45444,-1.695991 0.554011,-3.42056 2.25,-3.875 0.211999,-0.05681 0.445328,-0.112374 0.65625,-0.125 z M 43.25,36.46875 c -0.787101,0 -1.4375,0.636951 -1.4375,1.4375 V 40.75 c -1.40738,0.37498 -2.738343,0.940659 -3.96875,1.65625 L 35.8125,40.375 c -0.28304,-0.283037 -0.60247,-0.403146 -0.96875,-0.40625 -0.366278,-0.0032 -0.752972,0.127971 -1.03125,0.40625 l -3.90625,3.90625 c -0.556555,0.55656 -0.534772,1.433926 0.03125,2 l 2,2.03125 c -0.71559,1.230403 -1.281261,2.561367 -1.65625,3.96875 h -2.8125 C 26.668202,52.28125 26,52.931654 26,53.71875 v 5.5 c 0,0.787096 0.668202,1.4375 1.46875,1.4375 h 2.8125 c 0.374989,1.407384 0.94066,2.738347 1.65625,3.96875 l -2,2 c -0.566072,0.566073 -0.587856,1.474688 -0.03125,2.03125 l 3.90625,3.90625 c 0.556555,0.55656 1.433928,0.534821 2,-0.03125 l 2.03125,-2 c 1.230407,0.715594 2.56137,1.281269 3.96875,1.65625 V 75 c 0,0.800549 0.650399,1.46875 1.4375,1.46875 h 5.5 c 0.787093,0 1.4375,-0.668201 1.4375,-1.46875 v -2.8125 c 1.40738,-0.374981 2.738343,-0.940656 3.96875,-1.65625 l 2.03125,2 c 0.566072,0.566073 1.443438,0.58781 2,0.03125 l 3.90625,-3.90625 C 62.650305,68.099688 62.628521,67.191073 62.0625,66.625 l -2,-2 c 0.715588,-1.230403 1.281268,-2.561366 1.65625,-3.96875 h 2.8125 C 65.331792,60.65625 66,60.005847 66,59.21875 v -5.5 c 0,-0.787094 -0.668208,-1.4375 -1.46875,-1.4375 h -2.8125 C 61.343772,50.873867 60.778089,49.542903 60.0625,48.3125 l 2,-2.03125 c 0.566071,-0.566074 0.587863,-1.44344 0.03125,-2 L 58.1875,40.375 c -0.556564,-0.556561 -1.433929,-0.566074 -2,0 l -2.03125,2.03125 C 52.925838,41.690655 51.594881,41.12498 50.1875,40.75 v -2.84375 c 0,-0.800549 -0.650406,-1.4375 -1.4375,-1.4375 z M 46,50.40625 c 3.33767,0 6.03125,2.724835 6.03125,6.0625 0,3.337667 -2.69358,6.03125 -6.03125,6.03125 -3.337662,0 -6.03125,-2.693583 -6.03125,-6.03125 0,-3.337665 2.693588,-6.0625 6.03125,-6.0625 z"
       inkscape:connector-curvature="0"
       clip-path="url(#clipPath3954-5)"
       id="path3948"
       style="display:block;overflow:visible;visibility:visible;opacity:0.4;fill:none;stroke:#000000;stroke-width:14.01824474;stroke-miterlimit:4;stroke-dasharray:none;marker:none;filter:url(#filter3958-5);enable-background:accumulate" />
  </g>
</svg>
