<?xml version="1.0" encoding="UTF-8" standalone="no"?>
<!-- Created with Inkscape (http://www.inkscape.org/) -->

<svg
   xmlns:dc="http://purl.org/dc/elements/1.1/"
   xmlns:cc="http://creativecommons.org/ns#"
   xmlns:rdf="http://www.w3.org/1999/02/22-rdf-syntax-ns#"
   xmlns:svg="http://www.w3.org/2000/svg"
   xmlns="http://www.w3.org/2000/svg"
   xmlns:xlink="http://www.w3.org/1999/xlink"
   xmlns:sodipodi="http://sodipodi.sourceforge.net/DTD/sodipodi-0.dtd"
   xmlns:inkscape="http://www.inkscape.org/namespaces/inkscape"
   width="1024"
   height="1024"
   id="svg2"
   version="1.1"
   inkscape:version="0.92.2 2405546, 2018-03-11"
   sodipodi:docname="4137_winhlp32.0.svg">
  <defs
     id="defs4">
    <linearGradient
       id="linearGradient882">
      <stop
         style="stop-color:#81e9c0;stop-opacity:1"
         offset="0"
         id="stop878" />
      <stop
         style="stop-color:#31c6b7;stop-opacity:1"
         offset="1"
         id="stop880" />
    </linearGradient>
    <linearGradient
       inkscape:collect="always"
       id="linearGradient906">
      <stop
         style="stop-color:#ffffff;stop-opacity:1;"
         offset="0"
         id="stop902" />
      <stop
         style="stop-color:#d7d7d7;stop-opacity:1"
         offset="1"
         id="stop904" />
    </linearGradient>
    <linearGradient
       id="linearGradient872">
      <stop
         id="stop868"
         offset="0"
         style="stop-color:#ffffff;stop-opacity:1" />
      <stop
         id="stop870"
         offset="1"
         style="stop-color:#d7d7d7;stop-opacity:1" />
    </linearGradient>
    <linearGradient
       id="linearGradient864">
      <stop
         id="stop860"
         offset="0"
         style="stop-color:#ffffff;stop-opacity:1" />
      <stop
         id="stop862"
         offset="1"
         style="stop-color:#d7d7d7;stop-opacity:1" />
    </linearGradient>
    <linearGradient
       id="linearGradient4370">
      <stop
         id="stop4372"
         offset="0"
         style="stop-color:#fa9381;stop-opacity:1" />
      <stop
         id="stop4374"
         offset="1"
         style="stop-color:#bc1938;stop-opacity:1" />
    </linearGradient>
    <inkscape:perspective
       sodipodi:type="inkscape:persp3d"
       inkscape:vp_x="13.534465 : 111.04854 : 1"
       inkscape:vp_y="0 : 1000 : 0"
       inkscape:vp_z="213.53447 : 111.04854 : 1"
       inkscape:persp3d-origin="113.53447 : 77.71521 : 1"
       id="perspective3135" />
    <linearGradient
       id="linearGradient4829">
      <stop
         style="stop-color:#f4fbfc;stop-opacity:1;"
         offset="0"
         id="stop4831" />
      <stop
         style="stop-color:#d6d6d6;stop-opacity:1;"
         offset="1"
         id="stop4833" />
    </linearGradient>
    <clipPath
       clipPathUnits="userSpaceOnUse"
       id="clipPath4282">
      <rect
         style="color:#000000;display:inline;overflow:visible;visibility:visible;fill:#4d4d4d;fill-opacity:1;fill-rule:nonzero;stroke:none;stroke-width:9.13434315;marker:none;enable-background:accumulate"
         id="rect4284"
         width="246.875"
         height="234.375"
         x="462.5"
         y="1646.1122"
         ry="17"
         rx="17" />
    </clipPath>
    <linearGradient
       inkscape:collect="always"
       xlink:href="#linearGradient864"
       id="linearGradient4835"
       x1="102.29776"
       y1="-0.42686829"
       x2="102.29776"
       y2="199.16539"
       gradientUnits="userSpaceOnUse"
       gradientTransform="matrix(4.5,0,0,4.5,65,87.362187)" />
    <linearGradient
       inkscape:collect="always"
       xlink:href="#linearGradient5423"
       id="linearGradient5429"
       x1="408.66196"
       y1="44.604382"
       x2="408.66196"
       y2="562.04968"
       gradientUnits="userSpaceOnUse" />
    <linearGradient
       id="linearGradient5423">
      <stop
         style="stop-color:#db8451;stop-opacity:1;"
         offset="0"
         id="stop5425" />
      <stop
         style="stop-color:#c85c29;stop-opacity:1;"
         offset="1"
         id="stop5427" />
    </linearGradient>
    <linearGradient
       inkscape:collect="always"
       xlink:href="#linearGradient882"
       id="linearGradient5473"
       x1="99.036476"
       y1="-0.50471628"
       x2="99.036476"
       y2="199.83986"
       gradientUnits="userSpaceOnUse"
       gradientTransform="matrix(4.1514705,0,0,4.1514705,99.411782,122.65625)" />
    <linearGradient
       inkscape:collect="always"
       xlink:href="#linearGradient3986"
       id="linearGradient3992"
       x1="78.5625"
       y1="993.6615"
       x2="120.28125"
       y2="993.6615"
       gradientUnits="userSpaceOnUse" />
    <linearGradient
       inkscape:collect="always"
       id="linearGradient3986">
      <stop
         style="stop-color:#000000;stop-opacity:1;"
         offset="0"
         id="stop3988" />
      <stop
         style="stop-color:#000000;stop-opacity:0;"
         offset="1"
         id="stop3990" />
    </linearGradient>
    <linearGradient
       inkscape:collect="always"
       xlink:href="#linearGradient5423-1"
       id="linearGradient5473-2"
       x1="99.036476"
       y1="-0.50471628"
       x2="99.036476"
       y2="199.83986"
       gradientUnits="userSpaceOnUse" />
    <linearGradient
       id="linearGradient5423-1">
      <stop
         style="stop-color:#51b9db;stop-opacity:1;"
         offset="0"
         id="stop5425-2" />
      <stop
         style="stop-color:#2fabd4;stop-opacity:1;"
         offset="1"
         id="stop5427-3" />
    </linearGradient>
    <linearGradient
       y2="199.83986"
       x2="99.036476"
       y1="-0.50471628"
       x1="99.036476"
       gradientUnits="userSpaceOnUse"
       id="linearGradient4119"
       xlink:href="#linearGradient5423-1"
       inkscape:collect="always" />
    <linearGradient
       inkscape:collect="always"
       xlink:href="#linearGradient872"
       id="linearGradient4538"
       x1="303.125"
       y1="846.84839"
       x2="303.125"
       y2="1057.7859"
       gradientUnits="userSpaceOnUse" />
    <linearGradient
       inkscape:collect="always"
       xlink:href="#linearGradient4829"
       id="linearGradient4540"
       gradientUnits="userSpaceOnUse"
       x1="200"
       y1="952.36218"
       x2="400"
       y2="952.36218" />
    <linearGradient
       inkscape:collect="always"
       xlink:href="#linearGradient4829"
       id="linearGradient4542"
       gradientUnits="userSpaceOnUse"
       x1="200"
       y1="952.36218"
       x2="400"
       y2="952.36218" />
    <linearGradient
       inkscape:collect="always"
       xlink:href="#linearGradient4829"
       id="linearGradient4544"
       gradientUnits="userSpaceOnUse"
       x1="200"
       y1="952.36218"
       x2="400"
       y2="952.36218" />
    <linearGradient
       inkscape:collect="always"
       xlink:href="#linearGradient4829"
       id="linearGradient4546"
       gradientUnits="userSpaceOnUse"
       x1="200"
       y1="952.36218"
       x2="400"
       y2="952.36218" />
    <linearGradient
       inkscape:collect="always"
       xlink:href="#linearGradient4829"
       id="linearGradient4548"
       gradientUnits="userSpaceOnUse"
       x1="200"
       y1="952.36218"
       x2="400"
       y2="952.36218" />
    <linearGradient
       inkscape:collect="always"
       xlink:href="#linearGradient4829"
       id="linearGradient4550"
       gradientUnits="userSpaceOnUse"
       x1="200"
       y1="952.36218"
       x2="400"
       y2="952.36218" />
    <filter
       inkscape:collect="always"
       style="color-interpolation-filters:sRGB"
       id="filter896"
       x="-0.036"
       width="1.072"
       y="-0.036"
       height="1.072">
      <feGaussianBlur
         inkscape:collect="always"
         stdDeviation="3"
         id="feGaussianBlur898" />
    </filter>
    <linearGradient
       inkscape:collect="always"
       xlink:href="#linearGradient906"
       id="linearGradient908"
       x1="540"
       y1="212.36218"
       x2="540"
       y2="872.36218"
       gradientUnits="userSpaceOnUse"
       gradientTransform="matrix(0.87890625,0,0,0.87890625,66.08996,59.519834)" />
  </defs>
  <sodipodi:namedview
     id="base"
     pagecolor="#ffffff"
     bordercolor="#666666"
     borderopacity="1.0"
     inkscape:pageopacity="0.0"
     inkscape:pageshadow="2"
     inkscape:zoom="0.57421875"
     inkscape:cx="512"
     inkscape:cy="512"
     inkscape:document-units="px"
     inkscape:current-layer="layer1"
     showgrid="true"
     inkscape:window-width="1366"
     inkscape:window-height="745"
     inkscape:window-x="0"
     inkscape:window-y="23"
     inkscape:window-maximized="1"
     inkscape:snap-from-guide="true"
     showguides="true"
     inkscape:guide-bbox="true"
     inkscape:pagecheckerboard="true">
    <sodipodi:guide
       position="200,0"
       orientation="-200,0"
       id="guide3766"
       inkscape:locked="false" />
    <sodipodi:guide
       position="0,200"
       orientation="200,0"
       id="guide3127"
       inkscape:locked="false" />
    <sodipodi:guide
       position="0,-2.6171874e-06"
       orientation="0,100"
       id="guide3129"
       inkscape:locked="false" />
    <sodipodi:guide
       position="100,-2.6171874e-06"
       orientation="-200,0"
       id="guide3131"
       inkscape:locked="false" />
    <sodipodi:guide
       position="100,200"
       orientation="0,-100"
       id="guide3133"
       inkscape:locked="false" />
    <inkscape:grid
       type="xygrid"
       id="grid866" />
  </sodipodi:namedview>
  <metadata
     id="metadata7">
    <rdf:RDF>
      <cc:Work
         rdf:about="">
        <dc:format>image/svg+xml</dc:format>
        <dc:type
           rdf:resource="http://purl.org/dc/dcmitype/StillImage" />
        <dc:title />
      </cc:Work>
    </rdf:RDF>
  </metadata>
  <g
     inkscape:label="Layer 1"
     inkscape:groupmode="layer"
     id="layer1"
     transform="translate(0,-28.36218)">
    <circle
       style="color:#000000;display:inline;overflow:visible;visibility:visible;fill:url(#linearGradient4835);fill-opacity:1;fill-rule:nonzero;stroke:none;stroke-width:41.10454559;marker:none;enable-background:accumulate"
       id="path4188"
       cx="515"
       cy="537.36218"
       r="450" />
    <circle
       style="color:#000000;display:inline;overflow:visible;visibility:visible;fill:url(#linearGradient5473);fill-opacity:1;fill-rule:nonzero;stroke:none;stroke-width:37.92095566;marker:none;enable-background:accumulate"
       id="path4188-6"
       cx="514.55884"
       cy="537.80334"
       r="415.14706" />
    <circle
       style="opacity:0.2;fill:url(#linearGradient908);fill-opacity:1;stroke:none;stroke-width:26.3671875;stroke-linecap:square;stroke-linejoin:miter;stroke-miterlimit:10;stroke-dasharray:none;stroke-opacity:1;paint-order:stroke markers fill"
       id="path900"
       cx="515.93927"
       cy="536.10486"
       r="290.03906" />
    <g
       transform="matrix(2.25,0,0,2.25,-158.91004,-1597.7192)"
       style="opacity:0.2;fill:#000000;fill-opacity:1;filter:url(#filter896)"
       id="g886">
      <path
         inkscape:connector-curvature="0"
         style="opacity:1;fill:#000000;fill-opacity:1;stroke:none;stroke-width:9;stroke-miterlimit:4;stroke-dasharray:none;stroke-opacity:1"
         d="M 300,0 A 100,100 0 0 0 200,100 100,100 0 0 0 300,200 100,100 0 0 0 400,100 100,100 0 0 0 300,0 Z m 0,12.722656 A 87.27697,87.27697 0 0 1 387.27734,100 87.27697,87.27697 0 0 1 300,187.27734 87.27697,87.27697 0 0 1 212.72266,100 87.27697,87.27697 0 0 1 300,12.722656 Z"
         transform="translate(0,852.36218)"
         id="path874" />
      <path
         inkscape:connector-curvature="0"
         style="opacity:1;fill:#000000;fill-opacity:1;stroke:none;stroke-width:9;stroke-miterlimit:4;stroke-dasharray:none;stroke-opacity:1"
         d="M 300,38.822266 A 61.178452,61.178452 0 0 0 238.82227,100 61.178452,61.178452 0 0 0 300,161.17773 61.178452,61.178452 0 0 0 361.17773,100 61.178452,61.178452 0 0 0 300,38.822266 Z m 0,12.070312 A 49.107887,49.107887 0 0 1 349.10742,100 49.107887,49.107887 0 0 1 300,149.10742 49.107887,49.107887 0 0 1 250.89258,100 49.107887,49.107887 0 0 1 300,50.892578 Z"
         transform="translate(0,852.36218)"
         id="path876" />
      <path
         style="fill:#000000;fill-opacity:1;fill-rule:evenodd;stroke:none;stroke-width:1px;stroke-linecap:butt;stroke-linejoin:miter;stroke-opacity:1"
         d="m 220.53057,911.64707 26.75893,14.99423 26.75894,-28.3737 -16.83967,-27.45098 c 0,0 -31.37255,14.76355 -36.6782,40.83045 z"
         id="path878"
         inkscape:connector-curvature="0" />
      <path
         style="fill:#000000;fill-opacity:1;fill-rule:evenodd;stroke:none;stroke-width:1px;stroke-linecap:butt;stroke-linejoin:miter;stroke-opacity:1"
         d="m 326.18224,898.72896 15.91695,-27.2203 14.76356,7.61246 21.91464,32.06459 -31.60323,18.22376 -5.30565,-15.22491 z"
         id="path880"
         inkscape:connector-curvature="0" />
      <path
         style="fill:#000000;fill-opacity:1;fill-rule:evenodd;stroke:none;stroke-width:1px;stroke-linecap:butt;stroke-linejoin:miter;stroke-opacity:1"
         d="m 352.7105,978.08306 31.37254,18.45444 -14.99423,23.2987 -27.91234,11.0727 -17.7624,-28.3737 z"
         id="path882"
         inkscape:connector-curvature="0" />
      <path
         style="fill:#000000;fill-opacity:1;fill-rule:evenodd;stroke:none;stroke-width:1px;stroke-linecap:butt;stroke-linejoin:miter;stroke-opacity:1"
         d="m 258.59285,1030.6782 15.22491,-24.6828 -26.75894,-27.45098 -27.45098,15.68627 7.61246,19.37711 z"
         id="path884"
         inkscape:connector-curvature="0" />
    </g>
    <g
       id="g4524"
       style="fill:url(#linearGradient4538);fill-opacity:1"
       transform="matrix(2.25,0,0,2.25,-158.91004,-1606.5082)">
      <path
         id="path4485"
         transform="translate(0,852.36218)"
         d="M 300,0 A 100,100 0 0 0 200,100 100,100 0 0 0 300,200 100,100 0 0 0 400,100 100,100 0 0 0 300,0 Z m 0,12.722656 A 87.27697,87.27697 0 0 1 387.27734,100 87.27697,87.27697 0 0 1 300,187.27734 87.27697,87.27697 0 0 1 212.72266,100 87.27697,87.27697 0 0 1 300,12.722656 Z"
         style="opacity:1;fill:url(#linearGradient4540);fill-opacity:1;stroke:none;stroke-width:9;stroke-miterlimit:4;stroke-dasharray:none;stroke-opacity:1"
         inkscape:connector-curvature="0" />
      <path
         id="path4485-0"
         transform="translate(0,852.36218)"
         d="M 300,38.822266 A 61.178452,61.178452 0 0 0 238.82227,100 61.178452,61.178452 0 0 0 300,161.17773 61.178452,61.178452 0 0 0 361.17773,100 61.178452,61.178452 0 0 0 300,38.822266 Z m 0,12.070312 A 49.107887,49.107887 0 0 1 349.10742,100 49.107887,49.107887 0 0 1 300,149.10742 49.107887,49.107887 0 0 1 250.89258,100 49.107887,49.107887 0 0 1 300,50.892578 Z"
         style="opacity:1;fill:url(#linearGradient4542);fill-opacity:1;stroke:none;stroke-width:9;stroke-miterlimit:4;stroke-dasharray:none;stroke-opacity:1"
         inkscape:connector-curvature="0" />
      <path
         inkscape:connector-curvature="0"
         id="path4516"
         d="m 220.53057,911.64707 26.75893,14.99423 26.75894,-28.3737 -16.83967,-27.45098 c 0,0 -31.37255,14.76355 -36.6782,40.83045 z"
         style="fill:url(#linearGradient4544);fill-opacity:1;fill-rule:evenodd;stroke:none;stroke-width:1px;stroke-linecap:butt;stroke-linejoin:miter;stroke-opacity:1" />
      <path
         inkscape:connector-curvature="0"
         id="path4518"
         d="m 326.18224,898.72896 15.91695,-27.2203 14.76356,7.61246 21.91464,32.06459 -31.60323,18.22376 -5.30565,-15.22491 z"
         style="fill:url(#linearGradient4546);fill-opacity:1;fill-rule:evenodd;stroke:none;stroke-width:1px;stroke-linecap:butt;stroke-linejoin:miter;stroke-opacity:1" />
      <path
         inkscape:connector-curvature="0"
         id="path4520"
         d="m 352.7105,978.08306 31.37254,18.45444 -14.99423,23.2987 -27.91234,11.0727 -17.7624,-28.3737 z"
         style="fill:url(#linearGradient4548);fill-opacity:1;fill-rule:evenodd;stroke:none;stroke-width:1px;stroke-linecap:butt;stroke-linejoin:miter;stroke-opacity:1" />
      <path
         inkscape:connector-curvature="0"
         id="path4522"
         d="m 258.59285,1030.6782 15.22491,-24.6828 -26.75894,-27.45098 -27.45098,15.68627 7.61246,19.37711 z"
         style="fill:url(#linearGradient4550);fill-opacity:1;fill-rule:evenodd;stroke:none;stroke-width:1px;stroke-linecap:butt;stroke-linejoin:miter;stroke-opacity:1" />
    </g>
  </g>
</svg>
