<?xml version="1.0" encoding="UTF-8" standalone="no"?>
<!-- Created with Inkscape (http://www.inkscape.org/) -->

<svg
   xmlns:dc="http://purl.org/dc/elements/1.1/"
   xmlns:cc="http://creativecommons.org/ns#"
   xmlns:rdf="http://www.w3.org/1999/02/22-rdf-syntax-ns#"
   xmlns:svg="http://www.w3.org/2000/svg"
   xmlns="http://www.w3.org/2000/svg"
   xmlns:xlink="http://www.w3.org/1999/xlink"
   xmlns:sodipodi="http://sodipodi.sourceforge.net/DTD/sodipodi-0.dtd"
   xmlns:inkscape="http://www.inkscape.org/namespaces/inkscape"
   id="svg4061"
   height="48"
   width="48"
   version="1.1"
   inkscape:version="0.92.2 (unknown)"
   sodipodi:docname="htop.svg">
  <sodipodi:namedview
     pagecolor="#ffffff"
     bordercolor="#666666"
     borderopacity="1"
     objecttolerance="10"
     gridtolerance="10"
     guidetolerance="10"
     inkscape:pageopacity="0"
     inkscape:pageshadow="2"
     inkscape:window-width="1378"
     inkscape:window-height="894"
     id="namedview40"
     showgrid="false"
     inkscape:zoom="9.8333333"
     inkscape:cx="20.163078"
     inkscape:cy="17.051588"
     inkscape:window-x="95"
     inkscape:window-y="105"
     inkscape:window-maximized="0"
     inkscape:current-layer="g4206" />
  <defs
     id="defs4063">
    <linearGradient
       inkscape:collect="always"
       id="linearGradient3361">
      <stop
         style="stop-color:#0068e0;stop-opacity:1;"
         offset="0"
         id="stop3363" />
      <stop
         style="stop-color:#00acf4;stop-opacity:1"
         offset="1"
         id="stop3365" />
    </linearGradient>
    <linearGradient
       id="linearGradient3026"
       y2="40.495998"
       gradientUnits="userSpaceOnUse"
       x2="71.204002"
       gradientTransform="matrix(1.6978558,0,0,1.69785,-98.542838,-23.312999)"
       y1="15.369"
       x1="71.204002"
       xlink:href="#linearGradient3361">
      <stop
         id="stop4808-4"
         stop-color="#fff"
         offset="0" />
      <stop
         id="stop4810-0"
         stop-color="#fff"
         stop-opacity=".23529"
         offset=".42448" />
      <stop
         id="stop4812-8"
         stop-color="#fff"
         stop-opacity=".15686"
         offset=".82090" />
      <stop
         id="stop4814-0"
         stop-color="#fff"
         stop-opacity=".39216"
         offset="1" />
    </linearGradient>
    <radialGradient
       id="radialGradient3029"
       fx="4.459"
       fy="8.5089"
       gradientUnits="userSpaceOnUse"
       cy="8.6258"
       cx="15.026"
       gradientTransform="matrix(-3.4973e-8 1.8855 -1.7764 -5.4723e-8 39.14 -7.9932)"
       r="20">
      <stop
         id="stop4170"
         stop-color="#c24251"
         offset="0" />
      <stop
         id="stop4172"
         stop-color="#c24251"
         offset=".26238" />
      <stop
         id="stop4174"
         stop-color="#a63643"
         offset=".66094" />
      <stop
         id="stop4176"
         stop-color="#a63643"
         offset="1" />
    </radialGradient>
    <radialGradient
       id="radialGradient3032"
       gradientUnits="userSpaceOnUse"
       cy="3.99"
       cx="23.896"
       gradientTransform="matrix(0 2.8885 -3.8128 0 39.213 -65.95)"
       r="20.397">
      <stop
         id="stop3244-9-33-7-0-9"
         stop-color="#fff"
         offset="0" />
      <stop
         id="stop3246-3-5-0-8-5"
         stop-color="#ddd"
         offset=".26238" />
      <stop
         id="stop3248-1-7-8-8-1"
         stop-color="#abacae"
         offset=".66094" />
      <stop
         id="stop3250-9-3-0-5-1"
         stop-color="#89898b"
         offset="1" />
    </radialGradient>
    <radialGradient
       id="radialGradient3035"
       gradientUnits="userSpaceOnUse"
       cy="186.17"
       cx="99.157"
       gradientTransform="matrix(0.27083,0,0,0.087623,-2.8551,26.187)"
       r="62.769">
      <stop
         id="stop3822-2-6-3"
         stop-color="#3d3d3d"
         offset="0" />
      <stop
         id="stop3864-8-7-7"
         stop-color="#686868"
         stop-opacity=".49804"
         offset=".5" />
      <stop
         id="stop3824-1-2-5"
         stop-color="#686868"
         stop-opacity="0"
         offset="1" />
    </radialGradient>
    <linearGradient
       id="linearGradient4433"
       y2="25.611"
       gradientUnits="userSpaceOnUse"
       x2="23.078"
       gradientTransform="matrix(1 0 0 1.0521 0 -.90547)"
       y1="13.035"
       x1="22.759">
      <stop
         id="stop6305-1-0-2"
         stop-color="#fff"
         offset="0" />
      <stop
         id="stop6307-5-0-6"
         stop-color="#fff"
         stop-opacity="0"
         offset="1" />
    </linearGradient>
    <linearGradient
       id="linearGradient4829">
      <stop
         style="stop-color:#f4fbfc;stop-opacity:1;"
         offset="0"
         id="stop4831" />
      <stop
         style="stop-color:#d6d6d6;stop-opacity:1;"
         offset="1"
         id="stop4833" />
    </linearGradient>
  </defs>
  <metadata
     id="metadata4066">
    <rdf:RDF>
      <cc:Work
         rdf:about="">
        <dc:format>image/svg+xml</dc:format>
        <dc:type
           rdf:resource="http://purl.org/dc/dcmitype/StillImage" />
        <dc:title />
      </cc:Work>
    </rdf:RDF>
  </metadata>
  <g
     id="g4206">
    <path
       id="path3818-0-5"
       d="m 41,42.5 a 17,5.5 0 0 1 -34,0 17,5.5 0 1 1 34,0 z"
       inkscape:connector-curvature="0"
       style="fill:url(#radialGradient3035)" />
    <path
       id="path2555-7-2"
       style="color:#000000;fill:url(#radialGradient3032)"
       d="M 24,3.5 C 12.689,3.5 3.5,12.689 3.5,24 3.5,35.311 12.689,44.5 24,44.5 35.311,44.5 44.5,35.311 44.5,24 44.5,12.689 35.311,3.5 24,3.5 Z"
       inkscape:connector-curvature="0" />
    <path
       id="path2555-7-65"
       style="color:#000000;fill:#666666;fill-opacity:1"
       d="M 24,3.5 C 12.689,3.5 3.5,12.689 3.5,24 3.5,35.311 12.689,44.5 24,44.5 35.311,44.5 44.5,35.311 44.5,24 44.5,12.689 35.311,3.5 24,3.5 Z"
       inkscape:connector-curvature="0" />
    <path
       id="path4176"
       style="color:#000000;opacity:0.5;fill:none;stroke:url(#linearGradient3026);stroke-width:1.05000174;stroke-linecap:round;stroke-linejoin:round"
       d="m 44.474999,24 c 0,11.3085 -9.166531,20.474999 -20.47507,20.474999 C 12.691391,44.474999 3.5248599,35.3085 3.5248599,24 c 0,-11.3085 9.1665311,-20.4749993 20.4750691,-20.4749993 11.308539,0 20.47507,9.1664993 20.47507,20.4749993 z"
       inkscape:connector-curvature="0" />
    <path
       id="path2555-7-1-7"
       style="color:#000000;opacity:1;fill:none;fill-opacity:1;stroke:#fbfbfb;stroke-width:1.79999995;stroke-linecap:round;stroke-linejoin:round;stroke-miterlimit:4;stroke-dasharray:none;stroke-opacity:1"
       d="m 24,3.5001 c -11.311,0 -20.5,9.1888 -20.5,20.5 0,11.3112 9.1888,20.5 20.5,20.5 11.3112,0 20.5,-9.1888 20.5,-20.5 0,-11.3112 -9.189,-20.5 -20.5,-20.5 z"
       inkscape:connector-curvature="0" />
    <g
       id="g4317"
       transform="matrix(1.0002,0,0,1.0004,-1.0018,-0.0050486)"
       style="fill:none;stroke:#000000;stroke-linecap:round;stroke-linejoin:round" />
    <g
       transform="matrix(1.0837235,0,0,1.05,-2.125186,-2.613509)"
       id="g3840">
      <path
         d="m 23.469,12.334 c -0.43573,0.0097 -0.815,0.30048 -0.9375,0.71875 l -4.2617,14.488 -1.1406,-3.0469 C 16.98277,24.10401 16.61009,23.8457 16.19365,23.84541 h -10.193 -1 v 4 h 1 8.1133 l 3.5664,9.5059 c 0.339,0.8964 1.6229,0.84876 1.8945,-0.07031 l 3.944,-13.415 1.918,6.395 c 0.27654,0.91404 1.5545,0.95756 1.8926,0.06445 l 2.2305,-5.9473 0.33398,0.83789 c 0.15169,0.37951 0.51904,0.62853 0.92774,0.62891 h 11.178 1 v -4 h -1 -9.1445 l -2.457,-6.1387 c -0.34005,-0.84525 -1.541,-0.83266 -1.8633,0.01953 l -1.8242,4.8652 -2.2637,-7.5449 c -0.131,-0.431 -0.531,-0.722 -0.98,-0.713 z m 0.031,4.51 0.9668,3.2266 c -0.28781,-0.94982 -1.6341,-0.94567 -1.916,0.0059 l -4.051,13.771 -1.051,-2.803 c 0.339,0.8964 1.6229,0.84876 1.8945,-0.07031 z m 6,2 1.75,4.373 c 0.15169,0.3795 0.51904,0.62853 0.92773,0.62891 H 31.5 l -1.043,-2.6035 c -0.33493,-0.83332 -1.5133,-0.83707 -1.8535,-0.0059 z m -3.8516,5.1621 c 0.27636,0.91114 1.5492,0.95716 1.8906,0.06836 l -1.039,2.774 z m -10.83,1.8398 h 0.68164 l 0.24219,0.64844 C 15.59733,26.10848 15.23054,25.85103 14.8184,25.8459 Z"
         style="color:#000000;text-indent:0;text-decoration:none;text-decoration-line:none;text-decoration-style:solid;text-decoration-color:#000000;text-transform:none;white-space:normal;opacity:0.15;isolation:auto;mix-blend-mode:normal;solid-color:#000000;fill-rule:evenodd;color-rendering:auto;image-rendering:auto;shape-rendering:auto"
         id="path4273"
         inkscape:connector-curvature="0" />
      <path
         d="m 23.48,12.834 c -0.21859,0.004 -0.40924,0.14956 -0.4707,0.35938 l -4.6816,15.92 -1.666,-4.4434 C 16.58836,24.47472 16.40153,24.3455 16.19295,24.34576 h -10.193 -1 v 3 h 1 8.4609 l 3.6855,9.8301 c 0.16778,0.45219 0.81535,0.4282 0.94922,-0.03516 l 4.4199,-15.025 2.4004,8.0039 c 0.13784,0.4587 0.77949,0.47987 0.94726,0.03125 l 2.6816,-7.1523 0.8125,2.0332 c 0.07598,0.19008 0.26014,0.31466 0.46484,0.31445 h 11.178 1 v -3 h -1 -9.4844 l -2.5801,-6.4531 c -0.16872,-0.426 -0.77386,-0.41965 -0.93359,0.0098 l -2.3438,6.252 -2.6895,-8.9648 c -0.063,-0.215 -0.263,-0.36 -0.487,-0.356 z m 0.01563,2.2559 2.6309,8.7734 c 0.13784,0.4587 0.7795,0.47987 0.94727,0.03125 l 2.4121,-6.4316 2.2266,5.5684 c 0.07598,0.19008 0.26014,0.31466 0.46484,0.31445 h 9.8223 0.5 v 1 h -0.5 -10.84 l -1.166,-2.918 c -0.16872,-0.426 -0.77386,-0.41965 -0.93359,0.0098 l -2.6133,6.9707 -2.459,-8.1953 c -0.14326,-0.47696 -0.81961,-0.47421 -0.95898,0.0039 l -4.47,15.206 -3.284,-8.752 C 15.20143,26.47564 15.0146,26.34642 14.80602,26.34668 h -8.8066 -0.5 v -1 h 0.5 9.8477 l 2.0684,5.5234 c 0.16779,0.45219 0.81534,0.4282 0.94922,-0.03516 l 4.6309,-15.744 z"
         style="color:#000000;text-indent:0;text-decoration:none;text-decoration-line:none;text-decoration-style:solid;text-decoration-color:#000000;text-transform:none;white-space:normal;opacity:0.15;isolation:auto;mix-blend-mode:normal;solid-color:#000000;fill-rule:evenodd;color-rendering:auto;image-rendering:auto;shape-rendering:auto"
         id="path4275"
         inkscape:connector-curvature="0" />
      <path
         d="m 23.49,13.334 -5.1055,17.359 -2.1914,-5.8477 h -10.193 -1 v 2 h 1 8.8066 l 3.808,10.155 4.8945,-16.643 2.8848,9.6172 3.1348,-8.3613 1.293,3.2324 h 11.178 1 v -2 h -1 -9.8223 l -2.707,-6.7676 -2.8652,7.6406 -3.1152,-10.385 z"
         style="color:#000000;text-indent:0;text-decoration:none;text-decoration-line:none;text-decoration-style:solid;text-decoration-color:#000000;text-transform:none;white-space:normal;isolation:auto;mix-blend-mode:normal;solid-color:#000000;fill:#ffffff;fill-rule:evenodd;color-rendering:auto;image-rendering:auto;shape-rendering:auto"
         id="path4255"
         inkscape:connector-curvature="0" />
    </g>
  </g>
</svg>
