<?xml version="1.0" encoding="UTF-8" standalone="no"?>
<!-- Generator: flash2svg, http://dissentgraphics.com/tools/flash2svg -->

<svg
   xmlns:dc="http://purl.org/dc/elements/1.1/"
   xmlns:cc="http://creativecommons.org/ns#"
   xmlns:rdf="http://www.w3.org/1999/02/22-rdf-syntax-ns#"
   xmlns:svg="http://www.w3.org/2000/svg"
   xmlns="http://www.w3.org/2000/svg"
   xmlns:xlink="http://www.w3.org/1999/xlink"
   xmlns:sodipodi="http://sodipodi.sourceforge.net/DTD/sodipodi-0.dtd"
   xmlns:inkscape="http://www.inkscape.org/namespaces/inkscape"
   id="Calculator"
   image-rendering="optimizeSpeed"
   version="1.1"
   style="background-color:#FFFFFF"
   x="0px"
   y="0px"
   width="1024px"
   height="1024px"
   viewBox="0 0 1024 1024"
   enable-background="new 0 0 1024 1024"
   sodipodi:docname="accessories-calculator.svg"
   inkscape:export-filename="/home/unc/OSX/calculator-app.png"
   inkscape:export-xdpi="4.5"
   inkscape:export-ydpi="4.5"
   inkscape:version="0.92.2 (5c3e80d, 2017-08-06)">
  <metadata
     id="metadata33">
    <rdf:RDF>
      <cc:Work
         rdf:about="">
        <dc:format>image/svg+xml</dc:format>
        <dc:type
           rdf:resource="http://purl.org/dc/dcmitype/StillImage" />
        <dc:title />
      </cc:Work>
    </rdf:RDF>
  </metadata>
  <sodipodi:namedview
     pagecolor="#ffffff"
     bordercolor="#666666"
     borderopacity="1"
     objecttolerance="10"
     gridtolerance="10"
     guidetolerance="10"
     inkscape:pageopacity="0"
     inkscape:pageshadow="2"
     inkscape:window-width="1440"
     inkscape:window-height="849"
     id="namedview31"
     showgrid="true"
     inkscape:pagecheckerboard="true"
     inkscape:zoom="0.61914062"
     inkscape:cx="485.8299"
     inkscape:cy="512"
     inkscape:window-x="0"
     inkscape:window-y="25"
     inkscape:window-maximized="1"
     inkscape:current-layer="Calculator">
    <inkscape:grid
       type="xygrid"
       id="grid845" />
  </sodipodi:namedview>
  <defs
     transform="matrix(1 0 0 1 0 0) "
     id="defs2">
    <linearGradient
       id="linearGradient840"
       inkscape:collect="always">
      <stop
         id="stop835"
         offset="0"
         style="stop-color:#ffffff;stop-opacity:1" />
      <stop
         id="stop838"
         offset="1"
         style="stop-color:#d7d7d7;stop-opacity:1" />
    </linearGradient>
    <linearGradient
       inkscape:collect="always"
       id="linearGradient851">
      <stop
         style="stop-color:#fec589;stop-opacity:1"
         offset="0"
         id="stop847" />
      <stop
         style="stop-color:#f34f17;stop-opacity:1"
         offset="1"
         id="stop849" />
    </linearGradient>
    <linearGradient
       inkscape:collect="always"
       xlink:href="#linearGradient840"
       id="linearGradient843"
       x1="520"
       y1="4"
       x2="520.03137"
       y2="1026.0078"
       gradientUnits="userSpaceOnUse" />
    <linearGradient
       inkscape:collect="always"
       xlink:href="#linearGradient851"
       id="linearGradient853"
       x1="520"
       y1="4"
       x2="520.31714"
       y2="1484.8115"
       gradientUnits="userSpaceOnUse" />
    <linearGradient
       inkscape:collect="always"
       xlink:href="#grd4"
       id="linearGradient899"
       gradientUnits="userSpaceOnUse"
       x1="520.31714"
       y1="-118.41902"
       x2="520"
       y2="1024" />
    <linearGradient
       inkscape:collect="always"
       xlink:href="#linearGradient851"
       id="linearGradient901"
       gradientUnits="userSpaceOnUse"
       x1="520"
       y1="4"
       x2="520"
       y2="1024" />
    <linearGradient
       y2="122.126"
       x2="465.85699"
       y1="315.87399"
       x1="659.604"
       gradientUnits="userSpaceOnUse"
       id="grd5">
      <stop
         id="stop27"
         stop-color="#3022ad"
         offset="0" />
      <stop
         id="stop29"
         stop-color="#c86dd7"
         offset="1" />
    </linearGradient>
    <clipPath
       id="cp2"
       clipPathUnits="userSpaceOnUse">
      <path
         id="path32"
         d="m 541.99,150.5 v 0 c -13.75,0 -20.63,0 -28.03,2.34 -8.08,2.94 -14.45,9.31 -17.39,17.39 -2.34,7.4 -2.34,14.28 -2.34,28.03 v 41.47 c 0,13.75 0,20.63 2.34,28.03 2.94,8.08 9.31,14.45 17.39,17.39 7.4,2.34 14.28,2.34 28.03,2.34 h 41.47 c 13.75,0 20.63,0 28.03,-2.34 8.08,-2.94 14.45,-9.31 17.39,-17.39 2.34,-7.4 2.34,-14.28 2.34,-28.03 v -41.47 c 0,-13.75 0,-20.63 -2.34,-28.03 -2.94,-8.08 -9.31,-14.45 -17.39,-17.39 -7.4,-2.34 -14.28,-2.34 -28.03,-2.34 h -41.47"
         inkscape:connector-curvature="0" />
    </clipPath>
    <linearGradient
       id="grd4"
       gradientUnits="userSpaceOnUse"
       x1="334.948"
       y1="284.12601"
       x2="141.201"
       y2="477.87399">
      <stop
         offset="0"
         stop-color="#fad961"
         id="stop22" />
      <stop
         offset="1"
         stop-color="#f66b1c"
         id="stop24" />
    </linearGradient>
    <linearGradient
       inkscape:collect="always"
       xlink:href="#linearGradient851"
       id="linearGradient952"
       gradientUnits="userSpaceOnUse"
       x1="620.5191"
       y1="422.6713"
       x2="-662.06543"
       y2="1144.1251" />
  </defs>
  <g
     id="shadow"
     transform="matrix(0.99609375,0,0,0.99609375,2,2)">
    <g
       id="shape">
      <path
         id="path"
         d="m 986.739,315.98644 q -9.3288,-22.61695 -21.0441,-44.31186 c -4.3932,-8.18983 -9.0576,-16.32543 -13.9932,-24.29831 C 930.49492,212.98983 904.62373,180.50169 874.08814,149.9661 774.12881,50.00678 653.39661,0 512,0 370.60339,0 249.92542,50.00678 149.9661,149.9661 50.00678,249.92542 0,370.60339 0,512 0,653.39661 50.00678,774.12881 149.9661,874.08814 249.92542,974.04746 370.60339,1024 512,1024 653.39661,1024 774.12881,974.04746 874.08814,874.08814 929.13898,818.98305 969.0576,757.58644 993.7898,689.95254 1013.9119,634.79322 1024,575.51186 1024,512 c 0,-48.70508 -5.9119,-94.96949 -17.7898,-138.79322 -1.356,-4.93559 -2.7661,-9.87119 -4.2305,-14.75254 -4.4475,-14.42712 -9.5458,-28.58305 -15.2407,-42.4678 z"
         style="fill:url(#linearGradient843);fill-opacity:1;stroke-width:1.08474576"
         inkscape:connector-curvature="0" />
    </g>
  </g>
  <g
     id="circle"
     style="fill:url(#linearGradient853);fill-opacity:1"
     transform="matrix(0.99798494,0,0,0.99798494,0.73130767,2.180401)">
    <g
       id="shape2"
       style="fill:url(#linearGradient901);fill-opacity:1">
      <path
         id="path1"
         d="m 983.25,511.35 c 0,-7.95 -0.2,-15.85 -0.5,-23.55 Q 974.75,307.65 845.2,177.95 C 753.15,85.95 642,39.9 511.8,39.9 c -130.15,0 -241.35,46.05 -333.35,138.05 -92.05,92 -138.1,203.2 -138.1,333.4 0,130.15 46.05,241.35 138.1,333.35 86.15,86.3 189.35,132.15 309.15,137.6 8,0.3 16,0.5 24.2,0.5 130.2,0 241.35,-46.1 333.4,-138.1 92,-92 138.05,-203.2 138.05,-333.35 z"
         style="fill:url(#linearGradient899);fill-opacity:1.0"
         inkscape:connector-curvature="0" />
    </g>
  </g>
  <g
     transform="matrix(0.99798494,0,0,0.99798494,0.73130767,2.180401)"
     style="fill:url(#linearGradient952);fill-opacity:1;opacity:0.75"
     id="g949">
    <g
       style="fill:url(#linearGradient952);fill-opacity:1"
       id="g947">
      <path
         inkscape:connector-curvature="0"
         style="fill:url(#linearGradient952);fill-opacity:1"
         d="m 983.25,511.35 c 0,-7.95 -0.2,-15.85 -0.5,-23.55 Q 974.75,307.65 845.2,177.95 C 753.15,85.95 642,39.9 511.8,39.9 c -130.15,0 -241.35,46.05 -333.35,138.05 -92.05,92 -138.1,203.2 -138.1,333.4 0,130.15 46.05,241.35 138.1,333.35 86.15,86.3 189.35,132.15 309.15,137.6 8,0.3 16,0.5 24.2,0.5 130.2,0 241.35,-46.1 333.4,-138.1 92,-92 138.05,-203.2 138.05,-333.35 z"
         id="path945" />
    </g>
  </g>
  <g
     id="g31"
     transform="matrix(20.37037,0,0,20.37037,11.358885,16.05318)">
    <path
       style="fill:#000000;fill-opacity:0.1"
       d="M 12,11.999999 H 38 V 38 H 12 Z"
       id="path23"
       inkscape:connector-curvature="0" />
    <path
       d="M 11,11 H 37 V 37 H 11 Z"
       style="fill:#303030;fill-opacity:1"
       id="path25"
       inkscape:connector-curvature="0" />
    <path
       d="m 21,16 v -2 h -6 v 2 h 2 v 7 h -2 v 2 h 6 v -2 h -2 v -7 m 6.592593,8.982506 C 24.384801,24.844558 23.534205,24.056402 22.7734,23.361681 l 1.214437,-1.371564 c 0.398879,0.414051 0.999497,0.909908 1.623132,0.992808 0.623635,0.0829 1.425597,0.01446 1.907314,-0.39433 C 28,22.179804 28,21.624847 28,20.96281 V 14 h 2 l -0.0056,7.08318 c 0.0056,1.408853 -0.529054,2.359009 -1.023148,2.888889 -0.790202,0.808824 -1.813666,0.890863 -2.768519,1.023148"
       style="fill:#f9f9f9;fill-opacity:1"
       id="path27"
       inkscape:connector-curvature="0" />
    <path
       style="opacity:1;fill:#f9f9f9;fill-opacity:1"
       d="m 13,32 h 10 v 2 H 13 Z"
       id="path29"
       inkscape:connector-curvature="0" />
  </g>
</svg>
