<?xml version="1.0" encoding="UTF-8" standalone="no"?>
<!-- Created with Inkscape (http://www.inkscape.org/) -->

<svg
   xmlns:dc="http://purl.org/dc/elements/1.1/"
   xmlns:cc="http://creativecommons.org/ns#"
   xmlns:rdf="http://www.w3.org/1999/02/22-rdf-syntax-ns#"
   xmlns:svg="http://www.w3.org/2000/svg"
   xmlns="http://www.w3.org/2000/svg"
   xmlns:xlink="http://www.w3.org/1999/xlink"
   xmlns:sodipodi="http://sodipodi.sourceforge.net/DTD/sodipodi-0.dtd"
   xmlns:inkscape="http://www.inkscape.org/namespaces/inkscape"
   id="svg4061"
   height="48"
   width="48"
   version="1.1"
   inkscape:version="0.92.2 (unknown)"
   sodipodi:docname="java.svg">
  <sodipodi:namedview
     pagecolor="#ffffff"
     bordercolor="#666666"
     borderopacity="1"
     objecttolerance="10"
     gridtolerance="10"
     guidetolerance="10"
     inkscape:pageopacity="0"
     inkscape:pageshadow="2"
     inkscape:window-width="1378"
     inkscape:window-height="894"
     id="namedview40"
     showgrid="false"
     inkscape:zoom="9.8333333"
     inkscape:cx="4.8144515"
     inkscape:cy="30.437427"
     inkscape:window-x="873"
     inkscape:window-y="129"
     inkscape:window-maximized="0"
     inkscape:current-layer="g4206"
     showguides="false" />
  <defs
     id="defs4063">
    <linearGradient
       id="linearGradient3026"
       y2="40.495998"
       gradientUnits="userSpaceOnUse"
       x2="71.204002"
       gradientTransform="matrix(1.617,0,0,1.617,-92.707,-21.06)"
       y1="15.369"
       x1="71.204002"
       spreadMethod="pad">
      <stop
         id="stop4808-4"
         stop-color="#fff"
         offset="0" />
      <stop
         id="stop4810-0"
         stop-color="#fff"
         stop-opacity=".23529"
         offset=".42448" />
      <stop
         id="stop4812-8"
         stop-color="#fff"
         stop-opacity=".15686"
         offset=".82090" />
      <stop
         id="stop4814-0"
         stop-color="#fff"
         stop-opacity=".39216"
         offset="1" />
    </linearGradient>
    <radialGradient
       id="radialGradient3029"
       fx="4.459"
       fy="8.5089"
       gradientUnits="userSpaceOnUse"
       cy="8.6258"
       cx="15.026"
       gradientTransform="matrix(-3.4973e-8 1.8855 -1.7764 -5.4723e-8 39.14 -7.9932)"
       r="20">
      <stop
         id="stop4170"
         stop-color="#c24251"
         offset="0"
         style="stop-color:#3471c0;stop-opacity:1" />
      <stop
         id="stop4172"
         stop-color="#c24251"
         offset="0.44622838" />
      <stop
         id="stop4174"
         stop-color="#a63643"
         offset="0.75738358" />
      <stop
         id="stop4176"
         stop-color="#a63643"
         offset="1"
         style="stop-color:#e9232e;stop-opacity:1" />
    </radialGradient>
    <radialGradient
       id="radialGradient3032"
       gradientUnits="userSpaceOnUse"
       cy="3.99"
       cx="23.896"
       gradientTransform="matrix(0,2.8885,-3.8128,0,38.912013,-65.440641)"
       r="20.397">
      <stop
         id="stop3244-9-33-7-0-9"
         stop-color="#fff"
         offset="0" />
      <stop
         id="stop3246-3-5-0-8-5"
         stop-color="#ddd"
         offset=".26238" />
      <stop
         id="stop3248-1-7-8-8-1"
         stop-color="#abacae"
         offset=".66094" />
      <stop
         id="stop3250-9-3-0-5-1"
         stop-color="#89898b"
         offset="1" />
    </radialGradient>
    <radialGradient
       id="radialGradient3035"
       gradientUnits="userSpaceOnUse"
       cy="186.17"
       cx="99.157"
       gradientTransform="matrix(0.27083,0,0,0.087623,-2.8550995,26.188334)"
       r="62.769">
      <stop
         id="stop3822-2-6-3"
         stop-color="#3d3d3d"
         offset="0" />
      <stop
         id="stop3864-8-7-7"
         stop-color="#686868"
         stop-opacity=".49804"
         offset=".5" />
      <stop
         id="stop3824-1-2-5"
         stop-color="#686868"
         stop-opacity="0"
         offset="1" />
    </radialGradient>
    <linearGradient
       id="linearGradient4433"
       y2="25.611"
       gradientUnits="userSpaceOnUse"
       x2="23.078"
       gradientTransform="matrix(1 0 0 1.0521 0 -.90547)"
       y1="13.035"
       x1="22.759">
      <stop
         id="stop6305-1-0-2"
         stop-color="#fff"
         offset="0" />
      <stop
         id="stop6307-5-0-6"
         stop-color="#fff"
         stop-opacity="0"
         offset="1" />
    </linearGradient>
    <linearGradient
       id="linearGradient4829">
      <stop
         style="stop-color:#f4fbfc;stop-opacity:1;"
         offset="0"
         id="stop4831" />
      <stop
         style="stop-color:#d6d6d6;stop-opacity:1;"
         offset="1"
         id="stop4833" />
    </linearGradient>
    <linearGradient
       inkscape:collect="always"
       xlink:href="#radialGradient3029"
       id="linearGradient3864"
       x1="7.9832973"
       y1="36.304985"
       x2="37.677719"
       y2="9.5592213"
       gradientUnits="userSpaceOnUse"
       gradientTransform="matrix(1.004878,0,0,1.004878,-0.32021615,0.49285003)" />
    <linearGradient
       inkscape:collect="always"
       xlink:href="#linearGradient4829"
       id="linearGradient3890"
       x1="2.5922329"
       y1="23.999899"
       x2="45.407768"
       y2="23.999899"
       gradientUnits="userSpaceOnUse"
       gradientTransform="matrix(0.98095238,0,0,0.98095238,0.15615535,0.96660261)" />
  </defs>
  <metadata
     id="metadata4066">
    <rdf:RDF>
      <cc:Work
         rdf:about="">
        <dc:format>image/svg+xml</dc:format>
        <dc:type
           rdf:resource="http://purl.org/dc/dcmitype/StillImage" />
        <dc:title />
      </cc:Work>
    </rdf:RDF>
  </metadata>
  <g
     id="g4206">
    <path
       id="path3818-0-5"
       d="m 41,42.501334 a 17,5.5 0 0 1 -33.9999995,0 17,5.5 0 1 1 33.9999995,0 z"
       inkscape:connector-curvature="0"
       style="fill:url(#radialGradient3035)" />
    <path
       id="path2555-7-2"
       style="color:#000000;fill:url(#radialGradient3032);stroke:url(#linearGradient3890);stroke-width:0;stroke-miterlimit:4;stroke-dasharray:none;stroke-opacity:1"
       d="m 23.699013,4.0093601 c -11.311,0 -20.5000007,9.1889999 -20.5000007,20.4999999 0,11.311 9.1890007,20.5 20.5000007,20.5 11.310999,0 20.499999,-9.189 20.499999,-20.5 0,-11.311 -9.189,-20.4999999 -20.499999,-20.4999999 z"
       inkscape:connector-curvature="0" />
    <path
       id="path4176"
       style="color:#000000;opacity:1;fill:none;stroke:url(#linearGradient3864);stroke-width:2.04878068;stroke-linecap:round;stroke-linejoin:round;stroke-miterlimit:4;stroke-dasharray:none;stroke-opacity:0.98156684"
       d="m 43.772467,24.60982 c 0,11.032683 -8.942928,19.97561 -19.97561,19.97561 -11.032683,0 -19.9756097,-8.942927 -19.9756097,-19.97561 0,-11.032682 8.9429267,-19.9756087 19.9756097,-19.9756087 11.032682,0 19.97561,8.9429267 19.97561,19.9756087 z"
       inkscape:connector-curvature="0" />
    <g
       id="g4317"
       transform="matrix(1.0002,0,0,1.0004,-1.0018,-0.0050486)"
       style="fill:none;stroke:#000000;stroke-linecap:round;stroke-linejoin:round" />
    <g
       id="g10"
       transform="matrix(0.13816762,0,0,-0.13816762,-12.088842,72.88885)"
       inkscape:transform-center-x="6.3175748"
       inkscape:transform-center-y="0.007546732">
      <path
         style="fill:#e9232e"
         inkscape:connector-curvature="0"
         id="path156"
         d="m 274.21,470.8 c 3.625,-4.128 4.822,-10.033 3.781,-15.358 -1.121,-5.981 -4.439,-11.268 -8.336,-15.822 -3.125,-3.666 -6.715,-6.907 -10.457,-9.917 -4.361,-3.512 -8.645,-7.293 -11.384,-12.233 -2.316,-4.013 -2.856,-8.952 -1.274,-13.313 2.585,-7.486 8.606,-13.043 11.886,-20.105 -3.628,3.203 -7.178,6.522 -10.497,10.033 -3.473,3.705 -6.753,7.641 -8.914,12.272 -1.466,3.242 -2.122,7.023 -1.003,10.457 1.119,3.512 3.627,6.329 6.136,8.953 6.984,6.985 15.589,12.117 22.419,19.217 3.784,3.898 6.909,8.567 7.989,13.931 0.888,3.936 0.463,7.988 -0.346,11.885" />
      <path
         style="fill:none;stroke:#e9232e;stroke-width:0.09375;stroke-miterlimit:10"
         inkscape:connector-curvature="0"
         id="path158"
         d="m 274.21,470.8 c 3.625,-4.128 4.822,-10.033 3.781,-15.358 -1.121,-5.981 -4.439,-11.268 -8.336,-15.822 -3.125,-3.666 -6.715,-6.907 -10.457,-9.917 -4.361,-3.512 -8.645,-7.293 -11.384,-12.233 -2.316,-4.013 -2.856,-8.952 -1.274,-13.313 2.585,-7.486 8.606,-13.043 11.886,-20.105 -3.628,3.203 -7.178,6.522 -10.497,10.033 -3.473,3.705 -6.753,7.641 -8.914,12.272 -1.466,3.242 -2.122,7.023 -1.003,10.457 1.119,3.512 3.627,6.329 6.136,8.953 6.984,6.985 15.589,12.117 22.419,19.217 3.784,3.898 6.909,8.567 7.989,13.931 0.888,3.936 0.463,7.988 -0.346,11.885 z"
         stroke-miterlimit="10" />
      <path
         style="fill:#e9232e"
         inkscape:connector-curvature="0"
         id="path160"
         d="m 268.5,426.85 c 7.486,5.519 16.246,9.03 25.121,11.577 -7.021,-4.476 -14.353,-8.566 -20.412,-14.316 -2.201,-2.122 -4.283,-4.554 -5.248,-7.525 -0.734,-2.2 -0.426,-4.631 0.463,-6.715 1.621,-3.704 4.359,-6.714 6.443,-10.11 1.776,-2.894 2.084,-6.599 0.735,-9.725 -2.047,-4.592 -6.059,-7.949 -10.227,-10.611 -0.541,-0.309 -1.004,-0.888 -1.66,-0.965 2.779,2.508 4.939,6.058 4.863,9.879 -0.078,2.855 -1.66,5.363 -3.512,7.409 -3.82,4.553 -7.023,10.342 -6.367,16.477 0.656,6.136 5.055,11.075 9.801,14.625" />
      <path
         style="fill:none;stroke:#e9232e;stroke-width:0.09375;stroke-miterlimit:10"
         inkscape:connector-curvature="0"
         id="path162"
         d="m 268.5,426.85 c 7.486,5.519 16.246,9.03 25.121,11.577 -7.021,-4.476 -14.353,-8.566 -20.412,-14.316 -2.201,-2.122 -4.283,-4.554 -5.248,-7.525 -0.734,-2.2 -0.426,-4.631 0.463,-6.715 1.621,-3.704 4.359,-6.714 6.443,-10.11 1.776,-2.894 2.084,-6.599 0.735,-9.725 -2.047,-4.592 -6.059,-7.949 -10.227,-10.611 -0.541,-0.309 -1.004,-0.888 -1.66,-0.965 2.779,2.508 4.939,6.058 4.863,9.879 -0.078,2.855 -1.66,5.363 -3.512,7.409 -3.82,4.553 -7.023,10.342 -6.367,16.477 0.656,6.136 5.055,11.075 9.801,14.625 z"
         stroke-miterlimit="10" />
      <path
         style="fill:#3471c0"
         inkscape:connector-curvature="0"
         id="path164"
         d="m 295.05,382.24 c 1.619,1.968 4.205,2.47 6.558,2.779 4.092,0.54 8.452,-0.502 11.539,-3.319 2.547,-2.276 3.975,-5.827 3.434,-9.261 -0.578,-3.975 -3.242,-7.294 -6.25,-9.802 -5.441,-4.36 -12.156,-6.907 -18.871,-8.605 0.387,0.425 0.811,0.81 1.312,1.119 5.094,2.74 10.149,5.942 13.893,10.419 2.275,2.778 4.051,6.406 3.318,10.072 -0.771,4.244 -4.9,7.332 -9.107,7.563 -2.008,0.193 -3.897,-0.579 -5.826,-0.965" />
      <path
         style="fill:none;stroke:#3471c0;stroke-width:0.09375;stroke-miterlimit:10"
         inkscape:connector-curvature="0"
         id="path166"
         d="m 295.05,382.24 c 1.619,1.968 4.205,2.47 6.558,2.779 4.092,0.54 8.452,-0.502 11.539,-3.319 2.547,-2.276 3.975,-5.827 3.434,-9.261 -0.578,-3.975 -3.242,-7.294 -6.25,-9.802 -5.441,-4.36 -12.156,-6.907 -18.871,-8.605 0.387,0.425 0.811,0.81 1.312,1.119 5.094,2.74 10.149,5.942 13.893,10.419 2.275,2.778 4.051,6.406 3.318,10.072 -0.771,4.244 -4.9,7.332 -9.107,7.563 -2.008,0.193 -3.897,-0.579 -5.826,-0.965 z"
         stroke-miterlimit="10" />
      <path
         style="fill:#3471c0"
         inkscape:connector-curvature="0"
         id="path168"
         d="m 217.48,378.73 c 7.1,3.048 14.818,5.016 22.574,4.901 -4.515,-1.312 -9.145,-2.431 -13.39,-4.438 -1.003,-0.54 -2.161,-1.042 -2.74,-2.084 -0.308,-0.81 0.54,-1.35 1.157,-1.62 2.624,-1.081 5.519,-1.236 8.336,-1.506 9.878,-0.656 19.796,-0.27 29.638,0.348 9.722,0.617 19.371,1.929 28.978,3.473 -2.121,-1.004 -4.283,-2.007 -6.25,-3.28 -1.004,-0.695 -2.238,-0.888 -3.357,-1.158 -11.809,-2.624 -23.927,-3.435 -35.966,-3.627 -4.67,-0.039 -9.299,0.038 -13.93,0.347 -5.171,0.347 -10.381,0.733 -15.436,2.084 -1.467,0.424 -3.01,0.887 -4.168,1.929 -0.579,0.463 -0.579,1.39 -0.077,1.929 1.273,1.313 3.049,1.93 4.631,2.702" />
      <path
         style="fill:none;stroke:#3471c0;stroke-width:0.09375;stroke-miterlimit:10"
         inkscape:connector-curvature="0"
         id="path170"
         d="m 217.48,378.73 c 7.1,3.048 14.818,5.016 22.574,4.901 -4.515,-1.312 -9.145,-2.431 -13.39,-4.438 -1.003,-0.54 -2.161,-1.042 -2.74,-2.084 -0.308,-0.81 0.54,-1.35 1.157,-1.62 2.624,-1.081 5.519,-1.236 8.336,-1.506 9.878,-0.656 19.796,-0.27 29.638,0.348 9.722,0.617 19.371,1.929 28.978,3.473 -2.121,-1.004 -4.283,-2.007 -6.25,-3.28 -1.004,-0.695 -2.238,-0.888 -3.357,-1.158 -11.809,-2.624 -23.927,-3.435 -35.966,-3.627 -4.67,-0.039 -9.299,0.038 -13.93,0.347 -5.171,0.347 -10.381,0.733 -15.436,2.084 -1.467,0.424 -3.01,0.887 -4.168,1.929 -0.579,0.463 -0.579,1.39 -0.077,1.929 1.273,1.313 3.049,1.93 4.631,2.702 z"
         stroke-miterlimit="10" />
      <path
         style="fill:#3471c0"
         inkscape:connector-curvature="0"
         id="path172"
         d="m 226.59,362.25 c 2.007,1.582 4.4,2.47 6.792,3.319 -0.771,-0.926 -1.852,-1.814 -1.929,-3.087 -0.038,-0.81 0.618,-1.428 1.273,-1.814 1.273,-0.656 2.701,-0.888 4.13,-1.08 7.408,-0.772 14.894,-1.197 22.381,-0.695 6.829,0.347 13.622,1.467 20.376,2.663 1.852,-1.737 4.051,-2.933 6.367,-3.975 -8.144,-2.392 -16.517,-3.782 -24.929,-4.438 -7.949,-0.54 -16.014,-0.502 -23.926,0.773 -3.126,0.578 -6.328,1.234 -9.183,2.7 -1.158,0.618 -2.47,1.428 -2.818,2.779 -0.231,1.157 0.618,2.199 1.466,2.855" />
      <path
         style="fill:none;stroke:#3471c0;stroke-width:0.09375;stroke-miterlimit:10"
         inkscape:connector-curvature="0"
         id="path174"
         d="m 226.59,362.25 c 2.007,1.582 4.4,2.47 6.792,3.319 -0.771,-0.926 -1.852,-1.814 -1.929,-3.087 -0.038,-0.81 0.618,-1.428 1.273,-1.814 1.273,-0.656 2.701,-0.888 4.13,-1.08 7.408,-0.772 14.894,-1.197 22.381,-0.695 6.829,0.347 13.622,1.467 20.376,2.663 1.852,-1.737 4.051,-2.933 6.367,-3.975 -8.144,-2.392 -16.517,-3.782 -24.929,-4.438 -7.949,-0.54 -16.014,-0.502 -23.926,0.773 -3.126,0.578 -6.328,1.234 -9.183,2.7 -1.158,0.618 -2.47,1.428 -2.818,2.779 -0.231,1.157 0.618,2.199 1.466,2.855 z"
         stroke-miterlimit="10" />
      <path
         style="fill:#3471c0"
         inkscape:connector-curvature="0"
         id="path176"
         d="m 231.07,345.43 c 1.775,1.428 3.974,2.162 6.136,2.779 -0.695,-0.655 -1.93,-1.466 -1.389,-2.585 1.042,-1.352 2.971,-1.506 4.515,-1.854 6.521,-0.809 13.12,-1.349 19.642,-0.847 4.939,0.308 9.8,1.195 14.625,2.045 2.777,-1.622 5.672,-3.01 8.642,-4.246 -4.552,-2.044 -9.453,-3.356 -14.353,-4.283 -8.258,-1.466 -16.787,-1.659 -25.084,-0.347 -3.666,0.656 -7.409,1.504 -10.727,3.319 -1.274,0.732 -2.624,1.582 -3.164,3.01 -0.425,1.119 0.269,2.314 1.157,3.009" />
      <path
         style="fill:none;stroke:#3471c0;stroke-width:0.09375;stroke-miterlimit:10"
         inkscape:connector-curvature="0"
         id="path178"
         d="m 231.07,345.43 c 1.775,1.428 3.974,2.162 6.136,2.779 -0.695,-0.655 -1.93,-1.466 -1.389,-2.585 1.042,-1.352 2.971,-1.506 4.515,-1.854 6.521,-0.809 13.12,-1.349 19.642,-0.847 4.939,0.308 9.8,1.195 14.625,2.045 2.777,-1.622 5.672,-3.01 8.642,-4.246 -4.552,-2.044 -9.453,-3.356 -14.353,-4.283 -8.258,-1.466 -16.787,-1.659 -25.084,-0.347 -3.666,0.656 -7.409,1.504 -10.727,3.319 -1.274,0.732 -2.624,1.582 -3.164,3.01 -0.425,1.119 0.269,2.314 1.157,3.009 z"
         stroke-miterlimit="10" />
      <path
         style="fill:#3471c0"
         inkscape:connector-curvature="0"
         id="path180"
         d="m 209.65,334.51 c 3.551,1.196 7.217,2.161 10.96,2.276 1.505,0.039 3.048,-0.038 4.36,-0.81 -4.476,-0.27 -8.953,-1.389 -12.966,-3.434 -0.887,-0.502 -1.891,-1.081 -2.238,-2.123 0,-1.196 1.351,-1.582 2.238,-1.967 5.596,-2.084 11.577,-2.74 17.443,-3.358 17.48,-1.466 35.076,-1.081 52.557,0.502 6.599,0.733 13.236,1.466 19.642,3.28 2.045,0.695 4.36,1.388 5.711,3.203 0.811,1.08 0.272,2.431 -0.539,3.357 1.311,-0.734 3.164,-1.66 2.895,-3.435 -0.502,-1.852 -2.395,-2.817 -3.938,-3.704 -4.939,-2.509 -10.38,-3.783 -15.783,-4.901 -15.705,-3.087 -31.797,-3.782 -47.773,-3.319 -12.04,0.426 -24.079,1.583 -35.965,3.627 -2.122,0.502 -4.514,0.928 -6.058,2.586 -1.003,1.158 -0.116,2.779 0.848,3.627 2.432,2.238 5.558,3.473 8.606,4.593" />
      <path
         style="fill:none;stroke:#3471c0;stroke-width:0.09375;stroke-miterlimit:10"
         inkscape:connector-curvature="0"
         id="path182"
         d="m 209.65,334.51 c 3.551,1.196 7.217,2.161 10.96,2.276 1.505,0.039 3.048,-0.038 4.36,-0.81 -4.476,-0.27 -8.953,-1.389 -12.966,-3.434 -0.887,-0.502 -1.891,-1.081 -2.238,-2.123 0,-1.196 1.351,-1.582 2.238,-1.967 5.596,-2.084 11.577,-2.74 17.443,-3.358 17.48,-1.466 35.076,-1.081 52.557,0.502 6.599,0.733 13.236,1.466 19.642,3.28 2.045,0.695 4.36,1.388 5.711,3.203 0.811,1.08 0.272,2.431 -0.539,3.357 1.311,-0.734 3.164,-1.66 2.895,-3.435 -0.502,-1.852 -2.395,-2.817 -3.938,-3.704 -4.939,-2.509 -10.38,-3.783 -15.783,-4.901 -15.705,-3.087 -31.797,-3.782 -47.773,-3.319 -12.04,0.426 -24.079,1.583 -35.965,3.627 -2.122,0.502 -4.514,0.928 -6.058,2.586 -1.003,1.158 -0.116,2.779 0.848,3.627 2.432,2.238 5.558,3.473 8.606,4.593 z"
         stroke-miterlimit="10" />
      <path
         style="fill:#3471c0"
         inkscape:connector-curvature="0"
         id="path184"
         d="m 305.82,321.31 c 3.899,1.351 8.065,2.779 10.959,5.866 -0.502,-3.357 -3.396,-5.673 -6.252,-7.177 -5.478,-2.857 -11.615,-4.168 -17.71,-5.248 -12.891,-2.046 -25.971,-2.547 -39.054,-2.317 -8.914,0.271 -17.905,0.618 -26.665,2.471 -2.084,0.578 -4.322,0.965 -6.135,2.199 7.794,-1.312 15.706,-1.853 23.617,-2.161 13.004,-0.386 26.047,0.115 38.975,1.737 7.486,1.041 15.01,2.315 22.265,4.63" />
      <path
         style="fill:none;stroke:#3471c0;stroke-width:0.09375;stroke-miterlimit:10"
         inkscape:connector-curvature="0"
         id="path186"
         d="m 305.82,321.31 c 3.899,1.351 8.065,2.779 10.959,5.866 -0.502,-3.357 -3.396,-5.673 -6.252,-7.177 -5.478,-2.857 -11.615,-4.168 -17.71,-5.248 -12.891,-2.046 -25.971,-2.547 -39.054,-2.317 -8.914,0.271 -17.905,0.618 -26.665,2.471 -2.084,0.578 -4.322,0.965 -6.135,2.199 7.794,-1.312 15.706,-1.853 23.617,-2.161 13.004,-0.386 26.047,0.115 38.975,1.737 7.486,1.041 15.01,2.315 22.265,4.63 z"
         stroke-miterlimit="10" />
      <path
         style="fill:#e9232e"
         inkscape:connector-curvature="0"
         id="path188"
         d="m 204.13,264.08 c 0.038,12.657 -0.039,25.314 0.038,38.01 2.624,-0.077 5.248,0 7.872,-0.077 -0.038,-14.163 0,-28.363 -0.038,-42.564 -0.077,-3.975 -0.154,-8.143 -2.084,-11.691 -2.123,-3.784 -5.904,-6.446 -9.917,-7.99 -1.274,1.39 -2.431,2.857 -3.705,4.245 3.242,1.891 6.484,4.592 7.255,8.49 0.734,3.821 0.502,7.717 0.579,11.577" />
      <path
         style="fill:none;stroke:#e9232e;stroke-width:0.09375;stroke-miterlimit:10"
         inkscape:connector-curvature="0"
         id="path190"
         d="m 204.13,264.08 c 0.038,12.657 -0.039,25.314 0.038,38.01 2.624,-0.077 5.248,0 7.872,-0.077 -0.038,-14.163 0,-28.363 -0.038,-42.564 -0.077,-3.975 -0.154,-8.143 -2.084,-11.691 -2.123,-3.784 -5.904,-6.446 -9.917,-7.99 -1.274,1.39 -2.431,2.857 -3.705,4.245 3.242,1.891 6.484,4.592 7.255,8.49 0.734,3.821 0.502,7.717 0.579,11.577 z"
         stroke-miterlimit="10" />
      <path
         style="fill:#e9232e"
         inkscape:connector-curvature="0"
         id="path192"
         d="m 228.91,268.94 c -1.698,-0.539 -3.28,-1.774 -3.743,-3.549 -0.54,-1.968 -0.386,-4.283 0.887,-5.943 1.236,-1.621 3.474,-2.006 5.403,-1.775 2.701,0.309 5.055,1.853 7.139,3.511 0,2.895 -0.039,5.75 0,8.645 -3.242,0 -6.56,0.192 -9.686,-0.889 z m -9.57,17.906 c 5.209,2.239 10.998,3.397 16.67,2.78 2.933,-0.348 5.982,-1.43 7.872,-3.784 1.582,-2.005 2.162,-4.591 2.123,-7.099 v -25.894 h -5.827 c -0.193,1.275 -0.385,2.585 -0.54,3.898 -2.2,-1.737 -4.553,-3.396 -7.294,-4.09 -3.126,-0.811 -6.559,-0.734 -9.608,0.463 -2.355,0.964 -4.206,3.086 -4.862,5.556 -0.965,3.589 -0.463,7.795 2.084,10.69 2.276,2.662 5.711,3.974 9.106,4.592 3.126,0.617 6.329,0.617 9.532,0.617 -0.077,2.432 0.386,5.094 -1.004,7.254 -1.119,1.66 -3.164,2.316 -5.054,2.431 -4.129,0.348 -8.22,-0.694 -12.118,-2.045 -0.385,1.543 -0.733,3.087 -1.08,4.631" />
      <path
         style="fill:none;stroke:#e9232e;stroke-width:0.09375;stroke-miterlimit:10"
         inkscape:connector-curvature="0"
         id="path194"
         d="m 228.91,268.94 c -1.698,-0.539 -3.28,-1.774 -3.743,-3.549 -0.54,-1.968 -0.386,-4.283 0.887,-5.943 1.236,-1.621 3.474,-2.006 5.403,-1.775 2.701,0.309 5.055,1.853 7.139,3.511 0,2.895 -0.039,5.75 0,8.645 -3.242,0 -6.56,0.192 -9.686,-0.889 z m -9.57,17.906 c 5.209,2.239 10.998,3.397 16.67,2.78 2.933,-0.348 5.982,-1.43 7.872,-3.784 1.582,-2.005 2.162,-4.591 2.123,-7.099 v -25.894 h -5.827 c -0.193,1.275 -0.385,2.585 -0.54,3.898 -2.2,-1.737 -4.553,-3.396 -7.294,-4.09 -3.126,-0.811 -6.559,-0.734 -9.608,0.463 -2.355,0.964 -4.206,3.086 -4.862,5.556 -0.965,3.589 -0.463,7.795 2.084,10.69 2.276,2.662 5.711,3.974 9.106,4.592 3.126,0.617 6.329,0.617 9.532,0.617 -0.077,2.432 0.386,5.094 -1.004,7.254 -1.119,1.66 -3.164,2.316 -5.054,2.431 -4.129,0.348 -8.22,-0.694 -12.118,-2.045 -0.385,1.543 -0.733,3.087 -1.08,4.631"
         stroke-miterlimit="10" />
      <path
         style="fill:#e9232e"
         inkscape:connector-curvature="0"
         id="path196"
         d="m 296.63,268.91 c -1.621,-0.54 -3.127,-1.774 -3.629,-3.473 -0.539,-1.967 -0.385,-4.284 0.85,-5.981 1.273,-1.659 3.55,-2.006 5.517,-1.775 2.664,0.386 5.094,1.853 7.102,3.627 -0.078,2.817 -0.039,5.673 -0.039,8.529 -3.28,0 -6.637,0.192 -9.801,-0.927 z m -9.455,17.944 c 5.248,2.239 11.037,3.434 16.748,2.78 2.855,-0.348 5.789,-1.391 7.678,-3.629 1.775,-2.121 2.316,-4.94 2.277,-7.641 -0.039,-8.527 0.039,-17.017 -0.076,-25.545 -1.93,0.076 -3.86,-0.039 -5.789,0.076 -0.194,1.313 -0.348,2.586 -0.578,3.86 -2.702,-2.316 -5.944,-4.207 -9.61,-4.515 -3.357,-0.309 -7.139,0.115 -9.764,2.509 -2.74,2.546 -3.201,6.675 -2.507,10.187 0.656,3.241 3.088,5.904 6.019,7.332 4.592,2.238 9.842,2.354 14.858,2.315 -0.079,2.353 0.347,4.862 -0.85,6.984 -0.926,1.699 -2.895,2.471 -4.746,2.663 -4.283,0.463 -8.566,-0.618 -12.58,-2.007 -0.348,1.543 -0.733,3.087 -1.08,4.631" />
      <path
         style="fill:none;stroke:#e9232e;stroke-width:0.09375;stroke-miterlimit:10"
         inkscape:connector-curvature="0"
         id="path198"
         d="m 296.63,268.91 c -1.621,-0.54 -3.127,-1.774 -3.629,-3.473 -0.539,-1.967 -0.385,-4.284 0.85,-5.981 1.273,-1.659 3.55,-2.006 5.517,-1.775 2.664,0.386 5.094,1.853 7.102,3.627 -0.078,2.817 -0.039,5.673 -0.039,8.529 -3.28,0 -6.637,0.192 -9.801,-0.927 z m -9.455,17.944 c 5.248,2.239 11.037,3.434 16.748,2.78 2.855,-0.348 5.789,-1.391 7.678,-3.629 1.775,-2.121 2.316,-4.94 2.277,-7.641 -0.039,-8.527 0.039,-17.017 -0.076,-25.545 -1.93,0.076 -3.86,-0.039 -5.789,0.076 -0.194,1.313 -0.348,2.586 -0.578,3.86 -2.702,-2.316 -5.944,-4.207 -9.61,-4.515 -3.357,-0.309 -7.139,0.115 -9.764,2.509 -2.74,2.546 -3.201,6.675 -2.507,10.187 0.656,3.241 3.088,5.904 6.019,7.332 4.592,2.238 9.842,2.354 14.858,2.315 -0.079,2.353 0.347,4.862 -0.85,6.984 -0.926,1.699 -2.895,2.471 -4.746,2.663 -4.283,0.463 -8.566,-0.618 -12.58,-2.007 -0.348,1.543 -0.733,3.087 -1.08,4.631"
         stroke-miterlimit="10" />
      <path
         style="fill:#e9232e"
         inkscape:connector-curvature="0"
         id="path200"
         d="m 250.4,289.17 h 8.103 c 1.583,-5.093 3.126,-10.149 4.71,-15.242 0.924,-3.125 2.082,-6.213 2.738,-9.416 0.348,-1.428 0.656,-2.895 1.08,-4.284 3.321,9.377 5.867,19.064 7.18,28.942 h 7.871 c -2.277,-12.502 -5.865,-24.812 -11.268,-36.312 h -9.261 c -3.705,12.117 -7.448,24.195 -11.153,36.312" />
      <path
         style="fill:none;stroke:#e9232e;stroke-width:0.09375;stroke-miterlimit:10"
         inkscape:connector-curvature="0"
         id="path202"
         d="m 250.4,289.17 h 8.103 c 1.583,-5.093 3.126,-10.149 4.71,-15.242 0.924,-3.125 2.082,-6.213 2.738,-9.416 0.348,-1.428 0.656,-2.895 1.08,-4.284 3.321,9.377 5.867,19.064 7.18,28.942 h 7.871 c -2.277,-12.502 -5.865,-24.812 -11.268,-36.312 h -9.261 c -3.705,12.117 -7.448,24.195 -11.153,36.312 z"
         stroke-miterlimit="10" />
      <path
         style="fill:#e9232e"
         inkscape:connector-curvature="0"
         id="path204"
         d="m 315.42,289.87 h -0.947 v 0.343 h 2.308 v -0.343 h -0.953 v -2.777 h -0.408 v 2.777" />
      <path
         style="fill:none;stroke:#e9232e;stroke-width:0.09375;stroke-miterlimit:10"
         inkscape:connector-curvature="0"
         id="path206"
         d="m 315.42,289.87 h -0.947 v 0.343 h 2.308 v -0.343 h -0.953 v -2.777 h -0.408 z"
         stroke-miterlimit="10" />
      <path
         style="fill:#e9232e"
         inkscape:connector-curvature="0"
         id="path208"
         d="m 319.76,288.46 c -0.022,0.435 -0.051,0.963 -0.051,1.346 h -0.008 c -0.111,-0.36 -0.236,-0.754 -0.394,-1.184 l -0.551,-1.514 h -0.305 l -0.51,1.486 c -0.146,0.444 -0.267,0.842 -0.355,1.212 h -0.01 c -0.01,-0.388 -0.033,-0.907 -0.06,-1.379 l -0.082,-1.337 h -0.385 l 0.217,3.12 h 0.513 l 0.534,-1.51 c 0.128,-0.384 0.23,-0.727 0.314,-1.051 h 0.01 c 0.082,0.316 0.193,0.658 0.332,1.051 l 0.556,1.51 h 0.514 l 0.193,-3.12 h -0.398 l -0.074,1.37" />
      <path
         style="fill:none;stroke:#e9232e;stroke-width:0.09375;stroke-miterlimit:10"
         inkscape:connector-curvature="0"
         id="path210"
         d="m 319.76,288.46 c -0.022,0.435 -0.051,0.963 -0.051,1.346 h -0.008 c -0.111,-0.36 -0.236,-0.754 -0.394,-1.184 l -0.551,-1.514 h -0.305 l -0.51,1.486 c -0.146,0.444 -0.267,0.842 -0.355,1.212 h -0.01 c -0.01,-0.388 -0.033,-0.907 -0.06,-1.379 l -0.082,-1.337 h -0.385 l 0.217,3.12 h 0.513 l 0.534,-1.51 c 0.128,-0.384 0.23,-0.727 0.314,-1.051 h 0.01 c 0.082,0.316 0.193,0.658 0.332,1.051 l 0.556,1.51 h 0.514 l 0.193,-3.12 h -0.398 z"
         stroke-miterlimit="10" />
    </g>
  </g>
</svg>
