<?xml version="1.0" encoding="UTF-8" standalone="no"?>
<!-- Created with Inkscape (http://www.inkscape.org/) -->

<svg
   xmlns:dc="http://purl.org/dc/elements/1.1/"
   xmlns:cc="http://creativecommons.org/ns#"
   xmlns:rdf="http://www.w3.org/1999/02/22-rdf-syntax-ns#"
   xmlns:svg="http://www.w3.org/2000/svg"
   xmlns="http://www.w3.org/2000/svg"
   xmlns:xlink="http://www.w3.org/1999/xlink"
   xmlns:sodipodi="http://sodipodi.sourceforge.net/DTD/sodipodi-0.dtd"
   xmlns:inkscape="http://www.inkscape.org/namespaces/inkscape"
   id="svg4061"
   height="48"
   width="48"
   version="1.1"
   inkscape:version="0.92.2 (unknown)"
   sodipodi:docname="kodi.svg">
  <sodipodi:namedview
     pagecolor="#ffffff"
     bordercolor="#666666"
     borderopacity="1"
     objecttolerance="10"
     gridtolerance="10"
     guidetolerance="10"
     inkscape:pageopacity="0"
     inkscape:pageshadow="2"
     inkscape:window-width="2087"
     inkscape:window-height="1001"
     id="namedview40"
     showgrid="false"
     inkscape:zoom="6.9532167"
     inkscape:cx="-64.285527"
     inkscape:cy="2.6027379"
     inkscape:window-x="416"
     inkscape:window-y="120"
     inkscape:window-maximized="0"
     inkscape:current-layer="svg4061" />
  <defs
     id="defs4063">
    <linearGradient
       inkscape:collect="always"
       id="linearGradient3361">
      <stop
         style="stop-color:#0068e0;stop-opacity:1;"
         offset="0"
         id="stop3363" />
      <stop
         style="stop-color:#00acf4;stop-opacity:1"
         offset="1"
         id="stop3365" />
    </linearGradient>
    <linearGradient
       id="linearGradient3026"
       y2="40.495998"
       gradientUnits="userSpaceOnUse"
       x2="71.204002"
       gradientTransform="matrix(1.617,0,0,1.617,-92.707,-21.06)"
       y1="15.369"
       x1="71.204002"
       xlink:href="#linearGradient3361">
      <stop
         id="stop4808-4"
         stop-color="#fff"
         offset="0" />
      <stop
         id="stop4810-0"
         stop-color="#fff"
         stop-opacity=".23529"
         offset=".42448" />
      <stop
         id="stop4812-8"
         stop-color="#fff"
         stop-opacity=".15686"
         offset=".82090" />
      <stop
         id="stop4814-0"
         stop-color="#fff"
         stop-opacity=".39216"
         offset="1" />
    </linearGradient>
    <radialGradient
       id="radialGradient3029"
       fx="4.459"
       fy="8.5089"
       gradientUnits="userSpaceOnUse"
       cy="8.6258"
       cx="15.026"
       gradientTransform="matrix(-3.4973e-8 1.8855 -1.7764 -5.4723e-8 39.14 -7.9932)"
       r="20">
      <stop
         id="stop4170"
         stop-color="#c24251"
         offset="0" />
      <stop
         id="stop4172"
         stop-color="#c24251"
         offset=".26238" />
      <stop
         id="stop4174"
         stop-color="#a63643"
         offset=".66094" />
      <stop
         id="stop4176"
         stop-color="#a63643"
         offset="1" />
    </radialGradient>
    <radialGradient
       id="radialGradient3032"
       gradientUnits="userSpaceOnUse"
       cy="3.99"
       cx="23.896"
       gradientTransform="matrix(0,2.8884999,-3.8128002,0,39.213001,-65.949999)"
       r="20.397">
      <stop
         id="stop3244-9-33-7-0-9"
         stop-color="#fff"
         offset="0" />
      <stop
         id="stop3246-3-5-0-8-5"
         stop-color="#ddd"
         offset=".26238" />
      <stop
         id="stop3248-1-7-8-8-1"
         stop-color="#abacae"
         offset=".66094" />
      <stop
         id="stop3250-9-3-0-5-1"
         stop-color="#89898b"
         offset="1" />
    </radialGradient>
    <radialGradient
       id="radialGradient3035"
       gradientUnits="userSpaceOnUse"
       cy="186.17"
       cx="99.157"
       gradientTransform="matrix(0.27083,0,0,0.087623,-3.1427368,26.330818)"
       r="62.769">
      <stop
         id="stop3822-2-6-3"
         stop-color="#3d3d3d"
         offset="0" />
      <stop
         id="stop3864-8-7-7"
         stop-color="#686868"
         stop-opacity=".49804"
         offset=".5" />
      <stop
         id="stop3824-1-2-5"
         stop-color="#686868"
         stop-opacity="0"
         offset="1" />
    </radialGradient>
    <linearGradient
       id="linearGradient4433"
       y2="25.611"
       gradientUnits="userSpaceOnUse"
       x2="23.078"
       gradientTransform="matrix(1 0 0 1.0521 0 -.90547)"
       y1="13.035"
       x1="22.759">
      <stop
         id="stop6305-1-0-2"
         stop-color="#fff"
         offset="0" />
      <stop
         id="stop6307-5-0-6"
         stop-color="#fff"
         stop-opacity="0"
         offset="1" />
    </linearGradient>
    <linearGradient
       id="linearGradient4829">
      <stop
         style="stop-color:#f4fbfc;stop-opacity:1;"
         offset="0"
         id="stop4831" />
      <stop
         style="stop-color:#d6d6d6;stop-opacity:1;"
         offset="1"
         id="stop4833" />
    </linearGradient>
    <filter
       style="color-interpolation-filters:sRGB;"
       inkscape:label="Drop Shadow"
       id="filter3976">
      <feFlood
         flood-opacity="0.498039"
         flood-color="rgb(0,0,0)"
         result="flood"
         id="feFlood3966" />
      <feComposite
         in="flood"
         in2="SourceGraphic"
         operator="in"
         result="composite1"
         id="feComposite3968" />
      <feGaussianBlur
         in="composite1"
         stdDeviation="5.29101"
         result="blur"
         id="feGaussianBlur3970" />
      <feOffset
         dx="1.5"
         dy="1.2"
         result="offset"
         id="feOffset3972" />
      <feComposite
         in="SourceGraphic"
         in2="offset"
         operator="over"
         result="composite2"
         id="feComposite3974" />
    </filter>
  </defs>
  <metadata
     id="metadata4066">
    <rdf:RDF>
      <cc:Work
         rdf:about="">
        <dc:format>image/svg+xml</dc:format>
        <dc:type
           rdf:resource="http://purl.org/dc/dcmitype/StillImage" />
        <dc:title />
      </cc:Work>
    </rdf:RDF>
  </metadata>
  <path
     style="fill:url(#radialGradient3035)"
     inkscape:connector-curvature="0"
     d="m 40.712364,42.643818 a 17,5.5 0 0 1 -34.0000007,0 17,5.5 0 1 1 34.0000007,0 z"
     id="path3818-0-5" />
  <path
     inkscape:connector-curvature="0"
     d="M 24,3.5000008 C 12.689,3.5000008 3.5,12.689001 3.5,24.000001 3.5,35.311001 12.689,44.5 24,44.5 35.311,44.5 44.5,35.311001 44.5,24.000001 44.5,12.689001 35.311,3.5000008 24,3.5000008 Z"
     style="color:#000000;fill:url(#radialGradient3032);stroke-width:0.99999994"
     id="path2555-7-2" />
  <path
     inkscape:connector-curvature="0"
     d="M 24,3.5000008 C 12.689,3.5000008 3.5,12.689001 3.5,24.000001 3.5,35.311001 12.689,44.5 24,44.5 35.311,44.5 44.5,35.311001 44.5,24.000001 44.5,12.689001 35.311,3.5000008 24,3.5000008 Z"
     style="color:#000000;fill:#364851;fill-opacity:1;stroke:#199bec;stroke-width:0.99999994;stroke-opacity:1"
     id="path2555-7-65" />
  <path
     inkscape:connector-curvature="0"
     d="m 43.360119,23.944889 c 0,10.77066 -8.708578,19.501196 -19.45215,19.501196 -10.743572,0 -19.4521501,-8.730536 -19.4521501,-19.501196 0,-10.770661 8.7085781,-19.5011969 19.4521501,-19.5011969 10.743572,0 19.45215,8.7305359 19.45215,19.5011969 z"
     style="color:#000000;opacity:1;fill:#364851;fill-opacity:1;stroke:#199bec;stroke-width:1.99776781;stroke-linecap:round;stroke-linejoin:round;stroke-miterlimit:4;stroke-dasharray:none;stroke-opacity:1"
     id="path4176" />
  <g
     style="fill:none;stroke:#000000;stroke-linecap:round;stroke-linejoin:round"
     transform="matrix(1.0002,0,0,1.0004,-1.0018,-0.0050486)"
     id="g4317" />
  <g
     style="fill:#199bec;fill-opacity:1;filter:url(#filter3976)"
     id="g20"
     transform="matrix(0.09630689,0,0,0.09630689,-5.4704978,-4.0909177)">
    <path
       style="clip-rule:evenodd;fill:#199bec;fill-opacity:1;fill-rule:evenodd"
       inkscape:connector-curvature="0"
       id="path12"
       d="m 431.521,293.719 c -0.791,2.568 -2.526,4.448 -4.384,6.299 -12.448,12.406 -24.857,24.852 -37.278,37.284 -4.476,4.478 -9.259,4.465 -13.752,-0.032 -12.82,-12.83 -25.641,-25.659 -38.456,-38.491 -4.366,-4.372 -4.364,-9.144 0.013,-13.526 12.888,-12.906 25.778,-25.809 38.671,-38.708 4.195,-4.198 9.124,-4.2 13.318,-0.004 12.499,12.501 24.979,25.02 37.499,37.496 1.859,1.852 3.586,3.741 4.369,6.31 z" />
    <path
       style="clip-rule:evenodd;fill:#199bec;fill-opacity:1;fill-rule:evenodd"
       inkscape:connector-curvature="0"
       id="path14"
       d="m 307.953,413.914 c -2.556,-0.812 -4.408,-2.582 -6.251,-4.436 -12.395,-12.458 -24.828,-24.877 -37.247,-37.312 -4.444,-4.45 -4.449,-9.198 -0.015,-13.638 12.855,-12.865 25.709,-25.729 38.567,-38.592 4.274,-4.274 9.171,-4.29 13.422,-0.037 12.856,12.864 25.711,25.729 38.563,38.597 4.415,4.421 4.428,9.264 0.031,13.664 -12.527,12.541 -25.075,25.066 -37.573,37.633 -1.789,1.798 -3.629,3.415 -6.123,4.12 h -3.374 z" />
    <path
       style="clip-rule:evenodd;fill:#199bec;fill-opacity:1;fill-rule:evenodd"
       inkscape:connector-curvature="0"
       id="path16"
       d="m 262.841,261.207 c 0,-14.303 0.129,-28.608 -0.081,-42.909 -0.061,-4.14 0.928,-7.374 4.089,-10.104 2.543,-2.198 4.797,-4.733 7.179,-7.118 9.423,-9.433 18.845,-18.867 28.271,-28.296 4.433,-4.432 9.213,-4.429 13.643,0.002 12.821,12.825 25.641,25.653 38.459,38.482 4.403,4.407 4.4,9.254 -0.003,13.663 -15.16,15.179 -30.326,30.356 -45.49,45.533 -13.391,13.405 -26.78,26.809 -40.173,40.212 -2.481,2.482 -4.679,1.905 -5.581,-1.536 -0.278,-1.066 -0.3,-2.219 -0.301,-3.332 -0.018,-14.866 -0.012,-29.732 -0.012,-44.597" />
    <path
       style="clip-rule:evenodd;fill:#199bec;fill-opacity:1;fill-rule:evenodd"
       inkscape:connector-curvature="0"
       id="path18"
       d="m 232.182,292.201 c 0,13.127 0.019,26.256 -0.026,39.383 -0.005,1.247 -0.203,2.567 -0.65,3.724 -0.876,2.279 -2.52,2.561 -4.241,0.844 -6.037,-6.027 -12.057,-12.071 -18.083,-18.107 -6.965,-6.977 -13.932,-13.953 -20.894,-20.934 -2.882,-2.889 -2.895,-6.898 -0.024,-9.801 12.82,-12.967 25.643,-25.933 38.472,-38.895 0.848,-0.857 1.648,-2.02 3.089,-1.475 1.378,0.52 1.922,1.763 2.118,3.141 0.122,0.854 0.218,1.722 0.22,2.583 0.013,13.179 0.009,26.359 0.009,39.537 z" />
  </g>
</svg>
