<?xml version="1.0" encoding="UTF-8" standalone="no"?>
<!-- Created with Inkscape (http://www.inkscape.org/) -->

<svg
   xmlns:dc="http://purl.org/dc/elements/1.1/"
   xmlns:cc="http://creativecommons.org/ns#"
   xmlns:rdf="http://www.w3.org/1999/02/22-rdf-syntax-ns#"
   xmlns:svg="http://www.w3.org/2000/svg"
   xmlns="http://www.w3.org/2000/svg"
   xmlns:xlink="http://www.w3.org/1999/xlink"
   xmlns:sodipodi="http://sodipodi.sourceforge.net/DTD/sodipodi-0.dtd"
   xmlns:inkscape="http://www.inkscape.org/namespaces/inkscape"
   id="svg4061"
   height="48"
   width="48"
   version="1.1"
   inkscape:version="0.92.2 (unknown)"
   sodipodi:docname="ledger.svg">
  <sodipodi:namedview
     pagecolor="#ffffff"
     bordercolor="#666666"
     borderopacity="1"
     objecttolerance="10"
     gridtolerance="10"
     guidetolerance="10"
     inkscape:pageopacity="0"
     inkscape:pageshadow="2"
     inkscape:window-width="1378"
     inkscape:window-height="894"
     id="namedview40"
     showgrid="false"
     inkscape:zoom="9.8333333"
     inkscape:cx="13.902542"
     inkscape:cy="17.369631"
     inkscape:window-x="528"
     inkscape:window-y="226"
     inkscape:window-maximized="0"
     inkscape:current-layer="g4206"
     showguides="false" />
  <defs
     id="defs4063">
    <linearGradient
       inkscape:collect="always"
       id="linearGradient3361">
      <stop
         style="stop-color:#0068e0;stop-opacity:1;"
         offset="0"
         id="stop3363" />
      <stop
         style="stop-color:#00acf4;stop-opacity:1"
         offset="1"
         id="stop3365" />
    </linearGradient>
    <linearGradient
       id="linearGradient3026"
       y2="40.495998"
       gradientUnits="userSpaceOnUse"
       x2="71.204002"
       gradientTransform="matrix(1.5867756,0,0,1.5867757,-90.525557,-20.217856)"
       y1="15.369"
       x1="71.204002"
       xlink:href="#linearGradient3361">
      <stop
         id="stop4808-4"
         stop-color="#fff"
         offset="0" />
      <stop
         id="stop4810-0"
         stop-color="#fff"
         stop-opacity=".23529"
         offset=".42448" />
      <stop
         id="stop4812-8"
         stop-color="#fff"
         stop-opacity=".15686"
         offset=".82090" />
      <stop
         id="stop4814-0"
         stop-color="#fff"
         stop-opacity=".39216"
         offset="1" />
    </linearGradient>
    <radialGradient
       id="radialGradient3029"
       fx="4.459"
       fy="8.5089"
       gradientUnits="userSpaceOnUse"
       cy="8.6258"
       cx="15.026"
       gradientTransform="matrix(-3.4973e-8 1.8855 -1.7764 -5.4723e-8 39.14 -7.9932)"
       r="20">
      <stop
         id="stop4170"
         stop-color="#c24251"
         offset="0" />
      <stop
         id="stop4172"
         stop-color="#c24251"
         offset=".26238" />
      <stop
         id="stop4174"
         stop-color="#a63643"
         offset=".66094" />
      <stop
         id="stop4176"
         stop-color="#a63643"
         offset="1" />
    </radialGradient>
    <radialGradient
       id="radialGradient3032"
       gradientUnits="userSpaceOnUse"
       cy="3.99"
       cx="23.896"
       gradientTransform="matrix(0,2.8345094,-3.7415326,0,38.928644,-64.268791)"
       r="20.397">
      <stop
         id="stop3244-9-33-7-0-9"
         stop-color="#fff"
         offset="0" />
      <stop
         id="stop3246-3-5-0-8-5"
         stop-color="#ddd"
         offset=".26238" />
      <stop
         id="stop3248-1-7-8-8-1"
         stop-color="#abacae"
         offset=".66094" />
      <stop
         id="stop3250-9-3-0-5-1"
         stop-color="#89898b"
         offset="1" />
    </radialGradient>
    <radialGradient
       id="radialGradient3035"
       gradientUnits="userSpaceOnUse"
       cy="186.17"
       cx="99.157"
       gradientTransform="matrix(0.27083,0,0,0.087623,-2.8550996,26.187844)"
       r="62.769">
      <stop
         id="stop3822-2-6-3"
         stop-color="#3d3d3d"
         offset="0" />
      <stop
         id="stop3864-8-7-7"
         stop-color="#686868"
         stop-opacity=".49804"
         offset=".5" />
      <stop
         id="stop3824-1-2-5"
         stop-color="#686868"
         stop-opacity="0"
         offset="1" />
    </radialGradient>
    <linearGradient
       id="linearGradient4433"
       y2="25.611"
       gradientUnits="userSpaceOnUse"
       x2="23.078"
       gradientTransform="matrix(1 0 0 1.0521 0 -.90547)"
       y1="13.035"
       x1="22.759">
      <stop
         id="stop6305-1-0-2"
         stop-color="#fff"
         offset="0" />
      <stop
         id="stop6307-5-0-6"
         stop-color="#fff"
         stop-opacity="0"
         offset="1" />
    </linearGradient>
    <linearGradient
       id="linearGradient4829">
      <stop
         style="stop-color:#f4fbfc;stop-opacity:1;"
         offset="0"
         id="stop4831" />
      <stop
         style="stop-color:#d6d6d6;stop-opacity:1;"
         offset="1"
         id="stop4833" />
    </linearGradient>
    <radialGradient
       id="SVGID_4_"
       cx="224.50391"
       cy="186.51421"
       r="127.0051"
       gradientUnits="userSpaceOnUse">
      <stop
         offset="0"
         style="stop-color:#FFFFFF"
         id="stop27" />
      <stop
         offset="0.3984"
         style="stop-color:#FDFEFF"
         id="stop29" />
      <stop
         offset="0.6131"
         style="stop-color:#F5FAFF"
         id="stop31" />
      <stop
         offset="0.7841"
         style="stop-color:#E7F3FF"
         id="stop33" />
      <stop
         offset="0.9311"
         style="stop-color:#D4EAFF"
         id="stop35" />
      <stop
         offset="1"
         style="stop-color:#C8E4FF"
         id="stop37" />
    </radialGradient>
    <radialGradient
       gradientUnits="userSpaceOnUse"
       r="26.769501"
       cy="286.66409"
       cx="324.69339"
       id="SVGID_5_">
      <stop
         id="stop50"
         style="stop-color:#FFFFFF"
         offset="0" />
      <stop
         id="stop52"
         style="stop-color:#FDFEFF"
         offset="0.3984" />
      <stop
         id="stop54"
         style="stop-color:#F5FAFF"
         offset="0.6131" />
      <stop
         id="stop56"
         style="stop-color:#E7F3FF"
         offset="0.7841" />
      <stop
         id="stop58"
         style="stop-color:#D4EAFF"
         offset="0.9311" />
      <stop
         id="stop60"
         style="stop-color:#C8E4FF"
         offset="1" />
    </radialGradient>
    <radialGradient
       gradientUnits="userSpaceOnUse"
       r="46.444901"
       cy="392.77249"
       cx="325"
       id="SVGID_6_">
      <stop
         id="stop73"
         style="stop-color:#FFFFFF"
         offset="0" />
      <stop
         id="stop75"
         style="stop-color:#FDFEFF"
         offset="0.3984" />
      <stop
         id="stop77"
         style="stop-color:#F5FAFF"
         offset="0.6131" />
      <stop
         id="stop79"
         style="stop-color:#E7F3FF"
         offset="0.7841" />
      <stop
         id="stop81"
         style="stop-color:#D4EAFF"
         offset="0.9311" />
      <stop
         id="stop83"
         style="stop-color:#C8E4FF"
         offset="1" />
    </radialGradient>
    <radialGradient
       id="radialGradient3026-0"
       cx="6.7027001"
       gradientUnits="userSpaceOnUse"
       cy="73.615997"
       r="7.2284002"
       gradientTransform="matrix(1.6601,0,0,0.36315,1.2796331,-5.0624646)">
      <stop
         id="stop8840"
         offset="0" />
      <stop
         id="stop8842"
         stop-opacity="0"
         offset="1" />
    </radialGradient>
    <linearGradient
       id="linearGradient3021"
       y2="47.012001"
       gradientUnits="userSpaceOnUse"
       x2="32.035999"
       gradientTransform="matrix(0.77778,0,0,0.77778,-11.704217,-13.370865)"
       y1="19"
       x1="32.035999">
      <stop
         id="stop3311"
         stop-color="#f6f6f6"
         offset="0" />
      <stop
         id="stop3313"
         stop-color="#d2d2d2"
         offset="1" />
    </linearGradient>
    <linearGradient
       id="linearGradient3017"
       y2="20.895"
       gradientUnits="userSpaceOnUse"
       x2="84.639"
       gradientTransform="matrix(0.15623,0,0,0.15623,2.4079831,2.4535354)"
       y1="105.1"
       x1="86.133003">
      <stop
         id="stop5130-3"
         stop-color="#fff"
         offset="0" />
      <stop
         id="stop5132-4"
         stop-color="#959595"
         offset="1" />
    </linearGradient>
    <linearGradient
       gradientTransform="translate(0.40678305,0.29613544)"
       id="linearGradient3014"
       y2="22.007"
       xlink:href="#linearGradient3983"
       gradientUnits="userSpaceOnUse"
       x2="12.479"
       y1="2"
       x1="12.479" />
    <linearGradient
       id="linearGradient3983">
      <stop
         id="stop3985"
         stop-color="#fff"
         offset="0" />
      <stop
         id="stop3987"
         stop-color="#fff"
         stop-opacity="0"
         offset="1" />
    </linearGradient>
    <linearGradient
       id="linearGradient3011"
       y2="8"
       xlink:href="#linearGradient3983"
       gradientUnits="userSpaceOnUse"
       x2="12"
       gradientTransform="matrix(1.0116,0,0,1.0116,0.26754305,0.15689544)"
       y1="16"
       x1="12" />
    <radialGradient
       id="radialGradient3026-0-3"
       cx="6.7027001"
       gradientUnits="userSpaceOnUse"
       cy="73.615997"
       r="7.2284002"
       gradientTransform="matrix(1.6601,0,0,0.36315,1.2796331,-5.0624646)">
      <stop
         id="stop8840-6"
         offset="0" />
      <stop
         id="stop8842-7"
         stop-opacity="0"
         offset="1" />
    </radialGradient>
    <linearGradient
       x1="20.758585"
       y1="-19.425636"
       x2="20.758585"
       y2="45.017357"
       id="linearGradient3937-3"
       xlink:href="#linearGradient4281-6"
       gradientUnits="userSpaceOnUse"
       gradientTransform="matrix(6.6020753,0,0,6.4391335,45.715634,118.61802)" />
    <linearGradient
       id="linearGradient4281-6">
      <stop
         id="stop4283-9"
         style="stop-color:#1e1e1e;stop-opacity:1"
         offset="0" />
      <stop
         id="stop4285-8"
         style="stop-color:#505050;stop-opacity:1"
         offset="1" />
    </linearGradient>
    <clipPath
       id="clipPath3954-5">
      <path
         d="m 57.71875,18 c -0.09664,-0.01425 -0.212512,0.0045 -0.3125,0.03125 l -2.78125,0.75 c -0.399955,0.107167 -0.640249,0.53071 -0.53125,0.9375 l 0.375,1.4375 c -0.664087,0.382164 -1.284715,0.843857 -1.8125,1.375 l -1.28125,-0.75 c -0.18236,-0.105287 -0.375956,-0.142042 -0.5625,-0.09375 -0.186559,0.04823 -0.365236,0.164454 -0.46875,0.34375 l -1.4375,2.53125 c -0.207029,0.358586 -0.08344,0.820676 0.28125,1.03125 l 1.28125,0.75 c -0.196116,0.72264 -0.282329,1.4838 -0.28125,2.25 l -1.4375,0.375 c -0.406788,0.108999 -0.669667,0.506297 -0.5625,0.90625 l 0.75,2.8125 c 0.107167,0.399952 0.530712,0.640248 0.9375,0.53125 l 1.4375,-0.375 c 0.382168,0.664087 0.843857,1.253467 1.375,1.78125 l -0.71875,1.3125 c -0.210569,0.364715 -0.108607,0.792973 0.25,1 L 54.75,38.40625 c 0.358585,0.207031 0.789431,0.08346 1,-0.28125 l 0.75,-1.3125 c 0.722641,0.196115 1.483802,0.313584 2.25,0.3125 l 0.375,1.4375 c 0.108998,0.406788 0.537545,0.638418 0.9375,0.53125 l 2.8125,-0.75 c 0.399953,-0.107166 0.608999,-0.530713 0.5,-0.9375 L 63,36 c 0.664087,-0.382164 1.284717,-0.875105 1.8125,-1.40625 l 1.28125,0.75 c 0.364716,0.210569 0.824219,0.108591 1.03125,-0.25 l 1.46875,-2.53125 c 0.207028,-0.358587 0.05219,-0.820674 -0.3125,-1.03125 L 67,30.8125 c 0.196115,-0.722638 0.313576,-1.483801 0.3125,-2.25 l 1.40625,-0.40625 c 0.406784,-0.108999 0.669667,-0.506297 0.5625,-0.90625 l -0.75,-2.8125 c -0.107168,-0.399951 -0.530715,-0.640247 -0.9375,-0.53125 l -1.4375,0.375 C 65.774096,23.61716 65.312393,23.027781 64.78125,22.5 l 0.75,-1.28125 C 65.741818,20.85403 65.608612,20.394522 65.25,20.1875 l -2.53125,-1.46875 c -0.35859,-0.20703 -0.78943,-0.08346 -1,0.28125 l -0.75,1.3125 C 60.246106,20.116385 59.484949,19.998916 58.71875,20 l -0.375,-1.4375 C 58.262001,18.257408 58.008674,18.042765 57.71875,18 Z m 0.84375,7.375 c 1.476453,-0.08838 2.852364,0.891007 3.25,2.375 0.454438,1.695993 -0.554006,3.42056 -2.25,3.875 -1.69599,0.454438 -3.45181,-0.554007 -3.90625,-2.25 -0.45444,-1.695991 0.554011,-3.42056 2.25,-3.875 0.211999,-0.05681 0.445328,-0.112374 0.65625,-0.125 z M 43.25,35.46875 c -0.787101,0 -1.4375,0.636951 -1.4375,1.4375 V 39.75 c -1.40738,0.37498 -2.738343,0.940659 -3.96875,1.65625 L 35.8125,39.375 c -0.28304,-0.283037 -0.60247,-0.403146 -0.96875,-0.40625 -0.366278,-0.0032 -0.752972,0.127971 -1.03125,0.40625 l -3.90625,3.90625 c -0.556555,0.55656 -0.534772,1.433926 0.03125,2 l 2,2.03125 c -0.71559,1.230403 -1.281261,2.561367 -1.65625,3.96875 h -2.8125 C 26.668202,51.28125 26,51.931654 26,52.71875 v 5.5 c 0,0.787096 0.668202,1.4375 1.46875,1.4375 h 2.8125 c 0.374989,1.407384 0.94066,2.738347 1.65625,3.96875 l -2,2 c -0.566072,0.566073 -0.587856,1.474688 -0.03125,2.03125 l 3.90625,3.90625 c 0.556555,0.55656 1.433928,0.534821 2,-0.03125 l 2.03125,-2 c 1.230407,0.715594 2.56137,1.281269 3.96875,1.65625 V 74 c 0,0.800549 0.650399,1.46875 1.4375,1.46875 h 5.5 c 0.787093,0 1.4375,-0.668201 1.4375,-1.46875 v -2.8125 c 1.40738,-0.374981 2.738343,-0.940656 3.96875,-1.65625 l 2.03125,2 c 0.566072,0.566073 1.443438,0.58781 2,0.03125 l 3.90625,-3.90625 C 62.650305,67.099688 62.628521,66.191073 62.0625,65.625 l -2,-2 c 0.715588,-1.230403 1.281268,-2.561366 1.65625,-3.96875 h 2.8125 C 65.331792,59.65625 66,59.005847 66,58.21875 v -5.5 c 0,-0.787094 -0.668208,-1.4375 -1.46875,-1.4375 h -2.8125 C 61.343772,49.873867 60.778089,48.542903 60.0625,47.3125 l 2,-2.03125 c 0.566071,-0.566074 0.587863,-1.44344 0.03125,-2 L 58.1875,39.375 c -0.556564,-0.556561 -1.433929,-0.566074 -2,0 l -2.03125,2.03125 C 52.925838,40.690655 51.594881,40.12498 50.1875,39.75 v -2.84375 c 0,-0.800549 -0.650406,-1.4375 -1.4375,-1.4375 z M 46,49.40625 c 3.33767,0 6.03125,2.724835 6.03125,6.0625 0,3.337667 -2.69358,6.03125 -6.03125,6.03125 -3.337662,0 -6.03125,-2.693583 -6.03125,-6.03125 0,-3.337665 2.693588,-6.0625 6.03125,-6.0625 z"
         inkscape:connector-curvature="0"
         id="path3956-3"
         style="display:block;overflow:visible;visibility:visible;fill:#ff00ff;fill-opacity:1;fill-rule:nonzero;stroke:none;stroke-width:1;marker:none;enable-background:accumulate" />
    </clipPath>
    <filter
       style="color-interpolation-filters:sRGB"
       id="filter3958-5">
      <feGaussianBlur
         id="feGaussianBlur3960-6"
         stdDeviation="0.75584188" />
    </filter>
    <linearGradient
       x1="71.204407"
       y1="6.2375584"
       x2="71.204407"
       y2="44.340794"
       id="linearGradient3089"
       xlink:href="#linearGradient4011-4"
       gradientUnits="userSpaceOnUse"
       gradientTransform="matrix(0.85000608,0,0,0.81632447,-21.415724,16.103415)" />
    <linearGradient
       id="linearGradient4011-4">
      <stop
         id="stop4013-8"
         style="stop-color:#ffffff;stop-opacity:1"
         offset="0" />
      <stop
         id="stop4015-5"
         style="stop-color:#ffffff;stop-opacity:0.23529412"
         offset="0.507761" />
      <stop
         id="stop4017-6"
         style="stop-color:#ffffff;stop-opacity:0.15686275"
         offset="0.83456558" />
      <stop
         id="stop4019-1"
         style="stop-color:#ffffff;stop-opacity:0.39215687"
         offset="1" />
    </linearGradient>
    <linearGradient
       id="linearGradient4215-4">
      <stop
         offset="0"
         style="stop-color:#dcdcdc;stop-opacity:1"
         id="stop4217-9" />
      <stop
         offset="1"
         style="stop-color:#f0f0f0;stop-opacity:1"
         id="stop4219-7" />
    </linearGradient>
    <radialGradient
       cx="99.157013"
       cy="186.17059"
       r="62.769119"
       fx="99.157013"
       fy="186.17059"
       id="radialGradient3315"
       xlink:href="#linearGradient3820-7-2-2"
       gradientUnits="userSpaceOnUse"
       gradientTransform="matrix(0.20412993,0,0,0.06237678,19.129979,39.393363)" />
    <linearGradient
       id="linearGradient3820-7-2-2">
      <stop
         id="stop3822-2-6-36"
         style="stop-color:#3d3d3d;stop-opacity:1"
         offset="0" />
      <stop
         id="stop3864-8-7-6"
         style="stop-color:#686868;stop-opacity:0.49803922"
         offset="0.5" />
      <stop
         id="stop3824-1-2-4"
         style="stop-color:#686868;stop-opacity:0"
         offset="1" />
    </linearGradient>
  </defs>
  <metadata
     id="metadata4066">
    <rdf:RDF>
      <cc:Work
         rdf:about="">
        <dc:format>image/svg+xml</dc:format>
        <dc:type
           rdf:resource="http://purl.org/dc/dcmitype/StillImage" />
        <dc:title />
      </cc:Work>
    </rdf:RDF>
  </metadata>
  <g
     id="g4206">
    <path
       id="path3818-0-5"
       d="m 41,42.500844 a 17,5.5 0 0 1 -33.9999996,0 17,5.5 0 1 1 33.9999996,0 z"
       inkscape:connector-curvature="0"
       style="fill:url(#radialGradient3035)" />
    <path
       id="path2555-7-2"
       style="color:#000000;fill:url(#radialGradient3032);stroke-width:0.9813084"
       d="m 24,3.8830788 c -11.099579,0 -20.1168224,9.0172432 -20.1168224,20.1168222 0,11.09958 9.0172434,20.116824 20.1168224,20.116824 11.099579,0 20.116823,-9.017244 20.116823,-20.116824 C 44.116823,12.900322 35.099579,3.8830788 24,3.8830788 Z"
       inkscape:connector-curvature="0" />
    <path
       id="path2555-7-65"
       style="color:#000000;fill:#4d4d4d;fill-opacity:1;stroke-width:0.9813084"
       d="m 24,3.8830788 c -11.099579,0 -20.1168224,9.0172432 -20.1168224,20.1168222 0,11.09958 9.0172434,20.116824 20.1168224,20.116824 11.099579,0 20.116823,-9.017244 20.116823,-20.116824 C 44.116823,12.900322 35.099579,3.8830788 24,3.8830788 Z"
       inkscape:connector-curvature="0" />
    <path
       id="path4176"
       style="color:#000000;opacity:0.5;fill:none;stroke:url(#linearGradient3026);stroke-width:0.9813084;stroke-linecap:round;stroke-linejoin:round"
       d="M 43.135514,23.999901 C 43.135514,34.568593 34.568691,43.135416 24,43.135416 13.431309,43.135416 4.864486,34.568593 4.864486,23.999901 4.864486,13.43121 13.431309,4.8643872 24,4.8643872 c 10.568691,0 19.135514,8.5668228 19.135514,19.1355138 z"
       inkscape:connector-curvature="0" />
    <path
       id="path2555-7-1-7"
       style="color:#000000;opacity:1;fill:none;fill-opacity:1;stroke:#fbfbfb;stroke-width:1.76635504;stroke-linecap:round;stroke-linejoin:round;stroke-miterlimit:4;stroke-dasharray:none;stroke-opacity:1"
       d="m 24,3.8831769 c -11.099579,0 -20.1168224,9.0170471 -20.1168224,20.1168221 0,11.099776 9.0170464,20.116824 20.1168224,20.116824 11.099776,0 20.116823,-9.017048 20.116823,-20.116824 C 44.116823,12.900224 35.099579,3.8831769 24,3.8831769 Z"
       inkscape:connector-curvature="0" />
    <g
       id="g4317"
       transform="matrix(1.0002,0,0,1.0004,-1.0018,-0.0050486)"
       style="fill:none;stroke:#000000;stroke-linecap:round;stroke-linejoin:round" />
    <rect
       style="opacity:1;fill:#ff0000;fill-opacity:1;stroke:#ffffff;stroke-width:0;stroke-miterlimit:4;stroke-dasharray:none;stroke-opacity:1"
       id="rect3888"
       width="8.999999"
       height="8.999999"
       x="13.000001"
       y="13"
       ry="2.6470585" />
    <rect
       style="opacity:1;fill:#999999;fill-opacity:1;stroke:#ffffff;stroke-width:0;stroke-miterlimit:4;stroke-dasharray:none;stroke-opacity:1"
       id="rect3888-3"
       width="8.999999"
       height="8.999999"
       x="26"
       y="25.322035"
       ry="2.6470585" />
    <rect
       style="opacity:1;fill:#ffcc00;fill-opacity:1;stroke:#ffffff;stroke-width:0;stroke-miterlimit:4;stroke-dasharray:none;stroke-opacity:1"
       id="rect3888-6"
       width="8.999999"
       height="8.999999"
       x="13.000001"
       y="25.322035"
       ry="2.6470585" />
    <rect
       style="opacity:1;fill:#00aad4;fill-opacity:1;stroke:#ffffff;stroke-width:0;stroke-miterlimit:4;stroke-dasharray:none;stroke-opacity:1"
       id="rect3888-7"
       width="8.999999"
       height="8.999999"
       x="26"
       y="13"
       ry="2.6470585" />
  </g>
</svg>
