<?xml version="1.0" encoding="UTF-8" standalone="no"?>
<!-- Created with Inkscape (http://www.inkscape.org/) -->

<svg
   xmlns:dc="http://purl.org/dc/elements/1.1/"
   xmlns:cc="http://creativecommons.org/ns#"
   xmlns:rdf="http://www.w3.org/1999/02/22-rdf-syntax-ns#"
   xmlns:svg="http://www.w3.org/2000/svg"
   xmlns="http://www.w3.org/2000/svg"
   xmlns:xlink="http://www.w3.org/1999/xlink"
   xmlns:sodipodi="http://sodipodi.sourceforge.net/DTD/sodipodi-0.dtd"
   xmlns:inkscape="http://www.inkscape.org/namespaces/inkscape"
   id="svg4061"
   height="48"
   width="48"
   version="1.1"
   inkscape:version="0.92.2 (unknown)"
   sodipodi:docname="LedgerWalletRipple.svg">
  <sodipodi:namedview
     pagecolor="#ffffff"
     bordercolor="#666666"
     borderopacity="1"
     objecttolerance="10"
     gridtolerance="10"
     guidetolerance="10"
     inkscape:pageopacity="0"
     inkscape:pageshadow="2"
     inkscape:window-width="1378"
     inkscape:window-height="894"
     id="namedview40"
     showgrid="false"
     inkscape:zoom="9.8333333"
     inkscape:cx="28.661017"
     inkscape:cy="12.757949"
     inkscape:window-x="447"
     inkscape:window-y="197"
     inkscape:window-maximized="0"
     inkscape:current-layer="g4206"
     showguides="false" />
  <defs
     id="defs4063">
    <linearGradient
       inkscape:collect="always"
       id="linearGradient4478">
      <stop
         style="stop-color:#385684;stop-opacity:1;"
         offset="0"
         id="stop4474" />
      <stop
         style="stop-color:#385684;stop-opacity:0.51"
         offset="1"
         id="stop4476" />
    </linearGradient>
    <linearGradient
       inkscape:collect="always"
       id="linearGradient3361">
      <stop
         style="stop-color:#0068e0;stop-opacity:1;"
         offset="0"
         id="stop3363" />
      <stop
         style="stop-color:#00acf4;stop-opacity:1"
         offset="1"
         id="stop3365" />
    </linearGradient>
    <linearGradient
       id="linearGradient3026"
       y2="39.301067"
       gradientUnits="userSpaceOnUse"
       x2="72.084473"
       gradientTransform="matrix(1.6170244,0,0,1.6151566,-92.658444,-20.982411)"
       y1="16.563932"
       x1="72.084473"
       xlink:href="#linearGradient3361">
      <stop
         id="stop4808-4"
         stop-color="#fff"
         offset="0"
         style="stop-color:#ffffff;stop-opacity:0.93532336" />
      <stop
         id="stop4810-0"
         stop-color="#fff"
         stop-opacity=".23529"
         offset=".42448" />
      <stop
         id="stop4812-8"
         stop-color="#fff"
         stop-opacity=".15686"
         offset="0.42447999" />
      <stop
         id="stop4814-0"
         stop-color="#fff"
         stop-opacity=".39216"
         offset="1" />
    </linearGradient>
    <radialGradient
       id="radialGradient3029"
       fx="4.459"
       fy="8.5089"
       gradientUnits="userSpaceOnUse"
       cy="8.6258"
       cx="15.026"
       gradientTransform="matrix(-3.4973e-8 1.8855 -1.7764 -5.4723e-8 39.14 -7.9932)"
       r="20">
      <stop
         id="stop4170"
         stop-color="#c24251"
         offset="0" />
      <stop
         id="stop4172"
         stop-color="#c24251"
         offset=".26238" />
      <stop
         id="stop4174"
         stop-color="#a63643"
         offset=".66094" />
      <stop
         id="stop4176"
         stop-color="#a63643"
         offset="1" />
    </radialGradient>
    <radialGradient
       id="radialGradient3032"
       gradientUnits="userSpaceOnUse"
       cy="3.99"
       cx="23.896"
       gradientTransform="matrix(0,2.9589513,-3.9057952,0,39.58405,-68.143902)"
       r="20.397">
      <stop
         id="stop3244-9-33-7-0-9"
         stop-color="#fff"
         offset="0" />
      <stop
         id="stop3246-3-5-0-8-5"
         stop-color="#ddd"
         offset=".26238" />
      <stop
         id="stop3248-1-7-8-8-1"
         stop-color="#abacae"
         offset=".66094" />
      <stop
         id="stop3250-9-3-0-5-1"
         stop-color="#89898b"
         offset="1" />
    </radialGradient>
    <radialGradient
       id="radialGradient3035"
       gradientUnits="userSpaceOnUse"
       cy="186.17"
       cx="99.157"
       gradientTransform="matrix(0.27083409,0,0,0.08752311,-2.8552488,26.212288)"
       r="62.769">
      <stop
         id="stop3822-2-6-3"
         stop-color="#3d3d3d"
         offset="0" />
      <stop
         id="stop3864-8-7-7"
         stop-color="#686868"
         stop-opacity=".49804"
         offset=".5" />
      <stop
         id="stop3824-1-2-5"
         stop-color="#686868"
         stop-opacity="0"
         offset="1" />
    </radialGradient>
    <linearGradient
       id="linearGradient4433"
       y2="25.611"
       gradientUnits="userSpaceOnUse"
       x2="23.078"
       gradientTransform="matrix(1 0 0 1.0521 0 -.90547)"
       y1="13.035"
       x1="22.759">
      <stop
         id="stop6305-1-0-2"
         stop-color="#fff"
         offset="0" />
      <stop
         id="stop6307-5-0-6"
         stop-color="#fff"
         stop-opacity="0"
         offset="1" />
    </linearGradient>
    <linearGradient
       id="linearGradient4829">
      <stop
         style="stop-color:#f4fbfc;stop-opacity:1;"
         offset="0"
         id="stop4831" />
      <stop
         style="stop-color:#d6d6d6;stop-opacity:1;"
         offset="1"
         id="stop4833" />
    </linearGradient>
    <linearGradient
       inkscape:collect="always"
       xlink:href="#linearGradient4478"
       id="linearGradient4480"
       x1="23.796612"
       y1="32.847454"
       x2="23.79661"
       y2="6.1016951"
       gradientUnits="userSpaceOnUse"
       gradientTransform="matrix(1.0243903,0,0,1.0243903,-0.58536531,-0.5853647)" />
  </defs>
  <metadata
     id="metadata4066">
    <rdf:RDF>
      <cc:Work
         rdf:about="">
        <dc:format>image/svg+xml</dc:format>
        <dc:type
           rdf:resource="http://purl.org/dc/dcmitype/StillImage" />
        <dc:title />
      </cc:Work>
    </rdf:RDF>
  </metadata>
  <g
     id="g4206">
    <path
       id="path3818-0-5"
       d="m 41.000514,42.506691 a 17.000257,5.4937299 0 0 1 -34.0005139,0 17.000257,5.4937299 0 1 1 34.0005139,0 z"
       inkscape:connector-curvature="0"
       style="fill:url(#radialGradient3035);stroke-width:0.99943739" />
    <path
       id="path2555-7-2"
       style="color:#000000;fill:url(#radialGradient3032);stroke-width:1.02439022"
       d="m 24,3.000001 c -11.586878,0 -20.9999995,9.413122 -20.9999995,20.999998 C 3.0000005,35.586878 12.413122,45 24,45 35.586878,45 44.999999,35.586878 44.999999,23.999999 44.999999,12.413123 35.586878,3.000001 24,3.000001 Z"
       inkscape:connector-curvature="0" />
    <path
       id="path2555-7-65"
       style="color:#000000;fill:url(#linearGradient4480);fill-opacity:1;stroke:#d4ffff;stroke-width:0;stroke-miterlimit:4;stroke-dasharray:none;stroke-opacity:0"
       d="m 24,3.000001 c -11.586878,0 -20.9999995,9.413122 -20.9999995,20.999998 C 3.0000005,35.586878 12.413122,45 24,45 35.586878,45 44.999999,35.586878 44.999999,23.999999 44.999999,12.413123 35.586878,3.000001 24,3.000001 Z"
       inkscape:connector-curvature="0" />
    <path
       id="path4176"
       style="color:#000000;opacity:1;fill:none;stroke:#ffffff;stroke-width:1.94641221;stroke-linecap:round;stroke-linejoin:round;stroke-miterlimit:4;stroke-dasharray:none;stroke-opacity:1"
       d="m 43.975609,23.999999 c 0,11.032684 -8.942927,19.97561 -19.975609,19.97561 -11.032683,0 -19.9756093,-8.942926 -19.9756093,-19.97561 C 4.0243907,12.967318 12.967317,4.0243912 24,4.0243912 c 11.032682,0 19.975609,8.9429268 19.975609,19.9756078 z"
       inkscape:connector-curvature="0" />
    <path
       id="path2555-7-1-7"
       style="color:#000000;opacity:1;fill:none;fill-opacity:1;stroke:#f9f9f9;stroke-width:0.2;stroke-linecap:round;stroke-linejoin:round;stroke-miterlimit:4;stroke-dasharray:none;stroke-opacity:1"
       d="m 24.050318,3.5496905 c -11.311171,0 -20.5003097,9.1783245 -20.5003097,20.4766295 0,11.298305 9.1889387,20.47663 20.5003097,20.47663 11.311371,0 20.500309,-9.178325 20.500309,-20.47663 0,-11.298305 -9.189138,-20.4766295 -20.500309,-20.4766295 z"
       inkscape:connector-curvature="0" />
    <g
       id="g4317"
       transform="matrix(1.0002151,0,0,0.99925953,-0.95185966,0.04853783)"
       style="fill:none;stroke:#000000;stroke-linecap:round;stroke-linejoin:round" />
    <path
       style="fill:#ffffff;stroke-width:0.09951136"
       d="M 31.776615,26.423886 C 31.02176,26.00948 30.20047,25.817512 29.391612,25.823884 l 0.0069,-0.0039 c -1.109706,0.01275 -2.020008,-0.851314 -2.033037,-1.929647 -0.01282,-1.063992 0.851823,-1.938306 1.939848,-1.974648 v -4.98e-4 l -0.0019,-9.96e-4 c 0.823036,-0.004 1.655764,-0.213561 2.414397,-0.651864 2.268543,-1.310823 3.014348,-4.160684 1.665753,-6.365437 -1.348892,-2.204854 -4.281191,-2.929615 -6.549733,-1.61879 -2.268543,1.310724 -3.014247,4.160684 -1.665554,6.365437 0.561715,0.918722 0.251221,2.106081 -0.693989,2.652315 -0.931783,0.53837 -2.131594,0.252308 -2.703951,-0.635547 l -4.98e-4,1.99e-4 v 0.0025 C 21.357414,20.970902 20.756513,20.37299 19.988332,19.951216 17.69065,18.68948 14.775259,19.476872 13.477088,21.7103 c -1.298172,2.232932 -0.487623,5.066262 1.810159,6.3279 2.297882,1.261736 5.212874,0.474246 6.511145,-1.759083 0.0079,-0.01345 0.01482,-0.02738 0.02247,-0.04092 v 0.0033 l 4.98e-4,1.99e-4 c 0.551471,-0.901496 1.745912,-1.213843 2.689928,-0.695488 0.957542,0.525823 1.294988,1.706212 0.754158,2.636583 -1.29837,2.233429 -0.487721,5.066563 1.809961,6.3281 2.297782,1.261836 5.213074,0.474247 6.511245,-1.759083 1.297973,-2.233131 0.487722,-5.066164 -1.809961,-6.327899 z"
       id="XRP"
       inkscape:connector-curvature="0" />
  </g>
</svg>
