<?xml version="1.0" encoding="UTF-8" standalone="no"?>
<!-- Created with Inkscape (http://www.inkscape.org/) -->

<svg
   xmlns:dc="http://purl.org/dc/elements/1.1/"
   xmlns:cc="http://creativecommons.org/ns#"
   xmlns:rdf="http://www.w3.org/1999/02/22-rdf-syntax-ns#"
   xmlns:svg="http://www.w3.org/2000/svg"
   xmlns="http://www.w3.org/2000/svg"
   xmlns:xlink="http://www.w3.org/1999/xlink"
   xmlns:sodipodi="http://sodipodi.sourceforge.net/DTD/sodipodi-0.dtd"
   xmlns:inkscape="http://www.inkscape.org/namespaces/inkscape"
   id="svg4061"
   height="48"
   width="48"
   version="1.1"
   inkscape:version="0.92.2 (unknown)"
   sodipodi:docname="ms-excel.svg">
  <sodipodi:namedview
     pagecolor="#ffffff"
     bordercolor="#666666"
     borderopacity="1"
     objecttolerance="10"
     gridtolerance="10"
     guidetolerance="10"
     inkscape:pageopacity="0"
     inkscape:pageshadow="2"
     inkscape:window-width="1378"
     inkscape:window-height="894"
     id="namedview40"
     showgrid="false"
     inkscape:zoom="9.8333333"
     inkscape:cx="2.0251224"
     inkscape:cy="23.582093"
     inkscape:window-x="397"
     inkscape:window-y="194"
     inkscape:window-maximized="0"
     inkscape:current-layer="g4206" />
  <defs
     id="defs4063">
    <linearGradient
       inkscape:collect="always"
       id="linearGradient4515">
      <stop
         style="stop-color:#42a500;stop-opacity:1;"
         offset="0"
         id="stop4511" />
      <stop
         style="stop-color:#42a500;stop-opacity:0;"
         offset="1"
         id="stop4513" />
    </linearGradient>
    <linearGradient
       id="linearGradient3026"
       y2="40.495998"
       gradientUnits="userSpaceOnUse"
       x2="71.204002"
       gradientTransform="matrix(1.617,0,0,1.617,-92.707,-21.06)"
       y1="15.369"
       x1="71.204002"
       spreadMethod="pad">
      <stop
         id="stop4808-4"
         stop-color="#fff"
         offset="0" />
      <stop
         id="stop4810-0"
         stop-color="#fff"
         stop-opacity=".23529"
         offset=".42448" />
      <stop
         id="stop4812-8"
         stop-color="#fff"
         stop-opacity=".15686"
         offset=".82090" />
      <stop
         id="stop4814-0"
         stop-color="#fff"
         stop-opacity=".39216"
         offset="1" />
    </linearGradient>
    <radialGradient
       id="radialGradient3029"
       fx="4.459"
       fy="8.5089"
       gradientUnits="userSpaceOnUse"
       cy="8.6258"
       cx="15.026"
       gradientTransform="matrix(-3.4973e-8 1.8855 -1.7764 -5.4723e-8 39.14 -7.9932)"
       r="20">
      <stop
         id="stop4170"
         stop-color="#c24251"
         offset="0" />
      <stop
         id="stop4172"
         stop-color="#c24251"
         offset=".26238" />
      <stop
         id="stop4174"
         stop-color="#a63643"
         offset=".66094" />
      <stop
         id="stop4176"
         stop-color="#a63643"
         offset="1" />
    </radialGradient>
    <radialGradient
       id="radialGradient3032"
       gradientUnits="userSpaceOnUse"
       cy="3.99"
       cx="23.896"
       gradientTransform="matrix(0,2.9445874,-3.886835,0,39.508399,-67.696705)"
       r="20.397">
      <stop
         id="stop3244-9-33-7-0-9"
         stop-color="#fff"
         offset="0" />
      <stop
         id="stop3246-3-5-0-8-5"
         stop-color="#ddd"
         offset=".26238" />
      <stop
         id="stop3248-1-7-8-8-1"
         stop-color="#abacae"
         offset=".66094" />
      <stop
         id="stop3250-9-3-0-5-1"
         stop-color="#89898b"
         offset="1" />
    </radialGradient>
    <radialGradient
       id="radialGradient3035"
       gradientUnits="userSpaceOnUse"
       cy="186.17"
       cx="99.157"
       gradientTransform="matrix(0.27083,0,0,0.087623,-2.8550998,26.187844)"
       r="62.769">
      <stop
         id="stop3822-2-6-3"
         stop-color="#3d3d3d"
         offset="0" />
      <stop
         id="stop3864-8-7-7"
         stop-color="#686868"
         stop-opacity=".49804"
         offset=".5" />
      <stop
         id="stop3824-1-2-5"
         stop-color="#686868"
         stop-opacity="0"
         offset="1" />
    </radialGradient>
    <linearGradient
       id="linearGradient4433"
       y2="25.611"
       gradientUnits="userSpaceOnUse"
       x2="23.078"
       gradientTransform="matrix(1 0 0 1.0521 0 -.90547)"
       y1="13.035"
       x1="22.759">
      <stop
         id="stop6305-1-0-2"
         stop-color="#fff"
         offset="0" />
      <stop
         id="stop6307-5-0-6"
         stop-color="#fff"
         stop-opacity="0"
         offset="1" />
    </linearGradient>
    <linearGradient
       id="linearGradient4829">
      <stop
         style="stop-color:#f4fbfc;stop-opacity:1;"
         offset="0"
         id="stop4831" />
      <stop
         style="stop-color:#d6d6d6;stop-opacity:1;"
         offset="1"
         id="stop4833" />
    </linearGradient>
    <linearGradient
       id="linearGradient4213"
       y2="37.305"
       gradientUnits="userSpaceOnUse"
       x2="21.434999"
       y1="13.905"
       x1="21.511999">
      <stop
         id="stop2240"
         stop-color="#fff"
         offset="0" />
      <stop
         id="stop2242"
         stop-color="#fff"
         stop-opacity="0"
         offset="1" />
    </linearGradient>
    <linearGradient
       inkscape:collect="always"
       xlink:href="#linearGradient4515"
       id="linearGradient4517"
       x1="23.635593"
       y1="42.40678"
       x2="24.466101"
       y2="-6.4067798"
       gradientUnits="userSpaceOnUse"
       gradientTransform="matrix(1.0194175,0,0,1.0194175,-0.46601937,-0.46612111)" />
    <filter
       style="color-interpolation-filters:sRGB;"
       inkscape:label="Drop Shadow"
       id="filter903">
      <feFlood
         flood-opacity="0.498039"
         flood-color="rgb(0,0,0)"
         result="flood"
         id="feFlood893" />
      <feComposite
         in="flood"
         in2="SourceGraphic"
         operator="in"
         result="composite1"
         id="feComposite895" />
      <feGaussianBlur
         in="composite1"
         stdDeviation="3"
         result="blur"
         id="feGaussianBlur897" />
      <feOffset
         dx="6"
         dy="6"
         result="offset"
         id="feOffset899" />
      <feComposite
         in="SourceGraphic"
         in2="offset"
         operator="over"
         result="composite2"
         id="feComposite901" />
    </filter>
    <filter
       style="color-interpolation-filters:sRGB;"
       inkscape:label="Drop Shadow"
       id="filter90">
      <feFlood
         flood-opacity="0.498039"
         flood-color="rgb(0,0,0)"
         result="flood"
         id="feFlood80" />
      <feComposite
         in="flood"
         in2="SourceGraphic"
         operator="in"
         result="composite1"
         id="feComposite82" />
      <feGaussianBlur
         in="composite1"
         stdDeviation="3"
         result="blur"
         id="feGaussianBlur84" />
      <feOffset
         dx="6"
         dy="6"
         result="offset"
         id="feOffset86" />
      <feComposite
         in="SourceGraphic"
         in2="offset"
         operator="over"
         result="composite2"
         id="feComposite88" />
    </filter>
    <filter
       style="color-interpolation-filters:sRGB;"
       inkscape:label="Drop Shadow"
       id="filter239">
      <feFlood
         flood-opacity="0.498039"
         flood-color="rgb(0,0,0)"
         result="flood"
         id="feFlood229" />
      <feComposite
         in="flood"
         in2="SourceGraphic"
         operator="in"
         result="composite1"
         id="feComposite231" />
      <feGaussianBlur
         in="composite1"
         stdDeviation="3"
         result="blur"
         id="feGaussianBlur233" />
      <feOffset
         dx="6"
         dy="6"
         result="offset"
         id="feOffset235" />
      <feComposite
         in="SourceGraphic"
         in2="offset"
         operator="over"
         result="composite2"
         id="feComposite237" />
    </filter>
    <filter
       style="color-interpolation-filters:sRGB;"
       inkscape:label="Drop Shadow"
       id="filter266">
      <feFlood
         flood-opacity="0.498039"
         flood-color="rgb(0,0,0)"
         result="flood"
         id="feFlood256" />
      <feComposite
         in="flood"
         in2="SourceGraphic"
         operator="in"
         result="composite1"
         id="feComposite258" />
      <feGaussianBlur
         in="composite1"
         stdDeviation="3"
         result="blur"
         id="feGaussianBlur260" />
      <feOffset
         dx="6"
         dy="6"
         result="offset"
         id="feOffset262" />
      <feComposite
         in="SourceGraphic"
         in2="offset"
         operator="over"
         result="fbSourceGraphic"
         id="feComposite264" />
      <feColorMatrix
         result="fbSourceGraphicAlpha"
         in="fbSourceGraphic"
         values="0 0 0 -1 0 0 0 0 -1 0 0 0 0 -1 0 0 0 0 1 0"
         id="feColorMatrix268" />
      <feFlood
         id="feFlood270"
         flood-opacity="0.498039"
         flood-color="rgb(0,0,0)"
         result="flood"
         in="fbSourceGraphic" />
      <feComposite
         in2="fbSourceGraphic"
         id="feComposite272"
         in="flood"
         operator="in"
         result="composite1" />
      <feGaussianBlur
         id="feGaussianBlur274"
         in="composite1"
         stdDeviation="3"
         result="blur" />
      <feOffset
         id="feOffset276"
         dx="6"
         dy="6"
         result="offset" />
      <feComposite
         in2="offset"
         id="feComposite278"
         in="fbSourceGraphic"
         operator="over"
         result="composite2" />
    </filter>
    <filter
       style="color-interpolation-filters:sRGB;"
       inkscape:label="Drop Shadow"
       id="filter380">
      <feFlood
         flood-opacity="0.498039"
         flood-color="rgb(0,0,0)"
         result="flood"
         id="feFlood370" />
      <feComposite
         in="flood"
         in2="SourceGraphic"
         operator="in"
         result="composite1"
         id="feComposite372" />
      <feGaussianBlur
         in="composite1"
         stdDeviation="3"
         result="blur"
         id="feGaussianBlur374" />
      <feOffset
         dx="6"
         dy="6"
         result="offset"
         id="feOffset376" />
      <feComposite
         in="SourceGraphic"
         in2="offset"
         operator="over"
         result="composite2"
         id="feComposite378" />
    </filter>
  </defs>
  <metadata
     id="metadata4066">
    <rdf:RDF>
      <cc:Work
         rdf:about="">
        <dc:format>image/svg+xml</dc:format>
        <dc:type
           rdf:resource="http://purl.org/dc/dcmitype/StillImage" />
        <dc:title />
      </cc:Work>
    </rdf:RDF>
  </metadata>
  <g
     id="g4206">
    <path
       id="path3818-0-5"
       d="m 41,42.500844 a 17,5.5 0 0 1 -33.9999998,0 17,5.5 0 1 1 33.9999998,0 z"
       inkscape:connector-curvature="0"
       style="fill:url(#radialGradient3035)" />
    <path
       id="path2555-7-2"
       style="color:#000000;fill:url(#radialGradient3032);stroke-width:1.01941752"
       d="m 24,3.1018401 c -11.530631,0 -20.8980583,9.3674269 -20.8980583,20.8980579 0,11.530631 9.3674273,20.898058 20.8980583,20.898058 11.530631,0 20.898058,-9.367427 20.898058,-20.898058 C 44.898058,12.469267 35.530631,3.1018401 24,3.1018401 Z"
       inkscape:connector-curvature="0" />
    <path
       id="path2555-7-65"
       style="color:#000000;fill:url(#linearGradient4517);fill-opacity:1;stroke-width:1.01941752"
       d="m 24,3.1018401 c -11.530631,0 -20.8980583,9.3674269 -20.8980583,20.8980579 0,11.530631 9.3674273,20.898058 20.8980583,20.898058 11.530631,0 20.898058,-9.367427 20.898058,-20.898058 C 44.898058,12.469267 35.530631,3.1018401 24,3.1018401 Z"
       inkscape:connector-curvature="0" />
    <path
       id="path4176"
       style="color:#000000;opacity:1;fill:none;stroke:#ffffff;stroke-width:2.03883505;stroke-linecap:round;stroke-linejoin:round;stroke-miterlimit:4;stroke-dasharray:none;stroke-opacity:0.98156684"
       d="M 43.878641,23.999898 C 43.878641,34.979024 34.979126,43.878539 24,43.878539 13.020874,43.878539 4.1213592,34.979024 4.1213592,23.999898 4.1213592,13.020772 13.020874,4.1212576 24,4.1212576 c 10.979126,0 19.878641,8.8995144 19.878641,19.8786404 z"
       inkscape:connector-curvature="0" />
    <path
       id="path2555-7-1-7"
       style="color:#000000;opacity:1;fill:none;fill-opacity:1;stroke:#ffffff;stroke-width:0.2038835;stroke-linecap:round;stroke-linejoin:round;stroke-miterlimit:4;stroke-dasharray:none;stroke-opacity:1"
       d="M 24,3.1019421 C 12.469369,3.1019421 3.1019417,12.469165 3.1019417,24 3.1019417,35.530835 12.469165,44.898058 24,44.898058 35.530835,44.898058 44.898058,35.530835 44.898058,24 44.898058,12.469165 35.530631,3.1019421 24,3.1019421 Z"
       inkscape:connector-curvature="0" />
    <g
       id="g4317"
       transform="matrix(1.0002,0,0,1.0004,-1.0018,-0.0050486)"
       style="fill:none;stroke:#000000;stroke-linecap:round;stroke-linejoin:round" />
    <path
       style="fill:#ffffff;fill-opacity:1;stroke:none;stroke-width:2.22222233;stroke-linecap:butt;stroke-linejoin:miter;stroke-miterlimit:4;stroke-dasharray:none;stroke-dashoffset:0;stroke-opacity:1"
       d="m -24.901323,4.491098 -0.833333,4.166668 -0.833333,4.166667 h 1 v 1.671875 h 1.333333 v -1.671875 h 1 l -0.833333,-4.166667 z"
       id="path2220"
       inkscape:connector-curvature="0" />
    <path
       style="fill:#f2f2f2;fill-opacity:1;stroke:none;stroke-width:2.22222233;stroke-linecap:butt;stroke-linejoin:miter;stroke-miterlimit:4;stroke-dasharray:none;stroke-dashoffset:0;stroke-opacity:1"
       d="m -18.548022,4.403734 -0.833334,4.166666 -0.833333,4.166667 h 1 v 1.671875 h 1.333333 v -1.671875 h 1 L -17.714689,8.5704 Z"
       id="path2240"
       inkscape:connector-curvature="0" />
    <path
       id="path2262"
       style="fill:#ffffff;fill-opacity:1;fill-rule:evenodd;stroke:none;stroke-width:0.10657062;stroke-linecap:butt;stroke-linejoin:round;stroke-dasharray:none;stroke-opacity:1"
       d="m -25.49003,2.735383 -0.25843,0.431611 -0.135883,-0.301061 -0.290401,0.133214 0.229128,0.500881 -0.412966,0.692708 -0.151859,-0.367667 0.173172,-0.1865 -0.234452,-0.218469 -0.0746,0.07993 -0.05062,-0.122556 -0.295739,0.119892 0.03997,0.09858 -0.06927,-0.01066 -0.05329,0.31705 0.269089,0.04263 0.24245,0.591467 -0.263767,0.442266 -0.0373,-0.09325 -0.2984,0.114562 0.127887,0.327705 -0.282412,0.471575 -0.210475,-0.367669 0.210475,-0.357011 -0.274416,-0.16252 -0.119897,0.202483 -0.247773,-0.431611 0.415628,-0.684716 0.335697,-0.01865 -0.01866,-0.319711 -0.117228,0.0053 0.117228,-0.191825 -0.274414,-0.165187 -0.127886,0.210478 -0.05861,-0.101241 -0.277083,0.159855 0.143872,0.25577 -0.322381,0.532852 -0.474241,-0.825922 0.2238,-0.514203 -0.2904,-0.127886 -0.130556,0.301064 -0.226458,-0.391647 c -0.09237,0.05328 -0.184725,0.106569 -0.277083,0.159855 l 0.250441,0.434275 -0.330369,-0.02664 -0.02398,0.317048 0.548839,0.04529 0.402308,0.698039 -0.394311,-0.04529 -0.07993,-0.245112 -0.303725,0.09858 0.03463,0.10657 -0.133214,-0.01598 -0.0373,0.317047 0.106572,0.01332 -0.04529,0.05595 0.247772,0.19982 0.170514,-0.213142 0.634095,0.0746 0.255769,0.444933 -0.09857,-0.01332 -0.04263,0.317048 0.343686,0.04796 0.290411,0.506211 -0.452925,-0.0053 -0.202486,-0.362343 -0.279753,0.154528 0.1119,0.202483 -0.495553,-0.0027 -0.380986,-0.703366 0.154528,-0.301062 -0.28508,-0.146536 -0.05329,0.103909 -0.106569,-0.197156 -0.282414,0.151861 0.119897,0.21847 h -0.119897 l -0.0027,0.319714 0.295728,0.0027 0.295739,0.548838 -0.953809,-0.008 -0.330366,-0.452925 -0.258439,0.1865 0.191828,0.263762 -0.450259,-0.0027 -0.0027,0.319711 0.50355,0.0027 -0.191827,0.271752 0.261097,0.183837 0.317044,-0.450262 0.807275,0.0053 -0.239783,0.317048 -0.250439,-0.05595 -0.06927,0.311719 0.106569,0.02398 -0.07993,0.106572 0.253103,0.194492 0.06394,-0.08526 0.02664,0.06661 0.301067,-0.114564 -0.09858,-0.253105 0.386322,-0.508875 0.514197,0.0053 -0.06127,0.07726 0.250441,0.199822 0.2158,-0.27442 0.415625,0.0027 -0.245113,0.436934 h -0.415625 v 0.319712 h 0.234453 l -0.245111,0.434275 -0.801939,-0.008 -0.1865,-0.279748 -0.266425,0.175842 0.06394,0.09858 -0.223797,-0.0027 -0.0027,0.319711 0.247781,0.0027 -0.05861,0.103906 0.277083,0.157191 0.146531,-0.258433 0.626108,0.008 -0.468911,0.831253 -0.559497,0.06661 0.03996,0.317041 0.325038,-0.03996 -0.22113,0.394311 0.277086,0.157192 0.247772,-0.436939 0.141208,0.295733 0.287742,-0.138542 -0.239784,-0.495552 0.394311,-0.700703 0.162517,0.362341 -0.170514,0.191825 0.239784,0.210478 0.07194,-0.08259 0.05595,0.12522 0.293069,-0.130548 -0.04263,-0.09858 0.06927,0.01066 0.04529,-0.317047 -0.269094,-0.03996 -0.258431,-0.580811 0.2531,-0.450258 0.03997,0.09325 0.295728,-0.122556 -0.135872,-0.322375 0.25843,-0.455591 0.247781,0.428947 -0.1865,0.327705 0.277083,0.157192 0.09591,-0.165183 0.250442,0.434275 -0.380995,0.647416 -0.335697,0.02398 0.02131,0.317048 0.119897,-0.008 -0.117227,0.197155 0.277083,0.159856 0.125217,-0.213142 0.06128,0.101242 0.274417,-0.16252 -0.1492,-0.255769 0.287741,-0.487561 0.484898,0.839244 -0.189159,0.447595 0.295728,0.125222 0.09591,-0.226464 0.162525,0.282414 0.277083,-0.162522 -0.234455,-0.407631 0.4023,0.02931 0.02398,-0.319711 -0.602125,-0.03996 c -0.0053,-5.36e-4 -0.01065,0 -0.01599,0 l -0.404966,-0.69804 0.455583,0.04796 0.07993,0.245112 0.303728,-0.103906 -0.03463,-0.103906 0.133214,0.01332 0.03463,-0.317047 -0.109231,-0.01065 0.04529,-0.05861 -0.2531,-0.197155 -0.167853,0.215805 -0.684714,-0.07194 -0.255769,-0.442269 0.143872,0.01865 0.03996,-0.317048 -0.386314,-0.05062 -0.239783,-0.415625 0.474239,-0.01066 0.213142,0.354347 0.274414,-0.162519 -0.119887,-0.202486 0.498214,-0.01066 0.402309,0.692708 -0.146539,0.303728 0.287739,0.138542 0.05063,-0.109236 0.114561,0.197155 0.277083,-0.159855 -0.125217,-0.215806 0.117228,-0.0027 -0.0053,-0.319711 -0.295739,0.0053 -0.311714,-0.53818 0.951136,-0.02132 0.343694,0.444933 0.253103,-0.194491 -0.199817,-0.261098 0.450259,-0.01066 -0.008,-0.319711 -0.498223,0.01066 0.18117,-0.271755 -0.269086,-0.175842 -0.301067,0.458253 -0.809937,0.01865 0.231795,-0.322375 0.253103,0.04795 0.05861,-0.314383 -0.109234,-0.02132 0.07993,-0.109236 -0.2611,-0.186497 -0.06394,0.08792 -0.02664,-0.06661 -0.295739,0.122556 0.10657,0.250441 -0.370328,0.522197 -0.516867,0.01332 0.06128,-0.08259 -0.255772,-0.191828 -0.210472,0.282414 -0.554167,0.01332 0.333028,-0.55683 0.412967,0.008 0.008,-0.319711 -0.231786,-0.0053 0.25577,-0.426284 0.799278,0.02931 0.178502,0.282411 0.271756,-0.170513 -0.06128,-0.09858 0.223797,0.008 0.01066,-0.319711 -0.250441,-0.008 0.06127,-0.101242 -0.271756,-0.16785 -0.151858,0.255769 -0.623439,-0.02398 0.487555,-0.817927 0.559498,-0.05328 -0.02931,-0.319711 -0.327708,0.03197 0.231794,-0.386317 z"
       inkscape:connector-curvature="0" />
    <path
       style="fill:#ffffff;fill-opacity:1;stroke:none;stroke-width:2.22222233;stroke-linecap:butt;stroke-linejoin:miter;stroke-miterlimit:4;stroke-dasharray:none;stroke-dashoffset:0;stroke-opacity:1;filter:url(#filter266)"
       d="m -18.548023,4.403733 -0.833333,4.166667 -0.833333,4.166667 h 1 v 1.671875 h 1.333333 v -1.671875 h 1 L -17.714689,8.5704 Z"
       id="path2220-3"
       inkscape:connector-curvature="0" />
    <path
       style="fill:#ffffff;fill-opacity:1;stroke:none;stroke-width:2.22222233;stroke-linecap:butt;stroke-linejoin:miter;stroke-miterlimit:4;stroke-dasharray:none;stroke-dashoffset:0;stroke-opacity:1"
       d="m -20.881356,2.731857 -0.833333,4.166668 -0.833333,4.166667 h 1 v 1.671874 h 1.333333 v -1.671874 h 1 l -0.833333,-4.166667 z"
       id="path2220-6"
       inkscape:connector-curvature="0" />
    <g
       transform="matrix(0.6346604,0,0,0.70273172,7.9642921,6.6090745)"
       style="opacity:0.15;fill:none;stroke:#000000;stroke-width:3.05292821;stroke-linecap:round;stroke-linejoin:round"
       id="g4241">
      <path
         inkscape:connector-curvature="0"
         id="path4243"
         d="M 25,12 9,14 v 22 l 16,2 z M 12.107,19 H 13.5 l 2,4 2.5,-4 h 1.893 L 17,25 l 3,6 h -2 l -2.5,-4 -2,4 H 12 l 2.5,-6 z"
         style="stroke-width:3.05292821" />
      <path
         style="opacity:1;stroke-width:3.05292821"
         inkscape:connector-curvature="0"
         id="path4245"
         d="m 26,16 v 0.5 0.5 2 1 2 1 2 1 2 1 2 1 2 0.5 0.5 H 38 V 16 Z m 1,1 H 29.266 31 v 2 H 29.266 27 Z m 5,0 h 5 v 2 h -5 z m -5,3 H 29.266 31 v 2 H 29.266 27 Z m 5,0 h 5 v 2 h -5 z m -5,3 H 29.266 31 v 2 H 29.266 27 Z m 5,0 h 5 v 2 h -5 z m -5,3 H 29.266 31 v 2 H 29.266 27 Z m 5,0 h 5 v 2 h -5 z m -5,3 H 29.266 31 v 2 H 29.266 27 Z m 5,0 h 5 v 2 h -5 z m -5,3 H 29.266 31 v 2 H 29.266 27 Z m 5,0 h 5 v 2 h -5 z" />
    </g>
    <g
       transform="matrix(0.6346604,0,0,0.70273172,7.9642921,6.6090745)"
       style="opacity:0.15;fill:none;stroke:#000000;stroke-width:1.5264641;stroke-linecap:round;stroke-linejoin:round"
       id="g4247">
      <path
         inkscape:connector-curvature="0"
         id="path4249"
         d="M 25,12 9,14 v 22 l 16,2 z M 12.107,19 H 13.5 l 2,4 2.5,-4 h 1.893 L 17,25 l 3,6 h -2 l -2.5,-4 -2,4 H 12 l 2.5,-6 z"
         style="stroke-width:1.5264641" />
      <path
         style="opacity:1;stroke-width:1.5264641"
         inkscape:connector-curvature="0"
         id="path4251"
         d="m 26,16 v 0.5 0.5 2 1 2 1 2 1 2 1 2 1 2 0.5 0.5 H 38 V 16 Z m 1,1 H 29.266 31 v 2 H 29.266 27 Z m 5,0 h 5 v 2 h -5 z m -5,3 H 29.266 31 v 2 H 29.266 27 Z m 5,0 h 5 v 2 h -5 z m -5,3 H 29.266 31 v 2 H 29.266 27 Z m 5,0 h 5 v 2 h -5 z m -5,3 H 29.266 31 v 2 H 29.266 27 Z m 5,0 h 5 v 2 h -5 z m -5,3 H 29.266 31 v 2 H 29.266 27 Z m 5,0 h 5 v 2 h -5 z m -5,3 H 29.266 31 v 2 H 29.266 27 Z m 5,0 h 5 v 2 h -5 z" />
    </g>
    <g
       transform="matrix(0.6346604,0,0,0.70273172,7.9642921,6.6090745)"
       style="fill:#ffffff;stroke-width:1.5264641"
       id="g4237">
      <path
         inkscape:connector-curvature="0"
         id="path4218"
         d="M 25,12 9,14 v 22 l 16,2 z M 12.107,19 H 13.5 l 2,4 2.5,-4 h 1.893 L 17,25 l 3,6 h -2 l -2.5,-4 -2,4 H 12 l 2.5,-6 z"
         style="stroke-width:1.5264641" />
      <path
         inkscape:connector-curvature="0"
         id="rect4386"
         d="m 26,16 v 0.5 0.5 2 1 2 1 2 1 2 1 2 1 2 0.5 0.5 H 38 V 16 Z m 1,1 H 29.266 31 v 2 H 29.266 27 Z m 5,0 h 5 v 2 h -5 z m -5,3 H 29.266 31 v 2 H 29.266 27 Z m 5,0 h 5 v 2 h -5 z m -5,3 H 29.266 31 v 2 H 29.266 27 Z m 5,0 h 5 v 2 h -5 z m -5,3 H 29.266 31 v 2 H 29.266 27 Z m 5,0 h 5 v 2 h -5 z m -5,3 H 29.266 31 v 2 H 29.266 27 Z m 5,0 h 5 v 2 h -5 z m -5,3 H 29.266 31 v 2 H 29.266 27 Z m 5,0 h 5 v 2 h -5 z"
         style="stroke-width:1.5264641" />
    </g>
  </g>
</svg>
