<?xml version="1.0" encoding="UTF-8" standalone="no"?>
<!-- Created with Inkscape (http://www.inkscape.org/) -->

<svg
   xmlns:dc="http://purl.org/dc/elements/1.1/"
   xmlns:cc="http://creativecommons.org/ns#"
   xmlns:rdf="http://www.w3.org/1999/02/22-rdf-syntax-ns#"
   xmlns:svg="http://www.w3.org/2000/svg"
   xmlns="http://www.w3.org/2000/svg"
   xmlns:xlink="http://www.w3.org/1999/xlink"
   xmlns:sodipodi="http://sodipodi.sourceforge.net/DTD/sodipodi-0.dtd"
   xmlns:inkscape="http://www.inkscape.org/namespaces/inkscape"
   id="svg4061"
   height="48"
   width="48"
   version="1.1"
   inkscape:version="0.92.2 (unknown)"
   sodipodi:docname="ms-word.svg">
  <sodipodi:namedview
     pagecolor="#ffffff"
     bordercolor="#666666"
     borderopacity="1"
     objecttolerance="10"
     gridtolerance="10"
     guidetolerance="10"
     inkscape:pageopacity="0"
     inkscape:pageshadow="2"
     inkscape:window-width="1558"
     inkscape:window-height="963"
     id="namedview40"
     showgrid="false"
     inkscape:zoom="9.8333333"
     inkscape:cx="-5.8983058"
     inkscape:cy="25.261858"
     inkscape:window-x="500"
     inkscape:window-y="247"
     inkscape:window-maximized="0"
     inkscape:current-layer="g4206" />
  <defs
     id="defs4063">
    <linearGradient
       inkscape:collect="always"
       id="linearGradient3361">
      <stop
         style="stop-color:#0068e0;stop-opacity:1;"
         offset="0"
         id="stop3363" />
      <stop
         style="stop-color:#00acf4;stop-opacity:1"
         offset="1"
         id="stop3365" />
    </linearGradient>
    <linearGradient
       id="linearGradient3026"
       y2="40.495998"
       gradientUnits="userSpaceOnUse"
       x2="71.204002"
       gradientTransform="matrix(1.5867757,0,0,1.5867757,-90.525561,-20.217856)"
       y1="15.369"
       x1="71.204002"
       spreadMethod="pad">
      <stop
         id="stop4808-4"
         stop-color="#fff"
         offset="0" />
      <stop
         id="stop4810-0"
         stop-color="#fff"
         stop-opacity=".23529"
         offset=".42448" />
      <stop
         id="stop4812-8"
         stop-color="#fff"
         stop-opacity=".15686"
         offset=".82090" />
      <stop
         id="stop4814-0"
         stop-color="#fff"
         stop-opacity=".39216"
         offset="1" />
    </linearGradient>
    <radialGradient
       id="radialGradient3029"
       fx="4.459"
       fy="8.5089"
       gradientUnits="userSpaceOnUse"
       cy="8.6258"
       cx="15.026"
       gradientTransform="matrix(-3.4973e-8 1.8855 -1.7764 -5.4723e-8 39.14 -7.9932)"
       r="20">
      <stop
         id="stop4170"
         stop-color="#c24251"
         offset="0" />
      <stop
         id="stop4172"
         stop-color="#c24251"
         offset=".26238" />
      <stop
         id="stop4174"
         stop-color="#a63643"
         offset=".66094" />
      <stop
         id="stop4176"
         stop-color="#a63643"
         offset="1" />
    </radialGradient>
    <radialGradient
       id="radialGradient3032"
       gradientUnits="userSpaceOnUse"
       cy="3.99"
       cx="23.896"
       gradientTransform="matrix(0,2.8345093,-3.7415327,0,38.928645,-64.268791)"
       r="20.397">
      <stop
         id="stop3244-9-33-7-0-9"
         stop-color="#fff"
         offset="0" />
      <stop
         id="stop3246-3-5-0-8-5"
         stop-color="#ddd"
         offset=".26238" />
      <stop
         id="stop3248-1-7-8-8-1"
         stop-color="#abacae"
         offset=".66094" />
      <stop
         id="stop3250-9-3-0-5-1"
         stop-color="#89898b"
         offset="1" />
    </radialGradient>
    <radialGradient
       id="radialGradient3035"
       gradientUnits="userSpaceOnUse"
       cy="186.17"
       cx="99.157"
       gradientTransform="matrix(0.27083,0,0,0.087623,-2.8551,26.187)"
       r="62.769">
      <stop
         id="stop3822-2-6-3"
         stop-color="#3d3d3d"
         offset="0" />
      <stop
         id="stop3864-8-7-7"
         stop-color="#686868"
         stop-opacity=".49804"
         offset=".5" />
      <stop
         id="stop3824-1-2-5"
         stop-color="#686868"
         stop-opacity="0"
         offset="1" />
    </radialGradient>
    <linearGradient
       id="linearGradient4433"
       y2="25.611"
       gradientUnits="userSpaceOnUse"
       x2="23.078"
       gradientTransform="matrix(1 0 0 1.0521 0 -.90547)"
       y1="13.035"
       x1="22.759">
      <stop
         id="stop6305-1-0-2"
         stop-color="#fff"
         offset="0" />
      <stop
         id="stop6307-5-0-6"
         stop-color="#fff"
         stop-opacity="0"
         offset="1" />
    </linearGradient>
    <linearGradient
       inkscape:collect="always"
       xlink:href="#linearGradient3361"
       id="linearGradient3367"
       x1="25.016949"
       y1="36"
       x2="25.016951"
       y2="9.7627115"
       gradientUnits="userSpaceOnUse"
       gradientTransform="matrix(0.98130841,0,0,0.98130842,0.44859805,0.44849993)" />
    <linearGradient
       id="linearGradient4829">
      <stop
         style="stop-color:#f4fbfc;stop-opacity:1;"
         offset="0"
         id="stop4831" />
      <stop
         style="stop-color:#d6d6d6;stop-opacity:1;"
         offset="1"
         id="stop4833" />
    </linearGradient>
    <radialGradient
       id="SVGID_4_"
       cx="224.50391"
       cy="186.51421"
       r="127.0051"
       gradientUnits="userSpaceOnUse">
      <stop
         offset="0"
         style="stop-color:#FFFFFF"
         id="stop27" />
      <stop
         offset="0.3984"
         style="stop-color:#FDFEFF"
         id="stop29" />
      <stop
         offset="0.6131"
         style="stop-color:#F5FAFF"
         id="stop31" />
      <stop
         offset="0.7841"
         style="stop-color:#E7F3FF"
         id="stop33" />
      <stop
         offset="0.9311"
         style="stop-color:#D4EAFF"
         id="stop35" />
      <stop
         offset="1"
         style="stop-color:#C8E4FF"
         id="stop37" />
    </radialGradient>
    <radialGradient
       gradientUnits="userSpaceOnUse"
       r="26.769501"
       cy="286.66409"
       cx="324.69339"
       id="SVGID_5_">
      <stop
         id="stop50"
         style="stop-color:#FFFFFF"
         offset="0" />
      <stop
         id="stop52"
         style="stop-color:#FDFEFF"
         offset="0.3984" />
      <stop
         id="stop54"
         style="stop-color:#F5FAFF"
         offset="0.6131" />
      <stop
         id="stop56"
         style="stop-color:#E7F3FF"
         offset="0.7841" />
      <stop
         id="stop58"
         style="stop-color:#D4EAFF"
         offset="0.9311" />
      <stop
         id="stop60"
         style="stop-color:#a8e4ff;stop-opacity:0.63849765"
         offset="1" />
    </radialGradient>
    <radialGradient
       gradientUnits="userSpaceOnUse"
       r="46.444901"
       cy="392.77249"
       cx="325"
       id="SVGID_6_">
      <stop
         id="stop73"
         style="stop-color:#FFFFFF"
         offset="0" />
      <stop
         id="stop75"
         style="stop-color:#FDFEFF"
         offset="0.3984" />
      <stop
         id="stop77"
         style="stop-color:#F5FAFF"
         offset="0.6131" />
      <stop
         id="stop79"
         style="stop-color:#E7F3FF"
         offset="0.7841" />
      <stop
         id="stop81"
         style="stop-color:#D4EAFF"
         offset="0.9311" />
      <stop
         id="stop83"
         style="stop-color:#C8E4FF"
         offset="1" />
    </radialGradient>
    <linearGradient
       id="linearGradient4026"
       y2="422.66"
       xlink:href="#radialGradient3093-0-3-6-3"
       gradientUnits="userSpaceOnUse"
       x2="612.70001"
       gradientTransform="matrix(0.49668,0,0,0.50834,-243.58,-210.24)"
       y1="479.70001"
       x1="612.70001" />
    <radialGradient
       id="radialGradient3093-0-3-6-3"
       gradientUnits="userSpaceOnUse"
       cy="3.99"
       cx="23.896"
       gradientTransform="matrix(0,1.2316,-1.6258,0,18.487,-28.722)"
       r="20.396999">
      <stop
         id="stop3244-9-33-7-0-6"
         stop-color="#9cdd66"
         offset="0" />
      <stop
         id="stop3248-1-7-8-8-6"
         stop-color="#386727"
         offset=".66094" />
      <stop
         id="stop3250-9-3-0-5-2"
         stop-color="#2e5527"
         offset="1" />
    </radialGradient>
    <linearGradient
       id="linearGradient4028"
       y2="422.66"
       xlink:href="#radialGradient3093-0-3-6-3"
       gradientUnits="userSpaceOnUse"
       x2="612.70001"
       gradientTransform="matrix(0.49668,0,0,0.50834,-243.58,-210.24)"
       y1="477.73999"
       x1="612.70001" />
    <radialGradient
       id="radialGradient4487"
       gradientUnits="userSpaceOnUse"
       cy="3.99"
       cx="23.896"
       gradientTransform="matrix(0,1.2316,-1.6258,0,18.487,-28.722)"
       r="20.396999">
      <stop
         id="stop4481"
         stop-color="#9cdd66"
         offset="0" />
      <stop
         id="stop4483"
         stop-color="#386727"
         offset=".66094" />
      <stop
         id="stop4485"
         stop-color="#2e5527"
         offset="1" />
    </radialGradient>
    <filter
       style="color-interpolation-filters:sRGB"
       inkscape:label="Drop Shadow"
       id="filter3460">
      <feFlood
         flood-opacity="0.498039"
         flood-color="rgb(0,0,0)"
         result="flood"
         id="feFlood3462" />
      <feComposite
         in="flood"
         in2="SourceGraphic"
         operator="in"
         result="composite1"
         id="feComposite3464" />
      <feGaussianBlur
         in="composite1"
         stdDeviation="0"
         result="blur"
         id="feGaussianBlur3466" />
      <feOffset
         dx="1"
         dy="2"
         result="offset"
         id="feOffset3468" />
      <feComposite
         in="SourceGraphic"
         in2="offset"
         operator="over"
         result="composite2"
         id="feComposite3470" />
    </filter>
  </defs>
  <metadata
     id="metadata4066">
    <rdf:RDF>
      <cc:Work
         rdf:about="">
        <dc:format>image/svg+xml</dc:format>
        <dc:type
           rdf:resource="http://purl.org/dc/dcmitype/StillImage" />
        <dc:title />
      </cc:Work>
    </rdf:RDF>
  </metadata>
  <g
     id="g4206">
    <path
       id="path3818-0-5"
       d="m 41,42.5 a 17,5.5000001 0 0 1 -34,0 17,5.5000001 0 1 1 34,0 z"
       inkscape:connector-curvature="0"
       style="fill:url(#radialGradient3035)" />
    <path
       id="path2555-7-2"
       style="color:#000000;fill:url(#radialGradient3032);stroke-width:0.9813084"
       d="m 24,3.8830794 c -11.099579,0 -20.1168225,9.0172426 -20.1168225,20.1168226 0,11.099579 9.0172435,20.116822 20.1168225,20.116822 11.099579,0 20.116822,-9.017243 20.116822,-20.116822 C 44.116822,12.900322 35.099579,3.8830794 24,3.8830794 Z"
       inkscape:connector-curvature="0" />
    <path
       id="path2555-7-65"
       style="color:#000000;fill:url(#linearGradient3367);fill-opacity:1;stroke-width:0.9813084"
       d="m 24,3.8830794 c -11.099579,0 -20.1168225,9.0172426 -20.1168225,20.1168226 0,11.099579 9.0172435,20.116822 20.1168225,20.116822 11.099579,0 20.116822,-9.017243 20.116822,-20.116822 C 44.116822,12.900322 35.099579,3.8830794 24,3.8830794 Z"
       inkscape:connector-curvature="0" />
    <path
       id="path4176"
       style="color:#000000;opacity:0.5;fill:none;stroke:url(#linearGradient3026);stroke-width:0.9813084;stroke-linecap:round;stroke-linejoin:round"
       d="M 43.135514,23.999902 C 43.135514,34.568593 34.568692,43.135416 24,43.135416 13.431308,43.135416 4.8644859,34.568593 4.8644859,23.999902 4.8644859,13.43121 13.431308,4.8643879 24,4.8643879 c 10.568692,0 19.135514,8.5668221 19.135514,19.1355141 z"
       inkscape:connector-curvature="0" />
    <path
       id="path2555-7-1-7"
       style="color:#000000;opacity:1;fill:none;fill-opacity:1;stroke:#fbfbfb;stroke-width:1.76635504;stroke-linecap:round;stroke-linejoin:round;stroke-miterlimit:4;stroke-dasharray:none;stroke-opacity:1"
       d="M 24,3.8831775 C 12.900421,3.8831775 3.8831775,12.900224 3.8831775,24 3.8831775,35.099776 12.900224,44.116822 24,44.116822 35.099776,44.116822 44.116822,35.099776 44.116822,24 44.116822,12.900224 35.099579,3.8831775 24,3.8831775 Z"
       inkscape:connector-curvature="0" />
    <g
       id="g4317"
       transform="matrix(1.0002,0,0,1.0004,-1.0018,-0.0050486)"
       style="fill:none;stroke:#000000;stroke-linecap:round;stroke-linejoin:round" />
    <g
       id="g4476"
       transform="matrix(0.82486544,0,0,0.82109621,-1.6334256,4.3944874)"
       style="opacity:0.15;fill:none;stroke:#000000;stroke-width:3.22926068;stroke-linecap:round;stroke-linejoin:round">
      <path
         id="path4478"
         d="m 32,11 -16,2 v 22 l 16,2 z m -14,9 h 2.3867 l 1.291,5.5137 1.297,-5.514 h 2.05 l 1.291,5.457 1.297,-5.457 h 2.387 l -2.023,8 h -2.684 l -1.297,-5.5 -1.289,5.5 h -2.684 l -2.023,-8 z"
         inkscape:connector-curvature="0"
         style="stroke-width:3.22926068" />
      <path
         id="path4480"
         d="m 33,15 v 1 h 1 2.2656 7.734 v 2 h -7.734 -2.266 -1 v 1 h 1 2.2656 7.734 v 2 h -7.734 -2.266 -1 v 1 h 1 2.2656 7.734 v 2 h -7.734 -2.266 -1 v 1 h 1 2.2656 7.734 v 2 h -7.734 -2.266 -1 v 1 h 1 2.2656 7.734 v 2 h -7.734 -2.266 -1 v 1 h 1 2.2656 7.734 v 2 h -7.734 -2.266 -1 v 1 h 12 V 15 h -12 z"
         inkscape:connector-curvature="0"
         style="opacity:1;stroke-width:5.21406221" />
    </g>
    <g
       id="g4482"
       transform="matrix(0.82486544,0,0,0.82109621,-1.6334256,4.3944874)"
       style="opacity:0.15;fill:none;stroke:#000000;stroke-width:1.61463034;stroke-linecap:round;stroke-linejoin:round">
      <path
         id="path4484"
         d="m 32,11 -16,2 v 22 l 16,2 z m -14,9 h 2.3867 l 1.291,5.5137 1.297,-5.514 h 2.05 l 1.291,5.457 1.297,-5.457 h 2.387 l -2.023,8 h -2.684 l -1.297,-5.5 -1.289,5.5 h -2.684 l -2.023,-8 z"
         inkscape:connector-curvature="0"
         style="stroke-width:1.61463034" />
      <path
         id="path4486"
         d="m 33,15 v 1 h 1 2.2656 7.734 v 2 h -7.734 -2.266 -1 v 1 h 1 2.2656 7.734 v 2 h -7.734 -2.266 -1 v 1 h 1 2.2656 7.734 v 2 h -7.734 -2.266 -1 v 1 h 1 2.2656 7.734 v 2 h -7.734 -2.266 -1 v 1 h 1 2.2656 7.734 v 2 h -7.734 -2.266 -1 v 1 h 1 2.2656 7.734 v 2 h -7.734 -2.266 -1 v 1 h 12 V 15 h -12 z"
         inkscape:connector-curvature="0"
         style="opacity:1;stroke-width:2.60703111" />
    </g>
    <g
       id="g4472"
       transform="matrix(0.82486544,0,0,0.82109621,-1.6334256,4.3944874)"
       style="fill:#ffffff;stroke-width:1.61463034">
      <path
         id="path6"
         d="m 32,11 -16,2 v 22 l 16,2 z m -14,9 h 2.3867 l 1.291,5.5137 1.297,-5.514 h 2.05 l 1.291,5.457 1.297,-5.457 h 2.387 l -2.023,8 h -2.684 l -1.297,-5.5 -1.289,5.5 h -2.684 l -2.023,-8 z"
         inkscape:connector-curvature="0"
         style="stroke-width:1.61463034" />
      <path
         id="rect4386"
         d="m 33,15 v 1 h 1 2.2656 7.734 v 2 h -7.734 -2.266 -1 v 1 2 1 h 1 2.2656 7.734 v 2 h -7.734 -2.266 -1 v 1 2 1 h 1 2.2656 7.734 v 2 h -7.734 -2.266 -1 v 1 2 1 h 12 V 15 Z"
         inkscape:connector-curvature="0"
         style="stroke-width:1.61463034" />
    </g>
  </g>
</svg>
