<?xml version="1.0" encoding="UTF-8" standalone="no"?>
<!-- Created with Inkscape (http://www.inkscape.org/) -->

<svg
   xmlns:dc="http://purl.org/dc/elements/1.1/"
   xmlns:cc="http://creativecommons.org/ns#"
   xmlns:rdf="http://www.w3.org/1999/02/22-rdf-syntax-ns#"
   xmlns:svg="http://www.w3.org/2000/svg"
   xmlns="http://www.w3.org/2000/svg"
   xmlns:xlink="http://www.w3.org/1999/xlink"
   xmlns:sodipodi="http://sodipodi.sourceforge.net/DTD/sodipodi-0.dtd"
   xmlns:inkscape="http://www.inkscape.org/namespaces/inkscape"
   id="svg4061"
   height="48"
   width="48"
   version="1.1"
   inkscape:version="0.92.2 (unknown)"
   sodipodi:docname="nvidia.svg">
  <sodipodi:namedview
     pagecolor="#ffffff"
     bordercolor="#666666"
     borderopacity="1"
     objecttolerance="10"
     gridtolerance="10"
     guidetolerance="10"
     inkscape:pageopacity="0"
     inkscape:pageshadow="2"
     inkscape:window-width="2264"
     inkscape:window-height="1241"
     id="namedview40"
     showgrid="false"
     inkscape:zoom="9.8333333"
     inkscape:cx="-43.779104"
     inkscape:cy="12.983791"
     inkscape:window-x="296"
     inkscape:window-y="99"
     inkscape:window-maximized="0"
     inkscape:current-layer="svg4061" />
  <defs
     id="defs4063">
    <linearGradient
       inkscape:collect="always"
       id="linearGradient3897">
      <stop
         style="stop-color:#8bff66;stop-opacity:1"
         offset="0"
         id="stop3893" />
      <stop
         style="stop-color:#00811a;stop-opacity:1"
         offset="1"
         id="stop3895" />
    </linearGradient>
    <linearGradient
       id="linearGradient3851"
       inkscape:collect="always">
      <stop
         id="stop3847"
         offset="0"
         style="stop-color:#16c9f3;stop-opacity:1" />
      <stop
         id="stop3849"
         offset="1"
         style="stop-color:#1447d7;stop-opacity:1" />
    </linearGradient>
    <linearGradient
       inkscape:collect="always"
       id="linearGradient3361">
      <stop
         style="stop-color:#0068e0;stop-opacity:1;"
         offset="0"
         id="stop3363" />
      <stop
         style="stop-color:#00acf4;stop-opacity:1"
         offset="1"
         id="stop3365" />
    </linearGradient>
    <linearGradient
       id="linearGradient3026"
       y2="40.495998"
       gradientUnits="userSpaceOnUse"
       x2="71.204002"
       gradientTransform="matrix(1.617,0,0,1.617,-92.307,-21.4601)"
       y1="15.369"
       x1="71.204002"
       xlink:href="#linearGradient3361">
      <stop
         id="stop4808-4"
         stop-color="#fff"
         offset="0" />
      <stop
         id="stop4810-0"
         stop-color="#fff"
         stop-opacity=".23529"
         offset=".42448" />
      <stop
         id="stop4812-8"
         stop-color="#fff"
         stop-opacity=".15686"
         offset=".82090" />
      <stop
         id="stop4814-0"
         stop-color="#fff"
         stop-opacity=".39216"
         offset="1" />
    </linearGradient>
    <radialGradient
       id="radialGradient3029"
       fx="4.459"
       fy="8.5089"
       gradientUnits="userSpaceOnUse"
       cy="8.6258"
       cx="15.026"
       gradientTransform="matrix(-3.4973e-8 1.8855 -1.7764 -5.4723e-8 39.14 -7.9932)"
       r="20">
      <stop
         id="stop4170"
         stop-color="#c24251"
         offset="0"
         style="stop-color:#005500;stop-opacity:1" />
      <stop
         id="stop4172"
         stop-color="#c24251"
         offset=".26238" />
      <stop
         id="stop4174"
         stop-color="#a63643"
         offset=".66094" />
      <stop
         id="stop4176"
         stop-color="#a63643"
         offset="1"
         style="stop-color:#00ff00;stop-opacity:1" />
    </radialGradient>
    <radialGradient
       id="radialGradient3032"
       gradientUnits="userSpaceOnUse"
       cy="3.99"
       cx="23.896"
       gradientTransform="matrix(0,2.8885,-3.8128,0,39.613,-66.3501)"
       r="20.397">
      <stop
         id="stop3244-9-33-7-0-9"
         stop-color="#fff"
         offset="0" />
      <stop
         id="stop3246-3-5-0-8-5"
         stop-color="#ddd"
         offset=".26238" />
      <stop
         id="stop3248-1-7-8-8-1"
         stop-color="#abacae"
         offset=".66094" />
      <stop
         id="stop3250-9-3-0-5-1"
         stop-color="#89898b"
         offset="1" />
    </radialGradient>
    <radialGradient
       id="radialGradient3035"
       gradientUnits="userSpaceOnUse"
       cy="186.17"
       cx="99.157"
       gradientTransform="matrix(0.27083,0,0,0.087623,-2.8550998,26.187597)"
       r="62.769">
      <stop
         id="stop3822-2-6-3"
         stop-color="#3d3d3d"
         offset="0" />
      <stop
         id="stop3864-8-7-7"
         stop-color="#686868"
         stop-opacity=".49804"
         offset=".5" />
      <stop
         id="stop3824-1-2-5"
         stop-color="#686868"
         stop-opacity="0"
         offset="1" />
    </radialGradient>
    <linearGradient
       id="linearGradient4433"
       y2="25.611"
       gradientUnits="userSpaceOnUse"
       x2="23.078"
       gradientTransform="matrix(1 0 0 1.0521 0 -.90547)"
       y1="13.035"
       x1="22.759">
      <stop
         id="stop6305-1-0-2"
         stop-color="#fff"
         offset="0" />
      <stop
         id="stop6307-5-0-6"
         stop-color="#fff"
         stop-opacity="0"
         offset="1" />
    </linearGradient>
    <linearGradient
       inkscape:collect="always"
       xlink:href="#linearGradient3851"
       id="linearGradient3367"
       x1="25.016949"
       y1="36"
       x2="25.016951"
       y2="9.7627115"
       gradientUnits="userSpaceOnUse"
       gradientTransform="translate(0.39999998,-0.40009998)" />
    <linearGradient
       id="linearGradient4829">
      <stop
         style="stop-color:#f4fbfc;stop-opacity:1;"
         offset="0"
         id="stop4831" />
      <stop
         style="stop-color:#d6d6d6;stop-opacity:1;"
         offset="1"
         id="stop4833" />
    </linearGradient>
    <linearGradient
       id="linearGradient4213"
       y2="37.305"
       gradientUnits="userSpaceOnUse"
       x2="21.434999"
       y1="13.905"
       x1="21.511999">
      <stop
         id="stop2240"
         stop-color="#fff"
         offset="0" />
      <stop
         id="stop2242"
         stop-color="#fff"
         stop-opacity="0"
         offset="1" />
    </linearGradient>
    <linearGradient
       id="linearGradient4213-3"
       y2="37.305"
       gradientUnits="userSpaceOnUse"
       x2="21.434999"
       y1="13.905"
       x1="21.511999"
       gradientTransform="matrix(0.92935084,0,0,0.91541743,-58.07771,-1.935989)">
      <stop
         id="stop2240-6"
         stop-color="#fff"
         offset="0" />
      <stop
         id="stop2242-7"
         stop-color="#fff"
         stop-opacity="0"
         offset="1" />
    </linearGradient>
    <linearGradient
       inkscape:collect="always"
       xlink:href="#linearGradient3897"
       id="linearGradient3857"
       x1="30.500305"
       y1="14.233865"
       x2="30.414944"
       y2="33.555897"
       gradientUnits="userSpaceOnUse"
       gradientTransform="translate(-0.81355926,-0.30508475)" />
    <linearGradient
       inkscape:collect="always"
       xlink:href="#linearGradient3897"
       id="linearGradient3865"
       x1="24.5"
       y1="3.5694413"
       x2="24.652542"
       y2="43.533897"
       gradientUnits="userSpaceOnUse" />
    <linearGradient
       inkscape:collect="always"
       xlink:href="#linearGradient3897"
       id="linearGradient3881"
       x1="-30.337086"
       y1="13.503187"
       x2="-30.547607"
       y2="34.045559"
       gradientUnits="userSpaceOnUse"
       gradientTransform="translate(56.949153,-0.30508475)" />
  </defs>
  <metadata
     id="metadata4066">
    <rdf:RDF>
      <cc:Work
         rdf:about="">
        <dc:format>image/svg+xml</dc:format>
        <dc:type
           rdf:resource="http://purl.org/dc/dcmitype/StillImage" />
        <dc:title />
      </cc:Work>
    </rdf:RDF>
  </metadata>
  <path
     style="fill:url(#radialGradient3035)"
     inkscape:connector-curvature="0"
     d="m 41,42.500597 a 17,5.5 0 0 1 -33.9999998,0 17,5.5 0 1 1 33.9999998,0 z"
     id="path3818-0-5" />
  <path
     inkscape:connector-curvature="0"
     d="m 24.4,3.0999 c -11.311,0 -20.5,9.189 -20.5,20.5 0,11.311 9.189,20.5 20.5,20.5 11.311,0 20.5,-9.189 20.5,-20.5 0,-11.311 -9.189,-20.5 -20.5,-20.5 z"
     style="color:#000000;fill:url(#radialGradient3032)"
     id="path2555-7-2" />
  <path
     inkscape:connector-curvature="0"
     d="m 24.4,3.0999 c -11.311,0 -20.5,9.189 -20.5,20.5 0,11.311 9.189,20.5 20.5,20.5 11.311,0 20.5,-9.189 20.5,-20.5 0,-11.311 -9.189,-20.5 -20.5,-20.5 z"
     style="color:#000000;fill:url(#linearGradient3367);fill-opacity:1"
     id="path2555-7-65" />
  <path
     inkscape:connector-curvature="0"
     d="m 43.9,23.5999 c 0,10.77 -8.73,19.5 -19.5,19.5 -10.77,0 -19.5,-8.73 -19.5,-19.5 0,-10.77 8.73,-19.5 19.5,-19.5 10.77,0 19.5,8.73 19.5,19.5 z"
     style="color:#000000;opacity:0.5;fill:none;stroke:url(#linearGradient3026);stroke-linecap:round;stroke-linejoin:round"
     id="path4176" />
  <path
     inkscape:connector-curvature="0"
     d="M 24.5,3.5694412 C 13.503194,3.5694412 4.5694444,12.503 4.5694444,23.5 4.5694444,34.497 13.503,43.430556 24.5,43.430556 35.497,43.430556 44.430556,34.497 44.430556,23.5 44.430556,12.503 35.496806,3.5694412 24.5,3.5694412 Z"
     style="color:#000000;opacity:1;fill:#2b2b2b;fill-opacity:1;stroke:url(#linearGradient3865);stroke-width:2.13888884;stroke-linecap:round;stroke-linejoin:round;stroke-miterlimit:4;stroke-dasharray:none;stroke-opacity:1"
     id="path2555-7-1-7" />
  <g
     style="fill:none;stroke:#000000;stroke-linecap:round;stroke-linejoin:round"
     transform="matrix(1.0002,0,0,1.0004,-1.0018,-0.0050486)"
     id="g4317" />
  <path
     style="fill:url(#linearGradient3881);fill-opacity:1;stroke:url(#linearGradient3857);stroke-width:0;stroke-miterlimit:4;stroke-dasharray:none"
     inkscape:connector-curvature="0"
     id="path21-5"
     d="m 12.70479,22.621789 c 0,0 2.520678,-3.690871 7.553671,-4.072692 v -1.339073 c -5.575176,0.443978 -10.4022233,5.13 -10.4022233,5.13 0,0 2.7341493,7.84412 10.4022233,8.562357 V 29.47909 C 14.631334,28.776552 12.70479,22.621881 12.70479,22.621881 Z m 7.553671,4.026555 v 1.303463 c -4.252803,-0.752446 -5.433357,-5.139794 -5.433357,-5.139794 0,0 2.041969,-2.244878 5.433357,-2.60894 v 1.43034 c -0.0021,0 -0.0035,-7.42e-4 -0.0054,-7.42e-4 -1.779985,-0.211984 -3.17048,1.438212 -3.17048,1.438212 0,0 0.779372,2.778017 3.176986,3.577543 m 0,-11.90775 v 2.469796 c 0.163649,-0.01233 0.327299,-0.02289 0.49184,-0.02845 6.337801,-0.211983 10.467279,5.15856 10.467279,5.15856 0,0 -4.742849,5.723465 -9.683836,5.723465 -0.452863,0 -0.876824,-0.04171 -1.275069,-0.1117 v 1.527283 c 0.340514,0.04284 0.693574,0.06814 1.061969,0.06814 4.598149,0 7.923459,-2.330469 11.142916,-5.088714 0.533857,0.424306 2.719374,1.456521 3.168715,1.908371 -3.061468,2.543671 -10.196837,4.594206 -14.241372,4.594206 -0.3899,0 -0.764364,-0.02341 -1.132414,-0.05865 v 2.146104 H 37.736976 V 14.74074 H 20.259604 Z m 0,5.462936 v -1.653976 c 0.161967,-0.0095 0.32517,-0.01983 0.49184,-0.02511 4.557537,-0.142073 7.547537,3.886771 7.547537,3.886771 0,0 -3.229494,4.451217 -6.692162,4.451217 -0.498337,0 -0.94515,-0.07946 -1.34728,-0.213658 v -5.014931 c 1.774223,0.212761 2.131373,0.990573 3.197989,2.755223 l 2.372354,-1.985266 c 0,0 -1.731753,-2.254032 -4.651122,-2.254032 -0.317327,-1.07e-4 -0.620983,0.02206 -0.919156,0.05356" />
</svg>
