<?xml version="1.0" encoding="UTF-8" standalone="no"?>
<!-- Created with Inkscape (http://www.inkscape.org/) -->

<svg
   xmlns:dc="http://purl.org/dc/elements/1.1/"
   xmlns:cc="http://creativecommons.org/ns#"
   xmlns:rdf="http://www.w3.org/1999/02/22-rdf-syntax-ns#"
   xmlns:svg="http://www.w3.org/2000/svg"
   xmlns="http://www.w3.org/2000/svg"
   xmlns:xlink="http://www.w3.org/1999/xlink"
   xmlns:sodipodi="http://sodipodi.sourceforge.net/DTD/sodipodi-0.dtd"
   xmlns:inkscape="http://www.inkscape.org/namespaces/inkscape"
   id="svg4061"
   height="48"
   width="48"
   version="1.1"
   inkscape:version="0.92.2 (unknown)"
   sodipodi:docname="pidgin.svg">
  <sodipodi:namedview
     pagecolor="#ffffff"
     bordercolor="#666666"
     borderopacity="1"
     objecttolerance="10"
     gridtolerance="10"
     guidetolerance="10"
     inkscape:pageopacity="0"
     inkscape:pageshadow="2"
     inkscape:window-width="1616"
     inkscape:window-height="1118"
     id="namedview40"
     showgrid="false"
     inkscape:zoom="14.864898"
     inkscape:cx="18.152872"
     inkscape:cy="21.26058"
     inkscape:window-x="492"
     inkscape:window-y="235"
     inkscape:window-maximized="0"
     inkscape:current-layer="g4206" />
  <defs
     id="defs4063">
    <linearGradient
       inkscape:collect="always"
       id="linearGradient4745">
      <stop
         style="stop-color:#7137c8;stop-opacity:1;"
         offset="0"
         id="stop4741" />
      <stop
         style="stop-color:#7137c8;stop-opacity:0;"
         offset="1"
         id="stop4743" />
    </linearGradient>
    <linearGradient
       inkscape:collect="always"
       id="linearGradient3361">
      <stop
         style="stop-color:#0068e0;stop-opacity:1;"
         offset="0"
         id="stop3363" />
      <stop
         style="stop-color:#00acf4;stop-opacity:1"
         offset="1"
         id="stop3365" />
    </linearGradient>
    <linearGradient
       id="linearGradient3026"
       y2="40.495998"
       gradientUnits="userSpaceOnUse"
       x2="71.204002"
       gradientTransform="matrix(1.5867757,0,0,1.5867757,-90.525561,-20.217855)"
       y1="15.369"
       x1="71.204002"
       xlink:href="#linearGradient3361">
      <stop
         id="stop4808-4"
         stop-color="#fff"
         offset="0" />
      <stop
         id="stop4810-0"
         stop-color="#fff"
         stop-opacity=".23529"
         offset=".42448" />
      <stop
         id="stop4812-8"
         stop-color="#fff"
         stop-opacity=".15686"
         offset=".82090" />
      <stop
         id="stop4814-0"
         stop-color="#fff"
         stop-opacity=".39216"
         offset="1" />
    </linearGradient>
    <radialGradient
       id="radialGradient3029"
       fx="4.459"
       fy="8.5089"
       gradientUnits="userSpaceOnUse"
       cy="8.6258"
       cx="15.026"
       gradientTransform="matrix(-3.4973e-8 1.8855 -1.7764 -5.4723e-8 39.14 -7.9932)"
       r="20">
      <stop
         id="stop4170"
         stop-color="#c24251"
         offset="0" />
      <stop
         id="stop4172"
         stop-color="#c24251"
         offset=".26238" />
      <stop
         id="stop4174"
         stop-color="#a63643"
         offset=".66094" />
      <stop
         id="stop4176"
         stop-color="#a63643"
         offset="1" />
    </radialGradient>
    <radialGradient
       id="radialGradient3032"
       gradientUnits="userSpaceOnUse"
       cy="3.99"
       cx="23.896"
       gradientTransform="matrix(0,2.8345093,-3.7415327,0,38.928645,-64.26879)"
       r="20.397">
      <stop
         id="stop3244-9-33-7-0-9"
         stop-color="#fff"
         offset="0" />
      <stop
         id="stop3246-3-5-0-8-5"
         stop-color="#ddd"
         offset=".26238" />
      <stop
         id="stop3248-1-7-8-8-1"
         stop-color="#abacae"
         offset=".66094" />
      <stop
         id="stop3250-9-3-0-5-1"
         stop-color="#89898b"
         offset="1" />
    </radialGradient>
    <radialGradient
       id="radialGradient3035"
       gradientUnits="userSpaceOnUse"
       cy="186.17"
       cx="99.157"
       gradientTransform="matrix(0.27083,0,0,0.087623,-2.8550998,26.187844)"
       r="62.769">
      <stop
         id="stop3822-2-6-3"
         stop-color="#3d3d3d"
         offset="0" />
      <stop
         id="stop3864-8-7-7"
         stop-color="#686868"
         stop-opacity=".49804"
         offset=".5" />
      <stop
         id="stop3824-1-2-5"
         stop-color="#686868"
         stop-opacity="0"
         offset="1" />
    </radialGradient>
    <linearGradient
       id="linearGradient4433"
       y2="25.611"
       gradientUnits="userSpaceOnUse"
       x2="23.078"
       gradientTransform="matrix(1 0 0 1.0521 0 -.90547)"
       y1="13.035"
       x1="22.759">
      <stop
         id="stop6305-1-0-2"
         stop-color="#fff"
         offset="0" />
      <stop
         id="stop6307-5-0-6"
         stop-color="#fff"
         stop-opacity="0"
         offset="1" />
    </linearGradient>
    <linearGradient
       id="linearGradient4829">
      <stop
         style="stop-color:#f4fbfc;stop-opacity:1;"
         offset="0"
         id="stop4831" />
      <stop
         style="stop-color:#d6d6d6;stop-opacity:1;"
         offset="1"
         id="stop4833" />
    </linearGradient>
    <clipPath
       id="clipPath-851446753">
      <g
         id="g17"
         transform="translate(0,-1004.4)">
        <path
           style="fill:#1890d0"
           inkscape:connector-curvature="0"
           id="path19"
           d="m -24,13 c 0,1.105 -0.672,2 -1.5,2 -0.828,0 -1.5,-0.895 -1.5,-2 0,-1.105 0.672,-2 1.5,-2 0.828,0 1.5,0.895 1.5,2 z"
           transform="matrix(15.333,0,0,11.5,415,878.86)" />
      </g>
    </clipPath>
    <clipPath
       id="clipPath3878">
      <g
         id="g3876"
         transform="translate(0,-1004.4)">
        <path
           style="fill:#1890d0"
           inkscape:connector-curvature="0"
           id="path3874"
           d="m -24,13 c 0,1.105 -0.672,2 -1.5,2 -0.828,0 -1.5,-0.895 -1.5,-2 0,-1.105 0.672,-2 1.5,-2 0.828,0 1.5,0.895 1.5,2 z"
           transform="matrix(15.333,0,0,11.5,415,878.86)" />
      </g>
    </clipPath>
    <clipPath
       id="clipPath3884">
      <g
         id="g3882"
         transform="translate(0,-1004.4)">
        <path
           style="fill:#1890d0"
           inkscape:connector-curvature="0"
           id="path3880"
           d="m -24,13 c 0,1.105 -0.672,2 -1.5,2 -0.828,0 -1.5,-0.895 -1.5,-2 0,-1.105 0.672,-2 1.5,-2 0.828,0 1.5,0.895 1.5,2 z"
           transform="matrix(15.333,0,0,11.5,415,878.86)" />
      </g>
    </clipPath>
    <linearGradient
       inkscape:collect="always"
       xlink:href="#linearGradient4745"
       id="linearGradient4747"
       x1="24.690861"
       y1="42.970867"
       x2="24.318228"
       y2="-14.950821"
       gradientUnits="userSpaceOnUse"
       gradientTransform="matrix(0.98130841,0,0,0.98130841,0.44859805,0.44850043)" />
    <linearGradient
       id="linearGradient6465-9">
      <stop
         style="stop-color:#09549c;stop-opacity:1;"
         offset="0"
         id="stop6467-4" />
      <stop
         id="stop6477-6"
         offset="0.64179105"
         style="stop-color:#084d90;stop-opacity:1;" />
      <stop
         style="stop-color:#04396d;stop-opacity:1;"
         offset="1"
         id="stop6469-1" />
    </linearGradient>
    <linearGradient
       inkscape:collect="always"
       xlink:href="#linearGradient6455"
       id="linearGradient6461"
       x1="118.39286"
       y1="101.60714"
       x2="118.39286"
       y2="148.64775"
       gradientUnits="userSpaceOnUse"
       gradientTransform="matrix(2.2806612,0,0,2.2806612,-140.16772,-148.46294)" />
    <linearGradient
       id="linearGradient6455">
      <stop
         style="stop-color:#f4f4f4;stop-opacity:1;"
         offset="0"
         id="stop6457" />
      <stop
         style="stop-color:#dce3ec;stop-opacity:1;"
         offset="1"
         id="stop6459" />
    </linearGradient>
    <linearGradient
       inkscape:collect="always"
       xlink:href="#linearGradient4745"
       id="linearGradient971"
       x1="17.977512"
       y1="21.45348"
       x2="18.040018"
       y2="26.095287"
       gradientUnits="userSpaceOnUse" />
    <linearGradient
       inkscape:collect="always"
       xlink:href="#linearGradient4745"
       id="linearGradient973"
       x1="24.450899"
       y1="21.318933"
       x2="24.378855"
       y2="26.297106"
       gradientUnits="userSpaceOnUse" />
    <linearGradient
       inkscape:collect="always"
       xlink:href="#linearGradient4745"
       id="linearGradient975"
       x1="31.058739"
       y1="21.386208"
       x2="33.206692"
       y2="23.471657"
       gradientUnits="userSpaceOnUse" />
    <linearGradient
       gradientTransform="translate(6.2429999,-0.02614714)"
       inkscape:collect="always"
       xlink:href="#linearGradient4745"
       id="linearGradient971-3"
       x1="17.977512"
       y1="21.45348"
       x2="18.040018"
       y2="26.095287"
       gradientUnits="userSpaceOnUse" />
    <linearGradient
       gradientTransform="translate(12.197531,0.04112546)"
       inkscape:collect="always"
       xlink:href="#linearGradient4745"
       id="linearGradient971-5"
       x1="17.977512"
       y1="21.45348"
       x2="18.040018"
       y2="26.095287"
       gradientUnits="userSpaceOnUse" />
  </defs>
  <metadata
     id="metadata4066">
    <rdf:RDF>
      <cc:Work
         rdf:about="">
        <dc:format>image/svg+xml</dc:format>
        <dc:type
           rdf:resource="http://purl.org/dc/dcmitype/StillImage" />
        <dc:title />
      </cc:Work>
    </rdf:RDF>
  </metadata>
  <g
     id="g4206">
    <path
       id="path3818-0-5"
       d="m 41,42.500844 a 17,5.5 0 0 1 -33.9999998,0 17,5.5 0 1 1 33.9999998,0 z"
       inkscape:connector-curvature="0"
       style="fill:url(#radialGradient3035)" />
    <path
       id="path2555-7-2"
       style="color:#000000;fill:url(#radialGradient3032);stroke-width:0.9813084"
       d="m 24,3.8830799 c -11.099579,0 -20.1168225,9.0172421 -20.1168225,20.1168221 0,11.099579 9.0172435,20.116822 20.1168225,20.116822 11.099579,0 20.116822,-9.017243 20.116822,-20.116822 C 44.116822,12.900322 35.099579,3.8830799 24,3.8830799 Z"
       inkscape:connector-curvature="0" />
    <path
       id="path2555-7-65"
       style="color:#000000;fill:url(#linearGradient4747);fill-opacity:1;stroke-width:0.9813084"
       d="m 24,3.8830799 c -11.099579,0 -20.1168225,9.0172421 -20.1168225,20.1168221 0,11.099579 9.0172435,20.116822 20.1168225,20.116822 11.099579,0 20.116822,-9.017243 20.116822,-20.116822 C 44.116822,12.900322 35.099579,3.8830799 24,3.8830799 Z"
       inkscape:connector-curvature="0" />
    <path
       id="path4176"
       style="color:#000000;opacity:0.5;fill:none;stroke:url(#linearGradient3026);stroke-width:0.9813084;stroke-linecap:round;stroke-linejoin:round"
       d="M 43.135514,23.999902 C 43.135514,34.568593 34.568692,43.135416 24,43.135416 13.431308,43.135416 4.8644859,34.568593 4.8644859,23.999902 4.8644859,13.43121 13.431308,4.8643883 24,4.8643883 c 10.568692,0 19.135514,8.5668217 19.135514,19.1355137 z"
       inkscape:connector-curvature="0" />
    <path
       id="path2555-7-1-7"
       style="color:#000000;opacity:1;fill:none;fill-opacity:1;stroke:#fbfbfb;stroke-width:1.76635504;stroke-linecap:round;stroke-linejoin:round;stroke-miterlimit:4;stroke-dasharray:none;stroke-opacity:1"
       d="M 24,3.883178 C 12.900421,3.883178 3.8831775,12.900224 3.8831775,24 3.8831775,35.099776 12.900224,44.116822 24,44.116822 35.099776,44.116822 44.116822,35.099776 44.116822,24 44.116822,12.900224 35.099579,3.883178 24,3.883178 Z"
       inkscape:connector-curvature="0" />
    <g
       id="g4317"
       transform="matrix(1.0002,0,0,1.0004,-1.0018,-0.0050486)"
       style="fill:none;stroke:#000000;stroke-linecap:round;stroke-linejoin:round" />
    <path
       sodipodi:nodetypes="ssscccsss"
       inkscape:connector-curvature="0"
       id="path6441"
       d="m 23.274809,12.526 c -6.978155,0.2954 -12.527947,5.0754 -12.527947,10.9132 0,6.0268 5.908152,10.8988 13.202177,10.8988 1.031731,0 2.031154,-0.1037 2.994804,-0.2828 1.069486,-0.2263 3.8197,1.6921 5.212303,1.7348 0.156797,-0.6068 -2.196575,-2.5988 -1.292425,-3.0517 3.777098,-1.9193 6.287493,-5.3645 6.287493,-9.2987 0,-6.0271 -5.908153,-10.9133 -13.202175,-10.9133 -0.227951,0 -0.449108,-0.031 -0.67423,0 z"
       style="color:#000000;display:inline;overflow:visible;visibility:visible;fill:url(#linearGradient6461);fill-opacity:1;fill-rule:nonzero;stroke:none;stroke-width:8.74185181;marker:none;enable-background:accumulate" />
    <path
       id="path6463"
       style="color:#000000;display:inline;overflow:visible;visibility:visible;fill:url(#linearGradient971);fill-opacity:1;fill-rule:nonzero;stroke:none;stroke-width:8.74185181;marker:none;enable-background:accumulate"
       sodipodi:type="arc"
       sodipodi:cx="17.975128"
       sodipodi:cy="23.471657"
       sodipodi:rx="2.1503384"
       sodipodi:ry="2.1503384"
       sodipodi:start="0"
       sodipodi:end="6.2376888"
       sodipodi:open="true"
       d="m 20.125467,23.471657 a 2.1503384,2.1503384 0 0 1 -2.125881,2.150199 2.1503384,2.1503384 0 0 1 -2.17424,-2.101287 2.1503384,2.1503384 0 0 1 2.076422,-2.197999 2.1503384,2.1503384 0 0 1 2.221473,2.051288" />
    <ellipse
       cy="23.471657"
       cx="24.448513"
       id="path6463-4"
       style="color:#000000;display:inline;overflow:visible;visibility:visible;fill:url(#linearGradient973);fill-opacity:1;fill-rule:nonzero;stroke:none;stroke-width:8.74185181;marker:none;enable-background:accumulate"
       r="2.1503384" />
    <ellipse
       cy="23.471657"
       cx="31.056355"
       id="path6463-5"
       style="color:#000000;display:inline;overflow:visible;visibility:visible;fill:url(#linearGradient975);fill-opacity:1;fill-rule:nonzero;stroke:none;stroke-width:8.74185181;marker:none;enable-background:accumulate"
       r="2.1503384" />
    <path
       id="path6463-53"
       style="color:#000000;display:inline;overflow:visible;visibility:visible;fill:url(#linearGradient971-3);fill-opacity:1;fill-rule:nonzero;stroke:none;stroke-width:8.74185181;marker:none;enable-background:accumulate"
       sodipodi:type="arc"
       sodipodi:cx="24.218126"
       sodipodi:cy="23.445509"
       sodipodi:rx="2.1503384"
       sodipodi:ry="2.1503384"
       sodipodi:start="0"
       sodipodi:end="6.2376888"
       sodipodi:open="true"
       d="m 26.368465,23.445509 a 2.1503384,2.1503384 0 0 1 -2.125881,2.150199 2.1503384,2.1503384 0 0 1 -2.17424,-2.101287 2.1503384,2.1503384 0 0 1 2.076422,-2.197999 2.1503384,2.1503384 0 0 1 2.221474,2.051288" />
    <path
       id="path6463-9"
       style="color:#000000;display:inline;overflow:visible;visibility:visible;fill:url(#linearGradient971-5);fill-opacity:1;fill-rule:nonzero;stroke:none;stroke-width:8.74185181;marker:none;enable-background:accumulate"
       sodipodi:type="arc"
       sodipodi:cx="30.172659"
       sodipodi:cy="23.512783"
       sodipodi:rx="2.1503384"
       sodipodi:ry="2.1503384"
       sodipodi:start="0"
       sodipodi:end="6.2376888"
       sodipodi:open="true"
       d="m 32.322997,23.512783 a 2.1503384,2.1503384 0 0 1 -2.12588,2.150199 2.1503384,2.1503384 0 0 1 -2.17424,-2.101287 2.1503384,2.1503384 0 0 1 2.076421,-2.197999 2.1503384,2.1503384 0 0 1 2.221474,2.051288" />
  </g>
</svg>
