<?xml version="1.0" encoding="UTF-8" standalone="no"?>
<!-- Generator: flash2svg, http://dissentgraphics.com/tools/flash2svg -->

<svg
   xmlns:dc="http://purl.org/dc/elements/1.1/"
   xmlns:cc="http://creativecommons.org/ns#"
   xmlns:rdf="http://www.w3.org/1999/02/22-rdf-syntax-ns#"
   xmlns:svg="http://www.w3.org/2000/svg"
   xmlns="http://www.w3.org/2000/svg"
   xmlns:xlink="http://www.w3.org/1999/xlink"
   xmlns:sodipodi="http://sodipodi.sourceforge.net/DTD/sodipodi-0.dtd"
   xmlns:inkscape="http://www.inkscape.org/namespaces/inkscape"
   id="SimpleNote"
   image-rendering="optimizeSpeed"
   version="1.1"
   style="background-color:#ffffff"
   x="0px"
   y="0px"
   width="1024px"
   height="1024px"
   viewBox="0 0 1024 1024"
   enable-background="new 0 0 1024 1024"
   sodipodi:docname="pomodoro.svg"
   inkscape:version="0.92.2 (5c3e80d, 2017-08-06)">
  <metadata
     id="metadata42">
    <rdf:RDF>
      <cc:Work
         rdf:about="">
        <dc:format>image/svg+xml</dc:format>
        <dc:type
           rdf:resource="http://purl.org/dc/dcmitype/StillImage" />
        <dc:title></dc:title>
      </cc:Work>
    </rdf:RDF>
  </metadata>
  <sodipodi:namedview
     pagecolor="#ffffff"
     bordercolor="#666666"
     borderopacity="1"
     objecttolerance="10"
     gridtolerance="10"
     guidetolerance="10"
     inkscape:pageopacity="0"
     inkscape:pageshadow="2"
     inkscape:window-width="1440"
     inkscape:window-height="764"
     id="namedview40"
     showgrid="true"
     inkscape:pagecheckerboard="true"
     inkscape:zoom="0.55175781"
     inkscape:cx="512"
     inkscape:cy="512"
     inkscape:window-x="0"
     inkscape:window-y="25"
     inkscape:window-maximized="1"
     inkscape:current-layer="shape2">
    <inkscape:grid
       type="xygrid"
       id="grid857" />
  </sodipodi:namedview>
  <defs
     transform="matrix(1 0 0 1 0 0) "
     id="defs2">
    <linearGradient
       inkscape:collect="always"
       id="linearGradient989">
      <stop
         style="stop-color:#111111;stop-opacity:1"
         offset="0"
         id="stop985" />
      <stop
         id="stop993"
         offset="0.54901963"
         style="stop-color:#4c4c4c;stop-opacity:1;" />
      <stop
         style="stop-color:#888888;stop-opacity:1"
         offset="1"
         id="stop987" />
    </linearGradient>
    <linearGradient
       id="linearGradient873"
       inkscape:collect="always">
      <stop
         id="stop869"
         offset="0"
         style="stop-color:#cdcdcd;stop-opacity:1" />
      <stop
         style="stop-color:#faf8f6;stop-opacity:1"
         offset="0.5"
         id="stop905" />
      <stop
         id="stop871"
         offset="1"
         style="stop-color:#f1f0e9;stop-opacity:1" />
    </linearGradient>
    <linearGradient
       inkscape:collect="always"
       id="linearGradient853">
      <stop
         style="stop-color:#ffffff;stop-opacity:1;"
         offset="0"
         id="stop849" />
      <stop
         style="stop-color:#d7d7d7;stop-opacity:1"
         offset="1"
         id="stop851" />
    </linearGradient>
    <linearGradient
       inkscape:collect="always"
       xlink:href="#linearGradient853"
       id="linearGradient855"
       x1="520"
       y1="4"
       x2="519.31427"
       y2="1024"
       gradientUnits="userSpaceOnUse" />
    <linearGradient
       inkscape:collect="always"
       xlink:href="#linearGradient873"
       id="linearGradient903"
       x1="1021.9921"
       y1="2.0078433"
       x2="-2.0078433"
       y2="1026.0078"
       gradientUnits="userSpaceOnUse"
       gradientTransform="matrix(1.0007311,0,0,1.0007311,-0.02883503,-0.81992529)" />
    <filter
       inkscape:collect="always"
       style="color-interpolation-filters:sRGB"
       id="filter981"
       x="-0.035863112"
       width="1.0717262"
       y="-0.036137937"
       height="1.0722759">
      <feGaussianBlur
         inkscape:collect="always"
         stdDeviation="0.75453"
         id="feGaussianBlur983" />
    </filter>
    <linearGradient
       inkscape:collect="always"
       xlink:href="#linearGradient989"
       id="linearGradient991"
       x1="23.683001"
       y1="-25.544123"
       x2="25.655422"
       y2="75.049385"
       gradientUnits="userSpaceOnUse" />
  </defs>
  <g
     id="shadow"
     transform="matrix(0.99609375,0,0,0.99609375,2,2)">
    <g
       id="shape">
      <path
         id="path"
         d="m 986.739,315.98644 q -9.3288,-22.61695 -21.0441,-44.31186 c -4.3932,-8.18983 -9.0576,-16.32543 -13.9932,-24.29831 C 930.49492,212.98983 904.62373,180.50169 874.08814,149.9661 774.12881,50.00678 653.39661,0 512,0 370.60339,0 249.92542,50.00678 149.9661,149.9661 50.00678,249.92542 0,370.60339 0,512 0,653.39661 50.00678,774.12881 149.9661,874.08814 249.92542,974.04746 370.60339,1024 512,1024 653.39661,1024 774.12881,974.04746 874.08814,874.08814 929.13898,818.98305 969.0576,757.58644 993.7898,689.95254 1013.9119,634.79322 1024,575.51186 1024,512 c 0,-48.70508 -5.9119,-94.96949 -17.7898,-138.79322 -1.356,-4.93559 -2.7661,-9.87119 -4.2305,-14.75254 -4.4475,-14.42712 -9.5458,-28.58305 -15.2407,-42.4678 z"
         style="fill:url(#linearGradient855);fill-opacity:1;stroke-width:1.08474576"
         inkscape:connector-curvature="0" />
    </g>
  </g>
  <g
     id="bg"
     transform="matrix(0.99609375,0,0,0.99609375,2,2)">
    <g
       id="shape2">
      <path
         id="path1"
         d="m 970.43019,391.51672 c -1.10081,-4.35319 -2.35172,-9.00659 -3.65267,-13.60995 -1.00073,-3.40248 -2.00146,-6.85501 -3.1523,-10.50768 -1.60117,-5.15376 -3.40249,-10.50767 -5.30388,-15.86158 -6.45471,-18.26335 -14.16034,-36.07636 -23.16692,-53.68923 -3.80278,-7.40541 -7.95582,-14.96093 -12.309,-22.41638 C 902.53058,240.90668 877.01194,208.18277 846.4396,177.61043 773.78652,104.95735 689.1747,60.87515 592.60415,45.46389 c -16.26189,-2.601901 -32.82399,-4.403217 -50.0866,-5.353912 -9.70709,-0.550402 -19.86451,-0.850621 -30.122,-0.850621 -9.35684,0 -18.6136,0.250183 -27.9204,0.750548 C 366.03862,46.114365 264.01408,91.997888 178.40153,177.61043 Q 40.050447,315.96151 40.050447,511.60445 c 0,130.44531 46.133706,241.82668 138.351083,334.04406 56.74145,56.69142 120.63814,95.97011 191.23972,117.63594 36.77687,11.25823 74.85469,17.86305 114.8339,19.96459 0.15011,0 0.25018,0 0.40029,0 8.50621,0.45033 16.61214,0.70051 24.51791,0.70051 1.20088,0 2.10154,0 3.0022,0 10.30753,0 20.51498,-0.30022 30.122,-0.80058 2.50183,-0.15011 4.75348,-0.30022 6.95508,-0.45033 20.21477,-1.45106 39.92918,-4.05297 58.74292,-7.70563 7.95581,-1.55114 15.81155,-3.30242 23.41711,-5.15377 80.85908,-20.31484 152.26124,-61.64504 214.80694,-124.19073 48.63553,-48.63554 84.46171,-102.57495 107.42849,-161.9183 18.46349,-47.68484 28.67094,-98.87224 30.57233,-153.61223 0.20015,-6.05443 0.30022,-12.25896 0.30022,-18.51353 0,-0.65047 0,-1.35099 0,-2.00146 0,-0.35026 0,-0.65048 0,-1.00073 -0.20014,-40.67972 -4.95362,-79.55813 -14.31045,-117.08554 z"
         style="fill:url(#linearGradient903);fill-opacity:1;stroke-width:1.00073111"
         inkscape:connector-curvature="0" />
      <g
         transform="matrix(10.179583,0,0,10.179583,258.86988,272.07556)"
         id="g971"
         style="filter:url(#filter981);opacity:0.2">
        <g
           id="g939"
           style="">
          <g
             id="g937"
             style="">
            <g
               id="g935"
               style="">
              <path
                 inkscape:connector-curvature="0"
                 d="m 21.66,25.249 c 0,2.189 1.777,3.966 3.966,3.966 1.538,0 2.856,-0.885 3.515,-2.163 l 0.011,0.01 7.239,-13.062 -12.708,7.794 0.012,0.012 c -1.209,0.681 -2.035,1.959 -2.035,3.443 z"
                 id="path927"
                 style="" />
              <path
                 inkscape:connector-curvature="0"
                 d="M 41.604,6.351 C 37.542,2.799 32.291,0.531 26.291,0.192 v 6.027 c 5,0.318 7.945,1.906 10.904,4.384 z"
                 id="path929"
                 style="" />
              <path
                 inkscape:connector-curvature="0"
                 d="m 44.436,23.37 h 6.021 C 50.053,17.37 47.706,12.44 44.061,8.4 l -4.26,4.233 c 2.566,2.94 4.254,6.737 4.635,10.737 z"
                 id="path931"
                 style="" />
              <path
                 inkscape:connector-curvature="0"
                 d="M 44.463,26.37 C 43.826,36.37 35.541,44.303 25.421,44.303 14.886,44.302 6,35.757 6,25.223 6,15.195 14.289,6.99 23.289,6.22 V 0.193 C 10.289,0.972 0,11.91 0,25.249 c 0,13.844 11.42,25.053 25.263,25.053 13.432,0 24.59,-10.933 25.231,-23.933 h -6.031 z"
                 id="path933"
                 style="" />
            </g>
          </g>
        </g>
        <g
           id="g941"
           style="" />
        <g
           id="g943"
           style="" />
        <g
           id="g945"
           style="" />
        <g
           id="g947"
           style="" />
        <g
           id="g949"
           style="" />
        <g
           id="g951"
           style="" />
        <g
           id="g953"
           style="" />
        <g
           id="g955"
           style="" />
        <g
           id="g957"
           style="" />
        <g
           id="g959"
           style="" />
        <g
           id="g961"
           style="" />
        <g
           id="g963"
           style="" />
        <g
           id="g965"
           style="" />
        <g
           id="g967"
           style="" />
        <g
           id="g969"
           style="" />
      </g>
      <g
         id="g925"
         transform="matrix(10.179583,0,0,10.179583,258.86988,262.03636)"
         style="fill-opacity:1;fill:url(#linearGradient991)">
        <g
           id="g864"
           style="fill-opacity:1;fill:url(#linearGradient991)">
          <g
             id="g862"
             style="fill-opacity:1;fill:url(#linearGradient991)">
            <g
               id="g860"
               style="fill-opacity:1;fill:url(#linearGradient991)">
              <path
                 id="path852"
                 d="m 21.66,25.249 c 0,2.189 1.777,3.966 3.966,3.966 1.538,0 2.856,-0.885 3.515,-2.163 l 0.011,0.01 7.239,-13.062 -12.708,7.794 0.012,0.012 c -1.209,0.681 -2.035,1.959 -2.035,3.443 z"
                 inkscape:connector-curvature="0"
                 style="fill-opacity:1;fill:url(#linearGradient991)" />
              <path
                 id="path854"
                 d="M 41.604,6.351 C 37.542,2.799 32.291,0.531 26.291,0.192 v 6.027 c 5,0.318 7.945,1.906 10.904,4.384 z"
                 inkscape:connector-curvature="0"
                 style="fill-opacity:1;fill:url(#linearGradient991)" />
              <path
                 id="path856"
                 d="m 44.436,23.37 h 6.021 C 50.053,17.37 47.706,12.44 44.061,8.4 l -4.26,4.233 c 2.566,2.94 4.254,6.737 4.635,10.737 z"
                 inkscape:connector-curvature="0"
                 style="fill-opacity:1;fill:url(#linearGradient991)" />
              <path
                 id="path858"
                 d="M 44.463,26.37 C 43.826,36.37 35.541,44.303 25.421,44.303 14.886,44.302 6,35.757 6,25.223 6,15.195 14.289,6.99 23.289,6.22 V 0.193 C 10.289,0.972 0,11.91 0,25.249 c 0,13.844 11.42,25.053 25.263,25.053 13.432,0 24.59,-10.933 25.231,-23.933 h -6.031 z"
                 inkscape:connector-curvature="0"
                 style="fill-opacity:1;fill:url(#linearGradient991)" />
            </g>
          </g>
        </g>
        <g
           id="g866"
           style="fill-opacity:1;fill:url(#linearGradient991)" />
        <g
           id="g868"
           style="fill-opacity:1;fill:url(#linearGradient991)" />
        <g
           id="g870"
           style="fill-opacity:1;fill:url(#linearGradient991)" />
        <g
           id="g872"
           style="fill-opacity:1;fill:url(#linearGradient991)" />
        <g
           id="g874"
           style="fill-opacity:1;fill:url(#linearGradient991)" />
        <g
           id="g876"
           style="fill-opacity:1;fill:url(#linearGradient991)" />
        <g
           id="g878"
           style="fill-opacity:1;fill:url(#linearGradient991)" />
        <g
           id="g880"
           style="fill-opacity:1;fill:url(#linearGradient991)" />
        <g
           id="g882"
           style="fill-opacity:1;fill:url(#linearGradient991)" />
        <g
           id="g884"
           style="fill-opacity:1;fill:url(#linearGradient991)" />
        <g
           id="g886"
           style="fill-opacity:1;fill:url(#linearGradient991)" />
        <g
           id="g888"
           style="fill-opacity:1;fill:url(#linearGradient991)" />
        <g
           id="g890"
           style="fill-opacity:1;fill:url(#linearGradient991)" />
        <g
           id="g892"
           style="fill-opacity:1;fill:url(#linearGradient991)" />
        <g
           id="g894"
           style="fill-opacity:1;fill:url(#linearGradient991)" />
      </g>
    </g>
  </g>
</svg>
