<?xml version="1.0" encoding="UTF-8" standalone="no"?>
<svg xmlns="http://www.w3.org/2000/svg" xmlns:xlink="http://www.w3.org/1999/xlink" width="48" height="48" version="1.1">
 <defs>
  <linearGradient id="linearGradient4605">
   <stop style="stop-color:#000000;stop-opacity:1;" offset="0"/>
   <stop style="stop-color:#000000;stop-opacity:0;" offset="1"/>
  </linearGradient>
  <linearGradient id="linearGradient4550">
   <stop style="stop-color:#00be4f;stop-opacity:1" offset="0"/>
   <stop style="stop-color:#90fccb;stop-opacity:1" offset="1"/>
  </linearGradient>
  <linearGradient id="linearGradient3764" x1="1" x2="47" gradientUnits="userSpaceOnUse" gradientTransform="matrix(0,-1,1,0,-1.5e-6,47.999998)">
   <stop style="stop-color:#3d3d3d;stop-opacity:1"/>
   <stop offset="1" style="stop-color:#6f6f6f;stop-opacity:1"/>
  </linearGradient>
  <linearGradient xlink:href="#linearGradient3764" id="linearGradient4541" x1="26.949" y1="34.78" x2="9.665" y2="4.001" gradientUnits="userSpaceOnUse" gradientTransform="matrix(1.0555556,0,0,1,-1.3333333,0)"/>
  <linearGradient xlink:href="#linearGradient4550" id="linearGradient4552" x1="23.664" y1="31.824" x2="12" y2="12" gradientUnits="userSpaceOnUse" gradientTransform="translate(-1)"/>
  <linearGradient xlink:href="#linearGradient4605" id="linearGradient4607" x1="20.568" y1="26.29" x2="25.188" y2="34.291" gradientUnits="userSpaceOnUse"/>
 </defs>
 <path style="color:#000000;font-style:normal;font-variant:normal;font-weight:normal;font-stretch:normal;font-size:medium;line-height:normal;font-family:sans-serif;font-variant-ligatures:normal;font-variant-position:normal;font-variant-caps:normal;font-variant-numeric:normal;font-variant-alternates:normal;font-feature-settings:normal;text-indent:0;text-align:start;text-decoration:none;text-decoration-line:none;text-decoration-style:solid;text-decoration-color:#000000;letter-spacing:normal;word-spacing:normal;text-transform:none;writing-mode:lr-tb;direction:ltr;text-orientation:mixed;dominant-baseline:auto;baseline-shift:baseline;text-anchor:start;white-space:normal;shape-padding:0;clip-rule:nonzero;display:inline;overflow:visible;visibility:visible;opacity:1;isolation:auto;mix-blend-mode:normal;color-interpolation:sRGB;color-interpolation-filters:linearRGB;solid-color:#000000;solid-opacity:1;vector-effect:none;fill:url(#linearGradient4541);fill-opacity:1;fill-rule:nonzero;stroke:none;stroke-width:7.31607437;stroke-linecap:round;stroke-linejoin:round;stroke-miterlimit:4;stroke-dasharray:none;stroke-dashoffset:0;stroke-opacity:1;color-rendering:auto;image-rendering:auto;shape-rendering:auto;text-rendering:auto;enable-background:accumulate" d="M 8.8687072,4.0009847 C 6.747164,3.9546147 5.0004634,5.5522357 5,7.5395087 L 8,23.997309 5,40.45511 c 5.32e-4,2.724734 3.1501061,4.427573 5.670165,3.065615 l 15.219372,-8.228901 15.22085,-8.2289 c 2.519484,-1.362798 2.519484,-4.768431 0,-6.131229 L 25.889537,12.702794 10.670165,4.4738937 C 10.121474,4.1774057 9.502019,4.0147897 8.8687072,4.0009847 Z"/>
 <path style="opacity:0.4;fill:url(#linearGradient4607);fill-opacity:1;stroke:none;stroke-width:10.33902168;stroke-linecap:round;stroke-linejoin:round;stroke-miterlimit:4;stroke-dasharray:none;stroke-opacity:1" d="M 24.392578 21.007812 L 11 36 L 15.765625 40.765625 L 25.888672 35.291016 L 39.085938 28.15625 L 34.986328 24.056641 L 24.392578 21.007812 z"/>
 <path style="opacity:1;fill:url(#linearGradient4552);fill-opacity:1;stroke:none;stroke-width:8.9171505;stroke-linecap:round;stroke-linejoin:round;stroke-miterlimit:4;stroke-dasharray:none;stroke-opacity:1" d="M 35,24 22.999999,30 11,36 c 0,0 3,-7.944826 3,-12.000001 C 14,19.944824 11,12 11,12 l 12,6 z"/>
 <path style="color:#000000;font-style:normal;font-variant:normal;font-weight:normal;font-stretch:normal;font-size:medium;line-height:normal;font-family:sans-serif;font-variant-ligatures:normal;font-variant-position:normal;font-variant-caps:normal;font-variant-numeric:normal;font-variant-alternates:normal;font-feature-settings:normal;text-indent:0;text-align:start;text-decoration:none;text-decoration-line:none;text-decoration-style:solid;text-decoration-color:#000000;letter-spacing:normal;word-spacing:normal;text-transform:none;writing-mode:lr-tb;direction:ltr;text-orientation:mixed;dominant-baseline:auto;baseline-shift:baseline;text-anchor:start;white-space:normal;shape-padding:0;clip-rule:nonzero;display:inline;overflow:visible;visibility:visible;opacity:0.2;isolation:auto;mix-blend-mode:normal;color-interpolation:sRGB;color-interpolation-filters:linearRGB;solid-color:#000000;solid-opacity:1;vector-effect:none;fill:#050505;fill-opacity:1;fill-rule:nonzero;stroke:none;stroke-width:7.31607437;stroke-linecap:round;stroke-linejoin:round;stroke-miterlimit:4;stroke-dasharray:none;stroke-dashoffset:0;stroke-opacity:1;color-rendering:auto;image-rendering:auto;shape-rendering:auto;text-rendering:auto;enable-background:accumulate" d="M 5.0683594 6.9160156 C 5.0296741 7.1190309 5.0000498 7.3254893 5 7.5390625 L 7.9082031 23.498047 L 8 22.998047 L 5.0683594 6.9160156 z M 42.960938 23.496094 C 42.809303 24.512754 42.19476 25.476468 41.111328 26.0625 L 25.888672 34.291016 L 10.669922 42.521484 C 8.3535981 43.773334 5.5122023 42.432103 5.0664062 40.091797 L 5 40.455078 C 5.000532 43.179812 8.149863 44.883442 10.669922 43.521484 L 25.888672 35.291016 L 41.111328 27.0625 C 42.548053 26.28537 43.162785 24.844186 42.960938 23.496094 z"/>
</svg>
