<?xml version="1.0" encoding="UTF-8" standalone="no"?>
<!-- Created with Inkscape (http://www.inkscape.org/) -->

<svg
   xmlns:dc="http://purl.org/dc/elements/1.1/"
   xmlns:cc="http://creativecommons.org/ns#"
   xmlns:rdf="http://www.w3.org/1999/02/22-rdf-syntax-ns#"
   xmlns:svg="http://www.w3.org/2000/svg"
   xmlns="http://www.w3.org/2000/svg"
   xmlns:xlink="http://www.w3.org/1999/xlink"
   xmlns:sodipodi="http://sodipodi.sourceforge.net/DTD/sodipodi-0.dtd"
   xmlns:inkscape="http://www.inkscape.org/namespaces/inkscape"
   id="svg4061"
   height="48"
   width="48"
   version="1.1"
   inkscape:version="0.92.2 (unknown)"
   sodipodi:docname="renoise.svg">
  <sodipodi:namedview
     pagecolor="#ffffff"
     bordercolor="#666666"
     borderopacity="1"
     objecttolerance="10"
     gridtolerance="10"
     guidetolerance="10"
     inkscape:pageopacity="0"
     inkscape:pageshadow="2"
     inkscape:window-width="1555"
     inkscape:window-height="1214"
     id="namedview46"
     showgrid="false"
     inkscape:zoom="4.9166667"
     inkscape:cx="-33.457627"
     inkscape:cy="25.168136"
     inkscape:window-x="1005"
     inkscape:window-y="93"
     inkscape:window-maximized="0"
     inkscape:current-layer="svg4061" />
  <defs
     id="defs4063">
    <linearGradient
       id="linearGradient3026"
       y2="40.496"
       gradientUnits="userSpaceOnUse"
       x2="71.204"
       gradientTransform="matrix(1.617 0 0 1.617 -92.707 -21.06)"
       y1="15.369"
       x1="71.204">
      <stop
         id="stop4808-4"
         stop-color="#fff"
         offset="0" />
      <stop
         id="stop4810-0"
         stop-color="#fff"
         stop-opacity=".23529"
         offset=".42448" />
      <stop
         id="stop4812-8"
         stop-color="#fff"
         stop-opacity=".15686"
         offset=".82090" />
      <stop
         id="stop4814-0"
         stop-color="#fff"
         stop-opacity=".39216"
         offset="1" />
    </linearGradient>
    <radialGradient
       id="radialGradient3029"
       fx="4.459"
       fy="8.5089"
       gradientUnits="userSpaceOnUse"
       cy="8.6258"
       cx="15.026"
       gradientTransform="matrix(-3.4973e-8 1.8855 -1.7764 -5.4723e-8 39.14 -7.9932)"
       r="20">
      <stop
         id="stop4170"
         stop-color="#ff9696"
         offset="0" />
      <stop
         id="stop4172"
         stop-color="#fd7676"
         offset="0.1668274" />
      <stop
         id="stop4174"
         stop-color="#f94040"
         offset="0.48762146" />
      <stop
         id="stop4176"
         stop-color="#e42020"
         offset="1"
         style="stop-color:#e77f5b;stop-opacity:1" />
    </radialGradient>
    <radialGradient
       id="radialGradient3032"
       gradientUnits="userSpaceOnUse"
       cy="3.99"
       cx="23.896"
       gradientTransform="matrix(0,2.9374575,-3.8774237,0,39.470847,-67.474675)"
       r="20.397">
      <stop
         id="stop3244-9-33-7-0-9"
         stop-color="#fff"
         offset="0" />
      <stop
         id="stop3246-3-5-0-8-5"
         stop-color="#ddd"
         offset=".26238" />
      <stop
         id="stop3248-1-7-8-8-1"
         stop-color="#abacae"
         offset=".66094" />
      <stop
         id="stop3250-9-3-0-5-1"
         stop-color="#89898b"
         offset="1" />
    </radialGradient>
    <radialGradient
       id="radialGradient3035"
       gradientUnits="userSpaceOnUse"
       cy="186.17"
       cx="99.157"
       gradientTransform="matrix(0.27083,0,0,0.087623,-2.8551,26.187)"
       r="62.769">
      <stop
         id="stop3822-2-6-3"
         stop-color="#3d3d3d"
         offset="0" />
      <stop
         id="stop3864-8-7-7"
         stop-color="#686868"
         stop-opacity=".49804"
         offset=".5" />
      <stop
         id="stop3824-1-2-5"
         stop-color="#686868"
         stop-opacity="0"
         offset="1" />
    </radialGradient>
    <linearGradient
       id="ButtonShadow"
       y2="7.0165"
       gradientUnits="userSpaceOnUse"
       x2="45.448"
       gradientTransform="scale(1.0059 .99417)"
       y1="92.54"
       x1="45.448">
      <stop
         id="stop3750"
         offset="0" />
      <stop
         id="stop3752"
         stop-opacity=".58824"
         offset="1" />
    </linearGradient>
    <filter
       id="filter3174"
       style="color-interpolation-filters:sRGB">
      <feGaussianBlur
         id="feGaussianBlur3176"
         stdDeviation="1.71" />
    </filter>
    <linearGradient
       id="linearGradient3185"
       y2="-167.53"
       xlink:href="#SVGID_14_"
       gradientUnits="userSpaceOnUse"
       x2="206.69"
       gradientTransform="matrix(.72832 0 0 -.72832 -295.83 -108.58)"
       y1="-167.53"
       x1="206.69" />
    <linearGradient
       id="SVGID_14_"
       y2="-167.53"
       gradientUnits="userSpaceOnUse"
       x2="206.69"
       gradientTransform="matrix(1 0 0 -1 -270.96 -122.07)"
       y1="-167.53"
       x1="206.69">
      <stop
         id="stop3506"
         stop-color="#7e9ec4"
         offset="0" />
      <stop
         id="stop3508"
         stop-color="#151d89"
         offset="1" />
    </linearGradient>
    <linearGradient
       id="linearGradient3182"
       y2="-167.53"
       xlink:href="#SVGID_14_"
       gradientUnits="userSpaceOnUse"
       x2="206.69"
       gradientTransform="matrix(.72832 0 0 -.72832 -375.83 -107.58)"
       y1="-167.53"
       x1="206.69" />
    <linearGradient
       id="linearGradient4829">
      <stop
         style="stop-color:#f4fbfc;stop-opacity:1;"
         offset="0"
         id="stop4831" />
      <stop
         style="stop-color:#d6d6d6;stop-opacity:1;"
         offset="1"
         id="stop4833" />
    </linearGradient>
    <linearGradient
       gradientTransform="matrix(1.0169491,0,0,1.0169491,-214.16948,-160.47467)"
       gradientUnits="userSpaceOnUse"
       xlink:href="#linearGradient10457"
       id="linearGradient10810"
       x1="150"
       x2="150"
       y1="202"
       y2="178" />
    <linearGradient
       id="linearGradient10457">
      <stop
         id="stop10453"
         offset="0"
         style="stop-color:#000000;stop-opacity:1;" />
      <stop
         id="stop10455"
         offset="1"
         style="stop-color:#000000;stop-opacity:0;" />
    </linearGradient>
    <linearGradient
       gradientTransform="matrix(1.0169491,0,0,1.0169491,-130.57626,-166.16949)"
       gradientUnits="userSpaceOnUse"
       xlink:href="#linearGradient10457"
       id="linearGradient10830"
       x1="150"
       x2="150"
       y1="202"
       y2="178" />
    <linearGradient
       gradientTransform="matrix(1.0169491,0,0,1.0169491,-130.57626,-167.18644)"
       gradientUnits="userSpaceOnUse"
       xlink:href="#linearGradient10457"
       id="linearGradient10828"
       x1="155"
       x2="155"
       y1="203"
       y2="179" />
  </defs>
  <metadata
     id="metadata4066">
    <rdf:RDF>
      <cc:Work
         rdf:about="">
        <dc:format>image/svg+xml</dc:format>
        <dc:type
           rdf:resource="http://purl.org/dc/dcmitype/StillImage" />
        <dc:title />
      </cc:Work>
    </rdf:RDF>
  </metadata>
  <path
     id="path3818-0-5"
     d="m 41,42.5 a 17,5.5 0 0 1 -34,0 17,5.5 0 1 1 34,0 z"
     style="fill:url(#radialGradient3035)"
     inkscape:connector-curvature="0" />
  <path
     id="path2555-7-2"
     style="color:#000000;fill:url(#radialGradient3032);stroke-width:1.01694918"
     d="m 24,3.1524413 c -11.502712,0 -20.8474576,9.3447457 -20.8474576,20.8474577 0,11.502711 9.3447456,20.847457 20.8474576,20.847457 11.502712,0 20.847457,-9.344746 20.847457,-20.847457 C 44.847457,12.497187 35.502712,3.1524413 24,3.1524413 Z"
     inkscape:connector-curvature="0" />
  <path
     id="path2555-7-65"
     style="color:#000000;fill:#aa0000;fill-opacity:1;stroke-width:1.01694918"
     d="m 24,3.1524413 c -11.502712,0 -20.8474576,9.3447457 -20.8474576,20.8474577 0,11.502711 9.3447456,20.847457 20.8474576,20.847457 11.502712,0 20.847457,-9.344746 20.847457,-20.847457 C 44.847457,12.497187 35.502712,3.1524413 24,3.1524413 Z"
     inkscape:connector-curvature="0" />
  <path
     id="path4176"
     style="color:#000000;opacity:1;fill:none;stroke:#ffffff;stroke-width:1.93220329;stroke-linecap:round;stroke-linejoin:round;stroke-miterlimit:4;stroke-dasharray:none;stroke-opacity:1"
     d="M 43.830509,23.999899 C 43.830509,34.952441 34.952542,43.830407 24,43.830407 13.047458,43.830407 4.1694915,34.952441 4.1694915,23.999899 4.1694915,13.047356 13.047458,4.1693904 24,4.1693904 c 10.952542,0 19.830509,8.8779656 19.830509,19.8305086 z"
     inkscape:connector-curvature="0" />
  <path
     id="path2555-7-1-7"
     style="color:#000000;opacity:1;fill:none;stroke:#ffffff;stroke-width:0.30508476;stroke-linecap:round;stroke-linejoin:round;stroke-miterlimit:4;stroke-dasharray:none;stroke-opacity:1"
     d="m 24,3.1525431 c -11.502712,0 -20.8474576,9.3445419 -20.8474576,20.8474579 0,11.502914 9.3445416,20.847456 20.8474576,20.847456 11.502916,0 20.847457,-9.344542 20.847457,-20.847456 C 44.847457,12.497085 35.502712,3.1525431 24,3.1525431 Z"
     inkscape:connector-curvature="0" />
  <g
     id="layer2"
     display="none"
     transform="translate(-226.12 -28.077)">
    <rect
       id="rect3745"
       opacity=".9"
       rx="6"
       ry="6"
       height="85"
       filter="url(#filter3174)"
       width="86"
       y="7"
       x="5"
       fill="url(#ButtonShadow)" />
  </g>
  <path
     d="m 23.793161,10.37824 c 0,0 -1.35659,10e-4 -1.35659,1.297009 0,1.295664 -1.354617,1.295013 -1.354617,1.295013 0,0 -1.35659,0.002 -1.35659,-1.295013 v 5.859376 8.874467 1.348648 H 19.435371 13.623669 L 23.793161,38.862743 33.962652,27.75774 H 31.63876 l -3.485826,0.002 v -0.002 H 27.860958 V 26.409092 22.86169 17.534625 11.675249 c 0,1.295664 -1.35659,1.295013 -1.35659,1.295013 0,0 -1.354617,6.51e-4 -1.354617,-1.295013 0,-1.295728 -1.35659,-1.297009 -1.35659,-1.297009 z"
     id="path10812"
     style="color:#bebebe;display:inline;overflow:visible;visibility:visible;opacity:0.05;fill:url(#linearGradient10830);fill-opacity:1;fill-rule:nonzero;stroke:url(#linearGradient10828);stroke-width:2.03389835;stroke-linejoin:round;stroke-miterlimit:4;stroke-dasharray:none;stroke-opacity:1;marker:none;enable-background:accumulate"
     inkscape:connector-curvature="0" />
  <g
     style="fill:#ffffff;fill-rule:evenodd"
     transform="matrix(0.16239958,0,0,0.16198898,-61.704183,-14.315779)"
     id="g2844">
    <path
       inkscape:connector-curvature="0"
       d="m 486.05,209.29 v 1.0588 c 0,2.2488 1.4912,4.3462 2.435,5.8562 l 3.215,5.2562 2.2912,-23.989 -4.5175,5.3612 c -1.2812,1.7175 -3.4238,3.6238 -3.4238,6.4562 z m 58.459,-22.565 2.5988,-0.0125 v 6.35 h -1.765 v -3.5275 l -1.0962,3.5162 -1.3025,0.0112 -1.3062,-3.6125 v 3.6125 h -1.5888 v -6.3625 h 2.4025 l 1.0888,3.5775 0.96875,-3.5525 z m -4.9812,-0.0125 -0.007,1.7638 h -1.9412 v 4.5862 h -2.1175 v -4.5862 h -1.9412 v -1.7638 h 6.0075 z m -39.008,2.9988 4.0375,-0.355 -2.805,41.48 -4.9375,-0.7325 9.4838,16.264 c 1.62,2.7788 3.87,5.4875 6.5738,5.6088 h 0.35375 c 2.2738,-0.36125 4.4612,-2.1625 5.5038,-3.495 l 13.201,-13.791 -0.535,0.045 -13.976,-1.81 0.4025,-17.986 c -0.2025,-2.1212 -3.2825,-1.885 -4.5212,-1.8812 l -6.075,-0.0637 -1.8975,0.002 0.48625,-8.49 9.0062,-0.3125 c 1.8912,-0.065 3.3462,-0.55375 3.3462,-3.0175 v -3.175 c 0,-1.7238 -1.5438,-2.415 -3.525,-2.255 l -8.2938,0.6675 0.34625,-7.4225 16.766,-2.1025 h 2.2938 c 1.7875,0 3.8712,1.9212 4.72,3.0438 1.2662,1.675 1.4562,3.4175 1.4562,6.305 0,8.1962 0.7875,6.9562 -2.8238,12.346 1.0812,1.6138 1.9938,1.9175 2.715,4.3438 0.65,2.19 0.63875,3.8462 0.63875,6.5925 0,4.9488 0.17625,9.32 0.17625,14.288 l 51.74,-52.696 c 1.6562,-1.6862 3.14,-3.8325 3.14,-5.8638 v -0.35375 c 0,-3.5312 -2.835,-5.7188 -5.8512,-7.1825 l -38.498,-18.679 c -1.365,-0.6625 -2.6562,-1.3012 -4.1788,-1.3012 -5.0462,0 -8.6375,5.9038 -11.165,8.9462 l -27.305,33.034"
       id="path2830"
       style="fill:#ffffff" />
    <path
       inkscape:connector-curvature="0"
       d="m 553.31,257.68 h 10.469 v -6.565 H 553.31 Z m 47.829,6.9762 v 13.131 c 0,2.135 3.1438,4.9238 5.5412,4.9238 h 27.712 v -6.36 h -20.939 c -1.0138,0 -1.8475,-0.8325 -1.8475,-1.8462 v -6.5662 c 0,-1.2838 1.1388,-2.0512 2.4638,-2.0512 h 7.595 c 1.075,0 2.2575,0.91625 2.2575,2.0512 v 6.3612 h 10.47 v -9.6438 c 0,-2.385 -3.2162,-4.925 -6.1588,-4.925 h -21.964 c -2.0725,0 -5.1312,2.8712 -5.1312,4.925 z m -153.75,0.205 v 12.311 c 0,2.9988 3.105,5.5388 6.3638,5.5388 h 39.822 v -15.182 c 0,-0.59125 1.3488,-1.6412 1.8475,-1.6412 h 8.2112 c 1.0738,0 2.2575,0.91625 2.2575,2.0512 v 14.772 h 10.674 v -16.209 c 0,-3.7462 -2.4962,-6.7712 -6.1575,-6.7712 h 0.205 -21.554 c -3.9912,0 -6.1575,3.06 -6.1575,7.1812 v 9.4388 H 459.91 c -1.395,0 -2.0525,-1.045 -2.0525,-2.4625 v -5.745 c 0,-1.1012 1.1562,-2.2562 2.2575,-2.2562 h 8.0062 c 1.0438,0 2.2575,1.2138 2.2575,2.2562 v 6.1562 h 10.469 v -8.6188 c 0,-3.4488 -2.835,-5.95 -6.3625,-5.95 h -20.732 c -3.0688,0 -6.3638,2.5475 -6.3638,5.13 z m 70.819,1.2312 v 10.464 c 0,3.0138 2.6925,6.155 5.5425,6.155 h 22.375 c 2.3962,0 5.5425,-2.9212 5.5425,-5.1288 v -12.721 c 0,-2.5962 -3.1462,-5.13 -6.1588,-5.13 h -20.938 c -3.7325,0 -6.3638,2.6175 -6.3638,6.3612 z m 10.469,2.4625 c 0,-1.2912 1.1062,-2.6675 2.0525,-2.6675 h 8.2112 c 1.1225,0 2.2575,1.0888 2.2575,2.2562 v 6.1562 c 0,0.92375 -0.84625,2.0512 -1.6425,2.0512 h -8.8262 c -1.2838,0 -2.0525,-1.1375 -2.0525,-2.4625 v -5.3338 z m 24.632,14.156 h 40.234 c 2.3962,0 5.5412,-2.9212 5.5412,-5.1288 v -4.1038 c 0,-7.3912 -12.951,-5.54 -20.526,-5.54 -0.045,-0.0825 -0.41125,-0.79625 -0.41125,-0.82 0,-0.785 0.6075,-1.2312 1.4375,-1.2312 h 19.295 c 0.0662,-2.9575 1.8662,-4.745 3.49,-6.1562 h -21.554 c -7.4962,0 -15.19,-1.3475 -15.19,6.3612 v 1.8462 c 0,4.5488 2.9112,6.3612 7.595,6.3612 h 6.9788 c 1.455,0 6.1588,-0.545 6.1588,0.82 v 0.615 c 0,0.47375 -0.1425,0.61625 -0.61625,0.61625 h -21.964 v -16.62 h -10.469 v 22.98 z m -130.55,-17.44 v 17.44 h 10.469 v -14.156 c 0,-1.7112 0.97375,-2.6675 2.6688,-2.6675 h 9.2375 c 0.365,-1.5688 0.42375,-2.2838 1.0562,-3.6638 0.6625,-1.4462 1.5562,-1.575 2.2275,-2.4925 h -15.6 c -3.0938,0 -4.92,-0.365 -6.9775,0.82375 -1.3712,0.79375 -3.0812,2.6075 -3.0812,4.7162"
       id="path2832"
       style="fill:#ffffff" />
  </g>
</svg>
