<?xml version="1.0" encoding="UTF-8" standalone="no"?>
<!-- Generator: flash2svg, http://dissentgraphics.com/tools/flash2svg -->

<svg
   xmlns:dc="http://purl.org/dc/elements/1.1/"
   xmlns:cc="http://creativecommons.org/ns#"
   xmlns:rdf="http://www.w3.org/1999/02/22-rdf-syntax-ns#"
   xmlns:svg="http://www.w3.org/2000/svg"
   xmlns="http://www.w3.org/2000/svg"
   xmlns:xlink="http://www.w3.org/1999/xlink"
   xmlns:sodipodi="http://sodipodi.sourceforge.net/DTD/sodipodi-0.dtd"
   xmlns:inkscape="http://www.inkscape.org/namespaces/inkscape"
   id="Sublime-Text"
   image-rendering="optimizeSpeed"
   version="1.1"
   style="background-color:#FFFFFF"
   x="0px"
   y="0px"
   width="1024px"
   height="1024px"
   viewBox="0 0 1024 1024"
   enable-background="new 0 0 1024 1024"
   sodipodi:docname="scribus.svg"
   inkscape:export-filename="/home/unc/OSX/sublime-text.png"
   inkscape:export-xdpi="4.5"
   inkscape:export-ydpi="4.5"
   inkscape:version="0.92.2 2405546, 2018-03-11">
  <metadata
     id="metadata27">
    <rdf:RDF>
      <cc:Work
         rdf:about="">
        <dc:format>image/svg+xml</dc:format>
        <dc:type
           rdf:resource="http://purl.org/dc/dcmitype/StillImage" />
        <dc:title></dc:title>
      </cc:Work>
    </rdf:RDF>
  </metadata>
  <sodipodi:namedview
     pagecolor="#ffffff"
     bordercolor="#666666"
     borderopacity="1"
     objecttolerance="10"
     gridtolerance="10"
     guidetolerance="10"
     inkscape:pageopacity="0"
     inkscape:pageshadow="2"
     inkscape:window-width="1280"
     inkscape:window-height="751"
     id="namedview25"
     showgrid="true"
     inkscape:pagecheckerboard="true"
     inkscape:zoom="0.45"
     inkscape:cx="512"
     inkscape:cy="534.22222"
     inkscape:window-x="0"
     inkscape:window-y="24"
     inkscape:window-maximized="1"
     inkscape:current-layer="Sublime-Text">
    <inkscape:grid
       type="xygrid"
       id="grid833" />
  </sodipodi:namedview>
  <defs
     transform="matrix(1 0 0 1 0 0) "
     id="defs2">
    <linearGradient
       id="linearGradient846"
       inkscape:collect="always">
      <stop
         id="stop842"
         offset="0"
         style="stop-color:#f9f9f9;stop-opacity:1" />
      <stop
         id="stop844"
         offset="1"
         style="stop-color:#e6e6e6;stop-opacity:1" />
    </linearGradient>
    <linearGradient
       id="linearGradient843"
       inkscape:collect="always">
      <stop
         id="stop839"
         offset="0"
         style="stop-color:#ffffff;stop-opacity:1" />
      <stop
         id="stop841"
         offset="1"
         style="stop-color:#d7d7d7;stop-opacity:1" />
    </linearGradient>
    <linearGradient
       inkscape:collect="always"
       id="linearGradient839">
      <stop
         style="stop-color:#ffffff;stop-opacity:1"
         offset="0"
         id="stop835" />
      <stop
         style="stop-color:#d7d7d7;stop-opacity:1"
         offset="1"
         id="stop837" />
    </linearGradient>
    <linearGradient
       gradientUnits="userSpaceOnUse"
       gradientTransform="matrix(1.7065688,0,0,1.1377124,213.16762,189.02592)"
       id="sublime-icon-b"
       x1="193.59095"
       x2="211.4896"
       y1="414.55885"
       y2="324.75415">
      <stop
         offset="0%"
         stop-color="#FF9700"
         id="stop7" />
      <stop
         offset="53%"
         stop-color="#F48E00"
         id="stop9" />
      <stop
         offset="100%"
         stop-color="#CE6E00"
         id="stop11" />
    </linearGradient>
    <linearGradient
       inkscape:collect="always"
       xlink:href="#linearGradient846"
       id="linearGradient841"
       x1="520"
       y1="4"
       x2="520"
       y2="1024"
       gradientUnits="userSpaceOnUse" />
    <filter
       inkscape:collect="always"
       style="color-interpolation-filters:sRGB"
       id="filter874"
       x="-0.041376624"
       width="1.0827532"
       y="-0.03186"
       height="1.06372">
      <feGaussianBlur
         inkscape:collect="always"
         stdDeviation="6.7714073"
         id="feGaussianBlur876" />
    </filter>
    <linearGradient
       inkscape:collect="always"
       xlink:href="#linearGradient839"
       id="linearGradient878"
       gradientUnits="userSpaceOnUse"
       x1="520"
       y1="4"
       x2="520"
       y2="1024" />
    <linearGradient
       inkscape:collect="always"
       xlink:href="#linearGradient843"
       id="linearGradient880"
       gradientUnits="userSpaceOnUse"
       x1="520"
       y1="4"
       x2="520"
       y2="1024" />
  </defs>
  <g
     id="g852"
     style="opacity:0.2;fill:#000000;fill-opacity:1;filter:url(#filter874)"
     transform="matrix(0.99609375,0,0,0.99609375,14.483173,3.880738)">
    <path
       inkscape:connector-curvature="0"
       style="fill:#000000;fill-opacity:1;stroke-width:1.53424656"
       d="m 708.28356,512.08051 c 0,-5.98155 -4.41924,-9.43078 -9.84236,-7.71708 L 325.3588,622.70662 c -5.43402,1.72462 -9.84236,7.97905 -9.84236,13.94969 v 120.95195 c 0,5.98157 4.40834,9.44169 9.84236,7.71709 L 698.4412,646.99307 c 5.42312,-1.72462 9.84236,-7.97905 9.84236,-13.96062 z"
       id="path843" />
    <path
       inkscape:connector-curvature="0"
       style="fill:#000000;fill-opacity:1;stroke-width:1.53424656"
       d="m 315.51644,508.89733 c 0,5.9812 4.40772,12.23526 9.841,13.95977 l 373.08513,118.34701 c 5.43327,1.7245 9.84099,-1.73543 9.84099,-7.7057 v -120.9556 c 0,-5.97029 -4.40772,-12.22436 -9.84099,-13.94887 L 325.35744,380.24695 c -5.43328,-1.72451 -9.841,1.72451 -9.841,7.70571 z"
       id="path845" />
    <path
       inkscape:connector-curvature="0"
       style="fill:#000000;fill-opacity:1;stroke-width:1.53424656"
       d="m 708.28356,263.84198 c 0,-5.98157 -4.41924,-9.44171 -9.84236,-7.7171 L 325.3588,374.45716 c -5.43402,1.72462 -9.84236,7.97907 -9.84236,13.96062 v 120.95195 c 0,5.98155 4.40834,9.43078 9.84236,7.71709 L 698.4412,398.74361 c 5.42312,-1.72461 9.84236,-7.97905 9.84236,-13.94969 z"
       id="path847" />
  </g>
  <g
     id="shadow"
     style="fill:url(#linearGradient841);fill-opacity:1"
     transform="matrix(0.90820313,0,0,0.90820307,48.999996,45.000028)">
    <g
       id="shape"
       style="fill:url(#linearGradient880);fill-opacity:1">
      <path
         id="path"
         d="m 986.739,315.98644 q -9.3288,-22.61695 -21.0441,-44.31186 c -4.3932,-8.18983 -9.0576,-16.32543 -13.9932,-24.29831 C 930.49492,212.98983 904.62373,180.50169 874.08814,149.9661 774.12881,50.00678 653.39661,0 512,0 370.60339,0 249.92542,50.00678 149.9661,149.9661 50.00678,249.92542 0,370.60339 0,512 0,653.39661 50.00678,774.12881 149.9661,874.08814 249.92542,974.04746 370.60339,1024 512,1024 653.39661,1024 774.12881,974.04746 874.08814,874.08814 929.13898,818.98305 969.0576,757.58644 993.7898,689.95254 1013.9119,634.79322 1024,575.51186 1024,512 c 0,-48.70508 -5.9119,-94.96949 -17.7898,-138.79322 -1.356,-4.93559 -2.7661,-9.87119 -4.2305,-14.75254 -4.4475,-14.42712 -9.5458,-28.58305 -15.2407,-42.4678 z"
         style="fill:url(#linearGradient878);fill-opacity:1;stroke-width:1.08474576"
         inkscape:connector-curvature="0"
         inkscape:export-filename="/home/unc/OSX/sublime-text.png"
         inkscape:export-xdpi="4.5"
         inkscape:export-ydpi="4.5" />
    </g>
  </g>
  <ellipse
     style="opacity:1;fill:#181c57;fill-opacity:1;stroke:#fefefe;stroke-width:0;stroke-linecap:square;stroke-linejoin:miter;stroke-miterlimit:0;stroke-dasharray:none;stroke-opacity:1;paint-order:stroke markers fill"
     id="path841"
     cx="513.54413"
     cy="510.45587"
     rx="428.98529"
     ry="428.98526" />
  <g
     style="fill:#ffffff;fill-opacity:0.85080704"
     transform="matrix(1.4791349,0,0,1.4791349,281.25026,230.56474)"
     id="g26">
    <path
       style="fill:#ffffff;fill-opacity:0.85080704"
       inkscape:connector-curvature="0"
       d="m 192.511,64.521 c -2.746,-2.745 -7.162,-2.862 -10.046,-0.268 -14.862,13.354 -93,81.184 -171.942,105.162 l -0.855,0.259 c -2.051,0.623 -3.727,2.114 -4.582,4.082 -0.854,1.969 -0.801,4.209 0.146,6.133 l 0.395,0.799 c 0.004,0.011 0.008,0.019 0.015,0.027 0.271,0.564 11.653,24.328 13.133,57.811 0.916,20.82 -2.101,40.832 -8.945,59.519 -2.442,0.19 -4.834,1.215 -6.703,3.084 -4.168,4.167 -4.166,10.921 0,15.087 4.166,4.166 10.92,4.167 15.086,0 2.408,-2.409 3.416,-5.682 3.039,-8.82 l 76.486,-76.489 c 1.908,-1.907 2.609,-4.71 1.824,-7.289 -2.703,-8.89 -0.291,-18.509 6.299,-25.097 4.756,-4.758 11.078,-7.377 17.809,-7.377 6.731,0 13.058,2.619 17.813,7.377 4.758,4.756 7.375,11.08 7.375,17.808 0,6.728 -2.617,13.051 -7.377,17.81 -4.754,4.754 -11.074,7.371 -17.799,7.372 -2.494,0 -4.953,-0.362 -7.31,-1.075 -2.582,-0.783 -5.379,-0.08 -7.283,1.824 L 32.61,318.749 c -3.142,-0.378 -6.416,0.628 -8.826,3.038 -4.166,4.166 -4.164,10.921 0,15.087 4.166,4.166 10.922,4.167 15.088,0 1.869,-1.869 2.892,-4.258 3.084,-6.702 16.48,-6.036 34.014,-9.105 52.15,-9.105 2.276,0 4.604,0.049 6.922,0.145 33.588,1.385 58.088,13.064 58.315,13.173 l 0.775,0.382 c 1.014,0.498 2.117,0.749 3.221,0.748 0.99,0.001 1.98,-0.2 2.91,-0.603 1.963,-0.855 3.457,-2.529 4.08,-4.579 l 0.258,-0.854 c 23.979,-78.943 91.807,-157.083 105.16,-171.944 2.594,-2.888 2.477,-7.3 -0.271,-10.046 z"
       id="path22" />
    <path
       style="fill:#ffffff;fill-opacity:0.85080704"
       inkscape:connector-curvature="0"
       d="M 337.857,86.974 253.02,2.139 C 251.65,0.769 249.792,0 247.855,0 c -1.937,-0.001 -3.796,0.768 -5.164,2.137 l -36.295,36.299 c -2.854,2.853 -2.854,7.477 0,10.329 l 84.84,84.834 c 1.369,1.371 3.225,2.14 5.164,2.14 1.936,0 3.793,-0.771 5.162,-2.14 l 36.297,-36.297 c 2.852,-2.851 2.852,-7.475 -0.002,-10.328 z"
       id="path24" />
  </g>
</svg>
