<?xml version="1.0" encoding="UTF-8" standalone="no"?>
<!-- Created with Inkscape (http://www.inkscape.org/) -->

<svg
   xmlns:dc="http://purl.org/dc/elements/1.1/"
   xmlns:cc="http://creativecommons.org/ns#"
   xmlns:rdf="http://www.w3.org/1999/02/22-rdf-syntax-ns#"
   xmlns:svg="http://www.w3.org/2000/svg"
   xmlns="http://www.w3.org/2000/svg"
   xmlns:xlink="http://www.w3.org/1999/xlink"
   xmlns:sodipodi="http://sodipodi.sourceforge.net/DTD/sodipodi-0.dtd"
   xmlns:inkscape="http://www.inkscape.org/namespaces/inkscape"
   id="svg4061"
   height="48"
   width="48"
   version="1.1"
   inkscape:version="0.92.2 (unknown)"
   sodipodi:docname="simplescan.svg">
  <sodipodi:namedview
     pagecolor="#ffffff"
     bordercolor="#666666"
     borderopacity="1"
     objecttolerance="10"
     gridtolerance="10"
     guidetolerance="10"
     inkscape:pageopacity="0"
     inkscape:pageshadow="2"
     inkscape:window-width="2154"
     inkscape:window-height="1274"
     id="namedview40"
     showgrid="false"
     inkscape:zoom="5.6568542"
     inkscape:cx="49.580736"
     inkscape:cy="17.903169"
     inkscape:window-x="214"
     inkscape:window-y="127"
     inkscape:window-maximized="0"
     inkscape:current-layer="svg4061" />
  <defs
     id="defs4063">
    <linearGradient
       id="linearGradient3026"
       y2="40.495998"
       gradientUnits="userSpaceOnUse"
       x2="71.204002"
       gradientTransform="matrix(1.5184059,0,0,1.5418952,-84.388034,-18.712379)"
       y1="15.369"
       x1="71.204002"
       xlink:href="#linearGradient4829">
      <stop
         id="stop4808-4"
         stop-color="#fff"
         offset="0" />
      <stop
         id="stop4810-0"
         stop-color="#fff"
         stop-opacity=".23529"
         offset=".42448" />
      <stop
         id="stop4812-8"
         stop-color="#fff"
         stop-opacity=".15686"
         offset=".82090" />
      <stop
         id="stop4814-0"
         stop-color="#fff"
         stop-opacity=".39216"
         offset="1" />
    </linearGradient>
    <radialGradient
       id="radialGradient3029"
       fx="4.459"
       fy="8.5089"
       gradientUnits="userSpaceOnUse"
       cy="8.6258"
       cx="15.026"
       gradientTransform="matrix(-3.4973e-8 1.8855 -1.7764 -5.4723e-8 39.14 -7.9932)"
       r="20">
      <stop
         id="stop4170"
         stop-color="#c24251"
         offset="0" />
      <stop
         id="stop4172"
         stop-color="#c24251"
         offset=".26238" />
      <stop
         id="stop4174"
         stop-color="#a63643"
         offset=".66094" />
      <stop
         id="stop4176"
         stop-color="#a63643"
         offset="1" />
    </radialGradient>
    <radialGradient
       id="radialGradient3032"
       gradientUnits="userSpaceOnUse"
       cy="3.99"
       cx="23.896"
       gradientTransform="matrix(0,2.8885,-3.8128001,0,39.213001,-65.95)"
       r="20.397">
      <stop
         id="stop3244-9-33-7-0-9"
         stop-color="#fff"
         offset="0" />
      <stop
         id="stop3246-3-5-0-8-5"
         stop-color="#ddd"
         offset=".26238" />
      <stop
         id="stop3248-1-7-8-8-1"
         stop-color="#abacae"
         offset=".66094" />
      <stop
         id="stop3250-9-3-0-5-1"
         stop-color="#89898b"
         offset="1" />
    </radialGradient>
    <radialGradient
       id="radialGradient3035"
       gradientUnits="userSpaceOnUse"
       cy="186.17"
       cx="99.157"
       gradientTransform="matrix(0.25431657,0,0,0.08355318,0.0248938,27.20055)"
       r="62.769">
      <stop
         id="stop3822-2-6-3"
         stop-color="#3d3d3d"
         offset="0" />
      <stop
         id="stop3864-8-7-7"
         stop-color="#686868"
         stop-opacity=".49804"
         offset=".5" />
      <stop
         id="stop3824-1-2-5"
         stop-color="#686868"
         stop-opacity="0"
         offset="1" />
    </radialGradient>
    <linearGradient
       id="linearGradient4433"
       y2="25.611"
       gradientUnits="userSpaceOnUse"
       x2="23.078"
       gradientTransform="matrix(1 0 0 1.0521 0 -.90547)"
       y1="13.035"
       x1="22.759">
      <stop
         id="stop6305-1-0-2"
         stop-color="#fff"
         offset="0" />
      <stop
         id="stop6307-5-0-6"
         stop-color="#fff"
         stop-opacity="0"
         offset="1" />
    </linearGradient>
    <linearGradient
       id="linearGradient4829">
      <stop
         style="stop-color:#f4fbfc;stop-opacity:1;"
         offset="0"
         id="stop4831" />
      <stop
         style="stop-color:#d6d6d6;stop-opacity:1;"
         offset="1"
         id="stop4833" />
    </linearGradient>
    <radialGradient
       inkscape:collect="always"
       xlink:href="#radialGradient3032"
       id="radialGradient3875"
       gradientUnits="userSpaceOnUse"
       gradientTransform="matrix(0,2.9218044,-3.6362449,0,39.795552,-66.979516)"
       cx="23.896"
       cy="3.99"
       r="20.397" />
  </defs>
  <metadata
     id="metadata4066">
    <rdf:RDF>
      <cc:Work
         rdf:about="">
        <dc:format>image/svg+xml</dc:format>
        <dc:type
           rdf:resource="http://purl.org/dc/dcmitype/StillImage" />
        <dc:title />
      </cc:Work>
    </rdf:RDF>
  </metadata>
  <path
     inkscape:connector-curvature="0"
     style="fill:url(#radialGradient3035);stroke-width:0.94626188"
     d="m 40.966094,42.75586 a 16.983047,5.2445421 0 0 1 -33.9660939,0 16.983047,5.2445421 0 1 1 33.9660939,0 z"
     id="path3818-0-5" />
  <path
     inkscape:connector-curvature="0"
     d="m 24.007832,3.2712391 c -11.476221,0 -20.7994451,9.2949499 -20.7994451,20.7363629 0,11.441416 9.3232241,20.736364 20.7994451,20.736364 11.476222,0 20.799447,-9.294948 20.799447,-20.736364 0,-11.441413 -9.323225,-20.7363629 -20.799447,-20.7363629 z"
     style="color:#000000;fill:url(#radialGradient3875);stroke-width:0.98218638"
     id="path2555-7-2" />
  <path
     inkscape:connector-curvature="0"
     d="m 23.903242,3.2712391 c -11.476221,0 -20.7994455,9.2949499 -20.7994455,20.7363629 0,11.441416 9.3232245,20.736364 20.7994455,20.736364 11.476222,0 20.799447,-9.294948 20.799447,-20.736364 0,-11.441413 -9.323225,-20.7363629 -20.799447,-20.7363629 z"
     style="color:#000000;fill:#9a9a9a;fill-opacity:1;stroke:#929292;stroke-width:0.20759293;stroke-miterlimit:4;stroke-dasharray:none;stroke-opacity:0.73869348"
     id="path2555-7-65" />
  <path
     inkscape:connector-curvature="0"
     d="m 43.79267,24.007602 c 0,10.894179 -8.857519,19.724835 -19.784838,19.724835 -10.927319,0 -19.784838,-8.830656 -19.784838,-19.724835 0,-10.894176 8.857519,-19.7248329 19.784838,-19.7248329 10.927319,0 19.784838,8.8306569 19.784838,19.7248329 z"
     style="color:#000000;opacity:1;fill:none;stroke:#fefefe;stroke-width:2.49111533;stroke-linecap:round;stroke-linejoin:round;stroke-miterlimit:4;stroke-dasharray:none;stroke-opacity:1"
     id="path4176" />
  <path
     inkscape:connector-curvature="0"
     d="M 23.799446,3.5272718 C 12.323225,3.5272718 3.0000005,12.822019 3.0000005,24.263635 3.0000005,35.705252 12.323022,45 23.799446,45 c 11.476425,0 20.799447,-9.294748 20.799447,-20.736365 0,-11.441616 -9.323225,-20.7363632 -20.799447,-20.7363632 z"
     style="color:#000000;opacity:1;fill:none;stroke:#f2f2f2;stroke-width:0;stroke-linecap:round;stroke-linejoin:round;stroke-miterlimit:4;stroke-dasharray:none;stroke-opacity:1"
     id="path2555-7-1-7" />
  <g
     style="fill:none;stroke:#000000;stroke-width:0.96951741;stroke-linecap:round;stroke-linejoin:round"
     transform="matrix(0.99920255,0,0,0.95393443,-1.0334275,1.3646333)"
     id="g4317" />
  <g
     inkscape:groupmode="layer"
     id="layer1"
     inkscape:label="Layer 1" />
  <g
     transform="matrix(0.04449828,0,0,0.04647785,12.545591,11.899802)"
     id="g30"
     style="fill:#ffffff">
    <g
       id="g28"
       style="fill:#ffffff">
      <rect
         x="153"
         y="497.25"
         width="38.25"
         height="19.125"
         id="rect2"
         style="fill:#ffffff" />
      <rect
         x="76.5"
         y="401.625"
         width="19.125"
         height="38.25"
         id="rect4"
         style="fill:#ffffff" />
      <path
         inkscape:connector-curvature="0"
         d="m 344.25,133.875 h 95.625 L 325.125,0 v 114.75 c 0,11.475 9.563,19.125 19.125,19.125 z"
         id="path6"
         style="fill:#ffffff" />
      <rect
         x="210.375"
         y="497.25"
         width="38.25"
         height="19.125"
         id="rect8"
         style="fill:#ffffff" />
      <path
         inkscape:connector-curvature="0"
         d="M 95.625,478.125 V 459 H 76.5 v 19.125 c 0,21.037 17.212,38.25 38.25,38.25 h 19.125 V 497.25 H 114.75 c -9.562,0 -19.125,-7.65 -19.125,-19.125 z"
         id="path10"
         style="fill:#ffffff" />
      <path
         inkscape:connector-curvature="0"
         d="M 439.875,153 H 344.25 C 323.213,153 306,135.788 306,114.75 V 0 H 114.75 C 93.712,0 76.5,17.212 76.5,38.25 v 248.625 h 363.375 z"
         id="path12"
         style="fill:#ffffff" />
      <rect
         x="76.5"
         y="344.25"
         width="19.125"
         height="38.25"
         id="rect14"
         style="fill:#ffffff" />
      <rect
         x="420.75"
         y="401.625"
         width="19.125"
         height="38.25"
         id="rect16"
         style="fill:#ffffff" />
      <rect
         x="420.75"
         y="344.25"
         width="19.125"
         height="38.25"
         id="rect18"
         style="fill:#ffffff" />
      <polygon
         points="38.25,363.375 57.375,363.375 57.375,325.125 459,325.125 459,363.375 478.125,363.375 478.125,267.75 459,267.75 459,306 57.375,306 57.375,267.75 38.25,267.75 "
         id="polygon20"
         style="fill:#ffffff" />
      <path
         inkscape:connector-curvature="0"
         d="m 420.75,478.125 c 0,11.475 -7.65,19.125 -19.125,19.125 H 382.5 v 19.125 h 19.125 c 21.037,0 38.25,-17.213 38.25,-38.25 V 459 H 420.75 Z"
         id="path22"
         style="fill:#ffffff" />
      <rect
         x="267.75"
         y="497.25"
         width="38.25"
         height="19.125"
         id="rect24"
         style="fill:#ffffff" />
      <rect
         x="325.125"
         y="497.25"
         width="38.25"
         height="19.125"
         id="rect26"
         style="fill:#ffffff" />
    </g>
  </g>
</svg>
