<?xml version="1.0" encoding="UTF-8" standalone="no"?>
<!-- Generator: flash2svg, http://dissentgraphics.com/tools/flash2svg -->

<svg
   xmlns:dc="http://purl.org/dc/elements/1.1/"
   xmlns:cc="http://creativecommons.org/ns#"
   xmlns:rdf="http://www.w3.org/1999/02/22-rdf-syntax-ns#"
   xmlns:svg="http://www.w3.org/2000/svg"
   xmlns="http://www.w3.org/2000/svg"
   xmlns:xlink="http://www.w3.org/1999/xlink"
   xmlns:sodipodi="http://sodipodi.sourceforge.net/DTD/sodipodi-0.dtd"
   xmlns:inkscape="http://www.inkscape.org/namespaces/inkscape"
   id="Mplayer"
   image-rendering="optimizeSpeed"
   version="1.1"
   style="background-color:#ffffff"
   x="0px"
   y="0px"
   width="1024px"
   height="1024px"
   viewBox="0 0 1024 1024"
   enable-background="new 0 0 1024 1024"
   sodipodi:docname="test.svg"
   inkscape:version="0.92.2 (5c3e80d, 2017-08-06)">
  <metadata
     id="metadata26">
    <rdf:RDF>
      <cc:Work
         rdf:about="">
        <dc:format>image/svg+xml</dc:format>
        <dc:type
           rdf:resource="http://purl.org/dc/dcmitype/StillImage" />
        <dc:title></dc:title>
      </cc:Work>
    </rdf:RDF>
  </metadata>
  <sodipodi:namedview
     pagecolor="#ffffff"
     bordercolor="#666666"
     borderopacity="1"
     objecttolerance="10"
     gridtolerance="10"
     guidetolerance="10"
     inkscape:pageopacity="0"
     inkscape:pageshadow="2"
     inkscape:window-width="1440"
     inkscape:window-height="764"
     id="namedview24"
     showgrid="true"
     inkscape:pagecheckerboard="true"
     inkscape:zoom="0.55175781"
     inkscape:cx="512"
     inkscape:cy="367.00885"
     inkscape:window-x="0"
     inkscape:window-y="25"
     inkscape:window-maximized="1"
     inkscape:current-layer="shape2">
    <inkscape:grid
       type="xygrid"
       id="grid841" />
  </sodipodi:namedview>
  <defs
     transform="matrix(1 0 0 1 0 0) "
     id="defs2">
    <linearGradient
       inkscape:collect="always"
       id="linearGradient847">
      <stop
         id="stop845"
         offset="0"
         style="stop-color:#3b3b3b;stop-opacity:1" />
      <stop
         id="stop843"
         offset="1"
         style="stop-color:#111111;stop-opacity:1" />
    </linearGradient>
    <linearGradient
       inkscape:collect="always"
       id="linearGradient837">
      <stop
         style="stop-color:#ffffff;stop-opacity:1"
         offset="0"
         id="stop833" />
      <stop
         style="stop-color:#d7d7d7;stop-opacity:1"
         offset="1"
         id="stop835" />
    </linearGradient>
    <linearGradient
       inkscape:collect="always"
       xlink:href="#linearGradient837"
       id="linearGradient839"
       x1="537.59998"
       y1="-9.1428576"
       x2="540"
       y2="1024"
       gradientUnits="userSpaceOnUse" />
    <radialGradient
       inkscape:collect="always"
       xlink:href="#linearGradient847"
       id="radialGradient955"
       cx="512.04999"
       cy="512.04999"
       fx="512.04999"
       fy="512.04999"
       r="472"
       gradientUnits="userSpaceOnUse"
       gradientTransform="matrix(1.8032396,-0.03011953,0.02444213,1.4633369,-423.81438,-221.82893)" />
  </defs>
  <g
     id="shadow"
     transform="matrix(0.99609375,0,0,0.99609375,2,2)">
    <g
       id="shape">
      <path
         id="path"
         d="m 986.739,315.98644 q -9.3288,-22.61695 -21.0441,-44.31186 c -4.3932,-8.18983 -9.0576,-16.32543 -13.9932,-24.29831 C 930.49492,212.98983 904.62373,180.50169 874.08814,149.9661 774.12881,50.00678 653.39661,0 512,0 370.60339,0 249.92542,50.00678 149.9661,149.9661 50.00678,249.92542 0,370.60339 0,512 0,653.39661 50.00678,774.12881 149.9661,874.08814 249.92542,974.04746 370.60339,1024 512,1024 653.39661,1024 774.12881,974.04746 874.08814,874.08814 929.13898,818.98305 969.0576,757.58644 993.7898,689.95254 1013.9119,634.79322 1024,575.51186 1024,512 c 0,-48.70508 -5.9119,-94.96949 -17.7898,-138.79322 -1.356,-4.93559 -2.7661,-9.87119 -4.2305,-14.75254 -4.4475,-14.42712 -9.5458,-28.58305 -15.2407,-42.4678 z"
         style="fill:url(#linearGradient839);fill-opacity:1;stroke-width:1.08474576"
         inkscape:connector-curvature="0" />
    </g>
  </g>
  <g
     id="bg"
     transform="matrix(0.99682203,0,0,0.99682203,1.0772777,2.0772814)">
    <g
       id="shape2">
      <path
         id="path1"
         d="m 929.85,289.65 c -2.35,-4.35 -4.95,-9 -7.65,-13.6 -20.3,-34.5 -45.8,-67.2 -76.35,-97.75 C 773.25,105.7 688.7,61.65 592.2,46.25 c -16.25,-2.6 -32.8,-4.4 -50.05,-5.35 -9.7,-0.55 -19.85,-0.85 -30.1,-0.85 -9.35,0 -18.6,0.25 -27.9,0.75 -118.35,6.1 -220.3,51.95 -305.85,137.5 -20.5,20.5 -38.75,41.95 -54.7,64.4 -15.35,21.55 -28.55,44 -39.6,67.2 l -0.025,-0.025 Q 40.05,401.873 40.05,512.05 c 0,130.35 46.1,241.65 138.25,333.8 56.7,56.65 120.55,95.9 191.1,117.55 36.75,11.25 74.8,17.85 114.75,19.95 0.15,0 0.25,0 0.4,0 8.5,0.45 16.6,0.7 24.5,0.7 1.2,0 2.1,0 3,0 10.3,0 20.5,-0.3 30.1,-0.8 2.5,-0.15 4.75,-0.3 6.95,-0.45 20.2,-1.45 39.9,-4.05 58.7,-7.7 7.95,-1.55 15.8,-3.3 23.4,-5.15 80.8,-20.3 152.15,-61.6 214.65,-124.1 48.6,-48.6 84.4,-102.5 107.35,-161.8 18.45,-47.65 28.65,-98.8 30.55,-153.5 0.2,-6.05 0.3,-12.25 0.3,-18.5 0,-0.65 0,-1.35 0,-2 0,-0.35 0,-0.65 0,-1 -0.2,-40.65 -4.95,-79.5 -14.3,-117 -1.1,-4.35 -2.35,-9 -3.65,-13.6 -1,-3.4 -2,-6.85 -3.15,-10.5 -1.6,-5.15 -3.4,-10.5 -5.3,-15.85 -5.05,-14.25 -10.85,-28.25 -17.45,-42.15 -1.85,-3.8 -3.75,-7.65 -5.7,-11.5 -1.45,-2.85 -2.95,-5.7 -4.65,-8.8 z"
         style="fill:url(#radialGradient955);fill-opacity:1"
         inkscape:connector-curvature="0" />
    </g>
  </g>
  <g
     id="icon"
     transform="matrix(3.8787879,0,0,3.8787879,-256.0291,-63.515154)">
    <g
       id="box">
      <path
         id="Path"
         class="shp1"
         d="M 126,196.64 199.94,240 v -46 l -73.63,-44 z"
         inkscape:connector-curvature="0"
         style="fill:#f87f00" />
      <path
         id="path13"
         class="shp2"
         d="M 273.63,151 200,194.34 v 46 l 73.94,-42.7 z"
         inkscape:connector-curvature="0"
         style="fill:#d26917" />
      <path
         id="Path 2"
         class="shp3"
         d="M 104,140.63 126.52,152.66 155.25,137.6 134.32,123 Z"
         inkscape:connector-curvature="0"
         style="fill:#f8a061" />
      <path
         id="Path 4"
         class="shp4"
         d="M 265.98,120 246,132.7 275,151 298,139 Z"
         inkscape:connector-curvature="0"
         style="fill:#e4783b" />
      <path
         id="Path 8"
         class="shp5"
         d="m 126,152 6,3 v -6 z"
         inkscape:connector-curvature="0"
         style="fill:#95461b" />
      <path
         id="Path 7"
         class="shp6"
         d="m 200,193.86 24.58,16.98 74.42,-42.83 -24,-17 z"
         inkscape:connector-curvature="0"
         style="fill:#e17229" />
      <path
         id="Path 3"
         class="shp7"
         d="M 177.23,209.55 199.79,194.25 125.91,152.01 101,164.87 Z"
         inkscape:connector-curvature="0"
         style="fill:#f99046" />
      <path
         id="path20"
         class="shp5"
         d="m 269,147 v 7 l 6,-3 z"
         inkscape:connector-curvature="0"
         style="fill:#95461b" />
    </g>
    <g
       id="contents">
      <path
         id="Path 5"
         class="shp8"
         d="m 132,98 v 57 l 68,39 v -58 z"
         inkscape:connector-curvature="0"
         style="fill:#0a66d3" />
      <path
         id="path24"
         class="shp9"
         d="m 200,136 v 59 L 268.95,155 269,98 Z"
         inkscape:connector-curvature="0"
         style="fill:#30b4ff" />
      <path
         id="Path 6"
         class="shp11"
         d="M 200.07,136 269,98 200.07,59 132,98 Z"
         inkscape:connector-curvature="0"
         style="fill:#18b8f7" />
      <path
         id="path29"
         class="shp8"
         d="m 132,98 68,96 v -58 z"
         inkscape:connector-curvature="0"
         style="fill:#0a66d3" />
    </g>
  </g>
</svg>
