<?xml version="1.0" encoding="UTF-8" standalone="no"?>
<!-- Created with Inkscape (http://www.inkscape.org/) -->

<svg
   xmlns:dc="http://purl.org/dc/elements/1.1/"
   xmlns:cc="http://creativecommons.org/ns#"
   xmlns:rdf="http://www.w3.org/1999/02/22-rdf-syntax-ns#"
   xmlns:svg="http://www.w3.org/2000/svg"
   xmlns="http://www.w3.org/2000/svg"
   xmlns:xlink="http://www.w3.org/1999/xlink"
   xmlns:sodipodi="http://sodipodi.sourceforge.net/DTD/sodipodi-0.dtd"
   xmlns:inkscape="http://www.inkscape.org/namespaces/inkscape"
   id="svg4061"
   height="48"
   width="48"
   version="1.1"
   inkscape:version="0.92.2 (unknown)"
   sodipodi:docname="steam_icon_224260.svg">
  <sodipodi:namedview
     pagecolor="#ffffff"
     bordercolor="#666666"
     borderopacity="1"
     objecttolerance="10"
     gridtolerance="10"
     guidetolerance="10"
     inkscape:pageopacity="0"
     inkscape:pageshadow="2"
     inkscape:window-width="1378"
     inkscape:window-height="894"
     id="namedview40"
     showgrid="false"
     inkscape:zoom="9.8333333"
     inkscape:cx="25.25164"
     inkscape:cy="12.70945"
     inkscape:window-x="1074"
     inkscape:window-y="205"
     inkscape:window-maximized="0"
     inkscape:current-layer="g4206"
     inkscape:lockguides="true" />
  <defs
     id="defs4063">
    <linearGradient
       inkscape:collect="always"
       id="linearGradient3972">
      <stop
         style="stop-color:#ff6600;stop-opacity:1"
         offset="0"
         id="stop3968" />
      <stop
         style="stop-color:#800000;stop-opacity:1"
         offset="1"
         id="stop3970" />
    </linearGradient>
    <linearGradient
       inkscape:collect="always"
       id="linearGradient3361">
      <stop
         style="stop-color:#0068e0;stop-opacity:1;"
         offset="0"
         id="stop3363" />
      <stop
         style="stop-color:#00acf4;stop-opacity:1"
         offset="1"
         id="stop3365" />
    </linearGradient>
    <linearGradient
       id="linearGradient3026"
       y2="40.495998"
       gradientUnits="userSpaceOnUse"
       x2="71.204002"
       gradientTransform="matrix(1.617,0,0,1.617,-92.707,-21.06)"
       y1="15.369"
       x1="71.204002"
       xlink:href="#linearGradient3361">
      <stop
         id="stop4808-4"
         stop-color="#fff"
         offset="0" />
      <stop
         id="stop4810-0"
         stop-color="#fff"
         stop-opacity=".23529"
         offset=".42448" />
      <stop
         id="stop4812-8"
         stop-color="#fff"
         stop-opacity=".15686"
         offset=".82090" />
      <stop
         id="stop4814-0"
         stop-color="#fff"
         stop-opacity=".39216"
         offset="1" />
    </linearGradient>
    <radialGradient
       id="radialGradient3029"
       fx="4.459"
       fy="8.5089"
       gradientUnits="userSpaceOnUse"
       cy="8.6258"
       cx="15.026"
       gradientTransform="matrix(-3.4973e-8 1.8855 -1.7764 -5.4723e-8 39.14 -7.9932)"
       r="20">
      <stop
         id="stop4170"
         stop-color="#c24251"
         offset="0" />
      <stop
         id="stop4172"
         stop-color="#c24251"
         offset=".26238" />
      <stop
         id="stop4174"
         stop-color="#a63643"
         offset=".66094" />
      <stop
         id="stop4176"
         stop-color="#a63643"
         offset="1" />
    </radialGradient>
    <radialGradient
       id="radialGradient3032"
       gradientUnits="userSpaceOnUse"
       cy="3.99"
       cx="23.896"
       gradientTransform="matrix(0 2.8885 -3.8128 0 39.213 -65.95)"
       r="20.397">
      <stop
         id="stop3244-9-33-7-0-9"
         stop-color="#fff"
         offset="0" />
      <stop
         id="stop3246-3-5-0-8-5"
         stop-color="#ddd"
         offset=".26238" />
      <stop
         id="stop3248-1-7-8-8-1"
         stop-color="#abacae"
         offset=".66094" />
      <stop
         id="stop3250-9-3-0-5-1"
         stop-color="#89898b"
         offset="1" />
    </radialGradient>
    <radialGradient
       id="radialGradient3035"
       gradientUnits="userSpaceOnUse"
       cy="186.17"
       cx="99.157"
       gradientTransform="matrix(.27083 0 0 .087623 -2.8551 25.187)"
       r="62.769">
      <stop
         id="stop3822-2-6-3"
         stop-color="#3d3d3d"
         offset="0" />
      <stop
         id="stop3864-8-7-7"
         stop-color="#686868"
         stop-opacity=".49804"
         offset=".5" />
      <stop
         id="stop3824-1-2-5"
         stop-color="#686868"
         stop-opacity="0"
         offset="1" />
    </radialGradient>
    <linearGradient
       id="linearGradient4433"
       y2="25.611"
       gradientUnits="userSpaceOnUse"
       x2="23.078"
       gradientTransform="matrix(1 0 0 1.0521 0 -.90547)"
       y1="13.035"
       x1="22.759">
      <stop
         id="stop6305-1-0-2"
         stop-color="#fff"
         offset="0" />
      <stop
         id="stop6307-5-0-6"
         stop-color="#fff"
         stop-opacity="0"
         offset="1" />
    </linearGradient>
    <linearGradient
       id="linearGradient4829">
      <stop
         style="stop-color:#f4fbfc;stop-opacity:1;"
         offset="0"
         id="stop4831" />
      <stop
         style="stop-color:#d6d6d6;stop-opacity:1;"
         offset="1"
         id="stop4833" />
    </linearGradient>
    <radialGradient
       id="SVGID_4_"
       cx="224.50391"
       cy="186.51421"
       r="127.0051"
       gradientUnits="userSpaceOnUse">
      <stop
         offset="0"
         style="stop-color:#FFFFFF"
         id="stop27" />
      <stop
         offset="0.3984"
         style="stop-color:#FDFEFF"
         id="stop29" />
      <stop
         offset="0.6131"
         style="stop-color:#F5FAFF"
         id="stop31" />
      <stop
         offset="0.7841"
         style="stop-color:#E7F3FF"
         id="stop33" />
      <stop
         offset="0.9311"
         style="stop-color:#D4EAFF"
         id="stop35" />
      <stop
         offset="1"
         style="stop-color:#C8E4FF"
         id="stop37" />
    </radialGradient>
    <radialGradient
       gradientUnits="userSpaceOnUse"
       r="26.769501"
       cy="286.66409"
       cx="324.69339"
       id="SVGID_5_">
      <stop
         id="stop50"
         style="stop-color:#FFFFFF"
         offset="0" />
      <stop
         id="stop52"
         style="stop-color:#FDFEFF"
         offset="0.3984" />
      <stop
         id="stop54"
         style="stop-color:#F5FAFF"
         offset="0.6131" />
      <stop
         id="stop56"
         style="stop-color:#E7F3FF"
         offset="0.7841" />
      <stop
         id="stop58"
         style="stop-color:#D4EAFF"
         offset="0.9311" />
      <stop
         id="stop60"
         style="stop-color:#C8E4FF"
         offset="1" />
    </radialGradient>
    <radialGradient
       gradientUnits="userSpaceOnUse"
       r="46.444901"
       cy="392.77249"
       cx="325"
       id="SVGID_6_">
      <stop
         id="stop73"
         style="stop-color:#FFFFFF"
         offset="0" />
      <stop
         id="stop75"
         style="stop-color:#FDFEFF"
         offset="0.3984" />
      <stop
         id="stop77"
         style="stop-color:#F5FAFF"
         offset="0.6131" />
      <stop
         id="stop79"
         style="stop-color:#E7F3FF"
         offset="0.7841" />
      <stop
         id="stop81"
         style="stop-color:#D4EAFF"
         offset="0.9311" />
      <stop
         id="stop83"
         style="stop-color:#C8E4FF"
         offset="1" />
    </radialGradient>
    <filter
       style="color-interpolation-filters:sRGB;"
       inkscape:label="Drop Shadow"
       id="filter3913">
      <feFlood
         flood-opacity="0.498039"
         flood-color="rgb(0,0,0)"
         result="flood"
         id="feFlood3903" />
      <feComposite
         in="flood"
         in2="SourceGraphic"
         operator="in"
         result="composite1"
         id="feComposite3905" />
      <feGaussianBlur
         in="composite1"
         stdDeviation="7.4"
         result="blur"
         id="feGaussianBlur3907" />
      <feOffset
         dx="15.3"
         dy="16.1"
         result="offset"
         id="feOffset3909" />
      <feComposite
         in="SourceGraphic"
         in2="offset"
         operator="over"
         result="composite2"
         id="feComposite3911" />
    </filter>
    <linearGradient
       inkscape:collect="always"
       xlink:href="#linearGradient3972"
       id="linearGradient3974"
       x1="23.79661"
       y1="5.4915252"
       x2="23.79661"
       y2="42.81356"
       gradientUnits="userSpaceOnUse" />
  </defs>
  <metadata
     id="metadata4066">
    <rdf:RDF>
      <cc:Work
         rdf:about="">
        <dc:format>image/svg+xml</dc:format>
        <dc:type
           rdf:resource="http://purl.org/dc/dcmitype/StillImage" />
        <dc:title></dc:title>
      </cc:Work>
    </rdf:RDF>
  </metadata>
  <g
     id="g4206">
    <path
       id="path3818-0-5"
       d="m 41,41.5 a 17,5.5 0 0 1 -34,0 17,5.5 0 1 1 34,0 z"
       inkscape:connector-curvature="0"
       style="fill:url(#radialGradient3035)" />
    <path
       id="path2555-7-2"
       style="color:#000000;fill:url(#radialGradient3032)"
       d="M 24,3.5 C 12.689,3.5 3.5,12.689 3.5,24 3.5,35.311 12.689,44.5 24,44.5 35.311,44.5 44.5,35.311 44.5,24 44.5,12.689 35.311,3.5 24,3.5 Z"
       inkscape:connector-curvature="0" />
    <path
       id="path2555-7-65"
       style="color:#000000;fill:url(#linearGradient3974);fill-opacity:1"
       d="M 24,3.5 C 12.689,3.5 3.5,12.689 3.5,24 3.5,35.311 12.689,44.5 24,44.5 35.311,44.5 44.5,35.311 44.5,24 44.5,12.689 35.311,3.5 24,3.5 Z"
       inkscape:connector-curvature="0" />
    <path
       id="path4176"
       style="color:#000000;opacity:0.5;fill:none;stroke:url(#linearGradient3026);stroke-linecap:round;stroke-linejoin:round"
       d="M 43.5,24 C 43.5,34.77 34.77,43.5 24,43.5 13.23,43.5 4.5,34.77 4.5,24 4.5,13.23 13.23,4.5 24,4.5 34.77,4.5 43.5,13.23 43.5,24 Z"
       inkscape:connector-curvature="0" />
    <path
       id="path2555-7-1-7"
       style="color:#000000;opacity:1;fill:none;fill-opacity:1;stroke:#fbfbfb;stroke-width:1.79999995;stroke-linecap:round;stroke-linejoin:round;stroke-miterlimit:4;stroke-dasharray:none;stroke-opacity:1"
       d="m 24,3.5001 c -11.311,0 -20.5,9.1888 -20.5,20.5 0,11.3112 9.1888,20.5 20.5,20.5 11.3112,0 20.5,-9.1888 20.5,-20.5 0,-11.3112 -9.189,-20.5 -20.5,-20.5 z"
       inkscape:connector-curvature="0" />
    <g
       id="g4317"
       transform="matrix(1.0002,0,0,1.0004,-1.0018,-0.0050486)"
       style="fill:none;stroke:#000000;stroke-linecap:round;stroke-linejoin:round" />
    <path
       inkscape:connector-curvature="0"
       d="m 24.853199,13.426736 c -6.41342,0 -11.612903,5.199484 -11.612903,11.612903 0,6.413419 5.199483,11.612903 11.612903,11.612903 6.413419,0 11.612903,-5.199484 11.612903,-11.612903 0,-6.413419 -5.199484,-11.612903 -11.612903,-11.612903 z m 0,2.32258 c 1.548387,0 1.916129,0.390968 2.820387,1.021936 0.03329,0.722323 -0.803613,1.193032 -0.754839,1.892903 0.429677,0.824516 0.02865,-0.294193 0.515613,-0.453677 1.010322,-0.979355 1.379613,1.066064 1.448516,1.861161 0.0511,0.592258 -0.15329,1.414452 0.166452,1.86271 0.573677,0.804387 0.164129,2.074838 -0.501678,2.753806 -0.271742,1.165936 -0.559742,2.311742 -1.464,3.140903 -0.245419,0.549678 0.774194,1.160516 -0.05729,1.700903 -0.92671,0.724646 -1.093936,2.389162 -2.452645,2.398452 -0.397162,0.157161 -1.548387,0.411871 -0.515613,0.644129 0.733935,-0.347613 1.687742,-0.04645 1.971871,-0.991742 0.327484,-0.656516 0.551226,-1.360258 1.36258,-1.687742 1.068388,-0.822968 -0.456774,-1.806968 0.403355,-2.581161 0.877162,0.243097 1.289807,1.201548 2.148387,1.510452 0.435097,0.171871 0.800516,0.557419 0.837678,1.025032 -0.794323,0.191226 -1.735742,-0.276387 -2.368258,0.482322 -0.280258,-0.194322 -0.992516,-0.833032 -0.479226,-0.08903 0.191226,1.11329 0.834581,0.36929 1.409032,0.122323 0.514839,0.0085 1.028903,0.01781 1.543742,0.0271 0.20671,-0.319741 0.48929,-0.645677 0.112258,-0.963096 -0.428903,-0.829162 1.04671,0.197419 1.350194,0.39329 0.643354,0.315871 1.128,1.037419 1.143484,1.740387 -2.044646,2.713548 -5.242839,4.316129 -8.64,4.316903 -0.202065,0 -0.404904,-0.01471 -0.606194,-0.03019 0.305807,-0.970065 1.181419,-2.04542 1.307613,-3.016258 -0.05884,-0.01703 -0.113806,-0.02555 -0.164903,-0.0271 -0.760258,-0.02013 -0.627097,1.640516 -1.305291,2.100387 -0.130838,0.490839 -0.449032,0.785032 -0.793548,0.846968 -0.156387,-0.02013 -0.312,-0.04413 -0.467613,-0.07123 -0.224516,-0.0991 -0.432774,-0.29729 -0.571355,-0.613936 -0.476903,-0.386322 -0.909677,-1.799225 -1.357935,-1.755871 -0.03019,0.0031 -0.06039,0.01239 -0.09058,0.02865 0.12542,0.588387 1.498065,2.087225 0.479226,1.92 -2.643097,-0.920516 -4.827871,-2.827355 -6.096774,-5.322581 0.264,-0.124645 0.815226,0.370065 1.16129,0.304258 0.903484,1.409807 1.899871,2.842065 3.396387,3.675871 0.467613,0.390968 1.01342,0.463742 0.426581,-0.181161 -1.121807,-0.973936 0.875613,-0.709936 1.475613,-1.107097 0.846968,-0.559742 1.537548,-1.265806 2.053161,-2.108129 0.68129,-0.03019 1.659871,-0.908129 0.373161,-0.781935 -0.864774,0.385548 -2.189419,-1.954839 -0.850064,-1.385033 0.356129,-0.415742 0.428129,0.937549 1.313806,0.618581 0.678194,0.192 1.581678,-1.405936 0.512516,-0.596129 -0.438193,0.150968 -1.537548,0.501677 -1.244129,-0.380903 0.441291,-0.08748 1.87742,-0.144775 1.566194,-0.474581 -0.881807,0.06503 -1.580129,-0.287226 -2.372129,0.279484 -0.676645,-0.95071 0.913548,-0.199742 1.244129,-0.810581 0.486968,7.74e-4 1.995097,-0.754838 0.553548,-0.669677 -0.742451,-0.048 -0.957677,-0.709161 -0.06503,-0.674323 0.09677,-0.452903 0.05574,-1.880516 -0.353806,-0.734709 -0.133162,0.741677 -1.129549,1.038193 -0.630194,0.05419 -0.390968,0.339097 -0.414968,-0.548129 -0.793548,-0.01626 0.03019,0.59071 0.793548,1.468645 0.08052,1.666065 0.04181,-0.585291 -0.03871,-1.440775 -0.449032,-0.408 -0.478452,1.114838 -0.530323,-0.152517 -0.552,-0.647226 1.059871,0.387097 0.173419,-1.746581 -0.666581,-1.368774 -0.462968,-0.840775 0.765677,-0.761033 1.164387,-0.290323 0.444387,-0.01548 0.949935,0.157161 1.350194,-0.0015 0.500129,-0.198194 1.474838,-0.953807 0.355354,-0.939097 -0.788129,-0.208258 -1.368774,-0.894968 -2.225806,-0.745548 -0.216,-0.354581 -0.264,-1.078452 -0.109161,-1.542194 -0.111484,-0.520258 -0.112258,-1.375742 -0.748645,-1.403613 -0.421162,-0.579097 -0.04335,-1.121806 0.376258,-0.299613 0.356903,0.256258 0.596903,1.669161 0.967741,1.245678 -0.418064,-0.676646 -0.932129,-1.662968 -1.056774,-2.319484 0.591484,-0.945291 2.196387,-0.35071 2.677936,-0.870968 -0.784258,-0.329032 -2.003613,-0.02323 -2.584258,0.05264 0.66658,-0.923613 2.20258,-1.32929 3.318967,-1.32929 m 2.109678,7.145032 c -0.490839,0.03019 -0.968516,0.308129 -1.273549,0.02555 -0.241548,0.654968 1.460904,1.930839 1.258065,0.813678 0.496258,-0.072 1.73729,-0.905807 0.504774,-0.756387 -0.161032,-0.0751 -0.325935,-0.0929 -0.490064,-0.08284 z m -0.75871,1.802323 c -0.149419,0.331354 0.604645,0.988645 -0.03948,1.062967 -0.08129,0.428129 1.176,0.0689 0.299613,0.565162 -0.644129,0.591483 0.310452,0.157161 0.332903,0.293419 -0.774193,0.624 -0.164129,0.861677 0.243097,0.146323 0.208258,-0.367742 1.121807,-1.489549 0.144,-1.416775 -0.469161,1.015742 -0.356129,-0.652645 -0.980129,-0.651871 z"
       style="opacity:0.1;fill:#ffffff;fill-opacity:1;fill-rule:nonzero;stroke:none;stroke-width:0.77419353"
       id="path18" />
    <path
       inkscape:connector-curvature="0"
       d="m 24.079005,12.652542 c -6.413419,0 -11.612903,5.199484 -11.612903,11.612903 0,6.41342 5.199484,11.612903 11.612903,11.612903 6.413419,0 11.612903,-5.199483 11.612903,-11.612903 0,-6.413419 -5.199484,-11.612903 -11.612903,-11.612903 m 0,2.322581 c 1.548387,0 1.916129,0.390968 2.820387,1.021935 0.03329,0.722323 -0.803613,1.193033 -0.754839,1.892904 0.429678,0.824516 0.02865,-0.294194 0.515613,-0.453678 1.010323,-0.979355 1.379613,1.066065 1.448516,1.861161 0.0511,0.592259 -0.15329,1.414452 0.166452,1.86271 0.573677,0.804387 0.164129,2.074839 -0.501677,2.753807 -0.271742,1.165935 -0.559742,2.311741 -1.464,3.140903 -0.24542,0.549677 0.774193,1.160516 -0.05729,1.700903 -0.926709,0.724645 -1.093935,2.389161 -2.452645,2.398451 -0.397161,0.157162 -1.548387,0.411871 -0.515613,0.64413 0.733936,-0.347613 1.687742,-0.04645 1.971871,-0.991742 0.327484,-0.656517 0.551226,-1.360258 1.362581,-1.687742 1.068387,-0.822968 -0.456774,-1.806968 0.403355,-2.581162 0.877161,0.243097 1.289806,1.201549 2.148387,1.510452 0.435097,0.171871 0.800516,0.557419 0.837677,1.025032 -0.794322,0.191226 -1.735742,-0.276387 -2.368258,0.482323 -0.280258,-0.194323 -0.992516,-0.833032 -0.479226,-0.08903 0.191226,1.11329 0.834581,0.36929 1.409033,0.122322 0.514838,0.0085 1.028903,0.01781 1.543742,0.0271 0.206709,-0.319742 0.48929,-0.645677 0.112258,-0.963097 -0.428904,-0.829161 1.046709,0.19742 1.350193,0.39329 0.643355,0.315871 1.128,1.03742 1.143484,1.740388 -2.044645,2.713548 -5.242839,4.316129 -8.64,4.316903 -0.202064,0 -0.404903,-0.01471 -0.606193,-0.03019 0.305806,-0.970064 1.181419,-2.045419 1.307612,-3.016258 -0.05884,-0.01703 -0.113806,-0.02555 -0.164903,-0.0271 -0.760258,-0.02013 -0.627097,1.640516 -1.30529,2.100387 -0.130839,0.490839 -0.449032,0.785033 -0.793548,0.846968 -0.156388,-0.02013 -0.312,-0.04413 -0.467613,-0.07123 -0.224517,-0.0991 -0.432775,-0.29729 -0.571355,-0.613935 -0.476903,-0.386323 -0.909678,-1.799226 -1.357936,-1.755871 -0.03019,0.0031 -0.06039,0.01239 -0.09058,0.02864 0.125419,0.588387 1.498064,2.087226 0.479225,1.92 -2.643096,-0.920516 -4.82787,-2.827355 -6.096774,-5.32258 0.264,-0.124646 0.815226,0.370064 1.161291,0.304258 0.903484,1.409806 1.899871,2.842064 3.396387,3.67587 0.467613,0.390968 1.013419,0.463742 0.42658,-0.181161 -1.121806,-0.973935 0.875613,-0.709935 1.475613,-1.107097 0.846968,-0.559741 1.537549,-1.265806 2.053162,-2.108129 0.68129,-0.03019 1.65987,-0.908129 0.373161,-0.781935 -0.864774,0.385548 -2.18942,-1.954839 -0.850065,-1.385032 0.356129,-0.415742 0.428129,0.937548 1.313807,0.61858 0.678193,0.192 1.581677,-1.405935 0.512516,-0.596129 -0.438194,0.150968 -1.537549,0.501678 -1.244129,-0.380903 0.44129,-0.08748 1.877419,-0.144774 1.566193,-0.474581 -0.881806,0.06503 -1.580129,-0.287225 -2.372129,0.279484 -0.676645,-0.950709 0.913549,-0.199742 1.244129,-0.81058 0.486968,7.74e-4 1.995097,-0.754839 0.553549,-0.669678 -0.742452,-0.048 -0.957678,-0.709161 -0.06503,-0.674322 0.09677,-0.452903 0.05574,-1.880516 -0.353806,-0.73471 -0.133161,0.741677 -1.129548,1.038194 -0.630193,0.05419 -0.390968,0.339096 -0.414968,-0.548129 -0.793549,-0.01626 0.03019,0.590709 0.793549,1.468645 0.08052,1.666064 0.04181,-0.58529 -0.03871,-1.440774 -0.449032,-0.408 -0.478452,1.114839 -0.530323,-0.152516 -0.552,-0.647226 1.059871,0.387097 0.173419,-1.74658 -0.666581,-1.368774 -0.462967,-0.840774 0.765678,-0.761032 1.164387,-0.290323 0.444388,-0.01548 0.949936,0.157162 1.350194,-0.0015 0.500129,-0.198193 1.474839,-0.953806 0.355355,-0.939097 -0.788129,-0.208258 -1.368774,-0.894967 -2.225807,-0.745548 -0.216,-0.354581 -0.264,-1.078452 -0.109161,-1.542194 -0.111484,-0.520258 -0.112258,-1.375741 -0.748645,-1.403612 -0.421161,-0.579097 -0.04336,-1.121807 0.376258,-0.299613 0.356903,0.256258 0.596903,1.669161 0.967742,1.245677 -0.418065,-0.676645 -0.932129,-1.662968 -1.056774,-2.319484 0.591484,-0.94529 2.196387,-0.350709 2.677935,-0.870968 -0.784258,-0.329032 -2.003613,-0.02323 -2.584258,0.05265 0.666581,-0.923613 2.202581,-1.329291 3.318968,-1.329291 m 2.109677,7.145033 c -0.490838,0.03019 -0.968516,0.308129 -1.273548,0.02555 -0.241548,0.654968 1.460903,1.930839 1.258064,0.813677 0.496258,-0.072 1.737291,-0.905806 0.504775,-0.756387 -0.161033,-0.0751 -0.325936,-0.0929 -0.490065,-0.08284 z m -0.758709,1.802322 c -0.14942,0.331355 0.604645,0.988645 -0.03948,1.062968 -0.08129,0.428129 1.176,0.0689 0.299613,0.565161 -0.644129,0.591484 0.310451,0.157161 0.332903,0.293419 -0.774194,0.624 -0.164129,0.861678 0.243097,0.146323 0.208258,-0.367742 1.121806,-1.489548 0.144,-1.416774 -0.469162,1.015742 -0.356129,-0.652645 -0.980129,-0.651871 z"
       style="opacity:1;fill:#ffffff;fill-opacity:1;fill-rule:nonzero;stroke:none;stroke-width:0.77419353"
       id="path20" />
  </g>
</svg>
