<?xml version="1.0" encoding="UTF-8" standalone="no"?>
<!-- Created with Inkscape (http://www.inkscape.org/) -->

<svg
   xmlns:dc="http://purl.org/dc/elements/1.1/"
   xmlns:cc="http://creativecommons.org/ns#"
   xmlns:rdf="http://www.w3.org/1999/02/22-rdf-syntax-ns#"
   xmlns:svg="http://www.w3.org/2000/svg"
   xmlns="http://www.w3.org/2000/svg"
   xmlns:xlink="http://www.w3.org/1999/xlink"
   xmlns:sodipodi="http://sodipodi.sourceforge.net/DTD/sodipodi-0.dtd"
   xmlns:inkscape="http://www.inkscape.org/namespaces/inkscape"
   id="svg4061"
   height="48"
   width="48"
   version="1.1"
   inkscape:version="0.92.2 (unknown)"
   sodipodi:docname="steam_icon_41070.svg">
  <sodipodi:namedview
     pagecolor="#ffffff"
     bordercolor="#666666"
     borderopacity="1"
     objecttolerance="10"
     gridtolerance="10"
     guidetolerance="10"
     inkscape:pageopacity="0"
     inkscape:pageshadow="2"
     inkscape:window-width="1378"
     inkscape:window-height="894"
     id="namedview40"
     showgrid="false"
     inkscape:zoom="9.8333333"
     inkscape:cx="25.25164"
     inkscape:cy="12.70945"
     inkscape:window-x="1074"
     inkscape:window-y="205"
     inkscape:window-maximized="0"
     inkscape:current-layer="g4206"
     inkscape:lockguides="true" />
  <defs
     id="defs4063">
    <linearGradient
       inkscape:collect="always"
       id="linearGradient3972">
      <stop
         style="stop-color:#ff6600;stop-opacity:1"
         offset="0"
         id="stop3968" />
      <stop
         style="stop-color:#800000;stop-opacity:1"
         offset="1"
         id="stop3970" />
    </linearGradient>
    <linearGradient
       inkscape:collect="always"
       id="linearGradient3361">
      <stop
         style="stop-color:#0068e0;stop-opacity:1;"
         offset="0"
         id="stop3363" />
      <stop
         style="stop-color:#00acf4;stop-opacity:1"
         offset="1"
         id="stop3365" />
    </linearGradient>
    <linearGradient
       id="linearGradient3026"
       y2="40.495998"
       gradientUnits="userSpaceOnUse"
       x2="71.204002"
       gradientTransform="matrix(1.617,0,0,1.617,-92.707,-21.06)"
       y1="15.369"
       x1="71.204002"
       xlink:href="#linearGradient3361">
      <stop
         id="stop4808-4"
         stop-color="#fff"
         offset="0" />
      <stop
         id="stop4810-0"
         stop-color="#fff"
         stop-opacity=".23529"
         offset=".42448" />
      <stop
         id="stop4812-8"
         stop-color="#fff"
         stop-opacity=".15686"
         offset=".82090" />
      <stop
         id="stop4814-0"
         stop-color="#fff"
         stop-opacity=".39216"
         offset="1" />
    </linearGradient>
    <radialGradient
       id="radialGradient3029"
       fx="4.459"
       fy="8.5089"
       gradientUnits="userSpaceOnUse"
       cy="8.6258"
       cx="15.026"
       gradientTransform="matrix(-3.4973e-8 1.8855 -1.7764 -5.4723e-8 39.14 -7.9932)"
       r="20">
      <stop
         id="stop4170"
         stop-color="#c24251"
         offset="0" />
      <stop
         id="stop4172"
         stop-color="#c24251"
         offset=".26238" />
      <stop
         id="stop4174"
         stop-color="#a63643"
         offset=".66094" />
      <stop
         id="stop4176"
         stop-color="#a63643"
         offset="1" />
    </radialGradient>
    <radialGradient
       id="radialGradient3032"
       gradientUnits="userSpaceOnUse"
       cy="3.99"
       cx="23.896"
       gradientTransform="matrix(0 2.8885 -3.8128 0 39.213 -65.95)"
       r="20.397">
      <stop
         id="stop3244-9-33-7-0-9"
         stop-color="#fff"
         offset="0" />
      <stop
         id="stop3246-3-5-0-8-5"
         stop-color="#ddd"
         offset=".26238" />
      <stop
         id="stop3248-1-7-8-8-1"
         stop-color="#abacae"
         offset=".66094" />
      <stop
         id="stop3250-9-3-0-5-1"
         stop-color="#89898b"
         offset="1" />
    </radialGradient>
    <radialGradient
       id="radialGradient3035"
       gradientUnits="userSpaceOnUse"
       cy="186.17"
       cx="99.157"
       gradientTransform="matrix(.27083 0 0 .087623 -2.8551 25.187)"
       r="62.769">
      <stop
         id="stop3822-2-6-3"
         stop-color="#3d3d3d"
         offset="0" />
      <stop
         id="stop3864-8-7-7"
         stop-color="#686868"
         stop-opacity=".49804"
         offset=".5" />
      <stop
         id="stop3824-1-2-5"
         stop-color="#686868"
         stop-opacity="0"
         offset="1" />
    </radialGradient>
    <linearGradient
       id="linearGradient4433"
       y2="25.611"
       gradientUnits="userSpaceOnUse"
       x2="23.078"
       gradientTransform="matrix(1 0 0 1.0521 0 -.90547)"
       y1="13.035"
       x1="22.759">
      <stop
         id="stop6305-1-0-2"
         stop-color="#fff"
         offset="0" />
      <stop
         id="stop6307-5-0-6"
         stop-color="#fff"
         stop-opacity="0"
         offset="1" />
    </linearGradient>
    <linearGradient
       id="linearGradient4829">
      <stop
         style="stop-color:#f4fbfc;stop-opacity:1;"
         offset="0"
         id="stop4831" />
      <stop
         style="stop-color:#d6d6d6;stop-opacity:1;"
         offset="1"
         id="stop4833" />
    </linearGradient>
    <radialGradient
       id="SVGID_4_"
       cx="224.50391"
       cy="186.51421"
       r="127.0051"
       gradientUnits="userSpaceOnUse">
      <stop
         offset="0"
         style="stop-color:#FFFFFF"
         id="stop27" />
      <stop
         offset="0.3984"
         style="stop-color:#FDFEFF"
         id="stop29" />
      <stop
         offset="0.6131"
         style="stop-color:#F5FAFF"
         id="stop31" />
      <stop
         offset="0.7841"
         style="stop-color:#E7F3FF"
         id="stop33" />
      <stop
         offset="0.9311"
         style="stop-color:#D4EAFF"
         id="stop35" />
      <stop
         offset="1"
         style="stop-color:#C8E4FF"
         id="stop37" />
    </radialGradient>
    <radialGradient
       gradientUnits="userSpaceOnUse"
       r="26.769501"
       cy="286.66409"
       cx="324.69339"
       id="SVGID_5_">
      <stop
         id="stop50"
         style="stop-color:#FFFFFF"
         offset="0" />
      <stop
         id="stop52"
         style="stop-color:#FDFEFF"
         offset="0.3984" />
      <stop
         id="stop54"
         style="stop-color:#F5FAFF"
         offset="0.6131" />
      <stop
         id="stop56"
         style="stop-color:#E7F3FF"
         offset="0.7841" />
      <stop
         id="stop58"
         style="stop-color:#D4EAFF"
         offset="0.9311" />
      <stop
         id="stop60"
         style="stop-color:#C8E4FF"
         offset="1" />
    </radialGradient>
    <radialGradient
       gradientUnits="userSpaceOnUse"
       r="46.444901"
       cy="392.77249"
       cx="325"
       id="SVGID_6_">
      <stop
         id="stop73"
         style="stop-color:#FFFFFF"
         offset="0" />
      <stop
         id="stop75"
         style="stop-color:#FDFEFF"
         offset="0.3984" />
      <stop
         id="stop77"
         style="stop-color:#F5FAFF"
         offset="0.6131" />
      <stop
         id="stop79"
         style="stop-color:#E7F3FF"
         offset="0.7841" />
      <stop
         id="stop81"
         style="stop-color:#D4EAFF"
         offset="0.9311" />
      <stop
         id="stop83"
         style="stop-color:#C8E4FF"
         offset="1" />
    </radialGradient>
    <filter
       style="color-interpolation-filters:sRGB;"
       inkscape:label="Drop Shadow"
       id="filter3913">
      <feFlood
         flood-opacity="0.498039"
         flood-color="rgb(0,0,0)"
         result="flood"
         id="feFlood3903" />
      <feComposite
         in="flood"
         in2="SourceGraphic"
         operator="in"
         result="composite1"
         id="feComposite3905" />
      <feGaussianBlur
         in="composite1"
         stdDeviation="7.4"
         result="blur"
         id="feGaussianBlur3907" />
      <feOffset
         dx="15.3"
         dy="16.1"
         result="offset"
         id="feOffset3909" />
      <feComposite
         in="SourceGraphic"
         in2="offset"
         operator="over"
         result="composite2"
         id="feComposite3911" />
    </filter>
    <linearGradient
       inkscape:collect="always"
       xlink:href="#linearGradient3972"
       id="linearGradient3974"
       x1="23.79661"
       y1="5.4915252"
       x2="23.79661"
       y2="42.81356"
       gradientUnits="userSpaceOnUse" />
    <linearGradient
       inkscape:collect="always"
       xlink:href="#linearGradient3972"
       id="linearGradient4556"
       x1="24"
       y1="11.996"
       x2="24"
       y2="35.995998"
       gradientUnits="userSpaceOnUse" />
  </defs>
  <metadata
     id="metadata4066">
    <rdf:RDF>
      <cc:Work
         rdf:about="">
        <dc:format>image/svg+xml</dc:format>
        <dc:type
           rdf:resource="http://purl.org/dc/dcmitype/StillImage" />
        <dc:title></dc:title>
      </cc:Work>
    </rdf:RDF>
  </metadata>
  <g
     id="g4206">
    <path
       id="path3818-0-5"
       d="m 41,41.5 a 17,5.5 0 0 1 -34,0 17,5.5 0 1 1 34,0 z"
       inkscape:connector-curvature="0"
       style="fill:url(#radialGradient3035)" />
    <path
       id="path2555-7-2"
       style="color:#000000;fill:url(#radialGradient3032)"
       d="M 24,3.5 C 12.689,3.5 3.5,12.689 3.5,24 3.5,35.311 12.689,44.5 24,44.5 35.311,44.5 44.5,35.311 44.5,24 44.5,12.689 35.311,3.5 24,3.5 Z"
       inkscape:connector-curvature="0" />
    <path
       id="path2555-7-65"
       style="color:#000000;fill:url(#linearGradient3974);fill-opacity:1"
       d="M 24,3.5 C 12.689,3.5 3.5,12.689 3.5,24 3.5,35.311 12.689,44.5 24,44.5 35.311,44.5 44.5,35.311 44.5,24 44.5,12.689 35.311,3.5 24,3.5 Z"
       inkscape:connector-curvature="0" />
    <path
       id="path4176"
       style="color:#000000;opacity:0.5;fill:none;stroke:url(#linearGradient3026);stroke-linecap:round;stroke-linejoin:round"
       d="M 43.5,24 C 43.5,34.77 34.77,43.5 24,43.5 13.23,43.5 4.5,34.77 4.5,24 4.5,13.23 13.23,4.5 24,4.5 34.77,4.5 43.5,13.23 43.5,24 Z"
       inkscape:connector-curvature="0" />
    <path
       id="path2555-7-1-7"
       style="color:#000000;opacity:1;fill:none;fill-opacity:1;stroke:#fbfbfb;stroke-width:1.79999995;stroke-linecap:round;stroke-linejoin:round;stroke-miterlimit:4;stroke-dasharray:none;stroke-opacity:1"
       d="m 24,3.5001 c -11.311,0 -20.5,9.1888 -20.5,20.5 0,11.3112 9.1888,20.5 20.5,20.5 11.3112,0 20.5,-9.1888 20.5,-20.5 0,-11.3112 -9.189,-20.5 -20.5,-20.5 z"
       inkscape:connector-curvature="0" />
    <g
       id="g4317"
       transform="matrix(1.0002,0,0,1.0004,-1.0018,-0.0050486)"
       style="fill:none;stroke:#000000;stroke-linecap:round;stroke-linejoin:round" />
    <g
       transform="translate(-0.49899991,-0.49800008)"
       id="g39">
      <g
         id="g37">
        <!-- color: #eeeeee -->
        <g
           id="g35">
          <path
             inkscape:connector-curvature="0"
             d="m 24.999,11.11 c -0.916,1.597 -1.493,3.246 -3.164,3.898 -1.565,0.611 -3.127,-0.584 -4.711,-1.225 0.145,1.843 0.604,3.529 -0.373,5.05 -0.906,1.414 -2.829,1.445 -4.471,1.896 1.167,1.39 2.482,2.49 2.551,4.268 0.066,1.716 -1.471,2.901 -2.551,4.268 1.736,0.405 3.409,0.517 4.469,1.895 1.064,1.383 0.466,3.282 0.375,5.05 1.632,-0.731 2.972,-1.16 4.713,-1.219 h 0.002 c 1.726,0 2.231,2.405 3.16,3.896 0.918,-1.598 1.495,-3.247 3.168,-3.898 1.566,-0.61 3.13,0.581 4.715,1.221 -0.148,-1.843 -0.61,-3.529 0.369,-5.05 0.906,-1.411 2.826,-1.444 4.467,-1.896 -1.166,-1.389 -2.479,-2.49 -2.547,-4.266 -0.066,-1.715 1.469,-2.901 2.547,-4.268 -1.737,-0.406 -3.41,-0.519 -4.469,-1.898 -1.062,-1.384 -0.46,-3.282 -0.367,-5.05 -1.633,0.731 -2.972,1.164 -4.713,1.225 h -0.002 c -1.728,0 -2.237,-2.405 -3.168,-3.898 z"
             mix-blend-mode="normal"
             isolation="auto"
             style="color:#000000;white-space:normal;display:inline;visibility:visible;opacity:0.1;isolation:auto;mix-blend-mode:normal;color-interpolation:sRGB;color-interpolation-filters:linearRGB;solid-color:#000000;solid-opacity:1;fill:#000000;fill-opacity:1;fill-rule:nonzero;stroke:none;color-rendering:auto;image-rendering:auto;shape-rendering:auto"
             id="path29" />
          <path
             inkscape:connector-curvature="0"
             d="m 24,11.996 c 0,0 -1.57,2.523 -2.844,2.953 -1.27,0.43 -3.953,-0.656 -3.953,-0.656 0,0 0.152,2.992 -0.633,4.113 -0.785,1.121 -3.57,1.887 -3.57,1.887 0,0 1.832,2.316 1.832,3.703 0,1.387 -1.832,3.703 -1.832,3.703 0,0 2.785,0.766 3.57,1.887 0.785,1.125 0.633,4.113 0.633,4.113 0,0 2.68,-1.082 3.953,-0.656 1.273,0.43 2.844,2.953 2.844,2.953 0,0 1.57,-2.523 2.848,-2.953 1.27,-0.426 3.953,0.656 3.953,0.656 0,0 -0.156,-2.988 0.629,-4.113 0.785,-1.117 3.57,-1.887 3.57,-1.887 0,0 -1.828,-2.316 -1.828,-3.703 0,-1.387 1.828,-3.703 1.828,-3.703 0,0 -2.781,-0.766 -3.57,-1.887 -0.785,-1.121 -0.629,-4.113 -0.629,-4.113 0,0 -2.684,1.086 -3.953,0.656 C 25.571,14.519 24,11.996 24,11.996 m 0,0"
             style="fill:url(#linearGradient4556);fill-opacity:1;fill-rule:nonzero;stroke:none"
             id="path31" />
          <path
             inkscape:connector-curvature="0"
             d="m 23.999,10.11 c -0.916,1.597 -1.493,3.246 -3.164,3.898 -1.565,0.611 -3.127,-0.584 -4.711,-1.225 0.145,1.843 0.604,3.529 -0.373,5.05 -0.906,1.414 -2.829,1.445 -4.471,1.896 1.167,1.39 2.482,2.49 2.551,4.268 0.066,1.716 -1.471,2.901 -2.551,4.268 1.736,0.405 3.409,0.517 4.469,1.895 1.064,1.383 0.466,3.282 0.375,5.05 1.632,-0.731 2.972,-1.16 4.713,-1.219 h 0.002 c 1.726,0 2.231,2.405 3.16,3.896 0.918,-1.598 1.495,-3.247 3.168,-3.898 1.566,-0.61 3.13,0.581 4.715,1.221 -0.148,-1.843 -0.61,-3.529 0.369,-5.05 0.906,-1.411 2.826,-1.444 4.467,-1.896 -1.166,-1.389 -2.479,-2.49 -2.547,-4.266 -0.066,-1.715 1.469,-2.901 2.547,-4.268 -1.737,-0.406 -3.41,-0.519 -4.469,-1.898 -1.062,-1.384 -0.46,-3.282 -0.367,-5.05 -1.633,0.731 -2.972,1.164 -4.713,1.225 h -0.002 c -1.728,0 -2.237,-2.405 -3.168,-3.898 z m 0,3.604 c 0.087,0.115 0.07,0.111 0.168,0.232 0.596,0.738 1.282,1.593 2.363,1.957 1.079,0.365 2.127,0.089 3.03,-0.146 0.146,-0.038 0.129,-0.046 0.264,-0.086 0.005,0.165 -0.008,0.152 0.004,0.332 0.064,0.954 0.139,2.056 0.789,2.984 v 0.002 c 0.651,0.925 1.655,1.352 2.514,1.711 0.167,0.07 0.159,0.052 0.313,0.109 -0.1,0.151 -0.105,0.131 -0.209,0.303 -0.492,0.811 -1.059,1.758 -1.059,2.891 0,1.133 0.566,2.08 1.059,2.891 0.105,0.172 0.109,0.154 0.209,0.305 -0.155,0.058 -0.147,0.039 -0.314,0.109 -0.859,0.359 -1.862,0.786 -2.512,1.711 l -0.002,0.002 c -0.648,0.929 -0.724,2.029 -0.787,2.982 -0.012,0.18 0.002,0.167 -0.004,0.332 -0.135,-0.04 -0.118,-0.047 -0.266,-0.086 -0.898,-0.235 -1.945,-0.508 -3.02,-0.146 -1.082,0.364 -1.768,1.219 -2.363,1.957 -0.098,0.121 -0.08,0.117 -0.168,0.232 -0.087,-0.115 -0.068,-0.111 -0.166,-0.232 -0.595,-0.738 -1.277,-1.592 -2.357,-1.957 h -0.002 l -0.002,-0.002 c -1.078,-0.361 -2.125,-0.086 -3.02,0.148 -0.147,0.039 -0.13,0.046 -0.266,0.086 -0.006,-0.165 0.008,-0.151 -0.004,-0.332 -0.065,-0.953 -0.142,-2.055 -0.789,-2.982 L 17.4,29.019 c -0.65,-0.928 -1.652,-1.354 -2.512,-1.713 -0.167,-0.07 -0.159,-0.052 -0.313,-0.109 0.099,-0.15 0.103,-0.132 0.207,-0.303 0.493,-0.811 1.061,-1.757 1.061,-2.891 0,-1.133 -0.568,-2.08 -1.061,-2.891 -0.104,-0.171 -0.108,-0.153 -0.207,-0.303 0.154,-0.058 0.146,-0.04 0.313,-0.109 0.859,-0.359 1.862,-0.785 2.512,-1.713 0.65,-0.928 0.726,-2.03 0.791,-2.984 0.012,-0.181 -0.002,-0.167 0.004,-0.332 0.135,0.04 0.118,0.047 0.266,0.086 0.899,0.236 1.947,0.512 3.03,0.146 1.081,-0.365 1.763,-1.219 2.357,-1.957 0.097,-0.121 0.079,-0.117 0.166,-0.232 z"
             mix-blend-mode="normal"
             isolation="auto"
             style="color:#000000;white-space:normal;display:inline;visibility:visible;opacity:1;isolation:auto;mix-blend-mode:normal;color-interpolation:sRGB;color-interpolation-filters:linearRGB;solid-color:#000000;solid-opacity:1;fill:#ffffff;fill-opacity:1;fill-rule:nonzero;stroke:none;color-rendering:auto;image-rendering:auto;shape-rendering:auto"
             id="path33" />
        </g>
      </g>
    </g>
    <path
       inkscape:connector-curvature="0"
       d="m 26.383562,19.502 c -0.838,0.019 -1.657,0.249 -2.383,0.668 -2.391,1.381 -3.211,4.439 -1.83,6.83 1.381,2.391 4.439,3.211 6.83,1.83 2.391,-1.381 3.211,-4.439 1.83,-6.83 -0.914,-1.583 -2.62,-2.541 -4.447,-2.498 m -2.627,0.999 c 0.052,0 0.102,0.016 0.145,0.045 l 1.482,0.984 c 0.284,0.189 10e-4,0.615 -0.283,0.426 l -1.482,-0.984 c -0.216,-0.138 -0.117,-0.472 0.139,-0.471 z m 4.48,0 c 0.26,-0.009 0.366,0.331 0.146,0.471 l -1.482,0.984 c -0.284,0.189 -0.567,-0.237 -0.283,-0.426 l 1.482,-0.984 c 0.04,-0.028 0.088,-0.043 0.137,-0.045 z m -3.736,2 c 0.552,0 1,0.448 1,1 0,0.552 -0.448,1 -1,1 -0.552,0 -1,-0.448 -1,-1 0,-0.552 0.448,-1 1,-1 z m 3,0 c 0.552,0 1,0.448 1,1 0,0.552 -0.448,1 -1,1 -0.552,0 -1,-0.448 -1,-1 0,-0.552 0.448,-1 1,-1 z m 2,3 v 2 c -2,0 -4,-1 -7,-1 3,0 5,-1 7,-1 z"
       style="opacity:1;fill:#ffffff;fill-opacity:1;stroke:none"
       id="path45" />
    <path
       inkscape:connector-curvature="0"
       d="m 21.039562,17.061 c -0.296999,-0.012 -0.578999,0.064 -0.825999,0.23 -0.494,0.334 -0.824,0.974 -0.984,1.863 -0.16,0.889 -0.15,2.042 0.082,3.451 0.244,1.483 0.472,2.599 0.51,3.379 0.019,0.39 -0.01,0.693 -0.09,0.912 -0.08,0.219 -0.198,0.361 -0.41,0.479 -0.191,0.106 -0.362,0.13 -0.535,0.09 -0.173,-0.04 -0.356,-0.153 -0.541,-0.373 -0.37,-0.44 -0.717,-1.302 -0.885,-2.621 a 0.25,0.25 0 1 0 -0.496,0.063 c 0.175,1.375 0.524,2.318 0.998,2.881 0.237,0.281 0.514,0.469 0.813,0.539 0.299,0.07 0.611,0.014 0.891,-0.141 0.306,-0.169 0.522,-0.43 0.637,-0.746 0.115,-0.316 0.142,-0.679 0.121,-1.104 -0.042,-0.852 -0.275,-1.966 -0.518,-3.439 -0.225,-1.368 -0.228,-2.471 -0.082,-3.281 0.146,-0.811 0.443,-1.316 0.77,-1.537 0.327999,-0.221 0.707999,-0.221 1.196999,0.074 0.382,0.23 0.81,0.658 1.236,1.281 l -1.623,0.938 1.25,2.164 c 0.38,-1.64 1.516,-2.315 3.896,-2.25 l -1.25,-2.164 -1.84,1.063 c -0.46,-0.682 -0.936,-1.171 -1.412,-1.457 -0.3,-0.181 -0.612,-0.279 -0.908,-0.291 v -0.002 z m -4.372999,5.553 a 0.184,0.184 0 0 0 -0.168,0.23 l 0.236,0.971 a 0.185,0.185 0 1 0 0.359,-0.088 l -0.238,-0.971 a 0.184,0.184 0 0 0 -0.189,-0.143 z m 1.357,0.156 a 0.184,0.184 0 0 0 -0.16,0.1 l -0.473,0.879 a 0.186,0.186 0 1 0 0.326,0.178 l 0.473,-0.881 a 0.184,0.184 0 0 0 -0.166,-0.273 v -0.002 z m -2.461,0.779 a 0.184,0.184 0 0 0 -0.068,0.348 l 0.881,0.473 a 0.184,0.184 0 1 0 0.174,-0.322 l -0.879,-0.475 a 0.184,0.184 0 0 0 -0.107,-0.021 V 23.55 Z m 3.357,0.309 a 0.184,0.184 0 0 0 -0.014,0.002 0.184,0.184 0 0 0 -0.047,0.012 l -0.939,0.338 a 0.186,0.186 0 1 0 0.125,0.35 l 0.938,-0.338 a 0.184,0.184 0 0 0 -0.063,-0.361 v -0.002 z m -2.51,0.754 a 0.184,0.184 0 0 0 -0.049,0.012 l -0.938,0.34 a 0.184,0.184 0 1 0 0.125,0.346 l 0.938,-0.338 a 0.184,0.184 0 0 0 -0.076,-0.357 v -0.002 z m 1.428,0.264 a 0.184,0.184 0 0 0 -0.066,0.35 l 0.879,0.473 a 0.18435835,0.18435835 0 1 0 0.176,-0.324 l -0.881,-0.473 a 0.184,0.184 0 0 0 -0.107,-0.023 v -0.002 z m -1.16,0.305 a 0.184,0.184 0 0 0 -0.143,0.1 l -0.473,0.881 a 0.185,0.185 0 1 0 0.326,0.174 l 0.473,-0.881 a 0.184,0.184 0 0 0 -0.166,-0.273 0.184,0.184 0 0 0 -0.018,0 z"
       style="opacity:1;fill:#ffffff;fill-opacity:1;stroke:none"
       id="path47" />
  </g>
</svg>
