<?xml version="1.0" encoding="UTF-8" standalone="no"?>
<!-- Created with Inkscape (http://www.inkscape.org/) -->

<svg
   xmlns:dc="http://purl.org/dc/elements/1.1/"
   xmlns:cc="http://creativecommons.org/ns#"
   xmlns:rdf="http://www.w3.org/1999/02/22-rdf-syntax-ns#"
   xmlns:svg="http://www.w3.org/2000/svg"
   xmlns="http://www.w3.org/2000/svg"
   xmlns:xlink="http://www.w3.org/1999/xlink"
   xmlns:sodipodi="http://sodipodi.sourceforge.net/DTD/sodipodi-0.dtd"
   xmlns:inkscape="http://www.inkscape.org/namespaces/inkscape"
   id="svg4061"
   height="48"
   width="48"
   version="1.1"
   inkscape:version="0.92.2 (unknown)"
   sodipodi:docname="steam_icon_80.svg">
  <sodipodi:namedview
     pagecolor="#ffffff"
     bordercolor="#666666"
     borderopacity="1"
     objecttolerance="10"
     gridtolerance="10"
     guidetolerance="10"
     inkscape:pageopacity="0"
     inkscape:pageshadow="2"
     inkscape:window-width="1378"
     inkscape:window-height="894"
     id="namedview40"
     showgrid="false"
     inkscape:zoom="9.8333333"
     inkscape:cx="22.36324"
     inkscape:cy="12.861992"
     inkscape:window-x="1015"
     inkscape:window-y="218"
     inkscape:window-maximized="0"
     inkscape:current-layer="g4206"
     inkscape:lockguides="true" />
  <defs
     id="defs4063">
    <linearGradient
       inkscape:collect="always"
       id="linearGradient3972">
      <stop
         style="stop-color:#ff6600;stop-opacity:1"
         offset="0"
         id="stop3968" />
      <stop
         style="stop-color:#800000;stop-opacity:1"
         offset="1"
         id="stop3970" />
    </linearGradient>
    <linearGradient
       inkscape:collect="always"
       id="linearGradient3361">
      <stop
         style="stop-color:#0068e0;stop-opacity:1;"
         offset="0"
         id="stop3363" />
      <stop
         style="stop-color:#00acf4;stop-opacity:1"
         offset="1"
         id="stop3365" />
    </linearGradient>
    <linearGradient
       id="linearGradient3026"
       y2="40.495998"
       gradientUnits="userSpaceOnUse"
       x2="71.204002"
       gradientTransform="matrix(1.617,0,0,1.617,-92.707,-21.06)"
       y1="15.369"
       x1="71.204002"
       xlink:href="#linearGradient3361">
      <stop
         id="stop4808-4"
         stop-color="#fff"
         offset="0" />
      <stop
         id="stop4810-0"
         stop-color="#fff"
         stop-opacity=".23529"
         offset=".42448" />
      <stop
         id="stop4812-8"
         stop-color="#fff"
         stop-opacity=".15686"
         offset=".82090" />
      <stop
         id="stop4814-0"
         stop-color="#fff"
         stop-opacity=".39216"
         offset="1" />
    </linearGradient>
    <radialGradient
       id="radialGradient3029"
       fx="4.459"
       fy="8.5089"
       gradientUnits="userSpaceOnUse"
       cy="8.6258"
       cx="15.026"
       gradientTransform="matrix(-3.4973e-8 1.8855 -1.7764 -5.4723e-8 39.14 -7.9932)"
       r="20">
      <stop
         id="stop4170"
         stop-color="#c24251"
         offset="0" />
      <stop
         id="stop4172"
         stop-color="#c24251"
         offset=".26238" />
      <stop
         id="stop4174"
         stop-color="#a63643"
         offset=".66094" />
      <stop
         id="stop4176"
         stop-color="#a63643"
         offset="1" />
    </radialGradient>
    <radialGradient
       id="radialGradient3032"
       gradientUnits="userSpaceOnUse"
       cy="3.99"
       cx="23.896"
       gradientTransform="matrix(0 2.8885 -3.8128 0 39.213 -65.95)"
       r="20.397">
      <stop
         id="stop3244-9-33-7-0-9"
         stop-color="#fff"
         offset="0" />
      <stop
         id="stop3246-3-5-0-8-5"
         stop-color="#ddd"
         offset=".26238" />
      <stop
         id="stop3248-1-7-8-8-1"
         stop-color="#abacae"
         offset=".66094" />
      <stop
         id="stop3250-9-3-0-5-1"
         stop-color="#89898b"
         offset="1" />
    </radialGradient>
    <radialGradient
       id="radialGradient3035"
       gradientUnits="userSpaceOnUse"
       cy="186.17"
       cx="99.157"
       gradientTransform="matrix(.27083 0 0 .087623 -2.8551 25.187)"
       r="62.769">
      <stop
         id="stop3822-2-6-3"
         stop-color="#3d3d3d"
         offset="0" />
      <stop
         id="stop3864-8-7-7"
         stop-color="#686868"
         stop-opacity=".49804"
         offset=".5" />
      <stop
         id="stop3824-1-2-5"
         stop-color="#686868"
         stop-opacity="0"
         offset="1" />
    </radialGradient>
    <linearGradient
       id="linearGradient4433"
       y2="25.611"
       gradientUnits="userSpaceOnUse"
       x2="23.078"
       gradientTransform="matrix(1 0 0 1.0521 0 -.90547)"
       y1="13.035"
       x1="22.759">
      <stop
         id="stop6305-1-0-2"
         stop-color="#fff"
         offset="0" />
      <stop
         id="stop6307-5-0-6"
         stop-color="#fff"
         stop-opacity="0"
         offset="1" />
    </linearGradient>
    <linearGradient
       id="linearGradient4829">
      <stop
         style="stop-color:#f4fbfc;stop-opacity:1;"
         offset="0"
         id="stop4831" />
      <stop
         style="stop-color:#d6d6d6;stop-opacity:1;"
         offset="1"
         id="stop4833" />
    </linearGradient>
    <radialGradient
       id="SVGID_4_"
       cx="224.50391"
       cy="186.51421"
       r="127.0051"
       gradientUnits="userSpaceOnUse">
      <stop
         offset="0"
         style="stop-color:#FFFFFF"
         id="stop27" />
      <stop
         offset="0.3984"
         style="stop-color:#FDFEFF"
         id="stop29" />
      <stop
         offset="0.6131"
         style="stop-color:#F5FAFF"
         id="stop31" />
      <stop
         offset="0.7841"
         style="stop-color:#E7F3FF"
         id="stop33" />
      <stop
         offset="0.9311"
         style="stop-color:#D4EAFF"
         id="stop35" />
      <stop
         offset="1"
         style="stop-color:#C8E4FF"
         id="stop37" />
    </radialGradient>
    <radialGradient
       gradientUnits="userSpaceOnUse"
       r="26.769501"
       cy="286.66409"
       cx="324.69339"
       id="SVGID_5_">
      <stop
         id="stop50"
         style="stop-color:#FFFFFF"
         offset="0" />
      <stop
         id="stop52"
         style="stop-color:#FDFEFF"
         offset="0.3984" />
      <stop
         id="stop54"
         style="stop-color:#F5FAFF"
         offset="0.6131" />
      <stop
         id="stop56"
         style="stop-color:#E7F3FF"
         offset="0.7841" />
      <stop
         id="stop58"
         style="stop-color:#D4EAFF"
         offset="0.9311" />
      <stop
         id="stop60"
         style="stop-color:#C8E4FF"
         offset="1" />
    </radialGradient>
    <radialGradient
       gradientUnits="userSpaceOnUse"
       r="46.444901"
       cy="392.77249"
       cx="325"
       id="SVGID_6_">
      <stop
         id="stop73"
         style="stop-color:#FFFFFF"
         offset="0" />
      <stop
         id="stop75"
         style="stop-color:#FDFEFF"
         offset="0.3984" />
      <stop
         id="stop77"
         style="stop-color:#F5FAFF"
         offset="0.6131" />
      <stop
         id="stop79"
         style="stop-color:#E7F3FF"
         offset="0.7841" />
      <stop
         id="stop81"
         style="stop-color:#D4EAFF"
         offset="0.9311" />
      <stop
         id="stop83"
         style="stop-color:#C8E4FF"
         offset="1" />
    </radialGradient>
    <filter
       style="color-interpolation-filters:sRGB;"
       inkscape:label="Drop Shadow"
       id="filter3913">
      <feFlood
         flood-opacity="0.498039"
         flood-color="rgb(0,0,0)"
         result="flood"
         id="feFlood3903" />
      <feComposite
         in="flood"
         in2="SourceGraphic"
         operator="in"
         result="composite1"
         id="feComposite3905" />
      <feGaussianBlur
         in="composite1"
         stdDeviation="7.4"
         result="blur"
         id="feGaussianBlur3907" />
      <feOffset
         dx="15.3"
         dy="16.1"
         result="offset"
         id="feOffset3909" />
      <feComposite
         in="SourceGraphic"
         in2="offset"
         operator="over"
         result="composite2"
         id="feComposite3911" />
    </filter>
    <linearGradient
       inkscape:collect="always"
       xlink:href="#linearGradient3972"
       id="linearGradient3974"
       x1="23.79661"
       y1="5.4915252"
       x2="23.79661"
       y2="42.81356"
       gradientUnits="userSpaceOnUse" />
  </defs>
  <metadata
     id="metadata4066">
    <rdf:RDF>
      <cc:Work
         rdf:about="">
        <dc:format>image/svg+xml</dc:format>
        <dc:type
           rdf:resource="http://purl.org/dc/dcmitype/StillImage" />
        <dc:title></dc:title>
      </cc:Work>
    </rdf:RDF>
  </metadata>
  <g
     id="g4206">
    <path
       id="path3818-0-5"
       d="m 41,41.5 a 17,5.5 0 0 1 -34,0 17,5.5 0 1 1 34,0 z"
       inkscape:connector-curvature="0"
       style="fill:url(#radialGradient3035)" />
    <path
       id="path2555-7-2"
       style="color:#000000;fill:url(#radialGradient3032)"
       d="M 24,3.5 C 12.689,3.5 3.5,12.689 3.5,24 3.5,35.311 12.689,44.5 24,44.5 35.311,44.5 44.5,35.311 44.5,24 44.5,12.689 35.311,3.5 24,3.5 Z"
       inkscape:connector-curvature="0" />
    <path
       id="path2555-7-65"
       style="color:#000000;fill:url(#linearGradient3974);fill-opacity:1"
       d="M 24,3.5 C 12.689,3.5 3.5,12.689 3.5,24 3.5,35.311 12.689,44.5 24,44.5 35.311,44.5 44.5,35.311 44.5,24 44.5,12.689 35.311,3.5 24,3.5 Z"
       inkscape:connector-curvature="0" />
    <path
       id="path4176"
       style="color:#000000;opacity:0.5;fill:none;stroke:url(#linearGradient3026);stroke-linecap:round;stroke-linejoin:round"
       d="M 43.5,24 C 43.5,34.77 34.77,43.5 24,43.5 13.23,43.5 4.5,34.77 4.5,24 4.5,13.23 13.23,4.5 24,4.5 34.77,4.5 43.5,13.23 43.5,24 Z"
       inkscape:connector-curvature="0" />
    <path
       id="path2555-7-1-7"
       style="color:#000000;opacity:1;fill:none;fill-opacity:1;stroke:#fbfbfb;stroke-width:1.79999995;stroke-linecap:round;stroke-linejoin:round;stroke-miterlimit:4;stroke-dasharray:none;stroke-opacity:1"
       d="m 24,3.5001 c -11.311,0 -20.5,9.1888 -20.5,20.5 0,11.3112 9.1888,20.5 20.5,20.5 11.3112,0 20.5,-9.1888 20.5,-20.5 0,-11.3112 -9.189,-20.5 -20.5,-20.5 z"
       inkscape:connector-curvature="0" />
    <g
       id="g4317"
       transform="matrix(1.0002,0,0,1.0004,-1.0018,-0.0050486)"
       style="fill:none;stroke:#000000;stroke-linecap:round;stroke-linejoin:round" />
    <g
       transform="translate(1.2293136,0.82203389)"
       id="g31"
       style="fill:#ffffff;fill-opacity:1">
      <g
         id="g33"
         style="fill:#ffffff;fill-opacity:1">
        <!-- color: #f3ca66 -->
        <g
           id="g35"
           style="fill:#ffffff;fill-opacity:1">
          <path
             inkscape:connector-curvature="0"
             d="m 23,14 c -6.075,0 -11,4.925 -11,11 0,6.075 4.925,11 11,11 4.44,-10e-4 8.443,-2.671 10.15,-6.77 L 37.595,18.5 c 0.264,-0.455 0.403,-0.974 0.404,-1.5 0,-1.657 -1.343,-3 -3,-3 h -12 z m 0,2 a 9,9 0 0 1 9,9 9,9 0 0 1 -9,9 9,9 0 0 1 -9,-9 9,9 0 0 1 9,-9 z m -0.262,2.385 0.004,0.02 c -0.184,0.012 -0.39,0.057 -0.604,0.139 -0.574,0.211 -0.426,0.967 -0.375,1.486 -0.035,0.047 -0.102,0.031 -0.148,0.031 -0.621,0.031 -0.898,0.675 -1.027,1.188 0.027,0.473 -0.035,0.985 -0.117,1.439 -0.082,0.453 -0.242,0.809 -0.258,1.242 -0.035,0.387 0.109,0.838 0.078,1.189 -0.344,1 -0.59,1.662 -0.77,2.729 -0.133,0.238 -0.586,0.758 -0.766,0.871 -0.051,0.078 0.025,0.258 -0.053,0.367 -0.148,0.211 -0.379,0.324 -0.508,0.555 0.031,0.047 -0.195,0.094 -0.176,0.172 0.016,0.082 0.129,0.293 0.176,0.34 0.016,0.035 0.182,-0.047 0.182,0 0.066,0.195 0.215,0.598 0.379,0.691 0.719,0.078 0.719,0.078 1.012,0 0.16,-0.469 -0.555,-0.26 -0.488,-0.889 0.98,-0.188 1.289,-0.468 1.684,-1.479 0.18,-0.742 0.422,-1.473 0.801,-2.18 0.063,-0.051 0.047,-0.178 0.16,-0.229 0.438,0.727 1.238,1.242 1.637,2 0.098,0.98 0.293,1.516 0.633,1.695 0.082,0.027 0,0.336 0.066,0.398 0,0.102 0.031,0.207 -0.02,0.32 -0.027,0.082 -0.012,0.176 -0.012,0.258 v 0.098 c 0.016,0.145 0.047,0.148 0.195,0.262 0.422,0.273 0.991,0.711 1.563,0.387 0.262,-0.418 -0.289,-0.949 -0.684,-1.223 -0.129,-0.102 -0.359,-0.34 -0.328,-0.5 0.215,-0.211 0.359,-1.129 0.277,-1.84 -0.031,-0.16 -0.065,-0.324 -0.131,-0.453 -0.195,-0.371 -0.637,-0.883 -1.012,-1.254 0.047,-0.055 0.113,-0.117 0.195,-0.148 0,-0.352 -0.148,-0.465 -0.344,-0.723 -0.164,-0.258 -0.539,-0.766 -0.816,-0.922 0,0 -0.004,-0.02 -0.281,-0.02 -0.016,-0.176 0.035,-0.324 0.086,-0.516 0,-0.145 0.117,-0.063 0.148,-0.387 0.082,-0.273 0.043,-0.115 0.109,-0.393 0.066,-0.125 0.105,-0.258 0.105,-0.465 0.242,0.078 0.734,0.063 0.945,0 l 0.047,0.031 c 0.063,0.016 0.082,-0.082 0.129,-0.098 0.375,-0.191 0.508,-0.531 0.813,-0.563 0,0 0.168,-0.082 0.41,0 0.102,0 0.184,0.02 0.184,-0.078 0.016,-0.148 0.016,-0.262 0.098,-0.355 0.066,0.387 0.246,0.82 0.57,1.238 l 0.328,-0.223 c -0.316,-0.371 -0.512,-0.789 -0.539,-1.273 0.016,0.031 0.026,0.063 0.063,0.094 0.117,0 0.181,-0.238 0.314,-0.223 0.016,-0.031 0.051,-0.18 0.082,-0.293 h 1.223 L 28.418,20.8 v -0.229 l -0.324,-0.029 v -0.26 h -0.086 v -0.293 h -0.195 v 0.273 l -0.504,-0.031 v -0.18 h -0.195 v 0.164 l -0.52,-0.051 v -0.242 h -0.199 v 0.227 L 25.629,20.098 V 20.02 h -0.574 v -0.145 h -0.311 v 0.074 c -0.035,0.02 -0.066,0.051 -0.098,0.066 h -0.035 c -0.539,-0.418 -0.57,0.438 -0.93,0.242 -0.035,-0.176 -0.02,-0.336 -0.02,-0.547 0.621,-0.016 0.398,-0.182 0.219,-0.389 -0.066,-0.082 -0.105,-0.211 -0.117,-0.289 -0.109,-0.398 -0.48,-0.682 -1.027,-0.654 z m 1.104,2.482 c 0.078,0 0.121,0.027 0.121,0.027 0.195,-0.031 0.375,0.016 0.688,0 -0.051,0.531 -0.438,0.305 -0.863,0.598 -0.109,-0.016 -0.246,-0.02 -0.426,-0.02 -0.035,-0.355 0.102,-0.418 0.16,-0.48 0.133,-0.098 0.242,-0.125 0.32,-0.125 z"
             style="opacity:0.1;fill:#ffffff;fill-opacity:1;fill-rule:nonzero;stroke:none"
             id="path37" />
          <path
             inkscape:connector-curvature="0"
             d="m 22,13 c -6.075,0 -11,4.925 -11,11 0,6.075 4.925,11 11,11 4.44,-10e-4 8.443,-2.671 10.15,-6.77 L 36.595,17.5 c 0.264,-0.455 0.403,-0.974 0.404,-1.5 0,-1.657 -1.343,-3 -3,-3 h -12 z m 0,2 a 9,9 0 0 1 9,9 9,9 0 0 1 -9,9 9,9 0 0 1 -9,-9 9,9 0 0 1 9,-9 z m -0.262,2.385 0.004,0.02 c -0.184,0.012 -0.39,0.057 -0.604,0.139 -0.574,0.211 -0.426,0.967 -0.375,1.486 -0.035,0.047 -0.102,0.031 -0.148,0.031 -0.621,0.031 -0.898,0.675 -1.027,1.188 0.027,0.473 -0.035,0.985 -0.117,1.439 -0.082,0.453 -0.242,0.809 -0.258,1.242 -0.035,0.387 0.109,0.838 0.078,1.189 -0.344,1 -0.59,1.662 -0.77,2.729 -0.133,0.238 -0.586,0.758 -0.766,0.871 -0.051,0.078 0.025,0.258 -0.053,0.367 -0.148,0.211 -0.379,0.324 -0.508,0.555 0.031,0.047 -0.195,0.094 -0.176,0.172 0.016,0.082 0.129,0.293 0.176,0.34 0.016,0.035 0.182,-0.047 0.182,0 0.066,0.195 0.215,0.598 0.379,0.691 0.719,0.078 0.719,0.078 1.012,0 0.16,-0.469 -0.555,-0.26 -0.488,-0.889 0.98,-0.188 1.289,-0.468 1.684,-1.479 0.18,-0.742 0.422,-1.473 0.801,-2.18 0.063,-0.051 0.047,-0.178 0.16,-0.229 0.438,0.727 1.238,1.242 1.637,2 0.098,0.98 0.293,1.516 0.633,1.695 0.082,0.027 0,0.336 0.066,0.398 0,0.102 0.031,0.207 -0.02,0.32 -0.027,0.082 -0.012,0.176 -0.012,0.258 v 0.098 c 0.016,0.145 0.047,0.148 0.195,0.262 0.422,0.273 0.991,0.711 1.563,0.387 0.262,-0.418 -0.289,-0.949 -0.684,-1.223 -0.129,-0.102 -0.359,-0.34 -0.328,-0.5 0.215,-0.211 0.359,-1.129 0.277,-1.84 -0.031,-0.16 -0.065,-0.324 -0.131,-0.453 -0.195,-0.371 -0.637,-0.883 -1.012,-1.254 0.047,-0.055 0.113,-0.117 0.195,-0.148 0,-0.352 -0.148,-0.465 -0.344,-0.723 -0.164,-0.258 -0.539,-0.766 -0.816,-0.922 0,0 -0.004,-0.02 -0.281,-0.02 -0.016,-0.176 0.035,-0.324 0.086,-0.516 0,-0.145 0.117,-0.063 0.148,-0.387 0.082,-0.273 0.043,-0.115 0.109,-0.393 0.066,-0.125 0.105,-0.258 0.105,-0.465 0.242,0.078 0.734,0.063 0.945,0 l 0.047,0.031 c 0.063,0.016 0.082,-0.082 0.129,-0.098 0.375,-0.191 0.508,-0.531 0.813,-0.563 0,0 0.168,-0.082 0.41,0 0.102,0 0.184,0.02 0.184,-0.078 0.016,-0.148 0.016,-0.262 0.098,-0.355 0.066,0.387 0.246,0.82 0.57,1.238 l 0.328,-0.223 c -0.316,-0.371 -0.512,-0.789 -0.539,-1.273 0.016,0.031 0.026,0.063 0.063,0.094 0.117,0 0.181,-0.238 0.314,-0.223 0.016,-0.031 0.051,-0.18 0.082,-0.293 h 1.223 L 27.418,19.8 v -0.229 l -0.324,-0.029 v -0.26 h -0.086 v -0.293 h -0.195 v 0.273 l -0.504,-0.031 v -0.18 h -0.195 v 0.164 l -0.52,-0.051 v -0.242 h -0.199 v 0.227 L 24.629,19.098 V 19.02 h -0.574 v -0.145 h -0.311 v 0.074 c -0.035,0.02 -0.066,0.051 -0.098,0.066 h -0.035 c -0.539,-0.418 -0.57,0.438 -0.93,0.242 -0.035,-0.176 -0.02,-0.336 -0.02,-0.547 0.621,-0.016 0.398,-0.182 0.219,-0.389 -0.066,-0.082 -0.105,-0.211 -0.117,-0.289 -0.109,-0.398 -0.48,-0.682 -1.027,-0.654 z m 1.104,2.482 c 0.078,0 0.121,0.027 0.121,0.027 0.195,-0.031 0.375,0.016 0.688,0 -0.051,0.531 -0.438,0.305 -0.863,0.598 -0.109,-0.016 -0.246,-0.02 -0.426,-0.02 -0.035,-0.355 0.102,-0.418 0.16,-0.48 0.133,-0.098 0.242,-0.125 0.32,-0.125 z"
             style="fill:#ffffff;fill-opacity:1;fill-rule:nonzero;stroke:none"
             id="path39" />
        </g>
      </g>
    </g>
  </g>
</svg>
