<?xml version="1.0" encoding="UTF-8" standalone="no"?>
<!-- Created with Inkscape (http://www.inkscape.org/) -->

<svg
   xmlns:dc="http://purl.org/dc/elements/1.1/"
   xmlns:cc="http://creativecommons.org/ns#"
   xmlns:rdf="http://www.w3.org/1999/02/22-rdf-syntax-ns#"
   xmlns:svg="http://www.w3.org/2000/svg"
   xmlns="http://www.w3.org/2000/svg"
   xmlns:xlink="http://www.w3.org/1999/xlink"
   xmlns:sodipodi="http://sodipodi.sourceforge.net/DTD/sodipodi-0.dtd"
   xmlns:inkscape="http://www.inkscape.org/namespaces/inkscape"
   id="svg4061"
   height="48"
   width="48"
   version="1.1"
   inkscape:version="0.92.2 (unknown)"
   sodipodi:docname="steam_icon_730.svg">
  <sodipodi:namedview
     pagecolor="#ffffff"
     bordercolor="#666666"
     borderopacity="1"
     objecttolerance="10"
     gridtolerance="10"
     guidetolerance="10"
     inkscape:pageopacity="0"
     inkscape:pageshadow="2"
     inkscape:window-width="1378"
     inkscape:window-height="894"
     id="namedview40"
     showgrid="false"
     inkscape:zoom="9.8333333"
     inkscape:cx="8.1825182"
     inkscape:cy="12.861992"
     inkscape:window-x="985"
     inkscape:window-y="211"
     inkscape:window-maximized="0"
     inkscape:current-layer="g4206"
     inkscape:lockguides="true" />
  <defs
     id="defs4063">
    <linearGradient
       inkscape:collect="always"
       id="linearGradient3972">
      <stop
         style="stop-color:#ff6600;stop-opacity:1"
         offset="0"
         id="stop3968" />
      <stop
         style="stop-color:#800000;stop-opacity:1"
         offset="1"
         id="stop3970" />
    </linearGradient>
    <linearGradient
       inkscape:collect="always"
       id="linearGradient3361">
      <stop
         style="stop-color:#0068e0;stop-opacity:1;"
         offset="0"
         id="stop3363" />
      <stop
         style="stop-color:#00acf4;stop-opacity:1"
         offset="1"
         id="stop3365" />
    </linearGradient>
    <linearGradient
       id="linearGradient3026"
       y2="40.495998"
       gradientUnits="userSpaceOnUse"
       x2="71.204002"
       gradientTransform="matrix(1.617,0,0,1.617,-92.707,-21.06)"
       y1="15.369"
       x1="71.204002"
       xlink:href="#linearGradient3361">
      <stop
         id="stop4808-4"
         stop-color="#fff"
         offset="0" />
      <stop
         id="stop4810-0"
         stop-color="#fff"
         stop-opacity=".23529"
         offset=".42448" />
      <stop
         id="stop4812-8"
         stop-color="#fff"
         stop-opacity=".15686"
         offset=".82090" />
      <stop
         id="stop4814-0"
         stop-color="#fff"
         stop-opacity=".39216"
         offset="1" />
    </linearGradient>
    <radialGradient
       id="radialGradient3029"
       fx="4.459"
       fy="8.5089"
       gradientUnits="userSpaceOnUse"
       cy="8.6258"
       cx="15.026"
       gradientTransform="matrix(-3.4973e-8 1.8855 -1.7764 -5.4723e-8 39.14 -7.9932)"
       r="20">
      <stop
         id="stop4170"
         stop-color="#c24251"
         offset="0" />
      <stop
         id="stop4172"
         stop-color="#c24251"
         offset=".26238" />
      <stop
         id="stop4174"
         stop-color="#a63643"
         offset=".66094" />
      <stop
         id="stop4176"
         stop-color="#a63643"
         offset="1" />
    </radialGradient>
    <radialGradient
       id="radialGradient3032"
       gradientUnits="userSpaceOnUse"
       cy="3.99"
       cx="23.896"
       gradientTransform="matrix(0 2.8885 -3.8128 0 39.213 -65.95)"
       r="20.397">
      <stop
         id="stop3244-9-33-7-0-9"
         stop-color="#fff"
         offset="0" />
      <stop
         id="stop3246-3-5-0-8-5"
         stop-color="#ddd"
         offset=".26238" />
      <stop
         id="stop3248-1-7-8-8-1"
         stop-color="#abacae"
         offset=".66094" />
      <stop
         id="stop3250-9-3-0-5-1"
         stop-color="#89898b"
         offset="1" />
    </radialGradient>
    <radialGradient
       id="radialGradient3035"
       gradientUnits="userSpaceOnUse"
       cy="186.17"
       cx="99.157"
       gradientTransform="matrix(.27083 0 0 .087623 -2.8551 25.187)"
       r="62.769">
      <stop
         id="stop3822-2-6-3"
         stop-color="#3d3d3d"
         offset="0" />
      <stop
         id="stop3864-8-7-7"
         stop-color="#686868"
         stop-opacity=".49804"
         offset=".5" />
      <stop
         id="stop3824-1-2-5"
         stop-color="#686868"
         stop-opacity="0"
         offset="1" />
    </radialGradient>
    <linearGradient
       id="linearGradient4433"
       y2="25.611"
       gradientUnits="userSpaceOnUse"
       x2="23.078"
       gradientTransform="matrix(1 0 0 1.0521 0 -.90547)"
       y1="13.035"
       x1="22.759">
      <stop
         id="stop6305-1-0-2"
         stop-color="#fff"
         offset="0" />
      <stop
         id="stop6307-5-0-6"
         stop-color="#fff"
         stop-opacity="0"
         offset="1" />
    </linearGradient>
    <linearGradient
       id="linearGradient4829">
      <stop
         style="stop-color:#f4fbfc;stop-opacity:1;"
         offset="0"
         id="stop4831" />
      <stop
         style="stop-color:#d6d6d6;stop-opacity:1;"
         offset="1"
         id="stop4833" />
    </linearGradient>
    <radialGradient
       id="SVGID_4_"
       cx="224.50391"
       cy="186.51421"
       r="127.0051"
       gradientUnits="userSpaceOnUse">
      <stop
         offset="0"
         style="stop-color:#FFFFFF"
         id="stop27" />
      <stop
         offset="0.3984"
         style="stop-color:#FDFEFF"
         id="stop29" />
      <stop
         offset="0.6131"
         style="stop-color:#F5FAFF"
         id="stop31" />
      <stop
         offset="0.7841"
         style="stop-color:#E7F3FF"
         id="stop33" />
      <stop
         offset="0.9311"
         style="stop-color:#D4EAFF"
         id="stop35" />
      <stop
         offset="1"
         style="stop-color:#C8E4FF"
         id="stop37" />
    </radialGradient>
    <radialGradient
       gradientUnits="userSpaceOnUse"
       r="26.769501"
       cy="286.66409"
       cx="324.69339"
       id="SVGID_5_">
      <stop
         id="stop50"
         style="stop-color:#FFFFFF"
         offset="0" />
      <stop
         id="stop52"
         style="stop-color:#FDFEFF"
         offset="0.3984" />
      <stop
         id="stop54"
         style="stop-color:#F5FAFF"
         offset="0.6131" />
      <stop
         id="stop56"
         style="stop-color:#E7F3FF"
         offset="0.7841" />
      <stop
         id="stop58"
         style="stop-color:#D4EAFF"
         offset="0.9311" />
      <stop
         id="stop60"
         style="stop-color:#C8E4FF"
         offset="1" />
    </radialGradient>
    <radialGradient
       gradientUnits="userSpaceOnUse"
       r="46.444901"
       cy="392.77249"
       cx="325"
       id="SVGID_6_">
      <stop
         id="stop73"
         style="stop-color:#FFFFFF"
         offset="0" />
      <stop
         id="stop75"
         style="stop-color:#FDFEFF"
         offset="0.3984" />
      <stop
         id="stop77"
         style="stop-color:#F5FAFF"
         offset="0.6131" />
      <stop
         id="stop79"
         style="stop-color:#E7F3FF"
         offset="0.7841" />
      <stop
         id="stop81"
         style="stop-color:#D4EAFF"
         offset="0.9311" />
      <stop
         id="stop83"
         style="stop-color:#C8E4FF"
         offset="1" />
    </radialGradient>
    <filter
       style="color-interpolation-filters:sRGB;"
       inkscape:label="Drop Shadow"
       id="filter3913">
      <feFlood
         flood-opacity="0.498039"
         flood-color="rgb(0,0,0)"
         result="flood"
         id="feFlood3903" />
      <feComposite
         in="flood"
         in2="SourceGraphic"
         operator="in"
         result="composite1"
         id="feComposite3905" />
      <feGaussianBlur
         in="composite1"
         stdDeviation="7.4"
         result="blur"
         id="feGaussianBlur3907" />
      <feOffset
         dx="15.3"
         dy="16.1"
         result="offset"
         id="feOffset3909" />
      <feComposite
         in="SourceGraphic"
         in2="offset"
         operator="over"
         result="composite2"
         id="feComposite3911" />
    </filter>
    <linearGradient
       inkscape:collect="always"
       xlink:href="#linearGradient3972"
       id="linearGradient3974"
       x1="23.79661"
       y1="5.4915252"
       x2="23.79661"
       y2="42.81356"
       gradientUnits="userSpaceOnUse" />
  </defs>
  <metadata
     id="metadata4066">
    <rdf:RDF>
      <cc:Work
         rdf:about="">
        <dc:format>image/svg+xml</dc:format>
        <dc:type
           rdf:resource="http://purl.org/dc/dcmitype/StillImage" />
        <dc:title></dc:title>
      </cc:Work>
    </rdf:RDF>
  </metadata>
  <g
     id="g4206">
    <path
       id="path3818-0-5"
       d="m 41,41.5 a 17,5.5 0 0 1 -34,0 17,5.5 0 1 1 34,0 z"
       inkscape:connector-curvature="0"
       style="fill:url(#radialGradient3035)" />
    <path
       id="path2555-7-2"
       style="color:#000000;fill:url(#radialGradient3032)"
       d="M 24,3.5 C 12.689,3.5 3.5,12.689 3.5,24 3.5,35.311 12.689,44.5 24,44.5 35.311,44.5 44.5,35.311 44.5,24 44.5,12.689 35.311,3.5 24,3.5 Z"
       inkscape:connector-curvature="0" />
    <path
       id="path2555-7-65"
       style="color:#000000;fill:url(#linearGradient3974);fill-opacity:1"
       d="M 24,3.5 C 12.689,3.5 3.5,12.689 3.5,24 3.5,35.311 12.689,44.5 24,44.5 35.311,44.5 44.5,35.311 44.5,24 44.5,12.689 35.311,3.5 24,3.5 Z"
       inkscape:connector-curvature="0" />
    <path
       id="path4176"
       style="color:#000000;opacity:0.5;fill:none;stroke:url(#linearGradient3026);stroke-linecap:round;stroke-linejoin:round"
       d="M 43.5,24 C 43.5,34.77 34.77,43.5 24,43.5 13.23,43.5 4.5,34.77 4.5,24 4.5,13.23 13.23,4.5 24,4.5 34.77,4.5 43.5,13.23 43.5,24 Z"
       inkscape:connector-curvature="0" />
    <path
       id="path2555-7-1-7"
       style="color:#000000;opacity:1;fill:none;fill-opacity:1;stroke:#fbfbfb;stroke-width:1.79999995;stroke-linecap:round;stroke-linejoin:round;stroke-miterlimit:4;stroke-dasharray:none;stroke-opacity:1"
       d="m 24,3.5001 c -11.311,0 -20.5,9.1888 -20.5,20.5 0,11.3112 9.1888,20.5 20.5,20.5 11.3112,0 20.5,-9.1888 20.5,-20.5 0,-11.3112 -9.189,-20.5 -20.5,-20.5 z"
       inkscape:connector-curvature="0" />
    <g
       id="g4317"
       transform="matrix(1.0002,0,0,1.0004,-1.0018,-0.0050486)"
       style="fill:none;stroke:#000000;stroke-linecap:round;stroke-linejoin:round" />
    <path
       inkscape:connector-curvature="0"
       d="m 22.463263,14.423729 c -5.850217,0 -10.592985,4.925 -10.592985,11 0,6.075 4.742768,11 10.592985,11 4.275713,-0.001 8.130597,-2.671 9.774436,-6.77 l 4.280529,-10.73 c 0.254231,-0.455 0.388088,-0.974 0.389051,-1.5 0,-1.657 -1.293307,-3 -2.888996,-3 H 22.4623 Z m 8.47535,1 c 0.392904,0 0.758843,0.117 1.100708,0.346 l 0.08474,0.063 -0.246528,0.531 -0.08474,-0.045 c -0.20897,-0.14 -0.520982,-0.264 -0.838772,-0.264 -0.668321,0 -1.166191,0.537 -1.166191,1.33 0,0.844 0.521945,1.408 1.247083,1.408 0.260973,0 0.334161,-0.05 0.50076,-0.162 v -0.607 h -0.808919 v -0.6 h 1.367458 v 1.537 c -0.293715,0.296 -0.624023,0.463 -1.154636,0.463 -1.038112,0 -1.73436,-0.822 -1.73436,-2.01 0,-1.179 0.715508,-1.988 1.73436,-1.988 m 3.376274,0 c 0.97648,0 1.630356,0.799 1.630356,1.961 0,1.184 -0.653876,2.039 -1.649616,2.039 -0.962999,0 -1.61206,-0.827 -1.61206,-2 0,-1.168 0.654839,-2 1.630357,-2 z m -0.0058,0.801 c -0.576836,0 -0.962999,0.499 -0.962999,1.199 0,0.704 0.380385,1.199 0.951443,1.199 0.587429,0 0.974554,-0.512 0.974554,-1.223 0,-0.697 -0.386162,-1.176 -0.962998,-1.176 z m -11.845846,0.199 c 4.787066,0 8.666987,4.03 8.666987,9 0,4.971 -3.880884,9 -8.666987,9 -4.787067,0 -8.666988,-4.03 -8.666988,-9 0,-4.971 3.880884,-9 8.666988,-9 z m -0.252306,2.385 0.0039,0.02 c -0.177192,0.012 -0.37557,0.057 -0.581651,0.139 -0.552761,0.211 -0.410238,0.967 -0.361125,1.486 -0.03371,0.047 -0.09823,0.031 -0.142524,0.031 -0.598022,0.031 -0.864772,0.675 -0.988999,1.188 0.026,0.473 -0.0337,0.985 -0.112671,1.439 -0.07897,0.453 -0.233046,0.809 -0.248454,1.242 -0.03371,0.387 0.104967,0.838 0.07511,1.189 -0.331271,1 -0.568169,1.662 -0.741509,2.729 -0.128078,0.238 -0.564317,0.758 -0.737657,0.871 -0.04911,0.078 0.02407,0.258 -0.05104,0.367 -0.142523,0.211 -0.364976,0.324 -0.489203,0.555 0.02985,0.047 -0.187785,0.094 -0.169488,0.172 0.01541,0.082 0.124227,0.293 0.169488,0.34 0.01541,0.035 0.175266,-0.047 0.175266,0 0.06356,0.195 0.207045,0.598 0.364976,0.691 0.692396,0.078 0.692396,0.078 0.974555,0 0.15408,-0.469 -0.534464,-0.26 -0.469943,-0.889 0.943738,-0.188 1.241305,-0.468 1.621689,-1.479 0.17334,-0.742 0.406386,-1.473 0.771362,-2.18 0.06067,-0.051 0.04526,-0.178 0.15408,-0.229 0.421793,0.727 1.192192,1.242 1.576429,2 0.09437,0.98 0.282158,1.516 0.609578,1.695 0.07897,0.027 0,0.336 0.06356,0.398 0,0.102 0.02985,0.207 -0.01926,0.32 -0.026,0.082 -0.01156,0.176 -0.01156,0.258 v 0.098 c 0.01541,0.145 0.04526,0.148 0.187785,0.262 0.406385,0.273 0.954331,0.711 1.505166,0.387 0.252306,-0.418 -0.278306,-0.949 -0.658691,-1.223 -0.124226,-0.102 -0.345716,-0.34 -0.315863,-0.5 0.207045,-0.211 0.345716,-1.129 0.26675,-1.84 -0.02985,-0.16 -0.06259,-0.324 -0.126152,-0.453 -0.187785,-0.371 -0.61343,-0.883 -0.974555,-1.254 0.04526,-0.055 0.108819,-0.117 0.187785,-0.148 0,-0.352 -0.142524,-0.465 -0.331272,-0.723 -0.157932,-0.258 -0.519056,-0.766 -0.785807,-0.922 0,0 -0.0039,-0.02 -0.270602,-0.02 -0.01541,-0.176 0.0337,-0.324 0.08282,-0.516 0,-0.145 0.11267,-0.063 0.142523,-0.387 0.07897,-0.273 0.04141,-0.115 0.104967,-0.393 0.06356,-0.125 0.101115,-0.258 0.101115,-0.465 0.233046,0.078 0.706841,0.063 0.910034,0 l 0.04526,0.031 c 0.06067,0.016 0.07897,-0.082 0.124227,-0.098 0.361124,-0.191 0.489203,-0.531 0.782917,-0.563 0,0 0.161784,-0.082 0.39483,0 0.09823,0 0.177192,0.02 0.177192,-0.078 0.01541,-0.148 0.01541,-0.262 0.09437,-0.355 0.06356,0.387 0.236897,0.82 0.548909,1.238 l 0.315863,-0.223 c -0.304307,-0.371 -0.493055,-0.789 -0.519056,-1.273 0.01541,0.031 0.02504,0.063 0.06067,0.094 0.112671,0 0.174303,-0.238 0.302382,-0.223 0.01541,-0.031 0.04911,-0.18 0.07897,-0.293 h 1.177748 l 0.424682,-0.098 v -0.229 l -0.312011,-0.029 v -0.26 h -0.08282 v -0.293 h -0.187785 v 0.273 l -0.485351,-0.031 v -0.18 h -0.187785 v 0.164 l -0.500759,-0.051 v -0.242 h -0.191637 v 0.227 l -0.737657,-0.051 v -0.078 h -0.552761 v -0.145 h -0.299493 v 0.074 c -0.0337,0.02 -0.06356,0.051 -0.09437,0.066 h -0.03371 c -0.519056,-0.418 -0.548909,0.438 -0.895588,0.242 -0.0337,-0.176 -0.01926,-0.336 -0.01926,-0.547 0.598022,-0.016 0.383273,-0.182 0.210896,-0.389 -0.06356,-0.082 -0.101115,-0.211 -0.11267,-0.289 -0.104967,-0.398 -0.46224,-0.682 -0.989,-0.654 z m 1.06315,2.482 c 0.07511,0 0.116523,0.027 0.116523,0.027 0.187785,-0.031 0.361125,0.016 0.662543,0 -0.04911,0.531 -0.421793,0.305 -0.831068,0.598 -0.104966,-0.016 -0.236897,-0.02 -0.410237,-0.02 -0.03371,-0.355 0.09823,-0.418 0.15408,-0.48 0.128079,-0.098 0.233046,-0.125 0.308159,-0.125 z"
       style="opacity:0.1;fill:#ffffff;fill-opacity:1;fill-rule:nonzero;stroke:none;stroke-width:0.98132491"
       id="path23" />
    <path
       inkscape:connector-curvature="0"
       d="m 21.500264,13.423729 c -5.850217,0 -10.592985,4.925 -10.592985,11 0,6.075 4.742768,11 10.592985,11 4.275714,-0.001 8.130597,-2.671 9.774436,-6.77 l 4.280529,-10.73 c 0.254232,-0.455 0.388088,-0.974 0.389051,-1.5 0,-1.657 -1.293307,-3 -2.888996,-3 H 21.499301 Z m 8.475351,1 c 0.392903,0 0.758843,0.117 1.100707,0.346 l 0.08474,0.063 -0.246527,0.531 -0.08474,-0.045 c -0.208971,-0.14 -0.520983,-0.264 -0.838772,-0.264 -0.668321,0 -1.166191,0.537 -1.166191,1.33 0,0.844 0.521945,1.408 1.247083,1.408 0.260972,0 0.33416,-0.05 0.500759,-0.162 v -0.607 h -0.808919 v -0.6 h 1.367458 v 1.537 c -0.293714,0.296 -0.624023,0.463 -1.154635,0.463 -1.038113,0 -1.734361,-0.822 -1.734361,-2.01 0,-1.179 0.715508,-1.988 1.734361,-1.988 z m 3.376273,0 c 0.976481,0 1.630357,0.799 1.630357,1.961 0,1.184 -0.653876,2.039 -1.649617,2.039 -0.962999,0 -1.61206,-0.827 -1.61206,-2 0,-1.168 0.654839,-2 1.630357,-2 z m -0.0058,0.801 c -0.576836,0 -0.962999,0.499 -0.962999,1.199 0,0.704 0.380385,1.199 0.951443,1.199 0.587429,0 0.974555,-0.512 0.974555,-1.223 0,-0.697 -0.386163,-1.176 -0.962999,-1.176 z m -11.845846,0.199 c 4.787066,0 8.666988,4.03 8.666988,9 0,4.971 -3.880885,9 -8.666988,9 -4.787066,0 -8.666988,-4.03 -8.666988,-9 0,-4.971 3.880885,-9 8.666988,-9 z m -0.252306,2.385 0.0039,0.02 c -0.177191,0.012 -0.375569,0.057 -0.581651,0.139 -0.552761,0.211 -0.410237,0.967 -0.361124,1.486 -0.0337,0.047 -0.09823,0.031 -0.142524,0.031 -0.598022,0.031 -0.864773,0.675 -0.989,1.188 0.026,0.473 -0.03371,0.985 -0.112671,1.439 -0.07897,0.453 -0.233045,0.809 -0.248453,1.242 -0.03371,0.387 0.104967,0.838 0.07511,1.189 -0.331272,1 -0.56817,1.662 -0.741509,2.729 -0.128079,0.238 -0.564318,0.758 -0.737657,0.871 -0.04911,0.078 0.02407,0.258 -0.05104,0.367 -0.142524,0.211 -0.364977,0.324 -0.489203,0.555 0.02985,0.047 -0.187785,0.094 -0.169488,0.172 0.01541,0.082 0.124227,0.293 0.169488,0.34 0.01541,0.035 0.175265,-0.047 0.175265,0 0.06356,0.195 0.207045,0.598 0.364977,0.691 0.692396,0.078 0.692396,0.078 0.974554,0 0.15408,-0.469 -0.534464,-0.26 -0.469943,-0.889 0.943739,-0.188 1.241305,-0.468 1.62169,-1.479 0.173339,-0.742 0.406385,-1.473 0.771362,-2.18 0.06067,-0.051 0.04526,-0.178 0.154079,-0.229 0.421794,0.727 1.192193,1.242 1.576429,2 0.09437,0.98 0.282159,1.516 0.609578,1.695 0.07897,0.027 0,0.336 0.06356,0.398 0,0.102 0.02985,0.207 -0.01926,0.32 -0.026,0.082 -0.01156,0.176 -0.01156,0.258 v 0.098 c 0.01541,0.145 0.04526,0.148 0.187785,0.262 0.406385,0.273 0.954332,0.711 1.505167,0.387 0.252305,-0.418 -0.278307,-0.949 -0.658691,-1.223 -0.124227,-0.102 -0.345717,-0.34 -0.315864,-0.5 0.207045,-0.211 0.345717,-1.129 0.266751,-1.84 -0.02985,-0.16 -0.06259,-0.324 -0.126153,-0.453 -0.187785,-0.371 -0.61343,-0.883 -0.974555,-1.254 0.04526,-0.055 0.108819,-0.117 0.187785,-0.148 0,-0.352 -0.142524,-0.465 -0.331271,-0.723 -0.157932,-0.258 -0.519057,-0.766 -0.785807,-0.922 0,0 -0.0039,-0.02 -0.270603,-0.02 -0.01541,-0.176 0.03371,-0.324 0.08282,-0.516 0,-0.145 0.112671,-0.063 0.142524,-0.387 0.07897,-0.273 0.04141,-0.115 0.104967,-0.393 0.06356,-0.125 0.101115,-0.258 0.101115,-0.465 0.233045,0.078 0.70684,0.063 0.910033,0 l 0.04526,0.031 c 0.06067,0.016 0.07897,-0.082 0.124227,-0.098 0.361124,-0.191 0.489203,-0.531 0.782918,-0.563 0,0 0.161784,-0.082 0.394829,0 0.09823,0 0.177192,0.02 0.177192,-0.078 0.01541,-0.148 0.01541,-0.262 0.09437,-0.355 0.06356,0.387 0.236898,0.82 0.548909,1.238 l 0.315864,-0.223 c -0.304308,-0.371 -0.493056,-0.789 -0.519057,-1.273 0.01541,0.031 0.02504,0.063 0.06067,0.094 0.112671,0 0.174303,-0.238 0.302382,-0.223 0.01541,-0.031 0.04911,-0.18 0.07897,-0.293 h 1.177747 l 0.424683,-0.098 v -0.229 l -0.312012,-0.029 v -0.26 h -0.08282 v -0.293 h -0.187785 v 0.273 l -0.485351,-0.031 v -0.18 h -0.187785 v 0.164 l -0.500759,-0.051 v -0.242 h -0.191637 v 0.227 l -0.737657,-0.051 v -0.078 h -0.552761 v -0.145 h -0.299492 v 0.074 c -0.03371,0.02 -0.06356,0.051 -0.09437,0.066 h -0.0337 c -0.519057,-0.418 -0.54891,0.438 -0.895589,0.242 -0.03371,-0.176 -0.01926,-0.336 -0.01926,-0.547 0.598022,-0.016 0.383273,-0.182 0.210897,-0.389 -0.06356,-0.082 -0.101115,-0.211 -0.112671,-0.289 -0.104967,-0.398 -0.462239,-0.682 -0.989,-0.654 z m 1.063151,2.482 c 0.07511,0 0.116523,0.027 0.116523,0.027 0.187784,-0.031 0.361124,0.016 0.662543,0 -0.04911,0.531 -0.421794,0.305 -0.831068,0.598 -0.104967,-0.016 -0.236898,-0.02 -0.410238,-0.02 -0.03371,-0.355 0.09823,-0.418 0.15408,-0.48 0.128079,-0.098 0.233046,-0.125 0.30816,-0.125 z"
       style="fill:#ffffff;fill-opacity:1;fill-rule:nonzero;stroke:none;stroke-width:0.98132491"
       id="path29" />
  </g>
</svg>
