<?xml version="1.0" encoding="UTF-8" standalone="no"?>
<!-- Created with Inkscape (http://www.inkscape.org/) -->

<svg
   xmlns:dc="http://purl.org/dc/elements/1.1/"
   xmlns:cc="http://creativecommons.org/ns#"
   xmlns:rdf="http://www.w3.org/1999/02/22-rdf-syntax-ns#"
   xmlns:svg="http://www.w3.org/2000/svg"
   xmlns="http://www.w3.org/2000/svg"
   xmlns:xlink="http://www.w3.org/1999/xlink"
   xmlns:sodipodi="http://sodipodi.sourceforge.net/DTD/sodipodi-0.dtd"
   xmlns:inkscape="http://www.inkscape.org/namespaces/inkscape"
   id="svg4061"
   height="48"
   width="48"
   version="1.1"
   inkscape:version="0.92.2 (unknown)"
   sodipodi:docname="system-software-install.svg">
  <sodipodi:namedview
     pagecolor="#ffffff"
     bordercolor="#666666"
     borderopacity="1"
     objecttolerance="10"
     gridtolerance="10"
     guidetolerance="10"
     inkscape:pageopacity="0"
     inkscape:pageshadow="2"
     inkscape:window-width="1571"
     inkscape:window-height="1068"
     id="namedview46"
     showgrid="false"
     inkscape:zoom="6.9532166"
     inkscape:cx="-3.0036261"
     inkscape:cy="20.936929"
     inkscape:window-x="904"
     inkscape:window-y="162"
     inkscape:window-maximized="0"
     inkscape:current-layer="svg4061" />
  <defs
     id="defs4063">
    <linearGradient
       id="linearGradient3026"
       y2="40.496"
       gradientUnits="userSpaceOnUse"
       x2="71.204"
       gradientTransform="matrix(1.5904918,0,0,1.5904918,-90.793773,-20.321411)"
       y1="15.369"
       x1="71.204">
      <stop
         id="stop4808-4"
         stop-color="#fff"
         offset="0" />
      <stop
         id="stop4810-0"
         stop-color="#fff"
         stop-opacity=".23529"
         offset=".42448" />
      <stop
         id="stop4812-8"
         stop-color="#fff"
         stop-opacity=".15686"
         offset=".82090" />
      <stop
         id="stop4814-0"
         stop-color="#fff"
         stop-opacity=".39216"
         offset="1" />
    </linearGradient>
    <radialGradient
       id="radialGradient3029"
       fx="4.459"
       fy="8.5089"
       gradientUnits="userSpaceOnUse"
       cy="8.6258"
       cx="15.026"
       gradientTransform="matrix(-3.4973e-8 1.8855 -1.7764 -5.4723e-8 39.14 -7.9932)"
       r="20">
      <stop
         id="stop4170"
         stop-color="#ff9696"
         offset="0" />
      <stop
         id="stop4172"
         stop-color="#fd7676"
         offset="0.1668274" />
      <stop
         id="stop4174"
         stop-color="#f94040"
         offset="0.48762146" />
      <stop
         id="stop4176"
         stop-color="#e42020"
         offset="1"
         style="stop-color:#e77f5b;stop-opacity:1" />
    </radialGradient>
    <radialGradient
       id="radialGradient3032"
       gradientUnits="userSpaceOnUse"
       cy="3.99"
       cx="23.896"
       gradientTransform="matrix(0,2.8411477,-3.7502952,0,38.963607,-64.47551)"
       r="20.397">
      <stop
         id="stop3244-9-33-7-0-9"
         stop-color="#fff"
         offset="0" />
      <stop
         id="stop3246-3-5-0-8-5"
         stop-color="#ddd"
         offset=".26238" />
      <stop
         id="stop3248-1-7-8-8-1"
         stop-color="#abacae"
         offset=".66094" />
      <stop
         id="stop3250-9-3-0-5-1"
         stop-color="#89898b"
         offset="1" />
    </radialGradient>
    <radialGradient
       id="radialGradient3035"
       gradientUnits="userSpaceOnUse"
       cy="186.17"
       cx="99.157"
       gradientTransform="matrix(0.26869328,0,0,0.0869317,-2.7773479,26.359093)"
       r="62.769">
      <stop
         id="stop3822-2-6-3"
         stop-color="#3d3d3d"
         offset="0" />
      <stop
         id="stop3864-8-7-7"
         stop-color="#686868"
         stop-opacity=".49804"
         offset=".5" />
      <stop
         id="stop3824-1-2-5"
         stop-color="#686868"
         stop-opacity="0"
         offset="1" />
    </radialGradient>
    <linearGradient
       id="ButtonShadow"
       y2="7.0165"
       gradientUnits="userSpaceOnUse"
       x2="45.448"
       gradientTransform="scale(1.0059 .99417)"
       y1="92.54"
       x1="45.448">
      <stop
         id="stop3750"
         offset="0" />
      <stop
         id="stop3752"
         stop-opacity=".58824"
         offset="1" />
    </linearGradient>
    <filter
       id="filter3174"
       style="color-interpolation-filters:sRGB">
      <feGaussianBlur
         id="feGaussianBlur3176"
         stdDeviation="1.71" />
    </filter>
    <linearGradient
       id="linearGradient3185"
       y2="-167.53"
       xlink:href="#SVGID_14_"
       gradientUnits="userSpaceOnUse"
       x2="206.69"
       gradientTransform="matrix(.72832 0 0 -.72832 -295.83 -108.58)"
       y1="-167.53"
       x1="206.69" />
    <linearGradient
       id="SVGID_14_"
       y2="-167.53"
       gradientUnits="userSpaceOnUse"
       x2="206.69"
       gradientTransform="matrix(1 0 0 -1 -270.96 -122.07)"
       y1="-167.53"
       x1="206.69">
      <stop
         id="stop3506"
         stop-color="#7e9ec4"
         offset="0" />
      <stop
         id="stop3508"
         stop-color="#151d89"
         offset="1" />
    </linearGradient>
    <linearGradient
       id="linearGradient3182"
       y2="-167.53"
       xlink:href="#SVGID_14_"
       gradientUnits="userSpaceOnUse"
       x2="206.69"
       gradientTransform="matrix(.72832 0 0 -.72832 -375.83 -107.58)"
       y1="-167.53"
       x1="206.69" />
    <linearGradient
       id="linearGradient4829">
      <stop
         style="stop-color:#f4fbfc;stop-opacity:1;"
         offset="0"
         id="stop4831" />
      <stop
         style="stop-color:#d6d6d6;stop-opacity:1;"
         offset="1"
         id="stop4833" />
    </linearGradient>
    <linearGradient
       inkscape:collect="always"
       xlink:href="#linearGradient3361"
       id="linearGradient3954"
       x1="24.017662"
       y1="42.534904"
       x2="24.16148"
       y2="5.717411"
       gradientUnits="userSpaceOnUse"
       gradientTransform="matrix(0.99142849,0,0,0.99142849,0.02571462,0.02571365)" />
    <linearGradient
       inkscape:collect="always"
       id="linearGradient3361">
      <stop
         style="stop-color:#0068e0;stop-opacity:1;"
         offset="0"
         id="stop3363" />
      <stop
         style="stop-color:#00acf4;stop-opacity:1"
         offset="1"
         id="stop3365" />
    </linearGradient>
    <radialGradient
       id="radialGradient3032-5"
       gradientUnits="userSpaceOnUse"
       cy="3.99"
       cx="23.896"
       gradientTransform="matrix(0,2.8885,-3.8128,0,39.213,-65.95)"
       r="20.396999">
      <stop
         id="stop3244-9-33-7-0-9-3"
         stop-color="#fff"
         offset="0" />
      <stop
         id="stop3246-3-5-0-8-5-5"
         stop-color="#ddd"
         offset=".26238" />
      <stop
         id="stop3248-1-7-8-8-1-6"
         stop-color="#abacae"
         offset=".66094" />
      <stop
         id="stop3250-9-3-0-5-1-2"
         stop-color="#89898b"
         offset="1" />
    </radialGradient>
    <radialGradient
       id="radialGradient3035-9"
       gradientUnits="userSpaceOnUse"
       cy="186.17"
       cx="99.156998"
       gradientTransform="matrix(0.27083,0,0,0.087623,-92.09765,4.9662277)"
       r="62.769001">
      <stop
         id="stop3822-2-6-3-1"
         stop-color="#3d3d3d"
         offset="0" />
      <stop
         id="stop3864-8-7-7-2"
         stop-color="#686868"
         stop-opacity=".49804"
         offset=".5" />
      <stop
         id="stop3824-1-2-5-7"
         stop-color="#686868"
         stop-opacity="0"
         offset="1" />
    </radialGradient>
  </defs>
  <metadata
     id="metadata4066">
    <rdf:RDF>
      <cc:Work
         rdf:about="">
        <dc:format>image/svg+xml</dc:format>
        <dc:type
           rdf:resource="http://purl.org/dc/dcmitype/StillImage" />
        <dc:title />
      </cc:Work>
    </rdf:RDF>
  </metadata>
  <g
     id="layer2"
     display="none"
     transform="translate(-226.12 -28.077)">
    <rect
       id="rect3745"
       opacity=".9"
       rx="6"
       ry="6"
       height="85"
       filter="url(#filter3174)"
       width="86"
       y="7"
       x="5"
       fill="url(#ButtonShadow)" />
  </g>
  <path
     style="fill:url(#radialGradient3035);stroke-width:0.99211049"
     inkscape:connector-curvature="0"
     id="path3818-0-5"
     d="m 40.731756,42.543392 a 16.865878,5.4566078 0 0 1 -33.731756,0 16.865878,5.4566078 0 1 1 33.731756,0 z" />
  <path
     inkscape:connector-curvature="0"
     id="path2555-7-2"
     style="color:#000000;fill:url(#radialGradient3032);stroke-width:0.98360658"
     d="m 24.000001,3.8359664 c -11.125575,0 -20.1639354,9.0383616 -20.1639354,20.1639346 0,11.125575 9.0383604,20.163935 20.1639354,20.163935 11.125573,0 20.163933,-9.03836 20.163933,-20.163935 0,-11.125573 -9.03836,-20.1639346 -20.163933,-20.1639346 z" />
  <path
     inkscape:connector-curvature="0"
     id="path2555-7-65"
     style="color:#000000;fill:url(#linearGradient3954);fill-opacity:1.0;stroke-width:0.98360658"
     d="m 24.000001,3.8359664 c -11.125575,0 -20.1639354,9.0383616 -20.1639354,20.1639346 0,11.125575 9.0383604,20.163935 20.1639354,20.163935 11.125573,0 20.163933,-9.03836 20.163933,-20.163935 0,-11.125573 -9.03836,-20.1639346 -20.163933,-20.1639346 z" />
  <path
     inkscape:connector-curvature="0"
     id="path4176"
     style="color:#000000;opacity:0.5;fill:none;stroke:url(#linearGradient3026);stroke-width:0.98360658;stroke-linecap:round;stroke-linejoin:round"
     d="m 43.180328,23.999901 c 0,10.593443 -8.586886,19.180329 -19.180327,19.180329 -10.593443,0 -19.1803288,-8.586886 -19.1803288,-19.180329 0,-10.593443 8.5868858,-19.1803281 19.1803288,-19.1803281 10.593441,0 19.180327,8.5868851 19.180327,19.1803281 z" />
  <path
     inkscape:connector-curvature="0"
     id="path2555-7-1-7"
     style="color:#000000;opacity:1;fill:none;stroke:#ffffff;stroke-width:1.67213118;stroke-linecap:round;stroke-linejoin:round;stroke-miterlimit:4;stroke-dasharray:none;stroke-opacity:1"
     d="M 24.000001,3.8360647 C 12.874426,3.8360647 3.8360656,12.874229 3.8360656,24 c 0,11.125771 9.0381644,20.163934 20.1639354,20.163934 11.12577,0 20.163933,-9.038163 20.163933,-20.163934 0,-11.125771 -9.03836,-20.1639353 -20.163933,-20.1639353 z" />
  <g
     id="g3961"
     transform="matrix(0.92664093,0,0,0.92664093,116.72496,53.021165)"
     style="fill:#ffffff">
    <path
       style="fill:#ffffff;stroke-width:0.21568604"
       id="path11"
       d="m -98.445975,-28.20978 h -14.450965 c -1.01372,0 -1.83333,0.819607 -1.83333,1.833331 0,1.013725 0.81961,1.833332 1.83333,1.833332 h 16.650962 c 0,0 0.862745,-0.862744 -0.06471,-2.264704 -0.949019,-1.401959 -2.135292,-1.401959 -2.135292,-1.401959 z"
       class="st1"
       inkscape:connector-curvature="0" />
    <path
       style="fill:#ffffff;stroke-width:0.21568604"
       id="path13"
       d="m -99.179308,-43.631331 -8.972542,15.529394 c -0.49607,0.884313 -0.21568,2.00588 0.66863,2.501958 v 0 c 0.88431,0.496078 2.00588,0.215686 2.50196,-0.668627 L -96.008723,-41.798 c 0.496078,-0.884313 0.215686,-2.00588 -0.668627,-2.501958 v 0 c -0.884312,-0.517646 -2.00588,-0.215686 -2.501958,0.668627 z"
       class="st1"
       inkscape:connector-curvature="0" />
    <path
       style="fill:#ffffff;stroke-width:0.21568604"
       id="path15"
       d="m -88.200889,-21.437238 -9.209793,-15.982335 c 0,0 -1.337254,1.035293 -1.337254,3.08431 0,2.049017 0.841176,3.429408 0.841176,3.429408 l 6.535287,11.323516 c 0.496078,0.884313 1.617645,1.186274 2.501958,0.668627 v 0 c 0.862744,-0.517646 1.164704,-1.639214 0.668626,-2.523526 z"
       class="st1"
       inkscape:connector-curvature="0" />
    <path
       style="fill:#ffffff;stroke-width:0.21568604"
       id="path17"
       d="m -87.273439,-28.20978 h -5.111759 c -1.013724,0 -1.833331,0.819607 -1.833331,1.833331 v 0 c 0,1.013725 0.819607,1.833332 1.833331,1.833332 h 5.111759 c 1.013725,0 1.833332,-0.819607 1.833332,-1.833332 v 0 c 0,-0.992155 -0.819607,-1.833331 -1.833332,-1.833331 z"
       class="st1"
       inkscape:connector-curvature="0" />
    <path
       style="fill:#ffffff;stroke-width:0.21568604"
       id="path19"
       d="m -99.071465,-40.266629 -1.941175,-3.386271 c -0.49608,-0.862744 -1.63921,-1.164704 -2.50196,-0.668627 v 0 c -0.86274,0.496078 -1.1647,1.639214 -0.66862,2.501958 l 1.94117,3.386271 c 0.49608,0.862744 1.63921,1.164705 2.501959,0.668627 v 0 c 0.862744,-0.496078 1.164704,-1.617645 0.668626,-2.501958 z"
       class="st1"
       inkscape:connector-curvature="0" />
    <path
       style="fill:#ffffff;stroke-width:0.21568604"
       id="path21"
       d="m -111.99106,-21.458807 1.16471,-2.00588 c 0,0 0.28039,-0.560784 1.38039,-0.560784 1.1647,0 2.28627,0.970587 2.37254,1.337254 l -1.74705,3.062741 c -0.49608,0.884313 -1.61765,1.186273 -2.50196,0.668627 v 0 c -0.88431,-0.496078 -1.16471,-1.617645 -0.66863,-2.501958 z"
       class="st1"
       inkscape:connector-curvature="0" />
  </g>
</svg>
