<?xml version="1.0" encoding="UTF-8" standalone="no"?>
<!-- Generator: flash2svg, http://dissentgraphics.com/tools/flash2svg -->

<svg
   xmlns:dc="http://purl.org/dc/elements/1.1/"
   xmlns:cc="http://creativecommons.org/ns#"
   xmlns:rdf="http://www.w3.org/1999/02/22-rdf-syntax-ns#"
   xmlns:svg="http://www.w3.org/2000/svg"
   xmlns="http://www.w3.org/2000/svg"
   xmlns:xlink="http://www.w3.org/1999/xlink"
   xmlns:sodipodi="http://sodipodi.sourceforge.net/DTD/sodipodi-0.dtd"
   xmlns:inkscape="http://www.inkscape.org/namespaces/inkscape"
   id="Gimp"
   image-rendering="optimizeSpeed"
   version="1.1"
   style="background-color:#ffffff"
   x="0px"
   y="0px"
   width="1024px"
   height="1024px"
   viewBox="0 0 1024 1024"
   enable-background="new 0 0 1024 1024"
   sodipodi:docname="telegram.svg"
   inkscape:version="0.92.2 2405546, 2018-03-11">
  <metadata
     id="metadata58">
    <rdf:RDF>
      <cc:Work
         rdf:about="">
        <dc:format>image/svg+xml</dc:format>
        <dc:type
           rdf:resource="http://purl.org/dc/dcmitype/StillImage" />
        <dc:title />
      </cc:Work>
    </rdf:RDF>
  </metadata>
  <sodipodi:namedview
     pagecolor="#ffffff"
     bordercolor="#666666"
     borderopacity="1"
     objecttolerance="10"
     gridtolerance="10"
     guidetolerance="10"
     inkscape:pageopacity="0"
     inkscape:pageshadow="2"
     inkscape:window-width="1366"
     inkscape:window-height="745"
     id="namedview56"
     showgrid="true"
     inkscape:zoom="0.55175781"
     inkscape:cx="239.2354"
     inkscape:cy="512"
     inkscape:window-x="0"
     inkscape:window-y="23"
     inkscape:window-maximized="1"
     inkscape:current-layer="Gimp"
     inkscape:pagecheckerboard="true">
    <inkscape:grid
       type="xygrid"
       id="grid868" />
  </sodipodi:namedview>
  <defs
     transform="matrix(1 0 0 1 0 0) "
     id="defs2">
    <linearGradient
       inkscape:collect="always"
       id="linearGradient963">
      <stop
         style="stop-color:#6bc3e9;stop-opacity:1"
         offset="0"
         id="stop959" />
      <stop
         style="stop-color:#1a7fd4;stop-opacity:1"
         offset="1"
         id="stop961" />
    </linearGradient>
    <linearGradient
       gradientTransform="translate(270.3508)"
       gradientUnits="userSpaceOnUse"
       id="b"
       x1="122.16791"
       y1="-9.6918192"
       x2="122.16791"
       y2="254.88385">
      <stop
         style="stop-color:#6bc3e9;stop-opacity:1"
         stop-color="#37aee2"
         offset="0"
         id="stop952" />
      <stop
         style="stop-color:#187ca6;stop-opacity:1"
         stop-color="#1e96c8"
         offset="1"
         id="stop954" />
    </linearGradient>
    <linearGradient
       inkscape:collect="always"
       id="linearGradient871">
      <stop
         style="stop-color:#ffffff;stop-opacity:1"
         offset="0"
         id="stop867" />
      <stop
         style="stop-color:#d7d7d7;stop-opacity:1"
         offset="1"
         id="stop869" />
    </linearGradient>
    <linearGradient
       inkscape:collect="always"
       xlink:href="#linearGradient871"
       id="linearGradient873"
       x1="540.1098"
       y1="2.0078433"
       x2="520.03137"
       y2="1026.0078"
       gradientUnits="userSpaceOnUse" />
    <linearGradient
       y2="254.88385"
       x2="122.16791"
       y1="-9.6918192"
       x1="122.16791"
       id="b-3"
       gradientUnits="userSpaceOnUse"
       gradientTransform="translate(270.3508)">
      <stop
         id="stop842"
         offset="0"
         stop-color="#37aee2"
         style="stop-color:#6bc3e9;stop-opacity:1" />
      <stop
         id="stop844"
         offset="1"
         stop-color="#1e96c8"
         style="stop-color:#187ca6;stop-opacity:1" />
    </linearGradient>
    <linearGradient
       y2="174.70814"
       x2="146.52715"
       y1="131.02764"
       x1="123.64119"
       id="w"
       gradientTransform="matrix(3.7775202,0,0,3.1683607,99.411765,94.294125)"
       gradientUnits="userSpaceOnUse">
      <stop
         id="stop847"
         offset="0"
         stop-color="#eff7fc" />
      <stop
         id="stop849"
         offset="1"
         stop-color="#fff" />
    </linearGradient>
    <filter
       inkscape:collect="always"
       style="color-interpolation-filters:sRGB"
       id="filter909"
       x="-0.033097336"
       width="1.0661947"
       y="-0.03946074"
       height="1.0789215">
      <feGaussianBlur
         inkscape:collect="always"
         stdDeviation="1.7995675"
         id="feGaussianBlur911" />
    </filter>
    <linearGradient
       inkscape:collect="always"
       xlink:href="#linearGradient963"
       id="linearGradient965"
       x1="520"
       y1="4"
       x2="520"
       y2="1024"
       gradientUnits="userSpaceOnUse"
       gradientTransform="matrix(0.88235294,0,0,0.88235294,63.235294,57.235295)" />
  </defs>
  <g
     id="shadow"
     transform="matrix(0.87890625,0,0,0.87890625,65,59)">
    <g
       id="shape">
      <path
         id="path"
         d="m 986.739,315.98644 q -9.3288,-22.61695 -21.0441,-44.31186 c -4.3932,-8.18983 -9.0576,-16.32543 -13.9932,-24.29831 C 930.49492,212.98983 904.62373,180.50169 874.08814,149.9661 774.12881,50.00678 653.39661,0 512,0 370.60339,0 249.92542,50.00678 149.9661,149.9661 50.00678,249.92542 0,370.60339 0,512 0,653.39661 50.00678,774.12881 149.9661,874.08814 249.92542,974.04746 370.60339,1024 512,1024 653.39661,1024 774.12881,974.04746 874.08814,874.08814 929.13898,818.98305 969.0576,757.58644 993.7898,689.95254 1013.9119,634.79322 1024,575.51186 1024,512 c 0,-48.70508 -5.9119,-94.96949 -17.7898,-138.79322 -1.356,-4.93559 -2.7661,-9.87119 -4.2305,-14.75254 -4.4475,-14.42712 -9.5458,-28.58305 -15.2407,-42.4678 z"
         style="fill:url(#linearGradient873);fill-opacity:1;stroke-width:1.08474576"
         inkscape:connector-curvature="0" />
    </g>
  </g>
  <circle
     style="opacity:1;fill:url(#linearGradient965);fill-opacity:1;stroke:none;stroke-width:103.78676605;stroke-linecap:square;stroke-linejoin:miter;stroke-miterlimit:4;stroke-dasharray:none;stroke-opacity:1;paint-order:stroke markers fill"
     id="path957"
     cx="514.55884"
     cy="509.44116"
     r="415.14706" />
  <g
     transform="matrix(3.4595588,0,0,3.4595588,99.411765,103.11765)"
     style="opacity:0.2;fill:#000000;fill-opacity:1;filter:url(#filter909)"
     id="g891">
    <path
       style="fill:#000000;fill-opacity:1"
       inkscape:connector-curvature="0"
       d="m 98,175 c -3.8876,0 -3.227,-1.4679 -4.5678,-5.1695 L 82,132.2059 170,80"
       id="path882" />
    <path
       style="fill:#000000;fill-opacity:1"
       inkscape:connector-curvature="0"
       d="m 98,175 c 3,0 4.3255,-1.372 6,-3 l 16,-15.558 -19.958,-12.035"
       id="path884" />
    <path
       style="fill:#000000;fill-opacity:1"
       inkscape:connector-curvature="0"
       d="m 100.04,144.41 48.36,35.729 c 5.5185,3.0449 9.5014,1.4684 10.876,-5.1235 l 19.685,-92.763 c 2.0154,-8.0802 -3.0801,-11.745 -8.3594,-9.3482 l -115.59,44.571 c -7.8901,3.1647 -7.8441,7.5666 -1.4382,9.528 l 29.663,9.2583 68.673,-43.325 c 3.2419,-1.9659 6.2173,-0.90899 3.7752,1.2584"
       id="path886" />
  </g>
  <path
     style="fill:#c8daea;stroke-width:3.45955896"
     inkscape:connector-curvature="0"
     d="m 438.44852,699.71692 c -13.44938,0 -11.16399,-5.0783 -15.80257,-17.88419 L 383.09559,551.66821 687.53676,371.05883"
     id="path856" />
  <path
     style="fill:#a9c9dd;stroke-width:3.45955896"
     inkscape:connector-curvature="0"
     d="m 438.44852,699.71692 c 10.37868,0 14.96433,-4.74652 20.75736,-10.37868 l 55.35294,-53.82382 -69.04588,-41.63579"
     id="path858" />
  <path
     style="fill:url(#w);stroke-width:3.45955896"
     inkscape:connector-curvature="0"
     d="m 445.50602,593.88901 167.30427,123.60658 c 19.09157,10.534 32.87065,5.08001 37.62616,-17.72505 l 68.10142,-320.91905 c 6.97239,-27.95393 -10.65579,-40.63253 -28.91984,-32.34065 l -399.8904,154.196 c -27.29626,10.94846 -27.13713,26.17709 -4.97554,32.96267 l 102.6209,32.02963 237.57827,-149.88539 c 11.21555,-6.80114 21.50912,-3.14469 13.06053,4.35351"
     id="path860" />
</svg>
