<?xml version="1.0" encoding="UTF-8" standalone="no"?>
<!-- Generator: flash2svg, http://dissentgraphics.com/tools/flash2svg -->

<svg
   xmlns:dc="http://purl.org/dc/elements/1.1/"
   xmlns:cc="http://creativecommons.org/ns#"
   xmlns:rdf="http://www.w3.org/1999/02/22-rdf-syntax-ns#"
   xmlns:svg="http://www.w3.org/2000/svg"
   xmlns="http://www.w3.org/2000/svg"
   xmlns:xlink="http://www.w3.org/1999/xlink"
   xmlns:sodipodi="http://sodipodi.sourceforge.net/DTD/sodipodi-0.dtd"
   xmlns:inkscape="http://www.inkscape.org/namespaces/inkscape"
   id="SimpleNote"
   image-rendering="optimizeSpeed"
   version="1.1"
   style="background-color:#ffffff"
   x="0px"
   y="0px"
   width="1024px"
   height="1024px"
   viewBox="0 0 1024 1024"
   enable-background="new 0 0 1024 1024"
   sodipodi:docname="text-editor.svg"
   inkscape:version="0.92.2 2405546, 2018-03-11">
  <metadata
     id="metadata42">
    <rdf:RDF>
      <cc:Work
         rdf:about="">
        <dc:format>image/svg+xml</dc:format>
        <dc:type
           rdf:resource="http://purl.org/dc/dcmitype/StillImage" />
        <dc:title />
      </cc:Work>
    </rdf:RDF>
  </metadata>
  <sodipodi:namedview
     pagecolor="#ffffff"
     bordercolor="#666666"
     borderopacity="1"
     objecttolerance="10"
     gridtolerance="10"
     guidetolerance="10"
     inkscape:pageopacity="0"
     inkscape:pageshadow="2"
     inkscape:window-width="1366"
     inkscape:window-height="745"
     id="namedview40"
     showgrid="true"
     inkscape:pagecheckerboard="true"
     inkscape:zoom="0.61914062"
     inkscape:cx="517.56311"
     inkscape:cy="487.61111"
     inkscape:window-x="0"
     inkscape:window-y="23"
     inkscape:window-maximized="1"
     inkscape:current-layer="shape2">
    <inkscape:grid
       type="xygrid"
       id="grid857" />
  </sodipodi:namedview>
  <defs
     transform="matrix(1 0 0 1 0 0) "
     id="defs2">
    <linearGradient
       inkscape:collect="always"
       id="linearGradient911">
      <stop
         style="stop-color:#ffffff;stop-opacity:1;"
         offset="0"
         id="stop907" />
      <stop
         style="stop-color:#d7d7d7;stop-opacity:1"
         offset="1"
         id="stop909" />
    </linearGradient>
    <linearGradient
       id="linearGradient873"
       inkscape:collect="always">
      <stop
         id="stop869"
         offset="0"
         style="stop-color:#ffda64;stop-opacity:1" />
      <stop
         style="stop-color:#f22c42;stop-opacity:1"
         offset="0.40697676"
         id="stop905" />
      <stop
         id="stop871"
         offset="1"
         style="stop-color:#7839b7;stop-opacity:1" />
    </linearGradient>
    <linearGradient
       inkscape:collect="always"
       id="linearGradient853">
      <stop
         style="stop-color:#ffffff;stop-opacity:1;"
         offset="0"
         id="stop849" />
      <stop
         style="stop-color:#d7d7d7;stop-opacity:1"
         offset="1"
         id="stop851" />
    </linearGradient>
    <linearGradient
       inkscape:collect="always"
       xlink:href="#linearGradient853"
       id="linearGradient855"
       x1="520"
       y1="4"
       x2="519.31427"
       y2="1024"
       gradientUnits="userSpaceOnUse" />
    <linearGradient
       inkscape:collect="always"
       xlink:href="#linearGradient911"
       id="linearGradient995"
       x1="218.7718"
       y1="-271.72171"
       x2="218.7718"
       y2="766.82446"
       gradientUnits="userSpaceOnUse"
       gradientTransform="translate(21.416997,-7.0038593)" />
    <filter
       inkscape:collect="always"
       style="color-interpolation-filters:sRGB"
       id="filter1015"
       x="-0.03599975"
       width="1.0719995"
       y="-0.03600025"
       height="1.0720005">
      <feGaussianBlur
         inkscape:collect="always"
         stdDeviation="7.2782306"
         id="feGaussianBlur1017" />
    </filter>
    <linearGradient
       inkscape:collect="always"
       xlink:href="#linearGradient873"
       id="linearGradient854"
       gradientUnits="userSpaceOnUse"
       gradientTransform="matrix(0.88299803,0,0,0.88299803,63.221616,56.500068)"
       x1="519.6803"
       y1="-37.301823"
       x2="539.74402"
       y2="1547.7355" />
  </defs>
  <g
     id="shadow"
     transform="matrix(0.87890625,0,0,0.87890625,65,59)">
    <g
       id="shape">
      <path
         id="path"
         d="m 986.739,315.98644 q -9.3288,-22.61695 -21.0441,-44.31186 c -4.3932,-8.18983 -9.0576,-16.32543 -13.9932,-24.29831 C 930.49492,212.98983 904.62373,180.50169 874.08814,149.9661 774.12881,50.00678 653.39661,0 512,0 370.60339,0 249.92542,50.00678 149.9661,149.9661 50.00678,249.92542 0,370.60339 0,512 0,653.39661 50.00678,774.12881 149.9661,874.08814 249.92542,974.04746 370.60339,1024 512,1024 653.39661,1024 774.12881,974.04746 874.08814,874.08814 929.13898,818.98305 969.0576,757.58644 993.7898,689.95254 1013.9119,634.79322 1024,575.51186 1024,512 c 0,-48.70508 -5.9119,-94.96949 -17.7898,-138.79322 -1.356,-4.93559 -2.7661,-9.87119 -4.2305,-14.75254 -4.4475,-14.42712 -9.5458,-28.58305 -15.2407,-42.4678 z"
         style="fill:url(#linearGradient855);fill-opacity:1;stroke-width:1.08474576"
         inkscape:connector-curvature="0" />
    </g>
  </g>
  <g
     id="bg"
     transform="matrix(0.99609375,0,0,0.99609375,2,2)">
    <g
       id="shape2">
      <path
         inkscape:connector-curvature="0"
         style="fill:url(#linearGradient854);fill-opacity:1;stroke-width:0.88299805"
         d="m 919.50895,402.67946 c -0.9713,-3.84105 -2.07503,-7.94699 -3.22288,-12.00878 -0.88306,-3.00219 -1.76603,-6.04854 -2.78145,-9.27148 -1.41282,-4.54744 -3.0022,-9.27148 -4.67991,-13.99552 -5.69532,-16.11472 -12.49438,-31.83208 -20.4414,-47.37285 -3.35539,-6.53418 -7.01984,-13.20082 -10.86088,-19.77915 -17.92486,-30.46343 -40.44131,-59.33747 -67.4169,-86.31307 C 745.99987,149.83296 671.34238,110.9369 586.13307,97.338726 c -14.34872,-2.295795 -28.96234,-3.885191 -44.19405,-4.72404 -8.56508,-0.485649 -17.52751,-0.750548 -26.57824,-0.750548 -8.25603,0 -16.42376,0.22075 -24.63565,0.662249 C 386.22231,97.912675 296.20066,138.39814 220.66017,213.93861 Q 98.585692,336.0131 98.585692,508.63922 c 0,115.0988 40.706208,213.37648 122.074478,294.74476 50.06599,50.02184 106.44542,84.67951 168.74093,103.79642 32.45018,9.93373 66.04826,15.76151 101.32403,17.61581 0.13245,0 0.22075,0 0.3532,0 7.50548,0.39735 14.65777,0.6181 21.63345,0.6181 1.0596,0 1.8543,0 2.649,0 9.09488,0 18.10145,-0.2649 26.57824,-0.7064 2.20749,-0.13245 4.19424,-0.2649 6.13683,-0.39735 17.83656,-1.28034 35.23163,-3.57615 51.83199,-6.79908 7.01983,-1.36865 13.95137,-2.9139 20.66216,-4.54745 71.34624,-17.92485 134.34815,-54.39268 189.53553,-109.58005 42.9137,-42.91371 74.52504,-90.50731 94.7898,-142.86909 16.29132,-42.07486 25.29794,-87.24021 26.97565,-135.5402 0.17656,-5.34215 0.26488,-10.81673 0.26488,-16.33547 0,-0.57394 0,-1.19205 0,-1.76599 0,-0.30906 0,-0.57396 0,-0.883 -0.17656,-35.89387 -4.37082,-70.19835 -12.62691,-103.31077 z"
         id="path852" />
      <g
         id="g987"
         transform="matrix(0.86999449,0,0,0.86999449,295.41907,301.48485)">
        <g
           id="g931">
          <path
             style="opacity:0.2;fill:#000000;fill-opacity:1;filter:url(#filter1015)"
             inkscape:connector-curvature="0"
             d="m 488.893,148.91109 -21.445,21.455 -128.681,-128.662994 21.445,-21.457 c 23.689,-23.6920023 62.104,-23.6920023 85.795,0 l 42.886,42.897 c 23.657,23.679 23.657,62.077994 0,85.767994 z m -300.243,257.31 c -5.922,5.922 -5.922,15.513 0,21.436 5.925,5.955 15.521,5.955 21.443,0 l 235.914,-235.849 -21.469,-21.457 z M 81.416997,299.01309 c -5.925,5.927 -5.925,15.514 0,21.44 5.922,5.923 15.518,5.923 21.443003,0 l 235.907,-235.866994 -21.436,-21.443 z m 278.767003,-193 -235.886,235.881 c -11.845,11.822 -11.815,31.041 0,42.886 11.85,11.846 31.038,11.901 42.914,-0.032 l 235.886,-235.837 z m -193.033,343.032 c -7.253,-7.262 -10.749,-16.465 -12.05,-25.948 -3.083,0.476 -6.188,0.919 -9.36,0.919 -16.202,0 -31.419,-6.333 -42.881,-17.795 -11.462003,-11.491 -17.770003,-26.687 -17.770003,-42.887 0,-2.954 0.443,-5.833 0.859,-8.703 -9.803,-1.335 -18.864,-5.629 -25.972,-12.737 -0.682,-0.677 -0.917,-1.596 -1.538,-2.338 l -37.022,148.133 147.748003,-36.986 c -0.651,-0.593 -1.388,-1.037 -2.014,-1.658 z"
             id="path997" />
          <path
             id="path929"
             d="m 488.893,139.43414 -21.445,21.455 -128.681,-128.662999 21.445,-21.457 c 23.689,-23.692 62.104,-23.692 85.795,0 l 42.886,42.897 c 23.657,23.679 23.657,62.077999 0,85.767999 z m -300.243,257.31 c -5.922,5.922 -5.922,15.513 0,21.436 5.925,5.955 15.521,5.955 21.443,0 l 235.914,-235.849 -21.469,-21.457 z M 81.416997,289.53614 c -5.925,5.927 -5.925,15.514 0,21.44 5.922,5.923 15.518,5.923 21.443003,0 L 338.767,75.109141 317.331,53.666141 Z M 360.184,96.536141 124.298,332.41714 c -11.845,11.822 -11.815,31.041 0,42.886 11.85,11.846 31.038,11.901 42.914,-0.032 l 235.886,-235.837 z M 167.151,439.56814 c -7.253,-7.262 -10.749,-16.465 -12.05,-25.948 -3.083,0.476 -6.188,0.919 -9.36,0.919 -16.202,0 -31.419,-6.333 -42.881,-17.795 -11.462003,-11.491 -17.770003,-26.687 -17.770003,-42.887 0,-2.954 0.443,-5.833 0.859,-8.703 -9.803,-1.335 -18.864,-5.629 -25.972,-12.737 -0.682,-0.677 -0.917,-1.596 -1.538,-2.338 l -37.022,148.133 147.748003,-36.986 c -0.651,-0.593 -1.388,-1.037 -2.014,-1.658 z"
             inkscape:connector-curvature="0"
             style="fill:url(#linearGradient995);fill-opacity:1" />
        </g>
        <g
           id="g933" />
        <g
           id="g935" />
        <g
           id="g937" />
        <g
           id="g939" />
        <g
           id="g941" />
        <g
           id="g943" />
        <g
           id="g945" />
        <g
           id="g947" />
        <g
           id="g949" />
        <g
           id="g951" />
        <g
           id="g953" />
        <g
           id="g955" />
        <g
           id="g957" />
        <g
           id="g959" />
        <g
           id="g961" />
      </g>
    </g>
  </g>
</svg>
