<?xml version="1.0" encoding="UTF-8" standalone="no"?>
<!-- Generator: flash2svg, http://dissentgraphics.com/tools/flash2svg -->

<svg
   xmlns:dc="http://purl.org/dc/elements/1.1/"
   xmlns:cc="http://creativecommons.org/ns#"
   xmlns:rdf="http://www.w3.org/1999/02/22-rdf-syntax-ns#"
   xmlns:svg="http://www.w3.org/2000/svg"
   xmlns="http://www.w3.org/2000/svg"
   xmlns:xlink="http://www.w3.org/1999/xlink"
   xmlns:sodipodi="http://sodipodi.sourceforge.net/DTD/sodipodi-0.dtd"
   xmlns:inkscape="http://www.inkscape.org/namespaces/inkscape"
   id="SimpleNote"
   image-rendering="optimizeSpeed"
   version="1.1"
   style="background-color:#ffffff"
   x="0px"
   y="0px"
   width="1024px"
   height="1024px"
   viewBox="0 0 1024 1024"
   enable-background="new 0 0 1024 1024"
   sodipodi:docname="text-editor-alternative.svg"
   inkscape:version="0.92.2 2405546, 2018-03-11">
  <metadata
     id="metadata42">
    <rdf:RDF>
      <cc:Work
         rdf:about="">
        <dc:format>image/svg+xml</dc:format>
        <dc:type
           rdf:resource="http://purl.org/dc/dcmitype/StillImage" />
        <dc:title />
      </cc:Work>
    </rdf:RDF>
  </metadata>
  <sodipodi:namedview
     pagecolor="#ffffff"
     bordercolor="#666666"
     borderopacity="1"
     objecttolerance="10"
     gridtolerance="10"
     guidetolerance="10"
     inkscape:pageopacity="0"
     inkscape:pageshadow="2"
     inkscape:window-width="1366"
     inkscape:window-height="745"
     id="namedview40"
     showgrid="true"
     inkscape:pagecheckerboard="true"
     inkscape:zoom="0.54394531"
     inkscape:cx="235.31777"
     inkscape:cy="512"
     inkscape:window-x="0"
     inkscape:window-y="23"
     inkscape:window-maximized="1"
     inkscape:current-layer="g931">
    <inkscape:grid
       type="xygrid"
       id="grid857" />
  </sodipodi:namedview>
  <defs
     transform="matrix(1 0 0 1 0 0) "
     id="defs2">
    <linearGradient
       inkscape:collect="always"
       id="linearGradient911">
      <stop
         style="stop-color:#e97cc8;stop-opacity:1"
         offset="0"
         id="stop907" />
      <stop
         style="stop-color:#7839b7;stop-opacity:1"
         offset="1"
         id="stop909" />
    </linearGradient>
    <linearGradient
       id="linearGradient873"
       inkscape:collect="always">
      <stop
         id="stop869"
         offset="0"
         style="stop-color:#cdcdcd;stop-opacity:1" />
      <stop
         style="stop-color:#faf8f6;stop-opacity:1"
         offset="0.5"
         id="stop905" />
      <stop
         id="stop871"
         offset="1"
         style="stop-color:#f1f0e9;stop-opacity:1" />
    </linearGradient>
    <linearGradient
       inkscape:collect="always"
       id="linearGradient853">
      <stop
         style="stop-color:#ffffff;stop-opacity:1;"
         offset="0"
         id="stop849" />
      <stop
         style="stop-color:#d7d7d7;stop-opacity:1"
         offset="1"
         id="stop851" />
    </linearGradient>
    <linearGradient
       inkscape:collect="always"
       xlink:href="#linearGradient853"
       id="linearGradient855"
       x1="520"
       y1="4"
       x2="519.31427"
       y2="1024"
       gradientUnits="userSpaceOnUse" />
    <linearGradient
       inkscape:collect="always"
       xlink:href="#linearGradient873"
       id="linearGradient903"
       x1="1021.9921"
       y1="2.0078433"
       x2="-2.0078433"
       y2="1026.0078"
       gradientUnits="userSpaceOnUse"
       gradientTransform="matrix(0.88299803,0,0,0.88299803,63.221616,56.500068)" />
    <linearGradient
       inkscape:collect="always"
       xlink:href="#linearGradient911"
       id="linearGradient995"
       x1="748.22668"
       y1="-271.72171"
       x2="-290.31943"
       y2="766.82446"
       gradientUnits="userSpaceOnUse"
       gradientTransform="matrix(0.88235294,0,0,0.88235294,51.646838,18.825712)" />
    <filter
       inkscape:collect="always"
       style="color-interpolation-filters:sRGB"
       id="filter1015"
       x="-0.03599975"
       width="1.0719995"
       y="-0.03600025"
       height="1.0720005">
      <feGaussianBlur
         inkscape:collect="always"
         stdDeviation="7.2782306"
         id="feGaussianBlur1017" />
    </filter>
  </defs>
  <g
     id="shadow"
     transform="matrix(0.87890625,0,0,0.87890625,65,59)">
    <g
       id="shape">
      <path
         id="path"
         d="m 986.739,315.98644 q -9.3288,-22.61695 -21.0441,-44.31186 c -4.3932,-8.18983 -9.0576,-16.32543 -13.9932,-24.29831 C 930.49492,212.98983 904.62373,180.50169 874.08814,149.9661 774.12881,50.00678 653.39661,0 512,0 370.60339,0 249.92542,50.00678 149.9661,149.9661 50.00678,249.92542 0,370.60339 0,512 0,653.39661 50.00678,774.12881 149.9661,874.08814 249.92542,974.04746 370.60339,1024 512,1024 653.39661,1024 774.12881,974.04746 874.08814,874.08814 929.13898,818.98305 969.0576,757.58644 993.7898,689.95254 1013.9119,634.79322 1024,575.51186 1024,512 c 0,-48.70508 -5.9119,-94.96949 -17.7898,-138.79322 -1.356,-4.93559 -2.7661,-9.87119 -4.2305,-14.75254 -4.4475,-14.42712 -9.5458,-28.58305 -15.2407,-42.4678 z"
         style="fill:url(#linearGradient855);fill-opacity:1;stroke-width:1.08474576"
         inkscape:connector-curvature="0" />
    </g>
  </g>
  <g
     id="bg"
     transform="matrix(0.99609375,0,0,0.99609375,2,2)">
    <g
       id="shape2">
      <path
         id="path1"
         d="m 919.50895,402.67946 c -0.9713,-3.84105 -2.07503,-7.94699 -3.22288,-12.00878 -0.88306,-3.00219 -1.76603,-6.04854 -2.78145,-9.27148 -1.41282,-4.54744 -3.0022,-9.27148 -4.67991,-13.99552 -5.69532,-16.11472 -12.49438,-31.83208 -20.4414,-47.37285 -3.35539,-6.53418 -7.01984,-13.20082 -10.86088,-19.77915 -17.92486,-30.46343 -40.44131,-59.33747 -67.4169,-86.31307 C 745.99987,149.83296 671.34238,110.9369 586.13307,97.338726 c -14.34872,-2.295795 -28.96234,-3.885191 -44.19405,-4.72404 -8.56508,-0.485649 -17.52751,-0.750548 -26.57824,-0.750548 -8.25603,0 -16.42376,0.22075 -24.63565,0.662249 C 386.22231,97.912675 296.20066,138.39814 220.66017,213.93861 Q 98.585692,336.0131 98.585692,508.63922 c 0,115.0988 40.706208,213.37648 122.074478,294.74476 50.06599,50.02184 106.44542,84.67951 168.74093,103.79642 32.45018,9.93373 66.04826,15.76151 101.32403,17.61581 0.13245,0 0.22075,0 0.3532,0 7.50548,0.39735 14.65777,0.6181 21.63345,0.6181 1.0596,0 1.8543,0 2.649,0 9.09488,0 18.10145,-0.2649 26.57824,-0.7064 2.20749,-0.13245 4.19424,-0.2649 6.13683,-0.39735 17.83656,-1.28034 35.23163,-3.57615 51.83199,-6.79908 7.01983,-1.36865 13.95137,-2.9139 20.66216,-4.54745 71.34624,-17.92485 134.34815,-54.39268 189.53553,-109.58005 42.9137,-42.91371 74.52504,-90.50731 94.7898,-142.86909 16.29132,-42.07486 25.29794,-87.24021 26.97565,-135.5402 0.17656,-5.34215 0.26488,-10.81673 0.26488,-16.33547 0,-0.57394 0,-1.19205 0,-1.76599 0,-0.30906 0,-0.57396 0,-0.883 -0.17656,-35.89387 -4.37082,-70.19835 -12.62691,-103.31077 z"
         style="fill:url(#linearGradient903);fill-opacity:1;stroke-width:0.88299805"
         inkscape:connector-curvature="0" />
      <g
         id="g987"
         transform="matrix(0.98599375,0,0,0.98599375,263.12828,276.8295)">
        <g
           id="g931">
          <path
             style="opacity:0.2;fill:#000000;fill-opacity:1;filter:url(#filter1015)"
             inkscape:connector-curvature="0"
             d="m 553.0385,84.765593 -21.445,21.454997 -128.681,-128.662991 21.445,-21.457 c 23.689,-23.692002 62.104,-23.692002 85.795,0 l 42.886,42.8970003 c 23.657,23.6789997 23.657,62.0779937 0,85.7679937 z M 252.7955,342.07559 c -5.922,5.922 -5.922,15.513 0,21.436 5.925,5.955 15.521,5.955 21.443,0 l 235.914,-235.849 -21.469,-21.457 z m -107.23301,-107.208 c -5.925,5.927 -5.925,15.514 0,21.44 5.922,5.923 15.518,5.923 21.44301,0 L 402.9125,20.440599 381.4765,-1.0024007 Z M 424.3295,41.867593 188.4435,277.74859 c -11.845,11.822 -11.815,31.041 0,42.886 11.85,11.846 31.038,11.901 42.914,-0.032 L 467.2435,84.765593 Z M 231.2965,384.89959 c -7.253,-7.262 -10.749,-16.465 -12.05,-25.948 -3.083,0.476 -6.188,0.919 -9.36,0.919 -16.202,0 -31.419,-6.333 -42.881,-17.795 -11.46201,-11.491 -17.77001,-26.687 -17.77001,-42.887 0,-2.954 0.443,-5.833 0.859,-8.703 -9.803,-1.335 -18.864,-5.629 -25.972,-12.737 -0.682,-0.677 -0.917,-1.596 -1.538,-2.338 l -37.021996,148.133 147.748006,-36.986 c -0.651,-0.593 -1.388,-1.037 -2.014,-1.658 z"
             id="path997"
             transform="matrix(0.88235294,0,0,0.88235294,-23.84948,81.604555)" />
          <path
             id="path929"
             d="M 464.12567,148.03571 445.20361,166.96659 331.66155,53.440417 350.58361,34.50777 c 20.90206,-20.904705 54.79765,-20.904705 75.70147,0 l 37.84059,37.850295 c 20.87382,20.893235 20.87382,54.774705 0,75.677645 z m -264.9203,227.03823 c -5.22529,5.2253 -5.22529,13.68794 0,18.91412 5.22794,5.25441 13.695,5.25441 18.9203,0 L 426.28508,185.886 407.34184,166.95336 Z m -94.61736,-94.59529 c -5.22794,5.22971 -5.22794,13.68882 0,18.91765 5.2253,5.22617 13.69235,5.22617 18.9203,0 L 331.66155,91.278359 312.74743,72.358065 Z M 350.5589,110.18454 142.4242,318.31483 c -10.45147,10.43117 -10.425,27.38911 0,37.84058 10.45588,10.45236 27.38647,10.50089 37.86529,-0.0282 L 388.4242,148.03571 Z M 180.23567,412.85983 c -6.39971,-6.40765 -9.48441,-14.52795 -10.63236,-22.8953 -2.72029,0.42 -5.46,0.81088 -8.25882,0.81088 -14.29588,0 -27.72265,-5.58794 -37.83618,-15.70147 -10.11353,-10.13911 -15.67942,-23.54735 -15.67942,-37.84147 0,-2.60647 0.39089,-5.14676 0.75795,-7.67911 -8.649711,-1.17795 -16.644711,-4.96677 -22.916475,-11.23853 -0.601765,-0.59736 -0.809118,-1.40824 -1.357059,-2.06295 L 51.646839,446.95747 182.01273,414.32277 c -0.57442,-0.52324 -1.22471,-0.915 -1.77706,-1.46294 z"
             inkscape:connector-curvature="0"
             style="fill:url(#linearGradient995);fill-opacity:1;stroke-width:0.88235295" />
        </g>
        <g
           id="g933"
           transform="matrix(0.88235294,0,0,0.88235294,32.749488,25.005587)" />
        <g
           id="g935"
           transform="matrix(0.88235294,0,0,0.88235294,32.749488,25.005587)" />
        <g
           id="g937"
           transform="matrix(0.88235294,0,0,0.88235294,32.749488,25.005587)" />
        <g
           id="g939"
           transform="matrix(0.88235294,0,0,0.88235294,32.749488,25.005587)" />
        <g
           id="g941"
           transform="matrix(0.88235294,0,0,0.88235294,32.749488,25.005587)" />
        <g
           id="g943"
           transform="matrix(0.88235294,0,0,0.88235294,32.749488,25.005587)" />
        <g
           id="g945"
           transform="matrix(0.88235294,0,0,0.88235294,32.749488,25.005587)" />
        <g
           id="g947"
           transform="matrix(0.88235294,0,0,0.88235294,32.749488,25.005587)" />
        <g
           id="g949"
           transform="matrix(0.88235294,0,0,0.88235294,32.749488,25.005587)" />
        <g
           id="g951"
           transform="matrix(0.88235294,0,0,0.88235294,32.749488,25.005587)" />
        <g
           id="g953"
           transform="matrix(0.88235294,0,0,0.88235294,32.749488,25.005587)" />
        <g
           id="g955"
           transform="matrix(0.88235294,0,0,0.88235294,32.749488,25.005587)" />
        <g
           id="g957"
           transform="matrix(0.88235294,0,0,0.88235294,32.749488,25.005587)" />
        <g
           id="g959"
           transform="matrix(0.88235294,0,0,0.88235294,32.749488,25.005587)" />
        <g
           id="g961"
           transform="matrix(0.88235294,0,0,0.88235294,32.749488,25.005587)" />
      </g>
    </g>
  </g>
</svg>
