<?xml version="1.0" encoding="UTF-8" standalone="no"?>
<!-- Created with Inkscape (http://www.inkscape.org/) -->

<svg
   xmlns:dc="http://purl.org/dc/elements/1.1/"
   xmlns:cc="http://creativecommons.org/ns#"
   xmlns:rdf="http://www.w3.org/1999/02/22-rdf-syntax-ns#"
   xmlns:svg="http://www.w3.org/2000/svg"
   xmlns="http://www.w3.org/2000/svg"
   xmlns:xlink="http://www.w3.org/1999/xlink"
   xmlns:sodipodi="http://sodipodi.sourceforge.net/DTD/sodipodi-0.dtd"
   xmlns:inkscape="http://www.inkscape.org/namespaces/inkscape"
   id="svg4951"
   height="48px"
   width="48px"
   version="1.1"
   sodipodi:docname="gtk-theme-config.svg"
   inkscape:version="0.92.0 unknown">
  <sodipodi:namedview
     pagecolor="#ffffff"
     bordercolor="#666666"
     borderopacity="1"
     objecttolerance="10"
     gridtolerance="10"
     guidetolerance="10"
     inkscape:pageopacity="0"
     inkscape:pageshadow="2"
     inkscape:window-width="1250"
     inkscape:window-height="867"
     id="namedview32"
     showgrid="false"
     inkscape:zoom="4.9166667"
     inkscape:cx="26.685394"
     inkscape:cy="24"
     inkscape:window-x="1223"
     inkscape:window-y="170"
     inkscape:window-maximized="0"
     inkscape:current-layer="svg4951" />
  <defs
     id="defs4953">
    <linearGradient
       id="linearGradient3189"
       y2="40.496"
       gradientUnits="userSpaceOnUse"
       x2="71.204"
       gradientTransform="matrix(1.617,0,0,1.617,-92.707,-21.06)"
       y1="15.369"
       x1="71.204">
      <stop
         id="stop4808-4"
         stop-color="#fff"
         offset="0" />
      <stop
         id="stop4810-0"
         stop-color="#fff"
         stop-opacity=".23529"
         offset=".42448" />
      <stop
         id="stop4812-8"
         stop-color="#fff"
         stop-opacity=".15686"
         offset=".82090" />
      <stop
         id="stop4814-0"
         stop-color="#fff"
         stop-opacity=".39216"
         offset="1" />
    </linearGradient>
    <radialGradient
       id="radialGradient3195"
       gradientUnits="userSpaceOnUse"
       cy="186.17"
       cx="99.157"
       gradientTransform="matrix(0.27083,0,0,0.087623,-2.8551,25.187)"
       r="62.769">
      <stop
         id="stop3822-2-6-3"
         stop-color="#3d3d3d"
         offset="0" />
      <stop
         id="stop3864-8-7-7"
         stop-color="#686868"
         stop-opacity=".49804"
         offset=".5" />
      <stop
         id="stop3824-1-2-5"
         stop-color="#686868"
         stop-opacity="0"
         offset="1" />
    </radialGradient>
    <radialGradient
       id="radialGradient2864"
       gradientUnits="userSpaceOnUse"
       cy="10.834"
       cx="11.963"
       gradientTransform="matrix(4.1412,-0.035008,0.028363,3.3552,-25.849,-47.671)"
       r="4.6571">
      <stop
         id="stop6305-1-0-2"
         stop-color="#fff"
         offset="0" />
      <stop
         id="stop6307-5-0-6"
         stop-color="#fff"
         stop-opacity="0"
         offset="1" />
    </radialGradient>
    <radialGradient
       inkscape:collect="always"
       xlink:href="#linearGradient10691-3"
       id="radialGradient3877"
       gradientUnits="userSpaceOnUse"
       gradientTransform="matrix(1.6600963,0,0,0.36315008,0.8728521,2.6414479)"
       cx="6.702713"
       cy="73.615715"
       fx="6.702713"
       fy="73.615715"
       r="7.228416" />
    <linearGradient
       id="linearGradient10691-3">
      <stop
         offset="0"
         style="stop-color:#000000;stop-opacity:1"
         id="stop10693-2" />
      <stop
         offset="1"
         style="stop-color:#000000;stop-opacity:0"
         id="stop10695-6" />
    </linearGradient>
    <linearGradient
       y2="47.012184"
       x2="32.036148"
       y1="19"
       x1="32.036148"
       gradientTransform="matrix(0.77777782,0,0,0.77777782,-12.111112,-5.666669)"
       gradientUnits="userSpaceOnUse"
       id="linearGradient3614-2"
       xlink:href="#linearGradient3309-1"
       inkscape:collect="always" />
    <linearGradient
       gradientUnits="userSpaceOnUse"
       id="linearGradient3309-1"
       y2="122.8994"
       x2="63.9995"
       y1="3.1001"
       x1="63.9995">
      <stop
         offset="0"
         style="stop-color:#f6f6f6;stop-opacity:1"
         id="stop3311-5" />
      <stop
         offset="1"
         style="stop-color:#d2d2d2;stop-opacity:1"
         id="stop3313-0" />
    </linearGradient>
    <linearGradient
       y2="47.044857"
       x2="25.922546"
       y1="19"
       x1="25.922546"
       gradientTransform="matrix(0.77777782,0,0,0.77777782,-12.111112,-5.666669)"
       gradientUnits="userSpaceOnUse"
       id="linearGradient3616-9"
       xlink:href="#linearGradient3397-0"
       inkscape:collect="always" />
    <linearGradient
       id="linearGradient3397-0">
      <stop
         offset="0"
         style="stop-color:#aaaaaa;stop-opacity:1"
         id="stop3399-4" />
      <stop
         offset="1"
         style="stop-color:#8c8c8c;stop-opacity:1"
         id="stop3401-0" />
    </linearGradient>
    <linearGradient
       y2="20.895"
       x2="84.63858"
       y1="105.105"
       x1="86.132919"
       gradientTransform="matrix(0.15623116,0,0,0.15623125,2.0012002,10.157431)"
       gradientUnits="userSpaceOnUse"
       id="linearGradient3610"
       xlink:href="#linearGradient5128-1"
       inkscape:collect="always" />
    <linearGradient
       id="linearGradient5128-1">
      <stop
         offset="0"
         style="stop-color:#ffffff;stop-opacity:1"
         id="stop5130-8" />
      <stop
         offset="1"
         style="stop-color:#959595;stop-opacity:1"
         id="stop5132-0" />
    </linearGradient>
    <linearGradient
       y2="22.006775"
       x2="12.47939"
       y1="2"
       x1="12.47939"
       gradientUnits="userSpaceOnUse"
       id="linearGradient3814"
       xlink:href="#linearGradient3805"
       inkscape:collect="always"
       gradientTransform="translate(0,8)" />
    <linearGradient
       id="linearGradient3805"
       inkscape:collect="always">
      <stop
         id="stop3807"
         offset="0"
         style="stop-color:#ffffff;stop-opacity:1;" />
      <stop
         id="stop3809"
         offset="1"
         style="stop-color:#ffffff;stop-opacity:0;" />
    </linearGradient>
    <linearGradient
       gradientUnits="userSpaceOnUse"
       y2="8"
       x2="12"
       y1="16"
       x1="12"
       id="linearGradient3830"
       xlink:href="#linearGradient3805"
       inkscape:collect="always" />
  </defs>
  <metadata
     id="metadata4956">
    <rdf:RDF>
      <cc:Work
         rdf:about="">
        <dc:format>image/svg+xml</dc:format>
        <dc:type
           rdf:resource="http://purl.org/dc/dcmitype/StillImage" />
        <dc:title></dc:title>
      </cc:Work>
    </rdf:RDF>
  </metadata>
  <path
     style="fill:url(#radialGradient3195)"
     inkscape:connector-curvature="0"
     d="m 41,41.5 a 17,5.5 0 0 1 -34,0 17,5.5 0 1 1 34,0 z"
     id="path3818-0-5" />
  <path
     style="fill:#ff942b;fill-rule:evenodd"
     inkscape:connector-curvature="0"
     d="m 5.8618,13.917 18.149,9.9776 V 3.4996 C 16.0288,3.4688 9.5538,7.5274 5.8618,13.9166 Z"
     id="path5983" />
  <path
     style="fill:#ff4b4b;fill-rule:evenodd"
     inkscape:connector-curvature="0"
     d="M 24.011,23.755 6.241,13.533 c 0,0 -2.741,3.7912 -2.7409,10.055 4.3e-5,6.3297 2.611,10.388 2.611,10.388 l 17.9,-10.221 z"
     id="path5979" />
  <path
     style="fill:#ad7fa8;fill-rule:evenodd"
     inkscape:connector-curvature="0"
     d="M 6.0449,33.904 24.0109,23.755 V 44.5 C 16.1099,44.531 9.6999,40.403 6.0449,33.904 Z"
     id="path5981" />
  <path
     style="fill:#55891f;fill-rule:evenodd"
     inkscape:connector-curvature="0"
     d="M 42.019,13.917 24.011,23.8946 V 3.4996 c 7.9197,-0.03102 14.344,4.0276 18.008,10.417 z"
     id="path5973" />
  <path
     style="fill:#729fcf;fill-rule:evenodd"
     inkscape:connector-curvature="0"
     d="M 24.011,23.895 41.762,13.674 c 0,0 2.7381,3.7912 2.7381,10.055 -4.3e-5,6.3297 -2.6083,10.388 -2.6083,10.388 L 24.0108,23.895 Z"
     id="path4952" />
  <path
     style="fill:#417bd2;fill-rule:evenodd"
     inkscape:connector-curvature="0"
     d="M 41.958,33.904 24.011,23.755 V 44.5 c 7.893,0.03155 14.296,-4.0968 17.947,-10.596 z"
     id="path5977" />
  <circle
     style="opacity:0.3;fill:url(#radialGradient2864)"
     r="20.5"
     cy="-24"
     transform="scale(1,-1)"
     cx="24"
     id="path5989" />
  <path
     inkscape:connector-curvature="0"
     d="M 43.5,24 C 43.5,34.77 34.77,43.5 24,43.5 13.23,43.5 4.5,34.77 4.5,24 4.5,13.23 13.23,4.5 24,4.5 34.77,4.5 43.5,13.23 43.5,24 Z"
     style="color:#000000;opacity:1;fill:none;stroke:#ffffff;stroke-linecap:round;stroke-linejoin:round;stroke-width:2;stroke-miterlimit:4;stroke-dasharray:none;stroke-opacity:1"
     id="path4176" />
  <path
     inkscape:connector-curvature="0"
     d="M 24,3.5 C 12.689,3.5 3.5,12.689 3.5,24 3.5,35.311 12.689,44.5 24,44.5 35.311,44.5 44.5,35.311 44.5,24 44.5,12.689 35.311,3.5 24,3.5 Z"
     style="color:#000000;opacity:0.7;fill:none;stroke:#ffffff;stroke-opacity:1"
     id="path3871" />
  <g
     transform="translate(24.301865,15.723)"
     inkscape:label="Layer 1"
     id="layer1-4">
    <path
       d="M 23.999865,29.375 C 23.999865,30.824748 18.627342,32 12,32 5.3726571,32 1.348125e-4,30.824748 1.348125e-4,29.375 1.348125e-4,27.925253 5.3726571,26.75 12,26.75 c 6.627342,0 11.999865,1.175253 11.999865,2.625 z"
       id="path10689"
       style="display:inline;overflow:visible;visibility:visible;opacity:0.2;fill:url(#radialGradient3877);fill-opacity:1;fill-rule:nonzero;stroke:none;stroke-width:0.80000001;marker:none"
       inkscape:connector-curvature="0" />
    <path
       id="rect3623"
       d="m 10.5,9.5 c -0.554,0 -1,0.446 -1,1 v 1.375 C 8.9926705,12.030783 8.4932312,12.225474 8.03125,12.46875 L 7.0625,11.5 C 6.6707628,11.108263 6.0167372,11.108263 5.625,11.5 L 3.5,13.625 c -0.3917372,0.391737 -0.3917372,1.045763 0,1.4375 l 0.96875,0.96875 C 4.2254741,16.493231 4.0307828,16.99267 3.875,17.5 H 2.5 c -0.554,0 -1,0.446 -1,1 v 3 c 0,0.554 0.446,1 1,1 h 1.375 c 0.1557828,0.507329 0.3504741,1.006769 0.59375,1.46875 L 3.5,24.9375 c -0.3917372,0.391737 -0.3917372,1.045763 0,1.4375 L 5.625,28.5 c 0.3917372,0.391737 1.0457628,0.391737 1.4375,0 L 8.03125,27.53125 C 8.4932312,27.774526 8.9926705,27.969217 9.5,28.125 V 29.5 c 0,0.554 0.446,1 1,1 h 3 c 0.554,0 1,-0.446 1,-1 v -1.375 c 0.507329,-0.155783 1.006769,-0.350474 1.46875,-0.59375 L 16.9375,28.5 c 0.391737,0.391737 1.045763,0.391737 1.4375,0 L 20.5,26.375 c 0.391737,-0.391737 0.391737,-1.045763 0,-1.4375 L 19.53125,23.96875 C 19.774526,23.506769 19.969217,23.007329 20.125,22.5 H 21.5 c 0.554,0 1,-0.446 1,-1 v -3 c 0,-0.554 -0.446,-1 -1,-1 H 20.125 C 19.969217,16.99267 19.774526,16.493231 19.53125,16.03125 L 20.5,15.0625 c 0.391737,-0.391737 0.391737,-1.045763 0,-1.4375 L 18.375,11.5 c -0.391737,-0.391737 -1.045763,-0.391737 -1.4375,0 l -0.96875,0.96875 C 15.506769,12.225474 15.007329,12.030783 14.5,11.875 V 10.5 c 0,-0.554 -0.446,-1 -1,-1 z m 1.5,8 c 1.380712,0 2.5,1.119288 2.5,2.5 0,1.380712 -1.119288,2.5 -2.5,2.5 -1.380712,0 -2.5,-1.119288 -2.5,-2.5 0,-1.380712 1.119288,-2.5 2.5,-2.5 z"
       style="color:#000000;display:block;overflow:visible;visibility:visible;fill:url(#linearGradient3614-2);fill-opacity:1;fill-rule:nonzero;stroke:url(#linearGradient3616-9);stroke-width:1;stroke-linecap:butt;stroke-linejoin:round;stroke-miterlimit:4;stroke-dasharray:none;stroke-dashoffset:0;stroke-opacity:1;marker:none;enable-background:accumulate"
       inkscape:connector-curvature="0" />
    <path
       id="path3315"
       d="m 12,14 c -3.310303,0 -6,2.689698 -6,6 0,3.310302 2.689697,6 6,6 3.310301,0 6,-2.689698 6,-6 0,-3.310302 -2.689699,-6 -6,-6 z m 0,3 c 1.656854,0 3,1.343146 3,3 0,1.656854 -1.343146,3 -3,3 -1.656854,0 -3,-1.343146 -3,-3 0,-1.656854 1.343146,-3 3,-3 z"
       style="opacity:0.05;fill:#000000;fill-opacity:1;stroke:none"
       inkscape:connector-curvature="0" />
    <path
       d="m 12,13.499999 c -3.5841018,0 -6.5,2.9159 -6.5,6.499999 C 5.5,23.5841 8.4158982,26.5 12,26.5 c 3.584101,0 6.5,-2.9159 6.5,-6.500002 0,-3.584099 -2.915899,-6.499999 -6.5,-6.499999 z"
       id="path28"
       style="fill:none;stroke:url(#linearGradient3610);stroke-width:1;stroke-miterlimit:4;stroke-dasharray:none"
       inkscape:connector-curvature="0" />
    <path
       sodipodi:nodetypes="ccccccccccccccscccccccccscccccccccsccccccc"
       id="path3799"
       d="m 10.5,10.46875 c -0.07417,0.388719 -0.0095,0.901108 -0.03125,1.336433 0.06469,0.778079 -0.7702767,1.052854 -1.3682852,1.21661 -0.5470235,0.311236 -1.3489947,0.671898 -1.8369673,0.0542 C 6.9673317,12.779832 6.6711658,12.483666 6.375,12.1875 5.9432707,12.474172 5.5902425,12.950845 5.1889654,13.311035 4.8695012,13.671637 4.4334278,13.983938 4.1875,14.375 c 0.4070204,0.490131 1.0485159,0.837591 1.225798,1.476969 -0.024664,0.798464 -0.5401599,1.529218 -0.8123879,2.267025 -0.5018209,0.56435 -1.3150413,0.280668 -1.9743456,0.349756 -0.3445673,-0.01288 -0.070329,0.586347 -0.1578145,0.825709 0.00121,0.744981 -0.0024,1.490108 0.00179,2.234998 0.6455598,0.06419 1.3569859,-0.150581 1.9454937,0.179668 0.5556121,0.579212 0.6756354,1.474124 1.0067725,2.188766 0.04177,0.75274 -0.7323134,1.126431 -1.1493366,1.641136 -0.2173877,0.272406 0.385277,0.504146 0.5159207,0.750367 0.5077022,0.507702 1.0154043,1.015404 1.5231065,1.523106 0.5224633,-0.304869 0.8397278,-0.98896 1.4454346,-1.204942 0.8151392,-0.106648 1.5136871,0.546448 2.2838276,0.733976 0.650694,0.452082 0.363529,1.310427 0.426988,1.975154 -0.08851,0.418476 0.527859,0.12987 0.768962,0.214562 0.763896,-0.0012 1.527939,0.0024 2.291745,-0.0018 0.06419,-0.64556 -0.150581,-1.356986 0.179668,-1.945494 0.579212,-0.555612 1.474124,-0.675635 2.188766,-1.006772 0.75274,-0.04177 1.126431,0.732313 1.641136,1.149336 0.272406,0.217388 0.504146,-0.385277 0.750367,-0.515921 0.507702,-0.507702 1.015404,-1.015404 1.523106,-1.523106 -0.304869,-0.522463 -0.98896,-0.839728 -1.204942,-1.445435 -0.106648,-0.815139 0.546448,-1.513687 0.733976,-2.283827 0.452082,-0.650694 1.310427,-0.363529 1.975154,-0.426988 0.418476,0.08851 0.12987,-0.527859 0.214562,-0.768962 -0.0012,-0.763896 0.0024,-1.527939 -0.0018,-2.291745 -0.64556,-0.06419 -1.356986,0.150581 -1.945494,-0.179668 -0.555602,-0.579205 -0.675625,-1.474117 -1.006762,-2.188759 -0.04177,-0.75274 0.732313,-1.126431 1.149336,-1.641136 0.217388,-0.272406 -0.385277,-0.504146 -0.515921,-0.750366 -0.507702,-0.507703 -1.015404,-1.015405 -1.523106,-1.523107 -0.522463,0.304869 -0.839728,0.98896 -1.445435,1.204942 -0.815139,0.106648 -1.513687,-0.546448 -2.283827,-0.733976 -0.650694,-0.452082 -0.363529,-1.310427 -0.426988,-1.975154 0.08851,-0.418476 -0.527859,-0.12987 -0.768962,-0.214562 -0.754096,0 -1.508192,0 -2.262288,0 z"
       style="color:#000000;display:block;overflow:visible;visibility:visible;opacity:0.8;fill:none;stroke:url(#linearGradient3814);stroke-width:1;stroke-linecap:butt;stroke-linejoin:round;stroke-miterlimit:4;stroke-dasharray:none;stroke-dashoffset:0;stroke-opacity:1;marker:none;enable-background:accumulate"
       inkscape:connector-curvature="0" />
    <circle
       transform="matrix(1.0116033,0,0,1.0116033,-0.13923977,7.8607606)"
       id="path3822"
       style="color:#000000;display:block;overflow:visible;visibility:visible;opacity:0.4;fill:none;stroke:url(#linearGradient3830);stroke-width:0.98852974;stroke-opacity:1;marker:none;enable-background:accumulate"
       cx="12"
       cy="12"
       r="3.4598541" />
  </g>
</svg>
