<?xml version="1.0" encoding="UTF-8" standalone="no"?>
<!-- Created with Inkscape (http://www.inkscape.org/) -->

<svg
   xmlns:dc="http://purl.org/dc/elements/1.1/"
   xmlns:cc="http://creativecommons.org/ns#"
   xmlns:rdf="http://www.w3.org/1999/02/22-rdf-syntax-ns#"
   xmlns:svg="http://www.w3.org/2000/svg"
   xmlns="http://www.w3.org/2000/svg"
   xmlns:xlink="http://www.w3.org/1999/xlink"
   xmlns:sodipodi="http://sodipodi.sourceforge.net/DTD/sodipodi-0.dtd"
   xmlns:inkscape="http://www.inkscape.org/namespaces/inkscape"
   id="svg4061"
   height="48"
   width="48"
   version="1.1"
   inkscape:version="0.92.2 (unknown)"
   sodipodi:docname="ubuntu-tweak.svg">
  <sodipodi:namedview
     pagecolor="#ffffff"
     bordercolor="#666666"
     borderopacity="1"
     objecttolerance="10"
     gridtolerance="10"
     guidetolerance="10"
     inkscape:pageopacity="0"
     inkscape:pageshadow="2"
     inkscape:window-width="1378"
     inkscape:window-height="894"
     id="namedview40"
     showgrid="false"
     inkscape:zoom="9.8333333"
     inkscape:cx="30.298149"
     inkscape:cy="26.349401"
     inkscape:window-x="79"
     inkscape:window-y="96"
     inkscape:window-maximized="0"
     inkscape:current-layer="g4206" />
  <defs
     id="defs4063">
    <linearGradient
       inkscape:collect="always"
       id="linearGradient4515">
      <stop
         style="stop-color:#42a500;stop-opacity:1;"
         offset="0"
         id="stop4511" />
      <stop
         style="stop-color:#42a500;stop-opacity:0;"
         offset="1"
         id="stop4513" />
    </linearGradient>
    <linearGradient
       id="linearGradient3026"
       y2="40.495998"
       gradientUnits="userSpaceOnUse"
       x2="71.204002"
       gradientTransform="matrix(1.617,0,0,1.617,-92.707,-21.06)"
       y1="15.369"
       x1="71.204002"
       spreadMethod="pad">
      <stop
         id="stop4808-4"
         stop-color="#fff"
         offset="0" />
      <stop
         id="stop4810-0"
         stop-color="#fff"
         stop-opacity=".23529"
         offset=".42448" />
      <stop
         id="stop4812-8"
         stop-color="#fff"
         stop-opacity=".15686"
         offset=".82090" />
      <stop
         id="stop4814-0"
         stop-color="#fff"
         stop-opacity=".39216"
         offset="1" />
    </linearGradient>
    <radialGradient
       id="radialGradient3029"
       fx="4.459"
       fy="8.5089"
       gradientUnits="userSpaceOnUse"
       cy="8.6258"
       cx="15.026"
       gradientTransform="matrix(-3.4973e-8 1.8855 -1.7764 -5.4723e-8 39.14 -7.9932)"
       r="20">
      <stop
         id="stop4170"
         stop-color="#c24251"
         offset="0" />
      <stop
         id="stop4172"
         stop-color="#c24251"
         offset=".26238" />
      <stop
         id="stop4174"
         stop-color="#a63643"
         offset=".66094" />
      <stop
         id="stop4176"
         stop-color="#a63643"
         offset="1" />
    </radialGradient>
    <radialGradient
       id="radialGradient3032"
       gradientUnits="userSpaceOnUse"
       cy="3.99"
       cx="23.896"
       gradientTransform="matrix(0,2.9445874,-3.886835,0,39.508399,-67.696705)"
       r="20.397">
      <stop
         id="stop3244-9-33-7-0-9"
         stop-color="#fff"
         offset="0" />
      <stop
         id="stop3246-3-5-0-8-5"
         stop-color="#ddd"
         offset=".26238" />
      <stop
         id="stop3248-1-7-8-8-1"
         stop-color="#abacae"
         offset=".66094" />
      <stop
         id="stop3250-9-3-0-5-1"
         stop-color="#89898b"
         offset="1" />
    </radialGradient>
    <radialGradient
       id="radialGradient3035"
       gradientUnits="userSpaceOnUse"
       cy="186.17"
       cx="99.157"
       gradientTransform="matrix(0.27083,0,0,0.087623,-4.5779998,26.187597)"
       r="62.769">
      <stop
         id="stop3822-2-6-3"
         stop-color="#3d3d3d"
         offset="0" />
      <stop
         id="stop3864-8-7-7"
         stop-color="#686868"
         stop-opacity=".49804"
         offset=".5" />
      <stop
         id="stop3824-1-2-5"
         stop-color="#686868"
         stop-opacity="0"
         offset="1" />
    </radialGradient>
    <linearGradient
       id="linearGradient4433"
       y2="25.611"
       gradientUnits="userSpaceOnUse"
       x2="23.078"
       gradientTransform="matrix(1 0 0 1.0521 0 -.90547)"
       y1="13.035"
       x1="22.759">
      <stop
         id="stop6305-1-0-2"
         stop-color="#fff"
         offset="0" />
      <stop
         id="stop6307-5-0-6"
         stop-color="#fff"
         stop-opacity="0"
         offset="1" />
    </linearGradient>
    <linearGradient
       id="linearGradient4829">
      <stop
         style="stop-color:#f4fbfc;stop-opacity:1;"
         offset="0"
         id="stop4831" />
      <stop
         style="stop-color:#d6d6d6;stop-opacity:1;"
         offset="1"
         id="stop4833" />
    </linearGradient>
    <linearGradient
       id="linearGradient4213"
       y2="37.305"
       gradientUnits="userSpaceOnUse"
       x2="21.434999"
       y1="13.905"
       x1="21.511999">
      <stop
         id="stop2240"
         stop-color="#fff"
         offset="0" />
      <stop
         id="stop2242"
         stop-color="#fff"
         stop-opacity="0"
         offset="1" />
    </linearGradient>
    <linearGradient
       inkscape:collect="always"
       xlink:href="#linearGradient4515"
       id="linearGradient4517"
       x1="23.635593"
       y1="42.40678"
       x2="24.466101"
       y2="-6.4067798"
       gradientUnits="userSpaceOnUse"
       gradientTransform="matrix(1.0194175,0,0,1.0194175,-0.46601937,-0.46612111)" />
  </defs>
  <metadata
     id="metadata4066">
    <rdf:RDF>
      <cc:Work
         rdf:about="">
        <dc:format>image/svg+xml</dc:format>
        <dc:type
           rdf:resource="http://purl.org/dc/dcmitype/StillImage" />
        <dc:title />
      </cc:Work>
    </rdf:RDF>
  </metadata>
  <g
     id="g4206">
    <path
       id="path3818-0-5"
       d="m 39.2771,42.500597 a 17,5.5 0 0 1 -33.9999998,0 17,5.5 0 1 1 33.9999998,0 z"
       inkscape:connector-curvature="0"
       style="fill:url(#radialGradient3035)" />
    <path
       id="path2555-7-2"
       style="color:#000000;fill:url(#radialGradient3032);stroke-width:1.01941752"
       d="m 24,3.1018401 c -11.530631,0 -20.8980583,9.3674269 -20.8980583,20.8980579 0,11.530631 9.3674273,20.898058 20.8980583,20.898058 11.530631,0 20.898058,-9.367427 20.898058,-20.898058 C 44.898058,12.469267 35.530631,3.1018401 24,3.1018401 Z"
       inkscape:connector-curvature="0" />
    <path
       id="path2555-7-65"
       style="color:#000000;fill:url(#linearGradient4517);fill-opacity:1;stroke-width:1.01941752"
       d="m 24,3.1018401 c -11.530631,0 -20.8980583,9.3674269 -20.8980583,20.8980579 0,11.530631 9.3674273,20.898058 20.8980583,20.898058 11.530631,0 20.898058,-9.367427 20.898058,-20.898058 C 44.898058,12.469267 35.530631,3.1018401 24,3.1018401 Z"
       inkscape:connector-curvature="0" />
    <path
       id="path4176"
       style="color:#000000;opacity:1;fill:none;stroke:#ffffff;stroke-width:2.03883505;stroke-linecap:round;stroke-linejoin:round;stroke-miterlimit:4;stroke-dasharray:none;stroke-opacity:0.98156684"
       d="M 43.878641,23.999898 C 43.878641,34.979024 34.979126,43.878539 24,43.878539 13.020874,43.878539 4.1213592,34.979024 4.1213592,23.999898 4.1213592,13.020772 13.020874,4.1212576 24,4.1212576 c 10.979126,0 19.878641,8.8995144 19.878641,19.8786404 z"
       inkscape:connector-curvature="0" />
    <path
       id="path2555-7-1-7"
       style="color:#000000;opacity:1;fill:none;fill-opacity:1;stroke:#ffffff;stroke-width:0.2038835;stroke-linecap:round;stroke-linejoin:round;stroke-miterlimit:4;stroke-dasharray:none;stroke-opacity:1"
       d="M 24,3.1019421 C 12.469369,3.1019421 3.1019417,12.469165 3.1019417,24 3.1019417,35.530835 12.469165,44.898058 24,44.898058 35.530835,44.898058 44.898058,35.530835 44.898058,24 44.898058,12.469165 35.530631,3.1019421 24,3.1019421 Z"
       inkscape:connector-curvature="0" />
    <g
       id="g4317"
       transform="matrix(1.0002,0,0,1.0004,-1.0018,-0.0050486)"
       style="fill:none;stroke:#000000;stroke-linecap:round;stroke-linejoin:round" />
    <g
       id="g4207"
       transform="matrix(0.3852881,0.66446637,-0.66734491,0.38362619,42.301981,24.40834)"
       style="opacity:0.15;fill:none;stroke:#000000;stroke-width:1.84019995;stroke-linecap:round;stroke-linejoin:round">
      <g
         id="g4211"
         transform="matrix(0.70711,0.70711,-0.70711,0.70711,10.988,14.744)"
         style="fill:none;stroke:#000000;stroke-width:1.84019995;stroke-linecap:round;stroke-linejoin:round">
        <g
           id="g4213"
           style="fill:none;stroke:#000000;stroke-width:1.84019995;stroke-linecap:round;stroke-linejoin:round">
          <path
             id="path4215"
             d="m 27.434,9.0098 a 8.2322,16.417 15 0 0 -0.598,0.0019 8.2322,16.417 15 0 0 -4.621,2.4143 16.417,8.2322 60 0 0 -6.424,-0.643 16.417,8.2322 60 0 0 -2.65,5.879 16.417,8.2322 15 0 0 -4.9984,4.09 16.417,8.2322 15 0 0 2.2834,6.033 8.2322,16.417 60 0 0 -0.6428,6.424 8.2322,16.417 60 0 0 5.8788,2.65 8.2322,16.417 15 0 0 4.09,4.998 8.2322,16.417 15 0 0 6.033,-2.283 16.417,8.2322 60 0 0 6.424,0.643 16.417,8.2322 60 0 0 2.65,-5.879 16.417,8.2322 15 0 0 4.998,-4.09 16.417,8.2322 15 0 0 -2.283,-6.033 8.2322,16.417 60 0 0 0.643,-6.424 8.2322,16.417 60 0 0 -5.879,-2.65 8.2322,16.417 15 0 0 -4.09,-4.9984 8.2322,16.417 15 0 0 -0.814,-0.1328 z m 0.914,6.3772 c 0.321,-0.023 0.652,0.047 0.953,0.22 0.8,0.462 1.076,1.486 0.613,2.284 -0.461,0.802 -1.485,1.076 -2.285,0.615 -0.802,-0.463 -1.076,-1.487 -0.615,-2.287 0.289,-0.501 0.798,-0.794 1.334,-0.832 z m -4.147,1.781 c 0.673,0 1.324,0.094 1.944,0.264 0.11,0.674 0.509,1.293 1.144,1.66 0.635,0.369 1.37,0.401 2.008,0.162 1.238,1.217 2.044,2.873 2.162,4.717 l -2.387,0.039 c -0.22,-2.501 -2.315,-4.461 -4.871,-4.461 -0.734,0 -1.434,0.164 -2.06,0.457 l -1.162,-2.084 c 0.97,-0.481 2.066,-0.754 3.222,-0.754 z m -4.035,1.221 1.223,2.05 c -1.258,0.884 -2.078,2.348 -2.078,4.004 0,1.655 0.82,3.115 2.078,3.998 l -1.223,2.051 c -1.465,-0.978 -2.556,-2.474 -3.01,-4.226 0.532,-0.434 0.867,-1.089 0.867,-1.823 0,-0.738 -0.336,-1.395 -0.867,-1.826 0.454,-1.753 1.545,-3.25 3.01,-4.228 z m -4.494,4.379 c 0.926,0 1.676,0.75 1.676,1.675 0,0.923 -0.75,1.672 -1.676,1.672 -0.926,0 -1.672,-0.749 -1.672,-1.672 0,-0.925 0.746,-1.675 1.672,-1.675 z m 13.4,2.109 2.387,0.033 c -0.118,1.845 -0.924,3.502 -2.162,4.721 -0.638,-0.242 -1.371,-0.207 -2.008,0.16 -0.636,0.369 -1.034,0.985 -1.144,1.658 -0.62,0.172 -1.271,0.264 -1.944,0.264 -1.156,0 -2.252,-0.269 -3.222,-0.752 l 1.162,-2.084 c 0.626,0.292 1.325,0.453 2.06,0.453 2.556,0 4.651,-1.956 4.871,-4.453 z m -0.49,5.281 c 0.536,0.038 1.043,0.332 1.332,0.832 0.463,0.8 0.188,1.824 -0.613,2.285 -0.801,0.461 -1.825,0.19 -2.287,-0.613 -0.461,-0.798 -0.187,-1.824 0.615,-2.283 0.3,-0.174 0.631,-0.243 0.953,-0.221 z"
             transform="matrix(-0.23814,-0.88874,0.88874,-0.23814,-28.806,47.919)"
             inkscape:connector-curvature="0"
             style="opacity:1;fill:none;stroke:#000000;stroke-width:2;stroke-linecap:round;stroke-linejoin:round" />
        </g>
      </g>
    </g>
    <g
       id="g4217"
       transform="matrix(0.3852881,0.66446637,-0.66734491,0.38362619,42.301981,24.40834)"
       style="opacity:0.15;fill:none;stroke:#000000;stroke-width:0.92009002;stroke-linecap:round;stroke-linejoin:round">
      <g
         id="g4221"
         transform="matrix(0.70711,0.70711,-0.70711,0.70711,10.988,14.744)"
         style="fill:none;stroke:#000000;stroke-width:0.92009002;stroke-linecap:round;stroke-linejoin:round">
        <g
           id="g4223"
           style="fill:none;stroke:#000000;stroke-width:0.92009002;stroke-linecap:round;stroke-linejoin:round">
          <path
             id="path4225"
             d="m 27.434,9.0098 a 8.2322,16.417 15 0 0 -0.598,0.0019 8.2322,16.417 15 0 0 -4.621,2.4143 16.417,8.2322 60 0 0 -6.424,-0.643 16.417,8.2322 60 0 0 -2.65,5.879 16.417,8.2322 15 0 0 -4.9984,4.09 16.417,8.2322 15 0 0 2.2834,6.033 8.2322,16.417 60 0 0 -0.6428,6.424 8.2322,16.417 60 0 0 5.8788,2.65 8.2322,16.417 15 0 0 4.09,4.998 8.2322,16.417 15 0 0 6.033,-2.283 16.417,8.2322 60 0 0 6.424,0.643 16.417,8.2322 60 0 0 2.65,-5.879 16.417,8.2322 15 0 0 4.998,-4.09 16.417,8.2322 15 0 0 -2.283,-6.033 8.2322,16.417 60 0 0 0.643,-6.424 8.2322,16.417 60 0 0 -5.879,-2.65 8.2322,16.417 15 0 0 -4.09,-4.9984 8.2322,16.417 15 0 0 -0.814,-0.1328 z m 0.914,6.3772 c 0.321,-0.023 0.652,0.047 0.953,0.22 0.8,0.462 1.076,1.486 0.613,2.284 -0.461,0.802 -1.485,1.076 -2.285,0.615 -0.802,-0.463 -1.076,-1.487 -0.615,-2.287 0.289,-0.501 0.798,-0.794 1.334,-0.832 z m -4.147,1.781 c 0.673,0 1.324,0.094 1.944,0.264 0.11,0.674 0.509,1.293 1.144,1.66 0.635,0.369 1.37,0.401 2.008,0.162 1.238,1.217 2.044,2.873 2.162,4.717 l -2.387,0.039 c -0.22,-2.501 -2.315,-4.461 -4.871,-4.461 -0.734,0 -1.434,0.164 -2.06,0.457 l -1.162,-2.084 c 0.97,-0.481 2.066,-0.754 3.222,-0.754 z m -4.035,1.221 1.223,2.05 c -1.258,0.884 -2.078,2.348 -2.078,4.004 0,1.655 0.82,3.115 2.078,3.998 l -1.223,2.051 c -1.465,-0.978 -2.556,-2.474 -3.01,-4.226 0.532,-0.434 0.867,-1.089 0.867,-1.823 0,-0.738 -0.336,-1.395 -0.867,-1.826 0.454,-1.753 1.545,-3.25 3.01,-4.228 z m -4.494,4.379 c 0.926,0 1.676,0.75 1.676,1.675 0,0.923 -0.75,1.672 -1.676,1.672 -0.926,0 -1.672,-0.749 -1.672,-1.672 0,-0.925 0.746,-1.675 1.672,-1.675 z m 13.4,2.109 2.387,0.033 c -0.118,1.845 -0.924,3.502 -2.162,4.721 -0.638,-0.242 -1.371,-0.207 -2.008,0.16 -0.636,0.369 -1.034,0.985 -1.144,1.658 -0.62,0.172 -1.271,0.264 -1.944,0.264 -1.156,0 -2.252,-0.269 -3.222,-0.752 l 1.162,-2.084 c 0.626,0.292 1.325,0.453 2.06,0.453 2.556,0 4.651,-1.956 4.871,-4.453 z m -0.49,5.281 c 0.536,0.038 1.043,0.332 1.332,0.832 0.463,0.8 0.188,1.824 -0.613,2.285 -0.801,0.461 -1.825,0.19 -2.287,-0.613 -0.461,-0.798 -0.187,-1.824 0.615,-2.283 0.3,-0.174 0.631,-0.243 0.953,-0.221 z"
             transform="matrix(-0.23814,-0.88874,0.88874,-0.23814,-28.806,47.919)"
             inkscape:connector-curvature="0"
             style="opacity:1;fill:none;stroke:#000000;stroke-width:1;stroke-linecap:round;stroke-linejoin:round" />
        </g>
      </g>
    </g>
    <g
       id="g4468"
       transform="matrix(0.3852881,0.66446637,-0.66734491,0.38362619,42.301981,24.40834)">
      <g
         id="g4462"
         transform="matrix(0.70711,0.70711,-0.70711,0.70711,10.988,14.744)">
        <g
           id="g4485">
          <path
             id="path4454"
             d="m 27.434,9.0098 a 8.2322,16.417 15 0 0 -0.598,0.0019 8.2322,16.417 15 0 0 -4.621,2.4143 16.417,8.2322 60 0 0 -6.424,-0.643 16.417,8.2322 60 0 0 -2.65,5.879 16.417,8.2322 15 0 0 -4.9984,4.09 16.417,8.2322 15 0 0 2.2834,6.033 8.2322,16.417 60 0 0 -0.6428,6.424 8.2322,16.417 60 0 0 5.8788,2.65 8.2322,16.417 15 0 0 4.09,4.998 8.2322,16.417 15 0 0 6.033,-2.283 16.417,8.2322 60 0 0 6.424,0.643 16.417,8.2322 60 0 0 2.65,-5.879 16.417,8.2322 15 0 0 4.998,-4.09 16.417,8.2322 15 0 0 -2.283,-6.033 8.2322,16.417 60 0 0 0.643,-6.424 8.2322,16.417 60 0 0 -5.879,-2.65 8.2322,16.417 15 0 0 -4.09,-4.9984 8.2322,16.417 15 0 0 -0.814,-0.1328 z m 0.914,6.3772 c 0.321,-0.023 0.652,0.047 0.953,0.22 0.8,0.462 1.076,1.486 0.613,2.284 -0.461,0.802 -1.485,1.076 -2.285,0.615 -0.802,-0.463 -1.076,-1.487 -0.615,-2.287 0.289,-0.501 0.798,-0.794 1.334,-0.832 z m -4.147,1.781 c 0.673,0 1.324,0.094 1.944,0.264 0.11,0.674 0.509,1.293 1.144,1.66 0.635,0.369 1.37,0.401 2.008,0.162 1.238,1.217 2.044,2.873 2.162,4.717 l -2.387,0.039 c -0.22,-2.501 -2.315,-4.461 -4.871,-4.461 -0.734,0 -1.434,0.164 -2.06,0.457 l -1.162,-2.084 c 0.97,-0.481 2.066,-0.754 3.222,-0.754 z m -4.035,1.221 1.223,2.05 c -1.258,0.884 -2.078,2.348 -2.078,4.004 0,1.655 0.82,3.115 2.078,3.998 l -1.223,2.051 c -1.465,-0.978 -2.556,-2.474 -3.01,-4.226 0.532,-0.434 0.867,-1.089 0.867,-1.823 0,-0.738 -0.336,-1.395 -0.867,-1.826 0.454,-1.753 1.545,-3.25 3.01,-4.228 z m -4.494,4.379 c 0.926,0 1.676,0.75 1.676,1.675 0,0.923 -0.75,1.672 -1.676,1.672 -0.926,0 -1.672,-0.749 -1.672,-1.672 0,-0.925 0.746,-1.675 1.672,-1.675 z m 13.4,2.109 2.387,0.033 c -0.118,1.845 -0.924,3.502 -2.162,4.721 -0.638,-0.242 -1.371,-0.207 -2.008,0.16 -0.636,0.369 -1.034,0.985 -1.144,1.658 -0.62,0.172 -1.271,0.264 -1.944,0.264 -1.156,0 -2.252,-0.269 -3.222,-0.752 l 1.162,-2.084 c 0.626,0.292 1.325,0.453 2.06,0.453 2.556,0 4.651,-1.956 4.871,-4.453 z m -0.49,5.281 c 0.536,0.038 1.043,0.332 1.332,0.832 0.463,0.8 0.188,1.824 -0.613,2.285 -0.801,0.461 -1.825,0.19 -2.287,-0.613 -0.461,-0.798 -0.187,-1.824 0.615,-2.283 0.3,-0.174 0.631,-0.243 0.953,-0.221 z"
             transform="matrix(-0.23814,-0.88874,0.88874,-0.23814,-28.806,47.919)"
             inkscape:connector-curvature="0"
             style="fill:#ffffff" />
        </g>
      </g>
    </g>
  </g>
</svg>
