<?xml version="1.0" encoding="UTF-8" standalone="no"?>
<!-- Generator: flash2svg, http://dissentgraphics.com/tools/flash2svg -->

<svg
   xmlns:dc="http://purl.org/dc/elements/1.1/"
   xmlns:cc="http://creativecommons.org/ns#"
   xmlns:rdf="http://www.w3.org/1999/02/22-rdf-syntax-ns#"
   xmlns:svg="http://www.w3.org/2000/svg"
   xmlns="http://www.w3.org/2000/svg"
   xmlns:xlink="http://www.w3.org/1999/xlink"
   xmlns:sodipodi="http://sodipodi.sourceforge.net/DTD/sodipodi-0.dtd"
   xmlns:inkscape="http://www.inkscape.org/namespaces/inkscape"
   id="Activity-Monitor"
   image-rendering="optimizeSpeed"
   version="1.1"
   style="background-color:#ffffff"
   x="0px"
   y="0px"
   width="1024px"
   height="1024px"
   viewBox="0 0 1024 1024"
   enable-background="new 0 0 1024 1024"
   sodipodi:docname="utilities-system-monitor.svg"
   inkscape:version="0.92.2 2405546, 2018-03-11">
  <metadata
     id="metadata35">
    <rdf:RDF>
      <cc:Work
         rdf:about="">
        <dc:format>image/svg+xml</dc:format>
        <dc:type
           rdf:resource="http://purl.org/dc/dcmitype/StillImage" />
        <dc:title />
      </cc:Work>
    </rdf:RDF>
  </metadata>
  <sodipodi:namedview
     pagecolor="#ffffff"
     bordercolor="#666666"
     borderopacity="1"
     objecttolerance="10"
     gridtolerance="10"
     guidetolerance="10"
     inkscape:pageopacity="0"
     inkscape:pageshadow="2"
     inkscape:window-width="1366"
     inkscape:window-height="745"
     id="namedview33"
     showgrid="true"
     inkscape:zoom="0.60253906"
     inkscape:cx="262.22366"
     inkscape:cy="512"
     inkscape:window-x="0"
     inkscape:window-y="23"
     inkscape:window-maximized="1"
     inkscape:current-layer="Activity-Monitor"
     inkscape:pagecheckerboard="true">
    <inkscape:grid
       type="xygrid"
       id="grid842" />
  </sodipodi:namedview>
  <defs
     transform="matrix(1 0 0 1 0 0) "
     id="defs2">
    <linearGradient
       inkscape:collect="always"
       id="linearGradient888">
      <stop
         style="stop-color:#1f2435;stop-opacity:1;"
         offset="0"
         id="stop884" />
      <stop
         style="stop-color:#1f2435;stop-opacity:0;"
         offset="1"
         id="stop886" />
    </linearGradient>
    <linearGradient
       inkscape:collect="always"
       id="linearGradient863">
      <stop
         style="stop-color:#262d44;stop-opacity:1;"
         offset="0"
         id="stop859" />
      <stop
         style="stop-color:#262d44;stop-opacity:1"
         offset="1"
         id="stop861" />
    </linearGradient>
    <linearGradient
       inkscape:collect="always"
       id="linearGradient855">
      <stop
         style="stop-color:#ffffff;stop-opacity:1"
         offset="0"
         id="stop851" />
      <stop
         style="stop-color:#d7d7d7;stop-opacity:1"
         offset="1"
         id="stop853" />
    </linearGradient>
    <linearGradient
       inkscape:collect="always"
       id="linearGradient847">
      <stop
         style="stop-color:#030303;stop-opacity:1"
         offset="0"
         id="stop843" />
      <stop
         style="stop-color:#42507e;stop-opacity:1"
         offset="1"
         id="stop845" />
    </linearGradient>
    <linearGradient
       inkscape:collect="always"
       xlink:href="#linearGradient847"
       id="linearGradient849"
       x1="520"
       y1="4"
       x2="520"
       y2="1024"
       gradientUnits="userSpaceOnUse" />
    <linearGradient
       inkscape:collect="always"
       xlink:href="#linearGradient855"
       id="linearGradient857"
       x1="520"
       y1="4"
       x2="520"
       y2="1024"
       gradientUnits="userSpaceOnUse"
       gradientTransform="matrix(0.99609375,0,0,0.99609375,2,2)" />
    <linearGradient
       inkscape:collect="always"
       xlink:href="#linearGradient863"
       id="linearGradient865"
       x1="540.1098"
       y1="2.0078433"
       x2="540.1098"
       y2="1026.0078"
       gradientUnits="userSpaceOnUse" />
    <linearGradient
       inkscape:collect="always"
       xlink:href="#linearGradient888"
       id="linearGradient890"
       x1="558.01569"
       y1="1036.2981"
       x2="537.93726"
       y2="92.611763"
       gradientUnits="userSpaceOnUse" />
  </defs>
  <g
     id="shadow"
     transform="matrix(0.88235294,0,0,0.88235294,63.235294,57.235294)">
    <g
       id="shape">
      <path
         id="path"
         d="m 984.88455,316.75212 q -9.29236,-22.5286 -20.9619,-44.13877 c -4.37603,-8.15784 -9.02221,-16.26166 -13.93853,-24.20339 C 928.86017,214.15784 903.09004,181.79661 872.67373,151.38029 773.10487,51.811441 652.84428,2 512,2 371.15572,2 250.94915,51.811441 151.38029,151.38029 51.811441,250.94915 2,371.15572 2,512 2,652.84428 51.811441,773.10487 151.38029,872.67373 250.94915,972.24259 371.15572,1022 512,1022 652.84428,1022 773.10487,972.24259 872.67373,872.67373 927.50953,817.7839 967.27222,756.62712 991.90781,689.25741 1011.9513,634.31356 1022,575.26377 1022,512 c 0,-48.51483 -5.8888,-94.59852 -17.7203,-138.25106 -1.3507,-4.91631 -2.7553,-9.83263 -4.214,-14.69491 -4.43011,-14.37077 -9.50849,-28.4714 -15.18115,-42.30191 z"
         style="fill:url(#linearGradient857);fill-opacity:1;stroke-width:1.08050847"
         inkscape:connector-curvature="0" />
    </g>
  </g>
  <g
     id="criclebg"
     transform="matrix(0.87954885,0,0,0.87954885,64.185834,59.068189)">
    <g
       id="shape2">
      <path
         id="path1"
         d="m 849.15,181.65 c -1.1,-1.15 -2.2,-2.25 -3.3,-3.35 C 811.5,143.95 774.55,116.05 734.95,94.55 728.25,90.9 721.5,87.45 714.3,84 679.25,67.25 641.8,55.15 602.4,48 c -3.1,-0.55 -6.2,-1.1 -9.35,-1.6 -0.3,-0.05 -0.6,-0.1 -0.85,-0.15 C 588,45.6 583.8,45 579.45,44.4 c -4.05,-0.5 -8.2,-1 -12.4,-1.45 -3.6,-0.4 -7.2,-0.75 -11,-1.05 -4.45,-0.4 -9.15,-0.75 -13.9,-1 -0.45,-0.05 -0.85,-0.05 -1.3,-0.05 -9.5,-0.55 -19.1,-0.8 -28.8,-0.8 -9.35,0 -18.6,0.25 -27.9,0.75 -1.7,0.1 -3.4,0.2 -5.1,0.3 -3.65,0.2 -7.3,0.45 -11,0.8 -6.1,0.5 -12.2,1.1 -18.25,1.85 -1.8,0.2 -3.55,0.4 -5.2,0.65 -43.6,5.75 -84.7,17.2 -123.3,34.35 -3.85,1.7 -7.7,3.45 -11.55,5.3 -47.5,22.65 -91.25,54.05 -131.45,94.25 -0.55,0.55 -1.05,1.05 -1.55,1.55 -0.65,0.65 -1.25,1.25 -1.85,1.9 -40.45,41.15 -71.75,86.05 -94,134.75 -7.85,17.15 -14.5,34.6 -20.05,52.5 q -20.8,67.2 -20.8,143.05 c 0,128.75 44.95,238.9 134.85,330.4 0.6,0.6 1.2,1.2 1.85,1.85 0.5,0.5 1,1 1.55,1.55 3.45,3.45 6.9,6.8 10.1,9.85 37.8,35.8 78.35,63.95 121.35,84.4 3.95,1.85 7.75,3.6 11.55,5.3 5.55,2.45 10.8,4.65 16.1,6.75 6.45,2.6 12.6,4.85 18.8,6.95 28.6,9.8 58.2,16.7 88.4,20.65 1.9,0.25 3.55,0.45 5.2,0.65 11.5,1.4 22.85,2.35 34.35,2.95 0.15,0 0.25,0 0.4,0 8.5,0.45 16.6,0.7 24.5,0.7 1.2,0 2.1,0 3,0 9.75,0 19.35,-0.25 28.8,-0.7 0.45,-0.05 0.85,-0.05 1.3,-0.1 2.5,-0.15 4.75,-0.3 6.95,-0.45 10.3,-0.75 20.45,-1.75 30.35,-3.05 7.8,-1.05 15.45,-2.25 22.95,-3.6 1.9,-0.35 3.65,-0.7 5.4,-1.05 7.95,-1.55 15.8,-3.3 23.4,-5.15 28.9,-7.25 56.6,-17.2 83.1,-29.75 7,-3.4 13.85,-6.9 20.65,-10.55 25.2,-13.7 49.35,-30 72.4,-48.85 13.25,-10.9 26.05,-22.5 38.5,-34.95 1.1,-1.1 2.2,-2.2 3.3,-3.3 0.65,-0.65 1.25,-1.3 1.9,-1.95 22.6,-23.25 42.2,-47.5 58.9,-72.9 17.55,-26.55 31.95,-54.45 43.25,-83.65 3.95,-10.25 7.55,-20.65 10.75,-31.15 11.7,-38.65 18.3,-79.4 19.8,-122.35 0.2,-6.05 0.3,-12.25 0.3,-18.5 0,-0.65 0,-1.35 0,-2 0,-0.35 0,-0.65 0,-1 -0.2,-40.65 -4.95,-79.5 -14.3,-117 -1.1,-4.35 -2.35,-9 -3.65,-13.6 -2.25,-7.85 -4.75,-15.8 -7.55,-23.8 -0.3,-0.75 -0.6,-1.65 -0.9,-2.55 -4.25,-12 -9,-23.8 -14.4,-35.6 -2.7,-5.95 -5.65,-12 -8.75,-18.05 -3.8,-7.4 -7.95,-14.95 -12.3,-22.4 -17.95,-30.55 -40.05,-59.7 -66.5,-87.65 -1.45,-1.5 -3.05,-3.15 -4.65,-4.8 -0.65,-0.65 -1.25,-1.3 -1.9,-1.95 z"
         style="fill:url(#linearGradient849);fill-opacity:1"
         inkscape:connector-curvature="0" />
    </g>
  </g>
  <g
     id="Calque.__2011"
     transform="matrix(0.87890625,0,0,0.87890625,65,59)">
    <g
       id="shape6">
      <path
         id="path3"
         d="M 511.05,112.25 V 132.1"
         inkscape:connector-curvature="0"
         style="fill:none;stroke:#333333;stroke-width:0.1;stroke-linecap:round;stroke-linejoin:round;stroke-opacity:1" />
      <path
         id="path4"
         d="m 892.05,512.1 c 0,-0.4 0,-0.8 0,-1.25 h -121 c 0,0.4 0,0.8 0,1.25 0,71.5 -25.3,132.55 -75.9,183.1 h -0.025 l -0.025,0.025 v 0.025 C 644.55,745.8 583.55,771.1 512.05,771.1 440.5,771.1 379.45,745.8 328.9,695.25 l -0.025,-0.025 h 0.025 v 0.025 C 278.35,644.65 253.05,583.6 253.05,512.1 c 0,-0.45 0,-0.85 0,-1.25 h -121 c 0,0.45 0,0.85 0,1.25 0,104.9 37.1,194.45 111.25,268.7 v -0.025 h 0.025 l 0.025,0.025 c 74.2,74.2 163.75,111.3 268.7,111.3 104.9,0 194.45,-37.1 268.65,-111.3 v -0.025 l -0.025,0.025 H 780.7 C 854.95,706.55 892.05,617 892.05,512.1 Z"
         inkscape:connector-curvature="0"
         style="fill:url(#linearGradient865);fill-opacity:1" />
      <path
         id="path5"
         d="m 780.675,243.375 q -0.976,-0.976 -1.95,-1.95 l -85.55,85.55 0.025,0.025 c 0.65,0.65 1.3,1.3 1.95,1.95 l -0.025,-0.025 v 0.025 h 0.025 c 50.3,50.3 75.6,110.95 75.9,181.9 h 121 C 891.75,406.45 854.65,317.3 780.7,243.35 h -0.025 z"
         style="fill:#5bdbc1;fill-opacity:1"
         inkscape:connector-curvature="0" />
      <path
         id="path7"
         d="m 511.05,326.1 v -73"
         inkscape:connector-curvature="0"
         style="fill:none;stroke:#333333;stroke-width:0.1;stroke-linecap:round;stroke-linejoin:round;stroke-opacity:1" />
      <path
         id="path11"
         d="m 693.175,326.975 85.55,-85.55 0.025,0.025 c -73.8,-72.9 -162.7,-109.35 -266.7,-109.35 -0.35,0 -0.65,0 -1,0 v 121 c 0.35,0 0.65,0 1,0 70.55,0 130.95,24.65 181.15,73.9"
         style="fill:#8f76e4;fill-opacity:1"
         inkscape:connector-curvature="0" />
      <path
         id="path12"
         d="m 511.05,132.1 v 121"
         inkscape:connector-curvature="0"
         style="fill:none;stroke:#333333;stroke-width:0.1;stroke-linecap:round;stroke-linejoin:round;stroke-opacity:1" />
      <path
         id="path13"
         d="m 327.9,329.95 c 0.35,-0.35 0.65,-0.65 1,-1 v -0.025 l -0.025,0.025 h 0.025 c 50.35,-50.35 111.05,-75.6 182.15,-75.85 v -121 c -104.5,0.25 -193.75,37.3 -267.7,111.25 h -0.025 l -0.025,0.025 v 0.025 c -0.35,0.3 -0.65,0.65 -0.95,1 l -0.025,-0.025 z"
         style="fill:#a7a7f1;fill-opacity:1"
         inkscape:connector-curvature="0" />
      <path
         id="path14"
         d="m 511.05,253.1 v -121"
         inkscape:connector-curvature="0"
         style="fill:none;stroke:#333333;stroke-width:0.1;stroke-linecap:round;stroke-linejoin:round;stroke-opacity:1" />
      <path
         id="path15"
         d="m 132.05,510.85 h 121 c 0.3,-70.5 25.25,-130.8 74.85,-180.9 l -85.575,-85.575 0.025,0.025 c -73.25,73.7 -110,162.5 -110.3,266.45 z"
         style="fill:#c5c9f5;fill-opacity:1"
         inkscape:connector-curvature="0" />
    </g>
  </g>
  <g
     id="svg2"
     transform="matrix(0.87890625,0,0,0.87890625,49.262408,49.955882)">
    <g
       id="shape4">
      <path
         id="path2"
         d="m 758.8,755.2 q 95.85,-95.85 95.85,-231.45 c 0,-90.4 -31.95,-167.55 -95.85,-231.45 -63.9,-63.9 -141.05,-95.85 -231.45,-95.85 -90.4,0 -167.55,31.95 -231.45,95.85 -63.9,63.9 -95.85,141.05 -95.85,231.45 0,90.4 31.95,167.55 95.85,231.45 63.9,63.9 141.05,95.85 231.45,95.85 90.4,0 167.55,-31.95 231.45,-95.85 z"
         inkscape:connector-curvature="0"
         style="fill:url(#linearGradient890);fill-opacity:1" />
    </g>
  </g>
  <g
     id="Calque.__2012"
     transform="matrix(0.87890625,0,0,0.87890625,50.229205,-61.218003)">
    <g
       id="shape16">
      <path
         id="path16"
         d="m 670.25,210.3 -2.4,5.9 -148.7,493.9 67.1,-10.85 z"
         style="fill:#c8c8c8;fill-opacity:1"
         inkscape:connector-curvature="0" />
      <path
         id="path17"
         d="m 447.05,721.75 72.1,-11.65 148.7,-493.9 z"
         style="fill:#ffffff;fill-opacity:1"
         inkscape:connector-curvature="0" />
    </g>
  </g>
  <g
     id="svg3"
     transform="matrix(0.87890625,0,0,0.87890625,67.876264,-114.15918)">
    <g
       id="shape20">
      <path
         id="path18"
         d="m 469.8,636.6 c -11.1,4.65 -21.25,11.6 -30.45,20.8 -13,13 -21.5,27.85 -25.45,44.6 -1.75,7.35 -2.6,15.05 -2.6,23.1 0,12.6 2.15,24.35 6.4,35.2 13.6,7.4 28.7,11.1 45.35,11.1 26.5,0 49.1,-9.4 67.85,-28.15 12.95,-12.9 21.4,-27.65 25.45,-44.25 1.8,-7.5 2.7,-15.35 2.7,-23.6 0,-12.4 -2.05,-23.95 -6.15,-34.65 -2.15,-1.15 -4.3,-2.25 -6.5,-3.25 -11.95,-5.45 -25.05,-8.15 -39.25,-8.15 q -0.05,0 -0.1,0 c -13.4,0 -25.8,2.4 -37.25,7.25 z"
         style="fill:#ffffff;fill-opacity:1"
         inkscape:connector-curvature="0" />
      <path
         id="path19"
         d="m 463.05,771.4 c -16.65,0 -31.75,-3.7 -45.35,-11.1 4.65,11.9 11.9,22.75 21.65,32.5 18.7,18.7 41.25,28.05 67.7,28.05 26.45,0 49,-9.35 67.7,-28.05 18.7,-18.7 28.05,-41.25 28.05,-67.7 0,-25.65 -8.8,-47.7 -26.45,-66.1 -0.55,-0.55 -1.05,-1.05 -1.6,-1.6 -6.75,-6.75 -14.05,-12.3 -21.85,-16.65 4.1,10.7 6.15,22.25 6.15,34.65 0,8.25 -0.9,16.1 -2.7,23.6 -4.05,16.6 -12.5,31.35 -25.45,44.25 -18.75,18.75 -41.35,28.15 -67.85,28.15 z"
         style="fill:#c8c8c8;fill-opacity:1"
         inkscape:connector-curvature="0" />
    </g>
  </g>
</svg>
