<?xml version="1.0" encoding="UTF-8" standalone="no"?>
<!-- Generator: flash2svg, http://dissentgraphics.com/tools/flash2svg -->

<svg
   xmlns:dc="http://purl.org/dc/elements/1.1/"
   xmlns:cc="http://creativecommons.org/ns#"
   xmlns:rdf="http://www.w3.org/1999/02/22-rdf-syntax-ns#"
   xmlns:svg="http://www.w3.org/2000/svg"
   xmlns="http://www.w3.org/2000/svg"
   xmlns:xlink="http://www.w3.org/1999/xlink"
   xmlns:sodipodi="http://sodipodi.sourceforge.net/DTD/sodipodi-0.dtd"
   xmlns:inkscape="http://www.inkscape.org/namespaces/inkscape"
   id="Calculator"
   image-rendering="optimizeSpeed"
   version="1.1"
   style="background-color:#FFFFFF"
   x="0px"
   y="0px"
   width="1024px"
   height="1024px"
   viewBox="0 0 1024 1024"
   enable-background="new 0 0 1024 1024"
   sodipodi:docname="vlc-alternative.svg"
   inkscape:export-filename="/home/unc/OSX/calculator-app.png"
   inkscape:export-xdpi="4.5"
   inkscape:export-ydpi="4.5"
   inkscape:version="0.92.2 2405546, 2018-03-11">
  <metadata
     id="metadata33">
    <rdf:RDF>
      <cc:Work
         rdf:about="">
        <dc:format>image/svg+xml</dc:format>
        <dc:type
           rdf:resource="http://purl.org/dc/dcmitype/StillImage" />
        <dc:title />
      </cc:Work>
    </rdf:RDF>
  </metadata>
  <sodipodi:namedview
     pagecolor="#ffffff"
     bordercolor="#666666"
     borderopacity="1"
     objecttolerance="10"
     gridtolerance="10"
     guidetolerance="10"
     inkscape:pageopacity="0"
     inkscape:pageshadow="2"
     inkscape:window-width="1366"
     inkscape:window-height="745"
     id="namedview31"
     showgrid="true"
     inkscape:pagecheckerboard="true"
     inkscape:zoom="0.55175781"
     inkscape:cx="239.2354"
     inkscape:cy="514.94486"
     inkscape:window-x="0"
     inkscape:window-y="23"
     inkscape:window-maximized="1"
     inkscape:current-layer="Calculator">
    <inkscape:grid
       type="xygrid"
       id="grid845" />
  </sodipodi:namedview>
  <defs
     transform="matrix(1 0 0 1 0 0) "
     id="defs2">
    <linearGradient
       inkscape:collect="always"
       id="linearGradient998">
      <stop
         style="stop-color:#ffda64;stop-opacity:0.0855615"
         offset="0"
         id="stop990" />
      <stop
         id="stop992"
         offset="0.91073328"
         style="stop-color:#fb7c38;stop-opacity:1" />
      <stop
         style="stop-color:#fb7c38;stop-opacity:1"
         offset="0.91073328"
         id="stop994" />
      <stop
         style="stop-color:#f34f17;stop-opacity:1"
         offset="1"
         id="stop996" />
    </linearGradient>
    <linearGradient
       id="linearGradient938"
       inkscape:collect="always">
      <stop
         id="stop934"
         offset="0"
         style="stop-color:#ffda64;stop-opacity:1" />
      <stop
         style="stop-color:#fb7c38;stop-opacity:1"
         offset="0.35151976"
         id="stop940" />
      <stop
         id="stop942"
         offset="0.44975692"
         style="stop-color:#fb7c38;stop-opacity:1" />
      <stop
         id="stop936"
         offset="1"
         style="stop-color:#f34f17;stop-opacity:1" />
    </linearGradient>
    <linearGradient
       inkscape:collect="always"
       id="linearGradient902">
      <stop
         style="stop-color:#ffffff;stop-opacity:1;"
         offset="0"
         id="stop898" />
      <stop
         id="stop944"
         offset="0.59999996"
         style="stop-color:#ebebeb;stop-opacity:1;" />
      <stop
         style="stop-color:#d7d7d7;stop-opacity:1"
         offset="1"
         id="stop900" />
    </linearGradient>
    <linearGradient
       id="linearGradient840"
       inkscape:collect="always">
      <stop
         id="stop835"
         offset="0"
         style="stop-color:#ffffff;stop-opacity:1" />
      <stop
         id="stop838"
         offset="1"
         style="stop-color:#d7d7d7;stop-opacity:1" />
    </linearGradient>
    <linearGradient
       inkscape:collect="always"
       id="linearGradient851">
      <stop
         style="stop-color:#fec589;stop-opacity:1"
         offset="0"
         id="stop847" />
      <stop
         style="stop-color:#f34f17;stop-opacity:1"
         offset="1"
         id="stop849" />
    </linearGradient>
    <linearGradient
       inkscape:collect="always"
       xlink:href="#linearGradient840"
       id="linearGradient843"
       x1="520"
       y1="4"
       x2="520.03137"
       y2="1026.0078"
       gradientUnits="userSpaceOnUse" />
    <linearGradient
       inkscape:collect="always"
       xlink:href="#linearGradient851"
       id="linearGradient853"
       x1="520"
       y1="4"
       x2="520"
       y2="1024"
       gradientUnits="userSpaceOnUse" />
    <linearGradient
       inkscape:collect="always"
       xlink:href="#linearGradient938"
       id="linearGradient899"
       gradientUnits="userSpaceOnUse"
       x1="520.31714"
       y1="-138.45941"
       x2="520.31714"
       y2="1484.8115" />
    <linearGradient
       inkscape:collect="always"
       xlink:href="#linearGradient851"
       id="linearGradient901"
       gradientUnits="userSpaceOnUse"
       x1="520"
       y1="4"
       x2="520"
       y2="1024" />
    <linearGradient
       inkscape:collect="always"
       xlink:href="#linearGradient902"
       id="linearGradient904"
       x1="49.581989"
       y1="-40.76355"
       x2="49.581989"
       y2="120.92159"
       gradientUnits="userSpaceOnUse"
       gradientTransform="translate(0,3.2450385)" />
    <filter
       inkscape:collect="always"
       style="color-interpolation-filters:sRGB"
       id="filter924"
       x="-0.034875299"
       width="1.0697506"
       y="-0.03719966"
       height="1.0743993">
      <feGaussianBlur
         inkscape:collect="always"
         stdDeviation="1.3949989"
         id="feGaussianBlur926" />
    </filter>
    <radialGradient
       inkscape:collect="always"
       xlink:href="#linearGradient998"
       id="radialGradient988"
       cx="511.79999"
       cy="511.35001"
       fx="511.79999"
       fy="511.35001"
       r="471.45001"
       gradientUnits="userSpaceOnUse"
       gradientTransform="matrix(1.0807651,0.02444214,-0.0244393,1.0806398,-28.838557,-53.744647)" />
  </defs>
  <g
     id="shadow"
     transform="matrix(0.87890625,0,0,0.87890625,65,59)">
    <g
       id="shape">
      <path
         id="path"
         d="m 986.739,315.98644 q -9.3288,-22.61695 -21.0441,-44.31186 c -4.3932,-8.18983 -9.0576,-16.32543 -13.9932,-24.29831 C 930.49492,212.98983 904.62373,180.50169 874.08814,149.9661 774.12881,50.00678 653.39661,0 512,0 370.60339,0 249.92542,50.00678 149.9661,149.9661 50.00678,249.92542 0,370.60339 0,512 0,653.39661 50.00678,774.12881 149.9661,874.08814 249.92542,974.04746 370.60339,1024 512,1024 653.39661,1024 774.12881,974.04746 874.08814,874.08814 929.13898,818.98305 969.0576,757.58644 993.7898,689.95254 1013.9119,634.79322 1024,575.51186 1024,512 c 0,-48.70508 -5.9119,-94.96949 -17.7898,-138.79322 -1.356,-4.93559 -2.7661,-9.87119 -4.2305,-14.75254 -4.4475,-14.42712 -9.5458,-28.58305 -15.2407,-42.4678 z"
         style="fill:url(#linearGradient843);fill-opacity:1;stroke-width:1.08474576"
         inkscape:connector-curvature="0" />
    </g>
  </g>
  <g
     id="circle"
     style="fill:url(#linearGradient853);fill-opacity:1"
     transform="matrix(0.88057495,0,0,0.88057495,63.880566,59.159177)">
    <g
       id="shape2"
       style="fill:url(#linearGradient901);fill-opacity:1">
      <path
         id="path1"
         d="m 983.25,511.35 c 0,-7.95 -0.2,-15.85 -0.5,-23.55 Q 974.75,307.65 845.2,177.95 C 753.15,85.95 642,39.9 511.8,39.9 c -130.15,0 -241.35,46.05 -333.35,138.05 -92.05,92 -138.1,203.2 -138.1,333.4 0,130.15 46.05,241.35 138.1,333.35 86.15,86.3 189.35,132.15 309.15,137.6 8,0.3 16,0.5 24.2,0.5 130.2,0 241.35,-46.1 333.4,-138.1 92,-92 138.05,-203.2 138.05,-333.35 z"
         style="fill:url(#linearGradient899);fill-opacity:1"
         inkscape:connector-curvature="0" />
      <path
         inkscape:connector-curvature="0"
         style="opacity:0.2;fill:url(#radialGradient988);fill-opacity:1"
         d="m 983.25,511.35 c 0,-7.95 -0.2,-15.85 -0.5,-23.55 Q 974.75,307.65 845.2,177.95 C 753.15,85.95 642,39.9 511.8,39.9 c -130.15,0 -241.35,46.05 -333.35,138.05 -92.05,92 -138.1,203.2 -138.1,333.4 0,130.15 46.05,241.35 138.1,333.35 86.15,86.3 189.35,132.15 309.15,137.6 8,0.3 16,0.5 24.2,0.5 130.2,0 241.35,-46.1 333.4,-138.1 92,-92 138.05,-203.2 138.05,-333.35 z"
         id="path986" />
    </g>
  </g>
  <g
     id="g896"
     transform="matrix(5.3437086,0,0,5.3437086,257.26897,233.55906)">
    <g
       id="g840">
      <path
         style="opacity:0.2;fill:#000000;fill-opacity:1;filter:url(#filter924)"
         inkscape:connector-curvature="0"
         d="m 47.998,63.433539 c 11.951,0 21.955,-4.061 22.561,-9.362 -1.777,-4.985 -3.715,-10.421 -5.619,-15.764 -1.322,3.811 -8.623,6.498 -16.941,6.498 -8.316,0 -15.617,-2.688 -16.941,-6.497 -1.904,5.342 -3.84,10.777 -5.617,15.763 0.604,5.301 10.606,9.362 22.557,9.362 z m 0,-33.526 c 5.617,0 10.836,-1.739 12.363,-4.439 -2.105,-5.913 -3.914,-10.985999 -5.057,-14.186999 -0.759,-2.133 -4.201,-3.241 -7.306,-3.241 -3.105,0 -6.547,1.108 -7.307,3.241 -1.141,3.201 -2.949,8.273999 -5.057,14.186999 1.528,2.7 6.749,4.439 12.364,4.439 z m 43.904,38.465 -18.777,-7.563 2.162,6.033 c -0.109,6.394 -12.521,11.489 -27.289,11.489 -14.766,0 -27.18,-5.095 -27.287,-11.489 l 2.16,-6.033 -18.775,7.563 c -5.264,2.121 -5.484,6.049 -0.49,8.726 l 35.312,18.935 c 4.994,2.677 13.168,2.677 18.162,0 l 35.312,-18.935 c 4.995,-2.677 4.774,-6.605 -0.49,-8.726 z"
         id="path906" />
      <path
         id="path838"
         d="m 47.998,61.637039 c 11.951,0 21.955,-4.061 22.561,-9.362 -1.777,-4.985 -3.715,-10.421 -5.619,-15.764 -1.322,3.811 -8.623,6.498 -16.941,6.498 -8.316,0 -15.617,-2.688 -16.941,-6.497 -1.904,5.342 -3.84,10.777 -5.617,15.763 0.604,5.301 10.606,9.362 22.557,9.362 z m 0,-33.526 c 5.617,0 10.836,-1.739 12.363,-4.439 -2.105,-5.913 -3.914,-10.986 -5.057,-14.1870005 -0.759,-2.133 -4.201,-3.241 -7.306,-3.241 -3.105,0 -6.547,1.108 -7.307,3.241 -1.141,3.2010005 -2.949,8.2740005 -5.057,14.1870005 1.528,2.7 6.749,4.439 12.364,4.439 z m 43.904,38.465 -18.777,-7.563 2.162,6.033 c -0.109,6.394 -12.521,11.489 -27.289,11.489 -14.766,0 -27.18,-5.095 -27.287,-11.489 l 2.16,-6.033 -18.775,7.563 c -5.264,2.121 -5.484,6.049 -0.49,8.726 l 35.312,18.935 c 4.994,2.677 13.168,2.677 18.162,0 l 35.312,-18.935 c 4.995,-2.677 4.774,-6.605 -0.49,-8.726 z"
         inkscape:connector-curvature="0"
         style="fill:url(#linearGradient904);fill-opacity:1" />
    </g>
    <g
       id="g842" />
    <g
       id="g844" />
    <g
       id="g846" />
    <g
       id="g848" />
    <g
       id="g850" />
    <g
       id="g852" />
    <g
       id="g854" />
    <g
       id="g856" />
    <g
       id="g858" />
    <g
       id="g860" />
    <g
       id="g862" />
    <g
       id="g864" />
    <g
       id="g866" />
    <g
       id="g868" />
    <g
       id="g870" />
  </g>
</svg>
