<?xml version="1.0" encoding="UTF-8" standalone="no"?>
<!-- Created with Inkscape (http://www.inkscape.org/) -->

<svg
   xmlns:dc="http://purl.org/dc/elements/1.1/"
   xmlns:cc="http://creativecommons.org/ns#"
   xmlns:rdf="http://www.w3.org/1999/02/22-rdf-syntax-ns#"
   xmlns:svg="http://www.w3.org/2000/svg"
   xmlns="http://www.w3.org/2000/svg"
   xmlns:xlink="http://www.w3.org/1999/xlink"
   xmlns:sodipodi="http://sodipodi.sourceforge.net/DTD/sodipodi-0.dtd"
   xmlns:inkscape="http://www.inkscape.org/namespaces/inkscape"
   id="svg4061"
   height="48"
   width="48"
   version="1.1"
   inkscape:version="0.92.2 (unknown)"
   sodipodi:docname="winecfg.svg">
  <sodipodi:namedview
     pagecolor="#ffffff"
     bordercolor="#666666"
     borderopacity="1"
     objecttolerance="10"
     gridtolerance="10"
     guidetolerance="10"
     inkscape:pageopacity="0"
     inkscape:pageshadow="2"
     inkscape:window-width="1378"
     inkscape:window-height="894"
     id="namedview40"
     showgrid="false"
     inkscape:zoom="9.8333333"
     inkscape:cx="16.785466"
     inkscape:cy="17.420478"
     inkscape:window-x="1018"
     inkscape:window-y="213"
     inkscape:window-maximized="0"
     inkscape:current-layer="g4206" />
  <defs
     id="defs4063">
    <linearGradient
       inkscape:collect="always"
       id="linearGradient3361">
      <stop
         style="stop-color:#0068e0;stop-opacity:1;"
         offset="0"
         id="stop3363" />
      <stop
         style="stop-color:#00acf4;stop-opacity:1"
         offset="1"
         id="stop3365" />
    </linearGradient>
    <linearGradient
       id="linearGradient3026"
       y2="40.495998"
       gradientUnits="userSpaceOnUse"
       x2="71.204002"
       gradientTransform="matrix(1.656439,0,0,1.656439,-95.553508,-22.159024)"
       y1="15.369"
       x1="71.204002"
       xlink:href="#linearGradient3361">
      <stop
         id="stop4808-4"
         stop-color="#fff"
         offset="0" />
      <stop
         id="stop4810-0"
         stop-color="#fff"
         stop-opacity=".23529"
         offset=".42448" />
      <stop
         id="stop4812-8"
         stop-color="#fff"
         stop-opacity=".15686"
         offset=".82090" />
      <stop
         id="stop4814-0"
         stop-color="#fff"
         stop-opacity=".39216"
         offset="1" />
    </linearGradient>
    <radialGradient
       id="radialGradient3029"
       fx="4.459"
       fy="8.5089"
       gradientUnits="userSpaceOnUse"
       cy="8.6258"
       cx="15.026"
       gradientTransform="matrix(-3.4973e-8 1.8855 -1.7764 -5.4723e-8 39.14 -7.9932)"
       r="20">
      <stop
         id="stop4170"
         stop-color="#c24251"
         offset="0" />
      <stop
         id="stop4172"
         stop-color="#c24251"
         offset=".26238" />
      <stop
         id="stop4174"
         stop-color="#a63643"
         offset=".66094" />
      <stop
         id="stop4176"
         stop-color="#a63643"
         offset="1" />
    </radialGradient>
    <radialGradient
       id="radialGradient3032"
       gradientUnits="userSpaceOnUse"
       cy="3.99"
       cx="23.896"
       gradientTransform="matrix(0,2.9589511,-3.905795,0,39.584047,-68.1439)"
       r="20.397">
      <stop
         id="stop3244-9-33-7-0-9"
         stop-color="#fff"
         offset="0" />
      <stop
         id="stop3246-3-5-0-8-5"
         stop-color="#ddd"
         offset=".26238" />
      <stop
         id="stop3248-1-7-8-8-1"
         stop-color="#abacae"
         offset=".66094" />
      <stop
         id="stop3250-9-3-0-5-1"
         stop-color="#89898b"
         offset="1" />
    </radialGradient>
    <radialGradient
       id="radialGradient3035"
       gradientUnits="userSpaceOnUse"
       cy="186.17"
       cx="99.157"
       gradientTransform="matrix(0.27083,0,0,0.087623,-2.8550999,26.187597)"
       r="62.769">
      <stop
         id="stop3822-2-6-3"
         stop-color="#3d3d3d"
         offset="0" />
      <stop
         id="stop3864-8-7-7"
         stop-color="#686868"
         stop-opacity=".49804"
         offset=".5" />
      <stop
         id="stop3824-1-2-5"
         stop-color="#686868"
         stop-opacity="0"
         offset="1" />
    </radialGradient>
    <linearGradient
       id="linearGradient4433"
       y2="25.611"
       gradientUnits="userSpaceOnUse"
       x2="23.078"
       gradientTransform="matrix(1 0 0 1.0521 0 -.90547)"
       y1="13.035"
       x1="22.759">
      <stop
         id="stop6305-1-0-2"
         stop-color="#fff"
         offset="0" />
      <stop
         id="stop6307-5-0-6"
         stop-color="#fff"
         stop-opacity="0"
         offset="1" />
    </linearGradient>
    <linearGradient
       inkscape:collect="always"
       xlink:href="#linearGradient3361"
       id="linearGradient3367"
       x1="25.016949"
       y1="36"
       x2="25.016951"
       y2="9.7627115"
       gradientUnits="userSpaceOnUse"
       gradientTransform="matrix(1.0243902,0,0,1.0243902,-0.58536585,-0.5853659)" />
    <linearGradient
       id="linearGradient4829">
      <stop
         style="stop-color:#f4fbfc;stop-opacity:1;"
         offset="0"
         id="stop4831" />
      <stop
         style="stop-color:#d6d6d6;stop-opacity:1;"
         offset="1"
         id="stop4833" />
    </linearGradient>
    <radialGradient
       id="SVGID_4_"
       cx="224.50391"
       cy="186.51421"
       r="127.0051"
       gradientUnits="userSpaceOnUse">
      <stop
         offset="0"
         style="stop-color:#FFFFFF"
         id="stop27" />
      <stop
         offset="0.3984"
         style="stop-color:#FDFEFF"
         id="stop29" />
      <stop
         offset="0.6131"
         style="stop-color:#F5FAFF"
         id="stop31" />
      <stop
         offset="0.7841"
         style="stop-color:#E7F3FF"
         id="stop33" />
      <stop
         offset="0.9311"
         style="stop-color:#D4EAFF"
         id="stop35" />
      <stop
         offset="1"
         style="stop-color:#C8E4FF"
         id="stop37" />
    </radialGradient>
    <radialGradient
       gradientUnits="userSpaceOnUse"
       r="26.769501"
       cy="286.66409"
       cx="324.69339"
       id="SVGID_5_">
      <stop
         id="stop50"
         style="stop-color:#FFFFFF"
         offset="0" />
      <stop
         id="stop52"
         style="stop-color:#FDFEFF"
         offset="0.3984" />
      <stop
         id="stop54"
         style="stop-color:#F5FAFF"
         offset="0.6131" />
      <stop
         id="stop56"
         style="stop-color:#E7F3FF"
         offset="0.7841" />
      <stop
         id="stop58"
         style="stop-color:#D4EAFF"
         offset="0.9311" />
      <stop
         id="stop60"
         style="stop-color:#C8E4FF"
         offset="1" />
    </radialGradient>
    <radialGradient
       gradientUnits="userSpaceOnUse"
       r="46.444901"
       cy="392.77249"
       cx="325"
       id="SVGID_6_">
      <stop
         id="stop73"
         style="stop-color:#FFFFFF"
         offset="0" />
      <stop
         id="stop75"
         style="stop-color:#FDFEFF"
         offset="0.3984" />
      <stop
         id="stop77"
         style="stop-color:#F5FAFF"
         offset="0.6131" />
      <stop
         id="stop79"
         style="stop-color:#E7F3FF"
         offset="0.7841" />
      <stop
         id="stop81"
         style="stop-color:#D4EAFF"
         offset="0.9311" />
      <stop
         id="stop83"
         style="stop-color:#C8E4FF"
         offset="1" />
    </radialGradient>
    <radialGradient
       id="radialGradient3026-0"
       cx="6.7027001"
       gradientUnits="userSpaceOnUse"
       cy="73.615997"
       r="7.2284002"
       gradientTransform="matrix(1.6601,0,0,0.36315,1.2796331,-5.0624646)">
      <stop
         id="stop8840"
         offset="0" />
      <stop
         id="stop8842"
         stop-opacity="0"
         offset="1" />
    </radialGradient>
    <linearGradient
       id="linearGradient3021"
       y2="47.012001"
       gradientUnits="userSpaceOnUse"
       x2="32.035999"
       gradientTransform="matrix(0.77778,0,0,0.77778,-11.704217,-13.370865)"
       y1="19"
       x1="32.035999">
      <stop
         id="stop3311"
         stop-color="#f6f6f6"
         offset="0" />
      <stop
         id="stop3313"
         stop-color="#d2d2d2"
         offset="1" />
    </linearGradient>
    <linearGradient
       id="linearGradient3017"
       y2="20.895"
       gradientUnits="userSpaceOnUse"
       x2="84.639"
       gradientTransform="matrix(0.15623,0,0,0.15623,2.4079831,2.4535354)"
       y1="105.1"
       x1="86.133003">
      <stop
         id="stop5130-3"
         stop-color="#fff"
         offset="0" />
      <stop
         id="stop5132-4"
         stop-color="#959595"
         offset="1" />
    </linearGradient>
    <linearGradient
       gradientTransform="translate(0.40678305,0.29613544)"
       id="linearGradient3014"
       y2="22.007"
       xlink:href="#linearGradient3983"
       gradientUnits="userSpaceOnUse"
       x2="12.479"
       y1="2"
       x1="12.479" />
    <linearGradient
       id="linearGradient3983">
      <stop
         id="stop3985"
         stop-color="#fff"
         offset="0" />
      <stop
         id="stop3987"
         stop-color="#fff"
         stop-opacity="0"
         offset="1" />
    </linearGradient>
    <linearGradient
       id="linearGradient3011"
       y2="8"
       xlink:href="#linearGradient3983"
       gradientUnits="userSpaceOnUse"
       x2="12"
       gradientTransform="matrix(1.0116,0,0,1.0116,0.26754305,0.15689544)"
       y1="16"
       x1="12" />
    <radialGradient
       id="radialGradient3026-0-3"
       cx="6.7027001"
       gradientUnits="userSpaceOnUse"
       cy="73.615997"
       r="7.2284002"
       gradientTransform="matrix(1.6601,0,0,0.36315,1.2796331,-5.0624646)">
      <stop
         id="stop8840-6"
         offset="0" />
      <stop
         id="stop8842-7"
         stop-opacity="0"
         offset="1" />
    </radialGradient>
    <radialGradient
       id="radialGradient3026-0-3-1"
       cx="6.7027001"
       gradientUnits="userSpaceOnUse"
       cy="73.615997"
       r="7.2284002"
       gradientTransform="matrix(1.6601,0,0,0.36315,1.2796331,-5.0624646)">
      <stop
         id="stop8840-6-2"
         offset="0" />
      <stop
         id="stop8842-7-7"
         stop-opacity="0"
         offset="1" />
    </radialGradient>
  </defs>
  <metadata
     id="metadata4066">
    <rdf:RDF>
      <cc:Work
         rdf:about="">
        <dc:format>image/svg+xml</dc:format>
        <dc:type
           rdf:resource="http://purl.org/dc/dcmitype/StillImage" />
        <dc:title />
      </cc:Work>
    </rdf:RDF>
  </metadata>
  <g
     id="g4206">
    <path
       id="path3818-0-5"
       d="m 41,42.500597 a 17,5.5 0 0 1 -33.9999999,0 17,5.5 0 1 1 33.9999999,0 z"
       inkscape:connector-curvature="0"
       style="fill:url(#radialGradient3035)" />
    <path
       id="path2555-7-2"
       style="color:#000000;fill:url(#radialGradient3032);stroke-width:1.02439022"
       d="M 24,3 C 12.413122,3 3,12.413122 3,24 3,35.586878 12.413122,45 24,45 35.586878,45 45,35.586878 45,24 45,12.413122 35.586878,3 24,3 Z"
       inkscape:connector-curvature="0" />
    <path
       id="path2555-7-65"
       style="color:#000000;fill:url(#linearGradient3367);fill-opacity:1;stroke-width:1.02439022"
       d="M 24,3 C 12.413122,3 3,12.413122 3,24 3,35.586878 12.413122,45 24,45 35.586878,45 45,35.586878 45,24 45,12.413122 35.586878,3 24,3 Z"
       inkscape:connector-curvature="0" />
    <path
       id="path4176"
       style="color:#000000;opacity:0.5;fill:none;stroke:url(#linearGradient3026);stroke-width:1.02439022;stroke-linecap:round;stroke-linejoin:round"
       d="M 43.97561,24 C 43.97561,35.032683 35.032683,43.97561 24,43.97561 12.967317,43.97561 4.0243902,35.032683 4.0243902,24 4.0243902,12.967317 12.967317,4.0243902 24,4.0243902 35.032683,4.0243902 43.97561,12.967317 43.97561,24 Z"
       inkscape:connector-curvature="0" />
    <path
       id="path2555-7-1-7"
       style="color:#000000;opacity:1;fill:none;fill-opacity:1;stroke:#fbfbfb;stroke-width:1.79999995;stroke-linecap:round;stroke-linejoin:round;stroke-miterlimit:4;stroke-dasharray:none;stroke-opacity:1"
       d="m 24,3.5001 c -11.311,0 -20.5,9.1888 -20.5,20.5 0,11.3112 9.1888,20.5 20.5,20.5 11.3112,0 20.5,-9.1888 20.5,-20.5 0,-11.3112 -9.189,-20.5 -20.5,-20.5 z"
       inkscape:connector-curvature="0" />
    <g
       id="g4317"
       transform="matrix(1.0002,0,0,1.0004,-1.0018,-0.0050486)"
       style="fill:none;stroke:#000000;stroke-linecap:round;stroke-linejoin:round" />
    <g
       transform="matrix(0.04540948,0,0,0.04268327,62.499983,19.50785)"
       id="g5083"
       style="opacity:0.15">
      <g
         id="g5085">
        <path
           d="m -1103.0016,111.72971 -0.175,-156.039998 191.99998,-26.072 V 111.72771 h -191.81998 z m 223.81998,-186.759998 255.94,-37.241002 v 224 h -255.94 V -75.031288 Z m 256,218.759998 -0.062,224 -255.94,-36.008 v -187.99 h 256 z m -288,183.92 -191.83998,-26.3 -0.013,-157.62 h 191.84998 v 183.92 z"
           id="path5087"
           inkscape:connector-curvature="0" />
      </g>
    </g>
    <g
       style="fill:#ffffff"
       id="g5878"
       transform="matrix(0.04268327,0,0,0.04268327,13.016445,13.964302)">
      <g
         style="fill:#ffffff"
         id="g5838">
        <path
           style="fill:#ffffff"
           inkscape:connector-curvature="0"
           id="path5840"
           d="M 0.176,224 0.001,67.96 l 192,-26.072 v 182.11 H 0.181 Z M 223.996,37.24 479.936,-0.001 v 224 H 223.996 V 37.239 Z m 256,218.76 -0.062,224 -255.94,-36.008 v -187.99 h 256 z m -288,183.92 L 0.156,413.62 0.143,256 h 191.85 v 183.92 z" />
      </g>
    </g>
    <g
       id="g3086"
       transform="translate(21.44059,23.173364)">
      <path
         style="opacity:0.2;fill:url(#radialGradient3026-0-3-1)"
         inkscape:connector-curvature="0"
         id="path10689"
         d="M 24,21.375 C 24,22.825 18.627,24 12,24 5.3727,24 0,22.825 0,21.375 1.3481e-4,19.925 5.3727,18.75 12,18.75 c 6.6273,0 12,1.1753 12,2.625 z" />
      <path
         inkscape:connector-curvature="0"
         id="rect3623"
         style="color:#000000;display:block;fill:url(#linearGradient3021)"
         d="m 10.5,1.5 c -0.554,0 -1,0.446 -1,1 V 3.875 C 8.9927,4.0308 8.4932,4.2255 8.0312,4.4688 L 7.0625,3.5 C 6.6708,3.1083 6.0167,3.1083 5.625,3.5 L 3.5,5.625 C 3.1083,6.0167 3.1083,6.6708 3.5,7.0625 L 4.4688,8.0312 C 4.2255,8.4932 4.0308,8.9927 3.875,9.5 H 2.5 c -0.554,0 -1,0.446 -1,1 v 3 c 0,0.554 0.446,1 1,1 h 1.375 c 0.15578,0.50733 0.35047,1.0068 0.59375,1.4688 l -0.9688,0.969 c -0.39174,0.39174 -0.39174,1.0458 0,1.4375 l 2.125,2.124 c 0.39174,0.39174 1.0458,0.39174 1.4375,0 l 0.9687,-0.969 c 0.462,0.244 0.9615,0.438 1.4688,0.594 v 1.375 c 0,0.554 0.446,1 1,1 h 3 c 0.554,0 1,-0.446 1,-1 v -1.375 c 0.50733,-0.15578 1.0068,-0.35047 1.4688,-0.59375 l 0.969,0.969 c 0.39174,0.39174 1.0458,0.39174 1.4375,0 l 2.124,-2.125 c 0.39174,-0.39174 0.39174,-1.0458 0,-1.4375 l -0.969,-0.969 c 0.244,-0.462 0.438,-0.962 0.594,-1.469 h 1.375 c 0.554,0 1,-0.446 1,-1 v -3 c 0,-0.554 -0.446,-1 -1,-1 h -1.375 c -0.156,-0.5073 -0.35,-1.0068 -0.594,-1.4688 l 0.969,-0.9687 c 0.39174,-0.39174 0.39174,-1.0458 0,-1.4375 l -2.125,-2.125 c -0.392,-0.3917 -1.046,-0.3917 -1.437,0 l -0.969,0.9688 c -0.462,-0.2433 -0.962,-0.438 -1.469,-0.5938 v -1.375 c 0,-0.554 -0.446,-1 -1,-1 h -3 z m 1.5,8 c 1.3807,0 2.5,1.1193 2.5,2.5 0,1.3807 -1.1193,2.5 -2.5,2.5 -1.3807,0 -2.5,-1.1193 -2.5,-2.5 0,-1.3807 1.1193,-2.5 2.5,-2.5 z"
         display="block" />
      <path
         style="opacity:0.05"
         inkscape:connector-curvature="0"
         id="path3315"
         d="m 12,6 c -3.3103,0 -6,2.6897 -6,6 0,3.3103 2.6897,6 6,6 3.3103,0 6,-2.6897 6,-6 0,-3.3103 -2.6897,-6 -6,-6 z m 0,3 c 1.6569,0 3,1.3431 3,3 0,1.6569 -1.3431,3 -3,3 -1.6569,0 -3,-1.3431 -3,-3 0,-1.6569 1.3431,-3 3,-3 z" />
      <path
         style="fill:none;stroke:url(#linearGradient3017)"
         inkscape:connector-curvature="0"
         id="path28"
         d="m 12,5.5 c -3.5841,0 -6.5,2.9159 -6.5,6.5 0,3.584 2.9159,6.5 6.5,6.5 3.5841,0 6.5,-2.9159 6.5,-6.5 0,-3.5841 -2.9159,-6.5 -6.5,-6.5 z" />
      <path
         inkscape:connector-curvature="0"
         id="path3799"
         style="color:#000000;display:block;opacity:0.8;fill:none;stroke:url(#linearGradient3014);stroke-linejoin:round"
         d="M 10.5,2.4688 C 10.426,2.8575 10.49,3.3699 10.469,3.8052 10.533,4.5833 9.6985,4.858 9.1005,5.0218 8.5534,5.333 7.7515,5.6937 7.2635,5.076 L 6.375,4.1875 C 5.9433,4.4742 5.5902,4.9508 5.189,5.311 4.8695,5.6716 4.4334,5.9839 4.1875,6.375 4.5945,6.8651 5.236,7.2126 5.4133,7.852 5.3886,8.6504 4.8731,9.3812 4.6009,10.119 4.0991,10.683 3.2859,10.4 2.6266,10.469 2.282,10.456 2.5562,11.055 2.4688,11.294 c 0.00121,0.74498 -0.0024,1.4901 0.00179,2.235 0.64556,0.06419 1.357,-0.15058 1.9455,0.17967 0.55561,0.57921 0.67564,1.4741 1.0068,2.1888 0.04177,0.75274 -0.73231,1.1264 -1.1493,1.6411 -0.21739,0.27241 0.38528,0.50415 0.51592,0.75037 l 1.5231,1.5231 c 0.52246,-0.30487 0.83973,-0.98896 1.4454,-1.2049 0.81514,-0.10665 1.5137,0.54645 2.2838,0.73398 0.65069,0.45208 0.36353,1.3104 0.42699,1.9752 -0.08851,0.41848 0.52786,0.12987 0.76896,0.21456 0.7639,-0.0012 1.5279,0.0024 2.2917,-0.0018 0.06419,-0.64556 -0.15058,-1.357 0.17967,-1.9455 0.57921,-0.55561 1.4741,-0.67564 2.1888,-1.0068 0.75274,-0.04177 1.1264,0.73231 1.6411,1.1493 0.27241,0.21739 0.50415,-0.38528 0.75037,-0.51592 l 1.5231,-1.5231 c -0.30487,-0.52246 -0.98896,-0.83973 -1.2049,-1.4454 -0.10665,-0.81514 0.54645,-1.5137 0.73398,-2.2838 0.45208,-0.65069 1.3104,-0.36353 1.9752,-0.42699 0.41848,0.08851 0.12987,-0.52786 0.21456,-0.76896 -0.0012,-0.7639 0.0024,-1.5279 -0.0018,-2.2917 -0.64556,-0.06419 -1.357,0.15058 -1.9455,-0.17967 -0.557,-0.5783 -0.677,-1.4732 -1.008,-2.1879 -0.042,-0.7527 0.733,-1.1264 1.15,-1.6411 0.217,-0.2724 -0.386,-0.5042 -0.516,-0.7504 -0.508,-0.5077 -1.016,-1.0154 -1.523,-1.5231 -0.523,0.3049 -0.84,0.989 -1.446,1.2049 -0.815,0.1067 -1.514,-0.5464 -2.284,-0.7339 -0.65,-0.4521 -0.363,-1.3105 -0.427,-1.9752 0.089,-0.4185 -0.528,-0.1299 -0.769,-0.2145 h -2.2623 z"
         display="block" />
      <path
         inkscape:connector-curvature="0"
         id="path3822"
         style="color:#000000;display:block;opacity:0.4;fill:none;stroke:url(#linearGradient3011)"
         d="m 15.5,12 a 3.5,3.5 0 1 1 -7,0 3.5,3.5 0 1 1 7,0 z"
         display="block" />
      <path
         inkscape:connector-curvature="0"
         id="rect3623-2"
         style="color:#000000;display:block;opacity:0.3;fill:none;stroke:#000000;stroke-linejoin:round"
         d="m 10.5,1.5 c -0.554,0 -1,0.446 -1,1 V 3.875 C 8.9927,4.0308 8.4932,4.2255 8.0312,4.4688 L 7.0625,3.5 C 6.6708,3.1083 6.0167,3.1083 5.625,3.5 L 3.5,5.625 C 3.1083,6.0167 3.1083,6.6708 3.5,7.0625 L 4.4688,8.0312 C 4.2255,8.4932 4.0308,8.9927 3.875,9.5 H 2.5 c -0.554,0 -1,0.446 -1,1 v 3 c 0,0.554 0.446,1 1,1 h 1.375 c 0.15578,0.50733 0.35047,1.0068 0.59375,1.4688 l -0.9688,0.969 c -0.39174,0.39174 -0.39174,1.0458 0,1.4375 l 2.125,2.124 c 0.39174,0.39174 1.0458,0.39174 1.4375,0 l 0.9687,-0.969 c 0.462,0.244 0.9615,0.438 1.4688,0.594 v 1.375 c 0,0.554 0.446,1 1,1 h 3 c 0.554,0 1,-0.446 1,-1 v -1.375 c 0.50733,-0.15578 1.0068,-0.35047 1.4688,-0.59375 l 0.969,0.969 c 0.39174,0.39174 1.0458,0.39174 1.4375,0 l 2.124,-2.125 c 0.39174,-0.39174 0.39174,-1.0458 0,-1.4375 l -0.969,-0.969 c 0.244,-0.462 0.438,-0.962 0.594,-1.469 h 1.375 c 0.554,0 1,-0.446 1,-1 v -3 c 0,-0.554 -0.446,-1 -1,-1 h -1.375 c -0.156,-0.5073 -0.35,-1.0068 -0.594,-1.4688 l 0.969,-0.9687 c 0.39174,-0.39174 0.39174,-1.0458 0,-1.4375 l -2.125,-2.125 c -0.392,-0.3917 -1.046,-0.3917 -1.437,0 l -0.969,0.9688 c -0.462,-0.2433 -0.962,-0.438 -1.469,-0.5938 v -1.375 c 0,-0.554 -0.446,-1 -1,-1 h -3 z m 1.5,8 c 1.3807,0 2.5,1.1193 2.5,2.5 0,1.3807 -1.1193,2.5 -2.5,2.5 -1.3807,0 -2.5,-1.1193 -2.5,-2.5 0,-1.3807 1.1193,-2.5 2.5,-2.5 z"
         display="block" />
    </g>
  </g>
</svg>
