<?xml version="1.0" encoding="UTF-8" standalone="no"?>
<!-- Created with Inkscape (http://www.inkscape.org/) -->

<svg
   xmlns:dc="http://purl.org/dc/elements/1.1/"
   xmlns:cc="http://creativecommons.org/ns#"
   xmlns:rdf="http://www.w3.org/1999/02/22-rdf-syntax-ns#"
   xmlns:svg="http://www.w3.org/2000/svg"
   xmlns="http://www.w3.org/2000/svg"
   xmlns:xlink="http://www.w3.org/1999/xlink"
   xmlns:sodipodi="http://sodipodi.sourceforge.net/DTD/sodipodi-0.dtd"
   xmlns:inkscape="http://www.inkscape.org/namespaces/inkscape"
   id="svg4061"
   height="48"
   width="48"
   version="1.1"
   inkscape:version="0.92.2 (unknown)"
   sodipodi:docname="wps-office-wppmain.svg">
  <sodipodi:namedview
     pagecolor="#ffffff"
     bordercolor="#666666"
     borderopacity="1"
     objecttolerance="10"
     gridtolerance="10"
     guidetolerance="10"
     inkscape:pageopacity="0"
     inkscape:pageshadow="2"
     inkscape:window-width="1571"
     inkscape:window-height="1068"
     id="namedview46"
     showgrid="false"
     inkscape:zoom="6.9532166"
     inkscape:cx="-21.427666"
     inkscape:cy="20.936929"
     inkscape:window-x="617"
     inkscape:window-y="159"
     inkscape:window-maximized="0"
     inkscape:current-layer="svg4061" />
  <defs
     id="defs4063">
    <linearGradient
       inkscape:collect="always"
       id="linearGradient3952">
      <stop
         style="stop-color:#d87408;stop-opacity:1;"
         offset="0"
         id="stop3948" />
      <stop
         style="stop-color:#d89c08;stop-opacity:0.8267327"
         offset="1"
         id="stop3950" />
    </linearGradient>
    <linearGradient
       id="linearGradient3026"
       y2="40.496"
       gradientUnits="userSpaceOnUse"
       x2="71.204"
       gradientTransform="matrix(1.5765768,0,0,1.5907751,-89.969463,-20.329304)"
       y1="15.369"
       x1="71.204">
      <stop
         id="stop4808-4"
         stop-color="#fff"
         offset="0" />
      <stop
         id="stop4810-0"
         stop-color="#fff"
         stop-opacity=".23529"
         offset=".42448" />
      <stop
         id="stop4812-8"
         stop-color="#fff"
         stop-opacity=".15686"
         offset=".82090" />
      <stop
         id="stop4814-0"
         stop-color="#fff"
         stop-opacity=".39216"
         offset="1" />
    </linearGradient>
    <radialGradient
       id="radialGradient3029"
       fx="4.459"
       fy="8.5089"
       gradientUnits="userSpaceOnUse"
       cy="8.6258"
       cx="15.026"
       gradientTransform="matrix(-3.4973e-8 1.8855 -1.7764 -5.4723e-8 39.14 -7.9932)"
       r="20">
      <stop
         id="stop4170"
         stop-color="#ff9696"
         offset="0" />
      <stop
         id="stop4172"
         stop-color="#fd7676"
         offset="0.1668274" />
      <stop
         id="stop4174"
         stop-color="#f94040"
         offset="0.48762146" />
      <stop
         id="stop4176"
         stop-color="#e42020"
         offset="1"
         style="stop-color:#e77f5b;stop-opacity:1" />
    </radialGradient>
    <radialGradient
       id="radialGradient3032"
       gradientUnits="userSpaceOnUse"
       cy="3.99"
       cx="23.896"
       gradientTransform="matrix(0,2.8416537,-3.7174845,0,38.652691,-64.491267)"
       r="20.397">
      <stop
         id="stop3244-9-33-7-0-9"
         stop-color="#fff"
         offset="0" />
      <stop
         id="stop3246-3-5-0-8-5"
         stop-color="#ddd"
         offset=".26238" />
      <stop
         id="stop3248-1-7-8-8-1"
         stop-color="#abacae"
         offset=".66094" />
      <stop
         id="stop3250-9-3-0-5-1"
         stop-color="#89898b"
         offset="1" />
    </radialGradient>
    <radialGradient
       id="radialGradient3035"
       gradientUnits="userSpaceOnUse"
       cy="186.17"
       cx="99.157"
       gradientTransform="matrix(0.26869328,0,0,0.0869317,-2.7773479,26.359093)"
       r="62.769">
      <stop
         id="stop3822-2-6-3"
         stop-color="#3d3d3d"
         offset="0" />
      <stop
         id="stop3864-8-7-7"
         stop-color="#686868"
         stop-opacity=".49804"
         offset=".5" />
      <stop
         id="stop3824-1-2-5"
         stop-color="#686868"
         stop-opacity="0"
         offset="1" />
    </radialGradient>
    <linearGradient
       id="ButtonShadow"
       y2="7.0165"
       gradientUnits="userSpaceOnUse"
       x2="45.448"
       gradientTransform="scale(1.0059 .99417)"
       y1="92.54"
       x1="45.448">
      <stop
         id="stop3750"
         offset="0" />
      <stop
         id="stop3752"
         stop-opacity=".58824"
         offset="1" />
    </linearGradient>
    <filter
       id="filter3174"
       style="color-interpolation-filters:sRGB">
      <feGaussianBlur
         id="feGaussianBlur3176"
         stdDeviation="1.71" />
    </filter>
    <linearGradient
       id="linearGradient3185"
       y2="-167.53"
       xlink:href="#SVGID_14_"
       gradientUnits="userSpaceOnUse"
       x2="206.69"
       gradientTransform="matrix(.72832 0 0 -.72832 -295.83 -108.58)"
       y1="-167.53"
       x1="206.69" />
    <linearGradient
       id="SVGID_14_"
       y2="-167.53"
       gradientUnits="userSpaceOnUse"
       x2="206.69"
       gradientTransform="matrix(1 0 0 -1 -270.96 -122.07)"
       y1="-167.53"
       x1="206.69">
      <stop
         id="stop3506"
         stop-color="#7e9ec4"
         offset="0" />
      <stop
         id="stop3508"
         stop-color="#151d89"
         offset="1" />
    </linearGradient>
    <linearGradient
       id="linearGradient3182"
       y2="-167.53"
       xlink:href="#SVGID_14_"
       gradientUnits="userSpaceOnUse"
       x2="206.69"
       gradientTransform="matrix(.72832 0 0 -.72832 -375.83 -107.58)"
       y1="-167.53"
       x1="206.69" />
    <linearGradient
       id="linearGradient4829">
      <stop
         style="stop-color:#f4fbfc;stop-opacity:1;"
         offset="0"
         id="stop4831" />
      <stop
         style="stop-color:#d6d6d6;stop-opacity:1;"
         offset="1"
         id="stop4833" />
    </linearGradient>
    <linearGradient
       inkscape:collect="always"
       xlink:href="#linearGradient3952"
       id="linearGradient3954"
       x1="24.017662"
       y1="42.534904"
       x2="24.16148"
       y2="5.717411"
       gradientUnits="userSpaceOnUse"
       gradientTransform="matrix(0.98275464,0,0,0.99160506,0.05545947,0.02144429)" />
  </defs>
  <metadata
     id="metadata4066">
    <rdf:RDF>
      <cc:Work
         rdf:about="">
        <dc:format>image/svg+xml</dc:format>
        <dc:type
           rdf:resource="http://purl.org/dc/dcmitype/StillImage" />
        <dc:title />
      </cc:Work>
    </rdf:RDF>
  </metadata>
  <g
     id="layer2"
     display="none"
     transform="translate(-226.12 -28.077)">
    <rect
       id="rect3745"
       opacity=".9"
       rx="6"
       ry="6"
       height="85"
       filter="url(#filter3174)"
       width="86"
       y="7"
       x="5"
       fill="url(#ButtonShadow)" />
  </g>
  <path
     style="fill:url(#radialGradient3035);stroke-width:0.99211049"
     inkscape:connector-curvature="0"
     id="path3818-0-5"
     d="m 40.731757,42.543392 a 16.865878,5.4566081 0 0 1 -33.731757,0 16.865878,5.4566081 0 1 1 33.731757,0 z" />
  <path
     inkscape:connector-curvature="0"
     id="path2555-7-2"
     style="color:#000000;fill:url(#radialGradient3032);stroke-width:0.97938162"
     d="m 23.819999,3.8323756 c -11.028239,0 -19.9875247,9.0399704 -19.9875247,20.1675254 0,11.127556 8.9592857,20.167526 19.9875247,20.167526 11.028237,0 19.987523,-9.03997 19.987523,-20.167526 0,-11.127555 -8.959286,-20.1675254 -19.987523,-20.1675254 z" />
  <path
     inkscape:connector-curvature="0"
     id="path2555-7-65"
     style="color:#000000;fill:url(#linearGradient3954);fill-opacity:1;stroke-width:0.97938162"
     d="m 23.819999,3.8323756 c -11.028239,0 -19.9875247,9.0399704 -19.9875247,20.1675254 0,11.127556 8.9592857,20.167526 19.9875247,20.167526 11.028237,0 19.987523,-9.03997 19.987523,-20.167526 0,-11.127555 -8.959286,-20.1675254 -19.987523,-20.1675254 z" />
  <path
     inkscape:connector-curvature="0"
     id="path4176"
     style="color:#000000;opacity:0.5;fill:none;stroke:url(#linearGradient3026);stroke-width:0.97938162;stroke-linecap:round;stroke-linejoin:round"
     d="m 42.832521,23.999901 c 0,10.59533 -8.51176,19.183745 -19.012522,19.183745 -10.500763,0 -19.0125234,-8.588415 -19.0125234,-19.183745 0,-10.595329 8.5117604,-19.1837437 19.0125234,-19.1837437 10.500762,0 19.012522,8.5884147 19.012522,19.1837437 z" />
  <path
     inkscape:connector-curvature="0"
     id="path2555-7-1-7"
     style="color:#000000;opacity:1;fill:none;stroke:#ffffff;stroke-width:1.6649487;stroke-linecap:round;stroke-linejoin:round;stroke-miterlimit:4;stroke-dasharray:none;stroke-opacity:1"
     d="M 23.819999,3.832474 C 12.79176,3.832474 3.8324743,12.872248 3.8324743,24 c 0,11.127753 8.9590917,20.167525 19.9875247,20.167525 11.028433,0 19.987523,-9.039772 19.987523,-20.167525 0,-11.127752 -8.959286,-20.167526 -19.987523,-20.167526 z" />
  <g
     transform="matrix(0.98275464,0,0,0.99160506,1.0722092,0.4383044)"
     id="g3835">
    <g
       style="opacity:0.15;fill:none;stroke:#000000;stroke-width:2.4454"
       transform="matrix(0.83217,0,0,0.8038,14.858,3.63)"
       id="g4210">
      <path
         inkscape:connector-curvature="0"
         transform="matrix(1.2017,0,0,1.2441,-17.854,-4.516)"
         d="m 15.182,15 c -1.6061,-0.05225 -1.6061,2.3022 0,2.25 H 31.67 v 5.5215 H 15.356 c -0.97211,0 -1.3027,0.60915 -1.3027,1.4062 v 9.6816 c -0.02205,1.5216 2.3521,1.5216 2.3301,0 v -8.8398 h 16.453 c 0.643,-0.001 1.164,-0.504 1.164,-1.125 v -7.77 c 0,-0.621 -0.521,-1.124 -1.164,-1.125 z"
         style="color:#000000;text-indent:0;text-decoration:none;text-decoration-line:none;text-decoration-style:solid;text-decoration-color:#000000;text-transform:none;white-space:normal;opacity:1;isolation:auto;mix-blend-mode:normal;solid-color:#000000;fill:#ffffff;fill-rule:evenodd;stroke:#000000;stroke-width:2;stroke-linecap:round;stroke-linejoin:round;color-rendering:auto;image-rendering:auto;shape-rendering:auto"
         id="path4212" />
    </g>
    <g
       style="opacity:0.15;fill:none;stroke:#000000;stroke-width:1.2227"
       transform="matrix(0.83217,0,0,0.8038,14.858,3.63)"
       id="g4214">
      <path
         inkscape:connector-curvature="0"
         transform="matrix(1.2017,0,0,1.2441,-17.854,-4.516)"
         d="m 15.182,15 c -1.6061,-0.05225 -1.6061,2.3022 0,2.25 H 31.67 v 5.5215 H 15.356 c -0.97211,0 -1.3027,0.60915 -1.3027,1.4062 v 9.6816 c -0.02205,1.5216 2.3521,1.5216 2.3301,0 v -8.8398 h 16.453 c 0.643,-0.001 1.164,-0.504 1.164,-1.125 v -7.77 c 0,-0.621 -0.521,-1.124 -1.164,-1.125 z"
         style="color:#000000;text-indent:0;text-decoration:none;text-decoration-line:none;text-decoration-style:solid;text-decoration-color:#000000;text-transform:none;white-space:normal;opacity:1;isolation:auto;mix-blend-mode:normal;solid-color:#000000;fill:#ffffff;fill-rule:evenodd;stroke:#000000;stroke-width:1;stroke-linecap:round;stroke-linejoin:round;color-rendering:auto;image-rendering:auto;shape-rendering:auto"
         id="path4216" />
    </g>
    <g
       style="fill:none;stroke:#ffffff"
       transform="matrix(0.83217,0,0,0.8038,14.858,3.63)"
       id="g4312">
      <path
         inkscape:connector-curvature="0"
         transform="matrix(1.2017,0,0,1.2441,-17.854,-4.516)"
         d="m 15.182,15 c -1.6061,-0.05225 -1.6061,2.3022 0,2.25 H 31.67 v 5.5215 H 15.356 c -0.97211,0 -1.3027,0.60915 -1.3027,1.4062 v 9.6816 c -0.02205,1.5216 2.3521,1.5216 2.3301,0 v -8.8398 h 16.453 c 0.643,-0.001 1.164,-0.504 1.164,-1.125 v -7.77 c 0,-0.621 -0.521,-1.124 -1.164,-1.125 z"
         style="color:#000000;text-indent:0;text-decoration:none;text-decoration-line:none;text-decoration-style:solid;text-decoration-color:#000000;text-transform:none;white-space:normal;isolation:auto;mix-blend-mode:normal;solid-color:#000000;fill:#ffffff;fill-rule:evenodd;color-rendering:auto;image-rendering:auto;shape-rendering:auto"
         id="path4272-7" />
    </g>
  </g>
</svg>
