<?xml version="1.0" encoding="UTF-8" standalone="no"?>
<!-- Generator: Adobe Illustrator 22.1.0, SVG Export Plug-In . SVG Version: 6.00 Build 0)  -->

<svg
   xmlns:dc="http://purl.org/dc/elements/1.1/"
   xmlns:cc="http://creativecommons.org/ns#"
   xmlns:rdf="http://www.w3.org/1999/02/22-rdf-syntax-ns#"
   xmlns:svg="http://www.w3.org/2000/svg"
   xmlns="http://www.w3.org/2000/svg"
   xmlns:sodipodi="http://sodipodi.sourceforge.net/DTD/sodipodi-0.dtd"
   xmlns:inkscape="http://www.inkscape.org/namespaces/inkscape"
   version="1.1"
   id="svg3021"
   inkscape:version="0.92.2 2405546, 2018-03-11"
   sodipodi:docname="folder-pictures-symbolic.svg"
   x="0px"
   y="0px"
   viewBox="0 0 22 22"
   style="enable-background:new 0 0 22 22;"
   xml:space="preserve"><sodipodi:namedview
   bordercolor="#666666"
   borderopacity="1"
   gridtolerance="10"
   guidetolerance="10"
   id="namedview7"
   inkscape:current-layer="svg3021"
   inkscape:cx="1.8831378"
   inkscape:cy="10.927299"
   inkscape:pageopacity="0"
   inkscape:pageshadow="2"
   inkscape:window-height="745"
   inkscape:window-maximized="1"
   inkscape:window-width="1366"
   inkscape:window-x="0"
   inkscape:window-y="23"
   inkscape:zoom="20.85626"
   objecttolerance="10"
   pagecolor="#343434"
   showgrid="false">
	</sodipodi:namedview><metadata
   id="metadata11"><rdf:RDF><cc:Work
       rdf:about=""><dc:format>image/svg+xml</dc:format><dc:type
         rdf:resource="http://purl.org/dc/dcmitype/StillImage" /><dc:title /></cc:Work></rdf:RDF></metadata><defs
   id="defs9" />
<style
   id="style2"
   type="text/css">
	.st0{opacity:0.82;enable-background:new    ;}
	.st1{opacity:0.5;enable-background:new    ;}
	.st2{opacity:0.6;enable-background:new    ;}
</style>

<path
   inkscape:connector-curvature="0"
   style="opacity:0.7;fill:#ffffff;fill-opacity:1;enable-background:new"
   d="M 10.7,3 C 9.7,3 9.1,3.1 8.5,3.7 8,4.3 7.6,5.3 6.8,5.3 H 6.1 C 5,5.3 4,6.3 4,7.5 v 8.3 C 4,17 5,18 6.1,18 h 13.7 c 1.2,0 2.1,-1 2.1,-2.2 V 7.5 c 0,-1.2 -1,-2.2 -2.1,-2.2 H 19.1 C 18.3,5.3 17.9,4.3 17.3,3.7 16.9,3.1 16.3,3 15.3,3 Z m 0.1,1.2 h 4.4 c 0.6,0 1.3,0.3 1.9,0.8 0.6,0.6 0.8,1.5 1.7,1.5 h 0.9 c 0.6,0 1.1,0.5 1.1,1.1 v 8.1 c 0,0.6 -0.5,1.1 -1.1,1.1 H 6.2 C 5.6,16.8 5.1,16.3 5.1,15.7 V 7.6 C 5.1,7 5.6,6.5 6.2,6.5 H 7.1 C 8,6.5 8.3,5.6 8.8,5 9.4,4.4 10.1,4.2 10.8,4.2 Z M 13,8.1 c -1.6,0 -2.8,1.3 -2.8,2.9 0,1.6 1.3,2.9 2.8,2.9 1.5,0 2.8,-1.3 2.8,-2.9 v 0 C 15.8,9.4 14.6,8.1 13,8.1 Z m 0,1.2 c 0.9,0 1.7,0.8 1.7,1.7 v 0 c 0,1 -0.8,1.7 -1.7,1.7 -0.9,0 -1.7,-0.7 -1.7,-1.7 0,-1 0.8,-1.7 1.7,-1.7 z"
   class="st0"
   id="path8213" />
<path
   style="opacity:0.4;fill:#ffffff;fill-opacity:1"
   d="M10.8,4.2c-0.6,0-1.3,0.3-1.9,0.8C8.3,5.6,8.1,6.5,7.2,6.5H6.2C5.6,6.5,5.1,7,5.1,7.6v8.1  c0,0.6,0.5,1.1,1.1,1.1h13.5c0.6,0,1.1-0.5,1.1-1.1V7.6c0-0.6-0.5-1.1-1.1-1.1h-0.9c-0.9,0-1.2-0.9-1.7-1.5  c-0.6-0.6-1.3-0.8-1.9-0.8H10.8z M13,5.3c3.1,0,5.6,2.6,5.6,5.8s-2.5,5.8-5.6,5.8S7.4,14.2,7.4,11S9.9,5.3,13,5.3z M13,9.3  c-0.9,0-1.7,0.8-1.7,1.7l0,0c0,1,0.8,1.7,1.7,1.7s1.7-0.8,1.7-1.7S13.9,9.3,13,9.3L13,9.3z"
   class="st1"
   id="rect8180" />
<path
   style="fill:#ffffff;fill-opacity:1;opacity:0.7"
   d="M13,5.3c-3.1,0-5.6,2.6-5.6,5.8c0,3.2,2.5,5.8,5.6,5.8  s5.6-2.6,5.6-5.8S16.1,5.3,13,5.3L13,5.3z M13,6.4c2.5,0,4.5,2.1,4.5,4.6s-2,4.6-4.5,4.6S8.5,13.6,8.5,11S10.5,6.4,13,6.4z"
   class="st2"
   inkscape:connector-curvature="0"
   id="circle8202" />
</svg>