<?xml version="1.0" encoding="utf-8"?>
<!-- Generator: Adobe Illustrator 22.1.0, SVG Export Plug-In . SVG Version: 6.00 Build 0)  -->
<svg version="1.1"
	 id="svg3079" inkscape:version="0.91 r13725" sodipodi:docname="folder-music-symbolic.svg" xmlns:cc="http://creativecommons.org/ns#" xmlns:dc="http://purl.org/dc/elements/1.1/" xmlns:inkscape="http://www.inkscape.org/namespaces/inkscape" xmlns:rdf="http://www.w3.org/1999/02/22-rdf-syntax-ns#" xmlns:sodipodi="http://sodipodi.sourceforge.net/DTD/sodipodi-0.dtd" xmlns:svg="http://www.w3.org/2000/svg"
	 xmlns="http://www.w3.org/2000/svg" xmlns:xlink="http://www.w3.org/1999/xlink" x="0px" y="0px" viewBox="0 0 22 22"
	 style="enable-background:new 0 0 22 22;" xml:space="preserve">
<style type="text/css">
	.st0{opacity:0.813;enable-background:new    ;}
</style>
<sodipodi:namedview  bordercolor="#666666" borderopacity="1" gridtolerance="10" guidetolerance="10" id="namedview7" inkscape:current-layer="svg3079" inkscape:cx="-137.39095" inkscape:cy="19.703886" inkscape:pageopacity="0" inkscape:pageshadow="2" inkscape:window-height="1056" inkscape:window-maximized="1" inkscape:window-width="1863" inkscape:window-x="57" inkscape:window-y="24" inkscape:zoom="3.6875001" objecttolerance="10" pagecolor="#ffffff" showgrid="false">
	</sodipodi:namedview>
<path id="rect2996" inkscape:connector-curvature="0" class="st0" d="M20.3,3L12,5c-0.6,0.2-1,0.4-1,1v10c-0.6-0.3-1.6-0.4-2.5-0.2
	c-1.5,0.4-2.5,1.6-2.2,2.7s1.8,1.7,3.4,1.4c1.2-0.3,2.1-1,2.3-1.9l0-9.3L20,7v7c-0.6-0.3-1.6-0.5-2.4-0.3c-1.5,0.4-2.5,1.6-2.2,2.7
	c0.3,1.1,1.8,1.7,3.4,1.4c1.2-0.3,2.1-1.1,2.2-2l0-11.9C21,3.4,20.7,3.1,20.3,3z"/>
</svg>
