<?xml version="1.0" encoding="UTF-8" standalone="no"?>
<!-- Generator: Adobe Illustrator 22.1.0, SVG Export Plug-In . SVG Version: 6.00 Build 0)  -->

<svg
   xmlns:dc="http://purl.org/dc/elements/1.1/"
   xmlns:cc="http://creativecommons.org/ns#"
   xmlns:rdf="http://www.w3.org/1999/02/22-rdf-syntax-ns#"
   xmlns:svg="http://www.w3.org/2000/svg"
   xmlns="http://www.w3.org/2000/svg"
   xmlns:sodipodi="http://sodipodi.sourceforge.net/DTD/sodipodi-0.dtd"
   xmlns:inkscape="http://www.inkscape.org/namespaces/inkscape"
   version="1.1"
   id="svg7384"
   inkscape:version="0.92.2 2405546, 2018-03-11"
   sodipodi:docname="folder-recent-symbolic.svg"
   x="0px"
   y="0px"
   viewBox="0 0 22 22"
   style="enable-background:new 0 0 22 22;"
   xml:space="preserve"><sodipodi:namedview
   bordercolor="#666666"
   borderopacity="1"
   gridtolerance="10"
   guidetolerance="10"
   id="namedview88"
   inkscape:bbox-paths="false"
   inkscape:current-layer="layer13"
   inkscape:cx="1.7932306"
   inkscape:cy="8.6230195"
   inkscape:guide-bbox="true"
   inkscape:object-nodes="false"
   inkscape:object-paths="false"
   inkscape:pageopacity="1"
   inkscape:pageshadow="2"
   inkscape:snap-bbox="true"
   inkscape:snap-bbox-midpoints="false"
   inkscape:snap-global="true"
   inkscape:snap-grids="true"
   inkscape:snap-nodes="false"
   inkscape:snap-others="false"
   inkscape:snap-to-guides="true"
   inkscape:window-height="745"
   inkscape:window-maximized="1"
   inkscape:window-width="1366"
   inkscape:window-x="0"
   inkscape:window-y="23"
   inkscape:zoom="11.313708"
   objecttolerance="10"
   pagecolor="#555753"
   showborder="true"
   showgrid="false"
   showguides="true">
	
		<inkscape:grid
   originy="0"
   originx="0"
   visible="true"
   type="xygrid"
   spacingy="1"
   spacingx="1"
   snapvisiblegridlinesonly="true"
   id="grid4866"
   enabled="true"
   empspacing="2">
		</inkscape:grid>
</sodipodi:namedview><metadata
   id="metadata21"><rdf:RDF><cc:Work
       rdf:about=""><dc:format>image/svg+xml</dc:format><dc:type
         rdf:resource="http://purl.org/dc/dcmitype/StillImage" /></cc:Work></rdf:RDF></metadata>
<style
   id="style2"
   type="text/css">
	.st0{opacity:0.75;enable-background:new    ;}
</style>

<title
   id="title9167">Gnome Symbolic Icon Theme</title>
<defs
   id="defs8">
	
	
		<inkscape:perspective
   sodipodi:type="inkscape:persp3d"
   inkscape:vp_z="96 : 48 : 1"
   inkscape:vp_y="0 : 1000 : 0"
   inkscape:vp_x="0 : 48 : 1"
   inkscape:persp3d-origin="48 : 32 : 1"
   id="perspective3054">
		</inkscape:perspective>
</defs>
<g
   inkscape:label="status"
   inkscape:groupmode="layer"
   transform="translate(-461.0002,-175)"
   id="layer9">
</g>
<g
   inkscape:label="devices"
   inkscape:groupmode="layer"
   transform="translate(-461.0002,-175)"
   id="layer10">
</g>
<g
   inkscape:label="apps"
   inkscape:groupmode="layer"
   transform="translate(-461.0002,-175)"
   id="layer11">
</g>
<g
   inkscape:label="places"
   inkscape:groupmode="layer"
   transform="translate(-461.0002,-175)"
   id="layer13">
	<path
   style="fill:#ffffff;fill-opacity:1;opacity:0.75"
   d="M473,177v2.1c0.6,0,1.2,0.1,1.8,0.2l0.5-2   C474.6,177.1,473.8,177,473,177z M470.7,177.3c-0.8,0.2-1.5,0.5-2.2,0.9l1,1.8c0.5-0.3,1.1-0.5,1.7-0.7L470.7,177.3L470.7,177.3z    M477.5,178.2l-1,1.8c0.5,0.3,1,0.7,1.4,1.1l1.5-1.5C478.8,179.1,478.2,178.6,477.5,178.2L477.5,178.2z M466.6,179.6   c-1.6,1.6-2.6,3.9-2.6,6.4c0,5,4,9,9,9c5,0,9-4,9-9h-2.1c0,3.8-3.1,6.9-6.9,6.9c-3.8,0-6.9-3.1-6.9-6.9c0-1.9,0.8-3.7,2-4.9   L466.6,179.6z M480.8,181.5l-1.8,1c0.3,0.5,0.5,1.1,0.7,1.7l2-0.5C481.5,182.9,481.2,182.2,480.8,181.5L480.8,181.5z M481.7,183.7   c0,0.2,0.1,0.3,0.1,0.5C481.8,184,481.7,183.8,481.7,183.7z M469.5,181.7l-0.9,0.9l4.1,4.4h5.3v-1h-4.8L469.5,181.7L469.5,181.7z"
   class="st0"
   inkscape:connector-curvature="0"
   id="path3418" />
</g>
<g
   inkscape:label="mimetypes"
   inkscape:groupmode="layer"
   transform="translate(-461.0002,-175)"
   id="layer14">
</g>
<g
   inkscape:label="emblems"
   inkscape:groupmode="layer"
   transform="translate(-461.0002,-175)"
   id="layer15">
</g>
<g
   inkscape:label="emotes"
   inkscape:groupmode="layer"
   transform="translate(-461.0002,-175)"
   id="g71291">
</g>
<g
   inkscape:label="categories"
   inkscape:groupmode="layer"
   transform="translate(-461.0002,-175)"
   id="g4953">
</g>
<g
   inkscape:label="actions"
   inkscape:groupmode="layer"
   transform="translate(-461.0002,-175)"
   id="layer12">
</g>
</svg>