<?xml version="1.0" encoding="utf-8"?>
<!-- Generator: Adobe Illustrator 22.1.0, SVG Export Plug-In . SVG Version: 6.00 Build 0)  -->
<svg version="1.1"
	 id="svg7384" inkscape:version="0.91 r13725" sodipodi:docname="multimedia-player-symbolic.svg" xmlns:cc="http://creativecommons.org/ns#" xmlns:dc="http://purl.org/dc/elements/1.1/" xmlns:inkscape="http://www.inkscape.org/namespaces/inkscape" xmlns:rdf="http://www.w3.org/1999/02/22-rdf-syntax-ns#" xmlns:sodipodi="http://sodipodi.sourceforge.net/DTD/sodipodi-0.dtd" xmlns:svg="http://www.w3.org/2000/svg"
	 xmlns="http://www.w3.org/2000/svg" xmlns:xlink="http://www.w3.org/1999/xlink" x="0px" y="0px" viewBox="0 0 22 22"
	 style="enable-background:new 0 0 22 22;" xml:space="preserve">
<style type="text/css">
	.st0{opacity:0.5;enable-background:new    ;}
	.st1{opacity:0.81;enable-background:new    ;}
	.st2{fill-opacity:0.749;}
	.st3{opacity:0.75;fill-opacity:0.298;enable-background:new    ;}
</style>
<sodipodi:namedview  bordercolor="#666666" borderopacity="1" gridtolerance="10" guidetolerance="10" id="namedview88" inkscape:bbox-paths="false" inkscape:current-layer="layer13" inkscape:cx="-15.542218" inkscape:cy="19.848714" inkscape:guide-bbox="true" inkscape:object-nodes="true" inkscape:pageopacity="1" inkscape:pageshadow="2" inkscape:snap-bbox="true" inkscape:snap-global="true" inkscape:snap-grids="true" inkscape:snap-nodes="true" inkscape:snap-to-guides="true" inkscape:window-height="1056" inkscape:window-maximized="1" inkscape:window-width="1863" inkscape:window-x="57" inkscape:window-y="24" inkscape:zoom="5.6568542" objecttolerance="10" pagecolor="#ffffff" showborder="true" showgrid="false" showguides="true">
	
		<inkscape:grid  empspacing="2" enabled="true" id="grid4866" snapvisiblegridlinesonly="true" spacingx="1px" spacingy="1px" type="xygrid" visible="true">
		</inkscape:grid>
</sodipodi:namedview>
<title  id="title9167">Gnome Symbolic Icon Theme</title>
<g id="layer9" transform="translate(-442,-156)" inkscape:groupmode="layer" inkscape:label="status">
</g>
<g id="layer10" transform="translate(-442,-156)" inkscape:groupmode="layer" inkscape:label="devices">
</g>
<g id="layer11" transform="translate(-442,-156)" inkscape:groupmode="layer" inkscape:label="apps">
</g>
<g id="layer12" transform="translate(-442,-156)" inkscape:groupmode="layer" inkscape:label="actions">
</g>
<g id="layer13" transform="translate(-442,-156)" inkscape:groupmode="layer" inkscape:label="places">
	<path id="path5571" class="st0" d="M456.5,158.8L456.5,158.8C456.5,158.8,456.5,158.8,456.5,158.8c0.1,0,0.1,0,0.1,0.1
		c0,0.1,0,0.1-0.1,0.1c-0.1,0-0.1,0-0.1-0.1C456.4,158.9,456.4,158.8,456.5,158.8L456.5,158.8z"/>
	<path id="path5569" class="st0" d="M455.8,159.4h1.3c0.1,0,0.2,0.1,0.2,0.2s-0.1,0.2-0.2,0.2h-1.3c-0.1,0-0.2-0.1-0.2-0.2
		S455.7,159.4,455.8,159.4z"/>
	<path id="path5567" class="st0" d="M455.2,159.4C455.2,159.4,455.2,159.4,455.2,159.4c0.1,0,0.2,0.1,0.2,0.2c0,0.1-0.1,0.2-0.2,0.2
		c-0.1,0-0.2-0.1-0.2-0.2C455,159.5,455.1,159.4,455.2,159.4L455.2,159.4z"/>
	<path id="rect5351" inkscape:connector-curvature="0" sodipodi:nodetypes="ssccsscccccccsscccsscssssccsssscc" class="st1" d="
		M453.3,158c-0.7,0-1.3,0.5-1.3,1v1l1.1,0l0-0.4c0-0.4,0.4-0.8,0.9-0.8h2.5c-0.1,0-0.1,0-0.1-0.1c0,0,0-0.1,0.1-0.1h0c0,0,0,0,0,0
		c0.1,0,0.1,0,0.1,0.1c0,0,0,0.1-0.1,0.1h2.5c0.5,0,0.9,0.3,0.9,0.8l0,0.4l1.1,0v-1c0-0.6-0.6-1-1.3-1H453.3z M452,173l0,1.8
		c0,0.7,0.6,1.2,1.3,1.2h6.4c0.7,0,1.3-0.6,1.3-1.2l0-1.8h-1l0,1.1c0,0.5-0.4,0.9-0.9,0.9h-5.1c-0.5,0-0.9-0.4-0.9-0.9l0-1.1H452z"
		/>
	<ellipse id="circle5377" class="st2" cx="456.5" cy="174" rx="0.5" ry="0.5"/>
	<path id="path5518" class="st1" d="M452,160v13h1.1h6.9h1.1v-13h-1.1h-6.9H452z M453,161h7v11h-7V161z"/>
	<path id="path5552" inkscape:connector-curvature="0" sodipodi:nodetypes="ccccc" class="st3" d="M459.9,161v11.1H453V161H459.9z"
		/>
</g>
<g id="layer14" transform="translate(-442,-156)" inkscape:groupmode="layer" inkscape:label="mimetypes">
</g>
<g id="layer15" transform="translate(-442,-156)" inkscape:groupmode="layer" inkscape:label="emblems">
</g>
</svg>
