<?xml version="1.0" encoding="UTF-8" standalone="no"?>
<!-- Generator: Adobe Illustrator 22.1.0, SVG Export Plug-In . SVG Version: 6.00 Build 0)  -->

<svg
   xmlns:dc="http://purl.org/dc/elements/1.1/"
   xmlns:cc="http://creativecommons.org/ns#"
   xmlns:rdf="http://www.w3.org/1999/02/22-rdf-syntax-ns#"
   xmlns:svg="http://www.w3.org/2000/svg"
   xmlns="http://www.w3.org/2000/svg"
   xmlns:sodipodi="http://sodipodi.sourceforge.net/DTD/sodipodi-0.dtd"
   xmlns:inkscape="http://www.inkscape.org/namespaces/inkscape"
   version="1.1"
   id="svg7384"
   inkscape:version="0.92.2 2405546, 2018-03-11"
   sodipodi:docname="user-desktop-symbolic.svg"
   x="0px"
   y="0px"
   viewBox="0 0 22 22"
   style="enable-background:new 0 0 22 22;"
   xml:space="preserve"><sodipodi:namedview
   bordercolor="#666666"
   borderopacity="1"
   gridtolerance="10"
   guidetolerance="10"
   id="namedview88"
   inkscape:bbox-paths="false"
   inkscape:current-layer="layer13"
   inkscape:cx="5.1176754"
   inkscape:cy="11.596095"
   inkscape:guide-bbox="true"
   inkscape:object-nodes="true"
   inkscape:pageopacity="1"
   inkscape:pageshadow="2"
   inkscape:snap-bbox="true"
   inkscape:snap-global="true"
   inkscape:snap-grids="true"
   inkscape:snap-nodes="true"
   inkscape:snap-to-guides="true"
   inkscape:window-height="745"
   inkscape:window-maximized="1"
   inkscape:window-width="1366"
   inkscape:window-x="0"
   inkscape:window-y="23"
   inkscape:zoom="22.627417"
   objecttolerance="10"
   pagecolor="#474747"
   showborder="true"
   showgrid="false"
   showguides="true">
	
		<inkscape:grid
   originy="0"
   originx="0"
   visible="true"
   type="xygrid"
   spacingy="1"
   spacingx="1"
   snapvisiblegridlinesonly="true"
   id="grid4866"
   enabled="true"
   empspacing="2">
		</inkscape:grid>
</sodipodi:namedview><metadata
   id="metadata20"><rdf:RDF><cc:Work
       rdf:about=""><dc:format>image/svg+xml</dc:format><dc:type
         rdf:resource="http://purl.org/dc/dcmitype/StillImage" /><dc:title>Gnome Symbolic Icon Theme</dc:title></cc:Work></rdf:RDF></metadata><defs
   id="defs18" />
<style
   id="style2"
   type="text/css">
	.st0{opacity:0.813;enable-background:new    ;}
	.st1{opacity:0.2;fill-opacity:0.902;enable-background:new    ;}
	.st2{opacity:0.5;enable-background:new    ;}
</style>

<title
   id="title9167">Gnome Symbolic Icon Theme</title>
<g
   inkscape:label="status"
   inkscape:groupmode="layer"
   transform="translate(-442,-156)"
   id="layer9">
</g>
<g
   inkscape:label="devices"
   inkscape:groupmode="layer"
   transform="translate(-442,-156)"
   id="layer10">
</g>
<g
   inkscape:label="apps"
   inkscape:groupmode="layer"
   transform="translate(-442,-156)"
   id="layer11">
</g>
<g
   inkscape:label="actions"
   inkscape:groupmode="layer"
   transform="translate(-442,-156)"
   id="layer12">
</g>
<g
   inkscape:label="places"
   inkscape:groupmode="layer"
   transform="translate(-442,-156)"
   id="layer13">
	<path
   style="opacity:0.7;fill:#ffffff;fill-opacity:1"
   d="M447.1,160c-1.1,0-2.1,0.9-2.1,2.1v9.9c0,1.1,0.9,2.1,2.1,2.1   h13.9c1.1,0,2.1-0.9,2.1-2.1v-9.9c0-1.1-0.9-2.1-2.1-2.1H447.1z M447,161h14c0.6,0,1,0.4,1,1v0h-16v0C446,161.4,446.4,161,447,161z    M446,163h16v9c0,0.6-0.4,1-1,1h-14c-0.6,0-1-0.4-1-1V163z"
   class="st0"
   inkscape:connector-curvature="0"
   id="rect4156" />
	<path
   style="fill:#ffffff;fill-opacity:1;opacity:0.2"
   d="M446,163v9c0,0.6,0.4,1,1,1h3v-2h8v2h3c0.6,0,1-0.4,1-1v-9   H446z"
   class="st1"
   inkscape:connector-curvature="0"
   id="rect4169" />
	<path
   style="fill:#ffffff;fill-opacity:1;opacity:0.5"
   d="M449.5,170.5c-0.3,0-0.5,0.2-0.5,0.5v2h1v-2h2v2h1v-2h2v2h1   v-2h2v2h1v-2c0-0.3-0.2-0.5-0.5-0.5H449.5z"
   class="st2"
   inkscape:connector-curvature="0"
   id="rect4175" />
</g>
<g
   inkscape:label="mimetypes"
   inkscape:groupmode="layer"
   transform="translate(-442,-156)"
   id="layer14">
</g>
<g
   inkscape:label="emblems"
   inkscape:groupmode="layer"
   transform="translate(-442,-156)"
   id="layer15">
</g>
</svg>