<?xml version="1.0" encoding="UTF-8" standalone="no"?>
<svg
   xmlns:dc="http://purl.org/dc/elements/1.1/"
   xmlns:cc="http://creativecommons.org/ns#"
   xmlns:rdf="http://www.w3.org/1999/02/22-rdf-syntax-ns#"
   xmlns:svg="http://www.w3.org/2000/svg"
   xmlns="http://www.w3.org/2000/svg"
   xmlns:sodipodi="http://sodipodi.sourceforge.net/DTD/sodipodi-0.dtd"
   xmlns:inkscape="http://www.inkscape.org/namespaces/inkscape"
   width="24"
   viewBox="0 0 24 24"
   version="1.1"
   height="24"
   id="svg4"
   sodipodi:docname="Apple(24px).svg"
   inkscape:version="0.92.2 2405546, 2018-03-11">
  <metadata
     id="metadata10">
    <rdf:RDF>
      <cc:Work
         rdf:about="">
        <dc:format>image/svg+xml</dc:format>
        <dc:type
           rdf:resource="http://purl.org/dc/dcmitype/StillImage" />
        <dc:title />
      </cc:Work>
    </rdf:RDF>
  </metadata>
  <defs
     id="defs8" />
  <sodipodi:namedview
     pagecolor="#ffffff"
     bordercolor="#666666"
     borderopacity="1"
     objecttolerance="10"
     gridtolerance="10"
     guidetolerance="10"
     inkscape:pageopacity="0"
     inkscape:pageshadow="2"
     inkscape:window-width="1366"
     inkscape:window-height="744"
     id="namedview6"
     showgrid="true"
     inkscape:zoom="18.016512"
     inkscape:cx="3.3685072"
     inkscape:cy="15.179097"
     inkscape:window-x="0"
     inkscape:window-y="24"
     inkscape:window-maximized="1"
     inkscape:current-layer="svg4">
    <inkscape:grid
       type="xygrid"
       id="grid812" />
  </sodipodi:namedview>
  <path
     d="m 18.674019,16.005642 c -0.250822,0.579451 -0.547715,1.112832 -0.891699,1.603214 -0.468884,0.668517 -0.852794,1.131259 -1.148663,1.388224 -0.458646,0.421791 -0.950052,0.637805 -1.476267,0.65009 -0.37777,0 -0.833344,-0.107494 -1.363655,-0.325556 -0.53205,-0.217039 -1.020999,-0.324534 -1.468077,-0.324534 -0.468883,0 -0.971756,0.107495 -1.509641,0.324534 -0.538705,0.218062 -0.9726795,0.331699 -1.3044812,0.34296 C 9.0069231,19.686075 8.5039475,19.463917 8.0018933,18.99708 7.6814558,18.717593 7.2806515,18.238472 6.8005067,17.559715 6.2853479,16.834891 5.8618173,15.994383 5.5300153,15.036137 5.1746665,14.001112 4.996532,12.998847 4.996532,12.028524 c 0,-1.1115 0.2401749,-2.0701537 0.7212418,-2.8735006 0.378076,-0.6452787 0.8810517,-1.1542943 1.5105636,-1.527968 0.6295121,-0.3736739 1.309701,-0.564094 2.0422047,-0.5762768 0.4008039,0 0.9264049,0.1239779 1.5795649,0.3676335 0.651318,0.244475 1.069526,0.3684527 1.252884,0.3684527 0.137081,0 0.601664,-0.144965 1.389246,-0.4339735 0.74479,-0.2680213 1.37338,-0.3789975 1.888334,-0.3352827 1.39539,0.112614 2.443724,0.6626824 3.140907,1.653686 -1.247969,0.7561527 -1.865299,1.8152354 -1.853012,3.1738734 0.01127,1.058264 0.395173,1.938906 1.149687,2.638136 0.341937,0.324533 0.723801,0.575356 1.148663,0.75349 -0.09214,0.267205 -0.189396,0.523144 -0.292797,0.768848 z M 15.473732,3.4123213 c 0,0.8294639 -0.303033,1.6039311 -0.907053,2.3207707 C 13.837758,6.5852731 12.956092,7.0777034 12,7 11.9878,6.90049 11.98076,6.7957589 11.98076,6.6857045 c 0,-0.7962838 0.346647,-1.6484649 0.962236,-2.3452387 0.307326,-0.3527891 0.6982,-0.6461281 1.172204,-0.8801298 0.472976,-0.2305109 0.920364,-0.35799 1.34113,-0.3798165 0.0123,0.1108838 0.0174,0.2217779 0.0174,0.3317916 z"
     id="path2"
     style="fill:#ededed;fill-opacity:1;stroke-width:0.1023764"
     inkscape:connector-curvature="0" />
</svg>
