<?xml version="1.0" encoding="UTF-8" standalone="no"?>
<svg
   xmlns:osb="http://www.openswatchbook.org/uri/2009/osb"
   xmlns:dc="http://purl.org/dc/elements/1.1/"
   xmlns:cc="http://creativecommons.org/ns#"
   xmlns:rdf="http://www.w3.org/1999/02/22-rdf-syntax-ns#"
   xmlns:svg="http://www.w3.org/2000/svg"
   xmlns="http://www.w3.org/2000/svg"
   xmlns:sodipodi="http://sodipodi.sourceforge.net/DTD/sodipodi-0.dtd"
   xmlns:inkscape="http://www.inkscape.org/namespaces/inkscape"
   id="svg"
   width="32"
   height="32"
   version="1.1"
   viewBox="0 0 32 32"
   sodipodi:docname="device.svg"
   inkscape:version="0.92.2 2405546, 2018-03-11">
  <metadata
     id="metadata31">
    <rdf:RDF>
      <cc:Work
         rdf:about="">
        <dc:format>image/svg+xml</dc:format>
        <dc:type
           rdf:resource="http://purl.org/dc/dcmitype/StillImage" />
        <dc:title />
      </cc:Work>
    </rdf:RDF>
  </metadata>
  <sodipodi:namedview
     pagecolor="#ffffff"
     bordercolor="#666666"
     borderopacity="1"
     objecttolerance="10"
     gridtolerance="10"
     guidetolerance="10"
     inkscape:pageopacity="0"
     inkscape:pageshadow="2"
     inkscape:window-width="1366"
     inkscape:window-height="745"
     id="namedview29"
     showgrid="true"
     inkscape:zoom="20.85965"
     inkscape:cx="36.876222"
     inkscape:cy="10.61507"
     inkscape:window-x="0"
     inkscape:window-y="23"
     inkscape:window-maximized="1"
     inkscape:current-layer="22-22-device-notifier">
    <inkscape:grid
       type="xygrid"
       id="grid838" />
  </sodipodi:namedview>
  <defs
     id="defs4">
    <inkscape:path-effect
       effect="bspline"
       id="path-effect846"
       is_visible="true"
       weight="33.333333"
       steps="2"
       helper_size="0"
       apply_no_weight="true"
       apply_with_weight="true"
       only_selected="false" />
    <inkscape:path-effect
       effect="bspline"
       id="path-effect842"
       is_visible="true"
       weight="33.333333"
       steps="2"
       helper_size="0"
       apply_no_weight="true"
       apply_with_weight="true"
       only_selected="false" />
    <linearGradient
       id="linearGradient5606"
       osb:paint="solid">
      <stop
         id="stop5608"
         offset="0"
         style="stop-color:#000000" />
    </linearGradient>
  </defs>
  <rect
     style="fill:#d3dae3;fill-opacity:0"
     width="22"
     height="22"
     x="0"
     y="31"
     id="rect6" />
  <g
     id="22-22-device-notifier"
     transform="translate(32,10)">
    <rect
       style="opacity:0"
       width="22"
       height="22"
       x="0"
       y="0"
       id="rect8" />
    <rect
       style="opacity:0.00100002"
       width="22"
       height="22"
       x="0"
       y="0"
       id="rect10" />
    <path
       style="fill:#eff0f1;fill-opacity:1;stroke:none;stroke-width:1.11803389px;stroke-linecap:butt;stroke-linejoin:miter;stroke-opacity:1"
       d="m 6,14 c 0,0 0,2 0,2 0,0 11,0 11,0 0,0 0,-2 0,-2 0,0 -11,0 -11,0 z"
       id="path840"
       inkscape:connector-curvature="0"
       inkscape:path-effect="#path-effect842"
       inkscape:original-d="m 6,14 v 2 h 11 v -2 z"
       sodipodi:nodetypes="ccccc" />
    <path
       style="fill:#eff0f1;fill-opacity:1;stroke:none;stroke-width:1px;stroke-linecap:butt;stroke-linejoin:miter;stroke-opacity:1"
       d="m 6,12 c 0,0 11,0 11,0 C 17,12 11.520606,6 11.520606,6 11.520606,6 6,12 6,12 Z"
       id="path844"
       inkscape:connector-curvature="0"
       inkscape:path-effect="#path-effect846"
       inkscape:original-d="M 6,12 H 17 L 11.520606,6 Z"
       sodipodi:nodetypes="cccc" />
  </g>
  <g
     id="device-notifier">
    <rect
       width="32"
       height="32"
       x="0"
       y="0"
       style="opacity:0.00100002"
       id="rect15" />
    <g
       id="g25">
      <rect
         style="opacity:0.2"
         width="28"
         height="22"
         x="-31"
         y="-27"
         rx="2"
         ry="2"
         transform="matrix(0,-1,-1,0,0,0)"
         id="rect17" />
      <rect
         style="fill:#8e8e8e"
         width="28"
         height="22"
         x="-30"
         y="-27"
         rx="2"
         ry="2"
         transform="matrix(0,-1,-1,0,0,0)"
         id="rect19" />
      <path
         style="opacity:0.5"
         d="m 11,16 h 10 v 2 H 11 Z m 5,-8 5,6 H 11 Z"
         id="path21" />
      <path
         style="opacity:0.2;fill:#ffffff"
         d="M 7,2 C 5.892,2 5,2.892 5,4 V 5 C 5,3.892 5.892,3 7,3 h 18 c 1.108,0 2,0.892 2,2 V 4 C 27,2.892 26.108,2 25,2 Z"
         id="path23" />
    </g>
  </g>
</svg>
