<?xml version="1.0" encoding="UTF-8"?>
<!-- Created with Inkscape (http://www.inkscape.org/) -->
<svg id="svg2396" xmlns:dc="http://purl.org/dc/elements/1.1/" xmlns:cc="http://creativecommons.org/ns#" width="135" xmlns:xlink="http://www.w3.org/1999/xlink" height="103.5" xmlns="http://www.w3.org/2000/svg" xmlns:rdf="http://www.w3.org/1999/02/22-rdf-syntax-ns#" version="1.0">
 <metadata id="metadata2401">
  <rdf:RDF>
   <cc:Work rdf:about="">
    <dc:format>image/svg+xml</dc:format>
    <dc:type rdf:resource="http://purl.org/dc/dcmitype/StillImage"/>
    <dc:title/>
   </cc:Work>
  </rdf:RDF>
 </metadata>
 <g id="layer1" transform="translate(5.5,-62.5)">
  <rect id="border-center" width="64.25" height="61.5" y="58.5" opacity=".6" x="-182" fill-opacity="0"/>
  <rect id="border-topleft" width="8.582" x="204.63" height="9.2107" y="-36.226" opacity=".6" transform="scale(-1)" fill-opacity="0"/>
  <rect id="border-bottomleft" width="8.582" height="9.2107" x="204.63" y="-151.84" opacity=".6" transform="scale(-1)" fill-opacity="0"/>
  <rect id="border-topright" width="8.582" height="9.2107" x="89.369" y="-36.226" opacity=".6" transform="scale(-1)" fill-opacity="0"/>
  <rect id="border-bottomright" width="8.582" x="89.369" height="9.2107" y="-151.84" opacity=".6" transform="scale(-1)" fill-opacity="0"/>
  <g id="border-top">
   <rect id="rect3032" width="100" x="14" height="1" y="63.5" fill-opacity="0"/>
   <rect id="rect3825" width="100" height="1" y="62.5" x="14" fill-opacity=".17255"/>
  </g>
  <g id="border-bottom" transform="matrix(1 0 0 -1 -.26517 224.53)">
   <rect id="rect3828" width="100" height="1" y="63.5" x="14" fill-opacity="0"/>
   <rect id="rect3807" width="100" x="14" height="1" y="62.5" fill-opacity=".17255"/>
  </g>
  <g id="border-left" transform="matrix(0,-1,-1,0,192,178)">
   <rect id="rect3838" width="100" x="14" height="1" y="63.5" fill-opacity="0"/>
   <rect id="rect3821" width="100" height="1" y="62.5" x="14" fill-opacity=".17255"/>
  </g>
  <g id="border-right" transform="matrix(0,-1,1,0,-68,180)">
   <rect id="rect3848" width="100" height="1" y="63.5" x="14" fill-opacity="0"/>
   <rect id="rect3829" width="100" x="14" height="1" y="62.5" fill-opacity=".17255"/>
  </g>
 </g>
</svg>
