<?xml version="1.0" encoding="UTF-8" standalone="no"?>
<!-- Generator: Adobe Illustrator 22.1.0, SVG Export Plug-In . SVG Version: 6.00 Build 0)  -->

<svg
   xmlns:dc="http://purl.org/dc/elements/1.1/"
   xmlns:cc="http://creativecommons.org/ns#"
   xmlns:rdf="http://www.w3.org/1999/02/22-rdf-syntax-ns#"
   xmlns:svg="http://www.w3.org/2000/svg"
   xmlns="http://www.w3.org/2000/svg"
   xmlns:sodipodi="http://sodipodi.sourceforge.net/DTD/sodipodi-0.dtd"
   xmlns:inkscape="http://www.inkscape.org/namespaces/inkscape"
   version="1.1"
   id="Layer_1"
   x="0px"
   y="0px"
   viewBox="0 0 16 16"
   style="enable-background:new 0 0 16 16;"
   xml:space="preserve"
   sodipodi:docname="view-grid.svg"
   inkscape:version="0.92.2 2405546, 2018-03-11"><metadata
   id="metadata17"><rdf:RDF><cc:Work
       rdf:about=""><dc:format>image/svg+xml</dc:format><dc:type
         rdf:resource="http://purl.org/dc/dcmitype/StillImage" /></cc:Work></rdf:RDF></metadata><defs
   id="defs15" /><sodipodi:namedview
   pagecolor="#ffffff"
   bordercolor="#666666"
   borderopacity="1"
   objecttolerance="10"
   gridtolerance="10"
   guidetolerance="10"
   inkscape:pageopacity="0"
   inkscape:pageshadow="2"
   inkscape:window-width="1366"
   inkscape:window-height="745"
   id="namedview13"
   showgrid="false"
   inkscape:zoom="29.5"
   inkscape:cx="9.5746361"
   inkscape:cy="5.4503325"
   inkscape:window-x="0"
   inkscape:window-y="23"
   inkscape:window-maximized="1"
   inkscape:current-layer="Layer_1" />
<style
   type="text/css"
   id="style2">
	.ColorScheme-Text{fill:none;stroke:#404040;stroke-miterlimit:10;}
</style>
<path
   class="ColorScheme-Text"
   d="M 6.2,6.5 H 3.8 C 3.5152542,6.5 3.5,6.4847458 3.5,6.2 V 4 C 3.5,3.5 3.5135593,3.5 4,3.5 h 2 c 0.4542373,0 0.5,0 0.5,0.5 v 2.2 c 0,0.2847458 -0.015254,0.3 -0.3,0.3 z"
   id="path4"
   inkscape:connector-curvature="0"
   style="fill:none;stroke:#373737;stroke-miterlimit:10;stroke-opacity:1"
   sodipodi:nodetypes="sssssssss" />
<path
   class="ColorScheme-Text"
   d="M 12,6.5 H 10 C 9.5305085,6.5 9.5,6.4355932 9.5,6 V 4 C 9.5,3.5 9.4966102,3.5 10,3.5 h 2 c 0.471186,0 0.5,0 0.5,0.5 v 2 c 0,0.4694915 -0.03051,0.5 -0.5,0.5 z"
   id="path6"
   inkscape:connector-curvature="0"
   style="fill:none;stroke:#373737;stroke-miterlimit:10;stroke-opacity:1"
   sodipodi:nodetypes="sssssssss" />
<path
   class="ColorScheme-Text"
   d="M 6.3,12.5 H 4 c -0.4,0 -0.5,0 -0.5,-0.5 V 10 C 3.5,9.5 3.5474576,9.5 4,9.5 h 2 c 0.4711864,0 0.5,0 0.5,0.5 v 2.3 c 0,0.218644 -0.1,0.2 -0.2,0.2 z"
   id="path8"
   inkscape:connector-curvature="0"
   style="fill:none;stroke:#373737;stroke-miterlimit:10;stroke-opacity:1"
   sodipodi:nodetypes="sssssssss" />
<path
   class="ColorScheme-Text"
   d="M 12.2,12.5 H 10 C 9.5,12.5 9.5,12.50339 9.5,12 V 10 C 9.5,9.5 9.7,9.5 10,9.5 h 2 c 0.2,0 0.5,0.071186 0.5,0.5 v 2.2 c 0,0.2 -0.1,0.3 -0.3,0.3 z"
   id="path10"
   inkscape:connector-curvature="0"
   style="fill:none;stroke:#373737;stroke-miterlimit:10;stroke-opacity:1"
   sodipodi:nodetypes="scsssscss" />
</svg>